<?xml version="1.0" standalone="no"?>
<!DOCTYPE svg PUBLIC "-//W3C//DTD SVG 1.1//EN" "http://www.w3.org/Graphics/SVG/1.1/DTD/svg11.dtd" >
<svg xmlns="http://www.w3.org/2000/svg">
<metadata>Generated by IcoMoon</metadata>
<defs>
<font id="ford-icons" horiz-adv-x="1024">
<font-face units-per-em="1024" ascent="960" descent="-64" />
<missing-glyph horiz-adv-x="1024" />
<glyph unicode="&#x20;" horiz-adv-x="512" d="" />
<glyph unicode="&#xe001;" glyph-name="calendar" d="M798.72 837.12v122.88h-122.88v-122.88h-327.68v122.88h-122.88v-122.88h-122.88v-778.24c0-67.692 55.296-122.88 122.88-122.88h573.44c67.584 0 122.88 55.188 122.88 122.88v778.24h-122.88zM839.68 58.88c0-22.224-18.842-40.96-40.96-40.96h-573.44c-22.118 0-40.96 18.736-40.96 40.96v532.48h655.36v-532.48zM471.040 386.56h40.96v-204.8c9.064-22.274 25.456-40.96 40.96-40.96 24.568 0 40.96 18.686 40.96 40.96v286.72c0 14.192-6.922 27.866 0 40.96-29.142 1.822-42.986 1.822-40.96 0l-122.88-81.92c1.044 6.26-5.15-19.056 0-40.96 14.85-17.832 36.706-24.874 40.96 0v0 0z" />
<glyph unicode="&#xe003;" glyph-name="circle-phone" d="M512 939.52c270.991 0 491.52-220.508 491.52-491.52 0-270.991-220.529-491.52-491.52-491.52-271.032 0-491.52 220.529-491.52 491.52 0 271.012 220.488 491.52 491.52 491.52v0zM512 960c-282.767 0-512-229.233-512-512s229.233-512 512-512c282.767 0 512 229.233 512 512s-229.233 512-512 512zM396.565 325.993l-0.091-0.081c133.256-135.625 314.635-170.637 344.554-125.556 10.849 16.246 22.203 41.362 32.951 62.919 10.185 20.429 1.42 45.776-18.959 56.046l-103.629 52.438c-10.588 7.095-25.537 4.707-32.639-5.916l-25.769-37.875c-83.361 26.587-153.716 96.188-180.633 180.715l37.424 26.224c10.608 7.095 13.116 21.951 6.024 32.543l-52.192 103.434c-10.265 20.389-35.147 28.713-55.577 18.524-21.558-10.744-47.055-21.709-63.294-32.553-45.322-30.124-7.092-207.534 111.829-330.863z" />
<glyph unicode="&#xe004;" glyph-name="circle-phone-solid" d="M512 960c-282.829 0-512-229.171-512-512s229.171-512 512-512c282.829 0 512 229.171 512 512s-229.171 512-512 512v0 0zM773.98 263.27c-10.752-21.545-22.098-46.674-32.952-62.915-29.921-45.076-211.292-10.076-344.556 125.563l0.102 0.082c-118.927 123.331-157.164 300.728-111.841 330.854 16.241 10.854 41.738 21.811 63.304 32.563 20.419 10.179 45.302 1.864 55.562-18.534l52.204-103.424c7.086-10.609 4.588-25.457-6.021-32.563l-37.437-26.214c26.931-84.521 97.28-154.132 180.634-180.716l25.764 37.868c7.107 10.629 22.057 13.025 32.645 5.919l103.629-52.429c20.378-10.281 29.143-35.615 18.964-56.054v0 0z" />
<glyph unicode="&#xe005;" glyph-name="trash" d="M675.84 878.080v40.96c0 22.65-18.31 40.96-40.96 40.96h-245.76c-22.65 0-40.96-18.31-40.96-40.96v-40.96h-245.76v-122.88h40.96v-696.32c0-67.994 54.886-122.88 122.88-122.88h491.52c67.994 0 122.88 54.886 122.88 122.88v696.32h40.96v122.88h-245.76zM348.16 58.88h-81.92v655.36h81.92v-655.36zM552.96 58.88h-81.92v655.36h81.92v-655.36zM757.76 58.88h-81.92v655.36h81.92v-655.36z" />
<glyph unicode="&#xe006;" glyph-name="envelope, mail" d="M0 512.854v-597.334h1024v597.334l-512 426.666-512-426.666zM511.77 171.52l-383.77 256h768l-384.23-256z" />
<glyph unicode="&#xe007;" glyph-name="print" d="M905.846 824.931h-787.692c-64.985 0-118.154-53.169-118.154-118.154v-315.077c0-64.985 53.169-118.154 118.154-118.154h118.154v-202.477h551.385v202.477h118.154c64.985 0 118.154 53.169 118.154 118.154v315.077c0 64.985-53.131 118.154-118.154 118.154v0zM708.923 149.879h-393.846v354.462h393.846v-354.462zM884.973 626.038c-33.083 0-59.865 26.781-59.865 59.904 0 33.477 26.781 60.219 59.865 60.219 33.515 0 60.258-26.781 60.258-60.219 0-33.123-26.742-59.904-60.258-59.904v0z" />
<glyph unicode="&#xe008;" glyph-name="phone-incoming" d="M670.327 960v-384.959h349.963l-349.963 384.959zM592.531 503.088l0.14 0.104c-2.659 2.695-18.653 18.653-22.013 22.013l-0.14-0.14c-190.205 183.45-462.966 241.685-509.441 171.726-16.763-25.058-34.262-63.764-50.815-96.975-15.678-31.497-2.17-70.623 29.256-86.442l159.828-80.876c16.309-10.919 39.371-7.244 50.36 9.134l39.755 58.409c128.611-40.981 237.1-148.314 278.641-278.641l-57.71-40.386c-16.413-10.919-20.263-33.911-9.31-50.184l80.526-159.583c15.818-31.392 54.174-44.27 85.707-28.522 33.246 16.553 72.547 33.491 97.639 50.22 69.958 46.404 11.059 320.006-172.427 510.141z" />
<glyph unicode="&#xe009;" glyph-name="upload" d="M896 426.666v-298.666h-768v298.666h-128v-426.666h1024v426.666h-128zM341.334 341.334h341.334v298.666h170.666l-341.334 256-341.334-256h170.666v-298.666z" />
<glyph unicode="&#xe00a;" glyph-name="triangle-caution-solid" d="M425.48 837.291c47.78 81.661 125.328 81.523 173.028 0l404.847-691.917c47.78-81.661 9.786-147.859-84.643-147.859h-813.438c-94.528 0-132.344 66.336-84.643 147.859l404.847 691.917zM470.216 168.737h82.871v89.035h-82.871v-89.035zM482.544 313.934h58.216l7.533 362.307h-73.284l7.533-362.307z" />
<glyph unicode="&#xe00b;" glyph-name="circle-chevron-down-solid" d="M512-64c282.77 0 512 229.23 512 512s-229.23 512-512 512c-282.77 0-512-229.23-512-512s229.23-512 512-512v0zM780.271 548.562l42.048-42.048-310.319-310.319-310.319 310.319 42.048 42.048 268.271-268.271 268.271 268.271z" />
<glyph unicode="&#xe00c;" glyph-name="check" d="M1024 742.789l-656.102-736.97-367.898 393.050 153.6 147.393 214.298-245.657 502.502 589.575z" />
<glyph unicode="&#xe00d;" glyph-name="circle-check" d="M512.040 960c-282.828 0-512.040-229.212-512.040-512s229.212-512 512.040-512c282.746 0 511.96 229.212 511.96 512s-229.212 512-511.96 512v0zM512.040-23.040c-260.218 0-471.080 210.862-471.080 471.040s210.862 471.040 471.080 471.040c260.136 0 471-210.862 471-471.040s-210.862-471.040-471-471.040v0zM451.788 345.6l-124.108 122.88-81.92-81.92 206.028-204.8 367.412 409.6-81.92 81.92-285.492-327.68" />
<glyph unicode="&#xe00e;" glyph-name="circle-check-solid" d="M512.040 960c-282.828 0-512.040-229.212-512.040-512s229.212-512 512.040-512c282.746 0 511.96 229.212 511.96 512s-229.212 512-511.96 512v0zM451.788 181.76l-206.028 204.8 81.92 81.92 124.108-122.88 285.492 327.68 81.92-81.92-367.412-409.6z" />
<glyph unicode="&#xe00f;" glyph-name="circle-chevron-right" d="M512 960c-282.77 0-512-229.23-512-512s229.23-512 512-512c282.77 0 512 229.23 512 512s-229.23 512-512 512v0zM512-27.428c-262.144 0-475.428 213.284-475.428 475.428s213.284 475.428 475.428 475.428c262.144 0 475.428-213.284 475.428-475.428s-213.284-475.428-475.428-475.428zM395.776 592.274l64.768 64.804 213.76-213.724-217.93-217.966-64.476 64.476 153.124 153.162-149.248 149.248z" />
<glyph unicode="&#xe010;" glyph-name="circle-chevron-right-solid" d="M512 960c-282.296 0-512-229.704-512-512s229.704-512 512-512c282.296 0 512 229.704 512 512s-229.704 512-512 512v0zM452.116 208.262l-69.468 69.428 164.904 164.946-160.728 160.728 69.754 69.796 230.196-230.154-234.66-234.742z" />
<glyph unicode="&#xe011;" glyph-name="circle-x, circle-close" d="M512 960c-282.788 0-512-229.212-512-512s229.212-512 512-512c282.788 0 512 229.212 512 512s-229.212 512-512 512v0zM512-23.040c-260.178 0-471.040 210.862-471.040 471.040s210.862 471.040 471.040 471.040c260.178 0 471.040-210.862 471.040-471.040s-210.862-471.040-471.040-471.040v0zM693.044 665.21l-181.044-181.002-181.044 181.002-36.168-36.168 181.002-181.044-181.002-181.002 36.168-36.208 181.044 181.002 181.044-181.002 36.168 36.208-181.002 181.002 181.002 181.044-36.168 36.168" />
<glyph unicode="&#xe012;" glyph-name="circle-x-solid, circle-close-solid" d="M512 960c-282.794 0-512-229.206-512-512s229.206-512 512-512c282.794 0 512 229.206 512 512s-229.206 512-512 512v0zM729.216 267.008l-36.182-36.224-181.034 180.992-181.034-180.992-36.182 36.224 180.992 180.992-180.992 181.034 36.182 36.182 181.034-180.992 181.034 180.992 36.182-36.182-180.992-181.034 180.992-180.992z" />
<glyph unicode="&#xe013;" glyph-name="circle-commercial-model-truck" d="M511.98 960c277.303 0 501.981-229.151 501.981-511.98 0-282.849-224.678-512.020-501.981-512.020-277.263 0-501.941 229.171-501.941 512.020 0 282.829 224.678 511.98 501.941 511.98zM511.98 939.52c-265.868 0-481.461-219.899-481.461-491.5 0-271.622 215.594-491.54 481.461-491.54 265.901 0 481.501 219.912 481.501 491.54 0 271.607-215.599 491.5-481.501 491.5zM672.627 529.92h-301.176c-26.102 0-48.389-17.203-56.621-40.96-6.566-17.285-3.614-19.128-3.614-286.72 0-22.63 17.99-40.96 40.157-40.96h20.078c22.167 0 40.157 18.33 40.157 40.96v20.48h220.863v-20.48c0-22.63 17.97-40.96 40.157-40.96h20.078c22.167 0 40.157 18.33 40.157 40.96 0 267.571 2.952 269.435-3.614 286.72-8.232 23.757-30.519 40.96-56.621 40.96v0 0zM617.010 305.869c0 21.504 16.665 38.912 37.346 38.912s37.346-17.408 37.346-38.912c0-4.301-0.602-8.397-2.209-12.288 0.201-0.205 0.201-0.205 0-0.41h-0.201c-4.618-15.155-18.472-26.010-34.936-26.010-12.85 0-24.295 6.758-30.921 16.998-4.016 6.349-6.425 13.722-6.425 21.709v0 0zM427.269 284.16c-6.626-10.24-18.071-16.998-30.921-16.998-13.252 0-25.098 7.373-31.523 18.227-3.815 5.939-5.823 12.902-5.823 20.48 0 21.504 16.866 38.912 37.346 38.912 20.681 0 37.346-17.408 37.346-38.912 0-7.987-2.409-15.36-6.425-21.709v0zM351.373 386.56v81.92c0 11.264 9.035 20.48 20.078 20.48h301.176c11.043 0 20.078-9.216 20.078-20.48v-81.92h-341.333zM311.216 693.76v-143.36c16.665 12.902 37.547 20.48 60.235 20.48h301.176c22.689 0 43.57-7.578 60.235-20.48v143.36h-421.647z" />
<glyph unicode="&#xe014;" glyph-name="circle-commercial-model-truck-solid" d="M511.98 960c-277.258 0-501.944-229.151-501.944-511.98 0-282.849 224.686-512.020 501.944-512.020 277.299 0 501.985 229.171 501.985 512.020 0 282.829-224.686 511.98-501.985 511.98v0zM311.214 693.76h421.642v-143.36c-16.671 12.902-37.54 20.48-60.232 20.48h-301.178c-22.692 0-43.561-7.578-60.232-20.48v143.36zM732.856 202.24c0-22.631-17.982-40.96-40.161-40.96h-20.071c-22.18 0-40.161 18.329-40.161 40.96v20.48h-220.856v-20.48c0-22.631-18.002-40.96-40.161-40.96h-20.071c-22.18 0-40.161 18.329-40.161 40.96 0 267.592-2.949 269.435 3.605 286.72 8.233 23.757 30.536 40.96 56.627 40.96h301.178c26.092 0 48.394-17.203 56.627-40.96 6.553-17.285 3.605-19.148 3.605-286.72v0zM672.624 488.96h-301.178c-11.038 0-20.071-9.216-20.071-20.48v-81.92h341.319v81.92c0 11.264-9.032 20.48-20.071 20.48M654.356 344.781c-20.685 0-37.355-17.408-37.355-38.912 0-7.988 2.416-15.36 6.431-21.709 6.635-10.24 18.063-16.998 30.924-16.998 16.466 0 30.31 10.855 34.939 26.010h0.185c0.205 0.205 0.205 0.205 0 0.41 1.618 3.891 2.211 7.988 2.211 12.288 0 21.504-16.65 38.912-37.335 38.912M396.349 344.781c-20.48 0-37.355-17.408-37.355-38.912 0-7.578 2.007-14.541 5.816-20.48 6.431-10.855 18.289-18.227 31.539-18.227 12.841 0 24.289 6.759 30.924 16.998 4.014 6.348 6.411 13.722 6.411 21.709 0 21.504-16.65 38.912-37.335 38.912" />
<glyph unicode="&#xe015;" glyph-name="commercial-model-truck" d="M801.592 644.923h-579.185c-50.196 0-93.056-33.083-108.887-78.769-12.627-33.24-6.95-36.785-6.95-551.385 0-43.519 34.596-78.769 77.225-78.769h38.612c42.629 0 77.225 35.25 77.225 78.769v39.385h424.737v-39.385c0-43.519 34.558-78.769 77.225-78.769h38.612c42.629 0 77.225 35.25 77.225 78.769 0 514.56 5.677 518.144-6.95 551.385-15.831 45.687-58.69 78.769-108.887 78.769v0 0zM694.637 214.056c0 41.354 32.048 74.831 71.819 74.831s71.819-33.477 71.819-74.831c0-8.271-1.158-16.148-4.248-23.631 0.387-0.394 0.387-0.394 0-0.788h-0.387c-8.881-29.144-35.523-50.019-67.185-50.019-24.712 0-46.721 12.996-59.463 32.688-7.723 12.21-12.356 26.388-12.356 41.748v0 0zM329.75 172.308c-12.742-19.692-34.752-32.688-59.463-32.688-25.485 0-48.265 14.179-60.621 35.052-7.337 11.421-11.198 24.812-11.198 39.385 0 41.354 32.435 74.831 71.819 74.831 39.771 0 71.819-33.477 71.819-74.831 0-15.36-4.633-29.538-12.356-41.748v0 0zM183.794 369.231v157.538c0 21.662 17.375 39.385 38.612 39.385h579.185c21.237 0 38.612-17.723 38.612-39.385v-157.538h-656.41zM106.569 960v-275.692c32.048 24.812 72.206 39.385 115.837 39.385h579.185c43.633 0 83.788-14.573 115.837-39.385v275.692h-810.86z" />
<glyph unicode="&#xe016;" glyph-name="calculator" d="M176.583 959.999c-39.019 0-70.652-31.769-70.652-70.384v-883.231c0-38.872 31.836-70.384 70.652-70.384h670.835c39.019 0 70.652 31.769 70.652 70.384v883.231c0 38.872-31.836 70.384-70.652 70.384h-670.835zM353.104 6.621h-176.551v176.551h176.551v-176.551zM353.104 253.793h-176.551v176.551h176.551v-176.551zM353.104 500.965h-176.551v176.551h176.551v-176.551zM600.276 6.621h-176.551v176.551h176.551v-176.551zM423.724 253.793v176.551h176.551v-176.551h-176.551zM600.276 500.965h-176.551v176.551h176.551v-176.551zM847.448 6.621h-176.551v176.551h176.551v-176.551zM847.448 253.793h-176.551v176.551h176.551v-176.551zM670.896 500.965v176.551h176.551v-176.551h-176.551zM847.448 748.137h-670.895v141.241h670.895v-141.241z" />
<glyph unicode="&#xe017;" glyph-name="map-marker" horiz-adv-x="1229" d="M884.244 848.776c-148.298 148.298-391.19 148.298-539.489 0-127.082-127.082-144.983-323.118-54.589-470.091l324.445-442.685 324.224 442.685c90.394 146.972 72.492 343.010-54.589 470.091v0zM726.22 467.090c-61.442-61.442-162.001-61.442-223.443 0s-61.442 162.222 0 223.664c61.442 61.662 162.001 61.662 223.443 0 61.662-61.442 61.662-162.222 0-223.664v0z" />
<glyph unicode="&#xe018;" glyph-name="expand, fullscreen" d="M860.16 652.8v-409.6h-696.32v409.6h696.32zM122.88 693.76v-490.544h778.24v490.544h-778.24zM778.24 775.68h204.8v-204.8h40.96v245.76h-245.76v-40.96zM245.76 120.32h-204.8v204.8h-40.96v-245.76h245.76v40.96zM983.040 325.12v-204.8h-204.8v-40.96h245.76v245.76h-40.96zM0 816.64v-245.76h40.96v204.8h204.8v40.96h-245.76z" />
<glyph unicode="&#xe019;" glyph-name="image" d="M968.703 857.6h-913.332c-30.53 0-55.372-25.669-55.372-57.267v-704.587c0-31.597 24.841-57.346 55.372-57.346h913.332c30.493 0 55.297 25.748 55.297 57.346v704.587c0 31.558-24.804 57.267-55.297 57.267v0zM948.149 107.128h-872.295v667.259h872.295v-667.259zM326.581 628.455c0-37.956-29.734-68.767-66.408-68.767v0c-36.675 0-66.446 30.811-66.446 68.767v0c0 37.956 29.771 68.767 66.446 68.767v0c36.675 0 66.408-30.851 66.408-68.767v0 0zM328.819 421.996c7.927 9.576 23.021 12.247 33.602 5.965l124.889-74.497c10.506-6.28 25.486-3.455 33.224 6.28l152.84 193.741c7.698 9.734 18.66 8.597 24.423-2.513l188.529-366.286c5.726-11.107 0.456-20.253-11.719-20.253h-736.255c-12.137 0-15.625 7.889-7.738 17.466l198.201 240.096z" />
<glyph unicode="&#xe01a;" glyph-name="location" d="M1024 960l-465.455-1024v558.545h-558.545z" />
<glyph unicode="&#xe01b;" glyph-name="circle-minus" d="M512 939.52c271.012 0 491.52-220.488 491.52-491.52 0-271.012-220.508-491.52-491.52-491.52s-491.52 220.508-491.52 491.52c0 271.032 220.508 491.52 491.52 491.52v0 0zM512 960c-282.767 0-512-229.233-512-512 0-282.747 229.233-512 512-512s512 229.233 512 512c0 282.767-229.233 512-512 512v0zM768 468.48v-40.96h-512v40.96h512z" />
<glyph unicode="&#xe01c;" glyph-name="circle-minus-solid" d="M512-64c282.77 0 512 229.23 512 512s-229.23 512-512 512c-282.77 0-512-229.23-512-512s229.23-512 512-512v0zM768 468.48v-40.96h-512v40.96h512z" />
<glyph unicode="&#xe01d;" glyph-name="notes" d="M843.296 605.294v-578.941h-762.98v762.98h537.137l98.063 80.314h-715.516v-923.608h923.608v732.1l-80.314-72.845zM943.688 949.961c-21.684 0-41.241-8.675-55.778-22.649l113.965-112.761c13.653 14.416 22.125 33.731 22.125 55.096 0 44.333-36.022 80.314-80.314 80.314v0zM441.727 387.765l-40.157 40.157 480.276 443.331-38.551 38.551-261.020-240.941h-461.804v-80.314h374.784l-87.020-80.314h-287.765v-80.314h200.784v-80.314l-40.157-40.157v-40.157h40.157l40.157 40.157h80.314l522.039 481.882-41.763 41.763-480.276-443.331z" />
<glyph unicode="&#xe01e;" glyph-name="credit-card" d="M923.421 815.59h-827.611c-52.951 0-95.81-47.358-95.81-100.299v-536.2c0-52.951 42.859-98.681 95.81-98.681h827.611c52.951 0 100.579 45.73 100.579 98.681v536.2c0 52.941-47.629 100.299-100.579 100.299v0zM988.991 179.091c0-33.783-31.787-63.672-65.571-63.672h-827.611c-33.783 0-60.801 29.889-60.801 63.672v277.661h953.983v-277.661zM988.991 491.761h-953.983v78.769h953.983v-78.769zM988.991 605.538h-953.983v109.752c0 33.775 27.018 65.291 60.801 65.291h827.611c33.783 0 65.571-31.516 65.571-65.291v-109.752z" />
<glyph unicode="&#xe01f;" glyph-name="circle-plus" d="M512 939.52c271.012 0 491.52-220.488 491.52-491.52 0-271.012-220.508-491.52-491.52-491.52s-491.52 220.508-491.52 491.52c0 271.032 220.508 491.52 491.52 491.52v0 0zM532.48 427.52h235.52v40.96h-235.52v235.52h-40.96v-235.52h-235.52v-40.96h235.52v-235.52h40.96v235.52zM512 960c-282.767 0-512-229.233-512-512 0-282.747 229.233-512 512-512s512 229.233 512 512c0 282.767-229.233 512-512 512v0z" />
<glyph unicode="&#xe020;" glyph-name="circle-plus-solid" d="M512 960c-282.767 0-512-229.233-512-512s229.233-512 512-512c282.767 0 512 229.233 512 512s-229.233 512-512 512v0zM768 427.52h-235.52v-245.76h-40.96v245.76h-235.52v40.96h235.52v225.28h40.96v-225.28h235.52v-40.96z" />
<glyph unicode="&#xe021;" glyph-name="star" d="M1024 562.934l-353.771 51.432-158.229 320.559-158.229-320.559-353.771-51.432 255.999-249.539-60.417-352.321 316.418 166.346 316.418-166.346-60.417 352.321 255.999 249.539zM779.761 28.076l-267.761 140.755-267.761-140.755 51.142 298.115-216.619 211.153 299.357 43.521 133.88 271.239 133.88-271.239 299.357-43.521-216.619-211.153 51.142-298.115z" />
<glyph unicode="&#xe022;" glyph-name="star-solid" d="M512.002 127.418l-316.434-166.359 60.433 352.354-256.001 249.539 353.783 51.407 158.217 320.583 158.217-320.583 353.783-51.407-256.001-249.539 60.433-352.354z" />
<glyph unicode="&#xe023;" glyph-name="share" d="M550.383 816.103v-536.151h-76.767v536.151l-101.779-101.779-54.464 54.464 194.626 191.212 194.626-191.212-54.464-54.464-101.779 101.779zM166.546-25.616h690.906v614.138h-230.302v38.384h268.686v-690.906h-767.673v690.906h268.686v-38.384h-230.302v-614.138z" />
<glyph unicode="&#xe024;" glyph-name="sound, speaker-volume" d="M866.928-1.72c98.28 122.744 157.072 278.584 157.072 448.182 0 171.018-59.782 328.048-159.55 451.258l-42.17-31.746c93.268-114.336 149.206-260.384 149.206-419.514 0-157.482-54.788-302.154-146.324-415.954l41.764-32.228zM705.696 122.694c75.714 89.092 121.382 204.424 121.382 330.404 0 124.458-44.572 238.526-118.654 327.166l-39.734-29.912c66.192-81.090 105.874-184.552 105.874-297.254 0-114.010-40.606-218.562-108.186-300.064l39.318-30.34zM558.518 236.264c52.53 54.742 84.764 128.746 84.764 210.198 0 84.556-34.736 161.082-90.856 216.37l-36.648-27.588c53.988-47.456 88.118-117.408 88.118-195.418 0-70.812-28.122-134.98-73.688-181.714l28.31-21.846zM0 579.202v-252.208h183.794v252.208h-183.794zM409.546 752.786l-225.75-178.69v-255.27l225.092-178.69 24.344-25.528v663.704l-23.686-25.528z" />
<glyph unicode="&#xe025;" glyph-name="video-camera" d="M1023.999 874.667l-256-232.746v147.412c0 47.104-38.273 85.333-85.333 85.333h-597.333c-47.104 0-85.333-38.229-85.333-85.333v-682.667c0-47.060 38.229-85.333 85.333-85.333h597.333c47.060 0 85.333 38.273 85.333 85.333v147.371l256-232.704v853.333" />
<glyph unicode="&#xe026;" glyph-name="hash-symbol" horiz-adv-x="1229" d="M1182.152 559.305v200.348h-146.254l38.957 200.348h-186.324l-38.957-200.348h-349.050l38.957 200.348h-186.101l-38.957-200.348h-267.576v-200.348h228.62l-43.409-222.609h-185.211v-200.348h146.476l-38.957-200.348h186.101l38.957 200.348h349.050l-38.957-200.348h186.101l38.957 200.348h267.576v200.348h-228.62l43.387 222.609h185.233zM745.619 224.279l-97.502 112.417h-229.733l43.186 222.609h349.050c-51.445-265.172-37.398-192.801-65.002-335.026v0z" />
<glyph unicode="&#xe027;" glyph-name="star-half" d="M1024 562.934l-255.999-249.539 60.417-352.321-316.418 166.346-316.418-166.346 60.417 352.321-255.999 249.539 353.771 51.432 158.229 320.559 158.229-320.559 353.771-51.432zM512.042 168.808l267.719-140.733-51.142 298.115 216.619 211.153-299.357 43.521-133.838 271.156v-683.211z" />
<glyph unicode="&#xe028;" glyph-name="circle-swipe-touch" d="M512 939.52c271.012 0 491.52-220.508 491.52-491.52s-220.508-491.52-491.52-491.52c-271.012 0-491.52 220.508-491.52 491.52s220.508 491.52 491.52 491.52v0 0zM512 960c-282.767 0-512-229.233-512-512s229.233-512 512-512c282.767 0 512 229.233 512 512s-229.233 512-512 512v0 0 0zM660.48 481.094c-1.925 10.977-4.69 11.94-26.931 16.835-70.246 13.353-123.515 12.943-123.515 12.943h-0.061l-30.986 128.963c-5.98 22.057-25.375 35.41-46.121 31.744-21.709-3.83-36.229-24.576-32.42-46.264l31.805-178.196-23.511 11.080c-22.446 12.227-41.82 11.53-54.804-1.597-7.455-7.578-11.551-17.633-11.469-28.324 0.061-10.691 4.956-17.879 11.837-28.18l91.853-122.081c56.934-64.922 91.484-59.945 134.001-48.005 76.247 21.422 112.579 80.343 100.372 149.524-0.164 0.963-20.050 101.56-20.050 101.56M342.458 615.934c-3.584 16.323-2.58 27.935 5.693 36.803h-102.4v-61.44h102.4l-5.693 24.637zM532.48 652.732c4.895-5.243 7.188-14.971 9.277-22.712l11.203-38.728h225.28v61.44h-245.76z" />
<glyph unicode="&#xe029;" glyph-name="swipe-mouse" d="M664.375 201.589c-33.267-47.504-82.803-79.173-139.489-89.163-12.371-2.189-24.968-3.289-37.447-3.289-105.314 0-195.010 75.219-213.284 178.859l-43.175 244.845c-9.999 56.678 2.822 114.055 36.081 161.567 33.267 47.504 82.803 79.173 139.481 89.163 12.38 2.181 24.976 3.289 37.447 3.289 105.322 0 195.019-75.219 213.284-178.851l43.183-244.861c9.99-56.67-2.822-114.047-36.081-161.559v0 0zM1024 461.478h-307.068l-26.857 152.318c-21.079 119.575-124.579 206.365-246.085 206.365-14.411 0-28.955-1.273-43.225-3.788-65.444-11.547-122.614-48.070-160.977-102.866-38.371-54.789-53.14-121.007-41.61-186.443l43.175-244.853c21.087-119.584 124.579-206.373 246.085-206.373 14.411 0 28.963 1.273 43.233 3.797 65.444 11.531 122.614 48.070 160.977 102.858 38.371 54.797 53.14 121.007 41.601 186.452l-10.44 59.234h301.19v33.301zM0 461.476v-33.301h183.155l-8.325 33.301h-174.83zM442.36 676.358c-1.599 9.058-10.232 15.094-19.29 13.512-9.058-1.599-15.102-10.24-13.503-19.29l21.587-122.431c1.424-8.083 8.45-13.761 16.376-13.761 0.957 0 1.94 0.083 2.914 0.258 9.058 1.59 15.102 10.232 13.503 19.282l-21.587 122.431z" />
<glyph unicode="&#xe600;" glyph-name="360-solid-50px" d="M512 960c-282.767 0-512-229.233-512-512s229.233-512 512-512c282.767 0 512 229.233 512 512s-229.233 512-512 512v0zM420.127 497.336l-60.088 42.885c-77.148-111.739-60.6-261.12 34.14-353.362-12.39 6.246-24.474 13.517-36.147 21.832-122.675 87.47-151.859 256.963-66.58 380.477l-54.047 38.564 196.035 81.449-13.312-211.845zM590.561 186.86l13.353 211.845 60.068-42.885c77.128 111.78 60.58 261.14-34.161 353.362 12.431-6.246 24.515-13.558 36.188-21.873 122.634-87.47 151.818-256.922 66.56-380.436l54.026-38.543-196.035-81.469z" />
<glyph unicode="&#xe601;" glyph-name="refresh" d="M512 939.102c270.796 0 491.102-220.306 491.102-491.102s-220.306-491.102-491.102-491.102c-270.796 0-491.102 220.306-491.102 491.102s220.306 491.102 491.102 491.102v0zM512 960c-282.749 0-512-229.23-512-512s229.251-512 512-512c282.77 0 512 229.23 512 512s-229.23 512-512 512v0 0zM291.443 589.166c-85.264-123.507-56.090-293.010 66.581-380.468 11.682-8.317 23.761-15.59 36.153-21.838-94.73 92.244-111.282 241.622-34.147 353.364l60.103-42.883 13.312 211.843-196.044-81.46 54.042-38.557zM732.578 306.876c85.243 123.507 56.069 292.968-66.56 380.426-11.682 8.317-23.761 15.632-36.195 21.88 94.73-92.223 111.282-241.58 34.168-353.364l-60.082 42.883-13.354-211.843 196.044 81.46-54.021 38.557z" />
<glyph unicode="&#xe602;" glyph-name="circle-write-solid" d="M512 960c-282.767 0-512-229.233-512-512s229.233-512 512-512c282.767 0 512 229.233 512 512s-229.233 512-512 512v0zM495.165 663.839l187.126-262.042c-14.213 0.43-33.26-3.994-56.934-20.849-23.245-16.609-33.915-32.973-38.154-47.145l-187.126 262.083c-0.041 0.061-4.239 6.369-3.768 16.179 0.696 14.848 11.735 30.351 31.99 44.769 15.892 11.387 30.331 17.142 42.906 17.142 16.077 0 23.736-9.83 23.962-10.138v0zM376.689 729.149c15.913 11.346 30.331 17.080 42.865 17.080 16.118 0 23.798-9.83 24.003-10.138l29.553-41.349c-0.696 0.020-1.27 0.164-1.925 0.164-17.019 0-35.553-7.086-55.071-21.012-23.593-16.876-33.997-33.485-38.195-47.043l-29.512 41.349c-0.041 0.041-4.198 6.328-3.707 16.159 0.676 14.828 11.776 30.331 31.99 44.79v0zM623.841 182.252l-4.526-0.205c-7.27-0.492-19.313 1.72-24.658 19.026-4.526-2.171-9.523-4.772-13.517-6.84-14.029-7.291-27.341-14.172-37.745-16.118-7.762-1.434-15.278 0.307-21.156 4.977-9.933 7.926-11.203 20.378-11.674 31.007-19.804-8.786-55.521-29.839-73.277-45.015-6.164-5.263-13.558-8.069-21.197-8.069-1.659 0-3.338 0.143-5.059 0.41-22.569 3.625-38.892 30.495-53.268 54.211-1.864 3.052-4.035 6.615-5.98 9.769-14.991-9.114-44.503-31.007-73.81-54.948-8.315-6.82-20.644-5.55-27.402 2.765-6.82 8.335-5.55 20.623 2.765 27.402 83.927 68.588 97.321 67.973 104.714 67.523 13.906-0.778 21.135-12.657 33.055-32.276 5.345-8.806 17.060-28.119 24.412-34.427 17.060 12.739 90.972 66.109 117.371 53.228 13.763-6.615 15.729-21.545 16.323-32.911 4.751 2.314 9.892 4.956 14.008 7.107 22.098 11.448 34.263 17.265 45.507 15.217 14.234-2.744 19.292-14.131 21.381-22.508 24.105 1.167 37.806 2.867 45.65 4.342 12.984-8.663 25.928-16.814 37.724-23.368-9.892-12.861-32.85-18.063-89.641-20.296v0zM747.991 209.306c-19.333 4.362-81.633 46.51-134.533 87.675l-4.239 5.96h-0.041c-0.266 0.41-18.596 27.484 28.283 60.969 46.387 33.014 66.13 7.967 66.867 7.025v-0.020c0 0 0.041 0 0.041-0.020l4.28-6.001c21.504-62.71 41.513-136.458 39.342-155.587v0z" />
<glyph unicode="&#xe603;" glyph-name="circle-write" d="M512 960c-282.728 0-512-229.23-512-512s229.272-512 512-512c282.77 0 512 229.23 512 512s-229.23 512-512 512v0 0zM512 939.102c270.796 0 491.102-220.306 491.102-491.102s-220.306-491.102-491.102-491.102c-270.796 0-491.102 220.306-491.102 491.102s220.306 491.102 491.102 491.102v0zM630.115 221.884c-2.090 8.38-7.147 19.769-21.379 22.507-11.264 2.048-23.427-3.762-45.516-15.214-4.117-2.152-9.258-4.786-14.002-7.105-0.606 11.368-2.57 26.29-16.321 32.914-26.415 12.873-100.331-40.5-117.384-53.227-7.356 6.311-19.059 25.621-24.409 34.419-11.912 19.623-19.143 31.493-33.061 32.287-7.398 0.439-20.773 1.066-104.699-67.521-8.317-6.792-9.592-19.080-2.779-27.418 6.771-8.317 19.101-9.571 27.418-2.759 29.299 23.949 58.807 45.829 73.791 54.941 1.964-3.135 4.117-6.708 5.998-9.759 14.378-23.719 30.699-50.594 53.269-54.209 1.714-0.272 3.385-0.418 5.057-0.418 7.628 0 15.026 2.8 21.191 8.067 17.763 15.172 53.478 36.237 73.268 45.014 0.481-10.616 1.755-23.071 11.682-30.992 5.872-4.681 13.396-6.416 21.149-4.974 10.407 1.944 23.719 8.819 37.763 16.112 3.992 2.069 8.986 4.66 13.5 6.834 5.35-17.304 17.387-19.519 24.66-19.017l4.535 0.188c56.78 2.236 79.747 7.44 89.631 20.313-11.786 6.541-24.743 14.691-37.721 23.364-7.837-1.505-21.546-3.197-45.641-4.347zM419.547 746.527c-12.539 0-26.937-5.747-42.862-17.095-20.208-14.44-31.305-29.947-31.995-44.784-0.481-9.822 3.678-16.112 3.72-16.154l29.508-41.357c4.2 13.563 14.608 30.177 38.201 47.041 19.519 13.939 38.034 21.023 55.066 21.023 0.648 0 1.233-0.146 1.923-0.167l-29.55 41.357c-0.209 0.293-7.879 10.136-24.012 10.136zM625.351 381.252c23.677 16.865 42.736 21.295 56.947 20.856l-187.141 262.040c-0.209 0.313-7.879 10.136-23.949 10.136-12.581 0-27.021-5.747-42.904-17.136-20.25-14.42-31.305-29.926-31.995-44.763-0.481-9.822 3.72-16.112 3.762-16.175l187.141-262.081c4.221 14.169 14.9 30.532 38.139 47.125zM708.65 365.202l-4.284 5.998-0.042 0.021v0.021c-0.731 0.94-20.48 25.997-66.853-7.022-46.895-33.479-28.568-60.562-28.296-60.959h0.042l4.242-5.977c52.893-41.148 115.19-83.299 134.541-87.667 2.152 19.122-17.847 92.871-39.351 155.585z" />
<glyph unicode="&#xe604;" glyph-name="build-price-solid-50px" d="M512 960c-282.767 0-512-229.233-512-512s229.233-512 512-512c282.767 0 512 229.233 512 512s-229.233 512-512 512v0zM759.992 507.372c-26.071-26.092-60.826-40.489-97.792-40.489-16.241 0-32.195 2.765-47.411 8.294l-7.168 2.56-255.324-255.304c-9.83-9.81-22.815-15.237-36.68-15.237s-26.849 5.407-36.639 15.217c-9.769 9.769-15.196 22.794-15.196 36.659 0 13.824 5.427 26.849 15.196 36.639l255.324 255.406-2.58 7.148c-18.166 50.401-5.571 107.418 32.195 145.183 26.132 26.112 60.867 40.489 97.833 40.489 9.728 0 19.313-0.983 28.692-2.97l-84.009-83.988v-62.71l44.38-44.38h62.71l83.988 83.968c9.441-45.363-4.321-93.327-37.519-126.484v0z" />
<glyph unicode="&#xe605;" glyph-name="circle-wrench" d="M512 939.102c270.796 0 491.102-220.306 491.102-491.102s-220.306-491.102-491.102-491.102c-270.796 0-491.102 220.306-491.102 491.102s220.306 491.102 491.102 491.102v0 0zM0 448c0-282.77 229.272-512 512-512 282.77 0 512 229.23 512 512s-229.23 512-512 512c-282.728 0-512-229.23-512-512v0 0zM315.622 207.235c13.855 0 26.854 5.392 36.676 15.193l255.331 255.31 7.168-2.57c15.214-5.475 31.159-8.276 47.397-8.276 36.968 0 71.722 14.357 97.802 40.479 33.186 33.165 46.958 81.147 37.512 126.495l-83.989-84.010h-62.715l-44.366 44.408v62.715l84.010 83.968c-9.383 1.985-18.975 2.988-28.693 2.988-36.968 0-71.701-14.399-97.844-40.5-37.763-37.804-50.364-94.772-32.183-145.22l2.57-7.126-255.31-255.373c-9.78-9.78-15.214-22.779-15.214-36.613 0-13.876 5.433-26.896 15.214-36.697s22.758-15.172 36.634-15.172v0 0z" />
<glyph unicode="&#xe606;" glyph-name="circle-certified-solid" d="M512 960c-282.767 0-512-229.233-512-512s229.233-512 512-512c282.767 0 512 229.233 512 512s-229.233 512-512 512v0zM856.412 333.844h-99.697v-69.427l-7.721-2.458c-82.555-26.235-232.591-66.683-234.066-67.092l-2.929-0.778-2.867 0.778c-1.495 0.41-151.552 40.858-234.107 67.092l-7.7 2.458h-0.041v69.427h-99.697l36.884 124.518-36.884 124.58h99.676v63.386l6.062 3.052c66.683 33.874 151.429 52.531 238.674 52.531 87.204 0 171.991-18.657 238.674-52.531l6.042-3.052v-63.386h99.697l-36.864-124.58 36.864-124.518zM512 650.752c-67.564 0-133.427-14.52-185.426-40.878l-10.342-5.222v-303.288l13.169-4.198c63.119-20.091 177.193-50.831 177.623-50.934l4.977-1.413 4.772 1.372c0.86 0.205 114.586 30.822 177.889 50.975l13.148 4.198v303.288l-10.342 5.222c-52.040 26.358-117.903 40.878-185.467 40.878v0zM447.324 314.921l-97.137 97.075 39.629 39.567 57.528-57.528 186.921 187.023 39.608-39.608-226.55-226.529z" />
<glyph unicode="&#xe607;" glyph-name="certified-pre-owned-outline" d="M512 960c-282.77 0-512-229.23-512-512s229.23-512 512-512c282.77 0 512 229.23 512 512s-229.23 512-512 512zM512 939.102c270.796 0 491.102-220.306 491.102-491.102s-220.306-491.102-491.102-491.102c-270.796 0-491.102 220.306-491.102 491.102s220.306 491.102 491.102 491.102zM856.398 582.938h-99.683v63.384l-6.040 3.051c-66.664 33.876-151.468 52.537-238.676 52.537-87.249 0-171.99-18.662-238.676-52.537l-6.060-3.051v-63.384h-99.683l36.885-124.573-36.885-124.531h99.704v-69.423h0.042l7.69-2.445c82.568-26.248 232.615-66.664 234.12-67.103l2.863-0.773 2.926 0.773c1.484 0.439 151.51 40.856 234.078 67.103l7.711 2.445v69.423h99.704l-36.864 124.531 36.843 124.573zM697.365 308.987l-5.872-1.881c-62.464-19.874-176.17-50.531-177.277-50.824l-2.173-0.606-2.173 0.606c-1.17 0.293-114.772 30.929-177.298 50.824l-5.872 1.881v289.228l4.618 2.32c50.489 25.6 114.688 39.727 180.705 39.727 66.058 0 130.215-14.148 180.746-39.727l4.618-2.32-0.021-289.228zM447.3 394.041l-57.532 57.511-39.602-39.56 97.134-97.050 226.555 226.534-39.56 39.581-186.995-187.016z" />
<glyph unicode="&#xe608;" glyph-name="circle-location-solid" d="M512-64c282.77 0 512 229.23 512 512s-229.23 512-512 512c-282.77 0-512-229.23-512-512s229.23-512 512-512v0zM696.32 652.8l-204.8-450.56v245.76h-245.76l450.56 204.8z" />
<glyph unicode="&#xe609;" glyph-name="circle-location" d="M512 960c-282.767 0-512-229.233-512-512s229.233-512 512-512c282.767 0 512 229.233 512 512s-229.233 512-512 512v0zM512-43.52c-271.462 0-491.52 220.058-491.52 491.52s220.058 491.52 491.52 491.52c271.462 0 491.52-220.058 491.52-491.52s-220.058-491.52-491.52-491.52v0zM491.52 448v-245.76l204.8 450.56-450.56-204.8h245.76" />
<glyph unicode="&#xe60a;" glyph-name="circle-search-list-solid" d="M676.659 509.44c-1.434 14.131-4.506 27.853-9.421 40.96-5.12 14.336-12.288 28.262-21.299 40.96-5.734 8.397-12.288 16.179-19.661 23.552-33.178 33.178-77.414 51.405-124.314 51.405s-90.931-18.227-124.109-51.405c-7.373-7.373-13.926-15.155-19.661-23.552-9.216-12.698-16.179-26.624-21.094-40.96-5.12-13.312-8.192-27.034-9.626-40.96-1.434-13.517-1.434-27.443 0.614-40.96 1.434-13.926 4.915-27.648 10.24-40.96 5.325-14.336 12.698-28.262 22.528-40.96 4.915-7.168 10.65-13.722 16.998-20.070 33.178-33.157 77.21-51.405 124.109-51.405s90.931 18.248 124.129 51.405c6.349 6.369 12.083 13.128 16.998 20.070 9.626 12.698 17.203 26.419 22.917 40.96 5.12 12.902 8.622 26.829 10.24 40.96 1.044 7.373 1.434 14.746 1.434 22.118 0 6.349-0.41 12.698-1.024 18.842v0zM406.733 585.83c1.843 1.843 3.891 3.891 5.939 5.53h178.586c2.048-1.638 4.096-3.686 5.939-5.53 10.445-10.445 19.046-22.528 25.395-35.43h-241.254c6.349 12.902 14.746 24.781 25.395 35.43v0zM597.197 395.366c-3.072-3.052-6.369-6.144-9.626-8.806h-171.008c-3.277 2.867-6.758 5.734-9.83 9.011-9.626 9.626-17.613 20.48-23.552 31.949h237.773c-6.144-11.674-14.131-22.528-23.757-32.154v0zM634.675 468.48h-265.216c-2.458 13.517-2.662 27.443-0.614 40.96h266.445c1.044-6.144 1.434-12.493 1.434-18.842 0-7.578-0.614-14.95-2.048-22.118v0zM676.659 509.44c-1.434 14.131-4.506 27.853-9.421 40.96-5.12 14.336-12.288 28.262-21.299 40.96-5.734 8.397-12.288 16.179-19.661 23.552-33.178 33.178-77.414 51.405-124.314 51.405s-90.931-18.227-124.109-51.405c-7.373-7.373-13.926-15.155-19.661-23.552-9.216-12.698-16.179-26.624-21.094-40.96-5.12-13.312-8.192-27.034-9.626-40.96-1.434-13.517-1.434-27.443 0.614-40.96 1.434-13.926 4.915-27.648 10.24-40.96 5.325-14.336 12.698-28.262 22.528-40.96 4.915-7.168 10.65-13.722 16.998-20.070 33.178-33.157 77.21-51.405 124.109-51.405s90.931 18.248 124.129 51.405c6.349 6.369 12.083 13.128 16.998 20.070 9.626 12.698 17.203 26.419 22.917 40.96 5.12 12.902 8.622 26.829 10.24 40.96 1.044 7.373 1.434 14.746 1.434 22.118 0 6.349-0.41 12.698-1.024 18.842v0zM406.733 585.83c1.843 1.843 3.891 3.891 5.939 5.53h178.586c2.048-1.638 4.096-3.686 5.939-5.53 10.445-10.445 19.046-22.528 25.395-35.43h-241.254c6.349 12.902 14.746 24.781 25.395 35.43v0zM597.197 395.366c-3.072-3.052-6.369-6.144-9.626-8.806h-171.008c-3.277 2.867-6.758 5.734-9.83 9.011-9.626 9.626-17.613 20.48-23.552 31.949h237.773c-6.144-11.674-14.131-22.528-23.757-32.154v0zM634.675 468.48h-265.216c-2.458 13.517-2.662 27.443-0.614 40.96h266.445c1.044-6.144 1.434-12.493 1.434-18.842 0-7.578-0.614-14.95-2.048-22.118v0zM676.659 509.44c-1.434 14.131-4.506 27.853-9.421 40.96-5.12 14.336-12.288 28.262-21.299 40.96-5.734 8.397-12.288 16.179-19.661 23.552-33.178 33.178-77.414 51.405-124.314 51.405s-90.931-18.227-124.109-51.405c-7.373-7.373-13.926-15.155-19.661-23.552-9.216-12.698-16.179-26.624-21.094-40.96-5.12-13.312-8.192-27.034-9.626-40.96-1.434-13.517-1.434-27.443 0.614-40.96 1.434-13.926 4.915-27.648 10.24-40.96 5.325-14.336 12.698-28.262 22.528-40.96 4.915-7.168 10.65-13.722 16.998-20.070 33.178-33.157 77.21-51.405 124.109-51.405s90.931 18.248 124.129 51.405c6.349 6.369 12.083 13.128 16.998 20.070 9.626 12.698 17.203 26.419 22.917 40.96 5.12 12.902 8.622 26.829 10.24 40.96 1.044 7.373 1.434 14.746 1.434 22.118 0 6.349-0.41 12.698-1.024 18.842v0zM406.733 585.83c1.843 1.843 3.891 3.891 5.939 5.53h178.586c2.048-1.638 4.096-3.686 5.939-5.53 10.445-10.445 19.046-22.528 25.395-35.43h-241.254c6.349 12.902 14.746 24.781 25.395 35.43v0zM597.197 395.366c-3.072-3.052-6.369-6.144-9.626-8.806h-171.008c-3.277 2.867-6.758 5.734-9.83 9.011-9.626 9.626-17.613 20.48-23.552 31.949h237.773c-6.144-11.674-14.131-22.528-23.757-32.154v0zM634.675 468.48h-265.216c-2.458 13.517-2.662 27.443-0.614 40.96h266.445c1.044-6.144 1.434-12.493 1.434-18.842 0-7.578-0.614-14.95-2.048-22.118v0zM676.659 509.44c-1.434 14.131-4.506 27.853-9.421 40.96-5.12 14.336-12.288 28.262-21.299 40.96-5.734 8.397-12.288 16.179-19.661 23.552-33.178 33.178-77.414 51.405-124.314 51.405s-90.931-18.227-124.109-51.405c-7.373-7.373-13.926-15.155-19.661-23.552-9.216-12.698-16.179-26.624-21.094-40.96-5.12-13.312-8.192-27.034-9.626-40.96-1.434-13.517-1.434-27.443 0.614-40.96 1.434-13.926 4.915-27.648 10.24-40.96 5.325-14.336 12.698-28.262 22.528-40.96 4.915-7.168 10.65-13.722 16.998-20.070 33.178-33.157 77.21-51.405 124.109-51.405s90.931 18.248 124.129 51.405c6.349 6.369 12.083 13.128 16.998 20.070 9.626 12.698 17.203 26.419 22.917 40.96 5.12 12.902 8.622 26.829 10.24 40.96 1.044 7.373 1.434 14.746 1.434 22.118 0 6.349-0.41 12.698-1.024 18.842v0zM406.733 585.83c1.843 1.843 3.891 3.891 5.939 5.53h178.586c2.048-1.638 4.096-3.686 5.939-5.53 10.445-10.445 19.046-22.528 25.395-35.43h-241.254c6.349 12.902 14.746 24.781 25.395 35.43v0zM597.197 395.366c-3.072-3.052-6.369-6.144-9.626-8.806h-171.008c-3.277 2.867-6.758 5.734-9.83 9.011-9.626 9.626-17.613 20.48-23.552 31.949h237.773c-6.144-11.674-14.131-22.528-23.757-32.154v0zM634.675 468.48h-265.216c-2.458 13.517-2.662 27.443-0.614 40.96h266.445c1.044-6.144 1.434-12.493 1.434-18.842 0-7.578-0.614-14.95-2.048-22.118v0zM512 960c-282.829 0-512-229.171-512-512s229.171-512 512-512c282.829 0 512 229.171 512 512s-229.171 512-512 512v0zM820.634 550.4h-102.81c3.707-13.312 6.144-27.034 7.188-40.96h95.642v-40.96h-95.867c-1.413-13.926-4.076-27.648-7.782-40.96h103.649v-40.96h-120.422c-5.939-11.264-12.923-22.118-20.705-32.358l97.894-97.894c11.878-11.878 11.878-31.314 0-43.418-5.939-5.919-13.926-8.991-21.709-8.991-8.008 0-15.79 3.072-21.729 8.991l-98.304 98.324c-38.298-28.877-84.787-44.442-133.734-44.442-59.802 0-115.917 23.347-158.31 65.741-16.179 16.179-29.491 34.406-39.936 54.067h-117.944v40.96h101.171c-3.686 13.312-6.349 27.034-7.782 40.96h-93.389v40.96h93.184c1.024 13.926 3.482 27.648 7.168 40.96h-100.352v40.96h116.122c10.65 21.094 24.576 40.346 41.779 57.549 42.394 42.394 98.509 65.741 158.31 65.741s116.122-23.347 158.31-65.741c17.203-17.203 31.13-36.454 41.779-57.549h118.579v-40.98zM667.238 550.4c-5.12 14.336-12.288 28.262-21.299 40.96-5.734 8.397-12.288 16.179-19.661 23.552-33.178 33.178-77.414 51.405-124.314 51.405s-90.931-18.227-124.109-51.405c-7.373-7.373-13.926-15.155-19.661-23.552-9.216-12.698-16.179-26.624-21.094-40.96-5.12-13.312-8.192-27.034-9.626-40.96-1.434-13.517-1.434-27.443 0.614-40.96 1.434-13.926 4.915-27.648 10.24-40.96 5.325-14.336 12.698-28.262 22.528-40.96 4.915-7.168 10.65-13.722 16.998-20.070 33.178-33.157 77.21-51.405 124.109-51.405s90.931 18.248 124.129 51.405c6.349 6.369 12.083 13.128 16.998 20.070 9.626 12.698 17.203 26.419 22.917 40.96 5.12 12.902 8.622 26.829 10.24 40.96 1.044 7.373 1.434 14.746 1.434 22.118 0 6.349-0.41 12.698-1.024 18.842-1.434 14.131-4.506 27.853-9.421 40.96v0zM406.733 585.83c1.843 1.843 3.891 3.891 5.939 5.53h178.586c2.048-1.638 4.096-3.686 5.939-5.53 10.445-10.445 19.046-22.528 25.395-35.43h-241.254c6.349 12.902 14.746 24.781 25.395 35.43v0zM597.197 395.366c-3.072-3.052-6.369-6.144-9.626-8.806h-171.008c-3.277 2.867-6.758 5.734-9.83 9.011-9.626 9.626-17.613 20.48-23.552 31.949h237.773c-6.144-11.674-14.131-22.528-23.757-32.154v0zM634.675 468.48h-265.216c-2.458 13.517-2.662 27.443-0.614 40.96h266.445c1.044-6.144 1.434-12.493 1.434-18.842 0-7.578-0.614-14.95-2.048-22.118v0zM676.659 509.44c-1.434 14.131-4.506 27.853-9.421 40.96-5.12 14.336-12.288 28.262-21.299 40.96-5.734 8.397-12.288 16.179-19.661 23.552-33.178 33.178-77.414 51.405-124.314 51.405s-90.931-18.227-124.109-51.405c-7.373-7.373-13.926-15.155-19.661-23.552-9.216-12.698-16.179-26.624-21.094-40.96-5.12-13.312-8.192-27.034-9.626-40.96-1.434-13.517-1.434-27.443 0.614-40.96 1.434-13.926 4.915-27.648 10.24-40.96 5.325-14.336 12.698-28.262 22.528-40.96 4.915-7.168 10.65-13.722 16.998-20.070 33.178-33.157 77.21-51.405 124.109-51.405s90.931 18.248 124.129 51.405c6.349 6.369 12.083 13.128 16.998 20.070 9.626 12.698 17.203 26.419 22.917 40.96 5.12 12.902 8.622 26.829 10.24 40.96 1.044 7.373 1.434 14.746 1.434 22.118 0 6.349-0.41 12.698-1.024 18.842v0zM406.733 585.83c1.843 1.843 3.891 3.891 5.939 5.53h178.586c2.048-1.638 4.096-3.686 5.939-5.53 10.445-10.445 19.046-22.528 25.395-35.43h-241.254c6.349 12.902 14.746 24.781 25.395 35.43v0zM597.197 395.366c-3.072-3.052-6.369-6.144-9.626-8.806h-171.008c-3.277 2.867-6.758 5.734-9.83 9.011-9.626 9.626-17.613 20.48-23.552 31.949h237.773c-6.144-11.674-14.131-22.528-23.757-32.154v0zM634.675 468.48h-265.216c-2.458 13.517-2.662 27.443-0.614 40.96h266.445c1.044-6.144 1.434-12.493 1.434-18.842 0-7.578-0.614-14.95-2.048-22.118v0zM676.659 509.44c-1.434 14.131-4.506 27.853-9.421 40.96-5.12 14.336-12.288 28.262-21.299 40.96-5.734 8.397-12.288 16.179-19.661 23.552-33.178 33.178-77.414 51.405-124.314 51.405s-90.931-18.227-124.109-51.405c-7.373-7.373-13.926-15.155-19.661-23.552-9.216-12.698-16.179-26.624-21.094-40.96-5.12-13.312-8.192-27.034-9.626-40.96-1.434-13.517-1.434-27.443 0.614-40.96 1.434-13.926 4.915-27.648 10.24-40.96 5.325-14.336 12.698-28.262 22.528-40.96 4.915-7.168 10.65-13.722 16.998-20.070 33.178-33.157 77.21-51.405 124.109-51.405s90.931 18.248 124.129 51.405c6.349 6.369 12.083 13.128 16.998 20.070 9.626 12.698 17.203 26.419 22.917 40.96 5.12 12.902 8.622 26.829 10.24 40.96 1.044 7.373 1.434 14.746 1.434 22.118 0 6.349-0.41 12.698-1.024 18.842v0zM406.733 585.83c1.843 1.843 3.891 3.891 5.939 5.53h178.586c2.048-1.638 4.096-3.686 5.939-5.53 10.445-10.445 19.046-22.528 25.395-35.43h-241.254c6.349 12.902 14.746 24.781 25.395 35.43v0zM597.197 395.366c-3.072-3.052-6.369-6.144-9.626-8.806h-171.008c-3.277 2.867-6.758 5.734-9.83 9.011-9.626 9.626-17.613 20.48-23.552 31.949h237.773c-6.144-11.674-14.131-22.528-23.757-32.154v0zM634.675 468.48h-265.216c-2.458 13.517-2.662 27.443-0.614 40.96h266.445c1.044-6.144 1.434-12.493 1.434-18.842 0-7.578-0.614-14.95-2.048-22.118v0z" />
<glyph unicode="&#xe60b;" glyph-name="circle-search-list" d="M512 939.52c271.012 0 491.52-220.488 491.52-491.52s-220.508-491.52-491.52-491.52c-271.012 0-491.52 220.488-491.52 491.52s220.508 491.52 491.52 491.52v0 0zM512 960c-282.767 0-512-229.233-512-512s229.233-512 512-512c282.767 0 512 229.233 512 512s-229.233 512-512 512v0 0zM820.613 591.36h-118.579c-10.65 21.094-24.576 40.346-41.779 57.549-42.189 42.394-98.509 65.741-158.29 65.741-59.822 0-115.917-23.347-158.31-65.741-17.203-17.203-31.13-36.434-41.779-57.549h-116.122v-40.96h100.352c-3.707-13.312-6.164-27.034-7.188-40.96h-93.184v-40.96h93.389c1.434-13.926 4.096-27.648 7.803-40.96h-101.171v-40.96h117.965c10.445-19.64 23.757-37.888 39.936-54.047 42.394-42.394 98.509-65.761 158.31-65.761 48.947 0 95.396 15.565 133.693 44.442l98.263-98.284c6.001-6.001 13.865-8.991 21.729-8.991s15.729 2.99 21.729 8.991c12.001 12.001 12.001 31.437 0 43.438l-97.833 97.833c7.782 10.24 14.746 21.115 20.685 32.358h120.422v40.96h-103.629c3.686 13.332 6.349 27.054 7.782 40.96h95.846v40.96h-95.642c-1.024 13.926-3.482 27.648-7.168 40.96h102.81v40.98h-0.041zM676.639 509.44c0.614-6.144 1.024-12.493 1.024-18.842 0-7.373-0.41-14.746-1.413-22.118-1.638-14.131-5.12-28.058-10.24-40.96-5.734-14.52-13.312-28.242-22.938-40.96-4.915-6.963-10.67-13.722-16.998-20.070-33.178-33.157-77.21-51.405-124.109-51.405s-90.931 18.248-124.129 51.405c-6.349 6.369-12.083 12.923-16.998 20.070-9.81 12.718-17.203 26.644-22.528 40.96-5.325 13.332-8.827 27.054-10.24 40.96-2.068 13.517-2.068 27.443-0.614 40.96 1.434 13.926 4.506 27.648 9.626 40.96 4.915 14.336 11.878 28.262 21.094 40.96 5.734 8.397 12.288 16.179 19.661 23.552 33.178 33.157 77.23 51.405 124.129 51.405s91.116-18.248 124.293-51.405c7.373-7.373 13.947-15.155 19.661-23.552 9.011-12.698 16.179-26.624 21.299-40.96 4.915-13.107 8.008-26.829 9.421-40.96v0 0zM368.845 509.44c-2.068-13.517-1.864-27.443 0.594-40.96h265.216c1.434 7.168 2.048 14.541 2.048 22.118 0 6.349-0.41 12.698-1.413 18.842h-266.445zM406.712 395.592c3.072-3.277 6.554-6.164 9.81-9.032h171.028c3.277 2.683 6.554 5.755 9.626 8.806 9.626 9.646 17.613 20.48 23.757 32.154h-237.773c5.939-11.448 13.947-22.323 23.552-31.928v0 0zM597.176 585.83c-1.843 1.843-3.871 3.871-5.939 5.53h-178.586c-2.048-1.638-4.096-3.686-5.939-5.53-10.67-10.67-19.046-22.548-25.395-35.43h241.254c-6.349 12.902-14.95 24.986-25.395 35.43v0 0z" />
<glyph unicode="&#xe60c;" glyph-name="circle-scales-of-justice-solid" d="M512 960c-282.767 0-512-229.233-512-512s229.233-512 512-512c282.767 0 512 229.233 512 512s-229.233 512-512 512v0zM204.513 440.463c0 5.755 4.669 10.445 10.445 10.445h228.311c5.755 0 10.445-4.69 10.445-10.445 0-68.71-55.931-124.621-124.641-124.621-68.69 0-124.559 55.91-124.559 124.621v0zM718.418 182.559h-412.692v20.644c55.378 30.802 118.354 49.582 185.446 52.859v378.143c-0.84 0.451-1.741 0.84-2.54 1.352h-131.154l85.012-142.623c4.506-7.578 2.028-17.408-5.55-21.955-2.58-1.516-5.427-2.253-8.192-2.253-5.489 0-10.772 2.785-13.783 7.823l-85.791 143.933-85.791-143.933c-4.526-7.578-14.295-10.117-21.975-5.571-7.598 4.547-10.097 14.377-5.55 21.975l98.365 165.007c0.102 0.205 0.287 0.389 0.389 0.635l0.819 1.352c0.082 0.143 0.246 0.184 0.328 0.307 1.352 2.13 3.092 3.871 5.263 5.161 0.164 0.082 0.287 0.205 0.451 0.307 2.314 1.29 4.854 2.212 7.7 2.212h140.718c-0.082 1.024-0.307 1.987-0.307 3.031 0 23.429 19.005 42.435 42.455 42.435 23.47 0 42.476-19.005 42.476-42.435 0-1.044-0.246-2.007-0.328-3.031h140.759c2.847 0 5.386-0.922 7.7-2.212 0.143-0.123 0.266-0.225 0.451-0.328 2.191-1.29 3.932-3.031 5.304-5.181 0.061-0.123 0.205-0.164 0.287-0.287l0.758-1.249c0.102-0.287 0.307-0.492 0.43-0.758l98.324-165.007c4.526-7.598 2.028-17.408-5.55-21.934-2.58-1.536-5.407-2.273-8.192-2.273-5.468 0-10.772 2.785-13.783 7.823l-85.75 143.933-85.832-143.933c-4.547-7.557-14.295-10.117-21.975-5.55-7.598 4.526-10.076 14.336-5.55 21.955l85.033 142.623h-131.174c-0.799-0.512-1.7-0.901-2.54-1.372h0.061v-378.122c67.092-3.277 130.089-22.036 185.467-52.859v-20.644zM694.886 315.843c-68.69 0-124.6 55.91-124.6 124.621 0 5.755 4.669 10.445 10.445 10.445h228.311c5.775 0 10.445-4.69 10.445-10.445 0-68.71-55.89-124.621-124.6-124.621v0z" />
<glyph unicode="&#xe60d;" glyph-name="circle-scales-of-justice" d="M512 960c-282.728 0-512-229.23-512-512s229.272-512 512-512c282.77 0 512 229.23 512 512s-229.23 512-512 512v0 0zM512 939.102c270.796 0 491.102-220.306 491.102-491.102s-220.306-491.102-491.102-491.102c-270.796 0-491.102 220.306-491.102 491.102s220.306 491.102 491.102 491.102v0 0zM532.898 634.18c0.836 0.481 1.735 0.857 2.529 1.379h131.176l-85.034-142.629c-4.535-7.607-2.048-17.429 5.559-21.964 7.67-4.556 17.429-2.006 21.964 5.559l85.828 143.945 85.765-143.945c3.009-5.036 8.296-7.816 13.772-7.816 2.779 0 5.622 0.731 8.192 2.257 7.586 4.535 10.073 14.357 5.559 21.943l-98.325 165.010c-0.125 0.272-0.334 0.481-0.439 0.752l-0.752 1.254c-0.084 0.125-0.23 0.167-0.293 0.293-1.358 2.152-3.114 3.887-5.308 5.183-0.167 0.104-0.293 0.209-0.439 0.313-2.32 1.296-4.848 2.215-7.711 2.215h-140.748c0.084 1.024 0.313 1.985 0.313 3.030 0 23.427-18.996 42.444-42.465 42.444-23.448 0-42.465-19.017-42.465-42.444 0-1.045 0.23-2.006 0.313-3.030h-140.706c-2.863 0-5.392-0.92-7.711-2.215-0.167-0.084-0.293-0.209-0.439-0.293-2.173-1.296-3.929-3.030-5.266-5.162-0.084-0.125-0.251-0.167-0.334-0.313l-0.815-1.358c-0.104-0.23-0.293-0.418-0.397-0.627l-98.367-165.010c-4.535-7.607-2.048-17.429 5.559-21.964 7.67-4.556 17.45-2.006 21.964 5.559l85.807 143.945 85.786-143.945c3.009-5.036 8.296-7.816 13.772-7.816 2.779 0 5.622 0.731 8.192 2.257 7.586 4.535 10.073 14.357 5.559 21.943l-85.013 142.629h131.156c0.794-0.522 1.693-0.899 2.529-1.358v-378.128c-67.082-3.281-130.069-22.068-185.448-52.872v-20.647h412.693v20.647c-55.38 30.824-118.366 49.591-185.448 52.872v378.107h-0.063zM453.716 440.456c0 5.768-4.681 10.449-10.449 10.449h-228.31c-5.768 0-10.449-4.681-10.449-10.449 0-68.712 55.881-124.615 124.573-124.615 68.712 0 124.635 55.902 124.635 124.615v0zM809.044 450.905h-228.31c-5.768 0-10.449-4.681-10.449-10.449 0-68.712 55.902-124.615 124.594-124.615 68.712 0 124.615 55.902 124.615 124.615 0 5.768-4.681 10.449-10.449 10.449v0z" />
<glyph unicode="&#xe60e;" glyph-name="circle-calculator-solid" d="M512 960c-282.767 0-512-229.233-512-512s229.233-512 512-512c282.767 0 512 229.233 512 512s-229.233 512-512 512v0zM757.76 202.097c0-22.385-18.35-40.817-40.98-40.817h-389.079c-22.508 0-40.98 18.268-40.98 40.817v512.287c0 22.385 18.35 40.817 40.98 40.817h389.079c22.508 0 40.98-18.268 40.98-40.817v-512.287zM614.4 448h102.4v-102.4h-102.4v102.4zM614.4 591.36h102.4v-102.4h-102.4v102.4zM327.68 714.24h389.12v-81.92h-389.12v81.92zM614.4 304.64h102.4v-102.4h-102.4v102.4zM471.040 304.64h102.4v-102.4h-102.4v102.4zM327.68 448h102.4v-102.4h-102.4v102.4zM327.68 304.64h102.4v-102.4h-102.4v102.4zM471.040 591.36h102.4v-102.4h-102.4v102.4zM471.040 448h102.4v-102.4h-102.4v102.4zM327.68 591.36h102.4v-102.4h-102.4v102.4z" />
<glyph unicode="&#xe60f;" glyph-name="circle-calculator" d="M512 960c-282.767 0-512-229.233-512-512s229.233-512 512-512c282.767 0 512 229.233 512 512s-229.233 512-512 512v0zM512-43.52c-271.462 0-491.52 220.058-491.52 491.52s220.058 491.52 491.52 491.52c271.462 0 491.52-220.058 491.52-491.52s-220.058-491.52-491.52-491.52v0zM716.78 755.2h-389.079c-22.63 0-40.98-18.432-40.98-40.817v-512.287c0-22.548 18.473-40.817 40.98-40.817h389.079c22.63 0 40.98 18.432 40.98 40.817v512.287c0 22.548-18.473 40.817-40.98 40.817v0zM327.68 304.64h102.4v-102.4h-102.4v102.4zM327.68 448h102.4v-102.4h-102.4v102.4zM327.68 591.36h102.4v-102.4h-102.4v102.4zM471.040 304.64h102.4v-102.4h-102.4v102.4zM471.040 448h102.4v-102.4h-102.4v102.4zM471.040 591.36h102.4v-102.4h-102.4v102.4zM614.4 304.64h102.4v-102.4h-102.4v102.4zM614.4 448h102.4v-102.4h-102.4v102.4zM614.4 591.36h102.4v-102.4h-102.4v102.4zM327.68 714.24h389.12v-81.92h-389.12v81.92z" />
<glyph unicode="&#xe610;" glyph-name="circle-map-marker-solid" d="M512 960c-282.767 0-512-229.233-512-512s229.233-512 512-512c282.767 0 512 229.233 512 512s-229.233 512-512 512v0zM674.427 407.777l-159.334-217.682-159.56 217.682c-44.442 72.335-35.635 168.796 26.829 231.26 72.909 72.909 192.287 72.909 265.236 0 62.423-62.484 71.27-158.945 26.829-231.26v0zM459.981 561.418c-30.31-30.31-30.31-79.872 0-109.978 30.31-30.29 79.688-30.29 109.978 0 30.351 30.106 30.351 79.667 0 109.978-30.29 30.106-79.667 30.106-109.978 0" />
<glyph unicode="&#xe611;" glyph-name="circle-map-marker" d="M512 939.102c270.796 0 491.102-220.306 491.102-491.102s-220.306-491.102-491.102-491.102c-270.796 0-491.102 220.306-491.102 491.102s220.306 491.102 491.102 491.102v0 0zM512 960c-282.728 0-512-229.23-512-512s229.272-512 512-512c282.77 0 512 229.23 512 512s-229.23 512-512 512v0zM647.598 639.037c-72.95 72.909-192.328 72.909-265.236 0-62.464-62.464-71.27-158.925-26.829-231.26l159.56-217.682 159.334 217.682c44.442 72.315 35.594 168.776-26.829 231.26v0zM569.958 451.441c-30.29-30.29-79.667-30.29-109.978 0-30.31 30.106-30.31 79.667 0 109.978 30.31 30.106 79.688 30.106 109.978 0 30.351-30.31 30.351-79.872 0-109.978v0z" />
<glyph unicode="&#xe612;" glyph-name="circle-bank-solid" d="M512 960c-282.767 0-512-229.233-512-512s229.233-512 512-512c282.767 0 512 229.233 512 512s-229.233 512-512 512v0zM798.72 222.72h-573.44v61.44h40.96v40.96h40.96v225.28h-40.96v61.44l241.869 113.951 249.651-113.951v-61.44h-40.96v-225.28h40.96v-40.96h40.96v-61.44zM368.64 550.4h102.4v-225.28h-102.4v225.28zM552.96 550.4h102.4v-225.28h-102.4v225.28z" />
<glyph unicode="&#xe613;" glyph-name="circle-bank" d="M512 960v0c282.767 0 512-229.233 512-512s-229.233-512-512-512c-282.767 0-512 229.233-512 512s229.233 512 512 512zM512 939.52c-271.457 0-491.52-220.063-491.52-491.52s220.063-491.52 491.52-491.52c271.457 0 491.52 220.063 491.52 491.52s-220.063 491.52-491.52 491.52v0zM798.72 222.72v61.44h-40.96v40.96h-40.96v225.28h40.96v61.44l-249.651 113.951-241.869-113.951v-61.44h40.96v-225.28h-40.96v-40.96h-40.96v-61.44h573.44zM368.64 550.4h102.4v-225.28h-102.4v225.28zM552.96 550.4h102.4v-225.28h-102.4v225.28z" />
<glyph unicode="&#xe614;" glyph-name="circle-brochure-solid" d="M512 960c-282.767 0-512-229.233-512-512s229.233-512 512-512c282.767 0 512 229.233 512 512s-229.233 512-512 512v0zM496.353 244.572c-0.020 0.020-0.061 0.041-0.082 0.061-0.451 0.512-46.182 51.835-114.831 60.006-10.629 1.27-21.709 1.925-32.87 1.925-56.279 0-99.205-15.954-99.635-16.118-6.369-2.417-13.578-1.556-19.272 2.355-5.632 3.891-9.011 10.342-9.011 17.183v340.623c0 8.684 5.386 16.486 13.517 19.558 2.048 0.758 50.586 18.801 114.422 18.801 12.82 0 25.518-0.717 37.786-2.191 47.739-5.673 85.443-27.423 109.978-45.937v-396.268zM803.369 309.965c0-6.84-3.379-13.23-9.011-17.162-5.652-3.85-12.8-4.751-19.251-2.396-0.43 0.143-43.827 16.118-99.656 16.118-11.162 0-22.241-0.655-32.891-1.925-69.202-8.212-114.319-59.453-114.77-59.965-0.041-0.041-0.082-0.061-0.123-0.102v396.288c24.535 18.514 62.239 40.264 109.978 45.937 12.268 1.475 24.986 2.191 37.786 2.191 63.836 0 112.374-18.022 114.422-18.801 8.131-3.072 13.517-10.875 13.517-19.558v-340.623z" />
<glyph unicode="&#xe615;" glyph-name="circle-brochure" d="M512 939.102c270.796 0 491.102-220.306 491.102-491.102s-220.306-491.102-491.102-491.102c-270.796 0-491.102 220.306-491.102 491.102s220.306 491.102 491.102 491.102v0 0zM512 960c-282.728 0-512-229.23-512-512s229.272-512 512-512c282.77 0 512 229.23 512 512s-229.23 512-512 512v0 0zM496.347 620.095c-24.534 18.516-62.234 40.249-109.965 45.913-12.267 1.463-24.973 2.194-37.784 2.194-63.843 0-112.389-18.035-114.437-18.808-8.129-3.051-13.5-10.867-13.5-19.56v-340.616c0-6.855 3.365-13.291 9.007-17.178 5.684-3.929 12.894-4.786 19.268-2.361 0.439 0.167 43.363 16.112 99.641 16.112 11.16 0 22.235-0.648 32.872-1.923 68.65-8.171 114.375-59.496 114.813-59.998 0.021-0.021 0.063-0.042 0.084-0.063v396.288zM789.859 649.415c-2.048 0.773-50.594 18.808-114.437 18.808-12.79 0-25.516-0.731-37.784-2.194-47.731-5.663-85.431-27.418-109.965-45.913v-396.288c0.042 0.042 0.084 0.063 0.125 0.104 0.439 0.502 45.558 51.743 114.772 59.956 10.637 1.275 21.713 1.923 32.872 1.923 55.839 0 99.224-15.966 99.662-16.112 6.457-2.361 13.605-1.463 19.247 2.403 5.642 3.929 9.007 10.303 9.007 17.157v340.595c0 8.694-5.371 16.488-13.5 19.56v0 0z" />
<glyph unicode="&#xe616;" glyph-name="circle-message-notification-solid, circle-envelope-notification-solid, circle-mail-notification-solid" d="M512 960c-282.829 0-512-229.171-512-512s229.171-512 512-512c282.829 0 512 229.171 512 512s-229.171 512-512 512v0zM727.040 533.811v-218.931h-450.56v286.72h378.266c0.614 36.25 30.31 65.741 66.785 65.741 37.069 0 66.97-30.106 66.97-66.97-0.020-35.226-27.054-63.898-61.46-66.56v0zM662.938 568.218l-157.491-114.483-159.744 116.122-23.962-33.178 183.706-133.55 188.826 136.192c-13.312 5.96-24.371 16.2-31.334 28.897v0z" />
<glyph unicode="&#xe617;" glyph-name="circle-message-notification, circle-envelope-notification, circle-mail-notification" d="M512 939.52c270.991 0 491.52-220.508 491.52-491.52 0-270.991-220.529-491.52-491.52-491.52-271.032 0-491.52 220.529-491.52 491.52 0 271.012 220.488 491.52 491.52 491.52v0 0zM512 960c-282.767 0-512-229.233-512-512s229.233-512 512-512c282.767 0 512 229.233 512 512s-229.233 512-512 512v0 0zM721.51 667.341c-36.454 0-66.15-29.491-66.806-65.741h-378.225v-286.72h450.56v218.931c34.406 2.662 61.44 31.334 61.44 66.56 0 36.864-29.901 66.97-66.97 66.97v0 0zM505.446 403.169l-183.706 133.55 23.962 33.178 159.744-116.122 157.491 114.483c6.963-12.698 18.022-22.938 31.334-28.877l-188.826-136.212z" />
<glyph unicode="&#xe618;" glyph-name="circle-image-solid" d="M512 960c-282.767 0-512-229.233-512-512s229.233-512 512-512c282.767 0 512 229.233 512 512s-229.233 512-512 512v0zM794.112 260.465c0-16.835-13.66-30.536-30.454-30.536h-503.276c-16.814 0-30.515 13.701-30.515 30.536v375.132c0 16.835 13.701 30.495 30.515 30.495h503.276c16.794 0 30.454-13.681 30.454-30.495v-375.132zM271.667 266.527h480.645v355.267h-480.645v-355.267zM373.248 580.71c20.193 0 36.577-16.425 36.577-36.618 0-20.214-16.384-36.618-36.577-36.618-20.214 0-36.618 16.404-36.618 36.618s16.404 36.618 36.618 36.618v0zM301.855 306.34l109.199 127.816c4.383 5.12 12.698 6.533 18.514 3.195l68.833-39.67c5.775-3.338 14.029-1.843 18.309 3.338l84.214 103.158c4.239 5.181 10.281 4.567 13.455-1.331l103.875-195.031c3.154-5.919 0.266-10.772-6.451-10.772h-405.688c-6.697 0-8.602 4.198-4.26 9.298v0z" />
<glyph unicode="&#xe619;" glyph-name="circle-image" d="M512 939.102c270.796 0 491.102-220.306 491.102-491.102s-220.306-491.102-491.102-491.102c-270.796 0-491.102 220.306-491.102 491.102s220.306 491.102 491.102 491.102v0 0zM512 960c-282.749 0-512-229.23-512-512s229.251-512 512-512c282.77 0 512 229.23 512 512s-229.23 512-512 512v0 0zM763.653 666.091h-503.265c-16.823 0-30.511-13.667-30.511-30.49v-375.139c0-16.823 13.688-30.532 30.511-30.532h503.265c16.802 0 30.469 13.709 30.469 30.532v375.139c0 16.802-13.667 30.49-30.469 30.49v0 0zM752.327 266.522h-480.653v355.265h480.653v-355.265zM409.83 544.089c0-20.208-16.384-36.613-36.592-36.613v0c-20.208 0-36.613 16.405-36.613 36.613v0c0 20.208 16.405 36.613 36.613 36.613v0c20.208 0 36.592-16.426 36.592-36.613v0 0zM411.063 434.166c4.368 5.099 12.685 6.52 18.516 3.176l68.817-39.664c5.789-3.344 14.043-1.839 18.307 3.344l84.219 103.152c4.242 5.183 10.282 4.577 13.458-1.337l103.884-195.020c3.156-5.914 0.251-10.783-6.457-10.783h-405.692c-6.687 0-8.61 4.2-4.263 9.3l109.213 127.833z" />
<glyph unicode="&#xe61a;" glyph-name="circle-percentage-solid" d="M512 960c-282.767 0-512-229.233-512-512s229.233-512 512-512c282.767 0 512 229.233 512 512s-229.233 512-512 512v0zM369.316 704.041c62.648 0 113.418-50.831 113.418-113.439s-50.77-113.377-113.418-113.377c-62.607 0-113.398 50.77-113.398 113.377s50.79 113.439 113.398 113.439v0zM310.927 205.701l-46.612 47.555 428.216 436.961 46.612-47.575-428.216-436.941zM654.643 191.918c-62.648 0-113.418 50.79-113.418 113.398s50.77 113.418 113.418 113.418c62.566 0 113.418-50.811 113.418-113.418s-50.852-113.398-113.418-113.398v0zM654.643 360.407c-30.433 0-55.112-24.699-55.112-55.050 0-30.454 24.678-55.112 55.112-55.112 30.372 0 55.071 24.658 55.071 55.112 0 30.351-24.699 55.050-55.071 55.050M369.316 535.552c30.433 0 55.091 24.658 55.091 55.091 0 30.413-24.658 55.071-55.091 55.071-30.413 0-55.071-24.658-55.071-55.071 0-30.433 24.658-55.091 55.071-55.091" />
<glyph unicode="&#xe61b;" glyph-name="circle-percentage" d="M512 960c-282.728 0-512-229.23-512-512s229.272-512 512-512c282.77 0 512 229.23 512 512s-229.23 512-512 512v0 0zM512 939.102c270.796 0 491.102-220.306 491.102-491.102s-220.306-491.102-491.102-491.102c-270.796 0-491.102 220.306-491.102 491.102s220.306 491.102 491.102 491.102v0 0zM264.311 253.28l428.215 436.954 46.645-47.597-428.215-436.954-46.645 47.597zM654.649 418.743c-62.652 0-113.434-50.782-113.434-113.434 0-62.61 50.782-113.392 113.434-113.392 62.568 0 113.413 50.782 113.413 113.392 0 62.652-50.845 113.434-113.413 113.434v0zM654.649 250.243c-30.448 0-55.108 24.701-55.108 55.108s24.66 55.066 55.108 55.066c30.365 0 55.066-24.66 55.066-55.066s-24.701-55.108-55.066-55.108v0zM369.309 477.215c62.652 0 113.434 50.782 113.434 113.392 0 62.652-50.782 113.434-113.434 113.434-62.589 0-113.392-50.782-113.392-113.434 0-62.61 50.803-113.392 113.392-113.392v0zM369.309 645.716c30.448 0 55.108-24.66 55.108-55.066s-24.66-55.066-55.108-55.066c-30.407 0-55.066 24.66-55.066 55.066s24.66 55.066 55.066 55.066v0 0z" />
<glyph unicode="&#xe61c;" glyph-name="circle-conversation-solid" d="M512 960c-282.767 0-512-229.233-512-512s229.233-512 512-512c282.767 0 512 229.233 512 512s-229.233 512-512 512v0zM819.2 222.72h-50.504c0.758-14.131 5.304-42.127 26.685-55.562 4.444-2.806 6.472-8.274 4.895-13.312-1.556-4.833-6.021-8.069-11.039-8.069-52.92 2.888-74.772 47.985-80.794 76.943h-237.404c-20.48 0-20.48 14.090-20.48 20.48v141.844h-95.662c-6.84-37.704-34.816-95.58-104.632-99.369-5.632-0.041-10.138 3.236-11.653 8.028-1.618 5.038 0.41 10.527 4.895 13.312 32.645 20.5 37.519 60.948 37.929 79.544h-56.156c0 0-20.48 0-20.48 20.48v266.24c0 6.41 0 20.48 20.48 20.48h450.56c0 0 20.48 0 20.48-20.48v-204.8h122.88c6.39 0 20.48 0 20.48-20.48v-204.8c0-20.48-14.090-20.48-20.48-20.48zM292.639 408.187c5.919 0 10.875-4.444 11.51-10.342 0.246-2.273 4.26-43.254-16.998-78.459 40.776 23.101 45.834 75.448 46.080 78.234 0.532 5.98 5.55 10.568 11.551 10.568h105.779v39.813c0 0 0 22.2 20.48 20.48h204.8v204.8h-450.56v-266.24l67.359 1.147z" />
<glyph unicode="&#xe61d;" glyph-name="circle-conversation" d="M512 960v0c282.767 0 512-229.233 512-512s-229.233-512-512-512c-282.767 0-512 229.233-512 512s229.233 512 512 512zM512 939.52c-271.457 0-491.52-220.063-491.52-491.52s220.063-491.52 491.52-491.52c271.457 0 491.52 220.063 491.52 491.52s-220.063 491.52-491.52 491.52v0zM819.2 222.72h-50.504c0.758-14.131 5.304-42.127 26.685-55.562 4.444-2.806 6.472-8.274 4.895-13.312-1.556-4.833-6.021-8.069-11.039-8.069-52.92 2.888-74.772 47.985-80.794 76.943h-237.404c-20.48 0-20.48 14.090-20.48 20.48v141.844h-95.662c-6.84-37.704-34.816-95.58-104.632-99.369-5.632-0.041-10.138 3.236-11.653 8.028-1.618 5.038 0.41 10.527 4.895 13.312 32.645 20.5 37.519 60.948 37.929 79.544h-56.156c0 0-20.48 0-20.48 20.48v266.24c0 6.41 0 20.48 20.48 20.48h450.56c0 0 20.48 0 20.48-20.48v-204.8h122.88c6.39 0 20.48 0 20.48-20.48v-204.8c0-20.48-14.090-20.48-20.48-20.48zM292.639 408.187c5.919 0 10.875-4.444 11.51-10.342 0.246-2.273 4.26-43.254-16.998-78.459 40.776 23.101 45.834 75.448 46.080 78.234 0.532 5.98 5.55 10.568 11.551 10.568h105.779v39.813c0 0 0 22.2 20.48 20.48h204.8v204.8h-450.56v-266.24l67.359 1.147z" />
<glyph unicode="&#xe61e;" glyph-name="circle-phone-incoming-solid" d="M512 960c-282.829 0-512-229.171-512-512s229.171-512 512-512c282.829 0 512 229.171 512 512s-229.171 512-512 512v0zM649.216 189.338c-14.541-9.83-37.683-19.866-57.139-29.491-18.432-9.196-40.755-1.638-50.176 16.794l-47.104 93.389c-6.349 9.421-4.096 22.938 5.53 29.307l33.792 23.532c-24.371 76.39-87.859 139.264-163.021 163.226l-23.347-34.202c-6.349-9.626-19.866-11.674-29.491-5.325l-93.389 47.309c-18.432 9.216-26.419 32.154-17.203 50.586 9.626 19.456 19.866 41.984 29.696 56.73 27.238 40.96 186.778 6.758 298.209-100.557 2.048-1.843 11.469-11.264 12.902-12.698v-0.205c107.295-111.206 141.701-271.36 100.741-298.394v0zM593.92 529.92v225.28l204.8-225.28h-204.8z" />
<glyph unicode="&#xe61f;" glyph-name="circle-phone-incoming" d="M512 939.52c270.991 0 491.52-220.508 491.52-491.52 0-270.991-220.529-491.52-491.52-491.52-271.032 0-491.52 220.529-491.52 491.52 0 271.012 220.488 491.52 491.52 491.52v0 0zM512 960c-282.767 0-512-229.233-512-512s229.233-512 512-512c282.767 0 512 229.233 512 512s-229.233 512-512 512v0 0zM593.92 755.2v-225.28h204.8l-204.8 225.28zM548.393 487.813l0.082 0.061c-1.556 1.577-10.916 10.916-12.882 12.882l-0.082-0.082c-111.309 107.356-270.93 141.435-298.127 100.495-9.81-14.664-20.050-37.315-29.737-56.75-9.175-18.432-1.27-41.329 17.121-50.586l93.532-47.329c9.544-6.39 23.040-4.239 29.471 5.345l23.265 34.181c75.264-23.982 138.752-86.794 163.062-163.062l-33.772-23.634c-9.605-6.39-11.858-19.845-5.448-29.368l47.124-93.389c9.257-18.371 31.703-25.907 50.156-16.691 19.456 9.687 42.455 19.599 57.139 29.389 40.94 27.156 6.472 187.269-100.905 298.537v0 0z" />
<glyph unicode="&#xe620;" glyph-name="circle-trade-arrows-solid" d="M512 960c-282.767 0-512-229.233-512-512s229.233-512 512-512c282.767 0 512 229.233 512 512s-229.233 512-512 512v0zM209.715 490.271v124.744h205.599v103.055l165.356-165.417-165.356-165.417v103.035h-205.599zM814.285 280.986h-205.599v-103.055l-165.396 165.417 165.396 165.417v-103.035h205.599v-124.744z" />
<glyph unicode="&#xe621;" glyph-name="circle-trade-arrows" d="M512 960c-282.728 0-512-229.23-512-512s229.272-512 512-512c282.77 0 512 229.23 512 512s-229.23 512-512 512zM512 939.102c270.796 0 491.102-220.306 491.102-491.102s-220.306-491.102-491.102-491.102c-270.796 0-491.102 220.306-491.102 491.102s220.306 491.102 491.102 491.102zM814.289 405.723h-205.594v103.048l-165.407-165.428 165.407-165.407v103.048h205.594v124.74zM580.671 552.657l-165.366 165.407v-103.048h-205.594v-124.74h205.594v-103.048l165.366 165.428z" />
<glyph unicode="&#xe622;" glyph-name="circle-map-directions-solid" d="M512 960c-282.767 0-512-229.233-512-512s229.233-512 512-512c282.767 0 512 229.233 512 512s-229.233 512-512 512v0zM257.126 570.839l51.036 59.924 149.647-132.731-51.036-59.924-149.647 132.731zM738.386 534.938l-55.235 45.691-166.359-199.741v-230.154h-79.36v258.908l184.586 221.553-56.607 46.817 201.298 67.256-28.324-210.33z" />
<glyph unicode="&#xe623;" glyph-name="circle-map-directions" d="M512 939.102c270.796 0 491.102-220.306 491.102-491.102s-220.306-491.102-491.102-491.102c-270.796 0-491.102 220.306-491.102 491.102s220.306 491.102 491.102 491.102v0 0zM512 960c-282.728 0-512-229.23-512-512s229.272-512 512-512c282.77 0 512 229.23 512 512s-229.23 512-512 512v0 0zM257.133 570.837l51.039 59.917 149.632-132.717-51.039-59.917-149.632 132.717zM766.704 745.273l-201.289-67.271 56.613-46.811-184.592-221.56v-258.905h79.35v230.17l166.369 199.722 55.233-45.683 28.317 210.338z" />
<glyph unicode="&#xe624;" glyph-name="wheel-solid" d="M512 960c-282.77 0-512-229.23-512-512s229.23-512 512-512c282.77 0 512 229.23 512 512s-229.23 512-512 512v0zM598.392 182.073c-146.599-47.585-304.65 32.935-352.277 179.555s32.852 304.65 179.472 352.277c146.641 47.647 304.692-32.893 352.319-179.451 47.668-146.662-32.914-304.692-179.513-352.381v0zM716.967 470.173l-5.663-1.505c-10.658-2.612-23.071-5.622-36.676-8.317-13.479-2.821-28.045-5.35-42.548-7.795-5.956-0.94-17.115-3.511-28.63-6.207-6.207-1.442-12.79-2.988-18.62-4.284-0.188-2.278-0.376-4.577-0.794-6.813-1.567-8.61-4.66-16.781-9.070-24.283-1.17-1.985-2.696-3.803-4.054-5.705 4.284-4.89 9.112-10.533 13.688-15.924 7.565-8.861 14.858-17.387 19.017-21.755 10.156-10.637 20.271-21.42 29.445-31.869 9.174-10.24 17.262-20.083 24.869-29.508l2.821-3.469c42.736 43.865 65.014 105.43 58.138 167.957l-1.923-0.522M562.761 500.663c1.609-1.546 2.8-3.532 4.284-5.224 5.642 2.466 12.142 5.224 18.265 7.795 10.783 4.577 21.17 8.944 26.478 11.64 13.228 6.562 26.478 13.061 39.184 18.766 12.455 5.789 24.263 10.658 34.44 14.775l7.252 2.905c-31.201 54.606-85.368 91.303-145.701 101.669l-0.313-5.642c-0.564-10.888-1.337-23.677-2.717-37.386-1.275-13.73-3.135-28.421-5.078-43.071-0.794-5.914-1.672-16.886-2.55-28.338-0.543-7.147-1.149-14.754-1.755-21.316 2.236-0.731 4.514-1.296 6.666-2.236 7.92-3.469 15.256-8.296 21.546-14.336M569.95 291.641c-6.666 12.037-13.333 25.14-19.895 38.369-2.968 5.998-8.965 16.28-15.193 26.937-3.699 6.353-7.67 13.145-10.971 19.038-2.132-0.355-4.242-0.69-6.353-0.836-6.896-0.543-13.73-0.084-20.25 1.296-2.215 0.46-4.221 1.463-6.353 2.111-3.762-6.52-8.338-14.106-12.622-21.211-6.207-10.324-12.163-20.208-15.276-26.081-6.938-13.061-13.981-25.997-21.023-37.992-6.729-11.766-13.416-22.319-19.289-31.472l-0.711-1.108c46.582-22.361 101.397-27.794 154.29-10.616 4.953 1.63 9.697 3.594 14.482 5.517l-2.132 3.511c-5.684 9.32-12.163 20.25-18.704 32.538M364.837 532.49c12.581-5.517 25.872-11.933 39.142-18.453 5.977-2.947 16.656-7.461 27.815-12.246 7.586-3.197 15.694-6.666 22.486-9.718 1.358 1.776 2.403 3.741 3.908 5.392 4.451 4.89 9.634 9.174 15.423 12.727 1.755 1.087 3.824 1.714 5.684 2.675-0.794 6.75-1.588 14.649-2.299 21.985-1.254 12.351-2.445 24.325-3.574 30.929-2.466 14.629-4.765 29.153-6.52 42.945-1.839 13.625-3.009 26.373-4.117 39.225l-0.104 2.006c-4.995-1.212-10.031-2.445-15.005-4.033-52.642-17.115-93.665-53.436-118.22-98.617l1.191-0.439c10.073-4.012 21.734-8.673 34.189-14.378M448.763 412.223c-1.024 1.818-2.361 3.385-3.239 5.329-1.17 2.529-2.236 5.141-3.135 7.879-0.899 2.8-1.609 5.58-2.132 8.401-0.418 2.111-0.23 4.159-0.46 6.269-7.252 1.442-15.715 3.302-24.054 5.12-12.434 2.738-24.472 5.35-31.514 6.457-14.545 2.278-29.153 4.723-42.778 7.461-12.873 2.445-24.743 5.266-35.046 7.711l-1.505 0.376c-2.57-27.376 0.188-55.714 9.216-83.508 8.944-27.564 23.176-51.931 41.106-72.453l1.066 1.233c6.875 8.046 14.858 17.22 23.991 26.812 9.383 10.073 19.79 20.605 30.218 31.013 5.057 4.974 13.228 14.085 21.65 23.552 5.726 6.395 11.557 12.894 16.614 18.348" />
<glyph unicode="&#xe625;" glyph-name="wheel" d="M512 960c-282.749 0-512-229.23-512-512s229.251-512 512-512c282.77 0 512 229.23 512 512s-229.23 512-512 512v0 0zM512 939.102c270.796 0 491.102-220.306 491.102-491.102s-220.306-491.102-491.102-491.102c-270.796 0-491.102 220.306-491.102 491.102s220.306 491.102 491.102 491.102v0 0zM777.906 534.455c-47.626 146.578-205.678 227.098-352.319 179.472-146.62-47.626-227.098-205.678-179.472-352.277s205.678-227.14 352.277-179.555c146.599 47.668 227.182 205.699 179.513 352.36v0 0zM554.339 608.977c1.379 13.834 2.173 26.77 2.738 37.846 0.084 1.505 0.125 2.863 0.209 4.326 52.851-11.87 100.080-44.074 129.964-90.781-1.839-0.731-3.803-1.463-5.789-2.278-10.282-4.159-22.235-9.112-34.9-14.984-12.685-5.663-26.081-12.246-39.434-18.892-9.091-4.556-32.872-14.064-47.835-20.773-4.514 3.824-9.404 7.064-14.649 9.676 1.63 16.572 3.197 42.193 4.577 52.412 1.944 14.796 3.824 29.612 5.12 43.447v0 0zM447.655 646.050c1.546 0.481 3.093 0.94 4.702 1.379 0.042-0.815 0.084-1.505 0.167-2.32 0.982-11.055 2.173-23.949 4.033-37.763 1.755-13.834 4.075-28.526 6.562-43.259 1.985-11.661 4.18-40.040 6.437-57.24-2.821-2.027-5.517-4.18-7.962-6.541-16.238 7.398-42.277 17.868-52.997 23.134-13.396 6.604-26.812 13.061-39.56 18.662-12.497 5.705-24.325 10.449-34.523 14.482 24.973 40.918 64.073 73.498 113.142 89.464v0 0zM372.632 346.457c-9.174-9.676-17.304-18.975-24.283-27.146-14.817 18.725-26.561 40.375-34.377 64.366-7.879 24.242-11.013 48.901-10.010 73.017 10.449-2.487 22.486-5.35 35.547-7.795 13.625-2.738 28.359-5.224 43.071-7.544 12.601-1.944 40.876-8.756 58.828-12.163 0.334-1.254 0.543-2.487 0.961-3.762 0.397-1.17 0.899-2.215 1.317-3.344-12.581-13.27-31.535-35.401-40.542-44.325-10.553-10.533-21.044-21.149-30.511-31.305v0 0zM576.345 249.992c-49.34-16.008-100.373-12.539-144.823 6.165 5.956 9.258 12.727 19.999 19.56 31.911 7.064 11.995 14.169 25.098 21.191 38.285 5.601 10.512 20.355 34.001 29.174 49.507 3.615-0.522 7.293-0.794 10.992-0.773 8.317-15.256 23.050-39.225 28.254-49.716 6.646-13.396 13.396-26.645 20.125-38.808 6.562-12.33 13.145-23.427 18.892-32.893 0.418-0.69 0.815-1.337 1.233-2.048-1.526-0.522-3.093-1.087-4.598-1.63v0 0zM668.024 310.324c-0.899 1.108-1.755 2.194-2.696 3.385-6.98 8.61-15.193 18.62-24.492 28.985-9.174 10.491-19.393 21.337-29.675 32.12-7.126 7.461-23.427 27.251-34.482 39.727 2.717 5.224 4.786 10.742 6.186 16.468 16.050 3.365 40.856 9.655 50.887 11.264 14.691 2.445 29.383 5.016 43.029 7.879 13.667 2.696 26.248 5.747 37.010 8.401 2.132 0.564 4.117 1.024 6.081 1.588 3.218-55.317-16.050-109.171-51.848-149.817v0 0z" />
<glyph unicode="&#xe627;" glyph-name="youtube" d="M1014.115 657.776c0 0-2.942 13.359-8.828 40.077s-16.596 48.021-32.132 63.907c-19.303 20.701-38.724 32.977-58.262 36.828s-34.251 6.258-44.138 7.221c-35.781 2.888-74.622 5.055-116.524 6.499s-80.743 2.407-116.524 2.888c-35.781 0.481-65.677 0.842-89.688 1.083s-36.017 0.361-36.017 0.361c0 0-12.005-0.12-36.017-0.361s-53.907-0.602-89.688-1.083c-35.781-0.481-74.622-1.444-116.524-2.888s-80.743-3.611-116.524-6.499c-9.887-0.963-24.599-3.37-44.138-7.221s-38.959-16.127-58.262-36.828c-15.537-15.887-26.247-37.189-32.132-63.907s-8.828-40.077-8.828-40.077c0 0-1.648-17.692-4.943-53.075s-4.943-74.257-4.943-116.622v-79.433c0-42.364 1.648-81.238 4.943-116.622s4.943-53.075 4.943-53.075c0 0 2.942-13.359 8.828-40.077s16.596-48.021 32.132-63.907c19.303-20.701 40.018-32.856 62.146-36.467s39.077-6.379 50.847-8.304c20.245-1.926 49.787-3.611 88.629-5.055s77.447-2.527 115.818-3.25c38.371-0.722 71.915-1.324 100.634-1.805s43.079-0.722 43.079-0.722c0 0 11.888 0.12 35.663 0.361s53.672 0.722 89.688 1.444c36.017 0.722 74.975 1.805 116.877 3.25s80.743 3.611 116.524 6.499c9.887 0.963 24.599 3.37 44.138 7.221s38.959 16.127 58.262 36.828c15.537 15.887 26.247 37.189 32.132 63.907s8.828 40.077 8.828 40.077c0 0 1.648 17.692 4.943 53.075s4.943 74.257 4.943 116.622v79.433c0 42.364-1.648 81.238-4.943 116.622s-4.943 53.075-4.943 53.075v0zM406.069 311.88v294.625l276.835-148.034-276.835-146.589z" />
<glyph unicode="&#xe62b;" glyph-name="circle-ellipsis" d="M512 960c-282.734 0-512-229.266-512-512 0-282.77 229.266-512 512-512 282.77 0 512 229.23 512 512 0 282.734-229.23 512-512 512v0zM512-27.428c-262.582 0-475.428 212.846-475.428 475.428s212.846 475.428 475.428 475.428c262.582 0 475.428-212.846 475.428-475.428s-212.846-475.428-475.428-475.428zM745.034 387.402c33.448 0 60.562 27.114 60.562 60.562s-27.114 60.562-60.562 60.562c-33.448 0-60.562-27.114-60.562-60.562s27.114-60.562 60.562-60.562zM278.93 389.010c33.428 0 60.526 27.098 60.526 60.526s-27.098 60.526-60.526 60.526c-33.428 0-60.526-27.098-60.526-60.526s27.098-60.526 60.526-60.526zM510.902 389.010c33.428 0 60.526 27.098 60.526 60.526s-27.098 60.526-60.526 60.526c-33.428 0-60.526-27.098-60.526-60.526s27.098-60.526 60.526-60.526z" />
<glyph unicode="&#xe62c;" glyph-name="circle-ellipsis-solid" d="M512 960c-282.734 0-512-229.266-512-512 0-282.77 229.266-512 512-512 282.77 0 512 229.23 512 512 0 282.734-229.23 512-512 512v0zM278.93 389.010c-33.426 0-60.49 27.1-60.49 60.526s27.062 60.526 60.49 60.526c33.462 0 60.562-27.1 60.562-60.526 0-33.462-27.1-60.526-60.562-60.526v0zM510.902 389.010c-33.426 0-60.562 27.1-60.562 60.526s27.136 60.526 60.562 60.526c33.426 0 60.526-27.1 60.526-60.526 0-33.462-27.1-60.526-60.526-60.526v0zM745.034 387.438c-33.426 0-60.562 27.1-60.562 60.562 0 33.426 27.136 60.526 60.562 60.526s60.526-27.1 60.526-60.526c0-33.462-27.1-60.562-60.526-60.562v0z" />
<glyph unicode="&#xe630;" glyph-name="circle-information" d="M512 960c-282.771 0-512-229.229-512-512s229.229-512 512-512c282.806 0 512 229.229 512 512s-229.229 512-512 512v0zM512-21.333c-259.217 0-469.333 210.117-469.333 469.333s210.117 469.333 469.333 469.333c259.217 0 469.333-210.117 469.333-469.333s-210.117-469.333-469.333-469.333zM469.333 234.667h85.333v298.667h-85.333v-298.667zM469.333 576h85.333v85.333h-85.333v-85.333z" />
<glyph unicode="&#xe633;" glyph-name="search" d="M701.68 191.758c-74.124-61.642-169.099-98.661-272.641-98.661-236.951 0-429.038 193.874-429.038 433.031s192.087 433.031 429.038 433.031c236.951 0 429.038-193.874 429.038-433.031 0-100.144-33.679-192.347-90.231-265.7l253.717-253.717c3.196-3.196 3.27-8.416 0.096-11.592l-55.921-55.921c-3.188-3.188-8.364-3.132-11.592 0.096l-252.465 252.465zM429.037 177.296c190.878 0 345.615 156.176 345.615 348.83s-154.737 348.83-345.615 348.83c-190.878 0-345.615-156.176-345.615-348.83s154.737-348.83 345.615-348.83v0z" />
<glyph unicode="&#xe635;" glyph-name="circle-question-mark" d="M512 960c-282.282 0-512-229.674-512-512s229.718-512 512-512c282.326 0 512 229.674 512 512s-229.674 512-512 512v0 0zM512-28.586c-262.784 0-476.586 213.802-476.586 476.586s213.802 476.586 476.586 476.586c262.826 0 476.63-213.802 476.63-476.586s-213.802-476.586-476.63-476.586v0 0zM543.914 480.342c42.070 42.070 58.454 62.336 58.454 103.638 0 43.606-15.574 75.562-87.296 75.562-45.952 0-87.978-13.994-116.822-28.8l-32.726 61.526c38.912 19.456 91.904 35.030 160.47 35.030 118.4 0 149.59-55.296 149.59-130.858 0-70.912-28.032-102.058-70.144-144.896-63.104-63.104-66.218-73.984-64.682-148.778h-71.68c-0.682 87.978 5.504 106.71 74.838 177.578v0 0zM460.586 232.618h87.254v-88.832h-87.254v88.832z" />
<glyph unicode="&#xe636;" glyph-name="circle-question-mark-solid" d="M512 960c-282.282 0-512-229.674-512-512s229.718-512 512-512c282.326 0 512 229.674 512 512s-229.674 512-512 512v0zM547.84 143.786h-87.254v88.832h87.254v-88.832zM605.44 451.498c-63.104-63.104-66.218-73.984-64.682-148.778h-71.68c-0.768 88.022 5.462 106.752 74.794 177.622 42.070 42.070 58.454 62.336 58.454 103.638 0 43.606-15.574 75.562-87.296 75.562-45.952 0-87.978-13.994-116.822-28.8l-32.682 61.526c38.912 19.456 91.904 35.030 160.47 35.030 118.4 0 149.59-55.296 149.59-130.858 0-70.954-28.032-102.058-70.144-144.938v0z" />
<glyph unicode="&#xe640;" glyph-name="circle-envelope, circle-mail" d="M512 960c-282.829 0-512-229.171-512-512s229.171-512 512-512c282.829 0 512 229.171 512 512s-229.171 512-512 512v0zM512-43.52c-271.524 0-491.52 219.996-491.52 491.52s219.996 491.52 491.52 491.52c271.524 0 491.52-219.996 491.52-491.52s-219.996-491.52-491.52-491.52v0zM266.24 529.92v-286.72h491.52v286.72l-245.76 204.8-245.76-204.8zM511.898 366.080l-184.218 122.88h368.64l-184.422-122.88z" />
<glyph unicode="&#xe641;" glyph-name="circle-envelope-solid, circle-mail-solid" d="M512 960c-282.829 0-512-229.171-512-512s229.171-512 512-512c282.829 0 512 229.171 512 512s-229.171 512-512 512v0zM757.76 243.2h-491.52v286.72l245.76 204.8 245.76-204.8v-286.72zM511.898 366.080l184.422 122.88h-368.64l184.218-122.88" />
<glyph unicode="&#xe646;" glyph-name="phone" horiz-adv-x="1229" d="M362.938 224.466l-0.182-0.162c266.737-271.249 629.798-341.273 689.686-251.113 21.717 32.492 44.443 82.723 65.958 125.839 20.386 40.858 2.843 91.552-37.949 112.092l-207.432 104.876c-21.193 14.19-51.117 9.414-65.333-11.832l-51.58-75.749c-166.861 53.174-307.691 192.377-361.569 361.43l74.911 52.448c21.234 14.19 26.254 43.902 12.059 65.086l-104.472 206.869c-20.548 40.777-70.354 57.426-111.247 37.048-43.152-21.488-94.188-43.418-126.693-65.106-90.721-60.248-14.196-415.067 223.846-661.726v0z" />
<glyph unicode="&#xe649;" glyph-name="circle-search" d="M1024 448c0 282.77-229.23 512-512 512s-512-229.23-512-512c0-282.77 229.23-512 512-512s512 229.23 512 512v0 0zM20.48 448c0 271.459 220.061 491.52 491.52 491.52s491.52-220.061 491.52-491.52c0-271.459-220.061-491.52-491.52-491.52s-491.52 220.061-491.52 491.52v0 0zM616.532 314.496c-32.677-27.174-74.547-43.494-120.193-43.494-104.459 0-189.139 85.468-189.139 190.899s84.68 190.899 189.139 190.899c104.459 0 189.139-85.468 189.139-190.899 0-44.147-14.848-84.795-39.778-117.132l111.606-111.606c1.652-1.652 1.495-4.144-0.139-5.778l-23.804-23.804c-1.681-1.681-4.221-1.696-5.778-0.139l-111.054 111.054zM496.339 308.121c84.147 0 152.362 68.85 152.362 153.78s-68.215 153.78-152.362 153.78c-84.147 0-152.362-68.85-152.362-153.78s68.215-153.78 152.362-153.78v0 0z" />
<glyph unicode="&#xe64a;" glyph-name="circle-search-solid" d="M512-64c282.77 0 512 229.23 512 512s-229.23 512-512 512c-282.77 0-512-229.23-512-512s229.23-512 512-512v0 0zM616.532 314.496c-32.677-27.174-74.547-43.494-120.193-43.494-104.459 0-189.139 85.468-189.139 190.899s84.68 190.899 189.139 190.899c104.459 0 189.139-85.468 189.139-190.899 0-44.147-14.848-84.795-39.778-117.132l111.606-111.606c1.652-1.652 1.495-4.144-0.139-5.778l-23.804-23.804c-1.681-1.681-4.221-1.696-5.778-0.139l-111.054 111.054zM496.339 308.121c84.147 0 152.362 68.85 152.362 153.78s-68.215 153.78-152.362 153.78c-84.147 0-152.362-68.85-152.362-153.78s68.215-153.78 152.362-153.78v0 0z" />
<glyph unicode="&#xe64b;" glyph-name="circle-send-arrow" horiz-adv-x="1044" d="M522 960c-282.789 0-512-229.213-512-512s229.213-512 512-512c282.789 0 512 229.213 512 512s-229.213 512-512 512v0zM522-23.042c-260.138 0-471.042 210.904-471.042 471.042s210.904 471.042 471.042 471.042c260.138 0 471.042-210.904 471.042-471.042s-210.904-471.042-471.042-471.042v0zM576.723 567.029c-3.891-0.451-6.717-0.902-9.461-1.105-16.015-1.27-32.113-1.556-47.965-3.728-83.641-11.633-151.306-50.421-200.54-119.727-38.502-54.149-59.147-115.344-69.919-180.224-2.499-14.786-3.973-29.737-5.939-44.606 19.333 77.252 68.69 127.428 139.674 158.474 47.883 20.89 98.59 29.614 150.324 32.646 14.214 0.86 28.467 0.123 43.951 0.123v-163.472c81.47 81.47 162.816 162.816 243.262 243.18-80.364 80.405-161.587 161.628-243.385 243.427v-164.987" />
<glyph unicode="&#xe64c;" glyph-name="circle-send-arrow-solid" horiz-adv-x="1044" d="M522 960c-282.772 0-512-229.23-512-512s229.23-512 512-512c282.772 0 512 229.23 512 512s-229.23 512-512 512v0zM576.857 245.394v163.474c-15.506 0-29.733 0.731-43.959-0.11-51.748-3.036-102.438-11.74-150.309-32.658-70.985-31.048-120.356-81.189-139.703-158.464 1.976 14.884 3.475 29.806 5.96 44.618 10.753 64.878 31.415 126.062 69.925 180.224 49.225 69.304 116.883 108.106 200.522 119.699 15.872 2.195 31.964 2.487 47.981 3.73 2.742 0.22 5.559 0.659 9.435 1.133v164.973c81.811-81.811 163.035-163.035 243.383-243.421-80.421-80.384-161.792-161.72-243.236-243.201v0z" />
<glyph unicode="&#xe652;" glyph-name="minus" d="M1024 407.040v81.92h-1024v-81.92z" />
<glyph unicode="&#xe658;" glyph-name="alert-outline" d="M446.681 791.778c37.905 64.781 92.75 64.751 130.636 0l388.649-664.232c37.84-64.671 11.286-111.021-63.523-111.021h-780.891c-74.808 0-101.334 46.398-63.523 111.021l388.649 664.232zM411.214 812.531l-388.649-664.232c-53.826-91.991-7.587-172.865 98.99-172.865h780.891c106.559 0 152.854 80.807 98.99 172.865l-388.649 664.232c-53.75 91.863-147.792 91.913-201.572 0zM483.729 299.737h55.887l7.231 347.811h-70.352l7.231-347.811zM471.894 160.35h79.555v85.472h-79.555v-85.472z" />
<glyph unicode="&#xe65e;" glyph-name="circle-play" d="M512.011 960c-282.764 0-512.011-229.236-512.011-511.989 0-282.775 229.247-512.011 512.011-512.011 282.743 0 511.989 229.236 511.989 512.011 0 282.753-229.247 511.989-511.989 511.989v0zM512.011-42.442c-270.433 0-490.453 220.020-490.453 490.453 0 270.422 220.020 490.431 490.453 490.431 270.422 0 490.431-220.009 490.431-490.431 0-270.433-220.009-490.453-490.431-490.453zM389.12 744.96v-593.92l389.12 296.949-389.12 296.971zM744.392 448l-334.715-252.626v505.263l334.715-252.637z" />
<glyph unicode="&#xe661;" glyph-name="new-window" d="M698.598 959.999v-118.328h118.328l-325.403-325.403 88.746-88.746 325.403 325.403v-117.52h118.328v324.595h-325.403zM0.003 837.119v-901.118h901.118v506.879h-84.48v-422.399h-732.159v732.159h422.399v84.48h-506.879z" />
<glyph unicode="&#xe662;" glyph-name="chevron-left" d="M742.4-64l-512 512 512 512 51.2-51.2-460.8-460.8 460.8-460.8z" />
<glyph unicode="&#xe663;" glyph-name="chevron-right" d="M281.6 960l512-512-512-512-51.2 51.2 460.8 460.8-460.8 460.8z" />
<glyph unicode="&#xe670;" glyph-name="manual-transmission" horiz-adv-x="2560" d="M1984.805 463.164h-470.159v127.168c0 7.040-5.688 12.752-12.752 12.752-7.014 0-12.752-5.713-12.752-12.752v-127.168h-454.27v127.168c0 7.040-5.713 12.752-12.752 12.752s-12.752-5.713-12.752-12.752v-127.168h-437.844v127.168c0 7.040-5.713 12.752-12.752 12.752s-12.752-5.713-12.752-12.752v-279.841c0-7.040 5.713-12.752 12.752-12.752s12.752 5.713 12.752 12.752v127.168h437.844v-127.142c0-7.040 5.713-12.752 12.752-12.752s12.752 5.713 12.752 12.752v127.142h454.295v-127.142c0-7.040 5.739-12.752 12.752-12.752 7.065 0 12.752 5.713 12.752 12.752v127.142h457.432v-127.142c0-7.040 5.713-12.752 12.752-12.752s12.752 5.713 12.752 12.752v139.895c-0.051 7.040-5.739 12.752-12.803 12.752v0zM1371.13 70.718c0 117.782 33.871 161.523 186.697 161.523h35.019v-66.568h-37.416c-109.493 0-105.947-29.942-107.504-55.55 12.166 18.517 37.798 27.571 85.824 27.571 75.622 0 98.883-33.896 98.883-96.511 0-66.517-33.462-105.157-126.021-105.157-100.030 0-135.482 49.199-135.482 134.692v0zM1556.653 38.429c0 23.975-9.87 38.972-48.868 38.972-38.946 0-55.142-12.216-55.142-38.972 0-26.831 16.196-38.997 54.402-38.997 43.333 0 49.607 14.971 49.607 38.997v0zM1981.974 26.263h-54.479v-90.237h-82.126v301.163h152.826c107.708 0 125.969-47.184 125.969-103.652 0-37.365-9.309-77.203-58.075-96.307l54.81-101.204h-90.237l-48.689 90.237zM1995.364 96.172c32.468 0 43.895 6.504 43.895 34.126 0 28.871-10.559 35.375-44.277 35.375h-67.487v-69.501h67.869zM1373.68 688.755l36.804 59.605c23.975-13.594 53.204-28.412 88.757-28.412 28.055 0 51.214 1.581 51.214 36.804 0 35.197-22.801 37.594-50.398 37.594-19.613 0-34.458-2.806-47.261-8.417l-66.007 19.613 8.008 149.638h211.207v-67.588h-144.358l-2.014-38.794c13.237 6.402 35.605 10.406 60.829 10.406 56.417 0 109.621-8.799 109.621-99.623 0-91.614-53.637-105.208-128.418-105.208-61.977-0.026-101.587 16.757-127.984 34.381v0zM442.365-1.384l96.741 76.387c46.317 36.626 60.115 48.791 60.115 68.685 0 19.129-6.478 28.055-45.118 28.055-27.214 0-63.813-8.927-81.667-19.103l-36.6 61.799c35.758 18.695 63.406 27.647 126.837 27.647 77.203 0 116.659-24.817 116.659-90.67 0-45.909-29.28-75.572-76.821-111.763l-48.791-36.982h128.035v-66.645h-239.39v62.589zM543.39 883.996h-47.21v71.21h125.23v-296.445h-78.045l0.026 225.235zM885.794 49.829l130.867 187.385h85.774l-128.418-182.897h68.252l16.68 78.836h56.085v-78.836h43.435v-63.864h-43.435v-54.453h-73.964v54.453h-155.275v59.376zM894.925 688.347l36.778 59.605c29.612-17.19 57.615-28.387 91.614-28.387 35.223 0 48.409 6.402 48.409 33.207 0 24.817-12.421 31.218-51.214 31.218h-57.208v61.977h56.417c32.391 0 43.588 4.413 43.588 23.618 0 17.573-7.192 22.827-41.982 22.827-28.387 0-62.028-8.825-79.193-20.021l-40.4 57.998c30.377 18.797 77.586 29.612 127.602 29.612 72.001 0 112.018-18.032 112.018-72.408 0-42.007-11.579-58.406-33.998-67.614 25.199-7.192 42.007-23.618 42.007-74.398 0-74.424-53.611-91.614-122.016-91.614-62.436-0.026-97.225 11.605-132.422 34.381v0z" />
<glyph unicode="&#xe671;" glyph-name="vehicle-performance" horiz-adv-x="1920" d="M959.97 959.999c-523.23 0-948.938-425.679-948.938-948.908 0-7.863 0.268-15.608 0.596-23.382l0.298-8.459c0.745-24.127 20.522-43.25 44.649-43.25h1806.849c24.097 0 43.845 19.094 44.649 43.131l0.268 6.761c0.298 8.37 0.626 16.74 0.626 25.229-0.030 523.2-425.739 948.879-948.998 948.879v0zM1144.766 25.33c-1.906 24.484-8.4 47.718-18.884 68.628l416.952 410.428c14.595 12.57 16.203 34.612 3.664 49.117-12.629 14.565-34.583 16.234-49.117 3.605l-487.992-367.298c-15.727 4.349-32.259 6.821-49.386 6.821-97.669 0-177.527-75.509-184.885-171.303h-674.605c1.459 89.776 16.889 176.187 43.994 257.296l119.503-46.854c5.362-2.085 10.872-3.097 16.293-3.097 17.842 0 34.701 10.753 41.611 28.357 8.995 22.966-2.324 48.909-25.288 57.904l-119.354 46.824c56.476 124.179 141.605 232.632 246.989 316.869l74.556-104.134c8.728-12.182 22.429-18.676 36.37-18.676 8.995 0 18.080 2.711 25.974 8.34 20.076 14.357 24.693 42.267 10.336 62.343l-74.585 104.163c111.669 71.726 240.824 118.432 379.659 131.865l5.839-128.469c1.102-23.978 20.851-42.654 44.62-42.654 0.655 0 1.371 0 2.055 0.030 24.663 1.132 43.727 22.012 42.625 46.646l-5.808 128.38c140.562-0.953 273.142-35.862 390.113-96.806l-64.965-110.657c-12.48-21.267-5.362-48.671 15.936-61.152 7.089-4.17 14.863-6.166 22.578-6.166 15.34 0 30.264 7.893 38.574 22.072l64.935 110.597c112.95-74.734 207.255-175.442 274.482-293.487l-114.737-57.369c-22.072-11.051-31.008-37.859-19.987-59.96 7.834-15.638 23.621-24.693 40.003-24.693 6.732 0 13.523 1.52 19.957 4.706l114.976 57.488c44.412-101.274 69.849-212.706 71.755-329.736l-674.754 0.030z" />
<glyph unicode="&#xe672;" glyph-name="vehicle-hybrid" horiz-adv-x="1248" d="M771.665 200.227c-38.215-9.864-76.279-21.003-113.006-32.751l-22.887-7.589h80.648c32.751 11.807 67.112 23.008 100.712 32.965l26.376 7.466-71.847-0.090zM482.457 106.86c-61.254-18.97-132.584-52.298-192.925-93.64l-10.381-7.163h100.774c84.048 59.494 191.497 100.805 191.497 100.805h-88.967zM646.609 595.153c-21.582 35.027-41.067 70.905-62.588 105.66-20.427 32.934-44.922 64.229-71.45 92.791-26.439 28.289-55.608 55.304-88.449 76.612-27.319 17.637-49.080 30.263-84.231 43.527-4.342 1.518-10.987 3.187-9.682 8.953 3.735 10.593 15.966 3.096 23.464 0.607 15.816-5.222 31.84-11.231 46.683-19.001 28.35-14.387 55.183-30.901 79.496-51.358 64.349-54.213 110.487-121.231 153.224-191.8 21.127-34.542 41.888-68.75 66.535-101.381 18.76-24.465 39.368-47.259 61.374-68.841 57.61-53.998 110.274-91.941 195.625-129.153 63.56-27.653 119.501-26.469 225.585-34.815 28.837-2.277 50.537-27.135 50.537-54.848 0-27.926-21.854-51.994-50.568-54.939-363.572-37.242-603.513-170.373-681.49-281.161l-485.409 0.213c176.959 210.804 854.233 332.064 860.697 333.248l6.435 1.001c11.991 1.974 76.46 14.114 77.704 19.457 3.4 13.751-124.842 83.016-180.42 139.444-51.417 49.536-96.008 105.993-133.068 165.79v0 0zM948.927 426.966l-17.393 45.802-20.397 60.434c-11.231 36.241-22.856 73.668-39.763 110.76-12.87 28.046-27.895 55.032-43.496 82.621 0.090-0.184-2.944 4.949-2.944 4.949-46.105 73.032-110.184 130.033-190.193 169.252-73.759 36-153.102 56.033-235.723 59.221l-46.683-0.638c111.245-38.153 183.788-101.592 238.88-170.736 21.854-27.501 41.464-56.578 60.070-86.446 21.003-33.875 39.4-69.417 62.741-102.2 47.199-65.685 104.295-122.356 173.802-166.792 8.104-4.888 40.217-23.919 60.857-33.752 2.854 3.491 4.674 8.104 4.432 12.445-0.667 7.133-4.189 15.085-4.189 15.085v0 0zM810.152 353.905c-15.328 12.201-30.17 25.072-44.469 38.488-58.793 54.969-108.696 118.59-150.37 186.309-20.64 33.511-38.246 68.537-59.643 101.834-19.85 30.717-42.191 60.070-67.080 87.113-19.457 21.034-40.643 40.37-63.529 57.944-12.050 9.47-25.133 18.029-38.427 25.862-6.375 3.611-12.901 7.376-19.487 10.683-4.158 1.943-22.824 10.2-51.114 18.91l19.093-23.432c24.92-31.751 42.101-63.622 52.511-97.223 10.41-33.814 19.546-69.844 28.502-113.188 12.87-61.648 36.728-151.674 95.672-221.336 56.366-66.898 133.615-109.393 223.248-123.022 20.094-3.157 41.525-4.432 67.536-4.067h3.157c24.585-0.273 46.623-0.152 61.041 13.144-15.632 11.534-50.721 37.486-56.64 41.978v0 0z" />
<glyph unicode="&#xe674;" glyph-name="vehicle-car-front" d="M967.004 618.685h-113.766c-2.276 0-4.134 0-6.030-0.758-8.684 39.4-26.924 106.18-55.366 147.136-31.854 46.606-50.816 40.198-60.296 40.538-8.722 0.796-67.918 2.654-219.604 2.654h-37.922c-151.686 0-201.744-1.896-210.466-2.654-9.48-0.38-18.96 1.138-51.232-45.468-27.304-39.438-44.368-102.010-53.052-141.448h-102.388c-31.476 0-56.882-25.408-56.882-56.882s25.408-56.882 56.882-56.882h36.784c-19.72-27.682-36.784-55.366-36.784-71.292v-321.537c0-13.614 12.894-24.346 26.924-24.346h100.114c14.032 0 24.65 10.618 24.65 24.346v51.536h606.746v-51.536c0-13.576 10.276-24.308 24.308-24.308h100.152c14.068 0 27.342 10.656 27.342 24.308v324.647c0 8.684-24.308 39.060-49.336 68.26h49.336c31.476 0 56.882 25.408 56.882 56.882s-25.522 56.806-56.996 56.806v0zM224.158 542.841h-0.796c0.796 1.516 1.516 3.034 1.934 4.55 19.34 43.23 40.538 173.682 92.15 179.748 61.054 7.168 123.246 14.032 184.678 14.032 61.812 0 123.586-5.346 185.058-12.514 49.26-5.688 80.356-147.894 93.666-185.816h-556.688z" />
<glyph unicode="&#xe675;" glyph-name="price-tag-solid" d="M990.264 453.929l-472.502 472.026c-26.417 26.85-64.091 38.541-101.334 32.479l-273.256-47.202c-48.503-8.228-86.177-45.904-94.404-94.404l-47.202-273.256c-6.062-37.243 5.629-74.917 32.479-101.334l472.026-472.46c45.037-45.037 118.656-45.037 163.693 0l320.458 320.458c21.653 21.653 33.777 51.099 33.777 81.846s-12.082 60.194-33.735 81.846v0 0zM364.938 595.104c-43.305-43.305-113.892-43.305-157.197-0.433-43.305 43.739-43.305 114.325 0 157.63s113.892 43.305 157.197 0c43.305-43.305 43.305-113.892 0-157.197v0 0z" />
<glyph unicode="&#xe677;" glyph-name="circle-person, circle-user" d="M512 960c-282.767 0-512-229.233-512-512s229.233-512 512-512c282.767 0 512 229.233 512 512s-229.233 512-512 512v0 0zM512 939.52c271.012 0 491.52-220.488 491.52-491.52s-220.508-491.52-491.52-491.52c-271.012 0-491.52 220.488-491.52 491.52s220.508 491.52 491.52 491.52v0 0zM512.43 520.54c53.489 0 96.85 43.361 96.85 96.85s-43.361 96.85-96.85 96.85c-53.489 0-96.85-43.361-96.85-96.85s43.361-96.85 96.85-96.85v0zM731.259 277.75c-1.475 102.4-99.021 216.658-219.279 216.658-120.218 0-217.764-114.258-219.238-216.658h438.518z" />
<glyph unicode="&#xe678;" glyph-name="wallet" d="M1023.999 808.135c0 80.945-65.34 146.285-146.285 146.285h-731.427c-80.945 0-146.285-65.34-146.285-146.285v-518.337c0-80.457 50.224-162.864 128.243-182.857l617.813-160.914c78.066-19.993 131.657 29.257 131.657 110.202v376.442c0 40.083-25.259 72.997-48.762 79.481l-669.499 194.071c-36.181 10.776-61.586 47.152-50.224 90.697 11.702 38.521 52.176 60.952 90.697 49.738l668.525-193.585c84.357-22.919 147.309-105.814 154.623-201.385 0.438 4.876 0.926 10.24 0.926 15.117v341.333z" />
<glyph unicode="&#xe679;" glyph-name="circle-users, circle-people" d="M512 960c-282.767 0-512-229.233-512-512s229.233-512 512-512c282.767 0 512 229.233 512 512s-229.233 512-512 512v0 0zM512 939.52c271.012 0 491.52-220.488 491.52-491.52s-220.508-491.52-491.52-491.52c-271.012 0-491.52 220.488-491.52 491.52s220.508 491.52 491.52 491.52v0 0zM800.952 304.64h-181.658c-0.819 60.641-27.034 116.552-68.608 156.467 22.323 11.674 47.104 18.432 73.318 18.432 97.075 0 175.739-92.979 176.947-174.899v0zM580.178 304.64h-353.874c1.229 81.92 79.852 174.92 176.947 174.92 41.779 0 80.077-17.203 110.387-43.213 40.12-34.632 65.946-84.992 66.54-131.707v0zM627.2 513.966c46.465 0 84.132 37.667 84.132 84.132s-37.667 84.132-84.132 84.132c-46.465 0-84.132-37.667-84.132-84.132s37.667-84.132 84.132-84.132v0zM406.548 513.966c46.465 0 84.132 37.667 84.132 84.132s-37.667 84.132-84.132 84.132c-46.465 0-84.132-37.667-84.132-84.132s37.667-84.132 84.132-84.132v0z" />
<glyph unicode="&#xe67b;" glyph-name="circle-print" d="M512 960c-282.767 0-512-229.233-512-512 0-282.747 229.233-512 512-512s512 229.233 512 512c0 282.767-229.233 512-512 512v0 0zM512 939.52c271.012 0 491.52-220.488 491.52-491.52 0-271.012-220.508-491.52-491.52-491.52s-491.52 220.508-491.52 491.52c0 271.032 220.508 491.52 491.52 491.52v0 0zM718.213 632.279h-409.6c-33.792 0-61.44-27.648-61.44-61.44v-163.84c0-33.792 27.648-61.44 61.44-61.44h61.44v-105.288h286.72v105.288h61.44c33.792 0 61.44 27.648 61.44 61.44v163.84c0 33.792-27.628 61.44-61.44 61.44v0 0zM615.813 281.252h-204.8v184.32h204.8v-184.32zM707.359 528.855c-17.203 0-31.13 13.926-31.13 31.15 0 17.408 13.926 31.314 31.13 31.314 17.428 0 31.334-13.926 31.334-31.314 0-17.224-13.906-31.15-31.334-31.15v0 0z" />
<glyph unicode="&#xe67c;" glyph-name="key" d="M994.64 84.042c0 0.043-0.043 0.13-0.043 0.175-2.974 8.394-7.914 16.045-14.252 22.298-7.826 7.694-19.587 19.237-33.316 32.748v80.183c0 36.55-29.599 66.149-66.106 66.149h-79.178v84.425c0 36.507-29.599 66.106-66.106 66.106h-92.206c-5.728 5.595-11.235 10.93-16.613 16.178l52.508 52.508c51.59 51.59 51.59 135.097 0 186.689l-185.376 185.376c-111.050 110.613-290.743 111.050-401.794 0l-7.869-7.869c-110.613-111.050-110.613-290.743 0-401.794l185.376-185.376c51.59-51.154 135.097-51.154 186.689 0l51.329 51.284c47.262-48.486 297.344-304.297 340.367-348.061 10.537-10.712 23.434-18.494 37.818-22.778 31.085-9.224 83.287-23.696 87.879-24.922 6.558-1.748 13.772-1.881 20.855 0 47.568 12.811 25.707 59.723 0.043 146.682v0 0zM186.2 544.116l-14.865 14.865c-151.187 151.142 80.053 381.639 230.845 230.845l14.865-14.865-230.845-230.845z" />
<glyph unicode="&#xe67d;" glyph-name="circle-calendar" d="M512 960c-282.767 0-512-229.233-512-512s229.233-512 512-512c282.767 0 512 229.233 512 512s-229.233 512-512 512v0 0zM512 939.52c271.012 0 491.52-220.488 491.52-491.52s-220.508-491.52-491.52-491.52c-271.012 0-491.52 220.488-491.52 491.52s220.508 491.52 491.52 491.52v0 0zM655.36 652.8v61.44h-61.44v-61.44h-163.84v61.44h-61.44v-61.44h-61.44v-389.12c0-33.846 27.648-61.44 61.44-61.44h286.72c33.792 0 61.44 27.594 61.44 61.44v389.12h-61.44zM675.84 263.68c0-11.112-9.421-20.48-20.48-20.48h-286.72c-11.059 0-20.48 9.368-20.48 20.48v266.24h327.68v-266.24zM491.52 427.52h20.48v-102.4c4.532-11.137 12.728-20.48 20.48-20.48 12.284 0 20.48 9.343 20.48 20.48v143.36c0 7.096-3.461 13.933 0 20.48-14.571 0.911-21.493 0.911-20.48 0l-61.44-40.96c0.522 3.13-2.575-9.528 0-20.48 7.425-8.916 18.353-12.437 20.48 0v0 0z" />
<glyph unicode="&#xe67e;" glyph-name="chevron-up" d="M1024 217.6l-512 512-512-512 51.2-51.2 460.8 460.8 460.8-460.8z" />
<glyph unicode="&#xe67f;" glyph-name="circle-trash" d="M0 448c0 282.829 229.171 512 512 512s512-229.171 512-512c0-282.829-229.171-512-512-512s-512 229.171-512 512zM20.48 448c0-271.518 220.002-491.52 491.52-491.52s491.52 220.002 491.52 491.52c0 271.518-220.002 491.52-491.52 491.52s-491.52-220.002-491.52-491.52zM593.92 652.8v20.48c0 11.325-9.155 20.48-20.48 20.48h-122.88c-11.325 0-20.48-9.155-20.48-20.48v-20.48h-122.88v-61.44h20.48v-348.16c0-33.997 27.443-61.44 61.44-61.44h245.76c33.997 0 61.44 27.443 61.44 61.44v348.16h20.48v61.44h-122.88zM430.080 243.2h-40.96v327.68h40.96v-327.68zM532.48 243.2h-40.96v327.68h40.96v-327.68zM634.88 243.2h-40.96v327.68h40.96v-327.68z" />
<glyph unicode="&#xe680;" glyph-name="chevron-down" d="M1024 678.4l-512-512-512 512 51.2 51.2 460.8-460.8 460.8 460.8z" />
<glyph unicode="&#xe681;" glyph-name="map-marker2" d="M781.66 848.817c-148.327 148.243-391.053 148.243-539.295 0-127.006-127.006-144.911-323.136-54.55-470.212l324.427-442.605 323.968 442.605c90.362 147.035 72.372 343.166-54.55 470.212v0 0zM623.8 467.385c-61.588-61.588-161.984-61.588-223.614 0-61.628 61.213-61.628 161.984 0 223.614 61.628 61.213 162.027 61.213 223.614 0 61.712-61.628 61.712-162.401 0-223.614v0 0z" />
<glyph unicode="&#xe682;" glyph-name="chat-plus, add-chat, plus-chat-bubble" horiz-adv-x="1229" d="M870.501 959.999h-512.001c-141.44 0-256-118.44-256-260.361v-299.684c0-141.922 114.56-253.383 256-253.383h217.237l316.096-210.571v207.938c131.413 10.917 234.667 121.372 234.667 256.016v299.684c0 141.922-114.56 260.361-256 260.361v0zM379.834 618.665h170.667v170.667h128v-170.667h170.667v-128h-170.667v-170.667h-128v170.667h-170.667v128z" />
<glyph unicode="&#xe683;" glyph-name="circle-user-profile" d="M992 448c0-112.672-39.296-216.192-104.544-298.208-28.576 58.272-83.232 100.416-142.4 107.616-44.896 5.696-89.696 9.76-137.824 12.448-7.008 0-16.352 20-16.352 40.448v8.992c0 26.944 10.528 32.896 26.944 46.080 37.088 29.728 58.72 71.424 60.896 117.44l4.576 97.408c1.952 40.512-13.024 79.616-42.144 110.176-32.352 33.952-79.072 53.44-130.080 53.472-49.12-0.032-95.84-19.52-128.128-53.408-29.152-30.56-44.16-69.728-42.272-110.24l4.64-97.408c1.92-41.12 19.424-78.88 49.728-107.712 21.728-21.184 37.888-22.016 37.888-55.84v-8.992c0-20.384-8.032-40.384-17.088-40.416-46.816-2.496-91.488-6.464-136.576-12.16-59.232-7.456-114.048-49.792-142.688-107.936-65.28 82.016-104.576 185.536-104.576 298.24 0 264.672 215.328 480 480 480s480-215.328 480-480v0 0zM0 448c0-282.752 229.248-512 512-512s512 229.248 512 512c0 282.752-229.248 512-512 512s-512-229.248-512-512v0 0zM159.776 123.040c21.856 55.2 70.592 96.32 123.456 102.976 44.32 5.6 88.256 9.504 133.44 11.936 31.648 0 48.224 36.416 48.224 72.384v8.992c0 79.776-83.040 66.112-87.648 165.056l-4.64 97.408c-1.472 31.712 10.4 62.464 33.44 86.656 26.304 27.616 64.608 43.456 106.784 43.488 40.448-0.032 78.752-15.936 105.088-43.552 23.040-24.16 34.912-54.944 33.408-86.624l-4.576-97.408c-1.984-41.632-27.424-80.416-47.68-92.256-24.8-14.56-40.224-42.432-40.224-72.8v-8.992c0-30.048 15.008-72.416 47.392-72.416 46.496-2.624 90.56-6.592 134.784-12.224 52.864-6.432 101.28-47.392 123.072-102.72-87.68-95.008-212.864-154.944-352.096-154.944-139.264 0-264.48 59.968-352.224 155.040v0 0z" />
<glyph unicode="&#xe684;" glyph-name="mailbox" horiz-adv-x="1229" d="M1013.391 673.709l-215.617 0.69v129.37h150.932v150.932h-258.741v-689.976h-86.247v409.673h-368.705c-133.682 0-235.023-105.868-235.023-239.551v-493.548h1229.019v493.678c0 128.896-89.309 231.723-215.617 238.732v0zM86.237 27.547v395.011c0 93.146 56.276 165.594 149.423 165.594 99.594 0 152.441-73.612 152.441-165.594v-6.899h-217.773l66.842-309.842v-78.269h-150.932z" />
<glyph unicode="&#xe685;" glyph-name="envelope-solid, mail-solid" horiz-adv-x="1229" d="M614.614 960l-523.492-413.042v-610.958h1046.756v610.958l-523.263 413.042zM614.269 163.555l-386.613 273.066h773.689l-387.076-273.066z" />
</font>
</defs>
</svg>
