<?xml version="1.0" standalone="no"?>
<!DOCTYPE svg PUBLIC "-//W3C//DTD SVG 1.1//EN" "http://www.w3.org/Graphics/SVG/1.1/DTD/svg11.dtd" >
<svg xmlns="http://www.w3.org/2000/svg" width="100%" height="100%">
<metadata>
Created by FontXChange 20110222 at Fri Feb  1 13:34:19 2013
 By Chris Freitag
Copyright (c) The Font Bureau, Inc., 2006. All rights reserved.
</metadata>
<defs>
<font id="Antenna-Thin" horiz-adv-x="750" >
  <font-face 
    font-family="Antenna"
    font-weight="100"
    font-stretch="normal"
    units-per-em="1000"
    panose-1="2 0 5 3 0 0 0 2 0 4"
    ascent="800"
    descent="-200"
    x-height="542"
    cap-height="741"
    bbox="-59 -208 1501 996"
    underline-thickness="50"
    underline-position="-50"
    unicode-range="U+0020-FB02"
  />
<missing-glyph horiz-adv-x="500" 
d="M0 0v700h500v-700h-500zM50 650v-600h400v600h-400z" />
    <glyph glyph-name="fi" unicode="fi" horiz-adv-x="543" 
d="M34 518v24h103v80c0 83 26 154 133 154h52v-24h-52c-86 0 -107 -60 -107 -130v-80h159v-24h-159v-518h-26v518h-103zM428 0v542h26v-542h-26zM428 629v85h26v-85h-26z" />
    <glyph glyph-name="fl" unicode="fl" horiz-adv-x="601" 
d="M34 518v24h103v80c0 83 26 154 133 154h52v-24h-52c-86 0 -107 -60 -107 -130v-80h159v-24h-159v-518h-26v518h-103zM518 0c-82 0 -90 39 -90 106v670h26v-670c0 -60 6 -82 68 -82h27v-24h-31z" />
    <glyph glyph-name="f_f_i" unicode="ffi" horiz-adv-x="834" 
d="M428 0v518h-265v-518h-26v518h-103v24h103v80c0 83 26 154 133 154h52v-24h-52c-86 0 -107 -60 -107 -130v-80h265v80c0 83 26 154 133 154h52v-24h-52c-86 0 -107 -60 -107 -130v-80h159v-24h-159v-518h-26zM719 0v542h26v-542h-26zM719 629v85h26v-85h-26z" />
    <glyph glyph-name="f_f_l" unicode="ffl" horiz-adv-x="892" 
d="M428 0v518h-265v-518h-26v518h-103v24h103v80c0 83 26 154 133 154h52v-24h-52c-86 0 -107 -60 -107 -130v-80h265v80c0 83 26 154 133 154h52v-24h-52c-86 0 -107 -60 -107 -130v-80h159v-24h-159v-518h-26zM809 0c-82 0 -90 39 -90 106v670h26v-670c0 -60 6 -82 68 -82
h27v-24h-31z" />
    <glyph glyph-name="f_j" unicode="fj" horiz-adv-x="543" 
d="M34 518v24h103v80c0 83 26 154 133 154h52v-24h-52c-86 0 -107 -60 -107 -130v-80h159v-24h-159v-518h-26v518h-103zM340 -165v24h3c72 1 85 24 85 94v589h26v-589c0 -84 -17 -118 -110 -118h-4zM428 629v85h26v-85h-26z" />
    <glyph glyph-name="f_t" unicode="ft" horiz-adv-x="668" 
d="M545 0c-107 0 -117 48 -117 119v399h-265v-518h-26v518h-103v24h103v80c0 83 26 154 133 154h52v-24h-52c-86 0 -107 -60 -107 -130v-80h265l4 186l22 1v-187h163v-24h-163v-399c0 -57 8 -95 91 -95h72v-24h-72z" />
    <glyph glyph-name=".notdef" horiz-adv-x="500" 
d="M0 0v700h500v-700h-500zM50 650v-600h400v600h-400z" />
    <glyph glyph-name="space" unicode=" " horiz-adv-x="247" 
 />
    <glyph glyph-name="Eth" unicode="&#xd0;" horiz-adv-x="732" 
d="M1 378v24h94v339h227c270 0 360 -90 360 -370c0 -275 -107 -371 -378 -371h-209v378h-94zM121 24h183c252 0 352 90 352 347c0 262 -84 346 -334 346h-201v-315h187v-24h-187v-354z" />
    <glyph glyph-name="eth" unicode="&#xf0;" horiz-adv-x="612" 
d="M315 615v24l98 34c-30 31 -65 57 -105 83l15 20c43 -29 83 -57 117 -94l134 47v-24l-118 -41c59 -74 98 -184 98 -392c0 -189 -71 -283 -249 -283s-247 94 -247 283s69 283 247 283c121 0 175 -41 213 -109c-17 95 -46 159 -88 209zM305 13c160 0 223 86 223 259
s-63 259 -223 259c-159 0 -221 -86 -221 -259s62 -259 221 -259z" />
    <glyph glyph-name="Lslash" unicode="&#x141;" horiz-adv-x="569" 
d="M1 338v24l94 52v327h26v-312l187 105v-24l-187 -105v-381h413v-24h-439v390z" />
    <glyph glyph-name="lslash" unicode="&#x142;" horiz-adv-x="322" 
d="M20 431v24l109 63v258h26v-243l124 72v-24l-124 -72v-403c0 -60 6 -82 68 -82h27v-24h-31c-82 0 -90 39 -90 106v388z" />
    <glyph glyph-name="Scaron" unicode="&#x160;" horiz-adv-x="679" 
d="M331 -9c-90 0 -178 15 -278 77l14 20c95 -59 179 -73 264 -73c158 0 251 54 251 183c0 135 -104 151 -248 180c-136 28 -248 51 -248 194c0 127 87 181 243 181c94 0 172 -21 233 -62l-15 -20c-57 38 -130 58 -218 58c-142 0 -217 -47 -217 -157c0 -118 87 -141 227 -170
c153 -31 269 -50 269 -204c0 -146 -103 -207 -277 -207zM320 788l-151 138h33l137 -122l137 122h32l-151 -138h-37z" />
    <glyph glyph-name="scaron" unicode="&#x161;" horiz-adv-x="491" 
d="M247 -11c-57 0 -130 8 -204 56l14 20c69 -44 137 -52 190 -52c114 0 173 27 173 131c0 83 -49 100 -173 129c-120 28 -184 51 -184 150c0 80 48 132 183 132c78 0 135 -18 180 -45l-13 -21c-42 25 -95 42 -167 42c-119 0 -157 -43 -157 -108c0 -81 51 -101 164 -127
c128 -30 193 -51 193 -152c0 -123 -71 -155 -199 -155zM226 603l-151 138h33l137 -122l137 122h32l-151 -138h-37z" />
    <glyph glyph-name="Yacute" unicode="&#xdd;" horiz-adv-x="663" 
d="M319 0v305l-299 436h29l283 -412l283 412h28l-298 -434v-307h-26zM270 788l156 138h35l-160 -138h-31z" />
    <glyph glyph-name="yacute" unicode="&#xfd;" horiz-adv-x="497" 
d="M123 -165h-43v24h43c43 0 67 21 86 70l27 69l-216 544h26l203 -512l203 512h25l-244 -616c-25 -62 -55 -91 -110 -91zM187 603l156 138h35l-160 -138h-31z" />
    <glyph glyph-name="Thorn" unicode="&#xde;" horiz-adv-x="674" 
d="M95 0v741h26v-137h279c153 0 223 -50 223 -203c0 -154 -71 -212 -219 -212h-283v-189h-26zM121 213h283c133 0 193 51 193 188c0 136 -58 179 -197 179h-279v-367z" />
    <glyph glyph-name="thorn" unicode="&#xfe;" horiz-adv-x="626" 
d="M85 -165v941h26v-343c30 85 96 122 226 122c177 0 231 -102 231 -282s-54 -282 -231 -282c-131 0 -195 34 -226 122v-278h-26zM337 15c158 0 205 93 205 258s-47 258 -205 258s-226 -57 -226 -258s68 -258 226 -258z" />
    <glyph glyph-name="Zcaron" unicode="&#x17d;" horiz-adv-x="648" 
d="M53 0v23l499 694h-482v24h511v-23l-499 -694h510v-24h-539zM305 788l-151 138h33l137 -122l137 122h32l-151 -138h-37z" />
    <glyph glyph-name="zcaron" unicode="&#x17e;" horiz-adv-x="478" 
d="M41 0v24l359 494h-341v24h369v-24l-359 -494h371v-24h-399zM220 603l-151 138h33l137 -122l137 122h32l-151 -138h-37z" />
    <glyph glyph-name="onehalf" unicode="&#xbd;" horiz-adv-x="845" 
d="M503 0v23l135 147c69 75 90 100 90 164c0 55 -32 79 -101 79c-50 0 -86 -10 -113 -23l-11 21c29 14 69 25 124 25c87 0 126 -30 126 -102c0 -70 -32 -106 -99 -180l-120 -131h216v-23h-247zM160 310v407h-92v24h117v-431h-25zM156 0l412 741h27l-412 -741h-27z" />
    <glyph glyph-name="onequarter" unicode="&#xbc;" horiz-adv-x="767" 
d="M616 0v116h-207v23l192 292h29l-193 -292h179l4 137h22v-137h76v-23h-76v-116h-26zM160 310v407h-92v24h117v-431h-25zM156 0l412 741h27l-412 -741h-27z" />
    <glyph glyph-name="onesuperior" unicode="&#xb9;" horiz-adv-x="299" 
d="M156 310v407h-92v24h117v-431h-25z" />
    <glyph glyph-name="threequarters" unicode="&#xbe;" horiz-adv-x="837" 
d="M183 310c-49 0 -91 8 -143 35l12 20c47 -25 86 -32 131 -32c80 0 117 23 117 106c0 68 -21 104 -130 104h-49v22h47c91 0 120 23 120 87c0 56 -33 78 -105 78c-38 0 -83 -9 -119 -31l-14 19c40 25 91 35 133 35c90 0 130 -27 130 -101c0 -54 -19 -83 -65 -98
c57 -12 77 -55 77 -115c0 -101 -44 -129 -142 -129zM686 0v116h-207v23l192 292h29l-193 -292h179l4 137h22v-137h76v-23h-76v-116h-26zM226 0l412 741h27l-412 -741h-27z" />
    <glyph glyph-name="threesuperior" unicode="&#xb3;" horiz-adv-x="422" 
d="M203 304c-49 0 -91 8 -143 35l12 20c47 -25 86 -32 131 -32c80 0 117 23 117 106c0 68 -21 104 -130 104h-49v22h47c91 0 120 23 120 87c0 56 -33 78 -105 78c-38 0 -83 -9 -119 -31l-14 19c40 25 91 35 133 35c90 0 130 -27 130 -101c0 -54 -19 -83 -65 -98
c57 -12 77 -55 77 -115c0 -101 -44 -129 -142 -129z" />
    <glyph glyph-name="twosuperior" unicode="&#xb2;" horiz-adv-x="397" 
d="M65 310v23l135 147c69 75 90 100 90 164c0 55 -32 79 -101 79c-50 0 -86 -10 -113 -23l-11 21c29 14 69 25 124 25c87 0 126 -30 126 -102c0 -70 -32 -106 -99 -180l-120 -131h224v-23h-255z" />
    <glyph glyph-name="brokenbar" unicode="&#xa6;" horiz-adv-x="291" 
d="M132 -165v392h26v-392h-26zM132 384v392h26v-392h-26z" />
    <glyph glyph-name="minus" unicode="&#x2212;" horiz-adv-x="679" 
d="M114 341v24h450v-24h-450z" />
    <glyph glyph-name="multiply" unicode="&#xd7;" horiz-adv-x="679" 
d="M174 171l-17 17l165 165l-165 165l17 17l165 -165l165 165l17 -17l-165 -165l165 -165l-17 -17l-165 165z" />
    <glyph glyph-name="exclam" unicode="!" horiz-adv-x="332" 
d="M141 0v64h50v-64h-50zM155 184l-4 557h30l-4 -557h-22z" />
    <glyph glyph-name="quotedbl" unicode="&#x22;" horiz-adv-x="418" 
d="M110 495l-4 246h26l-4 -246h-18zM290 495l-4 246h26l-4 -246h-18z" />
    <glyph glyph-name="numbersign" unicode="#" horiz-adv-x="696" 
d="M151 0l48 252h-128v24h133l39 203h-172v24h177l46 238h26l-46 -238h199l46 238h26l-46 -238h126v-24h-131l-39 -203h170v-24h-174l-49 -252h-26l48 252h-198l-49 -252h-26zM230 276h199l39 203h-199z" />
    <glyph glyph-name="dollar" unicode="$" horiz-adv-x="650" 
d="M317 -94v94c-79 1 -150 10 -232 68l15 20c77 -54 145 -63 218 -64v360c-113 28 -202 58 -202 181c0 116 57 174 201 176v61h26v-61c60 -3 131 -17 179 -52l-15 -19c-41 29 -102 44 -165 47v-315c122 -30 222 -64 222 -200c0 -132 -74 -199 -221 -202v-94h-26zM538 202
c0 118 -79 147 -196 176v-354c132 3 196 61 196 178zM142 565c0 -100 69 -130 176 -157v309c-128 -2 -176 -52 -176 -152z" />
    <glyph glyph-name="percent" unicode="%" horiz-adv-x="1024" 
d="M227 299c-136 0 -175 101 -175 226c0 126 39 228 175 228s176 -102 176 -228c0 -125 -40 -226 -176 -226zM227 323c116 0 150 90 150 202c0 113 -34 204 -150 204c-115 0 -149 -91 -149 -204c0 -112 34 -202 149 -202zM796 -11c-136 0 -175 101 -175 226
c0 126 39 228 175 228s176 -102 176 -228c0 -125 -40 -226 -176 -226zM796 13c116 0 150 90 150 202c0 113 -34 204 -150 204c-115 0 -149 -91 -149 -204c0 -112 34 -202 149 -202zM292 0l412 741h27l-412 -741h-27z" />
    <glyph glyph-name="ampersand" unicode="&#x26;" horiz-adv-x="751" 
d="M274 -11c-176 0 -220 73 -220 201c0 110 78 177 160 234c-27 70 -42 139 -42 198c0 92 48 131 127 131c82 0 117 -39 117 -131c0 -96 -86 -150 -171 -208c38 -94 98 -188 173 -261c22 -22 43 -40 62 -55c57 66 91 172 127 317l25 -6c-35 -144 -71 -255 -131 -326
c78 -56 133 -59 182 -59h13v-24h-13c-56 0 -116 5 -199 65c-50 -50 -117 -76 -210 -76zM274 13c83 0 143 22 189 67c-19 15 -40 34 -62 56c-77 74 -138 171 -178 266c-75 -52 -143 -114 -143 -212c0 -113 36 -177 194 -177zM198 622c0 -55 13 -120 38 -186
c79 54 154 105 154 186c0 73 -25 107 -91 107s-101 -34 -101 -107z" />
    <glyph glyph-name="quotesingle" unicode="'" horiz-adv-x="238" 
d="M110 495l-4 246h26l-4 -246h-18z" />
    <glyph glyph-name="parenleft" unicode="(" horiz-adv-x="449" 
d="M340 -178c-97 80 -217 244 -217 476s120 401 217 481l17 -19c-93 -77 -208 -239 -208 -462s115 -380 208 -457z" />
    <glyph glyph-name="parenright" unicode=")" horiz-adv-x="449" 
d="M109 -178l-17 19c93 77 208 234 208 457s-115 385 -208 462l17 19c97 -80 217 -249 217 -481s-120 -396 -217 -476z" />
    <glyph glyph-name="asterisk" unicode="*" horiz-adv-x="554" 
d="M265 288l3 208l-181 -105l-12 21l181 102l-181 103l12 21l181 -106l-3 209h24l-2 -209l180 106l12 -21l-181 -103l181 -102l-12 -21l-180 105l2 -208h-24z" />
    <glyph glyph-name="plus" unicode="+" horiz-adv-x="679" 
d="M326 128v213h-212v24h212v213h26v-213h212v-24h-212v-213h-26z" />
    <glyph glyph-name="comma" unicode="," horiz-adv-x="206" 
d="M78 -94l-12 17c29 18 40 36 40 77h-28v64h50v-55c0 -56 -14 -81 -50 -103z" />
    <glyph glyph-name="hyphen" unicode="-" horiz-adv-x="468" 
d="M61 281v24h347v-24h-347z" />
    <glyph glyph-name="hyphen" unicode="&#xad;" horiz-adv-x="468" 
d="M61 281v24h347v-24h-347z" />
    <glyph glyph-name="period" unicode="." horiz-adv-x="206" 
d="M78 0v64h50v-64h-50z" />
    <glyph glyph-name="slash" unicode="/" horiz-adv-x="445" 
d="M0 0l416 741h29l-416 -741h-29z" />
    <glyph glyph-name="zero" unicode="0" horiz-adv-x="703" 
d="M351 -11c-229 0 -260 177 -260 383s31 381 260 381s261 -175 261 -381s-32 -383 -261 -383zM351 13c206 0 235 166 235 359s-29 357 -235 357s-234 -164 -234 -357s28 -359 234 -359z" />
    <glyph glyph-name="one" unicode="1" horiz-adv-x="347" 
d="M191 0v717h-151v24h177v-741h-26z" />
    <glyph glyph-name="two" unicode="2" horiz-adv-x="555" 
d="M41 0v24l254 277c100 110 158 177 158 290c0 96 -55 138 -177 138c-89 0 -152 -18 -199 -42l-12 21c50 26 122 45 211 45c136 0 203 -50 203 -162s-58 -189 -166 -306l-241 -261h421v-24h-452z" />
    <glyph glyph-name="three" unicode="3" horiz-adv-x="587" 
d="M277 -11c-81 0 -157 14 -243 60l13 21c82 -44 151 -57 230 -57c142 0 207 49 207 195c0 120 -37 190 -230 190h-85v24h83c160 0 211 49 211 162c0 108 -58 145 -186 145c-66 0 -145 -15 -210 -54l-14 20c70 42 151 58 224 58c145 0 211 -44 211 -169
c0 -98 -35 -150 -125 -173c116 -24 146 -93 146 -203c0 -164 -72 -219 -232 -219z" />
    <glyph glyph-name="four" unicode="4" horiz-adv-x="647" 
d="M65 211v24l336 506h31l-337 -506h334l5 268h21v-268h151v-24h-151v-211h-26v211h-364z" />
    <glyph glyph-name="five" unicode="5" horiz-adv-x="623" 
d="M300 -11c-96 0 -165 27 -229 60l13 21c60 -31 124 -57 216 -57c130 0 231 45 231 219c0 169 -89 221 -216 221c-89 0 -140 -13 -199 -45l-23 7l19 326h395v-24h-374l-15 -281c32 19 102 41 197 41c143 0 242 -59 242 -245c0 -194 -111 -243 -257 -243z" />
    <glyph glyph-name="six" unicode="6" horiz-adv-x="664" 
d="M351 -11c-167 0 -264 67 -264 297c0 317 89 455 398 455h8v-24h-8c-267 0 -347 -102 -367 -330c44 76 127 108 233 108c187 0 242 -99 242 -253s-55 -253 -242 -253zM351 13c165 0 216 90 216 229s-51 229 -216 229c-133 0 -239 -65 -239 -195c0 -202 95 -263 239 -263z
" />
    <glyph glyph-name="seven" unicode="7" horiz-adv-x="500" 
d="M147 0l316 717h-434v24h460v-24l-316 -717h-26z" />
    <glyph glyph-name="eight" unicode="8" horiz-adv-x="668" 
d="M335 -11c-174 0 -257 70 -257 217c0 114 50 180 153 204c-91 22 -128 76 -128 165c0 117 64 178 232 178c167 0 230 -61 230 -178c0 -89 -37 -144 -127 -165c101 -25 152 -91 152 -204c0 -147 -86 -217 -255 -217zM335 13c152 0 229 62 229 193s-77 193 -229 193
c-156 0 -231 -62 -231 -193s75 -193 231 -193zM335 422c148 0 204 52 204 153s-56 154 -204 154c-149 0 -206 -53 -206 -154s57 -153 206 -153z" />
    <glyph glyph-name="nine" unicode="9" horiz-adv-x="664" 
d="M170 0v24h8c267 0 347 103 367 331c-44 -76 -127 -108 -233 -108c-187 0 -242 99 -242 253s55 253 242 253c167 0 264 -67 264 -297c0 -317 -89 -456 -398 -456h-8zM312 271c133 0 239 65 239 195c0 202 -95 263 -239 263c-165 0 -216 -90 -216 -229s51 -229 216 -229z
" />
    <glyph glyph-name="colon" unicode=":" horiz-adv-x="226" 
d="M88 0v64h50v-64h-50zM88 478v64h50v-64h-50z" />
    <glyph glyph-name="semicolon" unicode=";" horiz-adv-x="226" 
d="M88 -94l-12 17c29 18 40 36 40 77h-28v64h50v-55c0 -66 -14 -81 -50 -103zM88 478v64h50v-64h-50z" />
    <glyph glyph-name="less" unicode="&#x3c;" horiz-adv-x="679" 
d="M539 111l-439 222v24l439 222v-24l-416 -210l416 -210v-24z" />
    <glyph glyph-name="equal" unicode="=" horiz-adv-x="679" 
d="M120 242v24h439v-24h-439zM120 439v24h439v-24h-439z" />
    <glyph glyph-name="greater" unicode="&#x3e;" horiz-adv-x="679" 
d="M140 111v24l416 210l-416 210v24l439 -222v-24z" />
    <glyph glyph-name="question" unicode="?" horiz-adv-x="640" 
d="M287 185c-10 128 4 173 102 236c94 62 131 90 131 170c0 83 -26 138 -194 138c-78 0 -159 -19 -221 -53l-12 22c61 35 153 55 233 55c190 0 220 -64 220 -162c0 -93 -51 -131 -140 -188c-88 -57 -102 -89 -93 -218h-26zM274 0v64h50v-64h-50z" />
    <glyph glyph-name="at" unicode="@" horiz-adv-x="1098" 
d="M550 -165c-315 0 -445 180 -445 458c0 280 130 460 445 460c314 0 447 -180 447 -460c0 -188 -28 -257 -150 -257c-112 0 -121 68 -121 123c-33 -89 -94 -123 -203 -123c-149 0 -214 94 -214 260c0 165 65 259 214 259c109 0 174 -33 202 -120l4 120l22 -1v-394
c0 -45 8 -100 96 -100c103 0 124 63 124 233c0 265 -125 436 -421 436c-297 0 -419 -171 -419 -436c0 -263 122 -434 419 -434c120 0 214 25 286 61l12 -21c-76 -38 -174 -64 -298 -64zM523 60c130 0 202 51 202 236c0 184 -72 235 -202 235c-133 0 -188 -84 -188 -235
c0 -152 55 -236 188 -236z" />
    <glyph glyph-name="A" unicode="A" horiz-adv-x="687" 
d="M35 0l297 746h23l297 -746h-26l-82 205h-403l-81 -205h-25zM150 228h385l-192 483z" />
    <glyph glyph-name="B" unicode="B" horiz-adv-x="672" 
d="M95 0v741h308c143 0 208 -63 208 -172c0 -85 -34 -152 -119 -177c88 -22 137 -83 137 -186c0 -143 -80 -206 -237 -206h-297zM121 24h271c142 0 211 56 211 182c0 117 -66 174 -214 174h-268v-356zM121 403h282c144 0 182 74 182 166c0 94 -55 148 -182 148h-282v-314z
" />
    <glyph glyph-name="C" unicode="C" horiz-adv-x="698" 
d="M405 -11c-231 0 -355 127 -355 382s127 382 355 382c87 0 178 -28 241 -83l-17 -18c-58 51 -143 77 -224 77c-212 0 -329 -119 -329 -358s114 -358 329 -358c121 0 185 38 228 79l18 -18c-47 -44 -116 -85 -246 -85z" />
    <glyph glyph-name="D" unicode="D" horiz-adv-x="732" 
d="M95 0v741h227c270 0 360 -90 360 -370c0 -275 -107 -371 -378 -371h-209zM121 24h183c252 0 352 90 352 347c0 262 -84 346 -334 346h-201v-693z" />
    <glyph glyph-name="E" unicode="E" horiz-adv-x="609" 
d="M95 0v741h449v-24h-423v-315h413v-24h-413v-354h427v-24h-453z" />
    <glyph glyph-name="F" unicode="F" horiz-adv-x="569" 
d="M95 0v741h439v-24h-413v-315h404v-24h-404v-378h-26z" />
    <glyph glyph-name="G" unicode="G" horiz-adv-x="764" 
d="M405 -11c-242 0 -355 123 -355 382c0 266 128 382 355 382c136 0 210 -48 251 -83l-17 -18c-53 44 -127 77 -234 77c-211 0 -329 -109 -329 -358c0 -243 101 -358 329 -358c234 0 278 106 278 315v30h-277v24h303v-53c0 -194 -32 -340 -304 -340z" />
    <glyph glyph-name="H" unicode="H" horiz-adv-x="753" 
d="M95 0v741h26v-339h511v339h26v-741h-26v378h-511v-378h-26z" />
    <glyph glyph-name="I" unicode="I" horiz-adv-x="226" 
d="M100 0v741h26v-741h-26z" />
    <glyph glyph-name="J" unicode="J" horiz-adv-x="366" 
d="M88 0h-53v24h53c117 0 162 53 162 168v549h26v-549c0 -128 -52 -192 -188 -192z" />
    <glyph glyph-name="K" unicode="K" horiz-adv-x="670" 
d="M595 0l-300 435l-174 -183v-252h-26v741h26v-454l434 454h33l-276 -289l312 -452h-29z" />
    <glyph glyph-name="L" unicode="L" horiz-adv-x="569" 
d="M95 0v741h26v-717h413v-24h-439z" />
    <glyph glyph-name="M" unicode="M" horiz-adv-x="875" 
d="M95 0v741h32l310 -710l311 710h32v-741h-26v699l-306 -699h-23l-306 699v-699h-24z" />
    <glyph glyph-name="N" unicode="N" horiz-adv-x="753" 
d="M95 0v741h31l508 -703v703h24v-741h-24l-515 712v-712h-24z" />
    <glyph glyph-name="O" unicode="O" horiz-adv-x="822" 
d="M410 -11c-238 0 -360 127 -360 382s122 382 360 382c239 0 362 -127 362 -382s-123 -382 -362 -382zM410 13c222 0 336 119 336 358s-114 358 -336 358c-220 0 -334 -119 -334 -358s114 -358 334 -358z" />
    <glyph glyph-name="P" unicode="P" horiz-adv-x="674" 
d="M95 0v741h305c138 0 223 -50 223 -203c0 -154 -85 -212 -219 -212h-283v-326h-26zM121 350h283c120 0 193 51 193 188c0 136 -71 179 -197 179h-279v-367z" />
    <glyph glyph-name="Q" unicode="Q" horiz-adv-x="822" 
d="M533 -171c-119 0 -157 38 -147 162c-233 8 -336 133 -336 380c0 255 110 382 360 382c251 0 362 -127 362 -382c0 -254 -111 -380 -360 -381c-8 -105 14 -137 121 -137h66v-24h-66zM410 13c232 0 336 119 336 358s-104 358 -336 358c-231 0 -334 -119 -334 -358
s103 -358 334 -358z" />
    <glyph glyph-name="R" unicode="R" horiz-adv-x="685" 
d="M577 0l-203 340h-253v-340h-26v741h297c135 0 226 -50 226 -200c0 -153 -92 -200 -216 -201l203 -340h-28zM121 364h275c115 0 196 40 196 177c0 133 -79 176 -200 176h-271v-353z" />
    <glyph glyph-name="S" unicode="S" horiz-adv-x="679" 
d="M331 -9c-90 0 -178 15 -278 77l14 20c95 -59 179 -73 264 -73c158 0 251 54 251 183c0 135 -104 151 -248 180c-136 28 -248 51 -248 194c0 127 87 181 243 181c94 0 172 -21 233 -62l-15 -20c-57 38 -130 58 -218 58c-142 0 -217 -47 -217 -157c0 -118 87 -141 227 -170
c153 -31 269 -50 269 -204c0 -146 -103 -207 -277 -207z" />
    <glyph glyph-name="T" unicode="T" horiz-adv-x="678" 
d="M326 0v717h-291v24h608v-24h-291v-717h-26z" />
    <glyph glyph-name="U" unicode="U" horiz-adv-x="755" 
d="M376 -11c-232 0 -286 118 -286 267v485h26v-485c0 -136 48 -243 260 -243c215 0 263 106 263 243v485h26v-485c0 -150 -56 -267 -289 -267z" />
    <glyph glyph-name="V" unicode="V" horiz-adv-x="687" 
d="M332 -5l-297 746h26l283 -711l283 711h25l-297 -746h-23z" />
    <glyph glyph-name="W" unicode="W" horiz-adv-x="1084" 
d="M292 -5l-247 746h26l230 -697l232 697h19l231 -697l231 697h25l-247 -746h-19l-231 698l-231 -698h-19z" />
    <glyph glyph-name="X" unicode="X" horiz-adv-x="665" 
d="M590 0l-258 366l-257 -366h-27l270 386l-249 355h28l236 -337l237 337h27l-250 -356l271 -385h-28z" />
    <glyph glyph-name="Y" unicode="Y" horiz-adv-x="663" 
d="M319 0v305l-299 436h29l283 -412l283 412h28l-298 -434v-307h-26z" />
    <glyph glyph-name="Z" unicode="Z" horiz-adv-x="648" 
d="M53 0v23l499 694h-482v24h511v-23l-499 -694h510v-24h-539z" />
    <glyph glyph-name="bracketleft" unicode="[" horiz-adv-x="429" 
d="M132 -165v941h188v-24h-162v-893h165v-24h-191z" />
    <glyph glyph-name="backslash" unicode="\" horiz-adv-x="445" 
d="M416 0l-416 741h29l416 -741h-29z" />
    <glyph glyph-name="bracketright" unicode="]" horiz-adv-x="429" 
d="M109 -165v24h162v893h-165v24h191v-941h-188z" />
    <glyph glyph-name="asciicircum" unicode="^" horiz-adv-x="590" 
d="M125 633l151 138h37l151 -138h-33l-137 122l-137 -122h-32z" />
    <glyph glyph-name="underscore" unicode="_" horiz-adv-x="453" 
d="M-37 -96v24h527v-24h-527z" />
    <glyph glyph-name="grave" unicode="`" horiz-adv-x="590" 
d="M325 603l-160 138h35l156 -138h-31z" />
    <glyph glyph-name="a" unicode="a" horiz-adv-x="605" 
d="M238 -11c-143 0 -182 66 -182 157c0 155 96 191 370 191h39c-1 137 -21 194 -171 194c-71 0 -133 -25 -168 -49l-14 20c34 23 106 53 182 53c174 0 197 -65 197 -222v-231c0 -70 5 -78 63 -78v-24h-10c-62 0 -79 16 -79 102v13c-36 -83 -93 -126 -227 -126zM238 13
c164 0 227 76 227 246v54h-39c-264 0 -344 -34 -344 -167c0 -83 37 -133 156 -133z" />
    <glyph glyph-name="b" unicode="b" horiz-adv-x="626" 
d="M337 -11c-131 0 -188 33 -226 122l-4 -112l-22 1v776h26v-345c32 88 95 124 226 124c177 0 231 -103 231 -283s-54 -283 -231 -283zM337 13c158 0 205 94 205 259s-45 259 -205 259c-158 0 -226 -58 -226 -259s68 -259 226 -259z" />
    <glyph glyph-name="c" unicode="c" horiz-adv-x="549" 
d="M305 -11c-188 0 -247 94 -247 283c0 190 61 283 247 283c96 0 148 -37 179 -70l-18 -17c-29 29 -81 63 -161 63c-166 0 -221 -84 -221 -259c0 -173 53 -259 221 -259c69 0 119 24 163 62l17 -17c-48 -42 -101 -69 -180 -69z" />
    <glyph glyph-name="d" unicode="d" horiz-adv-x="626" 
d="M289 -9c-177 0 -231 102 -231 282s54 282 231 282c131 0 195 -34 226 -121v342h26v-775l-21 -1l-4 115c-36 -89 -96 -124 -227 -124zM289 15c158 0 226 57 226 258s-68 258 -226 258s-205 -93 -205 -258s47 -258 205 -258z" />
    <glyph glyph-name="e" unicode="e" horiz-adv-x="576" 
d="M305 -11c-209 0 -247 115 -247 283c0 170 45 283 242 283c205 0 211 -135 211 -276h-427v-7c0 -153 33 -259 221 -259c93 0 134 26 180 59l16 -20c-46 -33 -101 -63 -196 -63zM300 531c-168 0 -211 -91 -216 -228h401c-5 121 -11 228 -185 228z" />
    <glyph glyph-name="f" unicode="f" horiz-adv-x="347" 
d="M34 518v24h103v80c0 83 26 154 133 154h52v-24h-52c-86 0 -107 -60 -107 -130v-80h159v-24h-159v-518h-26v518h-103z" />
    <glyph glyph-name="g" unicode="g" horiz-adv-x="563" 
d="M273 198c-42 0 -76 5 -104 15c-17 -15 -29 -37 -29 -58c0 -40 29 -49 130 -49c177 0 249 -23 249 -132c0 -97 -52 -153 -250 -153c-153 0 -231 29 -231 137c0 62 30 119 121 136c-29 8 -44 30 -44 61c0 26 13 50 30 68c-51 27 -75 77 -75 153c0 122 63 179 203 179
c26 0 49 -2 69 -6l154 6v-24h-100c56 -30 81 -78 81 -155c0 -122 -64 -178 -204 -178zM273 222c124 0 178 48 178 154s-68 155 -178 155c-124 0 -177 -49 -177 -155s53 -154 177 -154zM269 -155c182 0 224 45 224 129c0 90 -60 108 -224 108c-180 0 -205 -62 -205 -124
c0 -91 73 -113 205 -113z" />
    <glyph glyph-name="h" unicode="h" horiz-adv-x="592" 
d="M85 0v776h26v-330c20 60 72 109 203 109c183 0 197 -89 197 -222v-333h-26v333c0 118 -10 198 -171 198c-170 0 -203 -93 -203 -217v-314h-26z" />
    <glyph glyph-name="i" unicode="i" horiz-adv-x="204" 
d="M89 0v542h26v-542h-26zM89 629v85h26v-85h-26z" />
    <glyph glyph-name="j" unicode="j" horiz-adv-x="204" 
d="M1 -165v24h3c72 1 85 24 85 94v589h26v-589c0 -84 -17 -118 -110 -118h-4zM89 629v85h26v-85h-26z" />
    <glyph glyph-name="k" unicode="k" horiz-adv-x="503" 
d="M85 0v776h26v-579l312 345h30l-208 -230l231 -312h-29l-218 294l-118 -131v-163h-26z" />
    <glyph glyph-name="l" unicode="l" horiz-adv-x="262" 
d="M179 0c-82 0 -90 39 -90 106v670h26v-670c0 -60 6 -82 68 -82h27v-24h-31z" />
    <glyph glyph-name="m" unicode="m" horiz-adv-x="972" 
d="M85 0v541l21 1l4 -96c19 58 68 109 199 109c132 0 172 -47 184 -117c22 66 75 117 206 117c183 0 192 -89 192 -222v-333h-26v333c0 118 -5 198 -166 198c-170 0 -198 -93 -198 -217v-314h-26v333c0 118 -5 198 -166 198c-170 0 -198 -93 -198 -217v-314h-26z" />
    <glyph glyph-name="n" unicode="n" horiz-adv-x="592" 
d="M85 0v541l21 1l4 -96c21 58 72 109 204 109c183 0 197 -89 197 -222v-333h-26v333c0 118 -10 198 -171 198c-170 0 -203 -93 -203 -217v-314h-26z" />
    <glyph glyph-name="o" unicode="o" horiz-adv-x="612" 
d="M305 -11c-177 0 -247 90 -247 283s70 283 247 283s249 -90 249 -283s-72 -283 -249 -283zM305 13c158 0 223 79 223 259s-65 259 -223 259s-221 -79 -221 -259s63 -259 221 -259z" />
    <glyph glyph-name="p" unicode="p" horiz-adv-x="626" 
d="M85 -165v706l21 1l4 -112c30 87 96 125 227 125c177 0 231 -102 231 -282s-54 -282 -231 -282c-131 0 -195 34 -226 122v-278h-26zM337 15c158 0 205 93 205 258s-47 258 -205 258s-226 -57 -226 -258s68 -258 226 -258z" />
    <glyph glyph-name="q" unicode="q" horiz-adv-x="626" 
d="M515 -165v276c-39 -87 -95 -120 -226 -120c-177 0 -231 102 -231 282s54 282 231 282c131 0 190 -32 226 -120l4 120l22 -1v-719h-26zM289 15c158 0 226 57 226 258s-68 258 -226 258s-205 -93 -205 -258s47 -258 205 -258z" />
    <glyph glyph-name="r" unicode="r" horiz-adv-x="331" 
d="M85 0v541l21 1l4 -115c24 65 87 122 196 122v-24c-136 0 -195 -93 -195 -215v-310h-26z" />
    <glyph glyph-name="s" unicode="s" horiz-adv-x="491" 
d="M247 -11c-57 0 -130 8 -204 56l14 20c69 -44 137 -52 190 -52c114 0 173 27 173 131c0 83 -49 100 -173 129c-120 28 -184 51 -184 150c0 80 48 132 183 132c78 0 135 -18 180 -45l-13 -21c-42 25 -95 42 -167 42c-119 0 -157 -43 -157 -108c0 -81 51 -101 164 -127
c128 -30 193 -51 193 -152c0 -123 -71 -155 -199 -155z" />
    <glyph glyph-name="t" unicode="t" horiz-adv-x="377" 
d="M34 518v24h103l4 186l22 1v-187h163v-24h-163v-399c0 -57 8 -95 91 -95h72v-24h-72c-107 0 -117 48 -117 119v399h-103z" />
    <glyph glyph-name="u" unicode="u" horiz-adv-x="588" 
d="M294 -11c-212 0 -213 98 -213 212v341h26v-341c0 -101 -3 -188 187 -188c191 0 187 87 187 193v336h26v-336c0 -119 -3 -217 -213 -217z" />
    <glyph glyph-name="v" unicode="v" horiz-adv-x="501" 
d="M237 -4l-217 546h26l205 -516l205 516h25l-217 -546h-27z" />
    <glyph glyph-name="w" unicode="w" horiz-adv-x="849" 
d="M227 -4l-207 546h26l192 -507l174 507h26l173 -507l193 507h25l-207 -546h-23l-175 509l-174 -509h-23z" />
    <glyph glyph-name="x" unicode="x" horiz-adv-x="505" 
d="M448 0l-196 264l-196 -264h-27l209 282l-192 260h28l179 -242l179 242h27l-193 -260l210 -282h-28z" />
    <glyph glyph-name="y" unicode="y" horiz-adv-x="497" 
d="M123 -165h-43v24h43c43 0 67 21 86 70l27 69l-216 544h26l203 -512l203 512h25l-244 -616c-25 -62 -55 -91 -110 -91z" />
    <glyph glyph-name="z" unicode="z" horiz-adv-x="478" 
d="M41 0v24l359 494h-341v24h369v-24l-359 -494h371v-24h-399z" />
    <glyph glyph-name="braceleft" unicode="{" horiz-adv-x="466" 
d="M312 -165c-117 0 -152 40 -152 123c0 63 58 218 58 277c0 47 -38 58 -127 58v24c81 0 127 7 127 59c0 59 -58 214 -58 277c0 83 35 123 152 123h48v-24h-48c-103 0 -126 -32 -126 -99c0 -61 58 -216 58 -277c0 -39 -19 -61 -50 -71c34 -10 50 -32 50 -70
c0 -61 -58 -216 -58 -277c0 -67 23 -99 126 -99h48v-24h-48z" />
    <glyph glyph-name="bar" unicode="|" horiz-adv-x="290" 
d="M132 -165v941h26v-941h-26z" />
    <glyph glyph-name="braceright" unicode="}" horiz-adv-x="466" 
d="M106 -165v24h48c104 0 126 32 126 99c0 61 -58 216 -58 277c0 39 19 61 50 71c-34 10 -50 32 -50 70c0 61 58 216 58 277c0 67 -22 99 -126 99h-48v24h48c117 0 152 -40 152 -123c0 -63 -58 -218 -58 -277c0 -47 38 -58 127 -58v-24c-81 0 -127 -7 -127 -59
c0 -59 58 -214 58 -277c0 -83 -35 -123 -152 -123h-48z" />
    <glyph glyph-name="asciitilde" unicode="~" horiz-adv-x="590" 
d="M154 459l-21 14c19 26 57 54 94 54c65 0 86 -45 139 -45c27 0 55 29 74 51l19 -15c-22 -26 -54 -60 -93 -60c-57 0 -90 45 -139 45c-27 0 -58 -23 -73 -44z" />
    <glyph glyph-name="Adieresis" unicode="&#xc4;" horiz-adv-x="687" 
d="M35 0l297 746h23l297 -746h-26l-82 205h-403l-81 -205h-25zM150 228h385l-192 483zM230 788v79h26v-79h-26zM430 788v79h26v-79h-26z" />
    <glyph glyph-name="Aring" unicode="&#xc5;" horiz-adv-x="687" 
d="M35 0l284 716c-56 9 -82 51 -82 105c0 61 33 108 106 108c70 0 105 -47 105 -108c0 -54 -27 -96 -81 -105l285 -716h-26l-82 205h-403l-81 -205h-25zM150 228h385l-192 483zM343 737c55 0 81 36 81 84s-26 85 -81 85c-57 0 -82 -37 -82 -85s25 -84 82 -84z" />
    <glyph glyph-name="Ccedilla" unicode="&#xc7;" horiz-adv-x="698" 
d="M361 -208c-46 0 -78 10 -105 25l13 21c24 -13 55 -22 92 -22c79 0 88 34 88 61c0 37 -11 56 -97 53l-17 14l8 49c-191 21 -293 146 -293 378c0 255 127 382 355 382c87 0 178 -28 241 -83l-17 -18c-58 51 -143 77 -224 77c-212 0 -329 -119 -329 -358s114 -358 329 -358
c121 0 185 38 228 79l18 -18c-47 -44 -116 -85 -246 -85c-13 0 -25 1 -36 1l-6 -37c59 5 112 -5 112 -76c0 -37 -12 -85 -114 -85z" />
    <glyph glyph-name="Eacute" unicode="&#xc9;" horiz-adv-x="609" 
d="M95 0v741h449v-24h-423v-315h413v-24h-413v-354h427v-24h-453zM243 788l156 138h35l-160 -138h-31z" />
    <glyph glyph-name="Ntilde" unicode="&#xd1;" horiz-adv-x="753" 
d="M95 0v741h31l508 -703v703h24v-741h-24l-515 712v-712h-24zM235 794l-21 14c19 26 57 54 94 54c65 0 86 -45 139 -45c27 0 55 29 74 51l19 -15c-22 -26 -54 -60 -93 -60c-57 0 -90 45 -139 45c-27 0 -58 -23 -73 -44z" />
    <glyph glyph-name="Odieresis" unicode="&#xd6;" horiz-adv-x="822" 
d="M410 -11c-238 0 -360 127 -360 382s122 382 360 382c239 0 362 -127 362 -382s-123 -382 -362 -382zM410 13c222 0 336 119 336 358s-114 358 -336 358c-220 0 -334 -119 -334 -358s114 -358 334 -358zM298 788v79h26v-79h-26zM498 788v79h26v-79h-26z" />
    <glyph glyph-name="Udieresis" unicode="&#xdc;" horiz-adv-x="755" 
d="M376 -11c-232 0 -286 118 -286 267v485h26v-485c0 -136 48 -243 260 -243c215 0 263 106 263 243v485h26v-485c0 -150 -56 -267 -289 -267zM264 788v79h26v-79h-26zM464 788v79h26v-79h-26z" />
    <glyph glyph-name="aacute" unicode="&#xe1;" horiz-adv-x="605" 
d="M238 -11c-143 0 -182 66 -182 157c0 155 96 191 370 191h39c-1 137 -21 194 -171 194c-71 0 -133 -25 -168 -49l-14 20c34 23 106 53 182 53c174 0 197 -65 197 -222v-231c0 -70 5 -78 63 -78v-24h-10c-62 0 -79 16 -79 102v13c-36 -83 -93 -126 -227 -126zM238 13
c164 0 227 76 227 246v54h-39c-264 0 -344 -34 -344 -167c0 -83 37 -133 156 -133zM244 603l156 138h35l-160 -138h-31z" />
    <glyph glyph-name="agrave" unicode="&#xe0;" horiz-adv-x="605" 
d="M238 -11c-143 0 -182 66 -182 157c0 155 96 191 370 191h39c-1 137 -21 194 -171 194c-71 0 -133 -25 -168 -49l-14 20c34 23 106 53 182 53c174 0 197 -65 197 -222v-231c0 -70 5 -78 63 -78v-24h-10c-62 0 -79 16 -79 102v13c-36 -83 -93 -126 -227 -126zM238 13
c164 0 227 76 227 246v54h-39c-264 0 -344 -34 -344 -167c0 -83 37 -133 156 -133zM335 603l-160 138h35l156 -138h-31z" />
    <glyph glyph-name="acircumflex" unicode="&#xe2;" horiz-adv-x="605" 
d="M238 -11c-143 0 -182 66 -182 157c0 155 96 191 370 191h39c-1 137 -21 194 -171 194c-71 0 -133 -25 -168 -49l-14 20c34 23 106 53 182 53c174 0 197 -65 197 -222v-231c0 -70 5 -78 63 -78v-24h-10c-62 0 -79 16 -79 102v13c-36 -83 -93 -126 -227 -126zM238 13
c164 0 227 76 227 246v54h-39c-264 0 -344 -34 -344 -167c0 -83 37 -133 156 -133zM135 603l151 138h37l151 -138h-33l-137 122l-137 -122h-32z" />
    <glyph glyph-name="adieresis" unicode="&#xe4;" horiz-adv-x="605" 
d="M238 -11c-143 0 -182 66 -182 157c0 155 96 191 370 191h39c-1 137 -21 194 -171 194c-71 0 -133 -25 -168 -49l-14 20c34 23 106 53 182 53c174 0 197 -65 197 -222v-231c0 -70 5 -78 63 -78v-24h-10c-62 0 -79 16 -79 102v13c-36 -83 -93 -126 -227 -126zM238 13
c164 0 227 76 227 246v54h-39c-264 0 -344 -34 -344 -167c0 -83 37 -133 156 -133zM192 603v79h26v-79h-26zM392 603v79h26v-79h-26z" />
    <glyph glyph-name="atilde" unicode="&#xe3;" horiz-adv-x="605" 
d="M238 -11c-143 0 -182 66 -182 157c0 155 96 191 370 191h39c-1 137 -21 194 -171 194c-71 0 -133 -25 -168 -49l-14 20c34 23 106 53 182 53c174 0 197 -65 197 -222v-231c0 -70 5 -78 63 -78v-24h-10c-62 0 -79 16 -79 102v13c-36 -83 -93 -126 -227 -126zM238 13
c164 0 227 76 227 246v54h-39c-264 0 -344 -34 -344 -167c0 -83 37 -133 156 -133zM164 609l-21 14c19 26 57 54 94 54c65 0 86 -45 139 -45c27 0 55 29 74 51l19 -15c-22 -26 -54 -60 -93 -60c-57 0 -90 45 -139 45c-27 0 -58 -23 -73 -44z" />
    <glyph glyph-name="aring" unicode="&#xe5;" horiz-adv-x="605" 
d="M238 -11c-143 0 -182 66 -182 157c0 155 96 191 370 191h39c-1 137 -21 194 -171 194c-71 0 -133 -25 -168 -49l-14 20c34 23 106 53 182 53c174 0 197 -65 197 -222v-231c0 -70 5 -78 63 -78v-24h-10c-62 0 -79 16 -79 102v13c-36 -83 -93 -126 -227 -126zM238 13
c164 0 227 76 227 246v54h-39c-264 0 -344 -34 -344 -167c0 -83 37 -133 156 -133zM305 596c-73 0 -106 46 -106 107s33 108 106 108c70 0 105 -47 105 -108s-35 -107 -105 -107zM305 619c55 0 81 36 81 84s-26 85 -81 85c-57 0 -82 -37 -82 -85s25 -84 82 -84z" />
    <glyph glyph-name="ccedilla" unicode="&#xe7;" horiz-adv-x="549" 
d="M286 -208c-46 0 -78 10 -105 25l13 21c24 -13 55 -22 92 -22c79 0 88 34 88 61c0 37 -11 56 -97 53l-17 14l8 47c-159 12 -210 105 -210 281c0 191 61 283 247 283c97 0 149 -37 179 -70l-18 -17c-29 29 -81 63 -161 63c-166 0 -221 -84 -221 -259
c0 -173 53 -259 221 -259c69 0 119 24 163 62l17 -17c-48 -42 -101 -69 -180 -69h-11l-6 -36c59 5 112 -5 112 -76c0 -37 -12 -85 -114 -85z" />
    <glyph glyph-name="eacute" unicode="&#xe9;" horiz-adv-x="576" 
d="M305 -11c-209 0 -247 115 -247 283c0 170 45 283 242 283c205 0 211 -135 211 -276h-427v-7c0 -153 33 -259 221 -259c93 0 134 26 180 59l16 -20c-46 -33 -101 -63 -196 -63zM300 531c-168 0 -211 -91 -216 -228h401c-5 121 -11 228 -185 228zM227 603l156 138h35
l-160 -138h-31z" />
    <glyph glyph-name="egrave" unicode="&#xe8;" horiz-adv-x="576" 
d="M305 -11c-209 0 -247 115 -247 283c0 170 45 283 242 283c205 0 211 -135 211 -276h-427v-7c0 -153 33 -259 221 -259c93 0 134 26 180 59l16 -20c-46 -33 -101 -63 -196 -63zM300 531c-168 0 -211 -91 -216 -228h401c-5 121 -11 228 -185 228zM318 603l-160 138h35
l156 -138h-31z" />
    <glyph glyph-name="ecircumflex" unicode="&#xea;" horiz-adv-x="576" 
d="M305 -11c-209 0 -247 115 -247 283c0 170 45 283 242 283c205 0 211 -135 211 -276h-427v-7c0 -153 33 -259 221 -259c93 0 134 26 180 59l16 -20c-46 -33 -101 -63 -196 -63zM300 531c-168 0 -211 -91 -216 -228h401c-5 121 -11 228 -185 228zM118 603l151 138h37
l151 -138h-33l-137 122l-137 -122h-32z" />
    <glyph glyph-name="edieresis" unicode="&#xeb;" horiz-adv-x="576" 
d="M305 -11c-209 0 -247 115 -247 283c0 170 45 283 242 283c205 0 211 -135 211 -276h-427v-7c0 -153 33 -259 221 -259c93 0 134 26 180 59l16 -20c-46 -33 -101 -63 -196 -63zM300 531c-168 0 -211 -91 -216 -228h401c-5 121 -11 228 -185 228zM175 603v79h26v-79h-26z
M375 603v79h26v-79h-26z" />
    <glyph glyph-name="iacute" unicode="&#xed;" horiz-adv-x="204" 
d="M91 603l126 138h32l-130 -138h-28zM89 0v542h26v-542h-26z" />
    <glyph glyph-name="igrave" unicode="&#xec;" horiz-adv-x="204" 
d="M87 603l-130 138h32l126 -138h-28zM89 0v542h26v-542h-26z" />
    <glyph glyph-name="icircumflex" unicode="&#xee;" horiz-adv-x="204" 
d="M-26 603l111 138h33l111 -138h-31l-97 122l-97 -122h-30zM89 0v542h26v-542h-26z" />
    <glyph glyph-name="idieresis" unicode="&#xef;" horiz-adv-x="204" 
d="M-1 623v79h26v-79h-26zM179 623v79h26v-79h-26zM89 0v542h26v-542h-26z" />
    <glyph glyph-name="ntilde" unicode="&#xf1;" horiz-adv-x="592" 
d="M85 0v541l21 1l4 -96c21 58 72 109 204 109c183 0 197 -89 197 -222v-333h-26v333c0 118 -10 198 -171 198c-170 0 -203 -93 -203 -217v-314h-26zM155 609l-21 14c19 26 57 54 94 54c65 0 86 -45 139 -45c27 0 55 29 74 51l19 -15c-22 -26 -54 -60 -93 -60
c-57 0 -90 45 -139 45c-27 0 -58 -23 -73 -44z" />
    <glyph glyph-name="oacute" unicode="&#xf3;" horiz-adv-x="612" 
d="M305 -11c-177 0 -247 90 -247 283s70 283 247 283s249 -90 249 -283s-72 -283 -249 -283zM305 13c158 0 223 79 223 259s-65 259 -223 259s-221 -79 -221 -259s63 -259 221 -259zM245 603l156 138h35l-160 -138h-31z" />
    <glyph glyph-name="ograve" unicode="&#xf2;" horiz-adv-x="612" 
d="M305 -11c-177 0 -247 90 -247 283s70 283 247 283s249 -90 249 -283s-72 -283 -249 -283zM305 13c158 0 223 79 223 259s-65 259 -223 259s-221 -79 -221 -259s63 -259 221 -259zM336 603l-160 138h35l156 -138h-31z" />
    <glyph glyph-name="ocircumflex" unicode="&#xf4;" horiz-adv-x="612" 
d="M305 -11c-177 0 -247 90 -247 283s70 283 247 283s249 -90 249 -283s-72 -283 -249 -283zM305 13c158 0 223 79 223 259s-65 259 -223 259s-221 -79 -221 -259s63 -259 221 -259zM136 603l151 138h37l151 -138h-33l-137 122l-137 -122h-32z" />
    <glyph glyph-name="odieresis" unicode="&#xf6;" horiz-adv-x="612" 
d="M305 -11c-177 0 -247 90 -247 283s70 283 247 283s249 -90 249 -283s-72 -283 -249 -283zM305 13c158 0 223 79 223 259s-65 259 -223 259s-221 -79 -221 -259s63 -259 221 -259zM193 603v79h26v-79h-26zM393 603v79h26v-79h-26z" />
    <glyph glyph-name="otilde" unicode="&#xf5;" horiz-adv-x="612" 
d="M305 -11c-177 0 -247 90 -247 283s70 283 247 283s249 -90 249 -283s-72 -283 -249 -283zM305 13c158 0 223 79 223 259s-65 259 -223 259s-221 -79 -221 -259s63 -259 221 -259zM165 609l-21 14c19 26 57 54 94 54c65 0 86 -45 139 -45c27 0 55 29 74 51l19 -15
c-22 -26 -54 -60 -93 -60c-57 0 -90 45 -139 45c-27 0 -58 -23 -73 -44z" />
    <glyph glyph-name="uacute" unicode="&#xfa;" horiz-adv-x="588" 
d="M294 -11c-212 0 -213 98 -213 212v341h26v-341c0 -101 -3 -188 187 -188c191 0 187 87 187 193v336h26v-336c0 -119 -3 -217 -213 -217zM233 603l156 138h35l-160 -138h-31z" />
    <glyph glyph-name="ugrave" unicode="&#xf9;" horiz-adv-x="588" 
d="M294 -11c-212 0 -213 98 -213 212v341h26v-341c0 -101 -3 -188 187 -188c191 0 187 87 187 193v336h26v-336c0 -119 -3 -217 -213 -217zM324 603l-160 138h35l156 -138h-31z" />
    <glyph glyph-name="ucircumflex" unicode="&#xfb;" horiz-adv-x="588" 
d="M294 -11c-212 0 -213 98 -213 212v341h26v-341c0 -101 -3 -188 187 -188c191 0 187 87 187 193v336h26v-336c0 -119 -3 -217 -213 -217zM124 603l151 138h37l151 -138h-33l-137 122l-137 -122h-32z" />
    <glyph glyph-name="udieresis" unicode="&#xfc;" horiz-adv-x="588" 
d="M294 -11c-212 0 -213 98 -213 212v341h26v-341c0 -101 -3 -188 187 -188c191 0 187 87 187 193v336h26v-336c0 -119 -3 -217 -213 -217zM181 603v79h26v-79h-26zM381 603v79h26v-79h-26z" />
    <glyph glyph-name="dagger" unicode="&#x2020;" horiz-adv-x="506" 
d="M240 -165v683h-175v24h175v234h26v-234h175v-24h-175v-683h-26z" />
    <glyph glyph-name="degree" unicode="&#xb0;" horiz-adv-x="569" 
d="M284 288c-145 0 -203 90 -203 232s58 233 203 233c146 0 204 -91 204 -233s-58 -232 -204 -232zM284 312c127 0 178 81 178 208s-51 209 -178 209s-177 -82 -177 -209s50 -208 177 -208z" />
    <glyph glyph-name="cent" unicode="&#xa2;" horiz-adv-x="539" 
d="M292 -94v84c-178 5 -234 106 -234 282c0 177 58 277 234 282v60h26v-60c85 -3 134 -38 166 -69l-18 -17c-28 27 -79 59 -149 62v-517c63 2 109 26 151 62l17 -17c-46 -40 -97 -65 -167 -68v-84h-26zM84 272c0 -161 50 -255 209 -259v518c-157 -5 -209 -96 -209 -259z" />
    <glyph glyph-name="sterling" unicode="&#xa3;" horiz-adv-x="574" 
d="M404 -9c-83 0 -162 26 -214 53c-21 -29 -62 -44 -138 -44v24c122 0 136 39 136 134c0 60 -19 139 -38 217h-108v24h103c-15 64 -28 125 -28 174c0 109 51 180 189 180c70 0 123 -11 175 -35l-11 -22c-49 23 -98 33 -164 33c-122 0 -163 -62 -163 -156
c0 -49 13 -111 28 -174h256v-24h-251c19 -77 38 -156 38 -217c0 -37 -2 -68 -12 -92c49 -26 126 -51 202 -51c82 0 94 34 94 110v20h26v-20c0 -91 -18 -134 -120 -134z" />
    <glyph glyph-name="section" unicode="&#xa7;" horiz-adv-x="507" 
d="M141 -11h-52v24h52c99 0 107 60 107 130v102c-127 0 -198 36 -198 131c0 88 63 125 177 129v93c0 83 10 154 133 154h52v-24h-52c-99 0 -107 -60 -107 -130v-92c129 0 204 -35 204 -130c0 -91 -67 -127 -183 -131v-102c0 -83 -10 -154 -133 -154zM252 269
c114 0 179 29 179 107c0 77 -65 106 -179 106c-113 0 -176 -29 -176 -106c0 -78 63 -107 176 -107z" />
    <glyph glyph-name="bullet" unicode="&#x2022;" horiz-adv-x="314" 
d="M107 249v110h100v-110h-100z" />
    <glyph glyph-name="paragraph" unicode="&#xb6;" horiz-adv-x="583" 
d="M277 0v326c-147 0 -217 58 -217 212c0 153 70 203 223 203h195v-741h-26v326h-149v-326h-26zM279 350h173v367h-169c-139 0 -197 -43 -197 -179c0 -137 60 -188 193 -188z" />
    <glyph glyph-name="germandbls" unicode="&#xdf;" horiz-adv-x="619" 
d="M85 0v559c0 127 67 217 226 217c148 0 213 -58 213 -185c0 -97 -52 -157 -121 -179c122 -21 177 -88 177 -202c0 -118 -42 -210 -262 -210h-68v24h68c206 0 236 85 236 186c0 120 -60 186 -235 186v24c105 0 179 55 179 171c0 111 -57 161 -187 161
c-140 0 -200 -80 -200 -193v-559h-26z" />
    <glyph glyph-name="registered" unicode="&#xae;" horiz-adv-x="846" 
d="M421 -11c-249 0 -370 150 -370 381c0 233 121 383 370 383s372 -150 372 -383c0 -231 -123 -381 -372 -381zM421 11c233 0 348 141 348 359c0 220 -115 361 -348 361s-346 -141 -346 -361c0 -218 113 -359 346 -359zM588 109l-142 238h-171v-238h-25v518h208
c104 0 158 -35 158 -140c0 -104 -53 -138 -144 -140l143 -238h-27zM275 370h185c83 0 131 28 131 117c0 87 -46 117 -133 117h-183v-234z" />
    <glyph glyph-name="copyright" unicode="&#xa9;" horiz-adv-x="846" 
d="M427 107c-154 0 -248 89 -248 267c0 177 96 266 248 266c58 0 124 -20 168 -58l-17 -18c-39 34 -99 52 -151 52c-136 0 -222 -81 -222 -242c0 -162 84 -243 222 -243c78 0 125 26 154 53l17 -18c-33 -30 -85 -59 -171 -59zM421 -11c-249 0 -370 150 -370 381
c0 233 121 383 370 383s372 -150 372 -383c0 -231 -123 -381 -372 -381zM421 11c233 0 348 141 348 359c0 220 -115 361 -348 361s-346 -141 -346 -361c0 -218 113 -359 346 -359z" />
    <glyph glyph-name="trademark" unicode="&#x2122;" horiz-adv-x="1067" 
d="M478 292v449h28l179 -417l179 417h28v-449h-24v403l-172 -403h-22l-173 403v-403h-23zM237 292v426h-162v23h349v-23h-163v-426h-24z" />
    <glyph glyph-name="acute" unicode="&#xb4;" horiz-adv-x="590" 
d="M234 603l156 138h35l-160 -138h-31z" />
    <glyph glyph-name="dieresis" unicode="&#xa8;" horiz-adv-x="590" 
d="M182 603v79h26v-79h-26zM382 603v79h26v-79h-26z" />
    <glyph glyph-name="notequal" unicode="&#x2260;" horiz-adv-x="679" 
d="M219 122l55 120h-154v24h165l80 173h-245v24h256l56 120h27l-56 -120h156v-24h-167l-80 -173h247v-24h-258l-55 -120h-27z" />
    <glyph glyph-name="AE" unicode="&#xc6;" horiz-adv-x="1023" 
d="M30 0l467 741h461v-24h-423v-315h413v-24h-413v-354h427v-24h-453v195h-327l-123 -195h-29zM197 219h312v495z" />
    <glyph glyph-name="Oslash" unicode="&#xd8;" horiz-adv-x="822" 
d="M410 -11c-74 0 -135 11 -185 33l-33 -63h-29l40 74c-105 57 -153 169 -153 338c0 255 110 382 360 382c66 0 122 -9 169 -27l31 57h29l-36 -67c116 -54 169 -169 169 -345c0 -255 -111 -382 -362 -382zM410 13c232 0 336 119 336 358c0 164 -50 272 -156 323l-353 -650
c47 -21 104 -31 173 -31zM76 371c0 -157 44 -263 141 -316l351 649c-44 16 -97 25 -158 25c-231 0 -334 -119 -334 -358z" />
    <glyph glyph-name="infinity" unicode="&#x221e;" horiz-adv-x="835" 
d="M233 200c-102 0 -159 55 -159 144c0 90 59 145 159 145c76 0 132 -62 185 -126c53 64 109 126 185 126c86 0 158 -40 158 -145c0 -104 -73 -144 -158 -144c-77 0 -133 61 -186 125c-53 -64 -109 -125 -184 -125zM233 224c67 0 118 58 169 120c-51 62 -102 121 -169 121
c-84 0 -133 -45 -133 -121c0 -75 48 -120 133 -120zM603 465c-67 0 -118 -58 -170 -120c52 -62 102 -121 170 -121c71 0 132 33 132 120c0 88 -60 121 -132 121z" />
    <glyph glyph-name="plusminus" unicode="&#xb1;" horiz-adv-x="679" 
d="M326 128v213h-212v24h212v213h26v-213h212v-24h-212v-213h-26zM114 24v24h450v-24h-450z" />
    <glyph glyph-name="lessequal" unicode="&#x2264;" horiz-adv-x="679" 
d="M539 120l-439 217v26l439 217v-25l-416 -205l416 -205v-25zM100 24v24h439v-24h-439z" />
    <glyph glyph-name="greaterequal" unicode="&#x2265;" horiz-adv-x="679" 
d="M140 120v25l416 205l-416 205v25l439 -217v-26zM140 24v24h438v-24h-438z" />
    <glyph glyph-name="yen" unicode="&#xa5;" horiz-adv-x="590" 
d="M60 244v24h222v46l-262 427h28l247 -402l248 402h27l-262 -427v-46h223v-24h-223v-116h223v-24h-223v-104h-26v104h-222v24h222v116h-222z" />
    <glyph glyph-name="mu" unicode="&#xb5;" horiz-adv-x="592" 
d="M85 -165v707h26v-341c0 -101 -2 -188 189 -188s185 87 185 193v336h26v-336c0 -119 1 -217 -211 -217c-109 0 -166 28 -189 71v-225h-26z" />
    <glyph glyph-name="mu" unicode="&#x3bc;" horiz-adv-x="592" 
d="M85 -165v707h26v-341c0 -101 -2 -188 189 -188s185 87 185 193v336h26v-336c0 -119 1 -217 -211 -217c-109 0 -166 28 -189 71v-225h-26z" />
    <glyph glyph-name="partialdiff" unicode="&#x2202;" horiz-adv-x="832" 
d="M126 120c-56 67 -90 155 -90 251c0 95 34 183 90 250c0 0 3 -2 7 -6c-54 -66 -87 -151 -87 -244s33 -178 88 -244c-5 -4 -8 -7 -8 -7zM228 211c-35 43 -57 99 -57 160s21 116 56 160c3 -2 5 -5 8 -7c-33 -41 -54 -95 -54 -153s20 -112 54 -153c-2 -3 -5 -5 -7 -7z
M264 243c-28 35 -45 79 -45 128c0 48 17 93 45 128c3 -2 5 -5 8 -7c-27 -33 -43 -75 -43 -121s16 -88 43 -121c-3 -2 -5 -5 -8 -7zM316 289c-18 23 -28 51 -28 82s10 59 28 81c2 -2 5 -4 7 -7c-15 -20 -25 -46 -25 -74s10 -54 26 -75c-3 -2 -5 -5 -8 -7zM349 320
c-10 14 -16 32 -16 51s6 37 16 51c3 -2 5 -5 8 -7c-9 -13 -14 -28 -14 -44s5 -31 14 -44c-3 -2 -5 -4 -8 -7zM378 346c-4 7 -7 16 -7 25s3 18 7 25c4 -3 6 -5 6 -5c-3 -6 -5 -13 -5 -20s2 -14 5 -20c0 0 -2 -2 -6 -5zM416 60c-78 0 -148 29 -201 77c0 0 7 8 7 7
c52 -46 120 -74 194 -74s142 28 193 74c2 -3 5 -5 7 -8c-53 -47 -123 -76 -200 -76zM416 324c-10 0 -19 3 -27 9c2 1 6 6 6 6c6 -4 13 -7 21 -7s15 2 21 7c0 0 2 -2 5 -6c-7 -6 -16 -9 -26 -9zM482 319c-2 3 -4 5 -7 7c9 13 14 29 14 45c0 17 -5 32 -14 44c0 0 8 7 7 7
c11 -14 17 -32 17 -51s-6 -37 -17 -52zM292 269c-22 28 -35 64 -35 102c0 39 13 74 36 102l7 -7c-20 -26 -33 -59 -33 -95s13 -69 33 -95c-2 -2 -5 -5 -8 -7zM416 -17c-96 0 -185 37 -252 97l7 8c65 -59 151 -95 245 -95s179 36 244 94c0 1 7 -7 7 -7
c-67 -61 -155 -97 -251 -97zM416 121c-62 0 -118 23 -161 61l7 8c41 -37 95 -59 154 -59s113 22 153 59c2 -3 5 -5 7 -8c-42 -38 -98 -61 -160 -61zM416 170c-49 0 -94 19 -129 49l7 7c33 -29 75 -46 122 -46c46 0 89 17 121 46c2 -3 5 -5 7 -8c-34 -30 -79 -48 -128 -48z
M416 209c-39 0 -75 15 -103 38l7 8c26 -22 60 -36 96 -36s70 14 96 36c2 -2 4 -5 6 -8c-27 -23 -63 -38 -102 -38zM416 265c-25 0 -48 9 -66 24l7 8c16 -14 37 -22 59 -22s42 8 58 22c2 -3 5 -5 7 -8c-18 -15 -40 -24 -65 -24zM358 445c-4 3 -7 7 -8 8c18 15 41 24 66 24
s48 -9 66 -24l-8 -8c-16 14 -36 22 -58 22s-42 -8 -58 -22zM570 552c-41 37 -95 59 -154 59s-112 -22 -153 -58l-7 7c43 38 99 61 160 61c62 0 118 -23 161 -61c-2 -3 -5 -6 -7 -8zM454 346c-4 3 -6 5 -6 5c3 6 5 13 5 20s-2 14 -5 20l6 5c4 -7 7 -16 7 -25s-3 -18 -7 -25z
M468 333c-3 3 -5 5 -8 7c6 9 10 20 10 31s-4 22 -10 31l8 7c8 -11 12 -24 12 -38s-4 -27 -12 -38zM498 306c-3 2 -6 5 -8 7c12 16 19 36 19 58s-7 42 -19 58l7 7c14 -18 22 -41 22 -65s-8 -46 -21 -65zM540 269c-3 2 -5 5 -8 7c20 26 33 59 33 95s-13 69 -34 95l8 7
c23 -28 36 -63 36 -102s-13 -74 -35 -102zM568 243c-2 2 -5 5 -8 7c27 33 43 75 43 121s-16 88 -43 121l8 7c28 -35 45 -79 45 -128s-17 -93 -45 -128zM604 211c0 0 -3 2 -8 7c35 42 55 95 55 153s-20 112 -55 153l8 7c36 -43 57 -99 57 -160s-21 -117 -57 -160zM649 171
c-2 2 -5 4 -7 6c43 53 69 120 69 194s-26 141 -70 193l8 7c45 -54 72 -124 72 -200s-27 -146 -72 -200zM706 120c0 0 -3 3 -8 7c55 66 88 151 88 244s-33 178 -88 244l8 7c56 -67 90 -155 90 -251c0 -95 -34 -183 -90 -251zM183 170c-45 55 -72 124 -72 201
c0 76 27 146 71 200c2 -2 5 -4 8 -7c-43 -52 -69 -120 -69 -193c0 -74 26 -142 69 -194zM334 306c-13 18 -21 40 -21 65c0 24 8 47 21 65c3 -2 6 -5 8 -7c-12 -16 -19 -36 -19 -58c0 -21 7 -41 19 -57zM364 333c-8 11 -12 24 -12 38s4 27 12 38c2 -3 5 -5 7 -7
c-5 -9 -9 -20 -9 -31s4 -22 9 -31zM395 403l-5 6c7 6 16 9 26 9s19 -3 26 -9c-3 -3 -5 -6 -5 -6c-6 4 -13 7 -21 7s-15 -2 -21 -7zM384 416l-7 7c11 9 24 14 39 14c14 0 27 -5 38 -14c-2 -2 -4 -4 -6 -7c-9 8 -20 12 -32 12s-23 -5 -32 -12zM371 430l-7 8c14 12 33 19 52 19
c20 0 38 -7 52 -19c-4 -4 -7 -8 -7 -8c-12 11 -28 17 -45 17s-33 -6 -45 -17zM295 516l-7 8c34 30 79 48 128 48s94 -18 128 -49c1 0 -6 -7 -6 -7c-33 29 -76 46 -122 46s-89 -17 -121 -46zM416 240c-32 0 -61 11 -83 30l7 8c21 -17 48 -28 76 -28c29 0 55 11 75 28l7 -7
c-22 -19 -50 -31 -82 -31zM416 285c-20 0 -38 7 -53 19l7 8c13 -10 29 -17 46 -17s32 6 45 17l7 -8c-14 -12 -32 -19 -52 -19zM416 305c-15 0 -28 5 -40 14l7 7c10 -7 21 -12 33 -12s23 5 32 12l7 -7c-11 -9 -25 -14 -39 -14zM341 464l-7 7c22 19 51 31 82 31s60 -11 82 -30
l-7 -8c-20 17 -46 28 -75 28c-28 0 -54 -10 -75 -28zM320 487l-7 8c28 24 64 38 103 38s75 -15 102 -39l-6 -7c-26 23 -59 36 -96 36c-36 0 -70 -14 -96 -36zM610 597c-51 47 -119 75 -194 75c-74 0 -142 -28 -194 -74l-7 7c54 48 124 77 201 77s147 -29 201 -77zM172 654
l-7 8c67 61 155 97 251 97s185 -37 252 -97l-7 -8c-65 59 -151 95 -245 95s-179 -36 -244 -95zM516 290l-7 7c15 20 25 46 25 74s-10 54 -26 75l8 7c18 -23 28 -51 28 -82s-10 -59 -28 -81z" />
    <glyph glyph-name="summation" unicode="&#x2211;" horiz-adv-x="832" 
d="M126 120c-56 67 -90 155 -90 251c0 95 34 183 90 250c0 0 3 -2 7 -6c-54 -66 -87 -151 -87 -244s33 -178 88 -244c-5 -4 -8 -7 -8 -7zM228 211c-35 43 -57 99 -57 160s21 116 56 160c3 -2 5 -5 8 -7c-33 -41 -54 -95 -54 -153s20 -112 54 -153c-2 -3 -5 -5 -7 -7z
M264 243c-28 35 -45 79 -45 128c0 48 17 93 45 128c3 -2 5 -5 8 -7c-27 -33 -43 -75 -43 -121s16 -88 43 -121c-3 -2 -5 -5 -8 -7zM316 289c-18 23 -28 51 -28 82s10 59 28 81c2 -2 5 -4 7 -7c-15 -20 -25 -46 -25 -74s10 -54 26 -75c-3 -2 -5 -5 -8 -7zM349 320
c-10 14 -16 32 -16 51s6 37 16 51c3 -2 5 -5 8 -7c-9 -13 -14 -28 -14 -44s5 -31 14 -44c-3 -2 -5 -4 -8 -7zM378 346c-4 7 -7 16 -7 25s3 18 7 25c4 -3 6 -5 6 -5c-3 -6 -5 -13 -5 -20s2 -14 5 -20c0 0 -2 -2 -6 -5zM416 60c-78 0 -148 29 -201 77c0 0 7 8 7 7
c52 -46 120 -74 194 -74s142 28 193 74c2 -3 5 -5 7 -8c-53 -47 -123 -76 -200 -76zM416 324c-10 0 -19 3 -27 9c2 1 6 6 6 6c6 -4 13 -7 21 -7s15 2 21 7c0 0 2 -2 5 -6c-7 -6 -16 -9 -26 -9zM482 319c-2 3 -4 5 -7 7c9 13 14 29 14 45c0 17 -5 32 -14 44c0 0 8 7 7 7
c11 -14 17 -32 17 -51s-6 -37 -17 -52zM292 269c-22 28 -35 64 -35 102c0 39 13 74 36 102l7 -7c-20 -26 -33 -59 -33 -95s13 -69 33 -95c-2 -2 -5 -5 -8 -7zM416 -17c-96 0 -185 37 -252 97l7 8c65 -59 151 -95 245 -95s179 36 244 94c0 1 7 -7 7 -7
c-67 -61 -155 -97 -251 -97zM416 121c-62 0 -118 23 -161 61l7 8c41 -37 95 -59 154 -59s113 22 153 59c2 -3 5 -5 7 -8c-42 -38 -98 -61 -160 -61zM416 170c-49 0 -94 19 -129 49l7 7c33 -29 75 -46 122 -46c46 0 89 17 121 46c2 -3 5 -5 7 -8c-34 -30 -79 -48 -128 -48z
M416 209c-39 0 -75 15 -103 38l7 8c26 -22 60 -36 96 -36s70 14 96 36c2 -2 4 -5 6 -8c-27 -23 -63 -38 -102 -38zM416 265c-25 0 -48 9 -66 24l7 8c16 -14 37 -22 59 -22s42 8 58 22c2 -3 5 -5 7 -8c-18 -15 -40 -24 -65 -24zM358 445c-4 3 -7 7 -8 8c18 15 41 24 66 24
s48 -9 66 -24l-8 -8c-16 14 -36 22 -58 22s-42 -8 -58 -22zM570 552c-41 37 -95 59 -154 59s-112 -22 -153 -58l-7 7c43 38 99 61 160 61c62 0 118 -23 161 -61c-2 -3 -5 -6 -7 -8zM454 346c-4 3 -6 5 -6 5c3 6 5 13 5 20s-2 14 -5 20l6 5c4 -7 7 -16 7 -25s-3 -18 -7 -25z
M468 333c-3 3 -5 5 -8 7c6 9 10 20 10 31s-4 22 -10 31l8 7c8 -11 12 -24 12 -38s-4 -27 -12 -38zM498 306c-3 2 -6 5 -8 7c12 16 19 36 19 58s-7 42 -19 58l7 7c14 -18 22 -41 22 -65s-8 -46 -21 -65zM540 269c-3 2 -5 5 -8 7c20 26 33 59 33 95s-13 69 -34 95l8 7
c23 -28 36 -63 36 -102s-13 -74 -35 -102zM568 243c-2 2 -5 5 -8 7c27 33 43 75 43 121s-16 88 -43 121l8 7c28 -35 45 -79 45 -128s-17 -93 -45 -128zM604 211c0 0 -3 2 -8 7c35 42 55 95 55 153s-20 112 -55 153l8 7c36 -43 57 -99 57 -160s-21 -117 -57 -160zM649 171
c-2 2 -5 4 -7 6c43 53 69 120 69 194s-26 141 -70 193l8 7c45 -54 72 -124 72 -200s-27 -146 -72 -200zM706 120c0 0 -3 3 -8 7c55 66 88 151 88 244s-33 178 -88 244l8 7c56 -67 90 -155 90 -251c0 -95 -34 -183 -90 -251zM183 170c-45 55 -72 124 -72 201
c0 76 27 146 71 200c2 -2 5 -4 8 -7c-43 -52 -69 -120 -69 -193c0 -74 26 -142 69 -194zM334 306c-13 18 -21 40 -21 65c0 24 8 47 21 65c3 -2 6 -5 8 -7c-12 -16 -19 -36 -19 -58c0 -21 7 -41 19 -57zM364 333c-8 11 -12 24 -12 38s4 27 12 38c2 -3 5 -5 7 -7
c-5 -9 -9 -20 -9 -31s4 -22 9 -31zM395 403l-5 6c7 6 16 9 26 9s19 -3 26 -9c-3 -3 -5 -6 -5 -6c-6 4 -13 7 -21 7s-15 -2 -21 -7zM384 416l-7 7c11 9 24 14 39 14c14 0 27 -5 38 -14c-2 -2 -4 -4 -6 -7c-9 8 -20 12 -32 12s-23 -5 -32 -12zM371 430l-7 8c14 12 33 19 52 19
c20 0 38 -7 52 -19c-4 -4 -7 -8 -7 -8c-12 11 -28 17 -45 17s-33 -6 -45 -17zM295 516l-7 8c34 30 79 48 128 48s94 -18 128 -49c1 0 -6 -7 -6 -7c-33 29 -76 46 -122 46s-89 -17 -121 -46zM416 240c-32 0 -61 11 -83 30l7 8c21 -17 48 -28 76 -28c29 0 55 11 75 28l7 -7
c-22 -19 -50 -31 -82 -31zM416 285c-20 0 -38 7 -53 19l7 8c13 -10 29 -17 46 -17s32 6 45 17l7 -8c-14 -12 -32 -19 -52 -19zM416 305c-15 0 -28 5 -40 14l7 7c10 -7 21 -12 33 -12s23 5 32 12l7 -7c-11 -9 -25 -14 -39 -14zM341 464l-7 7c22 19 51 31 82 31s60 -11 82 -30
l-7 -8c-20 17 -46 28 -75 28c-28 0 -54 -10 -75 -28zM320 487l-7 8c28 24 64 38 103 38s75 -15 102 -39l-6 -7c-26 23 -59 36 -96 36c-36 0 -70 -14 -96 -36zM610 597c-51 47 -119 75 -194 75c-74 0 -142 -28 -194 -74l-7 7c54 48 124 77 201 77s147 -29 201 -77zM172 654
l-7 8c67 61 155 97 251 97s185 -37 252 -97l-7 -8c-65 59 -151 95 -245 95s-179 -36 -244 -95zM516 290l-7 7c15 20 25 46 25 74s-10 54 -26 75l8 7c18 -23 28 -51 28 -82s-10 -59 -28 -81z" />
    <glyph glyph-name="product" unicode="&#x220f;" horiz-adv-x="832" 
d="M126 120c-56 67 -90 155 -90 251c0 95 34 183 90 250c0 0 3 -2 7 -6c-54 -66 -87 -151 -87 -244s33 -178 88 -244c-5 -4 -8 -7 -8 -7zM228 211c-35 43 -57 99 -57 160s21 116 56 160c3 -2 5 -5 8 -7c-33 -41 -54 -95 -54 -153s20 -112 54 -153c-2 -3 -5 -5 -7 -7z
M264 243c-28 35 -45 79 -45 128c0 48 17 93 45 128c3 -2 5 -5 8 -7c-27 -33 -43 -75 -43 -121s16 -88 43 -121c-3 -2 -5 -5 -8 -7zM316 289c-18 23 -28 51 -28 82s10 59 28 81c2 -2 5 -4 7 -7c-15 -20 -25 -46 -25 -74s10 -54 26 -75c-3 -2 -5 -5 -8 -7zM349 320
c-10 14 -16 32 -16 51s6 37 16 51c3 -2 5 -5 8 -7c-9 -13 -14 -28 -14 -44s5 -31 14 -44c-3 -2 -5 -4 -8 -7zM378 346c-4 7 -7 16 -7 25s3 18 7 25c4 -3 6 -5 6 -5c-3 -6 -5 -13 -5 -20s2 -14 5 -20c0 0 -2 -2 -6 -5zM416 60c-78 0 -148 29 -201 77c0 0 7 8 7 7
c52 -46 120 -74 194 -74s142 28 193 74c2 -3 5 -5 7 -8c-53 -47 -123 -76 -200 -76zM416 324c-10 0 -19 3 -27 9c2 1 6 6 6 6c6 -4 13 -7 21 -7s15 2 21 7c0 0 2 -2 5 -6c-7 -6 -16 -9 -26 -9zM482 319c-2 3 -4 5 -7 7c9 13 14 29 14 45c0 17 -5 32 -14 44c0 0 8 7 7 7
c11 -14 17 -32 17 -51s-6 -37 -17 -52zM292 269c-22 28 -35 64 -35 102c0 39 13 74 36 102l7 -7c-20 -26 -33 -59 -33 -95s13 -69 33 -95c-2 -2 -5 -5 -8 -7zM416 -17c-96 0 -185 37 -252 97l7 8c65 -59 151 -95 245 -95s179 36 244 94c0 1 7 -7 7 -7
c-67 -61 -155 -97 -251 -97zM416 121c-62 0 -118 23 -161 61l7 8c41 -37 95 -59 154 -59s113 22 153 59c2 -3 5 -5 7 -8c-42 -38 -98 -61 -160 -61zM416 170c-49 0 -94 19 -129 49l7 7c33 -29 75 -46 122 -46c46 0 89 17 121 46c2 -3 5 -5 7 -8c-34 -30 -79 -48 -128 -48z
M416 209c-39 0 -75 15 -103 38l7 8c26 -22 60 -36 96 -36s70 14 96 36c2 -2 4 -5 6 -8c-27 -23 -63 -38 -102 -38zM416 265c-25 0 -48 9 -66 24l7 8c16 -14 37 -22 59 -22s42 8 58 22c2 -3 5 -5 7 -8c-18 -15 -40 -24 -65 -24zM358 445c-4 3 -7 7 -8 8c18 15 41 24 66 24
s48 -9 66 -24l-8 -8c-16 14 -36 22 -58 22s-42 -8 -58 -22zM570 552c-41 37 -95 59 -154 59s-112 -22 -153 -58l-7 7c43 38 99 61 160 61c62 0 118 -23 161 -61c-2 -3 -5 -6 -7 -8zM454 346c-4 3 -6 5 -6 5c3 6 5 13 5 20s-2 14 -5 20l6 5c4 -7 7 -16 7 -25s-3 -18 -7 -25z
M468 333c-3 3 -5 5 -8 7c6 9 10 20 10 31s-4 22 -10 31l8 7c8 -11 12 -24 12 -38s-4 -27 -12 -38zM498 306c-3 2 -6 5 -8 7c12 16 19 36 19 58s-7 42 -19 58l7 7c14 -18 22 -41 22 -65s-8 -46 -21 -65zM540 269c-3 2 -5 5 -8 7c20 26 33 59 33 95s-13 69 -34 95l8 7
c23 -28 36 -63 36 -102s-13 -74 -35 -102zM568 243c-2 2 -5 5 -8 7c27 33 43 75 43 121s-16 88 -43 121l8 7c28 -35 45 -79 45 -128s-17 -93 -45 -128zM604 211c0 0 -3 2 -8 7c35 42 55 95 55 153s-20 112 -55 153l8 7c36 -43 57 -99 57 -160s-21 -117 -57 -160zM649 171
c-2 2 -5 4 -7 6c43 53 69 120 69 194s-26 141 -70 193l8 7c45 -54 72 -124 72 -200s-27 -146 -72 -200zM706 120c0 0 -3 3 -8 7c55 66 88 151 88 244s-33 178 -88 244l8 7c56 -67 90 -155 90 -251c0 -95 -34 -183 -90 -251zM183 170c-45 55 -72 124 -72 201
c0 76 27 146 71 200c2 -2 5 -4 8 -7c-43 -52 -69 -120 -69 -193c0 -74 26 -142 69 -194zM334 306c-13 18 -21 40 -21 65c0 24 8 47 21 65c3 -2 6 -5 8 -7c-12 -16 -19 -36 -19 -58c0 -21 7 -41 19 -57zM364 333c-8 11 -12 24 -12 38s4 27 12 38c2 -3 5 -5 7 -7
c-5 -9 -9 -20 -9 -31s4 -22 9 -31zM395 403l-5 6c7 6 16 9 26 9s19 -3 26 -9c-3 -3 -5 -6 -5 -6c-6 4 -13 7 -21 7s-15 -2 -21 -7zM384 416l-7 7c11 9 24 14 39 14c14 0 27 -5 38 -14c-2 -2 -4 -4 -6 -7c-9 8 -20 12 -32 12s-23 -5 -32 -12zM371 430l-7 8c14 12 33 19 52 19
c20 0 38 -7 52 -19c-4 -4 -7 -8 -7 -8c-12 11 -28 17 -45 17s-33 -6 -45 -17zM295 516l-7 8c34 30 79 48 128 48s94 -18 128 -49c1 0 -6 -7 -6 -7c-33 29 -76 46 -122 46s-89 -17 -121 -46zM416 240c-32 0 -61 11 -83 30l7 8c21 -17 48 -28 76 -28c29 0 55 11 75 28l7 -7
c-22 -19 -50 -31 -82 -31zM416 285c-20 0 -38 7 -53 19l7 8c13 -10 29 -17 46 -17s32 6 45 17l7 -8c-14 -12 -32 -19 -52 -19zM416 305c-15 0 -28 5 -40 14l7 7c10 -7 21 -12 33 -12s23 5 32 12l7 -7c-11 -9 -25 -14 -39 -14zM341 464l-7 7c22 19 51 31 82 31s60 -11 82 -30
l-7 -8c-20 17 -46 28 -75 28c-28 0 -54 -10 -75 -28zM320 487l-7 8c28 24 64 38 103 38s75 -15 102 -39l-6 -7c-26 23 -59 36 -96 36c-36 0 -70 -14 -96 -36zM610 597c-51 47 -119 75 -194 75c-74 0 -142 -28 -194 -74l-7 7c54 48 124 77 201 77s147 -29 201 -77zM172 654
l-7 8c67 61 155 97 251 97s185 -37 252 -97l-7 -8c-65 59 -151 95 -245 95s-179 -36 -244 -95zM516 290l-7 7c15 20 25 46 25 74s-10 54 -26 75l8 7c18 -23 28 -51 28 -82s-10 -59 -28 -81z" />
    <glyph glyph-name="pi" unicode="&#x3c0;" horiz-adv-x="846" 
d="M421 -11c-249 0 -370 150 -370 381c0 233 121 383 370 383s372 -150 372 -383c0 -231 -123 -381 -372 -381zM421 11c233 0 348 141 348 359c0 220 -115 361 -348 361s-346 -141 -346 -361c0 -218 113 -359 346 -359zM262 94v529h218c109 0 159 -36 159 -145
c0 -110 -51 -151 -156 -151h-195v-233h-26zM288 351h195c88 0 130 34 130 127c0 91 -42 121 -133 121h-192v-248z" />
    <glyph glyph-name="integral" unicode="&#x222b;" horiz-adv-x="832" 
d="M126 120c-56 67 -90 155 -90 251c0 95 34 183 90 250c0 0 3 -2 7 -6c-54 -66 -87 -151 -87 -244s33 -178 88 -244c-5 -4 -8 -7 -8 -7zM228 211c-35 43 -57 99 -57 160s21 116 56 160c3 -2 5 -5 8 -7c-33 -41 -54 -95 -54 -153s20 -112 54 -153c-2 -3 -5 -5 -7 -7z
M264 243c-28 35 -45 79 -45 128c0 48 17 93 45 128c3 -2 5 -5 8 -7c-27 -33 -43 -75 -43 -121s16 -88 43 -121c-3 -2 -5 -5 -8 -7zM316 289c-18 23 -28 51 -28 82s10 59 28 81c2 -2 5 -4 7 -7c-15 -20 -25 -46 -25 -74s10 -54 26 -75c-3 -2 -5 -5 -8 -7zM349 320
c-10 14 -16 32 -16 51s6 37 16 51c3 -2 5 -5 8 -7c-9 -13 -14 -28 -14 -44s5 -31 14 -44c-3 -2 -5 -4 -8 -7zM378 346c-4 7 -7 16 -7 25s3 18 7 25c4 -3 6 -5 6 -5c-3 -6 -5 -13 -5 -20s2 -14 5 -20c0 0 -2 -2 -6 -5zM416 60c-78 0 -148 29 -201 77c0 0 7 8 7 7
c52 -46 120 -74 194 -74s142 28 193 74c2 -3 5 -5 7 -8c-53 -47 -123 -76 -200 -76zM416 324c-10 0 -19 3 -27 9c2 1 6 6 6 6c6 -4 13 -7 21 -7s15 2 21 7c0 0 2 -2 5 -6c-7 -6 -16 -9 -26 -9zM482 319c-2 3 -4 5 -7 7c9 13 14 29 14 45c0 17 -5 32 -14 44c0 0 8 7 7 7
c11 -14 17 -32 17 -51s-6 -37 -17 -52zM292 269c-22 28 -35 64 -35 102c0 39 13 74 36 102l7 -7c-20 -26 -33 -59 -33 -95s13 -69 33 -95c-2 -2 -5 -5 -8 -7zM416 -17c-96 0 -185 37 -252 97l7 8c65 -59 151 -95 245 -95s179 36 244 94c0 1 7 -7 7 -7
c-67 -61 -155 -97 -251 -97zM416 121c-62 0 -118 23 -161 61l7 8c41 -37 95 -59 154 -59s113 22 153 59c2 -3 5 -5 7 -8c-42 -38 -98 -61 -160 -61zM416 170c-49 0 -94 19 -129 49l7 7c33 -29 75 -46 122 -46c46 0 89 17 121 46c2 -3 5 -5 7 -8c-34 -30 -79 -48 -128 -48z
M416 209c-39 0 -75 15 -103 38l7 8c26 -22 60 -36 96 -36s70 14 96 36c2 -2 4 -5 6 -8c-27 -23 -63 -38 -102 -38zM416 265c-25 0 -48 9 -66 24l7 8c16 -14 37 -22 59 -22s42 8 58 22c2 -3 5 -5 7 -8c-18 -15 -40 -24 -65 -24zM358 445c-4 3 -7 7 -8 8c18 15 41 24 66 24
s48 -9 66 -24l-8 -8c-16 14 -36 22 -58 22s-42 -8 -58 -22zM570 552c-41 37 -95 59 -154 59s-112 -22 -153 -58l-7 7c43 38 99 61 160 61c62 0 118 -23 161 -61c-2 -3 -5 -6 -7 -8zM454 346c-4 3 -6 5 -6 5c3 6 5 13 5 20s-2 14 -5 20l6 5c4 -7 7 -16 7 -25s-3 -18 -7 -25z
M468 333c-3 3 -5 5 -8 7c6 9 10 20 10 31s-4 22 -10 31l8 7c8 -11 12 -24 12 -38s-4 -27 -12 -38zM498 306c-3 2 -6 5 -8 7c12 16 19 36 19 58s-7 42 -19 58l7 7c14 -18 22 -41 22 -65s-8 -46 -21 -65zM540 269c-3 2 -5 5 -8 7c20 26 33 59 33 95s-13 69 -34 95l8 7
c23 -28 36 -63 36 -102s-13 -74 -35 -102zM568 243c-2 2 -5 5 -8 7c27 33 43 75 43 121s-16 88 -43 121l8 7c28 -35 45 -79 45 -128s-17 -93 -45 -128zM604 211c0 0 -3 2 -8 7c35 42 55 95 55 153s-20 112 -55 153l8 7c36 -43 57 -99 57 -160s-21 -117 -57 -160zM649 171
c-2 2 -5 4 -7 6c43 53 69 120 69 194s-26 141 -70 193l8 7c45 -54 72 -124 72 -200s-27 -146 -72 -200zM706 120c0 0 -3 3 -8 7c55 66 88 151 88 244s-33 178 -88 244l8 7c56 -67 90 -155 90 -251c0 -95 -34 -183 -90 -251zM183 170c-45 55 -72 124 -72 201
c0 76 27 146 71 200c2 -2 5 -4 8 -7c-43 -52 -69 -120 -69 -193c0 -74 26 -142 69 -194zM334 306c-13 18 -21 40 -21 65c0 24 8 47 21 65c3 -2 6 -5 8 -7c-12 -16 -19 -36 -19 -58c0 -21 7 -41 19 -57zM364 333c-8 11 -12 24 -12 38s4 27 12 38c2 -3 5 -5 7 -7
c-5 -9 -9 -20 -9 -31s4 -22 9 -31zM395 403l-5 6c7 6 16 9 26 9s19 -3 26 -9c-3 -3 -5 -6 -5 -6c-6 4 -13 7 -21 7s-15 -2 -21 -7zM384 416l-7 7c11 9 24 14 39 14c14 0 27 -5 38 -14c-2 -2 -4 -4 -6 -7c-9 8 -20 12 -32 12s-23 -5 -32 -12zM371 430l-7 8c14 12 33 19 52 19
c20 0 38 -7 52 -19c-4 -4 -7 -8 -7 -8c-12 11 -28 17 -45 17s-33 -6 -45 -17zM295 516l-7 8c34 30 79 48 128 48s94 -18 128 -49c1 0 -6 -7 -6 -7c-33 29 -76 46 -122 46s-89 -17 -121 -46zM416 240c-32 0 -61 11 -83 30l7 8c21 -17 48 -28 76 -28c29 0 55 11 75 28l7 -7
c-22 -19 -50 -31 -82 -31zM416 285c-20 0 -38 7 -53 19l7 8c13 -10 29 -17 46 -17s32 6 45 17l7 -8c-14 -12 -32 -19 -52 -19zM416 305c-15 0 -28 5 -40 14l7 7c10 -7 21 -12 33 -12s23 5 32 12l7 -7c-11 -9 -25 -14 -39 -14zM341 464l-7 7c22 19 51 31 82 31s60 -11 82 -30
l-7 -8c-20 17 -46 28 -75 28c-28 0 -54 -10 -75 -28zM320 487l-7 8c28 24 64 38 103 38s75 -15 102 -39l-6 -7c-26 23 -59 36 -96 36c-36 0 -70 -14 -96 -36zM610 597c-51 47 -119 75 -194 75c-74 0 -142 -28 -194 -74l-7 7c54 48 124 77 201 77s147 -29 201 -77zM172 654
l-7 8c67 61 155 97 251 97s185 -37 252 -97l-7 -8c-65 59 -151 95 -245 95s-179 -36 -244 -95zM516 290l-7 7c15 20 25 46 25 74s-10 54 -26 75l8 7c18 -23 28 -51 28 -82s-10 -59 -28 -81z" />
    <glyph glyph-name="ordfeminine" unicode="&#xaa;" horiz-adv-x="571" 
d="M221 291c-105 0 -152 50 -152 132c0 126 92 159 304 159h26c-1 108 -21 147 -133 147c-54 0 -107 -22 -132 -39l-15 20c28 19 86 43 147 43c141 0 159 -52 159 -179v-187c0 -56 4 -63 51 -63v-24h-5c-61 0 -72 12 -72 90c-28 -68 -86 -99 -178 -99zM221 315
c119 0 178 62 178 199v44h-26c-194 0 -278 -28 -278 -135c0 -67 39 -108 126 -108zM110 173v24h319v-24h-319z" />
    <glyph glyph-name="ordmasculine" unicode="&#xba;" horiz-adv-x="580" 
d="M289 297c-130 0 -199 75 -199 228s69 228 199 228s201 -75 201 -228s-71 -228 -201 -228zM289 321c113 0 175 67 175 204s-62 204 -175 204s-173 -67 -173 -204s60 -204 173 -204zM116 173v24h348v-24h-348z" />
    <glyph glyph-name="Omega" unicode="&#x3a9;" horiz-adv-x="832" 
d="M126 120c-56 67 -90 155 -90 251c0 95 34 183 90 250c0 0 3 -2 7 -6c-54 -66 -87 -151 -87 -244s33 -178 88 -244c-5 -4 -8 -7 -8 -7zM228 211c-35 43 -57 99 -57 160s21 116 56 160c3 -2 5 -5 8 -7c-33 -41 -54 -95 -54 -153s20 -112 54 -153c-2 -3 -5 -5 -7 -7z
M264 243c-28 35 -45 79 -45 128c0 48 17 93 45 128c3 -2 5 -5 8 -7c-27 -33 -43 -75 -43 -121s16 -88 43 -121c-3 -2 -5 -5 -8 -7zM316 289c-18 23 -28 51 -28 82s10 59 28 81c2 -2 5 -4 7 -7c-15 -20 -25 -46 -25 -74s10 -54 26 -75c-3 -2 -5 -5 -8 -7zM349 320
c-10 14 -16 32 -16 51s6 37 16 51c3 -2 5 -5 8 -7c-9 -13 -14 -28 -14 -44s5 -31 14 -44c-3 -2 -5 -4 -8 -7zM378 346c-4 7 -7 16 -7 25s3 18 7 25c4 -3 6 -5 6 -5c-3 -6 -5 -13 -5 -20s2 -14 5 -20c0 0 -2 -2 -6 -5zM416 60c-78 0 -148 29 -201 77c0 0 7 8 7 7
c52 -46 120 -74 194 -74s142 28 193 74c2 -3 5 -5 7 -8c-53 -47 -123 -76 -200 -76zM416 324c-10 0 -19 3 -27 9c2 1 6 6 6 6c6 -4 13 -7 21 -7s15 2 21 7c0 0 2 -2 5 -6c-7 -6 -16 -9 -26 -9zM482 319c-2 3 -4 5 -7 7c9 13 14 29 14 45c0 17 -5 32 -14 44c0 0 8 7 7 7
c11 -14 17 -32 17 -51s-6 -37 -17 -52zM292 269c-22 28 -35 64 -35 102c0 39 13 74 36 102l7 -7c-20 -26 -33 -59 -33 -95s13 -69 33 -95c-2 -2 -5 -5 -8 -7zM416 -17c-96 0 -185 37 -252 97l7 8c65 -59 151 -95 245 -95s179 36 244 94c0 1 7 -7 7 -7
c-67 -61 -155 -97 -251 -97zM416 121c-62 0 -118 23 -161 61l7 8c41 -37 95 -59 154 -59s113 22 153 59c2 -3 5 -5 7 -8c-42 -38 -98 -61 -160 -61zM416 170c-49 0 -94 19 -129 49l7 7c33 -29 75 -46 122 -46c46 0 89 17 121 46c2 -3 5 -5 7 -8c-34 -30 -79 -48 -128 -48z
M416 209c-39 0 -75 15 -103 38l7 8c26 -22 60 -36 96 -36s70 14 96 36c2 -2 4 -5 6 -8c-27 -23 -63 -38 -102 -38zM416 265c-25 0 -48 9 -66 24l7 8c16 -14 37 -22 59 -22s42 8 58 22c2 -3 5 -5 7 -8c-18 -15 -40 -24 -65 -24zM358 445c-4 3 -7 7 -8 8c18 15 41 24 66 24
s48 -9 66 -24l-8 -8c-16 14 -36 22 -58 22s-42 -8 -58 -22zM570 552c-41 37 -95 59 -154 59s-112 -22 -153 -58l-7 7c43 38 99 61 160 61c62 0 118 -23 161 -61c-2 -3 -5 -6 -7 -8zM454 346c-4 3 -6 5 -6 5c3 6 5 13 5 20s-2 14 -5 20l6 5c4 -7 7 -16 7 -25s-3 -18 -7 -25z
M468 333c-3 3 -5 5 -8 7c6 9 10 20 10 31s-4 22 -10 31l8 7c8 -11 12 -24 12 -38s-4 -27 -12 -38zM498 306c-3 2 -6 5 -8 7c12 16 19 36 19 58s-7 42 -19 58l7 7c14 -18 22 -41 22 -65s-8 -46 -21 -65zM540 269c-3 2 -5 5 -8 7c20 26 33 59 33 95s-13 69 -34 95l8 7
c23 -28 36 -63 36 -102s-13 -74 -35 -102zM568 243c-2 2 -5 5 -8 7c27 33 43 75 43 121s-16 88 -43 121l8 7c28 -35 45 -79 45 -128s-17 -93 -45 -128zM604 211c0 0 -3 2 -8 7c35 42 55 95 55 153s-20 112 -55 153l8 7c36 -43 57 -99 57 -160s-21 -117 -57 -160zM649 171
c-2 2 -5 4 -7 6c43 53 69 120 69 194s-26 141 -70 193l8 7c45 -54 72 -124 72 -200s-27 -146 -72 -200zM706 120c0 0 -3 3 -8 7c55 66 88 151 88 244s-33 178 -88 244l8 7c56 -67 90 -155 90 -251c0 -95 -34 -183 -90 -251zM183 170c-45 55 -72 124 -72 201
c0 76 27 146 71 200c2 -2 5 -4 8 -7c-43 -52 -69 -120 -69 -193c0 -74 26 -142 69 -194zM334 306c-13 18 -21 40 -21 65c0 24 8 47 21 65c3 -2 6 -5 8 -7c-12 -16 -19 -36 -19 -58c0 -21 7 -41 19 -57zM364 333c-8 11 -12 24 -12 38s4 27 12 38c2 -3 5 -5 7 -7
c-5 -9 -9 -20 -9 -31s4 -22 9 -31zM395 403l-5 6c7 6 16 9 26 9s19 -3 26 -9c-3 -3 -5 -6 -5 -6c-6 4 -13 7 -21 7s-15 -2 -21 -7zM384 416l-7 7c11 9 24 14 39 14c14 0 27 -5 38 -14c-2 -2 -4 -4 -6 -7c-9 8 -20 12 -32 12s-23 -5 -32 -12zM371 430l-7 8c14 12 33 19 52 19
c20 0 38 -7 52 -19c-4 -4 -7 -8 -7 -8c-12 11 -28 17 -45 17s-33 -6 -45 -17zM295 516l-7 8c34 30 79 48 128 48s94 -18 128 -49c1 0 -6 -7 -6 -7c-33 29 -76 46 -122 46s-89 -17 -121 -46zM416 240c-32 0 -61 11 -83 30l7 8c21 -17 48 -28 76 -28c29 0 55 11 75 28l7 -7
c-22 -19 -50 -31 -82 -31zM416 285c-20 0 -38 7 -53 19l7 8c13 -10 29 -17 46 -17s32 6 45 17l7 -8c-14 -12 -32 -19 -52 -19zM416 305c-15 0 -28 5 -40 14l7 7c10 -7 21 -12 33 -12s23 5 32 12l7 -7c-11 -9 -25 -14 -39 -14zM341 464l-7 7c22 19 51 31 82 31s60 -11 82 -30
l-7 -8c-20 17 -46 28 -75 28c-28 0 -54 -10 -75 -28zM320 487l-7 8c28 24 64 38 103 38s75 -15 102 -39l-6 -7c-26 23 -59 36 -96 36c-36 0 -70 -14 -96 -36zM610 597c-51 47 -119 75 -194 75c-74 0 -142 -28 -194 -74l-7 7c54 48 124 77 201 77s147 -29 201 -77zM172 654
l-7 8c67 61 155 97 251 97s185 -37 252 -97l-7 -8c-65 59 -151 95 -245 95s-179 -36 -244 -95zM516 290l-7 7c15 20 25 46 25 74s-10 54 -26 75l8 7c18 -23 28 -51 28 -82s-10 -59 -28 -81z" />
    <glyph glyph-name="Omega" unicode="&#x2126;" horiz-adv-x="832" 
d="M126 120c-56 67 -90 155 -90 251c0 95 34 183 90 250c0 0 3 -2 7 -6c-54 -66 -87 -151 -87 -244s33 -178 88 -244c-5 -4 -8 -7 -8 -7zM228 211c-35 43 -57 99 -57 160s21 116 56 160c3 -2 5 -5 8 -7c-33 -41 -54 -95 -54 -153s20 -112 54 -153c-2 -3 -5 -5 -7 -7z
M264 243c-28 35 -45 79 -45 128c0 48 17 93 45 128c3 -2 5 -5 8 -7c-27 -33 -43 -75 -43 -121s16 -88 43 -121c-3 -2 -5 -5 -8 -7zM316 289c-18 23 -28 51 -28 82s10 59 28 81c2 -2 5 -4 7 -7c-15 -20 -25 -46 -25 -74s10 -54 26 -75c-3 -2 -5 -5 -8 -7zM349 320
c-10 14 -16 32 -16 51s6 37 16 51c3 -2 5 -5 8 -7c-9 -13 -14 -28 -14 -44s5 -31 14 -44c-3 -2 -5 -4 -8 -7zM378 346c-4 7 -7 16 -7 25s3 18 7 25c4 -3 6 -5 6 -5c-3 -6 -5 -13 -5 -20s2 -14 5 -20c0 0 -2 -2 -6 -5zM416 60c-78 0 -148 29 -201 77c0 0 7 8 7 7
c52 -46 120 -74 194 -74s142 28 193 74c2 -3 5 -5 7 -8c-53 -47 -123 -76 -200 -76zM416 324c-10 0 -19 3 -27 9c2 1 6 6 6 6c6 -4 13 -7 21 -7s15 2 21 7c0 0 2 -2 5 -6c-7 -6 -16 -9 -26 -9zM482 319c-2 3 -4 5 -7 7c9 13 14 29 14 45c0 17 -5 32 -14 44c0 0 8 7 7 7
c11 -14 17 -32 17 -51s-6 -37 -17 -52zM292 269c-22 28 -35 64 -35 102c0 39 13 74 36 102l7 -7c-20 -26 -33 -59 -33 -95s13 -69 33 -95c-2 -2 -5 -5 -8 -7zM416 -17c-96 0 -185 37 -252 97l7 8c65 -59 151 -95 245 -95s179 36 244 94c0 1 7 -7 7 -7
c-67 -61 -155 -97 -251 -97zM416 121c-62 0 -118 23 -161 61l7 8c41 -37 95 -59 154 -59s113 22 153 59c2 -3 5 -5 7 -8c-42 -38 -98 -61 -160 -61zM416 170c-49 0 -94 19 -129 49l7 7c33 -29 75 -46 122 -46c46 0 89 17 121 46c2 -3 5 -5 7 -8c-34 -30 -79 -48 -128 -48z
M416 209c-39 0 -75 15 -103 38l7 8c26 -22 60 -36 96 -36s70 14 96 36c2 -2 4 -5 6 -8c-27 -23 -63 -38 -102 -38zM416 265c-25 0 -48 9 -66 24l7 8c16 -14 37 -22 59 -22s42 8 58 22c2 -3 5 -5 7 -8c-18 -15 -40 -24 -65 -24zM358 445c-4 3 -7 7 -8 8c18 15 41 24 66 24
s48 -9 66 -24l-8 -8c-16 14 -36 22 -58 22s-42 -8 -58 -22zM570 552c-41 37 -95 59 -154 59s-112 -22 -153 -58l-7 7c43 38 99 61 160 61c62 0 118 -23 161 -61c-2 -3 -5 -6 -7 -8zM454 346c-4 3 -6 5 -6 5c3 6 5 13 5 20s-2 14 -5 20l6 5c4 -7 7 -16 7 -25s-3 -18 -7 -25z
M468 333c-3 3 -5 5 -8 7c6 9 10 20 10 31s-4 22 -10 31l8 7c8 -11 12 -24 12 -38s-4 -27 -12 -38zM498 306c-3 2 -6 5 -8 7c12 16 19 36 19 58s-7 42 -19 58l7 7c14 -18 22 -41 22 -65s-8 -46 -21 -65zM540 269c-3 2 -5 5 -8 7c20 26 33 59 33 95s-13 69 -34 95l8 7
c23 -28 36 -63 36 -102s-13 -74 -35 -102zM568 243c-2 2 -5 5 -8 7c27 33 43 75 43 121s-16 88 -43 121l8 7c28 -35 45 -79 45 -128s-17 -93 -45 -128zM604 211c0 0 -3 2 -8 7c35 42 55 95 55 153s-20 112 -55 153l8 7c36 -43 57 -99 57 -160s-21 -117 -57 -160zM649 171
c-2 2 -5 4 -7 6c43 53 69 120 69 194s-26 141 -70 193l8 7c45 -54 72 -124 72 -200s-27 -146 -72 -200zM706 120c0 0 -3 3 -8 7c55 66 88 151 88 244s-33 178 -88 244l8 7c56 -67 90 -155 90 -251c0 -95 -34 -183 -90 -251zM183 170c-45 55 -72 124 -72 201
c0 76 27 146 71 200c2 -2 5 -4 8 -7c-43 -52 -69 -120 -69 -193c0 -74 26 -142 69 -194zM334 306c-13 18 -21 40 -21 65c0 24 8 47 21 65c3 -2 6 -5 8 -7c-12 -16 -19 -36 -19 -58c0 -21 7 -41 19 -57zM364 333c-8 11 -12 24 -12 38s4 27 12 38c2 -3 5 -5 7 -7
c-5 -9 -9 -20 -9 -31s4 -22 9 -31zM395 403l-5 6c7 6 16 9 26 9s19 -3 26 -9c-3 -3 -5 -6 -5 -6c-6 4 -13 7 -21 7s-15 -2 -21 -7zM384 416l-7 7c11 9 24 14 39 14c14 0 27 -5 38 -14c-2 -2 -4 -4 -6 -7c-9 8 -20 12 -32 12s-23 -5 -32 -12zM371 430l-7 8c14 12 33 19 52 19
c20 0 38 -7 52 -19c-4 -4 -7 -8 -7 -8c-12 11 -28 17 -45 17s-33 -6 -45 -17zM295 516l-7 8c34 30 79 48 128 48s94 -18 128 -49c1 0 -6 -7 -6 -7c-33 29 -76 46 -122 46s-89 -17 -121 -46zM416 240c-32 0 -61 11 -83 30l7 8c21 -17 48 -28 76 -28c29 0 55 11 75 28l7 -7
c-22 -19 -50 -31 -82 -31zM416 285c-20 0 -38 7 -53 19l7 8c13 -10 29 -17 46 -17s32 6 45 17l7 -8c-14 -12 -32 -19 -52 -19zM416 305c-15 0 -28 5 -40 14l7 7c10 -7 21 -12 33 -12s23 5 32 12l7 -7c-11 -9 -25 -14 -39 -14zM341 464l-7 7c22 19 51 31 82 31s60 -11 82 -30
l-7 -8c-20 17 -46 28 -75 28c-28 0 -54 -10 -75 -28zM320 487l-7 8c28 24 64 38 103 38s75 -15 102 -39l-6 -7c-26 23 -59 36 -96 36c-36 0 -70 -14 -96 -36zM610 597c-51 47 -119 75 -194 75c-74 0 -142 -28 -194 -74l-7 7c54 48 124 77 201 77s147 -29 201 -77zM172 654
l-7 8c67 61 155 97 251 97s185 -37 252 -97l-7 -8c-65 59 -151 95 -245 95s-179 -36 -244 -95zM516 290l-7 7c15 20 25 46 25 74s-10 54 -26 75l8 7c18 -23 28 -51 28 -82s-10 -59 -28 -81z" />
    <glyph glyph-name="ae" unicode="&#xe6;" horiz-adv-x="982" 
d="M711 -11c-151 0 -212 60 -234 156c-36 -115 -101 -156 -239 -156c-102 0 -182 32 -182 157c0 155 121 191 370 191h39c-1 137 -21 194 -171 194c-71 0 -133 -25 -168 -49l-14 20c34 23 106 53 182 53c136 0 179 -40 191 -133c27 83 90 133 221 133
c205 0 211 -135 211 -276h-427v-7c0 -153 33 -259 221 -259c93 0 134 26 180 59l16 -20c-46 -33 -101 -63 -196 -63zM238 13c162 0 227 76 227 246v54h-39c-240 0 -344 -34 -344 -167c0 -83 37 -133 156 -133zM706 531c-168 0 -211 -91 -216 -228h401
c-5 121 -11 228 -185 228z" />
    <glyph glyph-name="oslash" unicode="&#xf8;" horiz-adv-x="612" 
d="M305 -11c-52 0 -94 8 -129 23l-29 -53h-28l36 65c-68 42 -97 124 -97 248c0 193 70 283 247 283c52 0 96 -8 131 -24l29 53h28l-36 -65c67 -42 97 -124 97 -247c0 -193 -72 -283 -249 -283zM84 272c0 -114 25 -188 84 -226l256 462c-32 15 -71 23 -119 23
c-158 0 -221 -79 -221 -259zM305 13c158 0 223 79 223 259c0 113 -26 187 -85 225l-255 -463c31 -14 70 -21 117 -21z" />
    <glyph glyph-name="questiondown" unicode="&#xbf;" horiz-adv-x="640" 
d="M314 0c-190 0 -220 64 -220 162c0 93 51 131 140 188c88 57 102 89 93 218h26c10 -128 -4 -173 -102 -236c-94 -62 -131 -90 -131 -170c0 -83 26 -138 194 -138c78 0 159 19 221 53l12 -22c-61 -35 -153 -55 -233 -55zM316 689v64h50v-64h-50z" />
    <glyph glyph-name="exclamdown" unicode="&#xa1;" horiz-adv-x="332" 
d="M151 0l4 557h22l4 -557h-30zM141 677v64h50v-64h-50z" />
    <glyph glyph-name="logicalnot" unicode="&#xac;" horiz-adv-x="832" 
d="M126 120c-56 67 -90 155 -90 251c0 95 34 183 90 250c0 0 3 -2 7 -6c-54 -66 -87 -151 -87 -244s33 -178 88 -244c-5 -4 -8 -7 -8 -7zM228 211c-35 43 -57 99 -57 160s21 116 56 160c3 -2 5 -5 8 -7c-33 -41 -54 -95 -54 -153s20 -112 54 -153c-2 -3 -5 -5 -7 -7z
M264 243c-28 35 -45 79 -45 128c0 48 17 93 45 128c3 -2 5 -5 8 -7c-27 -33 -43 -75 -43 -121s16 -88 43 -121c-3 -2 -5 -5 -8 -7zM316 289c-18 23 -28 51 -28 82s10 59 28 81c2 -2 5 -4 7 -7c-15 -20 -25 -46 -25 -74s10 -54 26 -75c-3 -2 -5 -5 -8 -7zM349 320
c-10 14 -16 32 -16 51s6 37 16 51c3 -2 5 -5 8 -7c-9 -13 -14 -28 -14 -44s5 -31 14 -44c-3 -2 -5 -4 -8 -7zM378 346c-4 7 -7 16 -7 25s3 18 7 25c4 -3 6 -5 6 -5c-3 -6 -5 -13 -5 -20s2 -14 5 -20c0 0 -2 -2 -6 -5zM416 60c-78 0 -148 29 -201 77c0 0 7 8 7 7
c52 -46 120 -74 194 -74s142 28 193 74c2 -3 5 -5 7 -8c-53 -47 -123 -76 -200 -76zM416 324c-10 0 -19 3 -27 9c2 1 6 6 6 6c6 -4 13 -7 21 -7s15 2 21 7c0 0 2 -2 5 -6c-7 -6 -16 -9 -26 -9zM482 319c-2 3 -4 5 -7 7c9 13 14 29 14 45c0 17 -5 32 -14 44c0 0 8 7 7 7
c11 -14 17 -32 17 -51s-6 -37 -17 -52zM292 269c-22 28 -35 64 -35 102c0 39 13 74 36 102l7 -7c-20 -26 -33 -59 -33 -95s13 -69 33 -95c-2 -2 -5 -5 -8 -7zM416 -17c-96 0 -185 37 -252 97l7 8c65 -59 151 -95 245 -95s179 36 244 94c0 1 7 -7 7 -7
c-67 -61 -155 -97 -251 -97zM416 121c-62 0 -118 23 -161 61l7 8c41 -37 95 -59 154 -59s113 22 153 59c2 -3 5 -5 7 -8c-42 -38 -98 -61 -160 -61zM416 170c-49 0 -94 19 -129 49l7 7c33 -29 75 -46 122 -46c46 0 89 17 121 46c2 -3 5 -5 7 -8c-34 -30 -79 -48 -128 -48z
M416 209c-39 0 -75 15 -103 38l7 8c26 -22 60 -36 96 -36s70 14 96 36c2 -2 4 -5 6 -8c-27 -23 -63 -38 -102 -38zM416 265c-25 0 -48 9 -66 24l7 8c16 -14 37 -22 59 -22s42 8 58 22c2 -3 5 -5 7 -8c-18 -15 -40 -24 -65 -24zM358 445c-4 3 -7 7 -8 8c18 15 41 24 66 24
s48 -9 66 -24l-8 -8c-16 14 -36 22 -58 22s-42 -8 -58 -22zM570 552c-41 37 -95 59 -154 59s-112 -22 -153 -58l-7 7c43 38 99 61 160 61c62 0 118 -23 161 -61c-2 -3 -5 -6 -7 -8zM454 346c-4 3 -6 5 -6 5c3 6 5 13 5 20s-2 14 -5 20l6 5c4 -7 7 -16 7 -25s-3 -18 -7 -25z
M468 333c-3 3 -5 5 -8 7c6 9 10 20 10 31s-4 22 -10 31l8 7c8 -11 12 -24 12 -38s-4 -27 -12 -38zM498 306c-3 2 -6 5 -8 7c12 16 19 36 19 58s-7 42 -19 58l7 7c14 -18 22 -41 22 -65s-8 -46 -21 -65zM540 269c-3 2 -5 5 -8 7c20 26 33 59 33 95s-13 69 -34 95l8 7
c23 -28 36 -63 36 -102s-13 -74 -35 -102zM568 243c-2 2 -5 5 -8 7c27 33 43 75 43 121s-16 88 -43 121l8 7c28 -35 45 -79 45 -128s-17 -93 -45 -128zM604 211c0 0 -3 2 -8 7c35 42 55 95 55 153s-20 112 -55 153l8 7c36 -43 57 -99 57 -160s-21 -117 -57 -160zM649 171
c-2 2 -5 4 -7 6c43 53 69 120 69 194s-26 141 -70 193l8 7c45 -54 72 -124 72 -200s-27 -146 -72 -200zM706 120c0 0 -3 3 -8 7c55 66 88 151 88 244s-33 178 -88 244l8 7c56 -67 90 -155 90 -251c0 -95 -34 -183 -90 -251zM183 170c-45 55 -72 124 -72 201
c0 76 27 146 71 200c2 -2 5 -4 8 -7c-43 -52 -69 -120 -69 -193c0 -74 26 -142 69 -194zM334 306c-13 18 -21 40 -21 65c0 24 8 47 21 65c3 -2 6 -5 8 -7c-12 -16 -19 -36 -19 -58c0 -21 7 -41 19 -57zM364 333c-8 11 -12 24 -12 38s4 27 12 38c2 -3 5 -5 7 -7
c-5 -9 -9 -20 -9 -31s4 -22 9 -31zM395 403l-5 6c7 6 16 9 26 9s19 -3 26 -9c-3 -3 -5 -6 -5 -6c-6 4 -13 7 -21 7s-15 -2 -21 -7zM384 416l-7 7c11 9 24 14 39 14c14 0 27 -5 38 -14c-2 -2 -4 -4 -6 -7c-9 8 -20 12 -32 12s-23 -5 -32 -12zM371 430l-7 8c14 12 33 19 52 19
c20 0 38 -7 52 -19c-4 -4 -7 -8 -7 -8c-12 11 -28 17 -45 17s-33 -6 -45 -17zM295 516l-7 8c34 30 79 48 128 48s94 -18 128 -49c1 0 -6 -7 -6 -7c-33 29 -76 46 -122 46s-89 -17 -121 -46zM416 240c-32 0 -61 11 -83 30l7 8c21 -17 48 -28 76 -28c29 0 55 11 75 28l7 -7
c-22 -19 -50 -31 -82 -31zM416 285c-20 0 -38 7 -53 19l7 8c13 -10 29 -17 46 -17s32 6 45 17l7 -8c-14 -12 -32 -19 -52 -19zM416 305c-15 0 -28 5 -40 14l7 7c10 -7 21 -12 33 -12s23 5 32 12l7 -7c-11 -9 -25 -14 -39 -14zM341 464l-7 7c22 19 51 31 82 31s60 -11 82 -30
l-7 -8c-20 17 -46 28 -75 28c-28 0 -54 -10 -75 -28zM320 487l-7 8c28 24 64 38 103 38s75 -15 102 -39l-6 -7c-26 23 -59 36 -96 36c-36 0 -70 -14 -96 -36zM610 597c-51 47 -119 75 -194 75c-74 0 -142 -28 -194 -74l-7 7c54 48 124 77 201 77s147 -29 201 -77zM172 654
l-7 8c67 61 155 97 251 97s185 -37 252 -97l-7 -8c-65 59 -151 95 -245 95s-179 -36 -244 -95zM516 290l-7 7c15 20 25 46 25 74s-10 54 -26 75l8 7c18 -23 28 -51 28 -82s-10 -59 -28 -81z" />
    <glyph glyph-name="radical" unicode="&#x221a;" horiz-adv-x="644" 
d="M237 -4l-153 386h26l141 -356l284 715h25l-296 -745h-27z" />
    <glyph glyph-name="florin" unicode="&#x192;" horiz-adv-x="478" 
d="M90 420v24h109l31 145c17 81 32 152 152 152h17v-24h-17c-101 0 -113 -64 -127 -132l-30 -141h174v-24h-179l-123 -585h-26l123 585h-104z" />
    <glyph glyph-name="approxequal" unicode="&#x2248;" horiz-adv-x="679" 
d="M143 407l-20 14c26 34 76 73 125 73c89 0 117 -60 189 -60c39 0 74 39 99 68l19 -15c-28 -32 -70 -77 -118 -77c-79 0 -107 60 -189 60c-42 0 -82 -33 -105 -63zM143 196l-20 14c26 34 76 73 125 73c89 0 117 -60 189 -60c39 0 74 39 99 68l19 -15
c-28 -32 -70 -77 -118 -77c-79 0 -107 60 -189 60c-42 0 -82 -33 -105 -63z" />
    <glyph glyph-name="Delta" unicode="&#x394;" horiz-adv-x="832" 
d="M126 120c-56 67 -90 155 -90 251c0 95 34 183 90 250c0 0 3 -2 7 -6c-54 -66 -87 -151 -87 -244s33 -178 88 -244c-5 -4 -8 -7 -8 -7zM228 211c-35 43 -57 99 -57 160s21 116 56 160c3 -2 5 -5 8 -7c-33 -41 -54 -95 -54 -153s20 -112 54 -153c-2 -3 -5 -5 -7 -7z
M264 243c-28 35 -45 79 -45 128c0 48 17 93 45 128c3 -2 5 -5 8 -7c-27 -33 -43 -75 -43 -121s16 -88 43 -121c-3 -2 -5 -5 -8 -7zM316 289c-18 23 -28 51 -28 82s10 59 28 81c2 -2 5 -4 7 -7c-15 -20 -25 -46 -25 -74s10 -54 26 -75c-3 -2 -5 -5 -8 -7zM349 320
c-10 14 -16 32 -16 51s6 37 16 51c3 -2 5 -5 8 -7c-9 -13 -14 -28 -14 -44s5 -31 14 -44c-3 -2 -5 -4 -8 -7zM378 346c-4 7 -7 16 -7 25s3 18 7 25c4 -3 6 -5 6 -5c-3 -6 -5 -13 -5 -20s2 -14 5 -20c0 0 -2 -2 -6 -5zM416 60c-78 0 -148 29 -201 77c0 0 7 8 7 7
c52 -46 120 -74 194 -74s142 28 193 74c2 -3 5 -5 7 -8c-53 -47 -123 -76 -200 -76zM416 324c-10 0 -19 3 -27 9c2 1 6 6 6 6c6 -4 13 -7 21 -7s15 2 21 7c0 0 2 -2 5 -6c-7 -6 -16 -9 -26 -9zM482 319c-2 3 -4 5 -7 7c9 13 14 29 14 45c0 17 -5 32 -14 44c0 0 8 7 7 7
c11 -14 17 -32 17 -51s-6 -37 -17 -52zM292 269c-22 28 -35 64 -35 102c0 39 13 74 36 102l7 -7c-20 -26 -33 -59 -33 -95s13 -69 33 -95c-2 -2 -5 -5 -8 -7zM416 -17c-96 0 -185 37 -252 97l7 8c65 -59 151 -95 245 -95s179 36 244 94c0 1 7 -7 7 -7
c-67 -61 -155 -97 -251 -97zM416 121c-62 0 -118 23 -161 61l7 8c41 -37 95 -59 154 -59s113 22 153 59c2 -3 5 -5 7 -8c-42 -38 -98 -61 -160 -61zM416 170c-49 0 -94 19 -129 49l7 7c33 -29 75 -46 122 -46c46 0 89 17 121 46c2 -3 5 -5 7 -8c-34 -30 -79 -48 -128 -48z
M416 209c-39 0 -75 15 -103 38l7 8c26 -22 60 -36 96 -36s70 14 96 36c2 -2 4 -5 6 -8c-27 -23 -63 -38 -102 -38zM416 265c-25 0 -48 9 -66 24l7 8c16 -14 37 -22 59 -22s42 8 58 22c2 -3 5 -5 7 -8c-18 -15 -40 -24 -65 -24zM358 445c-4 3 -7 7 -8 8c18 15 41 24 66 24
s48 -9 66 -24l-8 -8c-16 14 -36 22 -58 22s-42 -8 -58 -22zM570 552c-41 37 -95 59 -154 59s-112 -22 -153 -58l-7 7c43 38 99 61 160 61c62 0 118 -23 161 -61c-2 -3 -5 -6 -7 -8zM454 346c-4 3 -6 5 -6 5c3 6 5 13 5 20s-2 14 -5 20l6 5c4 -7 7 -16 7 -25s-3 -18 -7 -25z
M468 333c-3 3 -5 5 -8 7c6 9 10 20 10 31s-4 22 -10 31l8 7c8 -11 12 -24 12 -38s-4 -27 -12 -38zM498 306c-3 2 -6 5 -8 7c12 16 19 36 19 58s-7 42 -19 58l7 7c14 -18 22 -41 22 -65s-8 -46 -21 -65zM540 269c-3 2 -5 5 -8 7c20 26 33 59 33 95s-13 69 -34 95l8 7
c23 -28 36 -63 36 -102s-13 -74 -35 -102zM568 243c-2 2 -5 5 -8 7c27 33 43 75 43 121s-16 88 -43 121l8 7c28 -35 45 -79 45 -128s-17 -93 -45 -128zM604 211c0 0 -3 2 -8 7c35 42 55 95 55 153s-20 112 -55 153l8 7c36 -43 57 -99 57 -160s-21 -117 -57 -160zM649 171
c-2 2 -5 4 -7 6c43 53 69 120 69 194s-26 141 -70 193l8 7c45 -54 72 -124 72 -200s-27 -146 -72 -200zM706 120c0 0 -3 3 -8 7c55 66 88 151 88 244s-33 178 -88 244l8 7c56 -67 90 -155 90 -251c0 -95 -34 -183 -90 -251zM183 170c-45 55 -72 124 -72 201
c0 76 27 146 71 200c2 -2 5 -4 8 -7c-43 -52 -69 -120 -69 -193c0 -74 26 -142 69 -194zM334 306c-13 18 -21 40 -21 65c0 24 8 47 21 65c3 -2 6 -5 8 -7c-12 -16 -19 -36 -19 -58c0 -21 7 -41 19 -57zM364 333c-8 11 -12 24 -12 38s4 27 12 38c2 -3 5 -5 7 -7
c-5 -9 -9 -20 -9 -31s4 -22 9 -31zM395 403l-5 6c7 6 16 9 26 9s19 -3 26 -9c-3 -3 -5 -6 -5 -6c-6 4 -13 7 -21 7s-15 -2 -21 -7zM384 416l-7 7c11 9 24 14 39 14c14 0 27 -5 38 -14c-2 -2 -4 -4 -6 -7c-9 8 -20 12 -32 12s-23 -5 -32 -12zM371 430l-7 8c14 12 33 19 52 19
c20 0 38 -7 52 -19c-4 -4 -7 -8 -7 -8c-12 11 -28 17 -45 17s-33 -6 -45 -17zM295 516l-7 8c34 30 79 48 128 48s94 -18 128 -49c1 0 -6 -7 -6 -7c-33 29 -76 46 -122 46s-89 -17 -121 -46zM416 240c-32 0 -61 11 -83 30l7 8c21 -17 48 -28 76 -28c29 0 55 11 75 28l7 -7
c-22 -19 -50 -31 -82 -31zM416 285c-20 0 -38 7 -53 19l7 8c13 -10 29 -17 46 -17s32 6 45 17l7 -8c-14 -12 -32 -19 -52 -19zM416 305c-15 0 -28 5 -40 14l7 7c10 -7 21 -12 33 -12s23 5 32 12l7 -7c-11 -9 -25 -14 -39 -14zM341 464l-7 7c22 19 51 31 82 31s60 -11 82 -30
l-7 -8c-20 17 -46 28 -75 28c-28 0 -54 -10 -75 -28zM320 487l-7 8c28 24 64 38 103 38s75 -15 102 -39l-6 -7c-26 23 -59 36 -96 36c-36 0 -70 -14 -96 -36zM610 597c-51 47 -119 75 -194 75c-74 0 -142 -28 -194 -74l-7 7c54 48 124 77 201 77s147 -29 201 -77zM172 654
l-7 8c67 61 155 97 251 97s185 -37 252 -97l-7 -8c-65 59 -151 95 -245 95s-179 -36 -244 -95zM516 290l-7 7c15 20 25 46 25 74s-10 54 -26 75l8 7c18 -23 28 -51 28 -82s-10 -59 -28 -81z" />
    <glyph glyph-name="Delta" unicode="&#x2206;" horiz-adv-x="832" 
d="M126 120c-56 67 -90 155 -90 251c0 95 34 183 90 250c0 0 3 -2 7 -6c-54 -66 -87 -151 -87 -244s33 -178 88 -244c-5 -4 -8 -7 -8 -7zM228 211c-35 43 -57 99 -57 160s21 116 56 160c3 -2 5 -5 8 -7c-33 -41 -54 -95 -54 -153s20 -112 54 -153c-2 -3 -5 -5 -7 -7z
M264 243c-28 35 -45 79 -45 128c0 48 17 93 45 128c3 -2 5 -5 8 -7c-27 -33 -43 -75 -43 -121s16 -88 43 -121c-3 -2 -5 -5 -8 -7zM316 289c-18 23 -28 51 -28 82s10 59 28 81c2 -2 5 -4 7 -7c-15 -20 -25 -46 -25 -74s10 -54 26 -75c-3 -2 -5 -5 -8 -7zM349 320
c-10 14 -16 32 -16 51s6 37 16 51c3 -2 5 -5 8 -7c-9 -13 -14 -28 -14 -44s5 -31 14 -44c-3 -2 -5 -4 -8 -7zM378 346c-4 7 -7 16 -7 25s3 18 7 25c4 -3 6 -5 6 -5c-3 -6 -5 -13 -5 -20s2 -14 5 -20c0 0 -2 -2 -6 -5zM416 60c-78 0 -148 29 -201 77c0 0 7 8 7 7
c52 -46 120 -74 194 -74s142 28 193 74c2 -3 5 -5 7 -8c-53 -47 -123 -76 -200 -76zM416 324c-10 0 -19 3 -27 9c2 1 6 6 6 6c6 -4 13 -7 21 -7s15 2 21 7c0 0 2 -2 5 -6c-7 -6 -16 -9 -26 -9zM482 319c-2 3 -4 5 -7 7c9 13 14 29 14 45c0 17 -5 32 -14 44c0 0 8 7 7 7
c11 -14 17 -32 17 -51s-6 -37 -17 -52zM292 269c-22 28 -35 64 -35 102c0 39 13 74 36 102l7 -7c-20 -26 -33 -59 -33 -95s13 -69 33 -95c-2 -2 -5 -5 -8 -7zM416 -17c-96 0 -185 37 -252 97l7 8c65 -59 151 -95 245 -95s179 36 244 94c0 1 7 -7 7 -7
c-67 -61 -155 -97 -251 -97zM416 121c-62 0 -118 23 -161 61l7 8c41 -37 95 -59 154 -59s113 22 153 59c2 -3 5 -5 7 -8c-42 -38 -98 -61 -160 -61zM416 170c-49 0 -94 19 -129 49l7 7c33 -29 75 -46 122 -46c46 0 89 17 121 46c2 -3 5 -5 7 -8c-34 -30 -79 -48 -128 -48z
M416 209c-39 0 -75 15 -103 38l7 8c26 -22 60 -36 96 -36s70 14 96 36c2 -2 4 -5 6 -8c-27 -23 -63 -38 -102 -38zM416 265c-25 0 -48 9 -66 24l7 8c16 -14 37 -22 59 -22s42 8 58 22c2 -3 5 -5 7 -8c-18 -15 -40 -24 -65 -24zM358 445c-4 3 -7 7 -8 8c18 15 41 24 66 24
s48 -9 66 -24l-8 -8c-16 14 -36 22 -58 22s-42 -8 -58 -22zM570 552c-41 37 -95 59 -154 59s-112 -22 -153 -58l-7 7c43 38 99 61 160 61c62 0 118 -23 161 -61c-2 -3 -5 -6 -7 -8zM454 346c-4 3 -6 5 -6 5c3 6 5 13 5 20s-2 14 -5 20l6 5c4 -7 7 -16 7 -25s-3 -18 -7 -25z
M468 333c-3 3 -5 5 -8 7c6 9 10 20 10 31s-4 22 -10 31l8 7c8 -11 12 -24 12 -38s-4 -27 -12 -38zM498 306c-3 2 -6 5 -8 7c12 16 19 36 19 58s-7 42 -19 58l7 7c14 -18 22 -41 22 -65s-8 -46 -21 -65zM540 269c-3 2 -5 5 -8 7c20 26 33 59 33 95s-13 69 -34 95l8 7
c23 -28 36 -63 36 -102s-13 -74 -35 -102zM568 243c-2 2 -5 5 -8 7c27 33 43 75 43 121s-16 88 -43 121l8 7c28 -35 45 -79 45 -128s-17 -93 -45 -128zM604 211c0 0 -3 2 -8 7c35 42 55 95 55 153s-20 112 -55 153l8 7c36 -43 57 -99 57 -160s-21 -117 -57 -160zM649 171
c-2 2 -5 4 -7 6c43 53 69 120 69 194s-26 141 -70 193l8 7c45 -54 72 -124 72 -200s-27 -146 -72 -200zM706 120c0 0 -3 3 -8 7c55 66 88 151 88 244s-33 178 -88 244l8 7c56 -67 90 -155 90 -251c0 -95 -34 -183 -90 -251zM183 170c-45 55 -72 124 -72 201
c0 76 27 146 71 200c2 -2 5 -4 8 -7c-43 -52 -69 -120 -69 -193c0 -74 26 -142 69 -194zM334 306c-13 18 -21 40 -21 65c0 24 8 47 21 65c3 -2 6 -5 8 -7c-12 -16 -19 -36 -19 -58c0 -21 7 -41 19 -57zM364 333c-8 11 -12 24 -12 38s4 27 12 38c2 -3 5 -5 7 -7
c-5 -9 -9 -20 -9 -31s4 -22 9 -31zM395 403l-5 6c7 6 16 9 26 9s19 -3 26 -9c-3 -3 -5 -6 -5 -6c-6 4 -13 7 -21 7s-15 -2 -21 -7zM384 416l-7 7c11 9 24 14 39 14c14 0 27 -5 38 -14c-2 -2 -4 -4 -6 -7c-9 8 -20 12 -32 12s-23 -5 -32 -12zM371 430l-7 8c14 12 33 19 52 19
c20 0 38 -7 52 -19c-4 -4 -7 -8 -7 -8c-12 11 -28 17 -45 17s-33 -6 -45 -17zM295 516l-7 8c34 30 79 48 128 48s94 -18 128 -49c1 0 -6 -7 -6 -7c-33 29 -76 46 -122 46s-89 -17 -121 -46zM416 240c-32 0 -61 11 -83 30l7 8c21 -17 48 -28 76 -28c29 0 55 11 75 28l7 -7
c-22 -19 -50 -31 -82 -31zM416 285c-20 0 -38 7 -53 19l7 8c13 -10 29 -17 46 -17s32 6 45 17l7 -8c-14 -12 -32 -19 -52 -19zM416 305c-15 0 -28 5 -40 14l7 7c10 -7 21 -12 33 -12s23 5 32 12l7 -7c-11 -9 -25 -14 -39 -14zM341 464l-7 7c22 19 51 31 82 31s60 -11 82 -30
l-7 -8c-20 17 -46 28 -75 28c-28 0 -54 -10 -75 -28zM320 487l-7 8c28 24 64 38 103 38s75 -15 102 -39l-6 -7c-26 23 -59 36 -96 36c-36 0 -70 -14 -96 -36zM610 597c-51 47 -119 75 -194 75c-74 0 -142 -28 -194 -74l-7 7c54 48 124 77 201 77s147 -29 201 -77zM172 654
l-7 8c67 61 155 97 251 97s185 -37 252 -97l-7 -8c-65 59 -151 95 -245 95s-179 -36 -244 -95zM516 290l-7 7c15 20 25 46 25 74s-10 54 -26 75l8 7c18 -23 28 -51 28 -82s-10 -59 -28 -81z" />
    <glyph glyph-name="guillemotleft" unicode="&#xab;" horiz-adv-x="623" 
d="M243 0l-151 271l151 271h26l-151 -271l151 -271h-26zM482 0l-151 271l151 271h26l-151 -271l151 -271h-26z" />
    <glyph glyph-name="guillemotright" unicode="&#xbb;" horiz-adv-x="623" 
d="M115 0l151 271l-151 271h26l151 -271l-151 -271h-26zM354 0l151 271l-151 271h26l151 -271l-151 -271h-26z" />
    <glyph glyph-name="ellipsis" unicode="&#x2026;" horiz-adv-x="586" 
d="M78 0v64h50v-64h-50zM267 0v64h50v-64h-50zM458 0v64h50v-64h-50z" />
    <glyph glyph-name="Agrave" unicode="&#xc0;" horiz-adv-x="687" 
d="M35 0l297 746h23l297 -746h-26l-82 205h-403l-81 -205h-25zM150 228h385l-192 483zM373 788l-160 138h35l156 -138h-31z" />
    <glyph glyph-name="Atilde" unicode="&#xc3;" horiz-adv-x="687" 
d="M35 0l297 746h23l297 -746h-26l-82 205h-403l-81 -205h-25zM150 228h385l-192 483zM202 794l-21 14c19 26 57 54 94 54c65 0 86 -45 139 -45c27 0 55 29 74 51l19 -15c-22 -26 -54 -60 -93 -60c-57 0 -90 45 -139 45c-27 0 -58 -23 -73 -44z" />
    <glyph glyph-name="Otilde" unicode="&#xd5;" horiz-adv-x="822" 
d="M410 -11c-238 0 -360 127 -360 382s122 382 360 382c239 0 362 -127 362 -382s-123 -382 -362 -382zM410 13c222 0 336 119 336 358s-114 358 -336 358c-220 0 -334 -119 -334 -358s114 -358 334 -358zM270 794l-21 14c19 26 57 54 94 54c65 0 86 -45 139 -45
c27 0 55 29 74 51l19 -15c-22 -26 -54 -60 -93 -60c-57 0 -90 45 -139 45c-27 0 -58 -23 -73 -44z" />
    <glyph glyph-name="OE" unicode="&#x152;" horiz-adv-x="1259" 
d="M747 0v197c-44 -139 -152 -208 -337 -208c-250 0 -360 127 -360 382s110 382 360 382c185 0 293 -70 337 -209v197h447v-24h-423v-315h413v-24h-413v-354h427v-24h-451zM410 13c232 0 336 119 336 358s-104 358 -336 358c-231 0 -334 -119 -334 -358s103 -358 334 -358z
" />
    <glyph glyph-name="oe" unicode="&#x153;" horiz-adv-x="1045" 
d="M774 -11c-154 0 -214 62 -235 161c-27 -109 -100 -161 -234 -161c-177 0 -247 90 -247 283s70 283 247 283c135 0 208 -53 235 -163c22 101 83 163 229 163c205 0 211 -135 211 -276h-427v-7c0 -153 33 -259 221 -259c93 0 134 26 180 59l16 -20
c-46 -33 -101 -63 -196 -63zM305 13c158 0 223 79 223 259s-65 259 -223 259s-221 -79 -221 -259s63 -259 221 -259zM769 531c-168 0 -211 -91 -216 -228h401c-5 121 -11 228 -185 228z" />
    <glyph glyph-name="endash" unicode="&#x2013;" horiz-adv-x="672" 
d="M61 281v24h551v-24h-551z" />
    <glyph glyph-name="emdash" unicode="&#x2014;" horiz-adv-x="896" 
d="M61 281v24h775v-24h-775z" />
    <glyph glyph-name="quotedblleft" unicode="&#x201c;" horiz-adv-x="349" 
d="M78 578v60c0 56 14 81 50 103l12 -17c-29 -18 -40 -36 -40 -77h28v-69h-50zM221 578v60c0 56 14 81 50 103l12 -17c-29 -18 -40 -36 -40 -77h28v-69h-50z" />
    <glyph glyph-name="quotedblright" unicode="&#x201d;" horiz-adv-x="349" 
d="M78 578l-12 17c29 18 40 36 40 77h-28v69h50v-60c0 -56 -14 -81 -50 -103zM221 578l-12 17c29 18 40 36 40 77h-28v69h50v-60c0 -56 -14 -81 -50 -103z" />
    <glyph glyph-name="quoteleft" unicode="&#x2018;" horiz-adv-x="206" 
d="M78 582v60c0 56 14 81 50 103l12 -17c-29 -18 -40 -36 -40 -77h28v-69h-50z" />
    <glyph glyph-name="quoteright" unicode="&#x2019;" horiz-adv-x="206" 
d="M78 578l-12 17c29 18 40 36 40 77h-28v69h50v-60c0 -56 -14 -81 -50 -103z" />
    <glyph glyph-name="divide" unicode="&#xf7;" horiz-adv-x="679" 
d="M315 128v64h50v-64h-50zM114 341v24h450v-24h-450zM315 514v64h50v-64h-50z" />
    <glyph glyph-name="lozenge" unicode="&#x25ca;" horiz-adv-x="620" 
d="M297 0l-230 370l230 371h26l230 -371l-230 -370h-26zM310 21l216 348l-217 350l-216 -349z" />
    <glyph glyph-name="ydieresis" unicode="&#xff;" horiz-adv-x="497" 
d="M123 -165h-43v24h43c43 0 67 21 86 70l27 69l-216 544h26l203 -512l203 512h25l-244 -616c-25 -62 -55 -91 -110 -91zM135 603v79h26v-79h-26zM335 603v79h26v-79h-26z" />
    <glyph glyph-name="Ydieresis" unicode="&#x178;" horiz-adv-x="663" 
d="M319 0v305l-299 436h29l283 -412l283 412h28l-298 -434v-307h-26zM218 788v79h26v-79h-26zM418 788v79h26v-79h-26z" />
    <glyph glyph-name="fraction" unicode="&#x2044;" horiz-adv-x="445" 
d="M0 0l416 741h29l-416 -741h-29z" />
    <glyph glyph-name="fraction" unicode="&#x2215;" horiz-adv-x="445" 
d="M0 0l416 741h29l-416 -741h-29z" />
    <glyph glyph-name="Euro" unicode="&#x20ac;" horiz-adv-x="629" 
d="M46 438v24h109c13 180 74 291 244 291c66 0 111 -11 156 -34l-12 -21c-41 21 -82 31 -144 31c-150 0 -206 -102 -218 -267h293v-24h-295c-1 -21 -1 -42 -1 -64c0 -18 0 -36 1 -52h295v-24h-294c10 -184 61 -285 218 -285c57 0 101 6 146 34l14 -20
c-50 -31 -97 -38 -160 -38c-177 0 -234 110 -244 309h-108v24h107c-1 17 -1 34 -1 52c0 22 0 43 1 64h-107z" />
    <glyph glyph-name="guilsinglleft" unicode="&#x2039;" horiz-adv-x="384" 
d="M243 0l-151 271l151 271h26l-151 -271l151 -271h-26z" />
    <glyph glyph-name="guilsinglright" unicode="&#x203a;" horiz-adv-x="384" 
d="M115 0l151 271l-151 271h26l151 -271l-151 -271h-26z" />
    <glyph glyph-name="daggerdbl" unicode="&#x2021;" horiz-adv-x="506" 
d="M240 -165v271h-175v24h175v388h-175v24h175v234h26v-234h175v-24h-175v-388h175v-24h-175v-271h-26z" />
    <glyph glyph-name="periodcentered" unicode="&#xb7;" horiz-adv-x="206" 
d="M78 274v64h50v-64h-50z" />
    <glyph glyph-name="periodcentered" unicode="&#x2219;" horiz-adv-x="206" 
d="M78 274v64h50v-64h-50z" />
    <glyph glyph-name="quotesinglbase" unicode="&#x201a;" horiz-adv-x="206" 
d="M78 -70l-12 17c29 18 40 36 40 77h-28v69h50v-60c0 -56 -14 -81 -50 -103z" />
    <glyph glyph-name="quotedblbase" unicode="&#x201e;" horiz-adv-x="349" 
d="M78 -70l-12 17c29 18 40 36 40 77h-28v69h50v-60c0 -56 -14 -81 -50 -103zM221 -70l-12 17c29 18 40 36 40 77h-28v69h50v-60c0 -56 -14 -81 -50 -103z" />
    <glyph glyph-name="perthousand" unicode="&#x2030;" horiz-adv-x="1426" 
d="M227 299c-136 0 -175 101 -175 226c0 126 39 228 175 228s176 -102 176 -228c0 -125 -40 -226 -176 -226zM227 323c116 0 150 90 150 202c0 113 -34 204 -150 204c-115 0 -149 -91 -149 -204c0 -112 34 -202 149 -202zM796 -11c-136 0 -175 101 -175 226
c0 126 39 228 175 228s176 -102 176 -228c0 -125 -40 -226 -176 -226zM796 13c116 0 150 90 150 202c0 113 -34 204 -150 204c-115 0 -149 -91 -149 -204c0 -112 34 -202 149 -202zM1198 -11c-136 0 -175 101 -175 226c0 126 39 228 175 228s176 -102 176 -228
c0 -125 -40 -226 -176 -226zM1198 13c116 0 150 90 150 202c0 113 -34 204 -150 204c-115 0 -149 -91 -149 -204c0 -112 34 -202 149 -202zM292 0l412 741h27l-412 -741h-27z" />
    <glyph glyph-name="Acircumflex" unicode="&#xc2;" horiz-adv-x="687" 
d="M35 0l297 746h23l297 -746h-26l-82 205h-403l-81 -205h-25zM150 228h385l-192 483zM173 788l151 138h37l151 -138h-33l-137 122l-137 -122h-32z" />
    <glyph glyph-name="Ecircumflex" unicode="&#xca;" horiz-adv-x="609" 
d="M95 0v741h449v-24h-423v-315h413v-24h-413v-354h427v-24h-453zM134 788l151 138h37l151 -138h-33l-137 122l-137 -122h-32z" />
    <glyph glyph-name="Aacute" unicode="&#xc1;" horiz-adv-x="687" 
d="M35 0l297 746h23l297 -746h-26l-82 205h-403l-81 -205h-25zM150 228h385l-192 483zM282 788l156 138h35l-160 -138h-31z" />
    <glyph glyph-name="Edieresis" unicode="&#xcb;" horiz-adv-x="609" 
d="M95 0v741h449v-24h-423v-315h413v-24h-413v-354h427v-24h-453zM191 788v79h26v-79h-26zM391 788v79h26v-79h-26z" />
    <glyph glyph-name="Egrave" unicode="&#xc8;" horiz-adv-x="609" 
d="M95 0v741h449v-24h-423v-315h413v-24h-413v-354h427v-24h-453zM334 788l-160 138h35l156 -138h-31z" />
    <glyph glyph-name="Iacute" unicode="&#xcd;" horiz-adv-x="226" 
d="M100 788l128 138h33l-132 -138h-29zM100 0v741h26v-741h-26z" />
    <glyph glyph-name="Icircumflex" unicode="&#xce;" horiz-adv-x="226" 
d="M-25 788l121 138h33l121 -138h-31l-107 122l-107 -122h-30zM100 0v741h26v-741h-26z" />
    <glyph glyph-name="Idieresis" unicode="&#xcf;" horiz-adv-x="226" 
d="M100 0v741h26v-741h-26zM0 788v79h26v-79h-26zM200 788v79h26v-79h-26z" />
    <glyph glyph-name="Igrave" unicode="&#xcc;" horiz-adv-x="226" 
d="M97 788l-132 138h33l128 -138h-29zM100 0v741h26v-741h-26z" />
    <glyph glyph-name="Oacute" unicode="&#xd3;" horiz-adv-x="822" 
d="M410 -11c-238 0 -360 127 -360 382s122 382 360 382c239 0 362 -127 362 -382s-123 -382 -362 -382zM410 13c222 0 336 119 336 358s-114 358 -336 358c-220 0 -334 -119 -334 -358s114 -358 334 -358zM350 788l156 138h35l-160 -138h-31z" />
    <glyph glyph-name="Ocircumflex" unicode="&#xd4;" horiz-adv-x="822" 
d="M410 -11c-238 0 -360 127 -360 382s122 382 360 382c239 0 362 -127 362 -382s-123 -382 -362 -382zM410 13c222 0 336 119 336 358s-114 358 -336 358c-220 0 -334 -119 -334 -358s114 -358 334 -358zM241 788l151 138h37l151 -138h-33l-137 122l-137 -122h-32z" />
    <glyph glyph-name="apple" unicode="&#xf8ff;" horiz-adv-x="832" 
d="M126 120c-56 67 -90 155 -90 251c0 95 34 183 90 250c0 0 3 -2 7 -6c-54 -66 -87 -151 -87 -244s33 -178 88 -244c-5 -4 -8 -7 -8 -7zM228 211c-35 43 -57 99 -57 160s21 116 56 160c3 -2 5 -5 8 -7c-33 -41 -54 -95 -54 -153s20 -112 54 -153c-2 -3 -5 -5 -7 -7z
M264 243c-28 35 -45 79 -45 128c0 48 17 93 45 128c3 -2 5 -5 8 -7c-27 -33 -43 -75 -43 -121s16 -88 43 -121c-3 -2 -5 -5 -8 -7zM316 289c-18 23 -28 51 -28 82s10 59 28 81c2 -2 5 -4 7 -7c-15 -20 -25 -46 -25 -74s10 -54 26 -75c-3 -2 -5 -5 -8 -7zM349 320
c-10 14 -16 32 -16 51s6 37 16 51c3 -2 5 -5 8 -7c-9 -13 -14 -28 -14 -44s5 -31 14 -44c-3 -2 -5 -4 -8 -7zM378 346c-4 7 -7 16 -7 25s3 18 7 25c4 -3 6 -5 6 -5c-3 -6 -5 -13 -5 -20s2 -14 5 -20c0 0 -2 -2 -6 -5zM416 60c-78 0 -148 29 -201 77c0 0 7 8 7 7
c52 -46 120 -74 194 -74s142 28 193 74c2 -3 5 -5 7 -8c-53 -47 -123 -76 -200 -76zM416 324c-10 0 -19 3 -27 9c2 1 6 6 6 6c6 -4 13 -7 21 -7s15 2 21 7c0 0 2 -2 5 -6c-7 -6 -16 -9 -26 -9zM482 319c-2 3 -4 5 -7 7c9 13 14 29 14 45c0 17 -5 32 -14 44c0 0 8 7 7 7
c11 -14 17 -32 17 -51s-6 -37 -17 -52zM292 269c-22 28 -35 64 -35 102c0 39 13 74 36 102l7 -7c-20 -26 -33 -59 -33 -95s13 -69 33 -95c-2 -2 -5 -5 -8 -7zM416 -17c-96 0 -185 37 -252 97l7 8c65 -59 151 -95 245 -95s179 36 244 94c0 1 7 -7 7 -7
c-67 -61 -155 -97 -251 -97zM416 121c-62 0 -118 23 -161 61l7 8c41 -37 95 -59 154 -59s113 22 153 59c2 -3 5 -5 7 -8c-42 -38 -98 -61 -160 -61zM416 170c-49 0 -94 19 -129 49l7 7c33 -29 75 -46 122 -46c46 0 89 17 121 46c2 -3 5 -5 7 -8c-34 -30 -79 -48 -128 -48z
M416 209c-39 0 -75 15 -103 38l7 8c26 -22 60 -36 96 -36s70 14 96 36c2 -2 4 -5 6 -8c-27 -23 -63 -38 -102 -38zM416 265c-25 0 -48 9 -66 24l7 8c16 -14 37 -22 59 -22s42 8 58 22c2 -3 5 -5 7 -8c-18 -15 -40 -24 -65 -24zM358 445c-4 3 -7 7 -8 8c18 15 41 24 66 24
s48 -9 66 -24l-8 -8c-16 14 -36 22 -58 22s-42 -8 -58 -22zM570 552c-41 37 -95 59 -154 59s-112 -22 -153 -58l-7 7c43 38 99 61 160 61c62 0 118 -23 161 -61c-2 -3 -5 -6 -7 -8zM454 346c-4 3 -6 5 -6 5c3 6 5 13 5 20s-2 14 -5 20l6 5c4 -7 7 -16 7 -25s-3 -18 -7 -25z
M468 333c-3 3 -5 5 -8 7c6 9 10 20 10 31s-4 22 -10 31l8 7c8 -11 12 -24 12 -38s-4 -27 -12 -38zM498 306c-3 2 -6 5 -8 7c12 16 19 36 19 58s-7 42 -19 58l7 7c14 -18 22 -41 22 -65s-8 -46 -21 -65zM540 269c-3 2 -5 5 -8 7c20 26 33 59 33 95s-13 69 -34 95l8 7
c23 -28 36 -63 36 -102s-13 -74 -35 -102zM568 243c-2 2 -5 5 -8 7c27 33 43 75 43 121s-16 88 -43 121l8 7c28 -35 45 -79 45 -128s-17 -93 -45 -128zM604 211c0 0 -3 2 -8 7c35 42 55 95 55 153s-20 112 -55 153l8 7c36 -43 57 -99 57 -160s-21 -117 -57 -160zM649 171
c-2 2 -5 4 -7 6c43 53 69 120 69 194s-26 141 -70 193l8 7c45 -54 72 -124 72 -200s-27 -146 -72 -200zM706 120c0 0 -3 3 -8 7c55 66 88 151 88 244s-33 178 -88 244l8 7c56 -67 90 -155 90 -251c0 -95 -34 -183 -90 -251zM183 170c-45 55 -72 124 -72 201
c0 76 27 146 71 200c2 -2 5 -4 8 -7c-43 -52 -69 -120 -69 -193c0 -74 26 -142 69 -194zM334 306c-13 18 -21 40 -21 65c0 24 8 47 21 65c3 -2 6 -5 8 -7c-12 -16 -19 -36 -19 -58c0 -21 7 -41 19 -57zM364 333c-8 11 -12 24 -12 38s4 27 12 38c2 -3 5 -5 7 -7
c-5 -9 -9 -20 -9 -31s4 -22 9 -31zM395 403l-5 6c7 6 16 9 26 9s19 -3 26 -9c-3 -3 -5 -6 -5 -6c-6 4 -13 7 -21 7s-15 -2 -21 -7zM384 416l-7 7c11 9 24 14 39 14c14 0 27 -5 38 -14c-2 -2 -4 -4 -6 -7c-9 8 -20 12 -32 12s-23 -5 -32 -12zM371 430l-7 8c14 12 33 19 52 19
c20 0 38 -7 52 -19c-4 -4 -7 -8 -7 -8c-12 11 -28 17 -45 17s-33 -6 -45 -17zM295 516l-7 8c34 30 79 48 128 48s94 -18 128 -49c1 0 -6 -7 -6 -7c-33 29 -76 46 -122 46s-89 -17 -121 -46zM416 240c-32 0 -61 11 -83 30l7 8c21 -17 48 -28 76 -28c29 0 55 11 75 28l7 -7
c-22 -19 -50 -31 -82 -31zM416 285c-20 0 -38 7 -53 19l7 8c13 -10 29 -17 46 -17s32 6 45 17l7 -8c-14 -12 -32 -19 -52 -19zM416 305c-15 0 -28 5 -40 14l7 7c10 -7 21 -12 33 -12s23 5 32 12l7 -7c-11 -9 -25 -14 -39 -14zM341 464l-7 7c22 19 51 31 82 31s60 -11 82 -30
l-7 -8c-20 17 -46 28 -75 28c-28 0 -54 -10 -75 -28zM320 487l-7 8c28 24 64 38 103 38s75 -15 102 -39l-6 -7c-26 23 -59 36 -96 36c-36 0 -70 -14 -96 -36zM610 597c-51 47 -119 75 -194 75c-74 0 -142 -28 -194 -74l-7 7c54 48 124 77 201 77s147 -29 201 -77zM172 654
l-7 8c67 61 155 97 251 97s185 -37 252 -97l-7 -8c-65 59 -151 95 -245 95s-179 -36 -244 -95zM516 290l-7 7c15 20 25 46 25 74s-10 54 -26 75l8 7c18 -23 28 -51 28 -82s-10 -59 -28 -81z" />
    <glyph glyph-name="Ograve" unicode="&#xd2;" horiz-adv-x="822" 
d="M410 -11c-238 0 -360 127 -360 382s122 382 360 382c239 0 362 -127 362 -382s-123 -382 -362 -382zM410 13c222 0 336 119 336 358s-114 358 -336 358c-220 0 -334 -119 -334 -358s114 -358 334 -358zM441 788l-160 138h35l156 -138h-31z" />
    <glyph glyph-name="Uacute" unicode="&#xda;" horiz-adv-x="755" 
d="M376 -11c-232 0 -286 118 -286 267v485h26v-485c0 -136 48 -243 260 -243c215 0 263 106 263 243v485h26v-485c0 -150 -56 -267 -289 -267zM316 788l156 138h35l-160 -138h-31z" />
    <glyph glyph-name="Ucircumflex" unicode="&#xdb;" horiz-adv-x="755" 
d="M376 -11c-232 0 -286 118 -286 267v485h26v-485c0 -136 48 -243 260 -243c215 0 263 106 263 243v485h26v-485c0 -150 -56 -267 -289 -267zM207 788l151 138h37l151 -138h-33l-137 122l-137 -122h-32z" />
    <glyph glyph-name="Ugrave" unicode="&#xd9;" horiz-adv-x="755" 
d="M376 -11c-232 0 -286 118 -286 267v485h26v-485c0 -136 48 -243 260 -243c215 0 263 106 263 243v485h26v-485c0 -150 -56 -267 -289 -267zM407 788l-160 138h35l156 -138h-31z" />
    <glyph glyph-name="dotlessi" unicode="&#x131;" horiz-adv-x="204" 
d="M89 0v542h26v-542h-26z" />
    <glyph glyph-name="circumflex" unicode="&#x2c6;" horiz-adv-x="590" 
d="M125 603l151 138h37l151 -138h-33l-137 122l-137 -122h-32z" />
    <glyph glyph-name="tilde" unicode="&#x2dc;" horiz-adv-x="590" 
d="M154 609l-21 14c19 26 57 54 94 54c65 0 86 -45 139 -45c27 0 55 29 74 51l19 -15c-22 -26 -54 -60 -93 -60c-57 0 -90 45 -139 45c-27 0 -58 -23 -73 -44z" />
    <glyph glyph-name="macron" unicode="&#xaf;" horiz-adv-x="590" 
d="M134 603v24h322v-24h-322z" />
    <glyph glyph-name="macron" unicode="&#x2c9;" horiz-adv-x="590" 
d="M134 603v24h322v-24h-322z" />
    <glyph glyph-name="breve" unicode="&#x2d8;" horiz-adv-x="590" 
d="M295 596c-123 0 -158 62 -171 116l25 6c11 -46 41 -98 146 -98c104 0 134 52 145 98l25 -6c-13 -54 -48 -116 -170 -116z" />
    <glyph glyph-name="dotaccent" unicode="&#x2d9;" horiz-adv-x="590" 
d="M282 603v85h26v-85h-26z" />
    <glyph glyph-name="ring" unicode="&#x2da;" horiz-adv-x="590" 
d="M295 596c-73 0 -106 46 -106 107s33 108 106 108c70 0 105 -47 105 -108s-35 -107 -105 -107zM295 619c55 0 81 36 81 84s-26 85 -81 85c-57 0 -82 -37 -82 -85s25 -84 82 -84z" />
    <glyph glyph-name="cedilla" unicode="&#xb8;" horiz-adv-x="590" 
d="M307 -208c-46 0 -78 10 -105 25l13 21c24 -13 55 -22 92 -22c79 0 88 34 88 61c0 37 -11 56 -97 53l-17 14l11 64h26l-9 -55c59 5 112 -5 112 -76c0 -37 -12 -85 -114 -85z" />
    <glyph glyph-name="hungarumlaut" unicode="&#x2dd;" horiz-adv-x="590" 
d="M144 603l126 138h33l-130 -138h-29zM345 603l126 138h33l-130 -138h-29z" />
    <glyph glyph-name="ogonek" unicode="&#x2db;" horiz-adv-x="590" 
d="M293 -200c-89 0 -102 39 -102 79c0 55 51 105 90 128h41c-61 -31 -105 -84 -105 -128c0 -28 10 -55 76 -55c38 0 67 12 85 23l14 -20c-21 -13 -55 -27 -99 -27z" />
    <glyph glyph-name="caron" unicode="&#x2c7;" horiz-adv-x="590" 
d="M276 603l-151 138h33l137 -122l137 122h32l-151 -138h-37z" />
    <glyph glyph-name="f_f" horiz-adv-x="638" 
d="M428 0v518h-265v-518h-26v518h-103v24h103v80c0 83 26 154 133 154h52v-24h-52c-86 0 -107 -60 -107 -130v-80h265v80c0 83 26 154 133 154h52v-24h-52c-86 0 -107 -60 -107 -130v-80h159v-24h-159v-518h-26z" />
    <glyph glyph-name="a.alt" horiz-adv-x="621" 
d="M289 -9c-177 0 -231 102 -231 282s54 282 231 282c131 0 191 -34 221 -121l4 121l22 -1v-553l-21 -1l-4 115c-36 -89 -91 -124 -222 -124zM289 15c156 0 221 57 221 258s-65 258 -221 258c-158 0 -205 -93 -205 -258s47 -258 205 -258z" />
    <glyph glyph-name="g.alt" horiz-adv-x="626" 
d="M301 -179c-77 0 -173 20 -212 34l9 24c37 -14 127 -34 203 -34c197 0 214 77 214 205v61c-39 -87 -95 -120 -226 -120c-177 0 -231 102 -231 282s54 282 231 282c131 0 190 -32 226 -120l4 120l22 -1v-504c0 -142 -17 -229 -240 -229zM289 15c158 0 226 57 226 258
s-68 258 -226 258s-205 -93 -205 -258s47 -258 205 -258z" />
    <glyph glyph-name="l.alt" horiz-adv-x="204" 
d="M89 0v776h26v-776h-26z" />
    <glyph glyph-name="u.alt" horiz-adv-x="592" 
d="M278 -11c-183 0 -197 99 -197 232v321h26v-321c0 -118 10 -208 171 -208c170 0 203 101 203 225v304h26v-541l-21 -1l-4 106c-21 -58 -72 -117 -204 -117z" />
    <glyph glyph-name="aacute.alt" horiz-adv-x="621" 
d="M289 -9c-177 0 -231 102 -231 282s54 282 231 282c131 0 191 -34 221 -121l4 121l22 -1v-553l-21 -1l-4 115c-36 -89 -91 -124 -222 -124zM289 15c156 0 221 57 221 258s-65 258 -221 258c-158 0 -205 -93 -205 -258s47 -258 205 -258zM249 603l156 138h35l-160 -138h-31
z" />
    <glyph glyph-name="abreve.alt" horiz-adv-x="621" 
d="M289 -9c-177 0 -231 102 -231 282s54 282 231 282c131 0 191 -34 221 -121l4 121l22 -1v-553l-21 -1l-4 115c-36 -89 -91 -124 -222 -124zM289 15c156 0 221 57 221 258s-65 258 -221 258c-158 0 -205 -93 -205 -258s47 -258 205 -258zM310 596c-123 0 -158 62 -171 116
l25 6c11 -46 41 -98 146 -98c104 0 134 52 145 98l25 -6c-13 -54 -48 -116 -170 -116z" />
    <glyph glyph-name="acircumflex.alt" horiz-adv-x="621" 
d="M289 -9c-177 0 -231 102 -231 282s54 282 231 282c131 0 191 -34 221 -121l4 121l22 -1v-553l-21 -1l-4 115c-36 -89 -91 -124 -222 -124zM289 15c156 0 221 57 221 258s-65 258 -221 258c-158 0 -205 -93 -205 -258s47 -258 205 -258zM140 603l151 138h37l151 -138h-33
l-137 122l-137 -122h-32z" />
    <glyph glyph-name="adieresis.alt" horiz-adv-x="621" 
d="M289 -9c-177 0 -231 102 -231 282s54 282 231 282c131 0 191 -34 221 -121l4 121l22 -1v-553l-21 -1l-4 115c-36 -89 -91 -124 -222 -124zM289 15c156 0 221 57 221 258s-65 258 -221 258c-158 0 -205 -93 -205 -258s47 -258 205 -258zM197 603v79h26v-79h-26zM397 603
v79h26v-79h-26z" />
    <glyph glyph-name="agrave.alt" horiz-adv-x="621" 
d="M289 -9c-177 0 -231 102 -231 282s54 282 231 282c131 0 191 -34 221 -121l4 121l22 -1v-553l-21 -1l-4 115c-36 -89 -91 -124 -222 -124zM289 15c156 0 221 57 221 258s-65 258 -221 258c-158 0 -205 -93 -205 -258s47 -258 205 -258zM340 603l-160 138h35l156 -138h-31
z" />
    <glyph glyph-name="amacron.alt" horiz-adv-x="621" 
d="M289 -9c-177 0 -231 102 -231 282s54 282 231 282c131 0 191 -34 221 -121l4 121l22 -1v-553l-21 -1l-4 115c-36 -89 -91 -124 -222 -124zM289 15c156 0 221 57 221 258s-65 258 -221 258c-158 0 -205 -93 -205 -258s47 -258 205 -258zM149 603v24h322v-24h-322z" />
    <glyph glyph-name="aogonek.alt" horiz-adv-x="621" 
d="M289 -9c-177 0 -231 102 -231 282s54 282 231 282c131 0 191 -34 221 -121l4 121l22 -1v-553c-61 -31 -104 -78 -104 -122c0 -28 10 -55 76 -55c38 0 67 12 85 23l14 -20c-21 -13 -55 -27 -99 -27c-89 0 -102 39 -102 79c0 55 46 100 108 136l-3 100
c-36 -89 -91 -124 -222 -124zM289 15c156 0 221 57 221 258s-65 258 -221 258c-158 0 -205 -93 -205 -258s47 -258 205 -258z" />
    <glyph glyph-name="aring.alt" horiz-adv-x="621" 
d="M289 -9c-177 0 -231 102 -231 282s54 282 231 282c131 0 191 -34 221 -121l4 121l22 -1v-553l-21 -1l-4 115c-36 -89 -91 -124 -222 -124zM289 15c156 0 221 57 221 258s-65 258 -221 258c-158 0 -205 -93 -205 -258s47 -258 205 -258zM310 596c-73 0 -106 46 -106 107
s33 108 106 108c70 0 105 -47 105 -108s-35 -107 -105 -107zM310 619c55 0 81 36 81 84s-26 85 -81 85c-57 0 -82 -37 -82 -85s25 -84 82 -84z" />
    <glyph glyph-name="atilde.alt" horiz-adv-x="621" 
d="M289 -9c-177 0 -231 102 -231 282s54 282 231 282c131 0 191 -34 221 -121l4 121l22 -1v-553l-21 -1l-4 115c-36 -89 -91 -124 -222 -124zM289 15c156 0 221 57 221 258s-65 258 -221 258c-158 0 -205 -93 -205 -258s47 -258 205 -258zM169 609l-21 14c19 26 57 54 94 54
c65 0 86 -45 139 -45c27 0 55 29 74 51l19 -15c-22 -26 -54 -60 -93 -60c-57 0 -90 45 -139 45c-27 0 -58 -23 -73 -44z" />
    <glyph glyph-name="gbreve.alt" horiz-adv-x="626" 
d="M301 -179c-77 0 -173 20 -212 34l9 24c37 -14 127 -34 203 -34c197 0 214 77 214 205v61c-39 -87 -95 -120 -226 -120c-177 0 -231 102 -231 282s54 282 231 282c131 0 190 -32 226 -120l4 120l22 -1v-504c0 -142 -17 -229 -240 -229zM289 15c158 0 226 57 226 258
s-68 258 -226 258s-205 -93 -205 -258s47 -258 205 -258zM313 596c-123 0 -158 62 -171 116l25 6c11 -46 41 -98 146 -98c104 0 134 52 145 98l25 -6c-13 -54 -48 -116 -170 -116z" />
    <glyph glyph-name="gcommaaccent.alt" horiz-adv-x="626" 
d="M301 -179c-77 0 -173 20 -212 34l9 24c37 -14 127 -34 203 -34c197 0 214 77 214 205v61c-39 -87 -95 -120 -226 -120c-177 0 -231 102 -231 282s54 282 231 282c131 0 190 -32 226 -120l4 120l22 -1v-504c0 -142 -17 -229 -240 -229zM289 15c158 0 226 57 226 258
s-68 258 -226 258s-205 -93 -205 -258s47 -258 205 -258zM288 603v49c0 56 14 81 50 103l12 -17c-29 -18 -40 -36 -40 -77h28v-58h-50z" />
    <glyph glyph-name="lacute.alt" horiz-adv-x="204" 
d="M89 0v776h26v-776h-26zM86 808l156 138h35l-160 -138h-31z" />
    <glyph glyph-name="lcommaaccent.alt" horiz-adv-x="204" 
d="M89 0v776h26v-776h-26zM77 -192l-12 17c29 18 40 36 40 77h-28v58h50v-49c0 -56 -14 -81 -50 -103z" />
    <glyph glyph-name="lslash.alt" horiz-adv-x="244" 
d="M1 432v24l108 62v258h26v-243l108 62v-24l-108 -62v-509h-26v494z" />
    <glyph glyph-name="lcaron.alt" horiz-adv-x="270" 
d="M215 624l-12 17c29 18 40 36 40 77h-28v58h50v-49c0 -56 -14 -81 -50 -103zM89 0v776h26v-776h-26z" />
    <glyph glyph-name="uacute.alt" horiz-adv-x="592" 
d="M278 -11c-183 0 -197 99 -197 232v321h26v-321c0 -118 10 -208 171 -208c170 0 203 101 203 225v304h26v-541l-21 -1l-4 106c-21 -58 -72 -117 -204 -117zM235 603l156 138h35l-160 -138h-31z" />
    <glyph glyph-name="ucircumflex.alt" horiz-adv-x="592" 
d="M278 -11c-183 0 -197 99 -197 232v321h26v-321c0 -118 10 -208 171 -208c170 0 203 101 203 225v304h26v-541l-21 -1l-4 106c-21 -58 -72 -117 -204 -117zM126 603l151 138h37l151 -138h-33l-137 122l-137 -122h-32z" />
    <glyph glyph-name="udieresis.alt" horiz-adv-x="592" 
d="M278 -11c-183 0 -197 99 -197 232v321h26v-321c0 -118 10 -208 171 -208c170 0 203 101 203 225v304h26v-541l-21 -1l-4 106c-21 -58 -72 -117 -204 -117zM183 603v79h26v-79h-26zM383 603v79h26v-79h-26z" />
    <glyph glyph-name="ugrave.alt" horiz-adv-x="592" 
d="M278 -11c-183 0 -197 99 -197 232v321h26v-321c0 -118 10 -208 171 -208c170 0 203 101 203 225v304h26v-541l-21 -1l-4 106c-21 -58 -72 -117 -204 -117zM326 603l-160 138h35l156 -138h-31z" />
    <glyph glyph-name="uhungarumlaut.alt" horiz-adv-x="592" 
d="M278 -11c-183 0 -197 99 -197 232v321h26v-321c0 -118 10 -208 171 -208c170 0 203 101 203 225v304h26v-541l-21 -1l-4 106c-21 -58 -72 -117 -204 -117zM145 603l126 138h33l-130 -138h-29zM346 603l126 138h33l-130 -138h-29z" />
    <glyph glyph-name="umacron.alt" horiz-adv-x="592" 
d="M278 -11c-183 0 -197 99 -197 232v321h26v-321c0 -118 10 -208 171 -208c170 0 203 101 203 225v304h26v-541l-21 -1l-4 106c-21 -58 -72 -117 -204 -117zM135 603v24h322v-24h-322z" />
    <glyph glyph-name="uogonek.alt" horiz-adv-x="592" 
d="M278 -11c-183 0 -197 99 -197 232v321h26v-321c0 -118 10 -208 171 -208c170 0 203 101 203 225v304h26v-541c-61 -31 -104 -78 -104 -122c0 -28 10 -55 76 -55c38 0 67 12 85 23l14 -20c-21 -13 -55 -27 -99 -27c-89 0 -102 39 -102 79c0 55 46 100 108 136l-3 91
c-21 -58 -72 -117 -204 -117z" />
    <glyph glyph-name="uring.alt" horiz-adv-x="592" 
d="M278 -11c-183 0 -197 99 -197 232v321h26v-321c0 -118 10 -208 171 -208c170 0 203 101 203 225v304h26v-541l-21 -1l-4 106c-21 -58 -72 -117 -204 -117zM296 596c-73 0 -106 46 -106 107s33 108 106 108c70 0 105 -47 105 -108s-35 -107 -105 -107zM296 619
c55 0 81 36 81 84s-26 85 -81 85c-57 0 -82 -37 -82 -85s25 -84 82 -84z" />
    <glyph glyph-name="fl.alt" horiz-adv-x="543" 
d="M34 518v24h103v80c0 83 26 154 133 154h52v-24h-52c-86 0 -107 -60 -107 -130v-80h159v-24h-159v-518h-26v518h-103zM428 0v776h26v-776h-26z" />
    <glyph glyph-name="f_f_l.alt" horiz-adv-x="834" 
d="M428 0v518h-265v-518h-26v518h-103v24h103v80c0 83 26 154 133 154h52v-24h-52c-86 0 -107 -60 -107 -130v-80h265v80c0 83 26 154 133 154h52v-24h-52c-86 0 -107 -60 -107 -130v-80h159v-24h-159v-518h-26zM719 0v776h26v-776h-26z" />
    <glyph glyph-name="A.biform" horiz-adv-x="736" 
d="M287 -5c-183 0 -240 79 -240 206c0 198 87 259 496 259h52c-1 176 -20 269 -232 269c-98 0 -191 -38 -235 -67l-14 20c47 31 145 71 249 71c238 0 258 -106 258 -300v-323c0 -90 7 -106 74 -106h13v-24h-14c-83 0 -99 18 -99 130v47c-41 -124 -138 -182 -308 -182z
M287 19c221 0 308 108 308 338v79h-52c-388 0 -470 -55 -470 -235c0 -112 51 -182 214 -182z" />
    <glyph glyph-name="E.biform" horiz-adv-x="739" 
d="M400 -11c-254 0 -350 154 -350 381c0 230 98 383 342 383c262 0 299 -154 299 -373h-615v-10c0 -212 89 -357 324 -357c114 0 206 29 255 78l18 -17c-54 -53 -152 -85 -273 -85zM392 729c-213 0 -306 -129 -316 -325h589c-3 198 -45 325 -273 325z" />
    <glyph glyph-name="M.biform" horiz-adv-x="1273" 
d="M95 0v739l23 2l3 -149c33 95 113 161 276 161c135 0 229 -38 249 -178c38 116 119 178 282 178c236 0 255 -125 255 -297v-456h-26v456c0 158 -17 273 -229 273c-224 0 -276 -132 -276 -298v-431h-26v456c0 158 -17 273 -229 273c-224 0 -276 -132 -276 -298v-431h-26z
" />
    <glyph glyph-name="N.biform" horiz-adv-x="762" 
d="M94 0v739l23 2l3 -149c33 95 113 161 276 161c236 0 255 -125 255 -297v-456h-26v456c0 158 -17 273 -229 273c-224 0 -276 -132 -276 -298v-431h-26z" />
    <glyph glyph-name="R.biform" horiz-adv-x="431" 
d="M94 0v739l24 2l3 -152c33 95 112 159 275 159v-24c-224 0 -276 -132 -276 -298v-426h-26z" />
    <glyph glyph-name="U.biform" horiz-adv-x="758" 
d="M355 -11c-248 0 -265 125 -265 297v455h26v-455c0 -158 16 -273 239 -273c236 0 286 131 286 297v431h22v-739l-19 -2l-3 150c-33 -95 -114 -161 -286 -161z" />
    <glyph glyph-name="AE.biform" horiz-adv-x="1284" 
d="M945 -11c-198 0 -299 93 -334 242c-42 -193 -166 -236 -324 -236c-183 0 -240 79 -240 206c0 198 87 259 496 259h52c-1 176 -20 269 -232 269c-98 0 -191 -38 -235 -67l-14 20c47 31 145 71 249 71c202 0 246 -77 255 -219c40 136 139 219 319 219
c262 0 299 -154 299 -373h-615v-10c0 -212 89 -357 324 -357c114 0 206 29 255 78l18 -17c-54 -53 -152 -85 -273 -85zM287 19c221 0 308 108 308 338v79h-52c-388 0 -470 -55 -470 -235c0 -112 51 -182 214 -182zM937 729c-213 0 -306 -129 -316 -325h589
c-3 198 -45 325 -273 325z" />
    <glyph glyph-name="Aacute.biform" horiz-adv-x="736" 
d="M287 -5c-183 0 -240 79 -240 206c0 198 87 259 496 259h52c-1 176 -20 269 -232 269c-98 0 -191 -38 -235 -67l-14 20c47 31 145 71 249 71c238 0 258 -106 258 -300v-323c0 -90 7 -106 74 -106h13v-24h-14c-83 0 -99 18 -99 130v47c-41 -124 -138 -182 -308 -182z
M287 19c221 0 308 108 308 338v79h-52c-388 0 -470 -55 -470 -235c0 -112 51 -182 214 -182zM307 788l156 138h35l-160 -138h-31z" />
    <glyph glyph-name="Abreve.biform" horiz-adv-x="736" 
d="M287 -5c-183 0 -240 79 -240 206c0 198 87 259 496 259h52c-1 176 -20 269 -232 269c-98 0 -191 -38 -235 -67l-14 20c47 31 145 71 249 71c238 0 258 -106 258 -300v-323c0 -90 7 -106 74 -106h13v-24h-14c-83 0 -99 18 -99 130v47c-41 -124 -138 -182 -308 -182z
M287 19c221 0 308 108 308 338v79h-52c-388 0 -470 -55 -470 -235c0 -112 51 -182 214 -182zM368 781c-123 0 -158 62 -171 116l25 6c11 -46 41 -98 146 -98c104 0 134 52 145 98l25 -6c-13 -54 -48 -116 -170 -116z" />
    <glyph glyph-name="Acircumflex.biform" horiz-adv-x="736" 
d="M287 -5c-183 0 -240 79 -240 206c0 198 87 259 496 259h52c-1 176 -20 269 -232 269c-98 0 -191 -38 -235 -67l-14 20c47 31 145 71 249 71c238 0 258 -106 258 -300v-323c0 -90 7 -106 74 -106h13v-24h-14c-83 0 -99 18 -99 130v47c-41 -124 -138 -182 -308 -182z
M287 19c221 0 308 108 308 338v79h-52c-388 0 -470 -55 -470 -235c0 -112 51 -182 214 -182zM198 788l151 138h37l151 -138h-33l-137 122l-137 -122h-32z" />
    <glyph glyph-name="Adieresis.biform" horiz-adv-x="736" 
d="M287 -5c-183 0 -240 79 -240 206c0 198 87 259 496 259h52c-1 176 -20 269 -232 269c-98 0 -191 -38 -235 -67l-14 20c47 31 145 71 249 71c238 0 258 -106 258 -300v-323c0 -90 7 -106 74 -106h13v-24h-14c-83 0 -99 18 -99 130v47c-41 -124 -138 -182 -308 -182z
M287 19c221 0 308 108 308 338v79h-52c-388 0 -470 -55 -470 -235c0 -112 51 -182 214 -182zM255 788v79h26v-79h-26zM455 788v79h26v-79h-26z" />
    <glyph glyph-name="Agrave.biform" horiz-adv-x="736" 
d="M287 -5c-183 0 -240 79 -240 206c0 198 87 259 496 259h52c-1 176 -20 269 -232 269c-98 0 -191 -38 -235 -67l-14 20c47 31 145 71 249 71c238 0 258 -106 258 -300v-323c0 -90 7 -106 74 -106h13v-24h-14c-83 0 -99 18 -99 130v47c-41 -124 -138 -182 -308 -182z
M287 19c221 0 308 108 308 338v79h-52c-388 0 -470 -55 -470 -235c0 -112 51 -182 214 -182zM398 788l-160 138h35l156 -138h-31z" />
    <glyph glyph-name="Amacron.biform" horiz-adv-x="736" 
d="M287 -5c-183 0 -240 79 -240 206c0 198 87 259 496 259h52c-1 176 -20 269 -232 269c-98 0 -191 -38 -235 -67l-14 20c47 31 145 71 249 71c238 0 258 -106 258 -300v-323c0 -90 7 -106 74 -106h13v-24h-14c-83 0 -99 18 -99 130v47c-41 -124 -138 -182 -308 -182z
M287 19c221 0 308 108 308 338v79h-52c-388 0 -470 -55 -470 -235c0 -112 51 -182 214 -182zM207 788v24h322v-24h-322z" />
    <glyph glyph-name="Aogonek.biform" horiz-adv-x="736" 
d="M287 -5c-183 0 -240 79 -240 206c0 198 87 259 496 259h52c-1 176 -20 269 -232 269c-98 0 -191 -38 -235 -67l-14 20c47 31 145 71 249 71c238 0 258 -106 258 -300v-323c0 -90 7 -106 74 -106h13v-24c-75 -22 -127 -77 -127 -121c0 -28 10 -55 76 -55c38 0 53 12 71 23
l14 -20c-21 -13 -41 -27 -85 -27c-89 0 -102 39 -102 79c0 50 48 102 103 123c-52 6 -63 34 -63 128v47c-41 -124 -138 -182 -308 -182zM287 19c221 0 308 108 308 338v79h-52c-388 0 -470 -55 -470 -235c0 -112 51 -182 214 -182z" />
    <glyph glyph-name="Aring.biform" horiz-adv-x="736" 
d="M287 -5c-183 0 -240 79 -240 206c0 198 87 259 496 259h52c-1 176 -20 269 -232 269c-98 0 -191 -38 -235 -67l-14 20c47 31 145 71 249 71c238 0 258 -106 258 -300v-323c0 -90 7 -106 74 -106h13v-24h-14c-83 0 -99 18 -99 130v47c-41 -124 -138 -182 -308 -182z
M287 19c221 0 308 108 308 338v79h-52c-388 0 -470 -55 -470 -235c0 -112 51 -182 214 -182zM368 781c-73 0 -106 46 -106 107s33 108 106 108c70 0 105 -47 105 -108s-35 -107 -105 -107zM368 804c55 0 81 36 81 84s-26 85 -81 85c-57 0 -82 -37 -82 -85s25 -84 82 -84z
" />
    <glyph glyph-name="Atilde.biform" horiz-adv-x="736" 
d="M287 -5c-183 0 -240 79 -240 206c0 198 87 259 496 259h52c-1 176 -20 269 -232 269c-98 0 -191 -38 -235 -67l-14 20c47 31 145 71 249 71c238 0 258 -106 258 -300v-323c0 -90 7 -106 74 -106h13v-24h-14c-83 0 -99 18 -99 130v47c-41 -124 -138 -182 -308 -182z
M287 19c221 0 308 108 308 338v79h-52c-388 0 -470 -55 -470 -235c0 -112 51 -182 214 -182zM227 794l-21 14c19 26 57 54 94 54c65 0 86 -45 139 -45c27 0 55 29 74 51l19 -15c-22 -26 -54 -60 -93 -60c-57 0 -90 45 -139 45c-27 0 -58 -23 -73 -44z" />
    <glyph glyph-name="Eacute.biform" horiz-adv-x="739" 
d="M400 -11c-254 0 -350 154 -350 381c0 230 98 383 342 383c262 0 299 -154 299 -373h-615v-10c0 -212 89 -357 324 -357c114 0 206 29 255 78l18 -17c-54 -53 -152 -85 -273 -85zM392 729c-213 0 -306 -129 -316 -325h589c-3 198 -45 325 -273 325zM308 788l156 138h35
l-160 -138h-31z" />
    <glyph glyph-name="Ecaron.biform" horiz-adv-x="739" 
d="M400 -11c-254 0 -350 154 -350 381c0 230 98 383 342 383c262 0 299 -154 299 -373h-615v-10c0 -212 89 -357 324 -357c114 0 206 29 255 78l18 -17c-54 -53 -152 -85 -273 -85zM392 729c-213 0 -306 -129 -316 -325h589c-3 198 -45 325 -273 325zM350 788l-151 138h33
l137 -122l137 122h32l-151 -138h-37z" />
    <glyph glyph-name="Ecircumflex.biform" horiz-adv-x="739" 
d="M400 -11c-254 0 -350 154 -350 381c0 230 98 383 342 383c262 0 299 -154 299 -373h-615v-10c0 -212 89 -357 324 -357c114 0 206 29 255 78l18 -17c-54 -53 -152 -85 -273 -85zM392 729c-213 0 -306 -129 -316 -325h589c-3 198 -45 325 -273 325zM199 788l151 138h37
l151 -138h-33l-137 122l-137 -122h-32z" />
    <glyph glyph-name="Edieresis.biform" horiz-adv-x="739" 
d="M400 -11c-254 0 -350 154 -350 381c0 230 98 383 342 383c262 0 299 -154 299 -373h-615v-10c0 -212 89 -357 324 -357c114 0 206 29 255 78l18 -17c-54 -53 -152 -85 -273 -85zM392 729c-213 0 -306 -129 -316 -325h589c-3 198 -45 325 -273 325zM256 788v79h26v-79h-26
zM456 788v79h26v-79h-26z" />
    <glyph glyph-name="Edotaccent.biform" horiz-adv-x="739" 
d="M400 -11c-254 0 -350 154 -350 381c0 230 98 383 342 383c262 0 299 -154 299 -373h-615v-10c0 -212 89 -357 324 -357c114 0 206 29 255 78l18 -17c-54 -53 -152 -85 -273 -85zM392 729c-213 0 -306 -129 -316 -325h589c-3 198 -45 325 -273 325zM356 788v85h26v-85h-26
z" />
    <glyph glyph-name="Egrave.biform" horiz-adv-x="739" 
d="M400 -11c-254 0 -350 154 -350 381c0 230 98 383 342 383c262 0 299 -154 299 -373h-615v-10c0 -212 89 -357 324 -357c114 0 206 29 255 78l18 -17c-54 -53 -152 -85 -273 -85zM392 729c-213 0 -306 -129 -316 -325h589c-3 198 -45 325 -273 325zM399 788l-160 138h35
l156 -138h-31z" />
    <glyph glyph-name="Emacron.biform" horiz-adv-x="739" 
d="M400 -11c-254 0 -350 154 -350 381c0 230 98 383 342 383c262 0 299 -154 299 -373h-615v-10c0 -212 89 -357 324 -357c114 0 206 29 255 78l18 -17c-54 -53 -152 -85 -273 -85zM392 729c-213 0 -306 -129 -316 -325h589c-3 198 -45 325 -273 325zM208 788v24h322v-24
h-322z" />
    <glyph glyph-name="Eogonek.biform" horiz-adv-x="739" 
d="M497 -200c-89 0 -102 39 -102 79c0 45 34 87 68 113c-20 -2 -41 -3 -63 -3c-254 0 -350 154 -350 381c0 230 98 383 342 383c262 0 299 -154 299 -373h-615v-10c0 -212 89 -357 324 -357c114 0 206 29 255 78l18 -17c-36 -36 -92 -61 -161 -74c-54 -32 -91 -80 -91 -121
c0 -28 10 -55 76 -55c38 0 67 12 85 23l14 -20c-21 -13 -55 -27 -99 -27zM392 729c-213 0 -306 -129 -316 -325h589c-3 198 -45 325 -273 325z" />
    <glyph glyph-name="Nacute.biform" horiz-adv-x="762" 
d="M94 0v739l23 2l3 -149c33 95 113 161 276 161c236 0 255 -125 255 -297v-456h-26v456c0 158 -17 273 -229 273c-224 0 -276 -132 -276 -298v-431h-26zM320 788l156 138h35l-160 -138h-31z" />
    <glyph glyph-name="Ncaron.biform" horiz-adv-x="762" 
d="M94 0v739l23 2l3 -149c33 95 113 161 276 161c236 0 255 -125 255 -297v-456h-26v456c0 158 -17 273 -229 273c-224 0 -276 -132 -276 -298v-431h-26zM362 788l-151 138h33l137 -122l137 122h32l-151 -138h-37z" />
    <glyph glyph-name="Ncommaaccent.biform" horiz-adv-x="762" 
d="M94 0v739l23 2l3 -149c33 95 113 161 276 161c236 0 255 -125 255 -297v-456h-26v456c0 158 -17 273 -229 273c-224 0 -276 -132 -276 -298v-431h-26zM356 -192l-12 17c29 18 40 36 40 77h-28v58h50v-49c0 -56 -14 -81 -50 -103z" />
    <glyph glyph-name="Ntilde.biform" horiz-adv-x="762" 
d="M94 0v739l23 2l3 -149c33 95 113 161 276 161c236 0 255 -125 255 -297v-456h-26v456c0 158 -17 273 -229 273c-224 0 -276 -132 -276 -298v-431h-26zM240 794l-21 14c19 26 57 54 94 54c65 0 86 -45 139 -45c27 0 55 29 74 51l19 -15c-22 -26 -54 -60 -93 -60
c-57 0 -90 45 -139 45c-27 0 -58 -23 -73 -44z" />
    <glyph glyph-name="OE.biform" horiz-adv-x="1435" 
d="M410 -11c-238 0 -360 127 -360 382s122 382 360 382c195 0 313 -85 349 -256c32 157 133 256 329 256c262 0 299 -154 299 -373h-615v-10c0 -212 89 -357 324 -357c114 0 206 29 255 78l18 -17c-54 -53 -152 -85 -273 -85c-204 0 -305 99 -337 255
c-37 -170 -154 -255 -349 -255zM410 13c222 0 336 119 336 358s-114 358 -336 358c-220 0 -334 -119 -334 -358s114 -358 334 -358zM1088 729c-213 0 -306 -129 -316 -325h589c-3 198 -45 325 -273 325z" />
    <glyph glyph-name="Racute.biform" horiz-adv-x="431" 
d="M94 0v739l24 2l3 -152c33 95 112 159 275 159v-24c-224 0 -276 -132 -276 -298v-426h-26zM164 788l156 138h35l-160 -138h-31z" />
    <glyph glyph-name="Rcaron.biform" horiz-adv-x="431" 
d="M94 0v739l24 2l3 -152c33 95 112 159 275 159v-24c-224 0 -276 -132 -276 -298v-426h-26zM213 788l-151 138h33l137 -122l137 122h32l-151 -138h-37z" />
    <glyph glyph-name="Rcommaaccent.biform" horiz-adv-x="431" 
d="M94 0v739l24 2l3 -152c33 95 112 159 275 159v-24c-224 0 -276 -132 -276 -298v-426h-26zM82 -192l-12 17c29 18 40 36 40 77h-28v58h50v-49c0 -56 -14 -81 -50 -103z" />
    <glyph glyph-name="Uacute.biform" horiz-adv-x="758" 
d="M355 -11c-248 0 -265 125 -265 297v455h26v-455c0 -158 16 -273 239 -273c236 0 286 131 286 297v431h22v-739l-19 -2l-3 150c-33 -95 -114 -161 -286 -161zM318 788l156 138h35l-160 -138h-31z" />
    <glyph glyph-name="Ucircumflex.biform" horiz-adv-x="758" 
d="M355 -11c-248 0 -265 125 -265 297v455h26v-455c0 -158 16 -273 239 -273c236 0 286 131 286 297v431h22v-739l-19 -2l-3 150c-33 -95 -114 -161 -286 -161zM209 788l151 138h37l151 -138h-33l-137 122l-137 -122h-32z" />
    <glyph glyph-name="Udieresis.biform" horiz-adv-x="758" 
d="M355 -11c-248 0 -265 125 -265 297v455h26v-455c0 -158 16 -273 239 -273c236 0 286 131 286 297v431h22v-739l-19 -2l-3 150c-33 -95 -114 -161 -286 -161zM266 788v79h26v-79h-26zM466 788v79h26v-79h-26z" />
    <glyph glyph-name="Ugrave.biform" horiz-adv-x="758" 
d="M355 -11c-248 0 -265 125 -265 297v455h26v-455c0 -158 16 -273 239 -273c236 0 286 131 286 297v431h22v-739l-19 -2l-3 150c-33 -95 -114 -161 -286 -161zM409 788l-160 138h35l156 -138h-31z" />
    <glyph glyph-name="Uhungarumlaut.biform" horiz-adv-x="758" 
d="M355 -11c-248 0 -265 125 -265 297v455h26v-455c0 -158 16 -273 239 -273c236 0 286 131 286 297v431h22v-739l-19 -2l-3 150c-33 -95 -114 -161 -286 -161zM228 788l126 138h33l-130 -138h-29zM429 788l126 138h33l-130 -138h-29z" />
    <glyph glyph-name="Umacron.biform" horiz-adv-x="758" 
d="M355 -11c-248 0 -265 125 -265 297v455h26v-455c0 -158 16 -273 239 -273c236 0 286 131 286 297v431h22v-739l-19 -2l-3 150c-33 -95 -114 -161 -286 -161zM218 788v24h322v-24h-322z" />
    <glyph glyph-name="Uogonek.biform" horiz-adv-x="758" 
d="M355 -11c-248 0 -265 125 -265 297v455h26v-455c0 -158 16 -273 239 -273c236 0 286 131 286 297v431h22v-739c-61 -31 -102 -73 -102 -123c0 -28 10 -55 76 -55c38 0 67 12 85 23l14 -20c-21 -13 -55 -27 -99 -27c-89 0 -102 39 -102 79c0 61 48 108 108 137l-2 134
c-33 -95 -114 -161 -286 -161z" />
    <glyph glyph-name="Uring.biform" horiz-adv-x="758" 
d="M355 -11c-248 0 -265 125 -265 297v455h26v-455c0 -158 16 -273 239 -273c236 0 286 131 286 297v431h22v-739l-19 -2l-3 150c-33 -95 -114 -161 -286 -161zM379 781c-73 0 -106 46 -106 107s33 108 106 108c70 0 105 -47 105 -108s-35 -107 -105 -107zM379 804
c55 0 81 36 81 84s-26 85 -81 85c-57 0 -82 -37 -82 -85s25 -84 82 -84z" />
    <glyph glyph-name="commaaccent" unicode="&#xf6c3;" horiz-adv-x="206" 
d="M78 -192l-12 17c29 18 40 36 40 77h-28v58h50v-49c0 -56 -14 -81 -50 -103z" />
    <glyph glyph-name="commaaccent.2" horiz-adv-x="206" 
d="M78 603v49c0 56 14 81 50 103l12 -17c-29 -18 -40 -36 -40 -77h28v-58h-50z" />
    <glyph glyph-name="Abreve" unicode="&#x102;" horiz-adv-x="687" 
d="M35 0l297 746h23l297 -746h-26l-82 205h-403l-81 -205h-25zM150 228h385l-192 483zM343 781c-123 0 -158 62 -171 116l25 6c11 -46 41 -98 146 -98c104 0 134 52 145 98l25 -6c-13 -54 -48 -116 -170 -116z" />
    <glyph glyph-name="Amacron" unicode="&#x100;" horiz-adv-x="687" 
d="M35 0l297 746h23l297 -746h-26l-82 205h-403l-81 -205h-25zM150 228h385l-192 483zM182 788v24h322v-24h-322z" />
    <glyph glyph-name="Aogonek" unicode="&#x104;" horiz-adv-x="687" 
d="M35 0l297 746h23l297 -746c-61 -31 -103 -77 -103 -121c0 -28 10 -55 76 -55c22 0 41 4 57 10l9 -23c-18 -6 -40 -11 -66 -11c-89 0 -102 39 -102 79c0 54 55 105 99 130l-78 196h-403l-81 -205h-25zM150 228h385l-192 483z" />
    <glyph glyph-name="Cacute" unicode="&#x106;" horiz-adv-x="698" 
d="M405 -11c-231 0 -355 127 -355 382s127 382 355 382c87 0 178 -28 241 -83l-17 -18c-58 51 -143 77 -224 77c-212 0 -329 -119 -329 -358s114 -358 329 -358c121 0 185 38 228 79l18 -18c-47 -44 -116 -85 -246 -85zM288 788l156 138h35l-160 -138h-31z" />
    <glyph glyph-name="Ccaron" unicode="&#x10c;" horiz-adv-x="698" 
d="M405 -11c-231 0 -355 127 -355 382s127 382 355 382c87 0 178 -28 241 -83l-17 -18c-58 51 -143 77 -224 77c-212 0 -329 -119 -329 -358s114 -358 329 -358c121 0 185 38 228 79l18 -18c-47 -44 -116 -85 -246 -85zM330 788l-151 138h33l137 -122l137 122h32l-151 -138
h-37z" />
    <glyph glyph-name="Dcaron" unicode="&#x10e;" horiz-adv-x="732" 
d="M95 0v741h227c270 0 360 -90 360 -370c0 -275 -107 -371 -378 -371h-209zM121 24h183c252 0 352 90 352 347c0 262 -84 346 -334 346h-201v-693zM347 788l-151 138h33l137 -122l137 122h32l-151 -138h-37z" />
    <glyph glyph-name="Dcroat" unicode="&#x110;" horiz-adv-x="732" 
d="M1 378v24h94v339h227c270 0 360 -90 360 -370c0 -275 -107 -371 -378 -371h-209v378h-94zM121 24h183c252 0 352 90 352 347c0 262 -84 346 -334 346h-201v-315h187v-24h-187v-354z" />
    <glyph glyph-name="Emacron" unicode="&#x112;" horiz-adv-x="609" 
d="M95 0v741h449v-24h-423v-315h413v-24h-413v-354h427v-24h-453zM143 788v24h322v-24h-322z" />
    <glyph glyph-name="Edotaccent" unicode="&#x116;" horiz-adv-x="609" 
d="M95 0v741h449v-24h-423v-315h413v-24h-413v-354h427v-24h-453zM291 788v85h26v-85h-26z" />
    <glyph glyph-name="Eogonek" unicode="&#x118;" horiz-adv-x="609" 
d="M95 0v741h449v-24h-423v-315h413v-24h-413v-354h427v-24h-82c-54 -31 -92 -80 -92 -121c0 -28 10 -55 76 -55c38 0 67 12 85 23l14 -20c-21 -13 -55 -27 -99 -27c-89 0 -102 39 -102 79c0 50 42 96 79 121h-332z" />
    <glyph glyph-name="Ecaron" unicode="&#x11a;" horiz-adv-x="609" 
d="M95 0v741h449v-24h-423v-315h413v-24h-413v-354h427v-24h-453zM285 788l-151 138h33l137 -122l137 122h32l-151 -138h-37z" />
    <glyph glyph-name="Gbreve" unicode="&#x11e;" horiz-adv-x="764" 
d="M405 -11c-242 0 -355 123 -355 382c0 266 128 382 355 382c136 0 210 -48 251 -83l-17 -18c-53 44 -127 77 -234 77c-211 0 -329 -109 -329 -358c0 -243 101 -358 329 -358c234 0 278 106 278 315v30h-277v24h303v-53c0 -194 -32 -340 -304 -340zM382 781
c-123 0 -158 62 -171 116l25 6c11 -46 41 -98 146 -98c104 0 134 52 145 98l25 -6c-13 -54 -48 -116 -170 -116z" />
    <glyph glyph-name="Gcommaaccent" unicode="&#x122;" horiz-adv-x="764" 
d="M405 -11c-242 0 -355 123 -355 382c0 266 128 382 355 382c136 0 210 -48 251 -83l-17 -18c-53 44 -127 77 -234 77c-211 0 -329 -109 -329 -358c0 -243 101 -358 329 -358c234 0 278 106 278 315v30h-277v24h303v-53c0 -194 -32 -340 -304 -340zM357 -192l-12 17
c29 18 40 36 40 77h-28v58h50v-49c0 -56 -14 -81 -50 -103z" />
    <glyph glyph-name="uni0130" unicode="&#x130;" horiz-adv-x="226" 
d="M100 0v741h26v-741h-26zM100 788v85h26v-85h-26z" />
    <glyph glyph-name="Imacron" unicode="&#x12a;" horiz-adv-x="226" 
d="M100 0v741h26v-741h-26zM-48 788v24h322v-24h-322z" />
    <glyph glyph-name="Iogonek" unicode="&#x12e;" horiz-adv-x="226" 
d="M112 -200c-89 0 -102 39 -102 79c0 55 51 105 90 128v734h26v-741c-50 -33 -90 -77 -90 -121c0 -28 10 -55 76 -55c38 0 67 12 85 23l14 -20c-21 -13 -55 -27 -99 -27z" />
    <glyph glyph-name="Kcommaaccent" unicode="&#x136;" horiz-adv-x="670" 
d="M595 0l-300 435l-174 -183v-252h-26v741h26v-454l434 454h33l-276 -289l312 -452h-29zM310 -192l-12 17c29 18 40 36 40 77h-28v58h50v-49c0 -56 -14 -81 -50 -103z" />
    <glyph glyph-name="Lacute" unicode="&#x139;" horiz-adv-x="569" 
d="M95 0v741h26v-717h413v-24h-439zM95 788l156 138h35l-160 -138h-31z" />
    <glyph glyph-name="Lcommaaccent" unicode="&#x13b;" horiz-adv-x="569" 
d="M95 0v741h26v-717h413v-24h-439zM259 -192l-12 17c29 18 40 36 40 77h-28v58h50v-49c0 -56 -14 -81 -50 -103z" />
    <glyph glyph-name="Lcaron" unicode="&#x13d;" horiz-adv-x="569" 
d="M254 624l-12 17c29 18 40 36 40 77h-28v58h50v-49c0 -56 -14 -81 -50 -103zM95 0v741h26v-717h413v-24h-439z" />
    <glyph glyph-name="Nacute" unicode="&#x143;" horiz-adv-x="753" 
d="M95 0v741h31l508 -703v703h24v-741h-24l-515 712v-712h-24zM315 788l156 138h35l-160 -138h-31z" />
    <glyph glyph-name="Ncommaaccent" unicode="&#x145;" horiz-adv-x="753" 
d="M95 0v741h31l508 -703v703h24v-741h-24l-515 712v-712h-24zM351 -192l-12 17c29 18 40 36 40 77h-28v58h50v-49c0 -56 -14 -81 -50 -103z" />
    <glyph glyph-name="Ncaron" unicode="&#x147;" horiz-adv-x="753" 
d="M95 0v741h31l508 -703v703h24v-741h-24l-515 712v-712h-24zM357 788l-151 138h33l137 -122l137 122h32l-151 -138h-37z" />
    <glyph glyph-name="Omacron" unicode="&#x14c;" horiz-adv-x="822" 
d="M410 -11c-238 0 -360 127 -360 382s122 382 360 382c239 0 362 -127 362 -382s-123 -382 -362 -382zM410 13c222 0 336 119 336 358s-114 358 -336 358c-220 0 -334 -119 -334 -358s114 -358 334 -358zM250 788v24h322v-24h-322z" />
    <glyph glyph-name="Ohungarumlaut" unicode="&#x150;" horiz-adv-x="822" 
d="M410 -11c-238 0 -360 127 -360 382s122 382 360 382c239 0 362 -127 362 -382s-123 -382 -362 -382zM410 13c222 0 336 119 336 358s-114 358 -336 358c-220 0 -334 -119 -334 -358s114 -358 334 -358zM260 788l126 138h33l-130 -138h-29zM461 788l126 138h33l-130 -138
h-29z" />
    <glyph glyph-name="Racute" unicode="&#x154;" horiz-adv-x="685" 
d="M577 0l-203 340h-253v-340h-26v741h297c135 0 226 -50 226 -200c0 -153 -92 -200 -216 -201l203 -340h-28zM121 364h275c115 0 196 40 196 177c0 133 -79 176 -200 176h-271v-353zM281 788l156 138h35l-160 -138h-31z" />
    <glyph glyph-name="Rcommaaccent" unicode="&#x156;" horiz-adv-x="685" 
d="M577 0l-203 340h-253v-340h-26v741h297c135 0 226 -50 226 -200c0 -153 -92 -200 -216 -201l203 -340h-28zM121 364h275c115 0 196 40 196 177c0 133 -79 176 -200 176h-271v-353zM317 -192l-12 17c29 18 40 36 40 77h-28v58h50v-49c0 -56 -14 -81 -50 -103z" />
    <glyph glyph-name="Rcaron" unicode="&#x158;" horiz-adv-x="685" 
d="M577 0l-203 340h-253v-340h-26v741h297c135 0 226 -50 226 -200c0 -153 -92 -200 -216 -201l203 -340h-28zM121 364h275c115 0 196 40 196 177c0 133 -79 176 -200 176h-271v-353zM323 788l-151 138h33l137 -122l137 122h32l-151 -138h-37z" />
    <glyph glyph-name="Sacute" unicode="&#x15a;" horiz-adv-x="679" 
d="M331 -9c-90 0 -178 15 -278 77l14 20c95 -59 179 -73 264 -73c158 0 251 54 251 183c0 135 -104 151 -248 180c-136 28 -248 51 -248 194c0 127 87 181 243 181c94 0 172 -21 233 -62l-15 -20c-57 38 -130 58 -218 58c-142 0 -217 -47 -217 -157c0 -118 87 -141 227 -170
c153 -31 269 -50 269 -204c0 -146 -103 -207 -277 -207zM278 788l156 138h35l-160 -138h-31z" />
    <glyph glyph-name="Scedilla" unicode="&#x15e;" horiz-adv-x="679" 
d="M331 -9c-90 0 -178 15 -278 77l14 20c95 -59 179 -73 264 -73c158 0 251 54 251 183c0 135 -104 151 -248 180c-136 28 -248 51 -248 194c0 127 87 181 243 181c94 0 172 -21 233 -62l-15 -20c-57 38 -130 58 -218 58c-142 0 -217 -47 -217 -157c0 -118 87 -141 227 -170
c153 -31 269 -50 269 -204c0 -146 -103 -207 -277 -207zM351 -208c-46 0 -78 10 -105 25l13 21c24 -13 55 -22 92 -22c79 0 88 34 88 61c0 37 -11 56 -97 53l-17 14l11 64h26l-9 -55c59 5 112 -5 112 -76c0 -37 -12 -85 -114 -85z" />
    <glyph glyph-name="Scommaaccent" unicode="&#x218;" horiz-adv-x="679" 
d="M331 -9c-90 0 -178 15 -278 77l14 20c95 -59 179 -73 264 -73c158 0 251 54 251 183c0 135 -104 151 -248 180c-136 28 -248 51 -248 194c0 127 87 181 243 181c94 0 172 -21 233 -62l-15 -20c-57 38 -130 58 -218 58c-142 0 -217 -47 -217 -157c0 -118 87 -141 227 -170
c153 -31 269 -50 269 -204c0 -146 -103 -207 -277 -207zM314 -192l-12 17c29 18 40 36 40 77h-28v58h50v-49c0 -56 -14 -81 -50 -103z" />
    <glyph glyph-name="Tcommaaccent" unicode="&#x162;" horiz-adv-x="678" 
d="M326 0v717h-291v24h608v-24h-291v-717h-26zM314 -192l-12 17c29 18 40 36 40 77h-28v58h50v-49c0 -56 -14 -81 -50 -103z" />
    <glyph glyph-name="Tcommaaccent" unicode="&#x21a;" horiz-adv-x="678" 
d="M326 0v717h-291v24h608v-24h-291v-717h-26zM314 -192l-12 17c29 18 40 36 40 77h-28v58h50v-49c0 -56 -14 -81 -50 -103z" />
    <glyph glyph-name="Tcaron" unicode="&#x164;" horiz-adv-x="678" 
d="M326 0v717h-291v24h608v-24h-291v-717h-26zM320 788l-151 138h33l137 -122l137 122h32l-151 -138h-37z" />
    <glyph glyph-name="Umacron" unicode="&#x16a;" horiz-adv-x="755" 
d="M376 -11c-232 0 -286 118 -286 267v485h26v-485c0 -136 48 -243 260 -243c215 0 263 106 263 243v485h26v-485c0 -150 -56 -267 -289 -267zM216 788v24h322v-24h-322z" />
    <glyph glyph-name="Uring" unicode="&#x16e;" horiz-adv-x="755" 
d="M376 -11c-232 0 -286 118 -286 267v485h26v-485c0 -136 48 -243 260 -243c215 0 263 106 263 243v485h26v-485c0 -150 -56 -267 -289 -267zM377 781c-73 0 -106 46 -106 107s33 108 106 108c70 0 105 -47 105 -108s-35 -107 -105 -107zM377 804c55 0 81 36 81 84
s-26 85 -81 85c-57 0 -82 -37 -82 -85s25 -84 82 -84z" />
    <glyph glyph-name="Uhungarumlaut" unicode="&#x170;" horiz-adv-x="755" 
d="M376 -11c-232 0 -286 118 -286 267v485h26v-485c0 -136 48 -243 260 -243c215 0 263 106 263 243v485h26v-485c0 -150 -56 -267 -289 -267zM226 788l126 138h33l-130 -138h-29zM427 788l126 138h33l-130 -138h-29z" />
    <glyph glyph-name="Uogonek" unicode="&#x172;" horiz-adv-x="755" 
d="M405 -200c-89 0 -102 39 -102 79c0 44 32 84 64 110c-225 3 -277 119 -277 267v485h26v-485c0 -136 49 -243 259 -243c212 0 264 106 264 243v485h26v-485c0 -144 -53 -256 -261 -266c-45 -31 -75 -74 -75 -111c0 -28 10 -55 76 -55c38 0 67 12 85 23l14 -20
c-21 -13 -55 -27 -99 -27z" />
    <glyph glyph-name="Zacute" unicode="&#x179;" horiz-adv-x="648" 
d="M53 0v23l499 694h-482v24h511v-23l-499 -694h510v-24h-539zM263 788l156 138h35l-160 -138h-31z" />
    <glyph glyph-name="Zdotaccent" unicode="&#x17b;" horiz-adv-x="648" 
d="M53 0v23l499 694h-482v24h511v-23l-499 -694h510v-24h-539zM311 788v85h26v-85h-26z" />
    <glyph glyph-name="abreve" unicode="&#x103;" horiz-adv-x="605" 
d="M238 -11c-143 0 -182 66 -182 157c0 155 96 191 370 191h39c-1 137 -21 194 -171 194c-71 0 -133 -25 -168 -49l-14 20c34 23 106 53 182 53c174 0 197 -65 197 -222v-231c0 -70 5 -78 63 -78v-24h-10c-62 0 -79 16 -79 102v13c-36 -83 -93 -126 -227 -126zM238 13
c164 0 227 76 227 246v54h-39c-264 0 -344 -34 -344 -167c0 -83 37 -133 156 -133zM305 596c-123 0 -158 62 -171 116l25 6c11 -46 41 -98 146 -98c104 0 134 52 145 98l25 -6c-13 -54 -48 -116 -170 -116z" />
    <glyph glyph-name="amacron" unicode="&#x101;" horiz-adv-x="605" 
d="M238 -11c-143 0 -182 66 -182 157c0 155 96 191 370 191h39c-1 137 -21 194 -171 194c-71 0 -133 -25 -168 -49l-14 20c34 23 106 53 182 53c174 0 197 -65 197 -222v-231c0 -70 5 -78 63 -78v-24h-10c-62 0 -79 16 -79 102v13c-36 -83 -93 -126 -227 -126zM238 13
c164 0 227 76 227 246v54h-39c-264 0 -344 -34 -344 -167c0 -83 37 -133 156 -133zM144 603v24h322v-24h-322z" />
    <glyph glyph-name="aogonek" unicode="&#x105;" horiz-adv-x="605" 
d="M238 -11c-143 0 -182 66 -182 157c0 155 96 191 370 191h39c-1 137 -21 194 -171 194c-71 0 -133 -25 -168 -49l-14 20c34 23 106 53 182 53c174 0 197 -65 197 -222v-231c0 -70 5 -78 63 -78v-24c-64 -30 -115 -77 -115 -121c0 -28 10 -55 76 -55c29 0 55 6 71 16
l14 -20c-17 -11 -52 -20 -85 -20c-89 0 -102 39 -102 79c0 54 50 97 102 123c-39 6 -50 29 -50 100v11c-36 -83 -93 -124 -227 -124zM238 13c162 0 227 76 227 246v54h-39c-264 0 -344 -34 -344 -167c0 -83 37 -133 156 -133z" />
    <glyph glyph-name="cacute" unicode="&#x107;" horiz-adv-x="549" 
d="M305 -11c-188 0 -247 94 -247 283c0 190 61 283 247 283c96 0 148 -37 179 -70l-18 -17c-29 29 -81 63 -161 63c-166 0 -221 -84 -221 -259c0 -173 53 -259 221 -259c69 0 119 24 163 62l17 -17c-48 -42 -101 -69 -180 -69zM213 603l156 138h35l-160 -138h-31z" />
    <glyph glyph-name="ccaron" unicode="&#x10d;" horiz-adv-x="549" 
d="M305 -11c-188 0 -247 94 -247 283c0 190 61 283 247 283c96 0 148 -37 179 -70l-18 -17c-29 29 -81 63 -161 63c-166 0 -221 -84 -221 -259c0 -173 53 -259 221 -259c69 0 119 24 163 62l17 -17c-48 -42 -101 -69 -180 -69zM255 603l-151 138h33l137 -122l137 122h32
l-151 -138h-37z" />
    <glyph glyph-name="dcaron" unicode="&#x10f;" horiz-adv-x="696" 
d="M641 624l-12 17c29 18 40 36 40 77h-28v58h50v-49c0 -56 -14 -81 -50 -103zM289 -9c-177 0 -231 102 -231 282s54 282 231 282c131 0 195 -34 226 -121v342h26v-775l-21 -1l-4 115c-36 -89 -96 -124 -227 -124zM289 15c158 0 226 57 226 258s-68 258 -226 258
s-205 -93 -205 -258s47 -258 205 -258z" />
    <glyph glyph-name="dcroat" unicode="&#x111;" horiz-adv-x="626" 
d="M319 643v24h307v-24h-307zM289 -9c-177 0 -231 102 -231 282s54 282 231 282c131 0 195 -34 226 -121v342h26v-775l-21 -1l-4 115c-36 -89 -96 -124 -227 -124zM289 15c158 0 226 57 226 258s-68 258 -226 258s-205 -93 -205 -258s47 -258 205 -258z" />
    <glyph glyph-name="emacron" unicode="&#x113;" horiz-adv-x="576" 
d="M305 -11c-209 0 -247 115 -247 283c0 170 45 283 242 283c205 0 211 -135 211 -276h-427v-7c0 -153 33 -259 221 -259c93 0 134 26 180 59l16 -20c-46 -33 -101 -63 -196 -63zM300 531c-168 0 -211 -91 -216 -228h401c-5 121 -11 228 -185 228zM127 603v24h322v-24h-322z
" />
    <glyph glyph-name="edotaccent" unicode="&#x117;" horiz-adv-x="576" 
d="M305 -11c-209 0 -247 115 -247 283c0 170 45 283 242 283c205 0 211 -135 211 -276h-427v-7c0 -153 33 -259 221 -259c93 0 134 26 180 59l16 -20c-46 -33 -101 -63 -196 -63zM300 531c-168 0 -211 -91 -216 -228h401c-5 121 -11 228 -185 228zM275 603v85h26v-85h-26z
" />
    <glyph glyph-name="eogonek" unicode="&#x119;" horiz-adv-x="576" 
d="M386 -200c-89 0 -102 39 -102 79c0 45 34 86 67 113c-14 -2 -30 -3 -46 -3c-209 0 -247 123 -247 283c0 162 45 283 242 283c205 0 211 -135 211 -276h-427v-7c0 -146 33 -259 221 -259c93 0 134 26 180 59l16 -20c-26 -19 -55 -37 -92 -49c-58 -31 -99 -81 -99 -124
c0 -28 10 -55 76 -55c38 0 67 12 85 23l14 -20c-21 -13 -55 -27 -99 -27zM300 531c-167 0 -210 -96 -216 -228h401c-5 121 -11 228 -185 228z" />
    <glyph glyph-name="ecaron" unicode="&#x11b;" horiz-adv-x="576" 
d="M305 -11c-209 0 -247 115 -247 283c0 170 45 283 242 283c205 0 211 -135 211 -276h-427v-7c0 -153 33 -259 221 -259c93 0 134 26 180 59l16 -20c-46 -33 -101 -63 -196 -63zM300 531c-168 0 -211 -91 -216 -228h401c-5 121 -11 228 -185 228zM269 603l-151 138h33
l137 -122l137 122h32l-151 -138h-37z" />
    <glyph glyph-name="gbreve" unicode="&#x11f;" horiz-adv-x="563" 
d="M273 198c-42 0 -76 5 -104 15c-17 -15 -29 -37 -29 -58c0 -40 29 -49 130 -49c177 0 249 -23 249 -132c0 -97 -52 -153 -250 -153c-153 0 -231 29 -231 137c0 62 30 119 121 136c-29 8 -44 30 -44 61c0 26 13 50 30 68c-51 27 -75 77 -75 153c0 122 63 179 203 179
c26 0 49 -2 69 -6l154 6v-24h-100c56 -30 81 -78 81 -155c0 -122 -64 -178 -204 -178zM273 222c124 0 178 48 178 154s-68 155 -178 155c-124 0 -177 -49 -177 -155s53 -154 177 -154zM269 -155c182 0 224 45 224 129c0 90 -60 108 -224 108c-180 0 -205 -62 -205 -124
c0 -91 73 -113 205 -113zM281 596c-123 0 -158 62 -171 116l25 6c11 -46 41 -98 146 -98c104 0 134 52 145 98l25 -6c-13 -54 -48 -116 -170 -116z" />
    <glyph glyph-name="gcommaaccent" unicode="&#x123;" horiz-adv-x="563" 
d="M273 198c-42 0 -76 5 -104 15c-17 -15 -29 -37 -29 -58c0 -40 29 -49 130 -49c177 0 249 -23 249 -132c0 -97 -52 -153 -250 -153c-153 0 -231 29 -231 137c0 62 30 119 121 136c-29 8 -44 30 -44 61c0 26 13 50 30 68c-51 27 -75 77 -75 153c0 122 63 179 203 179
c26 0 49 -2 69 -6l154 6v-24h-100c56 -30 81 -78 81 -155c0 -122 -64 -178 -204 -178zM273 222c124 0 178 48 178 154s-68 155 -178 155c-124 0 -177 -49 -177 -155s53 -154 177 -154zM269 -155c182 0 224 45 224 129c0 90 -60 108 -224 108c-180 0 -205 -62 -205 -124
c0 -91 73 -113 205 -113zM256 603v49c0 56 14 81 50 103l12 -17c-29 -18 -40 -36 -40 -77h28v-58h-50z" />
    <glyph glyph-name="imacron" unicode="&#x12b;" horiz-adv-x="204" 
d="M89 0v542h26v-542h-26zM-59 603v24h322v-24h-322z" />
    <glyph glyph-name="iogonek" unicode="&#x12f;" horiz-adv-x="204" 
d="M101 -200c-89 0 -102 39 -102 79c0 55 51 105 90 128v535h26v-542c-54 -36 -90 -77 -90 -121c0 -28 10 -55 76 -55c38 0 67 12 85 23l14 -20c-21 -13 -55 -27 -99 -27zM89 629v85h26v-85h-26z" />
    <glyph glyph-name="kcommaaccent" unicode="&#x137;" horiz-adv-x="503" 
d="M85 0v776h26v-579l312 345h30l-208 -230l231 -312h-29l-218 294l-118 -131v-163h-26zM226 -192l-12 17c29 18 40 36 40 77h-28v58h50v-49c0 -56 -14 -81 -50 -103z" />
    <glyph glyph-name="lacute" unicode="&#x13a;" horiz-adv-x="262" 
d="M179 0c-82 0 -90 39 -90 106v670h26v-670c0 -60 6 -82 68 -82h27v-24h-31zM85 808l156 138h35l-160 -138h-31z" />
    <glyph glyph-name="lcommaaccent" unicode="&#x13c;" horiz-adv-x="262" 
d="M179 0c-82 0 -90 39 -90 106v670h26v-670c0 -60 6 -82 68 -82h27v-24h-31zM106 -192l-12 17c29 18 40 36 40 77h-28v58h50v-49c0 -56 -14 -81 -50 -103z" />
    <glyph glyph-name="lcaron" unicode="&#x13e;" horiz-adv-x="277" 
d="M222 624l-12 17c29 18 40 36 40 77h-28v58h50v-49c0 -56 -14 -81 -50 -103zM179 0c-82 0 -90 39 -90 106v670h26v-670c0 -60 6 -82 68 -82h27v-24h-31z" />
    <glyph glyph-name="nacute" unicode="&#x144;" horiz-adv-x="592" 
d="M85 0v541l21 1l4 -96c21 58 72 109 204 109c183 0 197 -89 197 -222v-333h-26v333c0 118 -10 198 -171 198c-170 0 -203 -93 -203 -217v-314h-26zM235 603l156 138h35l-160 -138h-31z" />
    <glyph glyph-name="ncommaaccent" unicode="&#x146;" horiz-adv-x="592" 
d="M85 0v541l21 1l4 -96c21 58 72 109 204 109c183 0 197 -89 197 -222v-333h-26v333c0 118 -10 198 -171 198c-170 0 -203 -93 -203 -217v-314h-26zM271 -192l-12 17c29 18 40 36 40 77h-28v58h50v-49c0 -56 -14 -81 -50 -103z" />
    <glyph glyph-name="ncaron" unicode="&#x148;" horiz-adv-x="592" 
d="M85 0v541l21 1l4 -96c21 58 72 109 204 109c183 0 197 -89 197 -222v-333h-26v333c0 118 -10 198 -171 198c-170 0 -203 -93 -203 -217v-314h-26zM277 603l-151 138h33l137 -122l137 122h32l-151 -138h-37z" />
    <glyph glyph-name="omacron" unicode="&#x14d;" horiz-adv-x="612" 
d="M305 -11c-177 0 -247 90 -247 283s70 283 247 283s249 -90 249 -283s-72 -283 -249 -283zM305 13c158 0 223 79 223 259s-65 259 -223 259s-221 -79 -221 -259s63 -259 221 -259zM145 603v24h322v-24h-322z" />
    <glyph glyph-name="ohungarumlaut" unicode="&#x151;" horiz-adv-x="612" 
d="M305 -11c-177 0 -247 90 -247 283s70 283 247 283s249 -90 249 -283s-72 -283 -249 -283zM305 13c158 0 223 79 223 259s-65 259 -223 259s-221 -79 -221 -259s63 -259 221 -259zM155 603l126 138h33l-130 -138h-29zM356 603l126 138h33l-130 -138h-29z" />
    <glyph glyph-name="racute" unicode="&#x155;" horiz-adv-x="331" 
d="M85 0v541l21 1l4 -115c24 65 87 122 196 122v-24c-136 0 -195 -93 -195 -215v-310h-26zM120 603l156 138h35l-160 -138h-31z" />
    <glyph glyph-name="rcommaaccent" unicode="&#x157;" horiz-adv-x="331" 
d="M85 0v541l21 1l4 -115c24 65 87 122 196 122v-24c-136 0 -195 -93 -195 -215v-310h-26zM75 -192l-12 17c29 18 40 36 40 77h-28v58h50v-49c0 -56 -14 -81 -50 -103z" />
    <glyph glyph-name="rcaron" unicode="&#x159;" horiz-adv-x="323" 
d="M85 0v541l21 1l4 -115c24 65 87 122 196 122v-24c-136 0 -195 -93 -195 -215v-310h-26zM142 603l-151 138h33l137 -122l137 122h32l-151 -138h-37z" />
    <glyph glyph-name="sacute" unicode="&#x15b;" horiz-adv-x="491" 
d="M247 -11c-57 0 -130 8 -204 56l14 20c69 -44 137 -52 190 -52c114 0 173 27 173 131c0 83 -49 100 -173 129c-120 28 -184 51 -184 150c0 80 48 132 183 132c78 0 135 -18 180 -45l-13 -21c-42 25 -95 42 -167 42c-119 0 -157 -43 -157 -108c0 -81 51 -101 164 -127
c128 -30 193 -51 193 -152c0 -123 -71 -155 -199 -155zM184 603l156 138h35l-160 -138h-31z" />
    <glyph glyph-name="scedilla" unicode="&#x15f;" horiz-adv-x="491" 
d="M247 -11c-57 0 -130 8 -204 56l14 20c69 -44 137 -52 190 -52c114 0 173 27 173 131c0 83 -49 100 -173 129c-120 28 -184 51 -184 150c0 80 48 132 183 132c78 0 135 -18 180 -45l-13 -21c-42 25 -95 42 -167 42c-119 0 -157 -43 -157 -108c0 -81 51 -101 164 -127
c128 -30 193 -51 193 -152c0 -123 -71 -155 -199 -155zM257 -208c-46 0 -78 10 -105 25l13 21c24 -13 55 -22 92 -22c79 0 88 34 88 61c0 37 -11 56 -97 53l-17 14l11 64h26l-9 -55c59 5 112 -5 112 -76c0 -37 -12 -85 -114 -85z" />
    <glyph glyph-name="scommaaccent" unicode="&#x219;" horiz-adv-x="491" 
d="M247 -11c-57 0 -130 8 -204 56l14 20c69 -44 137 -52 190 -52c114 0 173 27 173 131c0 83 -49 100 -173 129c-120 28 -184 51 -184 150c0 80 48 132 183 132c78 0 135 -18 180 -45l-13 -21c-42 25 -95 42 -167 42c-119 0 -157 -43 -157 -108c0 -81 51 -101 164 -127
c128 -30 193 -51 193 -152c0 -123 -71 -155 -199 -155zM220 -192l-12 17c29 18 40 36 40 77h-28v58h50v-49c0 -56 -14 -81 -50 -103z" />
    <glyph glyph-name="tcommaaccent" unicode="&#x163;" horiz-adv-x="377" 
d="M34 518v24h103l4 186l22 1v-187h163v-24h-163v-399c0 -57 8 -95 91 -95h72v-24h-72c-107 0 -117 48 -117 119v399h-103zM132 -192l-12 17c29 18 40 36 40 77h-28v58h50v-49c0 -56 -14 -81 -50 -103z" />
    <glyph glyph-name="tcommaaccent" unicode="&#x21b;" horiz-adv-x="377" 
d="M34 518v24h103l4 186l22 1v-187h163v-24h-163v-399c0 -57 8 -95 91 -95h72v-24h-72c-107 0 -117 48 -117 119v399h-103zM132 -192l-12 17c29 18 40 36 40 77h-28v58h50v-49c0 -56 -14 -81 -50 -103z" />
    <glyph glyph-name="tcaron" unicode="&#x165;" horiz-adv-x="377" 
d="M277 664l-12 17c29 18 40 36 40 77h-28v58h50v-49c0 -56 -14 -81 -50 -103zM34 518v24h103l4 186l22 1v-187h163v-24h-163v-399c0 -57 8 -95 91 -95h72v-24h-72c-107 0 -117 48 -117 119v399h-103z" />
    <glyph glyph-name="umacron" unicode="&#x16b;" horiz-adv-x="588" 
d="M294 -11c-212 0 -213 98 -213 212v341h26v-341c0 -101 -3 -188 187 -188c191 0 187 87 187 193v336h26v-336c0 -119 -3 -217 -213 -217zM133 603v24h322v-24h-322z" />
    <glyph glyph-name="uring" unicode="&#x16f;" horiz-adv-x="588" 
d="M294 -11c-212 0 -213 98 -213 212v341h26v-341c0 -101 -3 -188 187 -188c191 0 187 87 187 193v336h26v-336c0 -119 -3 -217 -213 -217zM294 596c-73 0 -106 46 -106 107s33 108 106 108c70 0 105 -47 105 -108s-35 -107 -105 -107zM294 619c55 0 81 36 81 84
s-26 85 -81 85c-57 0 -82 -37 -82 -85s25 -84 82 -84z" />
    <glyph glyph-name="uhungarumlaut" unicode="&#x171;" horiz-adv-x="588" 
d="M294 -11c-212 0 -213 98 -213 212v341h26v-341c0 -101 -3 -188 187 -188c191 0 187 87 187 193v336h26v-336c0 -119 -3 -217 -213 -217zM143 603l126 138h33l-130 -138h-29zM344 603l126 138h33l-130 -138h-29z" />
    <glyph glyph-name="uogonek" unicode="&#x173;" horiz-adv-x="588" 
d="M322 -200c-89 0 -102 39 -102 79c0 44 32 84 64 110c-200 4 -203 100 -203 212v341h26v-341c0 -101 -2 -188 189 -188s185 87 185 193v336h26v-336c0 -114 0 -209 -186 -216c-45 -31 -75 -74 -75 -111c0 -28 10 -55 76 -55c38 0 67 12 85 23l14 -20
c-21 -13 -55 -27 -99 -27z" />
    <glyph glyph-name="zacute" unicode="&#x17a;" horiz-adv-x="478" 
d="M41 0v24l359 494h-341v24h369v-24l-359 -494h371v-24h-399zM178 603l156 138h35l-160 -138h-31z" />
    <glyph glyph-name="zdotaccent" unicode="&#x17c;" horiz-adv-x="478" 
d="M41 0v24l359 494h-341v24h369v-24l-359 -494h371v-24h-399zM226 603v85h26v-85h-26z" />
    <glyph glyph-name="space.lftab" horiz-adv-x="375" 
 />
    <glyph glyph-name="comma.lftab" horiz-adv-x="375" 
d="M162 -94l-12 17c29 18 40 36 40 77h-28v64h50v-55c0 -56 -14 -81 -50 -103z" />
    <glyph glyph-name="period.lftab" horiz-adv-x="375" 
d="M162 0v64h50v-64h-50z" />
    <glyph glyph-name="minus.lftab" 
d="M149 341v24h450v-24h-450z" />
    <glyph glyph-name="multiply.lftab" 
d="M209 171l-17 17l165 165l-165 165l17 17l165 -165l165 165l17 -17l-165 -165l165 -165l-17 -17l-165 165z" />
    <glyph glyph-name="quotedbl.lftab" 
d="M276 495l-4 246h26l-4 -246h-18zM456 495l-4 246h26l-4 -246h-18z" />
    <glyph glyph-name="numbersign.lftab" 
d="M178 0l48 252h-128v24h133l39 203h-172v24h177l46 238h26l-46 -238h199l46 238h26l-46 -238h126v-24h-131l-39 -203h170v-24h-174l-49 -252h-26l48 252h-198l-49 -252h-26zM257 276h199l39 203h-199z" />
    <glyph glyph-name="dollar.lftab" 
d="M367 -94v94c-79 1 -150 10 -232 68l15 20c77 -54 145 -63 218 -64v360c-113 28 -202 58 -202 181c0 116 57 174 201 176v61h26v-61c60 -3 131 -17 179 -52l-15 -19c-41 29 -102 44 -165 47v-315c122 -30 222 -64 222 -200c0 -132 -74 -199 -221 -202v-94h-26zM588 202
c0 118 -79 147 -196 176v-354c132 3 196 61 196 178zM192 565c0 -100 69 -130 176 -157v309c-128 -2 -176 -52 -176 -152z" />
    <glyph glyph-name="percent.lftab" horiz-adv-x="1160" 
d="M285 299c-136 0 -175 101 -175 226c0 126 39 228 175 228s176 -102 176 -228c0 -125 -40 -226 -176 -226zM285 323c116 0 150 90 150 202c0 113 -34 204 -150 204c-115 0 -149 -91 -149 -204c0 -112 34 -202 149 -202zM874 -11c-136 0 -175 101 -175 226
c0 126 39 228 175 228s176 -102 176 -228c0 -125 -40 -226 -176 -226zM874 13c116 0 150 90 150 202c0 113 -34 204 -150 204c-115 0 -149 -91 -149 -204c0 -112 34 -202 149 -202zM360 0l412 741h27l-412 -741h-27z" />
    <glyph glyph-name="quotesingle.lftab" 
d="M366 495l-4 246h26l-4 -246h-18z" />
    <glyph glyph-name="plus.lftab" 
d="M361 128v213h-212v24h212v213h26v-213h212v-24h-212v-213h-26z" />
    <glyph glyph-name="zero.lftab" 
d="M374 -11c-229 0 -260 177 -260 383s31 381 260 381s261 -175 261 -381s-32 -383 -261 -383zM374 13c206 0 235 166 235 359s-29 357 -235 357s-234 -164 -234 -357s28 -359 234 -359z" />
    <glyph glyph-name="one.lftab" 
d="M190 0v24h202v693h-201v24h227v-717h186v-24h-414z" />
    <glyph glyph-name="two.lftab" 
d="M138 0v24l254 277c100 110 158 177 158 290c0 96 -55 138 -177 138c-89 0 -152 -18 -199 -42l-12 21c50 26 122 45 211 45c136 0 203 -50 203 -162s-58 -189 -166 -306l-241 -261h421v-24h-452z" />
    <glyph glyph-name="three.lftab" 
d="M358 -11c-81 0 -157 14 -243 60l13 21c82 -44 151 -57 230 -57c142 0 207 49 207 195c0 120 -37 190 -230 190h-85v24h83c160 0 211 49 211 162c0 108 -58 145 -186 145c-66 0 -145 -15 -210 -54l-14 20c70 42 151 58 224 58c145 0 211 -44 211 -169
c0 -98 -35 -150 -125 -173c116 -24 146 -93 146 -203c0 -164 -72 -219 -232 -219z" />
    <glyph glyph-name="four.lftab" 
d="M116 211v24l336 506h31l-337 -506h334l5 268h21v-268h151v-24h-151v-211h-26v211h-364z" />
    <glyph glyph-name="five.lftab" 
d="M363 -11c-96 0 -165 27 -229 60l13 21c60 -31 124 -57 216 -57c130 0 231 45 231 219c0 169 -89 221 -216 221c-89 0 -140 -13 -199 -45l-23 7l19 326h395v-24h-374l-15 -281c32 19 102 41 197 41c143 0 242 -59 242 -245c0 -194 -111 -243 -257 -243z" />
    <glyph glyph-name="six.lftab" 
d="M394 -11c-167 0 -264 67 -264 297c0 317 89 455 398 455h8v-24h-8c-267 0 -347 -102 -367 -330c44 76 127 108 233 108c187 0 242 -99 242 -253s-55 -253 -242 -253zM394 13c165 0 216 90 216 229s-51 229 -216 229c-133 0 -239 -65 -239 -195c0 -202 95 -263 239 -263z
" />
    <glyph glyph-name="seven.lftab" 
d="M272 0l316 717h-434v24h460v-24l-316 -717h-26z" />
    <glyph glyph-name="eight.lftab" 
d="M376 -11c-174 0 -257 70 -257 217c0 114 50 180 153 204c-91 22 -128 76 -128 165c0 117 64 178 232 178c167 0 230 -61 230 -178c0 -89 -37 -144 -127 -165c101 -25 152 -91 152 -204c0 -147 -86 -217 -255 -217zM376 13c152 0 229 62 229 193s-77 193 -229 193
c-156 0 -231 -62 -231 -193s75 -193 231 -193zM376 422c148 0 204 52 204 153s-56 154 -204 154c-149 0 -206 -53 -206 -154s57 -153 206 -153z" />
    <glyph glyph-name="nine.lftab" 
d="M213 0v24h8c267 0 347 103 367 331c-44 -76 -127 -108 -233 -108c-187 0 -242 99 -242 253s55 253 242 253c167 0 264 -67 264 -297c0 -317 -89 -456 -398 -456h-8zM355 271c133 0 239 65 239 195c0 202 -95 263 -239 263c-165 0 -216 -90 -216 -229s51 -229 216 -229z
" />
    <glyph glyph-name="less.lftab" 
d="M574 111l-439 222v24l439 222v-24l-416 -210l416 -210v-24z" />
    <glyph glyph-name="equal.lftab" 
d="M155 242v24h439v-24h-439zM155 439v24h439v-24h-439z" />
    <glyph glyph-name="greater.lftab" 
d="M175 111v24l416 210l-416 210v24l439 -222v-24z" />
    <glyph glyph-name="degree.lftab" 
d="M374 288c-145 0 -203 90 -203 232s58 233 203 233c146 0 204 -91 204 -233s-58 -232 -204 -232zM374 312c127 0 178 81 178 208s-51 209 -178 209s-177 -82 -177 -209s50 -208 177 -208z" />
    <glyph glyph-name="cent.lftab" 
d="M397 -94v84c-178 5 -234 106 -234 282c0 177 58 277 234 282v60h26v-60c85 -3 134 -38 166 -69l-18 -17c-28 27 -79 59 -149 62v-517c63 2 109 26 151 62l17 -17c-46 -40 -97 -65 -167 -68v-84h-26zM189 272c0 -161 50 -255 209 -259v518c-157 -5 -209 -96 -209 -259z
" />
    <glyph glyph-name="sterling.lftab" 
d="M492 -9c-83 0 -162 26 -214 53c-21 -29 -62 -44 -138 -44v24c122 0 136 39 136 134c0 60 -19 139 -38 217h-108v24h103c-15 64 -28 125 -28 174c0 109 51 180 189 180c70 0 123 -11 175 -35l-11 -22c-49 23 -98 33 -164 33c-122 0 -163 -62 -163 -156
c0 -49 13 -111 28 -174h256v-24h-251c19 -77 38 -156 38 -217c0 -37 -2 -68 -12 -92c49 -26 126 -51 202 -51c82 0 94 34 94 110v20h26v-20c0 -91 -18 -134 -120 -134z" />
    <glyph glyph-name="yen.lftab" 
d="M140 244v24h222v46l-262 427h28l247 -402l248 402h27l-262 -427v-46h223v-24h-223v-116h223v-24h-223v-104h-26v104h-222v24h222v116h-222z" />
    <glyph glyph-name="ordfeminine.lftab" 
d="M310 291c-105 0 -152 50 -152 132c0 126 92 159 304 159h26c-1 108 -21 147 -133 147c-54 0 -107 -22 -132 -39l-15 20c28 19 86 43 147 43c141 0 159 -52 159 -179v-187c0 -56 4 -63 51 -63v-24h-5c-61 0 -72 12 -72 90c-28 -68 -86 -99 -178 -99zM310 315
c119 0 178 62 178 199v44h-26c-194 0 -278 -28 -278 -135c0 -67 39 -108 126 -108zM199 173v24h319v-24h-319z" />
    <glyph glyph-name="ordmasculine.lftab" 
d="M374 297c-130 0 -199 75 -199 228s69 228 199 228s201 -75 201 -228s-71 -228 -201 -228zM374 321c113 0 175 67 175 204s-62 204 -175 204s-173 -67 -173 -204s60 -204 173 -204zM201 173v24h348v-24h-348z" />
    <glyph glyph-name="florin.lftab" 
d="M226 420v24h109l31 145c17 81 32 152 152 152h17v-24h-17c-101 0 -113 -64 -127 -132l-30 -141h174v-24h-179l-123 -585h-26l123 585h-104z" />
    <glyph glyph-name="divide.lftab" 
d="M350 128v64h50v-64h-50zM149 341v24h450v-24h-450zM350 514v64h50v-64h-50z" />
    <glyph glyph-name="fraction.lftab" 
d="M152 0l416 741h29l-416 -741h-29z" />
    <glyph glyph-name="Euro.lftab" 
d="M106 438v24h109c13 180 74 291 244 291c66 0 111 -11 156 -34l-12 -21c-41 21 -82 31 -144 31c-150 0 -206 -102 -218 -267h293v-24h-295c-1 -21 -1 -42 -1 -64c0 -18 0 -36 1 -52h295v-24h-294c10 -184 61 -285 218 -285c57 0 101 6 146 34l14 -20
c-50 -31 -97 -38 -160 -38c-177 0 -234 110 -244 309h-108v24h107c-1 17 -1 34 -1 52c0 22 0 43 1 64h-107z" />
    <glyph glyph-name="perthousand.lftab" horiz-adv-x="1640" 
d="M324 299c-136 0 -175 101 -175 226c0 126 39 228 175 228s176 -102 176 -228c0 -125 -40 -226 -176 -226zM324 323c116 0 150 90 150 202c0 113 -34 204 -150 204c-115 0 -149 -91 -149 -204c0 -112 34 -202 149 -202zM913 -11c-136 0 -175 101 -175 226
c0 126 39 228 175 228s176 -102 176 -228c0 -125 -40 -226 -176 -226zM913 13c116 0 150 90 150 202c0 113 -34 204 -150 204c-115 0 -149 -91 -149 -204c0 -112 34 -202 149 -202zM1325 -11c-136 0 -175 101 -175 226c0 126 39 228 175 228s176 -102 176 -228
c0 -125 -40 -226 -176 -226zM1325 13c116 0 150 90 150 202c0 113 -34 204 -150 204c-115 0 -149 -91 -149 -204c0 -112 34 -202 149 -202zM399 0l412 741h27l-412 -741h-27z" />
    <glyph glyph-name="zero.superior" horiz-adv-x="493" 
d="M246 304c-133 0 -151 103 -151 223c0 119 18 221 151 221s152 -102 152 -221c0 -120 -19 -223 -152 -223zM246 327c114 0 127 87 127 200c0 112 -13 198 -127 198s-126 -86 -126 -198c0 -113 12 -200 126 -200z" />
    <glyph glyph-name="one.superior" horiz-adv-x="299" 
d="M156 310v407h-92v24h117v-431h-25z" />
    <glyph glyph-name="two.superior" horiz-adv-x="397" 
d="M65 310v23l135 147c69 75 90 100 90 164c0 55 -32 79 -101 79c-50 0 -86 -10 -113 -23l-11 21c29 14 69 25 124 25c87 0 126 -30 126 -102c0 -70 -32 -106 -99 -180l-120 -131h224v-23h-255z" />
    <glyph glyph-name="three.superior" horiz-adv-x="422" 
d="M203 304c-49 0 -91 8 -143 35l12 20c47 -25 86 -32 131 -32c80 0 117 23 117 106c0 68 -21 104 -130 104h-49v22h47c91 0 120 23 120 87c0 56 -33 78 -105 78c-38 0 -83 -9 -119 -31l-14 19c40 25 91 35 133 35c90 0 130 -27 130 -101c0 -54 -19 -83 -65 -98
c57 -12 77 -55 77 -115c0 -101 -44 -129 -142 -129z" />
    <glyph glyph-name="four.superior" horiz-adv-x="458" 
d="M79 423v24l195 294h28l-196 -294h185l3 156h22v-156h78v-24h-78v-113h-25v113h-212z" />
    <glyph glyph-name="five.superior" horiz-adv-x="455" 
d="M221 305c-59 0 -100 16 -138 36l12 21c35 -18 72 -33 126 -33c76 0 134 21 134 123c0 98 -52 121 -125 121c-46 0 -75 -5 -104 -19l-24 5l11 182h238v-24h-215l-8 -137c28 11 60 17 102 17c88 0 151 -29 151 -145c0 -121 -69 -147 -160 -147z" />
    <glyph glyph-name="six.superior" horiz-adv-x="471" 
d="M247 304c-97 0 -155 37 -155 177c0 178 52 260 225 260h5v-23h-5c-133 0 -181 -49 -198 -166c27 41 75 56 128 56c114 0 142 -59 142 -152s-28 -152 -142 -152zM247 327c93 0 117 51 117 129s-24 129 -117 129c-74 0 -130 -35 -130 -110c0 -113 49 -148 130 -148z" />
    <glyph glyph-name="seven.superior" horiz-adv-x="372" 
d="M115 310l180 407h-238v24h268v-14l-184 -417h-26z" />
    <glyph glyph-name="eight.superior" horiz-adv-x="480" 
d="M240 304c-103 0 -153 39 -153 129c0 63 25 99 77 115c-45 13 -63 43 -63 94c0 72 38 106 139 106s139 -34 139 -106c0 -51 -19 -81 -64 -95c52 -15 78 -52 78 -114c0 -90 -51 -129 -153 -129zM240 327c85 0 128 32 128 106c0 72 -43 104 -128 104
c-86 0 -128 -32 -128 -104c0 -74 42 -106 128 -106zM240 558c83 0 114 27 114 84c0 56 -31 83 -114 83s-114 -27 -114 -83c0 -57 31 -84 114 -84z" />
    <glyph glyph-name="nine.superior" horiz-adv-x="471" 
d="M149 310v23h5c133 0 181 49 198 166c-27 -41 -75 -56 -128 -56c-114 0 -142 59 -142 152s28 152 142 152c97 0 155 -37 155 -177c0 -178 -52 -260 -225 -260h-5zM224 466c74 0 130 35 130 110c0 113 -49 148 -130 148c-93 0 -117 -51 -117 -129s24 -129 117 -129z" />
    <glyph glyph-name="zero.inferior" horiz-adv-x="493" 
d="M246 -6c-133 0 -151 103 -151 223c0 119 18 221 151 221s152 -102 152 -221c0 -120 -19 -223 -152 -223zM246 17c114 0 127 87 127 200c0 112 -13 198 -127 198s-126 -86 -126 -198c0 -113 12 -200 126 -200z" />
    <glyph glyph-name="one.inferior" horiz-adv-x="299" 
d="M156 0v407h-92v24h117v-431h-25z" />
    <glyph glyph-name="two.inferior" horiz-adv-x="397" 
d="M65 0v23l135 147c69 75 90 100 90 164c0 55 -32 79 -101 79c-50 0 -86 -10 -113 -23l-11 21c29 14 69 25 124 25c87 0 126 -30 126 -102c0 -70 -32 -106 -99 -180l-120 -131h224v-23h-255z" />
    <glyph glyph-name="three.inferior" horiz-adv-x="422" 
d="M203 -6c-49 0 -91 8 -143 35l12 20c47 -25 86 -32 131 -32c80 0 117 23 117 106c0 68 -21 104 -130 104h-49v22h47c91 0 120 23 120 87c0 56 -33 78 -105 78c-38 0 -83 -9 -119 -31l-14 19c40 25 91 35 133 35c90 0 130 -27 130 -101c0 -54 -19 -83 -65 -98
c57 -12 77 -55 77 -115c0 -101 -44 -129 -142 -129z" />
    <glyph glyph-name="four.inferior" horiz-adv-x="458" 
d="M79 113v24l195 294h28l-196 -294h185l3 156h22v-156h78v-24h-78v-113h-25v113h-212z" />
    <glyph glyph-name="five.inferior" horiz-adv-x="455" 
d="M221 -5c-59 0 -100 16 -138 36l12 21c35 -18 72 -33 126 -33c76 0 134 21 134 123c0 98 -52 121 -125 121c-46 0 -75 -5 -104 -19l-24 5l11 182h238v-24h-215l-8 -137c28 11 60 17 102 17c88 0 151 -29 151 -145c0 -121 -69 -147 -160 -147z" />
    <glyph glyph-name="six.inferior" horiz-adv-x="471" 
d="M247 -6c-97 0 -155 37 -155 177c0 178 52 260 225 260h5v-23h-5c-133 0 -181 -49 -198 -166c27 41 75 56 128 56c114 0 142 -59 142 -152s-28 -152 -142 -152zM247 17c93 0 117 51 117 129s-24 129 -117 129c-74 0 -130 -35 -130 -110c0 -113 49 -148 130 -148z" />
    <glyph glyph-name="seven.inferior" horiz-adv-x="372" 
d="M115 0l180 407h-238v24h268v-14l-184 -417h-26z" />
    <glyph glyph-name="eight.inferior" horiz-adv-x="480" 
d="M240 -6c-103 0 -153 39 -153 129c0 63 25 99 77 115c-45 13 -63 43 -63 94c0 72 38 106 139 106s139 -34 139 -106c0 -51 -19 -81 -64 -95c52 -15 78 -52 78 -114c0 -90 -51 -129 -153 -129zM240 17c85 0 128 32 128 106c0 72 -43 104 -128 104c-86 0 -128 -32 -128 -104
c0 -74 42 -106 128 -106zM240 248c83 0 114 27 114 84c0 56 -31 83 -114 83s-114 -27 -114 -83c0 -57 31 -84 114 -84z" />
    <glyph glyph-name="nine.inferior" horiz-adv-x="471" 
d="M149 0v23h5c133 0 181 49 198 166c-27 -41 -75 -56 -128 -56c-114 0 -142 59 -142 152s28 152 142 152c97 0 155 -37 155 -177c0 -178 -52 -260 -225 -260h-5zM224 156c74 0 130 35 130 110c0 113 -49 148 -130 148c-93 0 -117 -51 -117 -129s24 -129 117 -129z" />
    <glyph glyph-name="zero.numerator" horiz-adv-x="433" 
d="M216 304c-133 0 -151 103 -151 223c0 119 18 221 151 221s152 -102 152 -221c0 -120 -19 -223 -152 -223zM216 327c114 0 127 87 127 200c0 112 -13 198 -127 198s-126 -86 -126 -198c0 -113 12 -200 126 -200z" />
    <glyph glyph-name="one.numerator" horiz-adv-x="239" 
d="M126 310v407h-92v24h117v-431h-25z" />
    <glyph glyph-name="two.numerator" horiz-adv-x="337" 
d="M35 310v23l135 147c69 75 90 100 90 164c0 55 -32 79 -101 79c-50 0 -86 -10 -113 -23l-11 21c29 14 69 25 124 25c87 0 126 -30 126 -102c0 -70 -32 -106 -99 -180l-120 -131h224v-23h-255z" />
    <glyph glyph-name="three.numerator" horiz-adv-x="362" 
d="M173 304c-49 0 -91 8 -143 35l12 20c47 -25 86 -32 131 -32c80 0 117 23 117 106c0 68 -21 104 -130 104h-49v22h47c91 0 120 23 120 87c0 56 -33 78 -105 78c-38 0 -83 -9 -119 -31l-14 19c40 25 91 35 133 35c90 0 130 -27 130 -101c0 -54 -19 -83 -65 -98
c57 -12 77 -55 77 -115c0 -101 -44 -129 -142 -129z" />
    <glyph glyph-name="four.numerator" horiz-adv-x="398" 
d="M49 423v24l195 294h28l-196 -294h185l3 156h22v-156h78v-24h-78v-113h-25v113h-212z" />
    <glyph glyph-name="five.numerator" horiz-adv-x="395" 
d="M191 305c-59 0 -100 16 -138 36l12 21c35 -18 72 -33 126 -33c76 0 134 21 134 123c0 98 -52 121 -125 121c-46 0 -75 -5 -104 -19l-24 5l11 182h238v-24h-215l-8 -137c28 11 60 17 102 17c88 0 151 -29 151 -145c0 -121 -69 -147 -160 -147z" />
    <glyph glyph-name="six.numerator" horiz-adv-x="411" 
d="M217 304c-97 0 -155 37 -155 177c0 178 52 260 225 260h5v-23h-5c-133 0 -181 -49 -198 -166c27 41 75 56 128 56c114 0 142 -59 142 -152s-28 -152 -142 -152zM217 327c93 0 117 51 117 129s-24 129 -117 129c-74 0 -130 -35 -130 -110c0 -113 49 -148 130 -148z" />
    <glyph glyph-name="seven.numerator" horiz-adv-x="312" 
d="M85 310l180 407h-238v24h268v-14l-184 -417h-26z" />
    <glyph glyph-name="eight.numerator" horiz-adv-x="420" 
d="M210 304c-103 0 -153 39 -153 129c0 63 25 99 77 115c-45 13 -63 43 -63 94c0 72 38 106 139 106s139 -34 139 -106c0 -51 -19 -81 -64 -95c52 -15 78 -52 78 -114c0 -90 -51 -129 -153 -129zM210 327c85 0 128 32 128 106c0 72 -43 104 -128 104
c-86 0 -128 -32 -128 -104c0 -74 42 -106 128 -106zM210 558c83 0 114 27 114 84c0 56 -31 83 -114 83s-114 -27 -114 -83c0 -57 31 -84 114 -84z" />
    <glyph glyph-name="nine.numerator" horiz-adv-x="411" 
d="M119 310v23h5c133 0 181 49 198 166c-27 -41 -75 -56 -128 -56c-114 0 -142 59 -142 152s28 152 142 152c97 0 155 -37 155 -177c0 -178 -52 -260 -225 -260h-5zM194 466c74 0 130 35 130 110c0 113 -49 148 -130 148c-93 0 -117 -51 -117 -129s24 -129 117 -129z" />
    <glyph glyph-name="zero.denominator" horiz-adv-x="433" 
d="M216 -6c-133 0 -151 103 -151 223c0 119 18 221 151 221s152 -102 152 -221c0 -120 -19 -223 -152 -223zM216 17c114 0 127 87 127 200c0 112 -13 198 -127 198s-126 -86 -126 -198c0 -113 12 -200 126 -200z" />
    <glyph glyph-name="one.denominator" horiz-adv-x="239" 
d="M126 0v407h-92v24h117v-431h-25z" />
    <glyph glyph-name="two.denominator" horiz-adv-x="337" 
d="M35 0v23l135 147c69 75 90 100 90 164c0 55 -32 79 -101 79c-50 0 -86 -10 -113 -23l-11 21c29 14 69 25 124 25c87 0 126 -30 126 -102c0 -70 -32 -106 -99 -180l-120 -131h224v-23h-255z" />
    <glyph glyph-name="three.denominator" horiz-adv-x="362" 
d="M173 -6c-49 0 -91 8 -143 35l12 20c47 -25 86 -32 131 -32c80 0 117 23 117 106c0 68 -21 104 -130 104h-49v22h47c91 0 120 23 120 87c0 56 -33 78 -105 78c-38 0 -83 -9 -119 -31l-14 19c40 25 91 35 133 35c90 0 130 -27 130 -101c0 -54 -19 -83 -65 -98
c57 -12 77 -55 77 -115c0 -101 -44 -129 -142 -129z" />
    <glyph glyph-name="four.denominator" horiz-adv-x="398" 
d="M49 113v24l195 294h28l-196 -294h185l3 156h22v-156h78v-24h-78v-113h-25v113h-212z" />
    <glyph glyph-name="five.denominator" horiz-adv-x="395" 
d="M191 -5c-59 0 -100 16 -138 36l12 21c35 -18 72 -33 126 -33c76 0 134 21 134 123c0 98 -52 121 -125 121c-46 0 -75 -5 -104 -19l-24 5l11 182h238v-24h-215l-8 -137c28 11 60 17 102 17c88 0 151 -29 151 -145c0 -121 -69 -147 -160 -147z" />
    <glyph glyph-name="six.denominator" horiz-adv-x="411" 
d="M217 -6c-97 0 -155 37 -155 177c0 178 52 260 225 260h5v-23h-5c-133 0 -181 -49 -198 -166c27 41 75 56 128 56c114 0 142 -59 142 -152s-28 -152 -142 -152zM217 17c93 0 117 51 117 129s-24 129 -117 129c-74 0 -130 -35 -130 -110c0 -113 49 -148 130 -148z" />
    <glyph glyph-name="seven.denominator" horiz-adv-x="312" 
d="M85 0l180 407h-238v24h268v-14l-184 -417h-26z" />
    <glyph glyph-name="eight.denominator" horiz-adv-x="420" 
d="M210 -6c-103 0 -153 39 -153 129c0 63 25 99 77 115c-45 13 -63 43 -63 94c0 72 38 106 139 106s139 -34 139 -106c0 -51 -19 -81 -64 -95c52 -15 78 -52 78 -114c0 -90 -51 -129 -153 -129zM210 17c85 0 128 32 128 106c0 72 -43 104 -128 104c-86 0 -128 -32 -128 -104
c0 -74 42 -106 128 -106zM210 248c83 0 114 27 114 84c0 56 -31 83 -114 83s-114 -27 -114 -83c0 -57 31 -84 114 -84z" />
    <glyph glyph-name="nine.denominator" horiz-adv-x="411" 
d="M119 0v23h5c133 0 181 49 198 166c-27 -41 -75 -56 -128 -56c-114 0 -142 59 -142 152s28 152 142 152c97 0 155 -37 155 -177c0 -178 -52 -260 -225 -260h-5zM194 156c74 0 130 35 130 110c0 113 -49 148 -130 148c-93 0 -117 -51 -117 -129s24 -129 117 -129z" />
    <glyph glyph-name="uni00A0" unicode="&#xa0;" horiz-adv-x="247" 
 />
    <glyph glyph-name="registered.superior" horiz-adv-x="629" 
d="M314 211c-168 0 -263 106 -263 270c0 166 95 272 263 272c167 0 264 -106 264 -272c0 -164 -97 -270 -264 -270zM314 234c152 0 240 97 240 247c0 152 -88 249 -240 249c-153 0 -239 -97 -239 -249c0 -150 86 -247 239 -247zM414 298l-95 159h-98v-159h-24v369h133
c71 0 117 -26 117 -105c0 -76 -42 -102 -102 -105l96 -159h-27zM221 480h111c53 0 91 19 91 82c0 62 -37 82 -93 82h-109v-164z" />
    </font>
</defs>
</svg>
