<?xml version="1.0" standalone="no"?>
<!DOCTYPE svg PUBLIC "-//W3C//DTD SVG 1.1//EN" "http://www.w3.org/Graphics/SVG/1.1/DTD/svg11.dtd" >
<svg xmlns="http://www.w3.org/2000/svg" xmlns:xlink="http://www.w3.org/1999/xlink" version="1.1">
<metadata>
Created by FontForge 20170731 at Mon Jul 16 14:59:16 2007
 By Aleksey,,,
Copyright (c) The Font Bureau, Inc., 2003. All rights reserved.
</metadata>
<defs>
<font id="AntennaCond-ExtraLight" horiz-adv-x="459" >
  <font-face 
    font-family="AntennaCond ExtraLight"
    font-weight="200"
    font-stretch="normal"
    units-per-em="1000"
    panose-1="2 0 5 6 0 0 0 2 0 4"
    ascent="800"
    descent="-200"
    x-height="547"
    cap-height="741"
    bbox="-33 -203 1128 933"
    underline-thickness="50"
    underline-position="-200"
    unicode-range="U+0020-FB02"
  />
<missing-glyph horiz-adv-x="187" 
 />
    <glyph glyph-name="fi" unicode="fi" horiz-adv-x="468" 
d="M24 503v44h82v84q0 139 127 139h43v-45h-40q-47 0 -64 -25t-17 -72v-81h121v-44h-121v-503h-49v503h-82zM353 0v547h49v-547h-49zM353 627v93h49v-93h-49z" />
    <glyph glyph-name="fl" unicode="fl" horiz-adv-x="511" 
d="M24 503v44h82v84q0 139 127 139h43v-45h-40q-47 0 -64 -25t-17 -72v-81h121v-44h-121v-503h-49v503h-82zM472 0q-3 -1 -14 -1q-66 0 -85.5 23.5t-19.5 83.5v663h49v-659q0 -39 11 -52t59 -13v-45z" />
    <glyph glyph-name="f_f_l" unicode="ffl" horiz-adv-x="759" 
d="M353 0v503h-198v-503h-49v503h-82v44h82v84q0 139 127 139h43v-45h-40q-47 0 -64 -25t-17 -72v-81h198v84q0 66 29 102.5t99 36.5h43v-45h-41q-47 0 -64 -25t-17 -72v-81h122v-44h-122v-503h-49zM720 0q-4 -1 -15 -1q-65 0 -85 24t-20 83v663h49v-659q0 -39 11.5 -52
t59.5 -13v-45z" />
    <glyph glyph-name="f_f_i" unicode="ffi" horiz-adv-x="715" 
d="M353 0v503h-198v-503h-49v503h-82v44h82v84q0 139 127 139h43v-45h-40q-47 0 -64 -25t-17 -72v-81h198v84q0 66 29 102.5t99 36.5h43v-45h-41q-47 0 -64 -25t-17 -72v-81h122v-44h-122v-503h-49zM600 0v547h49v-547h-49zM600 627v93h49v-93h-49z" />
    <glyph glyph-name="f_j" unicode="fj" horiz-adv-x="468" 
d="M24 503v44h82v84q0 139 127 139h43v-45h-40q-47 0 -64 -25t-17 -72v-81h121v-44h-121v-503h-49v503h-82zM292 -158v42h6q33 0 44 15.5t11 53.5v594h49v-595q0 -60 -20.5 -85t-82.5 -25h-7zM353 627v93h49v-93h-49z" />
    <glyph glyph-name="f_f" unicode="ff" horiz-adv-x="542" 
d="M353 0v503h-198v-503h-49v503h-82v44h82v84q0 139 127 139h43v-45h-40q-47 0 -64 -25t-17 -72v-81h198v84q0 66 29 102.5t99 36.5q45 0 49 -1v-44h-47q-47 0 -64 -25t-17 -72v-81h128v-44h-128v-503h-49z" />
    <glyph glyph-name=".notdef" horiz-adv-x="187" 
 />
    <glyph glyph-name=".null" horiz-adv-x="0" 
 />
    <glyph glyph-name="nonmarkingreturn" horiz-adv-x="333" 
 />
    <glyph glyph-name="space" unicode=" " horiz-adv-x="187" 
 />
    <glyph glyph-name="space" unicode="&#xa0;" horiz-adv-x="187" 
 />
    <glyph glyph-name="exclam" unicode="!" horiz-adv-x="276" 
d="M105 0v85h67v-85h-67zM117 196l-5 545h54l-6 -545h-43z" />
    <glyph glyph-name="quotedbl" unicode="&#x22;" horiz-adv-x="359" 
d="M82 476l-3 265h50l-3 -265h-44zM234 476l-3 265h50l-3 -265h-44z" />
    <glyph glyph-name="numbersign" unicode="#" horiz-adv-x="550" 
d="M107 0l37 249h-91v46h98l23 152h-121v46h128l38 248h46l-37 -248h132l37 248h46l-37 -248h92v-46h-99l-23 -152h122v-46h-129l-38 -249h-46l38 249h-132l-38 -249h-46zM195 293h136l24 156h-136z" />
    <glyph glyph-name="dollar" unicode="$" horiz-adv-x="518" 
d="M238 -91v91q-102 4 -177 53l24 38q75 -44 155 -48v331q-80 40 -117 80t-37 112q0 163 152 175v88h47v-87q80 -4 142 -37l-22 -40q-57 28 -123 31v-292q45 -23 70.5 -39.5t52.5 -42t39 -58.5t12 -76q0 -175 -171 -188v-91h-47zM408 186q0 60 -30.5 96.5t-95.5 70.5v-309
q126 11 126 142zM134 567q0 -49 25.5 -80.5t80.5 -61.5v269q-106 -12 -106 -127z" />
    <glyph glyph-name="percent" unicode="%" horiz-adv-x="833" 
d="M183 291q-76 0 -110.5 52t-34.5 176q0 125 34.5 177.5t110.5 52.5q77 0 112 -52.5t35 -177.5q0 -124 -35 -176t-112 -52zM184 331q53 0 76.5 42.5t23.5 145.5t-23.5 145.5t-76.5 42.5q-54 0 -77.5 -42.5t-23.5 -145.5t23.5 -145.5t77.5 -42.5zM650 -7q-77 0 -111.5 52.5
t-34.5 176.5q0 125 34.5 177.5t111.5 52.5q76 0 111 -52.5t35 -177.5q0 -124 -35 -176.5t-111 -52.5zM650 34q53 0 76.5 42.5t23.5 144.5q0 104 -23.5 146.5t-76.5 42.5q-54 0 -77.5 -42.5t-23.5 -146.5q0 -102 23.5 -144.5t77.5 -42.5zM237 0l313 741h47l-314 -741h-46z
" />
    <glyph glyph-name="ampersand" unicode="&#x26;" horiz-adv-x="615" 
d="M236 -6q-105 0 -147.5 54t-42.5 148q0 71 36.5 121.5t103.5 105.5q-67 100 -67 189q0 68 29 104t98 36q127 0 127 -140q0 -59 -32 -104.5t-90 -94.5q25 -35 72 -92l115 -144q31 75 57 283l46 -5q-10 -81 -16 -119.5t-20.5 -98t-34.5 -100.5l110 -137h-60l-75 94
q-69 -100 -209 -100zM236 38q119 0 178 94l-129 163q-49 61 -73 93q-56 -49 -86.5 -92t-30.5 -98q0 -73 29.5 -116.5t111.5 -43.5zM167 612q0 -73 59 -164q48 42 73.5 80.5t25.5 83.5q0 47 -17 71.5t-62 24.5t-62 -24.5t-17 -71.5z" />
    <glyph glyph-name="quotesingle" unicode="'" horiz-adv-x="208" 
d="M82 476l-3 265h50l-3 -265h-44z" />
    <glyph glyph-name="parenleft" unicode="(" horiz-adv-x="362" 
d="M258 -169q-66 64 -116 186.5t-50 285.5q0 160 50.5 283.5t115.5 187.5l35 -27q-61 -63 -106.5 -176.5t-45.5 -267.5t46 -269.5t106 -176.5z" />
    <glyph glyph-name="parenright" unicode=")" horiz-adv-x="362" 
d="M104 -169l-34 26q61 64 106 178t45 269q0 154 -45.5 268.5t-105.5 174.5l34 27q67 -64 117 -186t50 -284q0 -161 -50.5 -285.5t-116.5 -187.5z" />
    <glyph glyph-name="asterisk" unicode="*" horiz-adv-x="443" 
d="M200 341l5 170l-135 -85l-22 37l141 78l-141 78l22 37l135 -85l-5 171h42l-4 -171l136 86l22 -37l-142 -79l142 -78l-22 -37l-136 85l4 -170h-42z" />
    <glyph glyph-name="plus" unicode="+" horiz-adv-x="534" 
d="M243 139v190h-156v45h156v190h47v-190h158v-45h-158v-190h-47z" />
    <glyph glyph-name="comma" unicode="," horiz-adv-x="182" 
d="M67 -93l-16 28q25 14 32 25.5t7 39.5h-33v85h68v-82q0 -40 -11 -59.5t-47 -36.5z" />
    <glyph glyph-name="hyphen" unicode="-" horiz-adv-x="357" 
d="M44 278v46h270v-46h-270z" />
    <glyph glyph-name="hyphen" unicode="&#xad;" horiz-adv-x="357" 
d="M44 278v46h270v-46h-270z" />
    <glyph glyph-name="period" unicode="." horiz-adv-x="182" 
d="M57 0v85h68v-85h-68z" />
    <glyph glyph-name="slash" unicode="/" horiz-adv-x="373" 
d="M-1 0l325 741h49l-324 -741h-50z" />
    <glyph glyph-name="zero" unicode="0" horiz-adv-x="550" 
d="M275 -8q-125 0 -168 84t-43 294q0 211 42.5 295t168.5 84q123 0 167 -85t44 -294q0 -211 -43 -294.5t-168 -83.5zM275 39q95 0 128.5 72.5t33.5 258.5q0 185 -34 258t-128 73q-95 0 -128 -72t-33 -259t33 -259t128 -72z" />
    <glyph glyph-name="one" unicode="1" horiz-adv-x="277" 
d="M137 0v696h-114v45h162v-741h-48z" />
    <glyph glyph-name="two" unicode="2" 
d="M43 0v42l145 206q107 153 135 209t28 118q0 67 -26.5 97t-93.5 30q-86 0 -152 -34l-21 42q78 39 178 39q90 0 127.5 -40.5t37.5 -129.5q0 -74 -32 -136.5t-143 -220.5l-125 -177h306v-45h-364z" />
    <glyph glyph-name="three" unicode="3" horiz-adv-x="455" 
d="M206 -8q-94 0 -168 41l23 40q67 -35 143 -35q79 0 113.5 39.5t34.5 135.5q0 41 -4.5 66.5t-19.5 50.5t-47.5 36.5t-83.5 11.5h-75v45h82q75 0 103 38t28 103q0 81 -29.5 109.5t-97.5 28.5q-69 0 -138 -33l-20 40q77 40 163 40q89 0 130 -37t41 -141q0 -134 -87 -166
q56 -16 79.5 -59.5t23.5 -135.5q0 -119 -46.5 -168.5t-147.5 -49.5z" />
    <glyph glyph-name="four" unicode="4" horiz-adv-x="510" 
d="M43 186v42l259 513h52l-259 -512h234l10 243h37v-243h106v-43h-106v-186h-47v186h-286z" />
    <glyph glyph-name="five" unicode="5" horiz-adv-x="472" 
d="M222 -8q-101 0 -179 42l23 40q70 -36 154 -36q86 0 122 41t36 159q0 116 -33.5 154.5t-113.5 38.5q-79 0 -130 -49l-38 11l17 348h311v-45h-268l-13 -258q50 38 132 38q100 0 142.5 -49.5t42.5 -187.5q0 -144 -47 -195.5t-158 -51.5z" />
    <glyph glyph-name="six" unicode="6" horiz-adv-x="516" 
d="M271 -8q-55 0 -93 12.5t-61 34t-35.5 60t-16.5 81t-4 106.5q0 56 0.5 87.5t2.5 76.5t6 69.5t11.5 58t18.5 51t27.5 39.5t38 33t50 21.5t64 14.5t79.5 4h35v-45h-37q-65 0 -109 -13t-69.5 -33t-40 -60t-19 -78t-7.5 -104q48 83 170 83q111 0 148.5 -57t37.5 -177
q0 -140 -41.5 -202.5t-155.5 -62.5zM271 38q87 0 117.5 51.5t30.5 167.5q0 99 -30 144.5t-116 45.5q-74 0 -118 -45.5t-44 -138.5q0 -123 32 -174t128 -51z" />
    <glyph glyph-name="seven" unicode="7" horiz-adv-x="397" 
d="M111 0l222 696h-312v45h365v-39l-223 -702h-52z" />
    <glyph glyph-name="eight" unicode="8" horiz-adv-x="523" 
d="M262 -8q-64 0 -106.5 16.5t-63.5 49t-29 68t-8 84.5q0 82 22.5 131.5t88.5 67.5q-53 17 -71.5 57t-18.5 105q0 84 39.5 131t146.5 47t146.5 -47t39.5 -131q0 -65 -18.5 -105t-71.5 -57q66 -19 88 -68t22 -131q0 -39 -4.5 -68.5t-17.5 -59t-35.5 -48.5t-60 -30.5
t-88.5 -11.5zM262 37q91 0 124 46t33 130q0 83 -32.5 127t-124.5 44t-125 -44t-33 -127q0 -84 33 -130t125 -46zM262 429q79 0 108.5 35.5t29.5 101.5t-29.5 102t-108.5 36t-108.5 -36t-29.5 -102t29.5 -101.5t108.5 -35.5z" />
    <glyph glyph-name="nine" unicode="9" horiz-adv-x="516" 
d="M121 0v45h38q54 0 93 7.5t65 25.5t42.5 38.5t25.5 57t13 70.5t6 88q-46 -82 -170 -82q-58 0 -95.5 15.5t-57 48t-26.5 71.5t-7 98q0 140 41.5 203t156.5 63q68 0 110 -17t63.5 -57t28.5 -89t7 -130q0 -80 -1 -123t-7 -100t-17.5 -86t-32.5 -62.5t-53 -48.5t-78 -25.5
t-108 -10.5h-37zM243 293q74 0 118 46t44 139q0 123 -32 174t-128 51q-87 0 -117.5 -51.5t-30.5 -168.5q0 -99 30 -144.5t116 -45.5z" />
    <glyph glyph-name="colon" unicode=":" horiz-adv-x="198" 
d="M65 0v84h67v-84h-67zM65 463v84h67v-84h-67z" />
    <glyph glyph-name="semicolon" unicode=";" horiz-adv-x="198" 
d="M65 463v84h67v-84h-67zM75 -93l-16 28q25 14 32 25.5t7 39.5h-33v84h67v-81q0 -40 -11 -59.5t-46 -36.5z" />
    <glyph glyph-name="less" unicode="&#x3c;" horiz-adv-x="531" 
d="M421 128l-341 199v39l341 198v-48l-294 -169l294 -169v-50z" />
    <glyph glyph-name="equal" unicode="=" horiz-adv-x="535" 
d="M90 233v46h355v-46h-355zM90 408v46h355v-46h-355z" />
    <glyph glyph-name="greater" unicode="&#x3e;" horiz-adv-x="534" 
d="M111 128v50l294 168l-294 170v48l341 -198v-39z" />
    <glyph glyph-name="question" unicode="?" horiz-adv-x="475" 
d="M193 193q-2 86 12.5 122.5t79.5 113.5q43 49 59 80.5t16 74.5q0 57 -26 88t-95 31q-81 0 -151 -37l-22 42q82 41 178 41q93 0 129 -42t36 -117q0 -55 -19.5 -93.5t-63.5 -89.5q-61 -72 -74 -104t-11 -110h-48zM183 0v81h66v-81h-66z" />
    <glyph glyph-name="at" unicode="@" horiz-adv-x="830" 
d="M415 -165q-87 0 -148.5 21t-108.5 71.5t-69.5 140.5t-22.5 223q0 132 23 222.5t69.5 141t108 72t148.5 21.5t149 -21.5t108.5 -72t69.5 -141t23 -222.5q0 -147 -25.5 -201.5t-95.5 -54.5q-53 0 -76 18t-27 66q-18 -43 -52.5 -63t-100.5 -20q-43 0 -73.5 14t-48 36t-27 58
t-12.5 69t-3 80q0 59 5.5 99.5t21.5 79.5t50.5 58.5t87.5 19.5q65 0 97 -18.5t49 -57.5l7 75l36 -2v-350q1 -76 12.5 -100.5t56.5 -24.5q47 0 64 43t17 176q0 124 -20.5 207.5t-63 130t-97 65.5t-132.5 19q-77 0 -132 -19t-97 -65.5t-62.5 -130t-20.5 -207.5t20.5 -207.5
t62.5 -129.5t96.5 -65t132.5 -19q120 0 236 46l13 -31q-117 -50 -249 -50zM396 77q39 0 65.5 12t40.5 29t21 49t8.5 57t1.5 69q0 115 -25.5 164.5t-111.5 49.5q-33 0 -57 -11.5t-37 -29t-20.5 -48t-9.5 -58t-2 -68.5q0 -51 4 -84.5t16 -66t38.5 -48.5t67.5 -16z" />
    <glyph glyph-name="A" unicode="A" horiz-adv-x="553" 
d="M26 0l226 746h49l227 -746h-50l-57 189h-291l-56 -189h-48zM143 234h265l-132 436z" />
    <glyph glyph-name="B" unicode="B" horiz-adv-x="535" 
d="M71 0v741h208q100 0 150.5 -41t50.5 -142q0 -135 -101 -168q116 -30 116 -188q0 -112 -54 -157t-156 -45h-214zM121 45h164q78 0 119 35t41 125q0 89 -41 124t-119 35h-164v-319zM121 410h157q76 0 114 31t38 112t-38 112t-114 31h-157v-286z" />
    <glyph glyph-name="C" unicode="C" horiz-adv-x="487" 
d="M288 -8q-62 0 -107 18t-72.5 48.5t-43.5 80t-21.5 103.5t-5.5 129q0 74 5.5 127.5t21.5 103.5t43.5 80.5t73 48.5t108.5 18q99 0 165 -41l-27 -41q-55 33 -139 33q-118 0 -159.5 -79.5t-41.5 -250.5q0 -85 8 -141t29 -101.5t61.5 -67t102.5 -21.5q89 0 153 40l25 -39
q-76 -48 -179 -48z" />
    <glyph glyph-name="D" unicode="D" horiz-adv-x="568" 
d="M71 0v741h193q68 0 117 -18t77.5 -47t45 -78.5t21.5 -101t5 -125.5q0 -76 -5.5 -127.5t-22 -101t-46 -78.5t-79 -46.5t-120.5 -17.5h-186zM121 45h138q58 0 99 15.5t64.5 41t36.5 69.5t17 88.5t4 111.5q0 65 -4 109.5t-16.5 88t-35.5 69t-62.5 41.5t-95.5 16h-145v-650z
" />
    <glyph glyph-name="E" unicode="E" horiz-adv-x="489" 
d="M71 0v741h369v-46h-320v-285h301v-47h-301v-317h323v-46h-372z" />
    <glyph glyph-name="F" unicode="F" horiz-adv-x="465" 
d="M71 0v741h369v-46h-319v-288h300v-46h-300v-361h-50z" />
    <glyph glyph-name="G" unicode="G" horiz-adv-x="547" 
d="M288 -8q-141 0 -195.5 88t-54.5 291q0 210 57.5 294t197.5 84q100 0 178 -47l-26 -41q-65 40 -154 40q-111 0 -157 -71.5t-46 -259.5q0 -182 44 -257t158 -75q70 0 105 23t50.5 83t15.5 179v32h-201v45h250v-72q0 -198 -44.5 -267t-177.5 -69z" />
    <glyph glyph-name="H" unicode="H" horiz-adv-x="595" 
d="M76 0v741h50v-329h352v329h50v-741h-50v363h-352v-363h-50z" />
    <glyph glyph-name="I" unicode="I" horiz-adv-x="202" 
d="M76 0v741h50v-741h-50z" />
    <glyph glyph-name="J" unicode="J" horiz-adv-x="326" 
d="M25 0v46h68q64 0 90 28.5t26 88.5v578h50v-580q0 -83 -38 -122t-123 -39h-73z" />
    <glyph glyph-name="K" unicode="K" horiz-adv-x="543" 
d="M71 0v741h50v-388l323 388h58l-228 -274l237 -467h-54l-218 427l-118 -144v-283h-50z" />
    <glyph glyph-name="L" unicode="L" horiz-adv-x="457" 
d="M71 0v741h50v-695h314v-46h-364z" />
    <glyph glyph-name="M" unicode="M" horiz-adv-x="693" 
d="M71 0v741h62l213 -658l215 658h61v-741h-50v638l-207 -638h-40l-208 638v-638h-46z" />
    <glyph glyph-name="N" unicode="N" horiz-adv-x="592" 
d="M71 0v741h57l346 -642v642h48v-741h-47l-356 659v-659h-48z" />
    <glyph glyph-name="O" unicode="O" horiz-adv-x="598" 
d="M300 -8q-58 0 -102 13t-72 39.5t-46 58t-27 78t-12 88.5t-3 101q0 72 4 121t19.5 101.5t43 84t77 52t118.5 20.5q58 0 101.5 -13t71.5 -39.5t46 -58t27 -78t12 -89t3 -101.5q0 -71 -4 -120t-19.5 -102t-43 -84t-76.5 -51.5t-118 -20.5zM300 39q56 0 96 17.5t62 44
t34 72.5t15.5 89t3.5 107q0 63 -3.5 106.5t-16 89.5t-34.5 73.5t-61.5 45t-95.5 17.5q-57 0 -96.5 -17.5t-62 -44.5t-34.5 -73.5t-15.5 -89.5t-3.5 -107t3.5 -106.5t15.5 -89t34.5 -73t62 -44t96.5 -17.5z" />
    <glyph glyph-name="P" unicode="P" horiz-adv-x="536" 
d="M71 0v741h225q104 0 153 -50t49 -162t-49.5 -163.5t-153.5 -51.5h-174v-314h-50zM121 360h173q81 0 118 38t37 130t-37 129.5t-118 37.5h-173v-335z" />
    <glyph glyph-name="Q" unicode="Q" horiz-adv-x="598" 
d="M397 -159q-68 0 -102 30t-33 100v25q-59 5 -101 27t-65.5 53.5t-37 82t-17 97.5t-3.5 114q0 72 4 121t19.5 101.5t43 84t77 52t118.5 20.5q58 0 101.5 -13t71.5 -39.5t46 -58t27 -78t12 -89t3 -101.5q0 -70 -4 -118.5t-19 -100t-41.5 -82.5t-73 -52t-112.5 -22v-20
q0 -49 22 -69.5t68 -20.5h54v-44h-58zM300 39q56 0 96 17.5t62 44t34 72.5t15.5 89t3.5 107q0 63 -3.5 106.5t-16 89.5t-34.5 73.5t-61.5 45t-95.5 17.5q-57 0 -96.5 -17.5t-62 -44.5t-34.5 -73.5t-15.5 -89.5t-3.5 -107t3.5 -106.5t15.5 -89t34.5 -73t62 -44t96.5 -17.5z
" />
    <glyph glyph-name="R" unicode="R" horiz-adv-x="545" 
d="M432 0l-147 317h-164v-317h-50v741h223q103 0 152 -50t49 -159q0 -98 -39 -150t-119 -63l148 -319h-53zM121 363h172q80 0 116.5 38.5t36.5 128.5q0 89 -36.5 127t-116.5 38h-172v-332z" />
    <glyph glyph-name="S" unicode="S" horiz-adv-x="505" 
d="M253 -8q-119 0 -212 55l25 40q85 -49 186 -49q79 0 121.5 36.5t42.5 102.5q0 70 -35.5 104.5t-136.5 85.5q-49 24 -76.5 40.5t-53.5 41t-37 54.5t-11 71q0 80 50 127.5t146 47.5q98 0 173 -36l-21 -43q-65 31 -152 31q-73 0 -110 -34.5t-37 -91.5q0 -58 29 -88t123 -79
q47 -24 72.5 -38t53.5 -35t41.5 -41.5t22 -49.5t8.5 -66q0 -88 -55.5 -137t-156.5 -49z" />
    <glyph glyph-name="T" unicode="T" horiz-adv-x="524" 
d="M237 0v695h-214v46h479v-46h-215v-695h-50z" />
    <glyph glyph-name="U" unicode="U" horiz-adv-x="593" 
d="M297 -8q-129 0 -179.5 60.5t-50.5 183.5v505h50v-502q0 -103 38.5 -151.5t141.5 -48.5q104 0 143 48.5t39 151.5v502h48v-505q0 -123 -50 -183.5t-180 -60.5z" />
    <glyph glyph-name="V" unicode="V" horiz-adv-x="552" 
d="M252 -5l-226 746h49l202 -667l201 667h49l-226 -746h-49z" />
    <glyph glyph-name="W" unicode="W" horiz-adv-x="831" 
d="M215 -5l-183 746h50l158 -644l157 644h43l157 -644l158 644h47l-183 -746h-45l-157 643l-157 -643h-45z" />
    <glyph glyph-name="X" unicode="X" horiz-adv-x="535" 
d="M448 0l-184 341l-179 -341h-53l208 387l-190 354h54l165 -309l163 309h52l-190 -355l208 -386h-54z" />
    <glyph glyph-name="Y" unicode="Y" horiz-adv-x="527" 
d="M239 0v282l-225 459h53l197 -404l198 404h51l-224 -457v-284h-50z" />
    <glyph glyph-name="Z" unicode="Z" horiz-adv-x="507" 
d="M38 0v42l360 653h-346v46h405v-42l-361 -653h370v-46h-428z" />
    <glyph glyph-name="bracketleft" unicode="[" horiz-adv-x="355" 
d="M99 -158v927h175v-44h-126v-840h129v-43h-178z" />
    <glyph glyph-name="backslash" unicode="\" horiz-adv-x="373" 
d="M324 0l-325 741h50l324 -741h-49z" />
    <glyph glyph-name="bracketright" unicode="]" horiz-adv-x="355" 
d="M83 -158v43h127v840h-127v44h176v-927h-176z" />
    <glyph glyph-name="asciicircum" unicode="^" 
d="M92 614l113 146h50l113 -146h-45l-94 110l-93 -110h-44z" />
    <glyph glyph-name="underscore" unicode="_" horiz-adv-x="352" 
d="M-30 -106v41h412v-41h-412z" />
    <glyph glyph-name="grave" unicode="`" 
d="M232 607l-126 146h57l116 -146h-47z" />
    <glyph glyph-name="a" unicode="a" horiz-adv-x="482" 
d="M195 -6q-155 0 -155 169q0 116 67.5 156.5t214.5 40.5h26q-1 81 -23.5 115.5t-92.5 34.5q-74 0 -132 -30l-22 41q66 35 157 35q99 0 130 -45.5t31 -153.5v-251q0 -38 8 -49.5t40 -11.5v-45q-4 -1 -12 -1q-45 0 -60.5 16t-18.5 59q-45 -80 -158 -80zM202 38
q63 0 104.5 39.5t41.5 136.5v102h-25q-129 0 -182 -29t-53 -121q0 -72 29 -100t85 -28z" />
    <glyph glyph-name="b" unicode="b" horiz-adv-x="498" 
d="M63 1v768h49v-298q17 42 55.5 63t109.5 21q39 0 69 -10t49 -30t31.5 -44t19 -58.5t8.5 -65.5t2 -73q0 -51 -3 -87.5t-14 -75.5t-29.5 -63t-52.5 -39.5t-81 -15.5q-75 0 -111 21t-57 64l-7 -80zM267 38q36 0 62.5 12.5t41 32t23 52t11 63.5t2.5 75t-2.5 75t-10.5 63.5
t-23 52t-41 32.5t-63 13q-36 0 -62.5 -8t-43 -25.5t-27 -36t-15 -49t-6 -55t-1.5 -62.5q0 -46 2 -74.5t10.5 -63t24.5 -53t45.5 -31.5t72.5 -13z" />
    <glyph glyph-name="c" unicode="c" horiz-adv-x="399" 
d="M239 -8q-61 0 -100.5 19.5t-60.5 59.5t-28.5 87.5t-7.5 116.5q0 141 41 210.5t158 69.5q70 0 120 -25l-21 -43q-43 22 -98 22q-88 0 -119.5 -58t-31.5 -177q0 -59 6 -99t22 -73t46.5 -49t77.5 -16q52 0 108 29l20 -40q-66 -34 -132 -34z" />
    <glyph glyph-name="d" unicode="d" horiz-adv-x="498" 
d="M221 -7q-39 0 -69 10t-49 30t-31.5 44t-19 58.5t-8.5 66t-2 73.5q0 65 6 108.5t23.5 86t55.5 64t96 21.5q72 0 108.5 -20.5t54.5 -61.5v296h49v-767l-39 -3l-5 83q-18 -43 -56 -66t-114 -23zM231 38q36 0 62.5 8t43 25.5t27 36t15 49t6 55t1.5 62.5q0 46 -2 74.5
t-10.5 63t-24.5 53t-45.5 31.5t-72.5 13q-36 0 -62.5 -12.5t-41 -32.5t-23 -52t-11 -63t-2.5 -75t2.5 -75t10.5 -63.5t23 -52t41 -32.5t63 -13z" />
    <glyph glyph-name="e" unicode="e" horiz-adv-x="450" 
d="M240 -7q-62 0 -102.5 19.5t-61 59.5t-27.5 87t-7 116q0 53 4.5 93t17 76.5t34 60t57 37t84.5 13.5q28 0 51.5 -5t40.5 -11.5t30 -21t21.5 -25.5t14.5 -34.5t9 -38.5t4.5 -46.5t1.5 -49v-54.5v-9h-323q1 -114 31.5 -168.5t120.5 -54.5q66 0 135 32l20 -39
q-66 -37 -156 -37zM238 511q-83 0 -114.5 -51.5t-34.5 -153.5h276q-1 40 -1.5 57.5t-4.5 47.5t-11.5 43t-21 29t-35.5 22t-53 6z" />
    <glyph glyph-name="f" unicode="f" horiz-adv-x="295" 
d="M24 503v44h82v84q0 139 127 139q46 0 49 -1v-44h-46q-47 0 -64 -25t-17 -72v-81h127v-44h-127v-503h-49v503h-82z" />
    <glyph glyph-name="g" unicode="g" 
d="M222 197q-46 0 -76 11q-13 -20 -13 -43q0 -25 20.5 -34t71.5 -9q109 0 153 -30t44 -103q0 -79 -47 -117t-152 -38q-111 0 -155.5 29t-44.5 105q0 111 98 133q-33 17 -33 62q0 34 22 63q-59 42 -59 150q0 182 171 182q24 0 52 -5l143 13v-42h-83q59 -41 59 -148
q0 -95 -44 -137t-127 -42zM222 241q60 0 91.5 31.5t31.5 103.5q0 136 -123 136t-123 -136q0 -135 123 -135zM223 -124q83 0 116 26t33 85q0 52 -31 72t-119 20q-84 0 -117.5 -25t-33.5 -80q0 -56 32 -77t120 -21z" />
    <glyph glyph-name="h" unicode="h" horiz-adv-x="487" 
d="M63 0v769h49v-295q32 81 159 81q43 0 72 -10t45.5 -25t25.5 -43t11 -54.5t2 -68.5v-354h-48v347q0 89 -22 125.5t-98 36.5q-88 0 -117.5 -51.5t-29.5 -180.5v-277h-49z" />
    <glyph glyph-name="i" unicode="i" horiz-adv-x="181" 
d="M66 0v547h49v-547h-49zM66 627v94h49v-94h-49z" />
    <glyph glyph-name="j" unicode="j" horiz-adv-x="181" 
d="M4 -158v42h7q33 0 44 15.5t11 53.5v594h49v-595q0 -60 -20.5 -85t-82.5 -25h-8zM66 627v94h49v-94h-49z" />
    <glyph glyph-name="k" unicode="k" horiz-adv-x="422" 
d="M63 0v769h48v-533l223 311h54l-169 -234l186 -313h-53l-164 272l-77 -107v-165h-48z" />
    <glyph glyph-name="l" unicode="l" horiz-adv-x="224" 
d="M185 0q-3 -1 -14 -1q-66 0 -85.5 23.5t-19.5 83.5v663h49v-659q0 -21 1.5 -30.5t8 -19t20.5 -12.5t40 -3v-45z" />
    <glyph glyph-name="m" unicode="m" horiz-adv-x="769" 
d="M63 0v544l39 2l5 -77q15 42 50 64t109 22q72 0 101 -21.5t39 -67.5q16 44 53.5 66.5t112.5 22.5q31 0 54.5 -5t39.5 -13t27 -23t17 -29t9 -38t3.5 -43t0.5 -50v-354h-49v347q0 38 -1.5 58.5t-7 43.5t-18 34t-34 18.5t-54.5 7.5q-87 0 -114.5 -51t-27.5 -181v-277h-48v347
q0 38 -1.5 58.5t-7 43.5t-18 34t-34 18.5t-54.5 7.5q-87 0 -115 -51.5t-28 -180.5v-277h-48z" />
    <glyph glyph-name="n" unicode="n" horiz-adv-x="487" 
d="M63 0v544l39 2l5 -76q18 41 54.5 63t109.5 22q52 0 84.5 -13t47.5 -43t19.5 -61t4.5 -84v-354h-48v347q0 89 -22 125.5t-98 36.5q-90 0 -118.5 -53t-28.5 -179v-277h-49z" />
    <glyph glyph-name="o" unicode="o" horiz-adv-x="485" 
d="M242 -8q-51 0 -88 15t-58.5 39t-33.5 62.5t-16 76.5t-4 89q0 52 3.5 89t16 75.5t33.5 62.5t58 39t89 15t89.5 -15t59 -39t33.5 -62.5t16 -76t4 -88.5q0 -66 -7 -111t-27 -87t-62 -63t-106 -21zM242 37q40 0 68.5 13t44.5 32.5t25 52.5t11.5 63.5t2.5 74.5t-2.5 74.5
t-11.5 63.5t-25 52.5t-44.5 32.5t-68.5 13t-68.5 -13t-44 -32.5t-24.5 -52.5t-11.5 -63.5t-2.5 -74.5t2.5 -74.5t11.5 -63.5t24.5 -52.5t44 -32.5t68.5 -13z" />
    <glyph glyph-name="p" unicode="p" horiz-adv-x="498" 
d="M63 -158v702l39 2l4 -80q37 89 171 89q39 0 69 -10t49 -30t31.5 -44t19 -58.5t8.5 -65.5t2 -73q0 -51 -3 -87.5t-14 -75.5t-30 -63t-52.5 -39.5t-80.5 -15.5q-72 0 -108.5 21t-55.5 62v-234h-49zM267 38q45 0 74 17.5t43 52.5t18.5 72.5t4.5 92.5q0 44 -2.5 75t-11 63.5
t-23 52.5t-41 32.5t-62.5 12.5t-62.5 -8t-43 -25.5t-27 -36t-15 -49t-6 -55t-1.5 -62.5q0 -46 2 -75t10.5 -62.5t24.5 -52.5t46 -32t72 -13z" />
    <glyph glyph-name="q" unicode="q" horiz-adv-x="498" 
d="M386 -158v236q-19 -42 -56 -63.5t-109 -21.5q-39 0 -69 10t-49 30t-31.5 44t-19 58.5t-8.5 66t-2 73.5q0 65 6 108.5t23.5 86t55.5 64t96 21.5q75 0 111.5 -20.5t55.5 -62.5l7 82l38 -2v-710h-49zM231 38q36 0 62.5 8t43 25.5t27 36t15 49t6 55t1.5 62.5q0 46 -2 74.5
t-10.5 63t-24.5 53t-45.5 31.5t-72.5 13q-36 0 -62.5 -12.5t-41 -32.5t-23 -52t-11 -63t-2.5 -75t2.5 -75t10.5 -63.5t23 -52t41 -32.5t63 -13z" />
    <glyph glyph-name="r" unicode="r" horiz-adv-x="270" 
d="M63 0v544l38 2l6 -84q33 89 151 89v-46q-40 -1 -68.5 -15.5t-43.5 -34t-23 -54.5t-9.5 -61.5t-1.5 -69.5v-270h-49z" />
    <glyph glyph-name="s" unicode="s" horiz-adv-x="367" 
d="M176 -7q-90 0 -154 33l21 41q60 -31 133 -31q115 0 115 97q0 46 -26 71.5t-91 60.5q-75 39 -106 70t-31 88q0 132 150 132q73 0 130 -25l-19 -41q-56 22 -112 22q-102 0 -102 -88q0 -39 25 -62t92 -58q73 -38 105 -72.5t32 -97.5q0 -69 -42.5 -104.5t-119.5 -35.5z" />
    <glyph glyph-name="t" unicode="t" horiz-adv-x="327" 
d="M24 503v44h82l7 162l41 8v-170h132v-44h-132v-372q0 -46 14 -66t59 -20h59v-45q-5 -1 -63 -1q-71 0 -94.5 29.5t-23.5 99.5v375h-81z" />
    <glyph glyph-name="u" unicode="u" horiz-adv-x="474" 
d="M238 -8q-102 0 -140 47t-38 147v361h49v-359q0 -78 27.5 -114t102.5 -36t101.5 36t26.5 114v359h47v-361q0 -101 -36.5 -147.5t-139.5 -46.5z" />
    <glyph glyph-name="v" unicode="v" horiz-adv-x="417" 
d="M183 -4l-169 551h50l146 -481l146 481h48l-170 -551h-51z" />
    <glyph glyph-name="w" unicode="w" horiz-adv-x="678" 
d="M168 -4l-153 551h49l129 -471l125 471h45l124 -470l130 470h46l-153 -551h-47l-124 466l-123 -466h-48z" />
    <glyph glyph-name="x" unicode="x" horiz-adv-x="416" 
d="M345 0l-140 245l-136 -245h-50l162 288l-147 259h52l124 -220l123 220h50l-148 -262l162 -285h-52z" />
    <glyph glyph-name="y" unicode="y" horiz-adv-x="408" 
d="M63 -158v42h40q24 0 36.5 10.5t20.5 35.5l20 66l-166 551h48l143 -478l142 478h48l-191 -628q-13 -44 -36 -60.5t-67 -16.5h-38z" />
    <glyph glyph-name="z" unicode="z" horiz-adv-x="381" 
d="M27 0v39l261 464h-246v44h304v-38l-262 -466h270v-43h-327z" />
    <glyph glyph-name="braceleft" unicode="{" horiz-adv-x="383" 
d="M256 -158q-71 0 -102.5 27t-31.5 89q0 33 22 140.5t22 133.5q0 31 -21.5 41.5t-76.5 10.5v43q54 0 76 10t22 42q0 28 -22 135t-22 139q0 62 31.5 89t101.5 27h50v-44h-40q-48 0 -70.5 -18.5t-22.5 -63.5q0 -27 21.5 -131t21.5 -138q0 -52 -43 -68q43 -18 43 -68
q0 -35 -21.5 -139.5t-21.5 -130.5q0 -45 22 -64t71 -19h40v-43h-49z" />
    <glyph glyph-name="bar" unicode="|" horiz-adv-x="246" 
d="M99 -158v927h49v-927h-49z" />
    <glyph glyph-name="braceright" unicode="}" horiz-adv-x="383" 
d="M79 -158v43h40q49 0 71 19t22 64q0 26 -21.5 130t-21.5 140q0 50 43 68q-43 17 -43 68q0 34 21.5 138t21.5 131q0 45 -22.5 63.5t-70.5 18.5h-40v44h50q70 0 101 -27t31 -89q0 -32 -21.5 -139t-21.5 -135q0 -31 21 -41t77 -10v-44q-55 0 -76.5 -9.5t-21.5 -42.5
q0 -26 21.5 -133.5t21.5 -140.5q0 -62 -31.5 -89t-101.5 -27h-49z" />
    <glyph glyph-name="asciitilde" unicode="~" 
d="M122 434l-35 18q28 63 83 63q26 0 62.5 -20t52.5 -20q17 0 28 11t25 34l34 -19q-30 -66 -83 -66q-26 0 -63 19.5t-53 19.5q-29 0 -51 -40z" />
    <glyph glyph-name="exclamdown" unicode="&#xa1;" horiz-adv-x="277" 
d="M111 0l6 546h44l5 -546h-55zM105 657v84h68v-84h-68z" />
    <glyph glyph-name="cent" unicode="&#xa2;" horiz-adv-x="404" 
d="M212 -97v93q-41 4 -71.5 19t-49 38t-29 58.5t-14.5 73.5t-4 90q0 64 7 109t24.5 83t51.5 59t85 26v89h47v-87q60 -3 105 -25l-21 -42q-38 19 -86 22v-472q46 2 97 29l20 -38q-56 -30 -115 -33v-92h-47zM94 274q0 -110 24.5 -167.5t95.5 -67.5v468q-70 -10 -95 -67
t-25 -166z" />
    <glyph glyph-name="sterling" unicode="&#xa3;" horiz-adv-x="449" 
d="M321 -5q-76 0 -159 48q-17 -24 -50.5 -33.5t-92.5 -9.5v45q72 0 95.5 18.5t23.5 80.5q0 39 -35 214h-83v42h74q-23 115 -23 174q0 87 38.5 131t128.5 44q99 0 172 -38l-22 -40q-64 32 -150 32q-65 0 -92 -34t-27 -98q0 -47 24 -171h177v-42h-169q33 -161 33 -214
q0 -36 -6 -61q73 -43 139 -43q36 0 48.5 18t12.5 56v60h45v-61q0 -62 -21.5 -90t-80.5 -28z" />
    <glyph glyph-name="currency" unicode="&#xa4;" horiz-adv-x="518" 
d="M32 427v42h88q8 147 53 213.5t155 66.5q91 0 152 -37l-23 -40q-53 30 -130 30q-84 0 -118.5 -55t-40.5 -178h236v-42h-237q-1 -18 -1 -56v-43h238v-42h-237q6 -131 40.5 -189.5t120.5 -58.5q64 0 128 35l23 -39q-74 -42 -153 -42q-110 0 -155 69.5t-52 224.5h-87v42h86
v99h-86z" />
    <glyph glyph-name="yen" unicode="&#xa5;" horiz-adv-x="474" 
d="M50 231v42h163v35l-194 433h51l168 -378l167 378h50l-194 -436v-32h164v-42h-164v-99h164v-42h-164v-90h-48v90h-163v42h163v99h-163z" />
    <glyph glyph-name="brokenbar" unicode="&#xa6;" horiz-adv-x="246" 
d="M99 -158v385h49v-385h-49zM99 385v384h49v-384h-49z" />
    <glyph glyph-name="section" unicode="&#xa7;" horiz-adv-x="426" 
d="M109 -10h-39v43h36q48 0 64.5 24.5t16.5 73.5v106q-69 5 -103 38t-34 100q0 66 33.5 98t103.5 37v99q0 68 27 105t98 37h40v-43h-37q-47 0 -64 -25.5t-17 -73.5v-99q72 -4 107 -36t35 -99q0 -68 -35 -100.5t-106 -37.5v-104q0 -68 -27 -105.5t-99 -37.5zM212 276
q60 0 90.5 23t30.5 75q0 97 -121 97q-59 0 -89 -23t-30 -74q0 -52 29.5 -75t89.5 -23z" />
    <glyph glyph-name="dieresis" unicode="&#xa8;" 
d="M126 607v83h45v-83h-45zM289 607v83h46v-83h-46z" />
    <glyph glyph-name="copyright" unicode="&#xa9;" horiz-adv-x="667" 
d="M339 112q-103 0 -138 64t-35 199q0 51 3.5 88t14.5 71.5t30 55.5t50.5 33.5t75.5 12.5q70 0 116 -29l-21 -31q-39 24 -96 24q-80 0 -108 -54.5t-28 -171.5t28 -172t109 -55q58 0 105 29l20 -30q-53 -34 -126 -34zM333 -11q-82 0 -138.5 26.5t-88.5 79t-45.5 119
t-13.5 156.5q0 91 13.5 158t45.5 119t88.5 79t138.5 27q81 0 138 -27t89 -79t46 -119.5t14 -157.5t-14 -156.5t-46 -118.5t-89 -79t-138 -27zM333 19q73 0 124 24.5t79.5 73t40.5 109.5t12 144q0 84 -12 146t-40.5 110.5t-79.5 73t-124 24.5q-141 0 -198 -90.5t-57 -263.5
q0 -83 12 -144t40.5 -109.5t79 -73t123.5 -24.5z" />
    <glyph glyph-name="ordfeminine" unicode="&#xaa;" horiz-adv-x="418" 
d="M174 293q-124 0 -124 138q0 94 54.5 126t174.5 32h19q-1 65 -18.5 92.5t-73.5 27.5q-54 0 -108 -24l-17 37q56 27 128 27q80 0 105.5 -37t25.5 -125v-202q0 -30 6.5 -39.5t32.5 -9.5v-39h-12q-37 0 -50.5 15t-15.5 51q-35 -70 -127 -70zM182 331q116 0 116 140v81h-19
q-103 0 -145 -23t-42 -96q0 -57 23 -79.5t67 -22.5zM61 163v39h289v-39h-289z" />
    <glyph glyph-name="guillemotleft" unicode="&#xab;" horiz-adv-x="513" 
d="M189 0l-118 273l118 274h45l-115 -274l115 -273h-45zM380 0l-117 273l117 274h45l-115 -274l115 -273h-45z" />
    <glyph glyph-name="logicalnot" unicode="&#xac;" horiz-adv-x="832" 
d="M126 120q-90 108 -90 251q0 142 90 250q3 -2 7 -6q-87 -106 -87 -244t88 -244zM228 211q-57 70 -57 160t56 160q2 -1 4.5 -3.5l3.5 -3.5q-54 -67 -54 -153q0 -88 54 -153q-1 -1 -2 -2.5t-2.5 -2.5t-2.5 -2zM264 243q-45 56 -45 128t45 128q1 -1 4 -3.5t4 -3.5
q-43 -53 -43 -121t43 -121q-2 -1 -4.5 -3.5zM316 289q-28 36 -28 82q0 47 28 81l7 -7q-25 -33 -25 -74t26 -75q-2 -1 -4 -3.5t-4 -3.5zM349 320q-16 22 -16 51t16 51q2 -1 4 -3.5t4 -3.5q-14 -20 -14 -44t14 -44q-3 -2 -8 -7zM378 346q-7 12 -7 25t7 25l6 -5q-5 -10 -5 -20
t5 -20q-2 -2 -6 -5zM416 60q-116 0 -201 77l7 7q84 -74 194 -74q111 0 193 74q1 -2 3.5 -4t3.5 -4q-86 -76 -200 -76zM416 324q-15 0 -27 9l6 6q10 -7 21 -7q13 0 21 7q2 -2 5 -6q-10 -9 -26 -9zM482 319q-3 4 -7 7q14 20 14 45t-14 44l7 7q17 -22 17 -51t-17 -52zM292 269
q-35 45 -35 102q0 58 36 102l7 -7q-33 -43 -33 -95t33 -95q-5 -5 -8 -7zM416 -17q-144 0 -252 97l7 8q105 -95 245 -95q139 0 244 94l2 -1l4 -4l1 -2q-107 -97 -251 -97zM416 121q-92 0 -161 61l7 8q65 -59 154 -59t153 59q1 -1 3.5 -4t3.5 -4q-67 -61 -160 -61zM416 170
q-72 0 -129 49l7 7q52 -46 122 -46t121 46l3.5 -3.5t3.5 -4.5q-54 -48 -128 -48zM416 209q-57 0 -103 38l7 8q43 -36 96 -36t96 36q2 -2 6 -8q-45 -38 -102 -38zM416 265q-37 0 -66 24l7 8q25 -22 59 -22q33 0 58 22q1 -2 3.5 -4t3.5 -4q-29 -24 -65 -24zM358 445q-3 2 -7 7
l-1 1q29 24 66 24t66 -24l-8 -8q-25 22 -58 22t-58 -22zM570 552q-65 59 -154 59q-87 0 -153 -58l-7 7q69 61 160 61q92 0 161 -61q-2 -3 -7 -8zM454 346l-6 5q5 10 5 20t-5 20l6 5q7 -12 7 -25t-7 -25zM468 333q-5 5 -8 7q10 15 10 31t-10 31l8 7q12 -16 12 -38
q0 -21 -12 -38zM498 306q-3 2 -8 7q19 25 19 58t-19 58l7 7q22 -28 22 -65q0 -34 -21 -65zM540 269q-2 1 -4 3.5t-4 3.5q33 43 33 95q0 53 -34 95l8 7q36 -44 36 -102q0 -57 -35 -102zM568 243q-5 5 -8 7q43 53 43 121t-43 121l8 7q45 -56 45 -128t-45 -128zM604 211
q-3 2 -8 7q55 66 55 153q0 89 -55 153l8 7q57 -68 57 -160t-57 -160zM649 171q-1 1 -3.5 3t-3.5 3q69 85 69 194q0 110 -70 193l8 7q72 -86 72 -200t-72 -200zM706 120q-3 3 -8 7q88 106 88 244t-88 244l8 7q90 -108 90 -251q0 -142 -90 -251zM183 170q-72 88 -72 201
t71 200q1 -1 3.5 -3t4.5 -4q-69 -83 -69 -193q0 -111 69 -194zM334 306q-21 29 -21 65t21 65q3 -2 8 -7q-19 -25 -19 -58q0 -32 19 -57zM364 333q-12 17 -12 38t12 38q1 -1 2 -2.5t2.5 -2.5t2.5 -2q-9 -16 -9 -31t9 -31zM395 403l-5 6q10 9 26 9t26 -9l-5 -6q-11 7 -21 7
q-13 0 -21 -7zM384 416l-7 7q17 14 39 14q21 0 38 -14q-4 -4 -6 -7q-14 12 -32 12q-17 0 -32 -12zM371 430l-7 8q22 19 52 19t52 -19l-7 -8q-19 17 -45 17t-45 -17zM295 516l-7 8q54 48 128 48t128 -49l-2 -1l-2 -4l-2 -2q-52 46 -122 46t-121 -46zM416 240q-48 0 -83 30
l7 8q35 -28 76 -28q42 0 75 28l7 -7q-36 -31 -82 -31zM416 285q-29 0 -53 19l7 8q22 -17 46 -17q25 0 45 17l7 -8q-22 -19 -52 -19zM416 305q-21 0 -40 14l7 7q17 -12 33 -12q17 0 32 12l7 -7q-17 -14 -39 -14zM341 464l-7 7q36 31 82 31q47 0 82 -30l-7 -8q-33 28 -75 28
t-75 -28zM320 487l-7 8q44 38 103 38q58 0 102 -39l-6 -7q-41 36 -96 36q-53 0 -96 -36zM610 597q-81 75 -194 75q-110 0 -194 -74l-7 7q87 77 201 77t201 -77zM172 654l-7 8q107 97 251 97t252 -97l-7 -8q-105 95 -245 95q-139 0 -244 -95zM516 290l-7 7q25 33 25 74
t-26 75l8 7q28 -36 28 -82q0 -47 -28 -81z" />
    <glyph glyph-name="registered" unicode="&#xae;" horiz-adv-x="667" 
d="M333 -11q-82 0 -138.5 26.5t-88.5 79t-45.5 119t-13.5 156.5q0 91 13.5 158t45.5 119t88.5 79t138.5 27q81 0 138 -27t89 -79t46 -119.5t14 -157.5t-14 -156.5t-46 -118.5t-89 -79t-138 -27zM333 19q73 0 124 24.5t79.5 73t40.5 109.5t12 144q0 84 -12 146t-40.5 110.5
t-79.5 73t-124 24.5q-141 0 -198 -90.5t-57 -263.5q0 -83 12 -144t40.5 -109.5t79 -73t123.5 -24.5zM448 119l-103 219h-107v-219h-37v509h153q74 0 106 -34t32 -110q0 -70 -25 -104t-83 -41l102 -220h-38zM238 370h115q55 0 79 25.5t24 87.5q0 60 -24 85.5t-79 25.5h-115
v-224z" />
    <glyph glyph-name="macron" unicode="&#xaf;" 
d="M96 607v42h267v-42h-267z" />
    <glyph glyph-name="macron" unicode="&#x2c9;" 
d="M96 607v42h267v-42h-267z" />
    <glyph glyph-name="degree" unicode="&#xb0;" horiz-adv-x="444" 
d="M223 286q-50 0 -83.5 17t-51 50t-24 71.5t-6.5 92.5t6.5 92.5t24 72t51 50.5t83.5 17t83.5 -17t50.5 -50.5t23.5 -72t6.5 -92.5t-6.5 -92.5t-23.5 -71.5t-50.5 -50t-83.5 -17zM223 327q71 0 96 48.5t25 141.5t-25 141t-96 48t-96 -48t-25 -141t25 -141.5t96 -48.5z" />
    <glyph glyph-name="plusminus" unicode="&#xb1;" horiz-adv-x="759" 
d="M353 0v503h-198v-503h-49v503h-82v44h82v84q0 139 127 139h43v-45h-40q-47 0 -64 -25t-17 -72v-81h198v84q0 66 29 102.5t99 36.5h43v-45h-41q-47 0 -64 -25t-17 -72v-81h122v-44h-122v-503h-49zM720 0q-4 -1 -15 -1q-65 0 -85 24t-20 83v663h49v-659q0 -39 11.5 -52
t59.5 -13v-45z" />
    <glyph glyph-name="twosuperior" unicode="&#xb2;" horiz-adv-x="337" 
d="M55 302v27l87 122q67 95 81.5 122t14.5 61q0 40 -16 57t-54 17q-52 0 -90 -20l-19 34q46 24 113 24q58 0 82.5 -26t24.5 -82q0 -42 -17 -74t-88 -134l-65 -93h175v-35h-229z" />
    <glyph glyph-name="threesuperior" unicode="&#xb3;" horiz-adv-x="338" 
d="M155 297q-61 0 -106 26l18 32q39 -21 86 -21t67 21.5t20 77.5q0 47 -16.5 67.5t-73.5 20.5h-47v36h49q45 0 61.5 20t16.5 56q0 46 -17 60.5t-57 14.5q-43 0 -84 -19l-17 33q50 24 104 24q59 0 85.5 -22t26.5 -86q0 -74 -46 -95q35 -12 45 -37.5t10 -75.5
q0 -74 -29.5 -103.5t-95.5 -29.5z" />
    <glyph glyph-name="acute" unicode="&#xb4;" 
d="M180 607l116 146h57l-126 -146h-47z" />
    <glyph glyph-name="mu" unicode="&#xb5;" horiz-adv-x="477" 
d="M63 -158v705h49v-359q0 -81 24.5 -115.5t105.5 -34.5q80 0 104 34.5t24 115.5v359h47v-361q0 -104 -33.5 -149t-140.5 -45q-104 0 -131 53v-203h-49z" />
    <glyph glyph-name="mu" unicode="&#x3bc;" horiz-adv-x="477" 
d="M63 -158v705h49v-359q0 -81 24.5 -115.5t105.5 -34.5q80 0 104 34.5t24 115.5v359h47v-361q0 -104 -33.5 -149t-140.5 -45q-104 0 -131 53v-203h-49z" />
    <glyph glyph-name="paragraph" unicode="&#xb6;" horiz-adv-x="474" 
d="M214 0v317q-92 7 -131.5 57t-39.5 155q0 115 47 163.5t159 48.5h151v-741h-48v316h-90v-316h-48zM249 360h103v336h-103q-85 0 -121 -37.5t-36 -130.5t36 -130.5t121 -37.5z" />
    <glyph glyph-name="periodcentered" unicode="&#xb7;" horiz-adv-x="182" 
d="M57 280v86h68v-86h-68z" />
    <glyph glyph-name="periodcentered" unicode="&#x2219;" horiz-adv-x="182" 
d="M57 280v86h68v-86h-68z" />
    <glyph glyph-name="cedilla" unicode="&#xb8;" 
d="M250 -203q-41 0 -86 18l13 30q44 -14 71 -14q37 0 51 13t14 40q0 28 -16.5 36.5t-59.5 6.5l-19 14l12 67h35l-9 -54q96 8 96 -72q0 -42 -23 -63.5t-79 -21.5z" />
    <glyph glyph-name="onesuperior" unicode="&#xb9;" horiz-adv-x="235" 
d="M111 302v401h-68v38h109v-439h-41z" />
    <glyph glyph-name="ordmasculine" unicode="&#xba;" horiz-adv-x="418" 
d="M209 291q-42 0 -72 12.5t-47.5 32t-27.5 50.5t-13 61.5t-3 72.5q0 53 5.5 89.5t21.5 70.5t50 51.5t86 17.5t86 -17.5t50.5 -51.5t22 -70.5t5.5 -89.5t-5.5 -90t-22 -71t-50.5 -51t-86 -17zM209 330q32 0 54.5 10.5t35 26.5t19.5 42t9 50.5t2 59.5t-2 59.5t-9 50.5
t-19.5 42t-35 26.5t-54.5 10.5t-54.5 -10.5t-35 -26.5t-19.5 -42t-9 -50.5t-2 -59.5t2 -59.5t9 -50.5t19.5 -42t35 -26.5t54.5 -10.5zM57 163v39h304v-39h-304z" />
    <glyph glyph-name="guillemotright" unicode="&#xbb;" horiz-adv-x="513" 
d="M88 0l116 274l-116 273h45l117 -273l-117 -274h-45zM280 0l115 274l-115 273h45l117 -273l-117 -274h-45z" />
    <glyph glyph-name="onequarter" unicode="&#xbc;" horiz-adv-x="649" 
d="M135 0l313 741h47l-314 -741h-46zM342 102v34l153 304h44l-154 -303h128l9 137h31v-137h62v-35h-62v-102h-40v102h-171zM123 302v401h-68v38h109v-439h-41z" />
    <glyph glyph-name="onehalf" unicode="&#xbd;" horiz-adv-x="702" 
d="M135 0l313 741h47l-314 -741h-46zM123 302v401h-68v38h109v-439h-41zM410 0v28l88 121q67 96 81.5 123t14.5 61q0 39 -16 56t-54 17q-51 0 -91 -19l-18 34q46 24 112 24q58 0 83 -26t25 -82q0 -42 -16.5 -73.5t-89.5 -135.5l-65 -92h175v-36h-229z" />
    <glyph glyph-name="threequarters" unicode="&#xbe;" horiz-adv-x="711" 
d="M195 0l314 741h46l-313 -741h-47zM155 297q-61 0 -106 26l18 32q39 -21 86 -21t67 21.5t20 77.5q0 47 -16.5 67.5t-73.5 20.5h-47v36h49q45 0 61.5 20t16.5 56q0 46 -17 60.5t-57 14.5q-43 0 -84 -19l-17 33q50 24 104 24q59 0 85.5 -22t26.5 -86q0 -74 -46 -95
q35 -12 45 -37.5t10 -75.5q0 -74 -29.5 -103.5t-95.5 -29.5zM404 102v34l154 304h44l-155 -303h128l9 137h31v-137h62v-35h-62v-102h-40v102h-171z" />
    <glyph glyph-name="questiondown" unicode="&#xbf;" horiz-adv-x="501" 
d="M257 -8q-93 0 -129 42t-36 118q0 54 19.5 93.5t63.5 89.5q61 71 74 103t11 110h48q2 -85 -13 -122t-80 -113q-42 -50 -58 -81.5t-16 -74.5q0 -56 26 -87t95 -31q81 0 151 37l22 -42q-78 -42 -178 -42zM251 660v81h67v-81h-67z" />
    <glyph glyph-name="Agrave" unicode="&#xc0;" horiz-adv-x="553" 
d="M26 0l226 746h49l227 -746h-50l-57 189h-291l-56 -189h-48zM143 234h265l-132 436zM278 787l-126 146h57l116 -146h-47z" />
    <glyph glyph-name="Aacute" unicode="&#xc1;" horiz-adv-x="553" 
d="M26 0l226 746h49l227 -746h-50l-57 189h-291l-56 -189h-48zM143 234h265l-132 436zM226 787l116 146h57l-126 -146h-47z" />
    <glyph glyph-name="Acircumflex" unicode="&#xc2;" horiz-adv-x="553" 
d="M26 0l226 746h49l227 -746h-50l-57 189h-291l-56 -189h-48zM143 234h265l-132 436zM138 787l113 146h50l113 -146h-45l-94 110l-93 -110h-44z" />
    <glyph glyph-name="Atilde" unicode="&#xc3;" horiz-adv-x="553" 
d="M26 0l226 746h49l227 -746h-50l-57 189h-291l-56 -189h-48zM143 234h265l-132 436zM168 785l-35 18q28 63 83 63q26 0 62.5 -20t52.5 -20q17 0 28 11t25 34l34 -19q-30 -66 -83 -66q-26 0 -63 19.5t-53 19.5q-29 0 -51 -40z" />
    <glyph glyph-name="Adieresis" unicode="&#xc4;" horiz-adv-x="553" 
d="M26 0l226 746h49l227 -746h-50l-57 189h-291l-56 -189h-48zM143 234h265l-132 436zM172 787v83h45v-83h-45zM335 787v83h46v-83h-46z" />
    <glyph glyph-name="Aring" unicode="&#xc5;" horiz-adv-x="553" 
d="M26 0l217 718q-57 18 -57 100q0 105 90 105q46 0 68 -28.5t22 -76.5q0 -81 -57 -100l219 -718h-50l-57 189h-291l-56 -189h-48zM143 234h265l-132 436zM276 747q56 0 56 71q0 72 -56 72q-57 0 -57 -72q0 -71 57 -71z" />
    <glyph glyph-name="AE" unicode="&#xc6;" horiz-adv-x="823" 
d="M19 0l360 741h394v-46h-319v-286h301v-46h-301v-317h322v-46h-371v190h-244l-92 -190h-50zM182 233h223v459z" />
    <glyph glyph-name="Ccedilla" unicode="&#xc7;" horiz-adv-x="487" 
d="M263 -203q-41 0 -86 18l13 30q44 -14 71 -14q37 0 51 13t14 40q0 28 -16.5 36.5t-59.5 6.5l-19 14l9 54q-118 15 -160 107t-42 269q0 74 5.5 127.5t21.5 103.5t43.5 80.5t73 48.5t108.5 18q99 0 165 -41l-27 -41q-55 33 -139 33q-118 0 -159.5 -79.5t-41.5 -250.5
q0 -85 8 -141t29 -101.5t61.5 -67t102.5 -21.5q89 0 153 40l25 -39q-76 -48 -179 -48q-3 0 -7 0.5t-6 0.5l-6 -39q96 8 96 -72q0 -42 -23 -63.5t-79 -21.5z" />
    <glyph glyph-name="Egrave" unicode="&#xc8;" horiz-adv-x="489" 
d="M71 0v741h369v-46h-320v-285h301v-47h-301v-317h323v-46h-372zM246 787l-126 146h57l116 -146h-47z" />
    <glyph glyph-name="Eacute" unicode="&#xc9;" horiz-adv-x="489" 
d="M194 787l116 146h57l-126 -146h-47zM71 0v741h369v-46h-320v-285h301v-47h-301v-317h323v-46h-372z" />
    <glyph glyph-name="Ecircumflex" unicode="&#xca;" horiz-adv-x="489" 
d="M106 787l113 146h50l113 -146h-45l-94 110l-93 -110h-44zM71 0v741h369v-46h-320v-285h301v-47h-301v-317h323v-46h-372z" />
    <glyph glyph-name="Edieresis" unicode="&#xcb;" horiz-adv-x="489" 
d="M140 787v83h45v-83h-45zM303 787v83h46v-83h-46zM71 0v741h369v-46h-320v-285h301v-47h-301v-317h323v-46h-372z" />
    <glyph glyph-name="Igrave" unicode="&#xcc;" horiz-adv-x="202" 
d="M78 787l-100 146h56l89 -146h-45zM76 0v741h50v-741h-50z" />
    <glyph glyph-name="Iacute" unicode="&#xcd;" horiz-adv-x="202" 
d="M79 787l88 146h55l-99 -146h-44zM76 0v741h50v-741h-50z" />
    <glyph glyph-name="Icircumflex" unicode="&#xce;" horiz-adv-x="202" 
d="M-33 787l109 146h50l109 -146h-45l-90 110l-89 -110h-44zM76 0v741h50v-741h-50z" />
    <glyph glyph-name="Idieresis" unicode="&#xcf;" horiz-adv-x="202" 
d="M76 0v741h50v-741h-50zM-2 787v83h45v-83h-45zM161 787v83h46v-83h-46z" />
    <glyph glyph-name="Eth" unicode="&#xd0;" horiz-adv-x="568" 
d="M2 365v43h69v333h193q68 0 117 -18t77.5 -47t45 -78.5t21.5 -101t5 -125.5q0 -76 -5.5 -127.5t-22 -101t-46 -78.5t-79 -46.5t-120.5 -17.5h-186v365h-69zM121 45h138q58 0 99 15.5t64.5 41t36.5 69.5t17 88.5t4 111.5q0 65 -4 109.5t-16.5 88t-35.5 69t-62.5 41.5
t-95.5 16h-145v-287h136v-43h-136v-320z" />
    <glyph glyph-name="Ntilde" unicode="&#xd1;" horiz-adv-x="592" 
d="M71 0v741h57l346 -642v642h48v-741h-47l-356 659v-659h-48zM188 785l-35 18q28 63 83 63q26 0 62.5 -20t52.5 -20q17 0 28 11t25 34l34 -19q-30 -66 -83 -66q-26 0 -63 19.5t-53 19.5q-29 0 -51 -40z" />
    <glyph glyph-name="Ograve" unicode="&#xd2;" horiz-adv-x="598" 
d="M300 -8q-58 0 -102 13t-72 39.5t-46 58t-27 78t-12 88.5t-3 101q0 72 4 121t19.5 101.5t43 84t77 52t118.5 20.5q58 0 101.5 -13t71.5 -39.5t46 -58t27 -78t12 -89t3 -101.5q0 -71 -4 -120t-19.5 -102t-43 -84t-76.5 -51.5t-118 -20.5zM300 39q56 0 96 17.5t62 44
t34 72.5t15.5 89t3.5 107q0 63 -3.5 106.5t-16 89.5t-34.5 73.5t-61.5 45t-95.5 17.5q-57 0 -96.5 -17.5t-62 -44.5t-34.5 -73.5t-15.5 -89.5t-3.5 -107t3.5 -106.5t15.5 -89t34.5 -73t62 -44t96.5 -17.5zM301 787l-126 146h57l116 -146h-47z" />
    <glyph glyph-name="Oacute" unicode="&#xd3;" horiz-adv-x="598" 
d="M249 787l116 146h57l-126 -146h-47zM300 -8q-58 0 -102 13t-72 39.5t-46 58t-27 78t-12 88.5t-3 101q0 72 4 121t19.5 101.5t43 84t77 52t118.5 20.5q58 0 101.5 -13t71.5 -39.5t46 -58t27 -78t12 -89t3 -101.5q0 -71 -4 -120t-19.5 -102t-43 -84t-76.5 -51.5t-118 -20.5
zM300 39q56 0 96 17.5t62 44t34 72.5t15.5 89t3.5 107q0 63 -3.5 106.5t-16 89.5t-34.5 73.5t-61.5 45t-95.5 17.5q-57 0 -96.5 -17.5t-62 -44.5t-34.5 -73.5t-15.5 -89.5t-3.5 -107t3.5 -106.5t15.5 -89t34.5 -73t62 -44t96.5 -17.5z" />
    <glyph glyph-name="Ocircumflex" unicode="&#xd4;" horiz-adv-x="598" 
d="M161 787l113 146h50l113 -146h-45l-94 110l-93 -110h-44zM300 -8q-58 0 -102 13t-72 39.5t-46 58t-27 78t-12 88.5t-3 101q0 72 4 121t19.5 101.5t43 84t77 52t118.5 20.5q58 0 101.5 -13t71.5 -39.5t46 -58t27 -78t12 -89t3 -101.5q0 -71 -4 -120t-19.5 -102t-43 -84
t-76.5 -51.5t-118 -20.5zM300 39q56 0 96 17.5t62 44t34 72.5t15.5 89t3.5 107q0 63 -3.5 106.5t-16 89.5t-34.5 73.5t-61.5 45t-95.5 17.5q-57 0 -96.5 -17.5t-62 -44.5t-34.5 -73.5t-15.5 -89.5t-3.5 -107t3.5 -106.5t15.5 -89t34.5 -73t62 -44t96.5 -17.5z" />
    <glyph glyph-name="Otilde" unicode="&#xd5;" horiz-adv-x="598" 
d="M300 -8q-58 0 -102 13t-72 39.5t-46 58t-27 78t-12 88.5t-3 101q0 72 4 121t19.5 101.5t43 84t77 52t118.5 20.5q58 0 101.5 -13t71.5 -39.5t46 -58t27 -78t12 -89t3 -101.5q0 -71 -4 -120t-19.5 -102t-43 -84t-76.5 -51.5t-118 -20.5zM300 39q56 0 96 17.5t62 44
t34 72.5t15.5 89t3.5 107q0 63 -3.5 106.5t-16 89.5t-34.5 73.5t-61.5 45t-95.5 17.5q-57 0 -96.5 -17.5t-62 -44.5t-34.5 -73.5t-15.5 -89.5t-3.5 -107t3.5 -106.5t15.5 -89t34.5 -73t62 -44t96.5 -17.5zM191 785l-35 18q28 63 83 63q26 0 62.5 -20t52.5 -20q17 0 28 11
t25 34l34 -19q-30 -66 -83 -66q-26 0 -63 19.5t-53 19.5q-29 0 -51 -40z" />
    <glyph glyph-name="Odieresis" unicode="&#xd6;" horiz-adv-x="598" 
d="M195 787v83h45v-83h-45zM358 787v83h46v-83h-46zM300 -8q-58 0 -102 13t-72 39.5t-46 58t-27 78t-12 88.5t-3 101q0 72 4 121t19.5 101.5t43 84t77 52t118.5 20.5q58 0 101.5 -13t71.5 -39.5t46 -58t27 -78t12 -89t3 -101.5q0 -71 -4 -120t-19.5 -102t-43 -84
t-76.5 -51.5t-118 -20.5zM300 39q56 0 96 17.5t62 44t34 72.5t15.5 89t3.5 107q0 63 -3.5 106.5t-16 89.5t-34.5 73.5t-61.5 45t-95.5 17.5q-57 0 -96.5 -17.5t-62 -44.5t-34.5 -73.5t-15.5 -89.5t-3.5 -107t3.5 -106.5t15.5 -89t34.5 -73t62 -44t96.5 -17.5z" />
    <glyph glyph-name="multiply" unicode="&#xd7;" horiz-adv-x="534" 
d="M141 195l-30 31l125 126l-125 126l30 31l126 -127l127 127l29 -31l-126 -126l126 -126l-29 -31l-127 126z" />
    <glyph glyph-name="Oslash" unicode="&#xd8;" horiz-adv-x="598" 
d="M114 -41l30 71q-64 42 -85 125t-21 215q0 72 4 121t19.5 101.5t43 84t77 52t118.5 20.5q66 0 115 -19l23 53h47l-31 -72q65 -43 86 -126t21 -215q0 -71 -4 -120t-19.5 -102t-43 -84t-76.5 -51.5t-118 -20.5q-66 0 -117 19l-21 -52h-48zM300 37q57 0 96.5 17.5t61.5 44.5
t34.5 73.5t15.5 89t3 107.5q0 112 -15.5 183.5t-62.5 109.5l-234 -607q41 -18 101 -18zM87 369q0 -114 15 -184.5t62 -108.5l234 608q-43 18 -98 18q-48 0 -83.5 -11t-58.5 -34.5t-37.5 -50.5t-21.5 -68.5t-9.5 -78.5t-2.5 -90z" />
    <glyph glyph-name="Ugrave" unicode="&#xd9;" horiz-adv-x="593" 
d="M297 -8q-129 0 -179.5 60.5t-50.5 183.5v505h50v-502q0 -103 38.5 -151.5t141.5 -48.5q104 0 143 48.5t39 151.5v502h48v-505q0 -123 -50 -183.5t-180 -60.5zM298 787l-126 146h57l116 -146h-47z" />
    <glyph glyph-name="Uacute" unicode="&#xda;" horiz-adv-x="593" 
d="M246 787l116 146h57l-126 -146h-47zM297 -8q-129 0 -179.5 60.5t-50.5 183.5v505h50v-502q0 -103 38.5 -151.5t141.5 -48.5q104 0 143 48.5t39 151.5v502h48v-505q0 -123 -50 -183.5t-180 -60.5z" />
    <glyph glyph-name="Ucircumflex" unicode="&#xdb;" horiz-adv-x="593" 
d="M158 787l113 146h50l113 -146h-45l-94 110l-93 -110h-44zM297 -8q-129 0 -179.5 60.5t-50.5 183.5v505h50v-502q0 -103 38.5 -151.5t141.5 -48.5q104 0 143 48.5t39 151.5v502h48v-505q0 -123 -50 -183.5t-180 -60.5z" />
    <glyph glyph-name="Udieresis" unicode="&#xdc;" horiz-adv-x="593" 
d="M192 787v83h45v-83h-45zM355 787v83h46v-83h-46zM297 -8q-129 0 -179.5 60.5t-50.5 183.5v505h50v-502q0 -103 38.5 -151.5t141.5 -48.5q104 0 143 48.5t39 151.5v502h48v-505q0 -123 -50 -183.5t-180 -60.5z" />
    <glyph glyph-name="Yacute" unicode="&#xdd;" horiz-adv-x="527" 
d="M239 0v282l-225 459h53l197 -404l198 404h51l-224 -457v-284h-50zM213 787l116 146h57l-126 -146h-47z" />
    <glyph glyph-name="Thorn" unicode="&#xde;" horiz-adv-x="519" 
d="M71 0v741h50v-134h175q105 0 153.5 -50t48.5 -162q0 -113 -48.5 -163.5t-154.5 -50.5h-174v-181h-50zM121 226h173q81 0 118 38t37 130t-37 130t-118 38h-173v-336z" />
    <glyph glyph-name="germandbls" unicode="&#xdf;" horiz-adv-x="500" 
d="M63 0v591q0 91 43.5 136t140.5 45q94 0 135.5 -44.5t41.5 -147.5q0 -76 -18.5 -118t-62.5 -60q67 -14 93.5 -61t26.5 -135q0 -111 -47 -158.5t-168 -47.5h-60v45h60q94 0 130 38.5t36 126.5q0 87 -35.5 126.5t-124.5 39.5h-23v43h22q65 0 94 36t29 117q0 83 -30 118
t-99 35q-71 0 -103.5 -33.5t-32.5 -103.5v-588h-48z" />
    <glyph glyph-name="agrave" unicode="&#xe0;" horiz-adv-x="482" 
d="M195 -6q-155 0 -155 169q0 116 67.5 156.5t214.5 40.5h26q-1 81 -23.5 115.5t-92.5 34.5q-74 0 -132 -30l-22 41q66 35 157 35q99 0 130 -45.5t31 -153.5v-251q0 -38 8 -49.5t40 -11.5v-45q-4 -1 -12 -1q-45 0 -60.5 16t-18.5 59q-45 -80 -158 -80zM202 38
q63 0 104.5 39.5t41.5 136.5v102h-25q-129 0 -182 -29t-53 -121q0 -72 29 -100t85 -28zM243 607l-126 146h57l116 -146h-47z" />
    <glyph glyph-name="aacute" unicode="&#xe1;" horiz-adv-x="482" 
d="M195 -6q-155 0 -155 169q0 116 67.5 156.5t214.5 40.5h26q-1 81 -23.5 115.5t-92.5 34.5q-74 0 -132 -30l-22 41q66 35 157 35q99 0 130 -45.5t31 -153.5v-251q0 -38 8 -49.5t40 -11.5v-45q-4 -1 -12 -1q-45 0 -60.5 16t-18.5 59q-45 -80 -158 -80zM202 38
q63 0 104.5 39.5t41.5 136.5v102h-25q-129 0 -182 -29t-53 -121q0 -72 29 -100t85 -28zM191 607l116 146h57l-126 -146h-47z" />
    <glyph glyph-name="acircumflex" unicode="&#xe2;" horiz-adv-x="482" 
d="M195 -6q-155 0 -155 169q0 116 67.5 156.5t214.5 40.5h26q-1 81 -23.5 115.5t-92.5 34.5q-74 0 -132 -30l-22 41q66 35 157 35q99 0 130 -45.5t31 -153.5v-251q0 -38 8 -49.5t40 -11.5v-45q-4 -1 -12 -1q-45 0 -60.5 16t-18.5 59q-45 -80 -158 -80zM202 38
q63 0 104.5 39.5t41.5 136.5v102h-25q-129 0 -182 -29t-53 -121q0 -72 29 -100t85 -28zM103 607l113 146h50l113 -146h-45l-94 110l-93 -110h-44z" />
    <glyph glyph-name="atilde" unicode="&#xe3;" horiz-adv-x="482" 
d="M195 -6q-155 0 -155 169q0 116 67.5 156.5t214.5 40.5h26q-1 81 -23.5 115.5t-92.5 34.5q-74 0 -132 -30l-22 41q66 35 157 35q99 0 130 -45.5t31 -153.5v-251q0 -38 8 -49.5t40 -11.5v-45q-4 -1 -12 -1q-45 0 -60.5 16t-18.5 59q-45 -80 -158 -80zM202 38
q63 0 104.5 39.5t41.5 136.5v102h-25q-129 0 -182 -29t-53 -121q0 -72 29 -100t85 -28zM133 605l-35 18q28 63 83 63q26 0 62.5 -20t52.5 -20q17 0 28 11t25 34l34 -19q-30 -66 -83 -66q-26 0 -63 19.5t-53 19.5q-29 0 -51 -40z" />
    <glyph glyph-name="adieresis" unicode="&#xe4;" horiz-adv-x="482" 
d="M195 -6q-155 0 -155 169q0 116 67.5 156.5t214.5 40.5h26q-1 81 -23.5 115.5t-92.5 34.5q-74 0 -132 -30l-22 41q66 35 157 35q99 0 130 -45.5t31 -153.5v-251q0 -38 8 -49.5t40 -11.5v-45q-4 -1 -12 -1q-45 0 -60.5 16t-18.5 59q-45 -80 -158 -80zM202 38
q63 0 104.5 39.5t41.5 136.5v102h-25q-129 0 -182 -29t-53 -121q0 -72 29 -100t85 -28zM137 607v83h45v-83h-45zM300 607v83h46v-83h-46z" />
    <glyph glyph-name="aring" unicode="&#xe5;" horiz-adv-x="482" 
d="M195 -6q-155 0 -155 169q0 116 67.5 156.5t214.5 40.5h26q-1 81 -23.5 115.5t-92.5 34.5q-74 0 -132 -30l-22 41q66 35 157 35q99 0 130 -45.5t31 -153.5v-251q0 -38 8 -49.5t40 -11.5v-45q-4 -1 -12 -1q-45 0 -60.5 16t-18.5 59q-45 -80 -158 -80zM202 38
q63 0 104.5 39.5t41.5 136.5v102h-25q-129 0 -182 -29t-53 -121q0 -72 29 -100t85 -28zM241 602q-90 0 -90 104q0 105 90 105q46 0 68 -28.5t22 -76.5q0 -47 -22 -75.5t-68 -28.5zM241 635q56 0 56 71q0 72 -56 72q-57 0 -57 -72q0 -71 57 -71z" />
    <glyph glyph-name="ae" unicode="&#xe6;" horiz-adv-x="756" 
d="M545 -7q-139 0 -176 113q-40 -112 -177 -112q-152 0 -152 169q0 115 67.5 155.5t214.5 40.5h26q-1 81 -23.5 116t-92.5 35q-74 0 -132 -30l-22 41q66 35 157 35q67 0 100.5 -21.5t45.5 -66.5q43 87 163 87q50 0 84.5 -16t51.5 -36t26 -64t10 -73t1 -91v-15h-322
q0 -56 6 -93t21.5 -68.5t46.5 -46.5t78 -15q65 0 134 32l20 -39q-66 -37 -156 -37zM202 38q63 0 104.5 39.5t41.5 136.5v102h-25q-129 0 -182 -29t-53 -121q0 -72 29 -100t85 -28zM543 511q-83 0 -114 -51.5t-34 -154.5h276q-1 34 -1.5 49.5t-3 42.5t-7.5 39.5t-14 30
t-22.5 25t-33.5 13.5t-46 6z" />
    <glyph glyph-name="ccedilla" unicode="&#xe7;" horiz-adv-x="399" 
d="M220 -203q-41 0 -86 18l13 30q44 -14 71 -14q37 0 51 13t14 40q0 28 -16.5 36.5t-59.5 6.5l-19 14l9 54q-91 13 -123 81.5t-32 198.5q0 141 41 210.5t158 69.5q70 0 120 -25l-21 -43q-43 22 -98 22q-88 0 -119.5 -58t-31.5 -177q0 -59 6 -99t22 -73t46.5 -49t77.5 -16
q52 0 108 29l20 -40q-66 -34 -132 -34h-7l-6 -38q96 8 96 -72q0 -42 -23 -63.5t-79 -21.5z" />
    <glyph glyph-name="egrave" unicode="&#xe8;" horiz-adv-x="450" 
d="M240 -7q-62 0 -102.5 19.5t-61 59.5t-27.5 87t-7 116q0 53 4.5 93t17 76.5t34 60t57 37t84.5 13.5q28 0 51.5 -5t40.5 -11.5t30 -21t21.5 -25.5t14.5 -34.5t9 -38.5t4.5 -46.5t1.5 -49v-54.5v-9h-323q1 -114 31.5 -168.5t120.5 -54.5q66 0 135 32l20 -39
q-66 -37 -156 -37zM238 511q-83 0 -114.5 -51.5t-34.5 -153.5h276q-1 40 -1.5 57.5t-4.5 47.5t-11.5 43t-21 29t-35.5 22t-53 6zM228 607l-126 146h57l116 -146h-47z" />
    <glyph glyph-name="eacute" unicode="&#xe9;" horiz-adv-x="450" 
d="M176 607l116 146h57l-126 -146h-47zM240 -7q-62 0 -102.5 19.5t-61 59.5t-27.5 87t-7 116q0 53 4.5 93t17 76.5t34 60t57 37t84.5 13.5q28 0 51.5 -5t40.5 -11.5t30 -21t21.5 -25.5t14.5 -34.5t9 -38.5t4.5 -46.5t1.5 -49v-54.5v-9h-323q1 -114 31.5 -168.5t120.5 -54.5
q66 0 135 32l20 -39q-66 -37 -156 -37zM238 511q-83 0 -114.5 -51.5t-34.5 -153.5h276q-1 40 -1.5 57.5t-4.5 47.5t-11.5 43t-21 29t-35.5 22t-53 6z" />
    <glyph glyph-name="ecircumflex" unicode="&#xea;" horiz-adv-x="450" 
d="M88 607l113 146h50l113 -146h-45l-94 110l-93 -110h-44zM240 -7q-62 0 -102.5 19.5t-61 59.5t-27.5 87t-7 116q0 53 4.5 93t17 76.5t34 60t57 37t84.5 13.5q28 0 51.5 -5t40.5 -11.5t30 -21t21.5 -25.5t14.5 -34.5t9 -38.5t4.5 -46.5t1.5 -49v-54.5v-9h-323
q1 -114 31.5 -168.5t120.5 -54.5q66 0 135 32l20 -39q-66 -37 -156 -37zM238 511q-83 0 -114.5 -51.5t-34.5 -153.5h276q-1 40 -1.5 57.5t-4.5 47.5t-11.5 43t-21 29t-35.5 22t-53 6z" />
    <glyph glyph-name="edieresis" unicode="&#xeb;" horiz-adv-x="450" 
d="M122 607v83h45v-83h-45zM285 607v83h46v-83h-46zM240 -7q-62 0 -102.5 19.5t-61 59.5t-27.5 87t-7 116q0 53 4.5 93t17 76.5t34 60t57 37t84.5 13.5q28 0 51.5 -5t40.5 -11.5t30 -21t21.5 -25.5t14.5 -34.5t9 -38.5t4.5 -46.5t1.5 -49v-54.5v-9h-323q1 -114 31.5 -168.5
t120.5 -54.5q66 0 135 32l20 -39q-66 -37 -156 -37zM238 511q-83 0 -114.5 -51.5t-34.5 -153.5h276q-1 40 -1.5 57.5t-4.5 47.5t-11.5 43t-21 29t-35.5 22t-53 6z" />
    <glyph glyph-name="igrave" unicode="&#xec;" horiz-adv-x="181" 
d="M68 607l-80 146h55l69 -146h-44zM66 0v547h49v-547h-49z" />
    <glyph glyph-name="iacute" unicode="&#xed;" horiz-adv-x="181" 
d="M68 607l69 146h55l-80 -146h-44zM66 0v547h49v-547h-49z" />
    <glyph glyph-name="icircumflex" unicode="&#xee;" horiz-adv-x="181" 
d="M-29 607l95 146h50l94 -146h-46l-74 110l-75 -110h-44zM66 0v547h49v-547h-49z" />
    <glyph glyph-name="idieresis" unicode="&#xef;" horiz-adv-x="181" 
d="M-3 607v83h44v-83h-44zM140 607v83h43v-83h-43zM66 0v547h49v-547h-49z" />
    <glyph glyph-name="eth" unicode="&#xf0;" horiz-adv-x="485" 
d="M218 613v42l84 26q-31 38 -65 62l33 30q49 -35 80 -77l95 30v-42l-72 -23q71 -122 71 -382q0 -53 -3.5 -90.5t-15.5 -77t-33.5 -64t-59 -40t-90.5 -15.5q-51 0 -87.5 15t-58 38.5t-34 61.5t-16.5 75.5t-4 88.5q0 50 3.5 86.5t15.5 74.5t32.5 62t56.5 39t85 15
q106 0 148 -65q-17 97 -57 163zM242 37q40 0 68.5 13t44.5 32.5t25 52.5t11.5 62.5t2.5 72.5t-2.5 73t-11.5 62.5t-25 52.5t-44.5 33t-68.5 13t-68.5 -13t-44 -33t-24.5 -52.5t-11.5 -62.5t-2.5 -73t2.5 -72.5t11.5 -62.5t24.5 -52.5t44 -32.5t68.5 -13z" />
    <glyph glyph-name="ntilde" unicode="&#xf1;" horiz-adv-x="487" 
d="M63 0v544l39 2l5 -76q18 41 54.5 63t109.5 22q52 0 84.5 -13t47.5 -43t19.5 -61t4.5 -84v-354h-48v347q0 89 -22 125.5t-98 36.5q-90 0 -118.5 -53t-28.5 -179v-277h-49zM135 605l-35 18q28 63 83 63q26 0 62.5 -20t52.5 -20q17 0 28 11t25 34l34 -19q-30 -66 -83 -66
q-26 0 -63 19.5t-53 19.5q-29 0 -51 -40z" />
    <glyph glyph-name="ograve" unicode="&#xf2;" horiz-adv-x="485" 
d="M242 -8q-51 0 -88 15t-58.5 39t-33.5 62.5t-16 76.5t-4 89q0 52 3.5 89t16 75.5t33.5 62.5t58 39t89 15t89.5 -15t59 -39t33.5 -62.5t16 -76t4 -88.5q0 -66 -7 -111t-27 -87t-62 -63t-106 -21zM242 37q40 0 68.5 13t44.5 32.5t25 52.5t11.5 63.5t2.5 74.5t-2.5 74.5
t-11.5 63.5t-25 52.5t-44.5 32.5t-68.5 13t-68.5 -13t-44 -32.5t-24.5 -52.5t-11.5 -63.5t-2.5 -74.5t2.5 -74.5t11.5 -63.5t24.5 -52.5t44 -32.5t68.5 -13zM244 607l-126 146h57l116 -146h-47z" />
    <glyph glyph-name="oacute" unicode="&#xf3;" horiz-adv-x="485" 
d="M192 607l116 146h57l-126 -146h-47zM242 -8q-51 0 -88 15t-58.5 39t-33.5 62.5t-16 76.5t-4 89q0 52 3.5 89t16 75.5t33.5 62.5t58 39t89 15t89.5 -15t59 -39t33.5 -62.5t16 -76t4 -88.5q0 -66 -7 -111t-27 -87t-62 -63t-106 -21zM242 37q40 0 68.5 13t44.5 32.5t25 52.5
t11.5 63.5t2.5 74.5t-2.5 74.5t-11.5 63.5t-25 52.5t-44.5 32.5t-68.5 13t-68.5 -13t-44 -32.5t-24.5 -52.5t-11.5 -63.5t-2.5 -74.5t2.5 -74.5t11.5 -63.5t24.5 -52.5t44 -32.5t68.5 -13z" />
    <glyph glyph-name="ocircumflex" unicode="&#xf4;" horiz-adv-x="485" 
d="M104 607l113 146h50l113 -146h-45l-94 110l-93 -110h-44zM242 -8q-51 0 -88 15t-58.5 39t-33.5 62.5t-16 76.5t-4 89q0 52 3.5 89t16 75.5t33.5 62.5t58 39t89 15t89.5 -15t59 -39t33.5 -62.5t16 -76t4 -88.5q0 -66 -7 -111t-27 -87t-62 -63t-106 -21zM242 37
q40 0 68.5 13t44.5 32.5t25 52.5t11.5 63.5t2.5 74.5t-2.5 74.5t-11.5 63.5t-25 52.5t-44.5 32.5t-68.5 13t-68.5 -13t-44 -32.5t-24.5 -52.5t-11.5 -63.5t-2.5 -74.5t2.5 -74.5t11.5 -63.5t24.5 -52.5t44 -32.5t68.5 -13z" />
    <glyph glyph-name="otilde" unicode="&#xf5;" horiz-adv-x="485" 
d="M242 -8q-51 0 -88 15t-58.5 39t-33.5 62.5t-16 76.5t-4 89q0 52 3.5 89t16 75.5t33.5 62.5t58 39t89 15t89.5 -15t59 -39t33.5 -62.5t16 -76t4 -88.5q0 -66 -7 -111t-27 -87t-62 -63t-106 -21zM242 37q40 0 68.5 13t44.5 32.5t25 52.5t11.5 63.5t2.5 74.5t-2.5 74.5
t-11.5 63.5t-25 52.5t-44.5 32.5t-68.5 13t-68.5 -13t-44 -32.5t-24.5 -52.5t-11.5 -63.5t-2.5 -74.5t2.5 -74.5t11.5 -63.5t24.5 -52.5t44 -32.5t68.5 -13zM134 605l-35 18q28 63 83 63q26 0 62.5 -20t52.5 -20q17 0 28 11t25 34l34 -19q-30 -66 -83 -66q-26 0 -63 19.5
t-53 19.5q-29 0 -51 -40z" />
    <glyph glyph-name="odieresis" unicode="&#xf6;" horiz-adv-x="485" 
d="M138 607v83h45v-83h-45zM301 607v83h46v-83h-46zM242 -8q-51 0 -88 15t-58.5 39t-33.5 62.5t-16 76.5t-4 89q0 52 3.5 89t16 75.5t33.5 62.5t58 39t89 15t89.5 -15t59 -39t33.5 -62.5t16 -76t4 -88.5q0 -66 -7 -111t-27 -87t-62 -63t-106 -21zM242 37q40 0 68.5 13
t44.5 32.5t25 52.5t11.5 63.5t2.5 74.5t-2.5 74.5t-11.5 63.5t-25 52.5t-44.5 32.5t-68.5 13t-68.5 -13t-44 -32.5t-24.5 -52.5t-11.5 -63.5t-2.5 -74.5t2.5 -74.5t11.5 -63.5t24.5 -52.5t44 -32.5t68.5 -13z" />
    <glyph glyph-name="divide" unicode="&#xf7;" horiz-adv-x="534" 
d="M237 149v72h61v-72h-61zM86 330v45h362v-45h-362zM237 482v72h61v-72h-61z" />
    <glyph glyph-name="oslash" unicode="&#xf8;" horiz-adv-x="485" 
d="M80 -43l33 72q-42 34 -56.5 94t-14.5 151q0 52 3.5 89t16 75.5t33.5 62.5t58 39t89 15q55 0 95 -17l23 50h46l-33 -72q41 -35 56 -94.5t15 -147.5q0 -66 -7 -111t-27 -87t-62 -63t-106 -21q-55 0 -94 17l-23 -52h-45zM90 273q0 -150 46 -198l183 419q-32 16 -77 16
q-40 0 -68.5 -13t-44.5 -33t-25 -52.5t-11.5 -63.5t-2.5 -75zM242 37q40 0 69 13t45 32.5t25 52.5t11.5 63.5t2.5 74.5q0 149 -46 198l-183 -419q30 -15 76 -15z" />
    <glyph glyph-name="ugrave" unicode="&#xf9;" horiz-adv-x="474" 
d="M238 -8q-102 0 -140 47t-38 147v361h49v-359q0 -78 27.5 -114t102.5 -36t101.5 36t26.5 114v359h47v-361q0 -101 -36.5 -147.5t-139.5 -46.5zM238 607l-126 146h57l116 -146h-47z" />
    <glyph glyph-name="uacute" unicode="&#xfa;" horiz-adv-x="474" 
d="M186 607l116 146h57l-126 -146h-47zM238 -8q-102 0 -140 47t-38 147v361h49v-359q0 -78 27.5 -114t102.5 -36t101.5 36t26.5 114v359h47v-361q0 -101 -36.5 -147.5t-139.5 -46.5z" />
    <glyph glyph-name="ucircumflex" unicode="&#xfb;" horiz-adv-x="474" 
d="M98 607l113 146h50l113 -146h-45l-94 110l-93 -110h-44zM238 -8q-102 0 -140 47t-38 147v361h49v-359q0 -78 27.5 -114t102.5 -36t101.5 36t26.5 114v359h47v-361q0 -101 -36.5 -147.5t-139.5 -46.5z" />
    <glyph glyph-name="udieresis" unicode="&#xfc;" horiz-adv-x="474" 
d="M132 607v83h45v-83h-45zM295 607v83h46v-83h-46zM238 -8q-102 0 -140 47t-38 147v361h49v-359q0 -78 27.5 -114t102.5 -36t101.5 36t26.5 114v359h47v-361q0 -101 -36.5 -147.5t-139.5 -46.5z" />
    <glyph glyph-name="yacute" unicode="&#xfd;" horiz-adv-x="408" 
d="M63 -158v42h40q24 0 36.5 10.5t20.5 35.5l20 66l-166 551h48l143 -478l142 478h48l-191 -628q-13 -44 -36 -60.5t-67 -16.5h-38zM155 607l116 146h57l-126 -146h-47z" />
    <glyph glyph-name="thorn" unicode="&#xfe;" horiz-adv-x="498" 
d="M63 -158v927h49v-298q33 84 165 84q39 0 69 -10t49 -30t31.5 -44t19 -58.5t8.5 -65.5t2 -73q0 -51 -3 -87.5t-14 -75.5t-30 -63t-52.5 -39.5t-80.5 -15.5q-72 0 -108.5 21t-55.5 62v-234h-49zM267 38q45 0 74 17.5t43 52.5t18.5 72.5t4.5 92.5q0 44 -2.5 75t-11 63.5
t-23 52.5t-41 32.5t-62.5 12.5t-62.5 -8t-43 -25.5t-27 -36t-15 -49t-6 -55t-1.5 -62.5q0 -46 2 -75t10.5 -62.5t24.5 -52.5t46 -32t72 -13z" />
    <glyph glyph-name="ydieresis" unicode="&#xff;" horiz-adv-x="408" 
d="M63 -158v42h40q24 0 36.5 10.5t20.5 35.5l20 66l-166 551h48l143 -478l142 478h48l-191 -628q-13 -44 -36 -60.5t-67 -16.5h-38zM101 607v83h45v-83h-45zM264 607v83h46v-83h-46z" />
    <glyph glyph-name="dotlessi" unicode="&#x131;" horiz-adv-x="181" 
d="M66 0v547h49v-547h-49z" />
    <glyph glyph-name="Lslash" unicode="&#x141;" horiz-adv-x="457" 
d="M2 326v43l69 36v336h50v-309l135 71v-42l-135 -72v-343h314v-46h-364v362z" />
    <glyph glyph-name="lslash" unicode="&#x142;" horiz-adv-x="284" 
d="M21 429v44l85 49v247h49v-219l94 54v-44l-94 -54v-396q0 -21 1.5 -30.5t8 -19t20.5 -12.5t40 -3v-45q-3 -1 -14 -1q-66 0 -85.5 23.5t-19.5 83.5v372z" />
    <glyph glyph-name="OE" unicode="&#x152;" horiz-adv-x="928" 
d="M515 0v103q-55 -111 -215 -111q-58 0 -102 13t-72 39.5t-46 58t-27 78t-12 88.5t-3 101q0 72 4 121t19.5 101.5t43 84t77 52t118.5 20.5q159 0 215 -113v105h364v-46h-320v-286h301v-46h-301v-317h322v-46h-366zM300 39q56 0 96 17.5t62 44t34 72.5t15.5 89t3.5 107
q0 63 -3.5 106.5t-16 89.5t-34.5 73.5t-61.5 45t-95.5 17.5q-57 0 -96.5 -17.5t-62 -44.5t-34.5 -73.5t-15.5 -89.5t-3.5 -107t3.5 -106.5t15.5 -89t34.5 -73t62 -44t96.5 -17.5z" />
    <glyph glyph-name="oe" unicode="&#x153;" horiz-adv-x="803" 
d="M242 -8q-51 0 -88 15t-58.5 39t-33.5 62.5t-16 76.5t-4 89q0 52 3.5 89t16 75.5t33.5 62.5t58 39t89 15q137 0 177 -110q39 110 173 110q44 0 75 -10.5t49 -30t29.5 -46.5t14.5 -59.5t4 -70.5t0 -78h-322q1 -114 31.5 -168.5t120.5 -54.5q66 0 135 32l20 -39
q-66 -37 -156 -37q-137 0 -175 108q-40 -109 -176 -109zM242 37q40 0 68.5 13t44.5 32.5t25 52.5t11.5 63.5t2.5 74.5t-2.5 74.5t-11.5 63.5t-25 52.5t-44.5 32.5t-68.5 13t-68.5 -13t-44 -32.5t-24.5 -52.5t-11.5 -63.5t-2.5 -74.5t2.5 -74.5t11.5 -63.5t24.5 -52.5
t44 -32.5t68.5 -13zM591 511q-83 0 -114.5 -51.5t-34.5 -154.5h276q-1 40 -1.5 57.5t-4.5 47.5t-11.5 43.5t-21 29.5t-35.5 22t-53 6z" />
    <glyph glyph-name="Scaron" unicode="&#x160;" horiz-adv-x="505" 
d="M227 787l-113 146h46l93 -110l93 110h44l-113 -146h-50zM253 -8q-119 0 -212 55l25 40q85 -49 186 -49q79 0 121.5 36.5t42.5 102.5q0 70 -35.5 104.5t-136.5 85.5q-49 24 -76.5 40.5t-53.5 41t-37 54.5t-11 71q0 80 50 127.5t146 47.5q98 0 173 -36l-21 -43
q-65 31 -152 31q-73 0 -110 -34.5t-37 -91.5q0 -58 29 -88t123 -79q47 -24 72.5 -38t53.5 -35t41.5 -41.5t22 -49.5t8.5 -66q0 -88 -55.5 -137t-156.5 -49z" />
    <glyph glyph-name="scaron" unicode="&#x161;" horiz-adv-x="367" 
d="M160 607l-113 146h46l93 -110l93 110h44l-113 -146h-50zM176 -7q-90 0 -154 33l21 41q60 -31 133 -31q115 0 115 97q0 46 -26 71.5t-91 60.5q-75 39 -106 70t-31 88q0 132 150 132q73 0 130 -25l-19 -41q-56 22 -112 22q-102 0 -102 -88q0 -39 25 -62t92 -58
q73 -38 105 -72.5t32 -97.5q0 -69 -42.5 -104.5t-119.5 -35.5z" />
    <glyph glyph-name="Ydieresis" unicode="&#x178;" horiz-adv-x="527" 
d="M239 0v282l-225 459h53l197 -404l198 404h51l-224 -457v-284h-50zM159 787v83h45v-83h-45zM322 787v83h46v-83h-46z" />
    <glyph glyph-name="Zcaron" unicode="&#x17d;" horiz-adv-x="507" 
d="M228 787l-113 146h46l93 -110l93 110h44l-113 -146h-50zM38 0v42l360 653h-346v46h405v-42l-361 -653h370v-46h-428z" />
    <glyph glyph-name="zcaron" unicode="&#x17e;" horiz-adv-x="381" 
d="M166 607l-113 146h46l93 -110l93 110h44l-113 -146h-50zM27 0v39l261 464h-246v44h304v-38l-262 -466h270v-43h-327z" />
    <glyph glyph-name="florin" unicode="&#x192;" horiz-adv-x="401" 
d="M66 403v44h92l24 156q5 36 11 56.5t19 41.5t37 30.5t60 9.5h38v-44h-35q-24 0 -39.5 -6.5t-23.5 -23t-11 -29t-7 -38.5l-23 -153h139v-44h-146l-85 -561h-49l85 561h-86z" />
    <glyph glyph-name="circumflex" unicode="&#x2c6;" 
d="M92 607l113 146h50l113 -146h-45l-94 110l-93 -110h-44z" />
    <glyph glyph-name="caron" unicode="&#x2c7;" 
d="M205 607l-113 146h46l93 -110l93 110h44l-113 -146h-50z" />
    <glyph glyph-name="breve" unicode="&#x2d8;" 
d="M230 603q-122 0 -139 115l40 7q13 -82 99 -82q49 0 70 22t28 60l40 -6q-9 -54 -39.5 -85t-98.5 -31z" />
    <glyph glyph-name="dotaccent" unicode="&#x2d9;" 
d="M205 607v93h50v-93h-50z" />
    <glyph glyph-name="ring" unicode="&#x2da;" 
d="M230 602q-90 0 -90 104q0 105 90 105q46 0 68 -28.5t22 -76.5q0 -47 -22 -75.5t-68 -28.5zM230 635q56 0 56 71q0 72 -56 72q-57 0 -57 -72q0 -71 57 -71z" />
    <glyph glyph-name="ogonek" unicode="&#x2db;" horiz-adv-x="460" 
d="M234 -201q-95 0 -95 81q0 72 85 130h47q-89 -66 -89 -125q0 -25 12 -37t45 -12h34v-37h-39z" />
    <glyph glyph-name="tilde" unicode="&#x2dc;" 
d="M122 605l-35 18q28 63 83 63q26 0 62.5 -20t52.5 -20q17 0 28 11t25 34l34 -19q-30 -66 -83 -66q-26 0 -63 19.5t-53 19.5q-29 0 -51 -40z" />
    <glyph glyph-name="hungarumlaut" unicode="&#x2dd;" 
d="M108 607l115 146h55l-126 -146h-44zM275 607l115 146h54l-126 -146h-43z" />
    <glyph glyph-name="Delta" unicode="&#x394;" horiz-adv-x="468" 
d="M24 503v44h82v84q0 139 127 139h43v-45h-40q-47 0 -64 -25t-17 -72v-81h121v-44h-121v-503h-49v503h-82zM292 -158v42h6q33 0 44 15.5t11 53.5v594h49v-595q0 -60 -20.5 -85t-82.5 -25h-7zM353 627v93h49v-93h-49z" />
    <glyph glyph-name="Delta" unicode="&#x2206;" horiz-adv-x="468" 
d="M24 503v44h82v84q0 139 127 139h43v-45h-40q-47 0 -64 -25t-17 -72v-81h121v-44h-121v-503h-49v503h-82zM292 -158v42h6q33 0 44 15.5t11 53.5v594h49v-595q0 -60 -20.5 -85t-82.5 -25h-7zM353 627v93h49v-93h-49z" />
    <glyph glyph-name="Omega" unicode="&#x3a9;" horiz-adv-x="832" 
d="M126 120q-90 108 -90 251q0 142 90 250q3 -2 7 -6q-87 -106 -87 -244t88 -244zM228 211q-57 70 -57 160t56 160q2 -1 4.5 -3.5l3.5 -3.5q-54 -67 -54 -153q0 -88 54 -153q-1 -1 -2 -2.5t-2.5 -2.5t-2.5 -2zM264 243q-45 56 -45 128t45 128q1 -1 4 -3.5t4 -3.5
q-43 -53 -43 -121t43 -121q-2 -1 -4.5 -3.5zM316 289q-28 36 -28 82q0 47 28 81l7 -7q-25 -33 -25 -74t26 -75q-2 -1 -4 -3.5t-4 -3.5zM349 320q-16 22 -16 51t16 51q2 -1 4 -3.5t4 -3.5q-14 -20 -14 -44t14 -44q-3 -2 -8 -7zM378 346q-7 12 -7 25t7 25l6 -5q-5 -10 -5 -20
t5 -20q-2 -2 -6 -5zM416 60q-116 0 -201 77l7 7q84 -74 194 -74q111 0 193 74q1 -2 3.5 -4t3.5 -4q-86 -76 -200 -76zM416 324q-15 0 -27 9l6 6q10 -7 21 -7q13 0 21 7q2 -2 5 -6q-10 -9 -26 -9zM482 319q-3 4 -7 7q14 20 14 45t-14 44l7 7q17 -22 17 -51t-17 -52zM292 269
q-35 45 -35 102q0 58 36 102l7 -7q-33 -43 -33 -95t33 -95q-5 -5 -8 -7zM416 -17q-144 0 -252 97l7 8q105 -95 245 -95q139 0 244 94l2 -1l4 -4l1 -2q-107 -97 -251 -97zM416 121q-92 0 -161 61l7 8q65 -59 154 -59t153 59q1 -1 3.5 -4t3.5 -4q-67 -61 -160 -61zM416 170
q-72 0 -129 49l7 7q52 -46 122 -46t121 46l3.5 -3.5t3.5 -4.5q-54 -48 -128 -48zM416 209q-57 0 -103 38l7 8q43 -36 96 -36t96 36q2 -2 6 -8q-45 -38 -102 -38zM416 265q-37 0 -66 24l7 8q25 -22 59 -22q33 0 58 22q1 -2 3.5 -4t3.5 -4q-29 -24 -65 -24zM358 445q-3 2 -7 7
l-1 1q29 24 66 24t66 -24l-8 -8q-25 22 -58 22t-58 -22zM570 552q-65 59 -154 59q-87 0 -153 -58l-7 7q69 61 160 61q92 0 161 -61q-2 -3 -7 -8zM454 346l-6 5q5 10 5 20t-5 20l6 5q7 -12 7 -25t-7 -25zM468 333q-5 5 -8 7q10 15 10 31t-10 31l8 7q12 -16 12 -38
q0 -21 -12 -38zM498 306q-3 2 -8 7q19 25 19 58t-19 58l7 7q22 -28 22 -65q0 -34 -21 -65zM540 269q-2 1 -4 3.5t-4 3.5q33 43 33 95q0 53 -34 95l8 7q36 -44 36 -102q0 -57 -35 -102zM568 243q-5 5 -8 7q43 53 43 121t-43 121l8 7q45 -56 45 -128t-45 -128zM604 211
q-3 2 -8 7q55 66 55 153q0 89 -55 153l8 7q57 -68 57 -160t-57 -160zM649 171q-1 1 -3.5 3t-3.5 3q69 85 69 194q0 110 -70 193l8 7q72 -86 72 -200t-72 -200zM706 120q-3 3 -8 7q88 106 88 244t-88 244l8 7q90 -108 90 -251q0 -142 -90 -251zM183 170q-72 88 -72 201
t71 200q1 -1 3.5 -3t4.5 -4q-69 -83 -69 -193q0 -111 69 -194zM334 306q-21 29 -21 65t21 65q3 -2 8 -7q-19 -25 -19 -58q0 -32 19 -57zM364 333q-12 17 -12 38t12 38q1 -1 2 -2.5t2.5 -2.5t2.5 -2q-9 -16 -9 -31t9 -31zM395 403l-5 6q10 9 26 9t26 -9l-5 -6q-11 7 -21 7
q-13 0 -21 -7zM384 416l-7 7q17 14 39 14q21 0 38 -14q-4 -4 -6 -7q-14 12 -32 12q-17 0 -32 -12zM371 430l-7 8q22 19 52 19t52 -19l-7 -8q-19 17 -45 17t-45 -17zM295 516l-7 8q54 48 128 48t128 -49l-2 -1l-2 -4l-2 -2q-52 46 -122 46t-121 -46zM416 240q-48 0 -83 30
l7 8q35 -28 76 -28q42 0 75 28l7 -7q-36 -31 -82 -31zM416 285q-29 0 -53 19l7 8q22 -17 46 -17q25 0 45 17l7 -8q-22 -19 -52 -19zM416 305q-21 0 -40 14l7 7q17 -12 33 -12q17 0 32 12l7 -7q-17 -14 -39 -14zM341 464l-7 7q36 31 82 31q47 0 82 -30l-7 -8q-33 28 -75 28
t-75 -28zM320 487l-7 8q44 38 103 38q58 0 102 -39l-6 -7q-41 36 -96 36q-53 0 -96 -36zM610 597q-81 75 -194 75q-110 0 -194 -74l-7 7q87 77 201 77t201 -77zM172 654l-7 8q107 97 251 97t252 -97l-7 -8q-105 95 -245 95q-139 0 -244 -95zM516 290l-7 7q25 33 25 74
t-26 75l8 7q28 -36 28 -82q0 -47 -28 -81z" />
    <glyph glyph-name="Omega" unicode="&#x2126;" horiz-adv-x="832" 
d="M126 120q-90 108 -90 251q0 142 90 250q3 -2 7 -6q-87 -106 -87 -244t88 -244zM228 211q-57 70 -57 160t56 160q2 -1 4.5 -3.5l3.5 -3.5q-54 -67 -54 -153q0 -88 54 -153q-1 -1 -2 -2.5t-2.5 -2.5t-2.5 -2zM264 243q-45 56 -45 128t45 128q1 -1 4 -3.5t4 -3.5
q-43 -53 -43 -121t43 -121q-2 -1 -4.5 -3.5zM316 289q-28 36 -28 82q0 47 28 81l7 -7q-25 -33 -25 -74t26 -75q-2 -1 -4 -3.5t-4 -3.5zM349 320q-16 22 -16 51t16 51q2 -1 4 -3.5t4 -3.5q-14 -20 -14 -44t14 -44q-3 -2 -8 -7zM378 346q-7 12 -7 25t7 25l6 -5q-5 -10 -5 -20
t5 -20q-2 -2 -6 -5zM416 60q-116 0 -201 77l7 7q84 -74 194 -74q111 0 193 74q1 -2 3.5 -4t3.5 -4q-86 -76 -200 -76zM416 324q-15 0 -27 9l6 6q10 -7 21 -7q13 0 21 7q2 -2 5 -6q-10 -9 -26 -9zM482 319q-3 4 -7 7q14 20 14 45t-14 44l7 7q17 -22 17 -51t-17 -52zM292 269
q-35 45 -35 102q0 58 36 102l7 -7q-33 -43 -33 -95t33 -95q-5 -5 -8 -7zM416 -17q-144 0 -252 97l7 8q105 -95 245 -95q139 0 244 94l2 -1l4 -4l1 -2q-107 -97 -251 -97zM416 121q-92 0 -161 61l7 8q65 -59 154 -59t153 59q1 -1 3.5 -4t3.5 -4q-67 -61 -160 -61zM416 170
q-72 0 -129 49l7 7q52 -46 122 -46t121 46l3.5 -3.5t3.5 -4.5q-54 -48 -128 -48zM416 209q-57 0 -103 38l7 8q43 -36 96 -36t96 36q2 -2 6 -8q-45 -38 -102 -38zM416 265q-37 0 -66 24l7 8q25 -22 59 -22q33 0 58 22q1 -2 3.5 -4t3.5 -4q-29 -24 -65 -24zM358 445q-3 2 -7 7
l-1 1q29 24 66 24t66 -24l-8 -8q-25 22 -58 22t-58 -22zM570 552q-65 59 -154 59q-87 0 -153 -58l-7 7q69 61 160 61q92 0 161 -61q-2 -3 -7 -8zM454 346l-6 5q5 10 5 20t-5 20l6 5q7 -12 7 -25t-7 -25zM468 333q-5 5 -8 7q10 15 10 31t-10 31l8 7q12 -16 12 -38
q0 -21 -12 -38zM498 306q-3 2 -8 7q19 25 19 58t-19 58l7 7q22 -28 22 -65q0 -34 -21 -65zM540 269q-2 1 -4 3.5t-4 3.5q33 43 33 95q0 53 -34 95l8 7q36 -44 36 -102q0 -57 -35 -102zM568 243q-5 5 -8 7q43 53 43 121t-43 121l8 7q45 -56 45 -128t-45 -128zM604 211
q-3 2 -8 7q55 66 55 153q0 89 -55 153l8 7q57 -68 57 -160t-57 -160zM649 171q-1 1 -3.5 3t-3.5 3q69 85 69 194q0 110 -70 193l8 7q72 -86 72 -200t-72 -200zM706 120q-3 3 -8 7q88 106 88 244t-88 244l8 7q90 -108 90 -251q0 -142 -90 -251zM183 170q-72 88 -72 201
t71 200q1 -1 3.5 -3t4.5 -4q-69 -83 -69 -193q0 -111 69 -194zM334 306q-21 29 -21 65t21 65q3 -2 8 -7q-19 -25 -19 -58q0 -32 19 -57zM364 333q-12 17 -12 38t12 38q1 -1 2 -2.5t2.5 -2.5t2.5 -2q-9 -16 -9 -31t9 -31zM395 403l-5 6q10 9 26 9t26 -9l-5 -6q-11 7 -21 7
q-13 0 -21 -7zM384 416l-7 7q17 14 39 14q21 0 38 -14q-4 -4 -6 -7q-14 12 -32 12q-17 0 -32 -12zM371 430l-7 8q22 19 52 19t52 -19l-7 -8q-19 17 -45 17t-45 -17zM295 516l-7 8q54 48 128 48t128 -49l-2 -1l-2 -4l-2 -2q-52 46 -122 46t-121 -46zM416 240q-48 0 -83 30
l7 8q35 -28 76 -28q42 0 75 28l7 -7q-36 -31 -82 -31zM416 285q-29 0 -53 19l7 8q22 -17 46 -17q25 0 45 17l7 -8q-22 -19 -52 -19zM416 305q-21 0 -40 14l7 7q17 -12 33 -12q17 0 32 12l7 -7q-17 -14 -39 -14zM341 464l-7 7q36 31 82 31q47 0 82 -30l-7 -8q-33 28 -75 28
t-75 -28zM320 487l-7 8q44 38 103 38q58 0 102 -39l-6 -7q-41 36 -96 36q-53 0 -96 -36zM610 597q-81 75 -194 75q-110 0 -194 -74l-7 7q87 77 201 77t201 -77zM172 654l-7 8q107 97 251 97t252 -97l-7 -8q-105 95 -245 95q-139 0 -244 -95zM516 290l-7 7q25 33 25 74
t-26 75l8 7q28 -36 28 -82q0 -47 -28 -81z" />
    <glyph glyph-name="pi" unicode="&#x3c0;" horiz-adv-x="667" 
d="M333 -11q-82 0 -138.5 26.5t-88.5 79t-45.5 119t-13.5 156.5q0 91 13.5 158t45.5 119t88.5 79t138.5 27q81 0 138 -27t89 -79t46 -119.5t14 -157.5t-14 -156.5t-46 -118.5t-89 -79t-138 -27zM333 19q73 0 124 24.5t79.5 73t40.5 109.5t12 144q0 84 -12 146t-40.5 110.5
t-79.5 73t-124 24.5q-141 0 -198 -90.5t-57 -263.5q0 -83 12 -144t40.5 -109.5t79 -73t123.5 -24.5zM206 108v519h157q77 0 110 -34t33 -115q0 -80 -33 -114.5t-110 -34.5h-119v-221h-38zM244 362h119q57 0 81 26t24 89q0 64 -24 90t-81 26h-119v-231z" />
    <glyph glyph-name="endash" unicode="&#x2013;" horiz-adv-x="535" 
d="M44 279v45h449v-45h-449z" />
    <glyph glyph-name="emdash" unicode="&#x2014;" horiz-adv-x="708" 
d="M44 279v45h621v-45h-621z" />
    <glyph glyph-name="quoteleft" unicode="&#x2018;" horiz-adv-x="182" 
d="M57 558v86q0 40 12.5 61.5t45.5 38.5l16 -28q-23 -13 -31 -27t-8 -40h33v-91h-68z" />
    <glyph glyph-name="quoteright" unicode="&#x2019;" horiz-adv-x="182" 
d="M67 555l-16 28q23 13 31 27.5t8 40.5h-33v90h68v-85q0 -41 -12.5 -62.5t-45.5 -38.5z" />
    <glyph glyph-name="quotesinglbase" unicode="&#x201a;" horiz-adv-x="182" 
d="M67 -96l-16 29q23 13 31 26.5t8 40.5h-33v91h68v-86q0 -41 -12.5 -62.5t-45.5 -38.5z" />
    <glyph glyph-name="quotedblleft" unicode="&#x201c;" horiz-adv-x="315" 
d="M57 560v85q0 40 12.5 61t44.5 38l16 -27q-23 -14 -31 -28t-8 -40h33v-89h-67zM191 560v85q0 41 12 62t44 37l16 -27q-23 -14 -31 -28t-8 -40h33v-89h-66z" />
    <glyph glyph-name="quotedblright" unicode="&#x201d;" horiz-adv-x="314" 
d="M67 557l-16 28q23 13 31 26.5t8 39.5h-33v90h67v-85q0 -41 -12 -61.5t-45 -37.5zM200 557l-15 28q22 13 30 26.5t8 39.5h-33v90h67v-85q0 -41 -12 -61.5t-45 -37.5z" />
    <glyph glyph-name="quotedblbase" unicode="&#x201e;" horiz-adv-x="314" 
d="M67 -94l-16 27q23 13 31 27.5t8 40.5h-33v90h67v-86q0 -41 -12 -61.5t-45 -37.5zM200 -94l-15 27q22 13 30 27.5t8 40.5h-33v90h67v-86q0 -41 -12 -61.5t-45 -37.5z" />
    <glyph glyph-name="dagger" unicode="&#x2020;" horiz-adv-x="416" 
d="M184 -158v655h-136v46h136v226h48v-226h136v-46h-136v-655h-48z" />
    <glyph glyph-name="daggerdbl" unicode="&#x2021;" horiz-adv-x="416" 
d="M184 -159v245h-136v45h136v370h-136v45h136v223h48v-223h136v-45h-136v-370h136v-45h-136v-245h-48z" />
    <glyph glyph-name="bullet" unicode="&#x2022;" horiz-adv-x="265" 
d="M81 238v133h103v-133h-103z" />
    <glyph glyph-name="ellipsis" unicode="&#x2026;" horiz-adv-x="515" 
d="M57 0v85h68v-85h-68zM224 0v85h67v-85h-67zM391 0v85h66v-85h-66z" />
    <glyph glyph-name="perthousand" unicode="&#x2030;" horiz-adv-x="1165" 
d="M183 291q-76 0 -110.5 52t-34.5 176q0 125 34.5 177.5t110.5 52.5q77 0 112 -52.5t35 -177.5q0 -124 -35 -176t-112 -52zM184 331q53 0 76.5 42.5t23.5 145.5t-23.5 145.5t-76.5 42.5q-54 0 -77.5 -42.5t-23.5 -145.5t23.5 -145.5t77.5 -42.5zM650 -7q-77 0 -111.5 52.5
t-34.5 176.5q0 125 34.5 177.5t111.5 52.5q76 0 111 -52.5t35 -177.5q0 -124 -35 -176.5t-111 -52.5zM650 34q53 0 76.5 42.5t23.5 144.5q0 104 -23.5 146.5t-76.5 42.5q-54 0 -77.5 -42.5t-23.5 -146.5q0 -102 23.5 -144.5t77.5 -42.5zM237 0l313 741h47l-314 -741h-46z
M982 -7q-77 0 -111.5 52.5t-34.5 176.5q0 125 34.5 177.5t111.5 52.5q76 0 111 -52.5t35 -177.5q0 -124 -35 -176.5t-111 -52.5zM982 34q53 0 76.5 42.5t23.5 144.5q0 104 -23.5 146.5t-76.5 42.5t-77 -43t-24 -146q0 -102 24 -144.5t77 -42.5z" />
    <glyph glyph-name="guilsinglleft" unicode="&#x2039;" horiz-adv-x="323" 
d="M189 0l-118 273l118 274h45l-114 -274l114 -273h-45z" />
    <glyph glyph-name="guilsinglright" unicode="&#x203a;" horiz-adv-x="323" 
d="M88 0l115 274l-115 273h46l117 -273l-117 -274h-46z" />
    <glyph glyph-name="fraction" unicode="&#x2044;" horiz-adv-x="371" 
d="M5 0l313 741h47l-313 -741h-47z" />
    <glyph glyph-name="fraction" unicode="&#x2215;" horiz-adv-x="371" 
d="M5 0l313 741h47l-313 -741h-47z" />
    <glyph glyph-name="Euro" unicode="&#x20ac;" horiz-adv-x="518" 
d="M32 427v42h88q8 147 53 213.5t155 66.5q91 0 152 -37l-23 -40q-53 30 -130 30q-84 0 -118.5 -55t-40.5 -178h236v-42h-237q-1 -18 -1 -56v-43h238v-42h-237q6 -131 40.5 -189.5t120.5 -58.5q64 0 128 35l23 -39q-74 -42 -153 -42q-110 0 -155 69.5t-52 224.5h-87v42h86
v99h-86z" />
    <glyph glyph-name="trademark" unicode="&#x2122;" horiz-adv-x="820" 
d="M368 287v454h43l127 -387l125 387h44v-454h-39v362l-117 -362h-28l-118 362v-362h-37zM170 287v417h-127v37h295v-37h-128v-417h-40z" />
    <glyph glyph-name="partialdiff" unicode="&#x2202;" horiz-adv-x="832" 
d="M126 120q-90 108 -90 251q0 142 90 250q3 -2 7 -6q-87 -106 -87 -244t88 -244zM228 211q-57 70 -57 160t56 160q2 -1 4.5 -3.5l3.5 -3.5q-54 -67 -54 -153q0 -88 54 -153q-1 -1 -2 -2.5t-2.5 -2.5t-2.5 -2zM264 243q-45 56 -45 128t45 128q1 -1 4 -3.5t4 -3.5
q-43 -53 -43 -121t43 -121q-2 -1 -4.5 -3.5zM316 289q-28 36 -28 82q0 47 28 81l7 -7q-25 -33 -25 -74t26 -75q-2 -1 -4 -3.5t-4 -3.5zM349 320q-16 22 -16 51t16 51q2 -1 4 -3.5t4 -3.5q-14 -20 -14 -44t14 -44q-3 -2 -8 -7zM378 346q-7 12 -7 25t7 25l6 -5q-5 -10 -5 -20
t5 -20q-2 -2 -6 -5zM416 60q-116 0 -201 77l7 7q84 -74 194 -74q111 0 193 74q1 -2 3.5 -4t3.5 -4q-86 -76 -200 -76zM416 324q-15 0 -27 9l6 6q10 -7 21 -7q13 0 21 7q2 -2 5 -6q-10 -9 -26 -9zM482 319q-3 4 -7 7q14 20 14 45t-14 44l7 7q17 -22 17 -51t-17 -52zM292 269
q-35 45 -35 102q0 58 36 102l7 -7q-33 -43 -33 -95t33 -95q-5 -5 -8 -7zM416 -17q-144 0 -252 97l7 8q105 -95 245 -95q139 0 244 94l2 -1l4 -4l1 -2q-107 -97 -251 -97zM416 121q-92 0 -161 61l7 8q65 -59 154 -59t153 59q1 -1 3.5 -4t3.5 -4q-67 -61 -160 -61zM416 170
q-72 0 -129 49l7 7q52 -46 122 -46t121 46l3.5 -3.5t3.5 -4.5q-54 -48 -128 -48zM416 209q-57 0 -103 38l7 8q43 -36 96 -36t96 36q2 -2 6 -8q-45 -38 -102 -38zM416 265q-37 0 -66 24l7 8q25 -22 59 -22q33 0 58 22q1 -2 3.5 -4t3.5 -4q-29 -24 -65 -24zM358 445q-3 2 -7 7
l-1 1q29 24 66 24t66 -24l-8 -8q-25 22 -58 22t-58 -22zM570 552q-65 59 -154 59q-87 0 -153 -58l-7 7q69 61 160 61q92 0 161 -61q-2 -3 -7 -8zM454 346l-6 5q5 10 5 20t-5 20l6 5q7 -12 7 -25t-7 -25zM468 333q-5 5 -8 7q10 15 10 31t-10 31l8 7q12 -16 12 -38
q0 -21 -12 -38zM498 306q-3 2 -8 7q19 25 19 58t-19 58l7 7q22 -28 22 -65q0 -34 -21 -65zM540 269q-2 1 -4 3.5t-4 3.5q33 43 33 95q0 53 -34 95l8 7q36 -44 36 -102q0 -57 -35 -102zM568 243q-5 5 -8 7q43 53 43 121t-43 121l8 7q45 -56 45 -128t-45 -128zM604 211
q-3 2 -8 7q55 66 55 153q0 89 -55 153l8 7q57 -68 57 -160t-57 -160zM649 171q-1 1 -3.5 3t-3.5 3q69 85 69 194q0 110 -70 193l8 7q72 -86 72 -200t-72 -200zM706 120q-3 3 -8 7q88 106 88 244t-88 244l8 7q90 -108 90 -251q0 -142 -90 -251zM183 170q-72 88 -72 201
t71 200q1 -1 3.5 -3t4.5 -4q-69 -83 -69 -193q0 -111 69 -194zM334 306q-21 29 -21 65t21 65q3 -2 8 -7q-19 -25 -19 -58q0 -32 19 -57zM364 333q-12 17 -12 38t12 38q1 -1 2 -2.5t2.5 -2.5t2.5 -2q-9 -16 -9 -31t9 -31zM395 403l-5 6q10 9 26 9t26 -9l-5 -6q-11 7 -21 7
q-13 0 -21 -7zM384 416l-7 7q17 14 39 14q21 0 38 -14q-4 -4 -6 -7q-14 12 -32 12q-17 0 -32 -12zM371 430l-7 8q22 19 52 19t52 -19l-7 -8q-19 17 -45 17t-45 -17zM295 516l-7 8q54 48 128 48t128 -49l-2 -1l-2 -4l-2 -2q-52 46 -122 46t-121 -46zM416 240q-48 0 -83 30
l7 8q35 -28 76 -28q42 0 75 28l7 -7q-36 -31 -82 -31zM416 285q-29 0 -53 19l7 8q22 -17 46 -17q25 0 45 17l7 -8q-22 -19 -52 -19zM416 305q-21 0 -40 14l7 7q17 -12 33 -12q17 0 32 12l7 -7q-17 -14 -39 -14zM341 464l-7 7q36 31 82 31q47 0 82 -30l-7 -8q-33 28 -75 28
t-75 -28zM320 487l-7 8q44 38 103 38q58 0 102 -39l-6 -7q-41 36 -96 36q-53 0 -96 -36zM610 597q-81 75 -194 75q-110 0 -194 -74l-7 7q87 77 201 77t201 -77zM172 654l-7 8q107 97 251 97t252 -97l-7 -8q-105 95 -245 95q-139 0 -244 -95zM516 290l-7 7q25 33 25 74
t-26 75l8 7q28 -36 28 -82q0 -47 -28 -81z" />
    <glyph glyph-name="product" unicode="&#x220f;" horiz-adv-x="832" 
d="M126 120q-90 108 -90 251q0 142 90 250q3 -2 7 -6q-87 -106 -87 -244t88 -244zM228 211q-57 70 -57 160t56 160q2 -1 4.5 -3.5l3.5 -3.5q-54 -67 -54 -153q0 -88 54 -153q-1 -1 -2 -2.5t-2.5 -2.5t-2.5 -2zM264 243q-45 56 -45 128t45 128q1 -1 4 -3.5t4 -3.5
q-43 -53 -43 -121t43 -121q-2 -1 -4.5 -3.5zM316 289q-28 36 -28 82q0 47 28 81l7 -7q-25 -33 -25 -74t26 -75q-2 -1 -4 -3.5t-4 -3.5zM349 320q-16 22 -16 51t16 51q2 -1 4 -3.5t4 -3.5q-14 -20 -14 -44t14 -44q-3 -2 -8 -7zM378 346q-7 12 -7 25t7 25l6 -5q-5 -10 -5 -20
t5 -20q-2 -2 -6 -5zM416 60q-116 0 -201 77l7 7q84 -74 194 -74q111 0 193 74q1 -2 3.5 -4t3.5 -4q-86 -76 -200 -76zM416 324q-15 0 -27 9l6 6q10 -7 21 -7q13 0 21 7q2 -2 5 -6q-10 -9 -26 -9zM482 319q-3 4 -7 7q14 20 14 45t-14 44l7 7q17 -22 17 -51t-17 -52zM292 269
q-35 45 -35 102q0 58 36 102l7 -7q-33 -43 -33 -95t33 -95q-5 -5 -8 -7zM416 -17q-144 0 -252 97l7 8q105 -95 245 -95q139 0 244 94l2 -1l4 -4l1 -2q-107 -97 -251 -97zM416 121q-92 0 -161 61l7 8q65 -59 154 -59t153 59q1 -1 3.5 -4t3.5 -4q-67 -61 -160 -61zM416 170
q-72 0 -129 49l7 7q52 -46 122 -46t121 46l3.5 -3.5t3.5 -4.5q-54 -48 -128 -48zM416 209q-57 0 -103 38l7 8q43 -36 96 -36t96 36q2 -2 6 -8q-45 -38 -102 -38zM416 265q-37 0 -66 24l7 8q25 -22 59 -22q33 0 58 22q1 -2 3.5 -4t3.5 -4q-29 -24 -65 -24zM358 445q-3 2 -7 7
l-1 1q29 24 66 24t66 -24l-8 -8q-25 22 -58 22t-58 -22zM570 552q-65 59 -154 59q-87 0 -153 -58l-7 7q69 61 160 61q92 0 161 -61q-2 -3 -7 -8zM454 346l-6 5q5 10 5 20t-5 20l6 5q7 -12 7 -25t-7 -25zM468 333q-5 5 -8 7q10 15 10 31t-10 31l8 7q12 -16 12 -38
q0 -21 -12 -38zM498 306q-3 2 -8 7q19 25 19 58t-19 58l7 7q22 -28 22 -65q0 -34 -21 -65zM540 269q-2 1 -4 3.5t-4 3.5q33 43 33 95q0 53 -34 95l8 7q36 -44 36 -102q0 -57 -35 -102zM568 243q-5 5 -8 7q43 53 43 121t-43 121l8 7q45 -56 45 -128t-45 -128zM604 211
q-3 2 -8 7q55 66 55 153q0 89 -55 153l8 7q57 -68 57 -160t-57 -160zM649 171q-1 1 -3.5 3t-3.5 3q69 85 69 194q0 110 -70 193l8 7q72 -86 72 -200t-72 -200zM706 120q-3 3 -8 7q88 106 88 244t-88 244l8 7q90 -108 90 -251q0 -142 -90 -251zM183 170q-72 88 -72 201
t71 200q1 -1 3.5 -3t4.5 -4q-69 -83 -69 -193q0 -111 69 -194zM334 306q-21 29 -21 65t21 65q3 -2 8 -7q-19 -25 -19 -58q0 -32 19 -57zM364 333q-12 17 -12 38t12 38q1 -1 2 -2.5t2.5 -2.5t2.5 -2q-9 -16 -9 -31t9 -31zM395 403l-5 6q10 9 26 9t26 -9l-5 -6q-11 7 -21 7
q-13 0 -21 -7zM384 416l-7 7q17 14 39 14q21 0 38 -14q-4 -4 -6 -7q-14 12 -32 12q-17 0 -32 -12zM371 430l-7 8q22 19 52 19t52 -19l-7 -8q-19 17 -45 17t-45 -17zM295 516l-7 8q54 48 128 48t128 -49l-2 -1l-2 -4l-2 -2q-52 46 -122 46t-121 -46zM416 240q-48 0 -83 30
l7 8q35 -28 76 -28q42 0 75 28l7 -7q-36 -31 -82 -31zM416 285q-29 0 -53 19l7 8q22 -17 46 -17q25 0 45 17l7 -8q-22 -19 -52 -19zM416 305q-21 0 -40 14l7 7q17 -12 33 -12q17 0 32 12l7 -7q-17 -14 -39 -14zM341 464l-7 7q36 31 82 31q47 0 82 -30l-7 -8q-33 28 -75 28
t-75 -28zM320 487l-7 8q44 38 103 38q58 0 102 -39l-6 -7q-41 36 -96 36q-53 0 -96 -36zM610 597q-81 75 -194 75q-110 0 -194 -74l-7 7q87 77 201 77t201 -77zM172 654l-7 8q107 97 251 97t252 -97l-7 -8q-105 95 -245 95q-139 0 -244 -95zM516 290l-7 7q25 33 25 74
t-26 75l8 7q28 -36 28 -82q0 -47 -28 -81z" />
    <glyph glyph-name="summation" unicode="&#x2211;" horiz-adv-x="832" 
d="M126 120q-90 108 -90 251q0 142 90 250q3 -2 7 -6q-87 -106 -87 -244t88 -244zM228 211q-57 70 -57 160t56 160q2 -1 4.5 -3.5l3.5 -3.5q-54 -67 -54 -153q0 -88 54 -153q-1 -1 -2 -2.5t-2.5 -2.5t-2.5 -2zM264 243q-45 56 -45 128t45 128q1 -1 4 -3.5t4 -3.5
q-43 -53 -43 -121t43 -121q-2 -1 -4.5 -3.5zM316 289q-28 36 -28 82q0 47 28 81l7 -7q-25 -33 -25 -74t26 -75q-2 -1 -4 -3.5t-4 -3.5zM349 320q-16 22 -16 51t16 51q2 -1 4 -3.5t4 -3.5q-14 -20 -14 -44t14 -44q-3 -2 -8 -7zM378 346q-7 12 -7 25t7 25l6 -5q-5 -10 -5 -20
t5 -20q-2 -2 -6 -5zM416 60q-116 0 -201 77l7 7q84 -74 194 -74q111 0 193 74q1 -2 3.5 -4t3.5 -4q-86 -76 -200 -76zM416 324q-15 0 -27 9l6 6q10 -7 21 -7q13 0 21 7q2 -2 5 -6q-10 -9 -26 -9zM482 319q-3 4 -7 7q14 20 14 45t-14 44l7 7q17 -22 17 -51t-17 -52zM292 269
q-35 45 -35 102q0 58 36 102l7 -7q-33 -43 -33 -95t33 -95q-5 -5 -8 -7zM416 -17q-144 0 -252 97l7 8q105 -95 245 -95q139 0 244 94l2 -1l4 -4l1 -2q-107 -97 -251 -97zM416 121q-92 0 -161 61l7 8q65 -59 154 -59t153 59q1 -1 3.5 -4t3.5 -4q-67 -61 -160 -61zM416 170
q-72 0 -129 49l7 7q52 -46 122 -46t121 46l3.5 -3.5t3.5 -4.5q-54 -48 -128 -48zM416 209q-57 0 -103 38l7 8q43 -36 96 -36t96 36q2 -2 6 -8q-45 -38 -102 -38zM416 265q-37 0 -66 24l7 8q25 -22 59 -22q33 0 58 22q1 -2 3.5 -4t3.5 -4q-29 -24 -65 -24zM358 445q-3 2 -7 7
l-1 1q29 24 66 24t66 -24l-8 -8q-25 22 -58 22t-58 -22zM570 552q-65 59 -154 59q-87 0 -153 -58l-7 7q69 61 160 61q92 0 161 -61q-2 -3 -7 -8zM454 346l-6 5q5 10 5 20t-5 20l6 5q7 -12 7 -25t-7 -25zM468 333q-5 5 -8 7q10 15 10 31t-10 31l8 7q12 -16 12 -38
q0 -21 -12 -38zM498 306q-3 2 -8 7q19 25 19 58t-19 58l7 7q22 -28 22 -65q0 -34 -21 -65zM540 269q-2 1 -4 3.5t-4 3.5q33 43 33 95q0 53 -34 95l8 7q36 -44 36 -102q0 -57 -35 -102zM568 243q-5 5 -8 7q43 53 43 121t-43 121l8 7q45 -56 45 -128t-45 -128zM604 211
q-3 2 -8 7q55 66 55 153q0 89 -55 153l8 7q57 -68 57 -160t-57 -160zM649 171q-1 1 -3.5 3t-3.5 3q69 85 69 194q0 110 -70 193l8 7q72 -86 72 -200t-72 -200zM706 120q-3 3 -8 7q88 106 88 244t-88 244l8 7q90 -108 90 -251q0 -142 -90 -251zM183 170q-72 88 -72 201
t71 200q1 -1 3.5 -3t4.5 -4q-69 -83 -69 -193q0 -111 69 -194zM334 306q-21 29 -21 65t21 65q3 -2 8 -7q-19 -25 -19 -58q0 -32 19 -57zM364 333q-12 17 -12 38t12 38q1 -1 2 -2.5t2.5 -2.5t2.5 -2q-9 -16 -9 -31t9 -31zM395 403l-5 6q10 9 26 9t26 -9l-5 -6q-11 7 -21 7
q-13 0 -21 -7zM384 416l-7 7q17 14 39 14q21 0 38 -14q-4 -4 -6 -7q-14 12 -32 12q-17 0 -32 -12zM371 430l-7 8q22 19 52 19t52 -19l-7 -8q-19 17 -45 17t-45 -17zM295 516l-7 8q54 48 128 48t128 -49l-2 -1l-2 -4l-2 -2q-52 46 -122 46t-121 -46zM416 240q-48 0 -83 30
l7 8q35 -28 76 -28q42 0 75 28l7 -7q-36 -31 -82 -31zM416 285q-29 0 -53 19l7 8q22 -17 46 -17q25 0 45 17l7 -8q-22 -19 -52 -19zM416 305q-21 0 -40 14l7 7q17 -12 33 -12q17 0 32 12l7 -7q-17 -14 -39 -14zM341 464l-7 7q36 31 82 31q47 0 82 -30l-7 -8q-33 28 -75 28
t-75 -28zM320 487l-7 8q44 38 103 38q58 0 102 -39l-6 -7q-41 36 -96 36q-53 0 -96 -36zM610 597q-81 75 -194 75q-110 0 -194 -74l-7 7q87 77 201 77t201 -77zM172 654l-7 8q107 97 251 97t252 -97l-7 -8q-105 95 -245 95q-139 0 -244 -95zM516 290l-7 7q25 33 25 74
t-26 75l8 7q28 -36 28 -82q0 -47 -28 -81z" />
    <glyph glyph-name="minus" unicode="&#x2212;" horiz-adv-x="534" 
d="M87 329v45h361v-45h-361z" />
    <glyph glyph-name="radical" unicode="&#x221a;" horiz-adv-x="504" 
d="M177 -4l-121 401h50l98 -327l201 671h47l-224 -745h-51z" />
    <glyph glyph-name="infinity" unicode="&#x221e;" horiz-adv-x="715" 
d="M353 0v503h-198v-503h-49v503h-82v44h82v84q0 139 127 139h43v-45h-40q-47 0 -64 -25t-17 -72v-81h198v84q0 66 29 102.5t99 36.5h43v-45h-41q-47 0 -64 -25t-17 -72v-81h122v-44h-122v-503h-49zM600 0v547h49v-547h-49zM600 627v93h49v-93h-49z" />
    <glyph glyph-name="integral" unicode="&#x222b;" horiz-adv-x="832" 
d="M126 120q-90 108 -90 251q0 142 90 250q3 -2 7 -6q-87 -106 -87 -244t88 -244zM228 211q-57 70 -57 160t56 160q2 -1 4.5 -3.5l3.5 -3.5q-54 -67 -54 -153q0 -88 54 -153q-1 -1 -2 -2.5t-2.5 -2.5t-2.5 -2zM264 243q-45 56 -45 128t45 128q1 -1 4 -3.5t4 -3.5
q-43 -53 -43 -121t43 -121q-2 -1 -4.5 -3.5zM316 289q-28 36 -28 82q0 47 28 81l7 -7q-25 -33 -25 -74t26 -75q-2 -1 -4 -3.5t-4 -3.5zM349 320q-16 22 -16 51t16 51q2 -1 4 -3.5t4 -3.5q-14 -20 -14 -44t14 -44q-3 -2 -8 -7zM378 346q-7 12 -7 25t7 25l6 -5q-5 -10 -5 -20
t5 -20q-2 -2 -6 -5zM416 60q-116 0 -201 77l7 7q84 -74 194 -74q111 0 193 74q1 -2 3.5 -4t3.5 -4q-86 -76 -200 -76zM416 324q-15 0 -27 9l6 6q10 -7 21 -7q13 0 21 7q2 -2 5 -6q-10 -9 -26 -9zM482 319q-3 4 -7 7q14 20 14 45t-14 44l7 7q17 -22 17 -51t-17 -52zM292 269
q-35 45 -35 102q0 58 36 102l7 -7q-33 -43 -33 -95t33 -95q-5 -5 -8 -7zM416 -17q-144 0 -252 97l7 8q105 -95 245 -95q139 0 244 94l2 -1l4 -4l1 -2q-107 -97 -251 -97zM416 121q-92 0 -161 61l7 8q65 -59 154 -59t153 59q1 -1 3.5 -4t3.5 -4q-67 -61 -160 -61zM416 170
q-72 0 -129 49l7 7q52 -46 122 -46t121 46l3.5 -3.5t3.5 -4.5q-54 -48 -128 -48zM416 209q-57 0 -103 38l7 8q43 -36 96 -36t96 36q2 -2 6 -8q-45 -38 -102 -38zM416 265q-37 0 -66 24l7 8q25 -22 59 -22q33 0 58 22q1 -2 3.5 -4t3.5 -4q-29 -24 -65 -24zM358 445q-3 2 -7 7
l-1 1q29 24 66 24t66 -24l-8 -8q-25 22 -58 22t-58 -22zM570 552q-65 59 -154 59q-87 0 -153 -58l-7 7q69 61 160 61q92 0 161 -61q-2 -3 -7 -8zM454 346l-6 5q5 10 5 20t-5 20l6 5q7 -12 7 -25t-7 -25zM468 333q-5 5 -8 7q10 15 10 31t-10 31l8 7q12 -16 12 -38
q0 -21 -12 -38zM498 306q-3 2 -8 7q19 25 19 58t-19 58l7 7q22 -28 22 -65q0 -34 -21 -65zM540 269q-2 1 -4 3.5t-4 3.5q33 43 33 95q0 53 -34 95l8 7q36 -44 36 -102q0 -57 -35 -102zM568 243q-5 5 -8 7q43 53 43 121t-43 121l8 7q45 -56 45 -128t-45 -128zM604 211
q-3 2 -8 7q55 66 55 153q0 89 -55 153l8 7q57 -68 57 -160t-57 -160zM649 171q-1 1 -3.5 3t-3.5 3q69 85 69 194q0 110 -70 193l8 7q72 -86 72 -200t-72 -200zM706 120q-3 3 -8 7q88 106 88 244t-88 244l8 7q90 -108 90 -251q0 -142 -90 -251zM183 170q-72 88 -72 201
t71 200q1 -1 3.5 -3t4.5 -4q-69 -83 -69 -193q0 -111 69 -194zM334 306q-21 29 -21 65t21 65q3 -2 8 -7q-19 -25 -19 -58q0 -32 19 -57zM364 333q-12 17 -12 38t12 38q1 -1 2 -2.5t2.5 -2.5t2.5 -2q-9 -16 -9 -31t9 -31zM395 403l-5 6q10 9 26 9t26 -9l-5 -6q-11 7 -21 7
q-13 0 -21 -7zM384 416l-7 7q17 14 39 14q21 0 38 -14q-4 -4 -6 -7q-14 12 -32 12q-17 0 -32 -12zM371 430l-7 8q22 19 52 19t52 -19l-7 -8q-19 17 -45 17t-45 -17zM295 516l-7 8q54 48 128 48t128 -49l-2 -1l-2 -4l-2 -2q-52 46 -122 46t-121 -46zM416 240q-48 0 -83 30
l7 8q35 -28 76 -28q42 0 75 28l7 -7q-36 -31 -82 -31zM416 285q-29 0 -53 19l7 8q22 -17 46 -17q25 0 45 17l7 -8q-22 -19 -52 -19zM416 305q-21 0 -40 14l7 7q17 -12 33 -12q17 0 32 12l7 -7q-17 -14 -39 -14zM341 464l-7 7q36 31 82 31q47 0 82 -30l-7 -8q-33 28 -75 28
t-75 -28zM320 487l-7 8q44 38 103 38q58 0 102 -39l-6 -7q-41 36 -96 36q-53 0 -96 -36zM610 597q-81 75 -194 75q-110 0 -194 -74l-7 7q87 77 201 77t201 -77zM172 654l-7 8q107 97 251 97t252 -97l-7 -8q-105 95 -245 95q-139 0 -244 -95zM516 290l-7 7q25 33 25 74
t-26 75l8 7q28 -36 28 -82q0 -47 -28 -81z" />
    <glyph glyph-name="approxequal" unicode="&#x2248;" horiz-adv-x="535" 
d="M120 395l-37 19q30 64 93 64q33 0 91.5 -20t87.5 -20q22 0 35 11t26 33l35 -19q-30 -66 -93 -66q-32 0 -91.5 19t-87.5 19q-37 0 -59 -40zM120 220l-37 18q30 64 93 64q33 0 91.5 -20t87.5 -20q22 0 35 11t26 33l35 -19q-30 -66 -93 -66q-32 0 -91.5 19t-87.5 19
q-38 0 -59 -39z" />
    <glyph glyph-name="notequal" unicode="&#x2260;" horiz-adv-x="542" 
d="M353 0v503h-198v-503h-49v503h-82v44h82v84q0 139 127 139h43v-45h-40q-47 0 -64 -25t-17 -72v-81h198v84q0 66 29 102.5t99 36.5q45 0 49 -1v-44h-47q-47 0 -64 -25t-17 -72v-81h128v-44h-128v-503h-49z" />
    <glyph glyph-name="lessequal" unicode="&#x2264;" horiz-adv-x="534" 
d="M421 131l-341 197v39l341 197v-48l-294 -168l294 -167v-50zM80 20v44h341v-44h-341z" />
    <glyph glyph-name="greaterequal" unicode="&#x2265;" horiz-adv-x="534" 
d="M113 131v50l294 167l-294 168v48l341 -197v-39zM113 20v44h341v-44h-341z" />
    <glyph glyph-name="lozenge" unicode="&#x25ca;" horiz-adv-x="605" 
d="M24 503v44h82v84q0 139 127 139h43v-45h-40q-47 0 -64 -25t-17 -72v-81h229l8 162l40 8v-170h133v-44h-133v-372q0 -46 14 -66t59 -20h60v-45q-6 -1 -63 -1q-72 0 -95.5 29.5t-23.5 99.5v375h-228v-503h-49v503h-82z" />
    <glyph glyph-name="apple" unicode="&#xf8ff;" horiz-adv-x="832" 
d="M126 120q-90 108 -90 251q0 142 90 250q3 -2 7 -6q-87 -106 -87 -244t88 -244zM228 211q-57 70 -57 160t56 160q2 -1 4.5 -3.5l3.5 -3.5q-54 -67 -54 -153q0 -88 54 -153q-1 -1 -2 -2.5t-2.5 -2.5t-2.5 -2zM264 243q-45 56 -45 128t45 128q1 -1 4 -3.5t4 -3.5
q-43 -53 -43 -121t43 -121q-2 -1 -4.5 -3.5zM316 289q-28 36 -28 82q0 47 28 81l7 -7q-25 -33 -25 -74t26 -75q-2 -1 -4 -3.5t-4 -3.5zM349 320q-16 22 -16 51t16 51q2 -1 4 -3.5t4 -3.5q-14 -20 -14 -44t14 -44q-3 -2 -8 -7zM378 346q-7 12 -7 25t7 25l6 -5q-5 -10 -5 -20
t5 -20q-2 -2 -6 -5zM416 60q-116 0 -201 77l7 7q84 -74 194 -74q111 0 193 74q1 -2 3.5 -4t3.5 -4q-86 -76 -200 -76zM416 324q-15 0 -27 9l6 6q10 -7 21 -7q13 0 21 7q2 -2 5 -6q-10 -9 -26 -9zM482 319q-3 4 -7 7q14 20 14 45t-14 44l7 7q17 -22 17 -51t-17 -52zM292 269
q-35 45 -35 102q0 58 36 102l7 -7q-33 -43 -33 -95t33 -95q-5 -5 -8 -7zM416 -17q-144 0 -252 97l7 8q105 -95 245 -95q139 0 244 94l2 -1l4 -4l1 -2q-107 -97 -251 -97zM416 121q-92 0 -161 61l7 8q65 -59 154 -59t153 59q1 -1 3.5 -4t3.5 -4q-67 -61 -160 -61zM416 170
q-72 0 -129 49l7 7q52 -46 122 -46t121 46l3.5 -3.5t3.5 -4.5q-54 -48 -128 -48zM416 209q-57 0 -103 38l7 8q43 -36 96 -36t96 36q2 -2 6 -8q-45 -38 -102 -38zM416 265q-37 0 -66 24l7 8q25 -22 59 -22q33 0 58 22q1 -2 3.5 -4t3.5 -4q-29 -24 -65 -24zM358 445q-3 2 -7 7
l-1 1q29 24 66 24t66 -24l-8 -8q-25 22 -58 22t-58 -22zM570 552q-65 59 -154 59q-87 0 -153 -58l-7 7q69 61 160 61q92 0 161 -61q-2 -3 -7 -8zM454 346l-6 5q5 10 5 20t-5 20l6 5q7 -12 7 -25t-7 -25zM468 333q-5 5 -8 7q10 15 10 31t-10 31l8 7q12 -16 12 -38
q0 -21 -12 -38zM498 306q-3 2 -8 7q19 25 19 58t-19 58l7 7q22 -28 22 -65q0 -34 -21 -65zM540 269q-2 1 -4 3.5t-4 3.5q33 43 33 95q0 53 -34 95l8 7q36 -44 36 -102q0 -57 -35 -102zM568 243q-5 5 -8 7q43 53 43 121t-43 121l8 7q45 -56 45 -128t-45 -128zM604 211
q-3 2 -8 7q55 66 55 153q0 89 -55 153l8 7q57 -68 57 -160t-57 -160zM649 171q-1 1 -3.5 3t-3.5 3q69 85 69 194q0 110 -70 193l8 7q72 -86 72 -200t-72 -200zM706 120q-3 3 -8 7q88 106 88 244t-88 244l8 7q90 -108 90 -251q0 -142 -90 -251zM183 170q-72 88 -72 201
t71 200q1 -1 3.5 -3t4.5 -4q-69 -83 -69 -193q0 -111 69 -194zM334 306q-21 29 -21 65t21 65q3 -2 8 -7q-19 -25 -19 -58q0 -32 19 -57zM364 333q-12 17 -12 38t12 38q1 -1 2 -2.5t2.5 -2.5t2.5 -2q-9 -16 -9 -31t9 -31zM395 403l-5 6q10 9 26 9t26 -9l-5 -6q-11 7 -21 7
q-13 0 -21 -7zM384 416l-7 7q17 14 39 14q21 0 38 -14q-4 -4 -6 -7q-14 12 -32 12q-17 0 -32 -12zM371 430l-7 8q22 19 52 19t52 -19l-7 -8q-19 17 -45 17t-45 -17zM295 516l-7 8q54 48 128 48t128 -49l-2 -1l-2 -4l-2 -2q-52 46 -122 46t-121 -46zM416 240q-48 0 -83 30
l7 8q35 -28 76 -28q42 0 75 28l7 -7q-36 -31 -82 -31zM416 285q-29 0 -53 19l7 8q22 -17 46 -17q25 0 45 17l7 -8q-22 -19 -52 -19zM416 305q-21 0 -40 14l7 7q17 -12 33 -12q17 0 32 12l7 -7q-17 -14 -39 -14zM341 464l-7 7q36 31 82 31q47 0 82 -30l-7 -8q-33 28 -75 28
t-75 -28zM320 487l-7 8q44 38 103 38q58 0 102 -39l-6 -7q-41 36 -96 36q-53 0 -96 -36zM610 597q-81 75 -194 75q-110 0 -194 -74l-7 7q87 77 201 77t201 -77zM172 654l-7 8q107 97 251 97t252 -97l-7 -8q-105 95 -245 95q-139 0 -244 -95zM516 290l-7 7q25 33 25 74
t-26 75l8 7q28 -36 28 -82q0 -47 -28 -81z" />
    </font>
</defs>
</svg>
