<?xml version="1.0" standalone="no"?>
<!DOCTYPE svg PUBLIC "-//W3C//DTD SVG 1.1//EN" "http://www.w3.org/Graphics/SVG/1.1/DTD/svg11.dtd" >
<svg xmlns="http://www.w3.org/2000/svg" width="100%" height="100%">
<metadata>
Created by FontXChange 20110222 at Fri Feb  1 13:34:15 2013
 By Chris Freitag
Copyright (c) The Font Bureau, Inc., 2006. All rights reserved.
</metadata>
<defs>
<font id="Antenna-BoldItalic" horiz-adv-x="750" >
  <font-face 
    font-family="Antenna"
    font-weight="700"
    font-style="italic"
    font-stretch="normal"
    units-per-em="1000"
    panose-1="2 0 5 3 0 0 0 2 0 4"
    ascent="800"
    descent="-200"
    x-height="566"
    cap-height="741"
    bbox="-148 -330 1662 1062"
    underline-thickness="50"
    underline-position="-50"
    slope="12"
    unicode-range="U+0020-FB02"
  />
<missing-glyph horiz-adv-x="500" 
d="M0 0v700h500v-700h-500zM50 650v-600h400v600h-400z" />
    <glyph glyph-name="fi" unicode="fi" horiz-adv-x="700" 
d="M38 432l29 134h106l10 46c28 129 86 182 244 182c31 0 52 -1 66 -2l-27 -128h-36c-66 0 -84 -23 -93 -68l-7 -30h115l-28 -134h-115l-127 -597h-157l127 597h-107zM397 0l120 566h157l-121 -566h-156zM528 618l30 143h158l-30 -143h-158z" />
    <glyph glyph-name="fl" unicode="fl" horiz-adv-x="748" 
d="M38 432l29 134h106l10 46c28 129 86 182 244 182c27 0 48 -1 66 -2l-27 -128h-36c-66 0 -84 -23 -93 -68l-7 -30h115l-28 -134h-115l-127 -597h-157l127 597h-107zM554 -2c-113 0 -146 56 -117 192l125 586h156l-124 -586c-10 -46 -4 -59 42 -59h20l-28 -129
c-13 -2 -44 -4 -74 -4z" />
    <glyph glyph-name="f_f_i" unicode="ffi" horiz-adv-x="1043" 
d="M361 -165l127 597h-186l-127 -597h-157l127 597h-107l29 134h106l10 46c28 129 86 182 244 182c47 0 48 -1 66 -2l-27 -128h-36c-66 0 -84 -23 -93 -68l-7 -30h186l10 46c28 129 86 182 244 182c27 0 48 -1 66 -2l-28 -128h-35c-66 0 -84 -23 -94 -68l-7 -30h116
l-29 -134h-115l-126 -597h-157zM739 0l121 566h156l-120 -566h-157zM870 618l30 143h159l-31 -143h-158z" />
    <glyph glyph-name="f_f_l" unicode="ffl" horiz-adv-x="1091" 
d="M361 -165l127 597h-186l-127 -597h-157l127 597h-107l29 134h106l10 46c28 129 86 182 244 182c47 0 48 -1 66 -2l-27 -128h-36c-66 0 -84 -23 -93 -68l-7 -30h186l10 46c28 129 86 182 244 182c17 0 48 -1 66 -2l-28 -128h-35c-66 0 -84 -23 -94 -68l-7 -30h116
l-29 -134h-115l-126 -597h-157zM897 -2c-113 0 -146 56 -118 192l125 586h157l-125 -586c-9 -46 -4 -59 43 -59h19l-28 -129c-12 -2 -44 -4 -73 -4z" />
    <glyph glyph-name="f_j" unicode="fj" horiz-adv-x="700" 
d="M38 432l29 134h106l10 46c28 129 86 182 244 182c27 0 48 -1 66 -2l-27 -128h-36c-66 0 -84 -23 -93 -68l-7 -30h115l-28 -134h-115l-127 -597h-157l127 597h-107zM297 -169l25 119h12c48 0 55 14 68 73l115 543h157l-119 -559c-32 -153 -77 -176 -198 -176h-60zM528 618
l30 143h158l-30 -143h-158z" />
    <glyph glyph-name="f_t" unicode="ft" horiz-adv-x="791" 
d="M38 432l29 134h106l10 46c28 129 86 182 244 182c29 0 54 -1 71 -2l-27 -128h-41c-66 0 -84 -23 -93 -68l-7 -30h180l56 138l127 25l-35 -163h130l-29 -134h-129l-49 -233c-10 -44 -9 -68 58 -68h56l-28 -131c-22 -2 -59 -2 -87 -2c-160 0 -184 69 -157 195l51 239h-172
l-127 -597h-157l127 597h-107z" />
    <glyph glyph-name=".notdef" horiz-adv-x="500" 
d="M0 0v700h500v-700h-500zM50 650v-600h400v600h-400z" />
    <glyph glyph-name="space" unicode=" " horiz-adv-x="215" 
 />
    <glyph glyph-name="Eth" unicode="&#xd0;" horiz-adv-x="773" 
d="M-13 310l28 129h73l65 302h189c291 0 408 -78 408 -266c0 -44 -5 -92 -17 -147c-62 -289 -204 -328 -420 -328h-318l66 310h-74zM189 143h127c162 0 216 38 252 205c8 39 13 73 13 103c0 97 -56 143 -240 143h-56l-33 -155h138l-28 -129h-138z" />
    <glyph glyph-name="eth" unicode="&#xf0;" horiz-adv-x="643" 
d="M313 562l23 111l55 11c-11 20 -24 41 -39 64l162 49c17 -23 32 -50 45 -80l151 30l-23 -112l-96 -19c13 -53 20 -112 20 -173c0 -71 -8 -139 -24 -204c-49 -190 -141 -250 -306 -250c-203 0 -276 93 -276 224c0 35 4 69 11 101c33 147 112 233 268 233
c89 0 129 -14 160 -45c-1 29 -4 56 -12 83zM281 123c91 0 126 42 146 129c5 22 8 42 8 60c0 57 -28 97 -114 97c-92 0 -127 -44 -147 -130c-5 -22 -8 -43 -8 -62c0 -55 29 -94 115 -94z" />
    <glyph glyph-name="Lslash" unicode="&#x141;" horiz-adv-x="612" 
d="M-23 258l28 133l83 40l66 310h164l-47 -219l153 75l-29 -133l-152 -75l-53 -247h359l-30 -142h-523l63 299z" />
    <glyph glyph-name="lslash" unicode="&#x142;" horiz-adv-x="405" 
d="M14 322l29 133l97 50l58 271h157l-39 -181l103 53l-29 -132l-102 -53l-58 -273c-10 -46 -4 -59 43 -59h19l-28 -129c-12 -2 -44 -4 -73 -4c-113 0 -146 56 -118 192l39 182z" />
    <glyph glyph-name="Scaron" unicode="&#x160;" horiz-adv-x="721" 
d="M365 781l-113 183h144l70 -86l106 86h147l-191 -183h-163zM332 -11c-178 0 -297 52 -373 110l105 115c67 -53 161 -89 276 -89c92 0 146 17 146 84c0 60 -47 67 -161 98c-136 37 -236 70 -236 208c0 184 137 238 297 238c180 0 274 -51 323 -88l-108 -122
c-40 32 -116 67 -221 67c-82 0 -124 -18 -124 -81c0 -51 55 -66 143 -87c136 -32 255 -67 255 -200c0 -182 -124 -253 -322 -253z" />
    <glyph glyph-name="scaron" unicode="&#x161;" horiz-adv-x="553" 
d="M249 620l-113 183h144l70 -86l106 86h147l-191 -183h-163zM232 -9c-115 0 -215 37 -277 90l95 107c50 -38 131 -70 198 -70c53 0 82 4 82 48c0 34 -50 44 -106 58c-80 19 -178 46 -178 153c0 149 103 202 253 202c107 0 191 -32 242 -67l-97 -117c-35 21 -86 47 -160 47
c-55 0 -76 -9 -76 -44c0 -32 39 -42 101 -57c88 -23 179 -49 179 -157c0 -148 -103 -193 -256 -193z" />
    <glyph glyph-name="Yacute" unicode="&#xdd;" horiz-adv-x="740" 
d="M208 0l57 269l-179 472h171l119 -322l254 322h180l-382 -475l-56 -266h-164zM351 781l180 183h194l-230 -183h-144z" />
    <glyph glyph-name="yacute" unicode="&#xfd;" horiz-adv-x="564" 
d="M40 -170c-32 0 -59 1 -76 2l25 118h42c63 0 69 8 87 42l14 27l-87 547h165l44 -342l187 342h162l-349 -602c-61 -105 -97 -134 -214 -134zM231 620l180 183h194l-230 -183h-144z" />
    <glyph glyph-name="Thorn" unicode="&#xde;" horiz-adv-x="740" 
d="M-5 0l159 741h159l-21 -99h141c223 0 289 -87 289 -194c0 -181 -85 -315 -313 -315h-225l-29 -133h-160zM212 268h193c93 0 146 42 146 146c0 58 -37 88 -140 88h-149z" />
    <glyph glyph-name="thorn" unicode="&#xfe;" horiz-adv-x="661" 
d="M-51 -165l200 941h156l-52 -244c22 22 64 47 159 47c160 0 210 -91 210 -206c0 -36 -5 -76 -14 -116c-34 -161 -104 -266 -275 -266c-120 0 -162 23 -183 57l-44 -213h-157zM310 124c89 0 118 54 139 145c5 26 9 50 9 72c0 56 -25 95 -107 95c-86 0 -127 -33 -150 -142
c-6 -26 -9 -50 -9 -72c0 -63 32 -98 118 -98z" />
    <glyph glyph-name="Zcaron" unicode="&#x17d;" horiz-adv-x="672" 
d="M341 781l-113 183h144l70 -86l106 86h147l-191 -183h-163zM-47 0l27 122l479 471h-362l31 148h578l-28 -134l-473 -465h384l-30 -142h-606z" />
    <glyph glyph-name="zcaron" unicode="&#x17e;" horiz-adv-x="520" 
d="M233 620l-113 183h144l70 -86l106 86h147l-191 -183h-163zM-59 0l23 105l330 327h-244l28 134h456l-23 -107l-332 -333h273l-27 -126h-484z" />
    <glyph glyph-name="onehalf" unicode="&#xbd;" horiz-adv-x="1094" 
d="M97 255l81 381h-83l22 105h211l-104 -486h-127zM125 0l572 741h137l-571 -741h-138zM581 0l17 85l186 135c100 74 115 87 115 133c0 27 -24 39 -75 39c-32 0 -85 -9 -119 -22l-35 93c46 19 104 32 165 32c123 0 192 -44 192 -119c0 -98 -40 -135 -139 -206l-97 -73h179
l-19 -97h-370z" />
    <glyph glyph-name="onequarter" unicode="&#xbc;" horiz-adv-x="1035" 
d="M512 90l19 87l279 310h134l-275 -304h102l46 115h92l-25 -115h76l-21 -93h-74l-19 -90h-115l19 90h-238zM125 0l572 741h137l-571 -741h-138zM97 255l81 381h-83l22 105h211l-104 -486h-127z" />
    <glyph glyph-name="onesuperior" unicode="&#xb9;" horiz-adv-x="380" 
d="M118 254l81 382h-83l22 105h211l-104 -487h-127z" />
    <glyph glyph-name="threequarters" unicode="&#xbe;" horiz-adv-x="1177" 
d="M251 248c-101 0 -173 24 -223 61l68 85c43 -31 92 -50 152 -50c48 0 79 21 79 75c0 32 -19 49 -79 49h-81l20 95h98c46 0 70 9 70 52c0 25 -20 36 -72 36c-32 0 -87 -7 -121 -24l-42 89c51 29 138 34 188 34c113 0 176 -37 176 -105c0 -82 -35 -114 -82 -130
c31 -14 48 -44 48 -95c0 -129 -87 -172 -199 -172zM655 90l19 87l279 310h134l-275 -304h102l46 115h92l-25 -115h76l-21 -93h-74l-19 -90h-115l19 90h-238zM268 0l572 741h137l-572 -741h-137z" />
    <glyph glyph-name="threesuperior" unicode="&#xb3;" horiz-adv-x="514" 
d="M256 246c-101 0 -173 24 -223 61l68 85c43 -30 92 -50 152 -50c48 0 79 21 79 75c0 32 -20 46 -80 46h-81l22 100h98c46 0 69 8 69 50c0 25 -21 37 -72 37c-32 0 -87 -8 -121 -25l-43 89c52 29 139 35 189 35c113 0 176 -38 176 -106c0 -82 -35 -114 -82 -130
c31 -14 48 -44 48 -95c0 -129 -87 -172 -199 -172z" />
    <glyph glyph-name="twosuperior" unicode="&#xb2;" horiz-adv-x="514" 
d="M41 254l18 85l185 135c100 74 116 86 116 133c0 27 -24 38 -76 38c-31 0 -84 -8 -118 -21l-35 93c46 19 103 31 164 31c130 0 192 -39 192 -118c0 -98 -35 -129 -143 -206l-98 -73h185l-20 -97h-370z" />
    <glyph glyph-name="brokenbar" unicode="&#xa6;" horiz-adv-x="378" 
d="M110 -165v392h159v-392h-159zM110 384v392h159v-392h-159z" />
    <glyph glyph-name="minus" unicode="&#x2212;" horiz-adv-x="722" 
d="M74 282l31 141h536l-30 -141h-537z" />
    <glyph glyph-name="multiply" unicode="&#xd7;" horiz-adv-x="722" 
d="M155 104l-74 99l181 149l-118 149l117 98l118 -149l180 149l74 -99l-180 -148l117 -149l-116 -98l-117 149z" />
    <glyph glyph-name="exclam" unicode="!" horiz-adv-x="402" 
d="M31 0l37 176h183l-38 -176h-182zM101 233l93 508h172l-124 -508h-141z" />
    <glyph glyph-name="quotedbl" unicode="&#x22;" horiz-adv-x="578" 
d="M101 398l64 343h163l-83 -343h-144zM346 398l63 343h164l-84 -343h-143z" />
    <glyph glyph-name="numbersign" unicode="#" horiz-adv-x="772" 
d="M109 0l37 178h-128l29 136h128l18 88h-128l30 137h127l42 202h150l-42 -202h98l42 202h150l-42 -202h134l-29 -137h-133l-18 -88h133l-30 -136h-132l-38 -178h-150l38 178h-98l-38 -178h-150zM311 306h122l22 105h-122z" />
    <glyph glyph-name="dollar" unicode="$" horiz-adv-x="666" 
d="M164 -94l22 101c-95 14 -165 45 -215 88l90 108c63 -48 129 -79 244 -79c94 0 132 33 132 101c0 52 -40 66 -133 89c-108 26 -210 64 -210 192c0 160 109 226 247 235l15 71h145l-17 -78c81 -12 133 -37 163 -61l-91 -115c-38 27 -106 54 -194 54
c-85 0 -113 -34 -113 -88c0 -55 49 -66 141 -91c104 -28 201 -61 201 -189c0 -151 -101 -235 -263 -244l-20 -94h-144z" />
    <glyph glyph-name="percent" unicode="%" horiz-adv-x="1207" 
d="M262 263c-141 0 -209 74 -209 188c0 198 126 302 262 302c140 0 208 -79 208 -193c0 -188 -120 -297 -261 -297zM273 380c71 0 109 82 109 174c0 47 -19 78 -76 78c-66 0 -111 -69 -111 -174c0 -47 20 -78 78 -78zM895 -11c-142 0 -209 74 -209 188
c0 198 125 302 262 302c140 0 208 -78 208 -193c0 -187 -120 -297 -261 -297zM906 106c71 0 109 83 109 174c0 47 -20 79 -76 79c-66 0 -111 -69 -111 -175c0 -47 20 -78 78 -78zM249 0l568 741h145l-567 -741h-146z" />
    <glyph glyph-name="ampersand" unicode="&#x26;" horiz-adv-x="848" 
d="M289 -9c-201 0 -294 61 -294 183c0 161 100 225 205 260c-7 28 -10 56 -10 84c0 177 113 235 225 235c132 0 192 -64 192 -162c0 -145 -93 -203 -209 -241c17 -29 35 -56 54 -78c20 -24 39 -44 57 -60c48 55 90 132 129 232l124 -40c-40 -107 -85 -194 -140 -260
c34 -10 63 -10 88 -10h23l-28 -134h-14c-79 0 -139 7 -197 38c-59 -31 -126 -47 -205 -47zM305 114c27 0 52 3 76 11c-21 21 -42 45 -65 74c-28 34 -53 74 -74 117c-52 -24 -89 -59 -89 -123c0 -41 27 -79 152 -79zM341 528c0 -21 3 -45 10 -68c75 22 116 58 116 113
c0 35 -22 51 -57 51c-43 0 -69 -27 -69 -96z" />
    <glyph glyph-name="quotesingle" unicode="'" horiz-adv-x="335" 
d="M101 398l64 344h163l-83 -344h-144z" />
    <glyph glyph-name="parenleft" unicode="(" horiz-adv-x="521" 
d="M189 -192c-56 67 -119 193 -119 362c0 272 179 532 330 630l98 -81c-140 -112 -267 -323 -267 -555c0 -128 48 -239 86 -291z" />
    <glyph glyph-name="parenright" unicode=")" horiz-adv-x="521" 
d="M95 -192l-98 81c140 112 266 323 266 555c0 128 -47 239 -85 291l128 65c56 -67 119 -193 119 -362c0 -272 -179 -532 -330 -630z" />
    <glyph glyph-name="asterisk" unicode="*" horiz-adv-x="609" 
d="M332 228l-119 26l48 157l-155 -62l-38 122l164 37l-134 102l83 96l117 -121l21 164l119 -25l-49 -160l158 65l38 -121l-166 -40l136 -101l-83 -94l-119 120z" />
    <glyph glyph-name="plus" unicode="+" horiz-adv-x="722" 
d="M225 92l40 190h-191l31 141h190l40 189h156l-40 -189h190l-30 -141h-190l-40 -190h-156z" />
    <glyph glyph-name="comma" unicode="," horiz-adv-x="293" 
d="M-13 -156l-22 76c77 29 89 42 98 80h-86l38 180h182l-31 -151c-26 -120 -59 -145 -179 -185z" />
    <glyph glyph-name="hyphen" unicode="-" horiz-adv-x="425" 
d="M15 258l30 140h347l-30 -140h-347z" />
    <glyph glyph-name="hyphen" unicode="&#xad;" horiz-adv-x="425" 
d="M15 258l30 140h347l-30 -140h-347z" />
    <glyph glyph-name="period" unicode="." horiz-adv-x="293" 
d="M-23 0l38 180h182l-38 -180h-182z" />
    <glyph glyph-name="slash" unicode="/" horiz-adv-x="574" 
d="M-82 0l572 741h168l-573 -741h-167z" />
    <glyph glyph-name="zero" unicode="0" horiz-adv-x="752" 
d="M329 -11c-201 0 -285 94 -285 259c0 46 6 97 18 154c53 250 170 351 364 351c198 0 282 -100 282 -265c0 -47 -6 -97 -18 -152c-53 -249 -172 -347 -361 -347zM341 125c106 0 154 72 187 229c10 45 16 87 16 123c0 84 -34 133 -132 133c-107 0 -154 -68 -188 -225
c-10 -48 -16 -91 -16 -127c0 -85 34 -133 133 -133z" />
    <glyph glyph-name="one" unicode="1" horiz-adv-x="415" 
d="M79 0l127 600h-126l31 141h280l-158 -741h-154z" />
    <glyph glyph-name="two" unicode="2" horiz-adv-x="625" 
d="M-45 0l26 123l284 209c145 106 179 132 179 210c0 43 -27 74 -124 74c-48 0 -129 -13 -179 -34l-47 124c69 29 155 47 247 47c185 0 265 -65 265 -178c0 -150 -59 -196 -219 -313l-180 -132h311l-27 -130h-536z" />
    <glyph glyph-name="three" unicode="3" horiz-adv-x="636" 
d="M271 -12c-154 0 -249 37 -325 92l93 114c66 -47 141 -75 234 -75c76 0 131 28 131 128c0 57 -32 82 -125 82h-119l27 132h146c74 0 115 16 115 96c0 41 -28 62 -119 62c-48 0 -131 -11 -184 -37l-59 119c78 42 197 52 272 52c170 0 254 -56 254 -159
c0 -126 -49 -177 -124 -199c48 -21 72 -68 72 -145c0 -196 -120 -262 -289 -262z" />
    <glyph glyph-name="four" unicode="4" horiz-adv-x="680" 
d="M-12 152l25 117l426 472h175l-420 -463h183l77 211h110l-45 -211h115l-27 -126h-115l-32 -152h-144l32 152h-360z" />
    <glyph glyph-name="five" unicode="5" horiz-adv-x="652" 
d="M289 -11c-144 0 -255 45 -311 91l94 114c65 -50 147 -75 233 -75c71 0 135 29 135 144c0 80 -53 103 -135 103c-37 0 -75 -9 -114 -26l-123 39l97 362h477l-29 -134h-336l-37 -134c38 17 80 22 128 22c132 0 235 -34 235 -211c0 -239 -134 -295 -314 -295z" />
    <glyph glyph-name="six" unicode="6" horiz-adv-x="709" 
d="M329 -11c-209 0 -295 97 -295 251c0 35 5 74 14 116c64 303 185 385 472 385h123l-29 -134h-101c-217 0 -255 -69 -282 -156c33 35 102 54 188 54c170 0 231 -79 231 -189c0 -204 -112 -327 -321 -327zM334 117c121 0 157 67 157 166c0 57 -32 95 -140 95
c-86 0 -159 -27 -159 -150c0 -71 45 -111 142 -111z" />
    <glyph glyph-name="seven" unicode="7" horiz-adv-x="569" 
d="M31 0l388 607h-357l28 134h534l-25 -114l-395 -627h-173z" />
    <glyph glyph-name="eight" unicode="8" horiz-adv-x="719" 
d="M312 -16c-227 0 -301 91 -301 193c0 116 51 191 168 227c-58 29 -68 80 -68 131c0 124 78 218 284 218c234 0 295 -77 295 -172c0 -89 -29 -164 -125 -187c67 -30 78 -80 78 -147c0 -157 -102 -263 -331 -263zM329 110c95 0 154 39 154 132c0 56 -39 92 -152 92
c-98 0 -157 -39 -157 -135c0 -54 38 -89 155 -89zM394 454c94 0 137 27 137 102c0 43 -30 72 -134 72c-95 0 -135 -28 -135 -101c0 -44 30 -73 132 -73z" />
    <glyph glyph-name="nine" unicode="9" horiz-adv-x="709" 
d="M67 0l28 130h101c217 0 258 72 284 159c-32 -35 -102 -54 -189 -54c-170 0 -231 81 -231 191c0 204 113 327 321 327c209 0 295 -97 295 -251c0 -36 -4 -75 -13 -116c-65 -304 -186 -386 -473 -386h-123zM358 357c86 0 160 27 160 150c0 70 -45 111 -142 111
c-121 0 -157 -67 -157 -166c0 -57 31 -95 139 -95z" />
    <glyph glyph-name="colon" unicode=":" horiz-adv-x="313" 
d="M-13 0l37 174h182l-37 -174h-182zM71 392l36 174h182l-36 -174h-182z" />
    <glyph glyph-name="semicolon" unicode=";" horiz-adv-x="313" 
d="M-4 -156l-22 76c77 29 90 42 98 80h-85l37 174h182l-31 -145c-26 -122 -58 -145 -179 -185zM71 392l36 174h182l-36 -174h-182z" />
    <glyph glyph-name="less" unicode="&#x3c;" horiz-adv-x="722" 
d="M508 63l-412 230l22 107l510 228l-30 -142l-328 -140l268 -140z" />
    <glyph glyph-name="equal" unicode="=" horiz-adv-x="722" 
d="M55 161l29 140h525l-29 -140h-525zM107 404l29 139h525l-30 -139h-524z" />
    <glyph glyph-name="greater" unicode="&#x3e;" horiz-adv-x="722" 
d="M85 63l30 143l328 139l-268 141l30 142l414 -229l-24 -108z" />
    <glyph glyph-name="question" unicode="?" horiz-adv-x="697" 
d="M218 214c20 149 47 194 178 233c92 27 116 40 116 100c0 37 -26 66 -137 66c-58 0 -127 -12 -192 -34l-49 129c80 34 200 45 271 45c191 0 274 -59 274 -169c0 -132 -51 -189 -183 -231c-102 -33 -112 -50 -126 -139h-152zM158 0l33 157h183l-34 -157h-182z" />
    <glyph glyph-name="at" unicode="@" horiz-adv-x="1063" 
d="M528 -165c-308 0 -479 121 -479 456c0 341 192 463 461 463c276 0 465 -122 465 -463c0 -203 -56 -262 -199 -262c-96 0 -149 23 -167 68c-43 -42 -92 -61 -189 -61c-140 0 -191 82 -191 185c0 170 70 335 251 335c108 0 147 -21 175 -53l39 45l92 -8l-70 -326
c-17 -80 0 -107 81 -107c82 0 92 45 92 184c0 284 -143 381 -379 381c-224 0 -375 -97 -375 -381c0 -275 145 -374 392 -374c95 0 196 22 263 55l36 -73c-80 -40 -184 -64 -298 -64zM464 155c68 0 115 31 133 127c4 20 6 40 6 59c0 55 -25 90 -107 90
c-85 0 -122 -86 -122 -189c0 -51 20 -87 90 -87z" />
    <glyph glyph-name="A" unicode="A" horiz-adv-x="763" 
d="M-64 0l444 746h159l124 -746h-163l-19 122h-302l-70 -122h-173zM255 257h205l-44 280z" />
    <glyph glyph-name="B" unicode="B" horiz-adv-x="736" 
d="M-5 0l158 741h279c222 0 292 -60 292 -156c0 -120 -50 -186 -133 -205c64 -22 80 -70 80 -136c0 -191 -115 -244 -318 -244h-358zM185 136h203c76 0 117 27 117 101c0 45 -31 66 -118 66h-166zM250 445h188c84 0 112 36 112 96c0 38 -27 61 -125 61h-142z" />
    <glyph glyph-name="C" unicode="C" horiz-adv-x="743" 
d="M368 -11c-246 0 -344 115 -344 290c0 40 4 83 14 129c58 273 226 345 407 345c182 0 263 -60 309 -116l-133 -108c-35 44 -91 74 -178 74c-127 0 -209 -62 -241 -215c-7 -31 -10 -61 -10 -87c0 -101 53 -166 191 -166c76 0 133 25 180 62l92 -116
c-72 -62 -156 -92 -287 -92z" />
    <glyph glyph-name="D" unicode="D" horiz-adv-x="773" 
d="M-5 0l158 741h189c291 0 408 -78 408 -266c0 -44 -5 -92 -17 -147c-62 -289 -204 -328 -420 -328h-318zM189 143h127c162 0 216 38 252 205c8 39 13 73 13 103c0 97 -56 143 -215 143h-81z" />
    <glyph glyph-name="E" unicode="E" horiz-adv-x="675" 
d="M-4 0l158 741h544l-32 -148h-380l-31 -144h371l-31 -143h-370l-35 -164h384l-30 -142h-548z" />
    <glyph glyph-name="F" unicode="F" horiz-adv-x="632" 
d="M-4 0l158 741h519l-32 -148h-355l-34 -159h345l-31 -146h-345l-61 -288h-164z" />
    <glyph glyph-name="G" unicode="G" horiz-adv-x="787" 
d="M374 -11c-248 0 -350 109 -350 289c0 52 6 92 14 130c47 236 189 345 408 345c165 0 268 -55 314 -116l-133 -108c-30 36 -77 74 -192 74c-136 0 -208 -78 -236 -215c-5 -27 -10 -60 -10 -88c0 -109 54 -173 196 -173c122 0 164 37 187 153l3 15h-197l29 136h357
l-27 -130c-50 -239 -139 -312 -363 -312z" />
    <glyph glyph-name="H" unicode="H" horiz-adv-x="803" 
d="M-4 0l158 741h164l-61 -284h326l61 284h164l-158 -741h-164l65 304h-326l-65 -304h-164z" />
    <glyph glyph-name="I" unicode="I" horiz-adv-x="333" 
d="M7 0l158 741h163l-158 -741h-163z" />
    <glyph glyph-name="J" unicode="J" horiz-adv-x="435" 
d="M-56 0l30 142h74c80 0 111 26 126 95l108 504h163l-112 -527c-40 -187 -152 -216 -264 -216c-101 0 -91 0 -125 2z" />
    <glyph glyph-name="K" unicode="K" horiz-adv-x="740" 
d="M464 0l-134 334l-129 -124l-44 -210h-161l158 741h161l-67 -311l317 311h193l-300 -291l178 -450h-172z" />
    <glyph glyph-name="L" unicode="L" horiz-adv-x="597" 
d="M-4 0l158 741h164l-128 -599h344l-30 -142h-508z" />
    <glyph glyph-name="M" unicode="M" horiz-adv-x="958" 
d="M-4 0l158 741h214l82 -497l293 497h220l-158 -741h-160l106 500l-300 -500h-116l-87 499l-105 -499h-147z" />
    <glyph glyph-name="N" unicode="N" horiz-adv-x="802" 
d="M-4 0l158 741h176l219 -478l102 478h157l-158 -741h-151l-238 511l-109 -511h-156z" />
    <glyph glyph-name="O" unicode="O" horiz-adv-x="841" 
d="M388 -12c-225 0 -363 103 -363 303c0 37 4 77 13 121c59 277 240 341 418 341c222 0 360 -101 360 -300c0 -37 -4 -77 -13 -119c-60 -279 -240 -346 -415 -346zM390 132c140 0 216 69 247 214c6 30 10 58 10 85c0 102 -54 172 -199 172c-140 0 -216 -69 -246 -212
c-6 -29 -9 -58 -9 -85c0 -102 53 -174 197 -174z" />
    <glyph glyph-name="P" unicode="P" horiz-adv-x="740" 
d="M-5 0l158 741h301c223 0 289 -87 289 -194c0 -181 -85 -321 -313 -321h-226l-49 -226h-160zM233 367h192c94 0 147 42 147 150c0 54 -38 84 -140 84h-149z" />
    <glyph glyph-name="Q" unicode="Q" horiz-adv-x="841" 
d="M388 -4h-2c-12 -50 2 -61 73 -61h77l-28 -131c-20 -2 -57 -2 -76 -2c-188 0 -225 59 -186 209c-142 34 -221 125 -221 280c-1 37 4 77 13 121c59 277 239 341 418 341c228 0 360 -106 360 -300c0 -37 -4 -77 -13 -119c-60 -279 -240 -338 -415 -338zM390 132
c140 0 216 69 247 214c6 30 10 58 10 85c0 102 -54 172 -199 172c-140 0 -216 -69 -246 -212c-6 -29 -9 -58 -9 -85c0 -102 53 -174 197 -174z" />
    <glyph glyph-name="R" unicode="R" horiz-adv-x="752" 
d="M447 0l-85 246h-154l-53 -246h-160l158 741h286c237 0 300 -88 300 -189c0 -143 -53 -265 -213 -298l87 -254h-166zM238 387h189c95 0 141 39 141 131c0 59 -47 83 -143 83h-142z" />
    <glyph glyph-name="S" unicode="S" horiz-adv-x="721" 
d="M332 -11c-178 0 -297 52 -373 110l105 115c67 -53 161 -89 276 -89c92 0 146 17 146 84c0 60 -47 67 -161 98c-136 37 -236 70 -236 208c0 184 137 238 297 238c180 0 274 -51 323 -88l-108 -122c-40 32 -116 67 -221 67c-82 0 -124 -18 -124 -81c0 -51 55 -66 143 -87
c136 -32 255 -67 255 -200c0 -182 -124 -253 -322 -253z" />
    <glyph glyph-name="T" unicode="T" horiz-adv-x="686" 
d="M183 0l126 593h-247l32 148h658l-32 -148h-247l-126 -593h-164z" />
    <glyph glyph-name="U" unicode="U" horiz-adv-x="797" 
d="M352 -14c-250 0 -309 107 -309 221c0 33 5 68 12 101l93 433h164l-90 -425c-6 -28 -10 -54 -10 -77c0 -67 36 -108 158 -108c120 0 158 48 182 162l95 448h159l-103 -479c-30 -141 -90 -276 -351 -276z" />
    <glyph glyph-name="V" unicode="V" horiz-adv-x="763" 
d="M223 -5l-124 746h168l78 -528l304 528h176l-444 -746h-158z" />
    <glyph glyph-name="W" unicode="W" horiz-adv-x="1062" 
d="M159 -5l-56 746h169l27 -452l234 452h159l42 -452l220 452h165l-374 -746h-141l-46 499l-258 -499h-141z" />
    <glyph glyph-name="X" unicode="X" horiz-adv-x="761" 
d="M480 0l-125 269l-228 -269h-183l350 400l-157 341h171l106 -230l193 230h183l-315 -361l176 -380h-171z" />
    <glyph glyph-name="Y" unicode="Y" horiz-adv-x="740" 
d="M208 0l57 269l-179 472h171l119 -322l254 322h180l-382 -475l-56 -266h-164z" />
    <glyph glyph-name="Z" unicode="Z" horiz-adv-x="672" 
d="M-47 0l27 122l479 471h-362l31 148h578l-28 -134l-473 -465h384l-30 -142h-606z" />
    <glyph glyph-name="bracketleft" unicode="[" horiz-adv-x="516" 
d="M-4 -165l200 941h320l-28 -135h-162l-143 -675h164l-28 -131h-323z" />
    <glyph glyph-name="backslash" unicode="\" horiz-adv-x="574" 
d="M340 0l-256 741h151l256 -741h-151z" />
    <glyph glyph-name="bracketright" unicode="]" horiz-adv-x="516" 
d="M-29 -165l27 131h164l144 675h-162l29 135h320l-200 -941h-322z" />
    <glyph glyph-name="asciicircum" unicode="^" horiz-adv-x="590" 
d="M115 552l191 183h163l113 -183h-144l-70 86l-107 -86h-146z" />
    <glyph glyph-name="underscore" unicode="_" horiz-adv-x="453" 
d="M-148 -157l25 117h527l-25 -117h-527z" />
    <glyph glyph-name="grave" unicode="`" horiz-adv-x="590" 
d="M315 620l-151 183h183l102 -183h-134z" />
    <glyph glyph-name="a" unicode="a" horiz-adv-x="633" 
d="M192 -9c-166 0 -210 64 -210 162c0 169 138 211 344 211h72c3 12 4 22 4 32c0 30 -20 45 -110 45c-43 0 -108 -14 -145 -33l-57 118c47 28 133 53 233 53c238 0 252 -85 219 -244l-32 -153c-8 -40 -11 -54 38 -52l-28 -128c-10 -3 -32 -4 -67 -4c-53 0 -73 9 -84 52
c-33 -38 -94 -59 -177 -59zM237 117c83 0 113 25 133 118l4 21h-72c-115 0 -163 -13 -163 -86c0 -33 20 -53 98 -53z" />
    <glyph glyph-name="b" unicode="b" horiz-adv-x="661" 
d="M333 -9c-120 0 -178 27 -199 61l-38 -58l-111 11l164 771h156l-53 -244c36 31 84 47 160 47c160 0 210 -91 210 -206c0 -36 -5 -76 -14 -116c-34 -161 -104 -266 -275 -266zM310 124c89 0 118 54 139 145c5 26 9 50 9 72c0 56 -25 95 -107 95c-86 0 -127 -33 -150 -142
c-6 -26 -9 -50 -9 -72c0 -63 32 -98 118 -98z" />
    <glyph glyph-name="c" unicode="c" horiz-adv-x="567" 
d="M266 -9c-199 0 -260 95 -260 217c0 36 4 71 11 106c32 159 116 265 316 265c129 0 191 -43 234 -98l-128 -101c-18 25 -45 55 -120 55c-81 0 -125 -43 -145 -145c-4 -21 -7 -44 -7 -66c0 -60 27 -101 112 -101c41 0 73 6 121 44l83 -99c-69 -57 -139 -77 -217 -77z" />
    <glyph glyph-name="d" unicode="d" horiz-adv-x="661" 
d="M214 -9c-160 0 -211 90 -211 205c0 37 6 77 15 117c34 160 103 266 274 266c115 0 159 -26 181 -60l56 257h157l-164 -770l-122 -11v48c-37 -34 -92 -52 -186 -52zM275 125c86 0 127 34 150 142c6 26 8 51 8 72c0 64 -31 99 -118 99c-88 0 -118 -55 -138 -146
c-5 -25 -8 -50 -8 -72c0 -55 23 -95 106 -95z" />
    <glyph glyph-name="e" unicode="e" horiz-adv-x="599" 
d="M263 -11c-199 0 -258 98 -258 218c0 37 5 72 12 107c33 164 123 265 313 265c183 0 229 -89 229 -178c0 -52 -11 -118 -24 -177h-380v-2c0 -61 30 -106 127 -106c62 0 123 15 163 41l61 -109c-75 -49 -160 -59 -243 -59zM312 448c-77 0 -115 -42 -137 -112h234
c2 12 4 24 4 38c0 43 -20 74 -101 74z" />
    <glyph glyph-name="f" unicode="f" horiz-adv-x="441" 
d="M38 432l29 134h106l10 46c28 129 86 182 244 182c47 0 64 -1 81 -2l-27 -128h-51c-66 0 -84 -23 -93 -68l-7 -30h130l-28 -134h-130l-127 -597h-157l127 597h-107z" />
    <glyph glyph-name="g" unicode="g" horiz-adv-x="640" 
d="M301 208c-39 0 -73 3 -103 8c-4 -8 -6 -17 -6 -27c0 -20 8 -30 48 -31c228 -4 294 -39 294 -143c0 -161 -106 -194 -317 -194c-212 0 -293 39 -293 139c0 94 70 137 149 149c-15 17 -21 42 -21 68c0 34 17 63 40 85c-31 27 -45 62 -45 105c0 152 86 212 272 212
c14 0 31 -1 49 -2l263 51l-21 -119h-89c27 -25 45 -65 45 -110c0 -134 -85 -191 -265 -191zM244 -72c92 -1 124 13 124 68c0 38 -42 51 -164 51c-87 0 -112 -18 -112 -63c0 -33 33 -56 152 -56zM302 312c73 0 107 26 107 88c0 37 -25 58 -102 58c-71 0 -105 -23 -105 -88
c0 -35 22 -58 100 -58z" />
    <glyph glyph-name="h" unicode="h" horiz-adv-x="644" 
d="M-17 0l165 776h156l-51 -243c30 26 78 46 144 46c210 0 208 -114 179 -255l-70 -324h-156l65 307c14 70 25 124 -86 124c-85 0 -108 -48 -121 -112l-68 -319h-157z" />
    <glyph glyph-name="i" unicode="i" horiz-adv-x="293" 
d="M-11 0l121 566h156l-120 -566h-157zM120 618l31 143h158l-30 -143h-159z" />
    <glyph glyph-name="j" unicode="j" horiz-adv-x="293" 
d="M-111 -169l26 119h12c48 0 55 14 68 73l115 543h156l-118 -559c-32 -153 -77 -176 -198 -176h-61zM120 618l31 143h158l-30 -143h-159z" />
    <glyph glyph-name="k" unicode="k" horiz-adv-x="585" 
d="M-16 0l165 776h155l-90 -424l215 214h174l-232 -228l129 -338h-163l-86 220l-83 -81l-29 -139h-155z" />
    <glyph glyph-name="l" unicode="l" horiz-adv-x="341" 
d="M147 -2c-113 0 -146 56 -117 192l124 586h157l-124 -586c-10 -46 -5 -59 42 -59h19l-27 -129c-13 -2 -44 -4 -74 -4z" />
    <glyph glyph-name="m" unicode="m" horiz-adv-x="991" 
d="M-17 0l118 557l125 9v-42c37 31 84 55 166 55s141 -11 169 -62c33 35 95 62 187 62c209 0 202 -114 173 -255l-70 -324h-156l65 307c15 70 28 124 -80 124c-86 0 -103 -48 -117 -112l-67 -319h-157l65 307c15 70 29 124 -80 124c-85 0 -103 -48 -116 -112l-68 -319h-157z
" />
    <glyph glyph-name="n" unicode="n" horiz-adv-x="644" 
d="M-17 0l118 557l125 9v-42c37 31 90 55 171 55c210 0 208 -114 179 -255l-70 -324h-156l65 307c14 70 25 124 -86 124c-85 0 -108 -48 -121 -112l-68 -319h-157z" />
    <glyph glyph-name="o" unicode="o" horiz-adv-x="641" 
d="M272 -11c-190 0 -266 90 -266 225c0 32 4 65 11 100c41 190 147 265 317 265c190 0 266 -89 266 -223c0 -31 -5 -65 -12 -101c-40 -190 -145 -266 -316 -266zM281 123c91 0 129 49 149 144c5 23 8 46 8 66c0 61 -27 103 -114 103c-92 0 -130 -50 -150 -146
c-5 -23 -8 -45 -8 -66c0 -60 29 -101 115 -101z" />
    <glyph glyph-name="p" unicode="p" horiz-adv-x="661" 
d="M-51 -165l153 722l124 9l1 -45c37 36 90 58 185 58c160 0 210 -91 210 -206c0 -36 -5 -76 -14 -116c-34 -161 -104 -266 -275 -266c-120 0 -161 23 -182 57l-45 -213h-157zM310 124c89 0 118 54 139 145c5 26 9 50 9 72c0 56 -25 95 -107 95c-86 0 -127 -33 -150 -142
c-6 -26 -9 -50 -9 -72c0 -63 32 -98 118 -98z" />
    <glyph glyph-name="q" unicode="q" horiz-adv-x="661" 
d="M329 -165l40 195c-35 -27 -81 -39 -155 -39c-160 0 -211 90 -211 205c0 37 6 77 15 117c34 160 103 266 274 266c115 0 169 -18 200 -62l41 52l107 -9l-153 -725h-158zM275 125c86 0 127 34 150 142c6 26 8 51 8 72c0 64 -31 99 -118 99c-88 0 -118 -55 -138 -146
c-5 -25 -8 -50 -8 -72c0 -55 23 -95 106 -95z" />
    <glyph glyph-name="r" unicode="r" horiz-adv-x="384" 
d="M-16 0l118 557l125 9v-54c29 39 94 60 178 61l-32 -150c-123 -1 -152 -46 -171 -134l-61 -289h-157z" />
    <glyph glyph-name="s" unicode="s" horiz-adv-x="553" 
d="M232 -9c-115 0 -215 37 -277 90l95 107c50 -38 131 -70 198 -70c53 0 82 4 82 48c0 34 -50 44 -106 58c-80 19 -178 46 -178 153c0 149 103 202 253 202c107 0 191 -32 242 -67l-97 -117c-35 21 -86 47 -160 47c-55 0 -76 -9 -76 -44c0 -32 39 -42 101 -57
c88 -23 179 -49 179 -157c0 -148 -103 -193 -256 -193z" />
    <glyph glyph-name="t" unicode="t" horiz-adv-x="448" 
d="M38 432l29 134h101l56 138l127 25l-35 -163h129l-28 -134h-130l-49 -233c-10 -44 -8 -68 59 -68h56l-28 -131c-23 -2 -60 -2 -88 -2c-159 0 -183 69 -157 195l51 239h-93z" />
    <glyph glyph-name="u" unicode="u" horiz-adv-x="636" 
d="M267 -11c-234 0 -268 102 -227 296l60 281h157l-62 -293c-17 -83 -27 -146 86 -146c87 0 100 46 117 126l67 313h154l-68 -320c-42 -194 -101 -257 -284 -257z" />
    <glyph glyph-name="v" unicode="v" horiz-adv-x="593" 
d="M139 -6l-94 572h163l50 -374l207 374h166l-336 -572h-156z" />
    <glyph glyph-name="w" unicode="w" horiz-adv-x="900" 
d="M110 -6l-55 572h163l25 -324l171 324h161l37 -324l159 324h158l-297 -572h-144l-41 364l-193 -364h-144z" />
    <glyph glyph-name="x" unicode="x" horiz-adv-x="579" 
d="M325 0l-81 180l-151 -180h-170l266 302l-118 264h164l68 -153l127 153h170l-241 -276l130 -290h-164z" />
    <glyph glyph-name="y" unicode="y" horiz-adv-x="564" 
d="M40 -170c-32 0 -59 1 -76 2l25 118h42c63 0 69 8 87 42l14 27l-87 547h165l44 -342l187 342h162l-349 -602c-61 -105 -97 -134 -214 -134z" />
    <glyph glyph-name="z" unicode="z" horiz-adv-x="520" 
d="M-59 0l23 105l330 327h-244l28 134h456l-23 -107l-332 -333h273l-27 -126h-484z" />
    <glyph glyph-name="braceleft" unicode="{" horiz-adv-x="553" 
d="M250 -165c-136 0 -192 35 -192 104c0 79 103 223 103 269c0 30 -30 33 -120 33l27 128c113 0 140 6 140 75c0 39 -9 97 -9 147c0 124 75 185 196 185h161l-28 -135h-89c-62 0 -85 -18 -85 -72c0 -32 7 -86 7 -134c0 -56 -11 -109 -88 -129c39 -13 52 -36 52 -65
c0 -62 -94 -198 -94 -243c0 -24 18 -32 62 -32h91l-28 -131h-106z" />
    <glyph glyph-name="bar" unicode="|" horiz-adv-x="378" 
d="M110 -165v941h159v-941h-159z" />
    <glyph glyph-name="braceright" unicode="}" horiz-adv-x="553" 
d="M-29 -165l27 131h89c62 0 86 22 86 76c0 32 -7 86 -7 134c0 56 11 109 87 129c-38 13 -51 36 -51 65c0 62 94 194 94 240c0 23 -19 31 -63 31h-91l29 135h106c136 0 192 -35 192 -104c0 -79 -103 -223 -103 -269c0 -30 30 -33 120 -33l-27 -128c-113 0 -140 -6 -140 -75
c0 -39 9 -97 9 -147c0 -124 -75 -185 -196 -185h-161z" />
    <glyph glyph-name="asciitilde" unicode="~" horiz-adv-x="590" 
d="M449 372c-77 0 -121 54 -171 54c-27 0 -54 -20 -78 -48l-78 74c52 62 107 95 162 95c77 0 121 -54 171 -54c26 0 51 19 77 49l78 -73c-54 -65 -108 -97 -161 -97z" />
    <glyph glyph-name="Adieresis" unicode="&#xc4;" horiz-adv-x="763" 
d="M-64 0l444 746h159l124 -746h-163l-19 122h-302l-70 -122h-173zM255 257h205l-44 280zM286 781l29 136h142l-29 -136h-142zM508 781l29 136h142l-29 -136h-142z" />
    <glyph glyph-name="Aring" unicode="&#xc5;" horiz-adv-x="763" 
d="M-64 0l417 701c-24 21 -35 52 -35 86c0 106 63 175 160 175c93 0 134 -56 134 -122c0 -65 -25 -113 -65 -141l116 -699h-163l-19 122h-302l-70 -122h-173zM255 257h205l-44 280zM456 748c47 0 76 31 76 83c0 29 -15 54 -59 54c-46 0 -75 -36 -75 -87c0 -28 17 -50 58 -50
z" />
    <glyph glyph-name="Ccedilla" unicode="&#xc7;" horiz-adv-x="743" 
d="M268 -249c-74 0 -125 21 -157 42l54 73c27 -18 58 -33 101 -33c33 0 56 9 56 44c0 32 -45 35 -82 32l-25 19l30 73c-156 33 -221 135 -221 278c0 40 4 83 14 129c58 273 226 345 407 345c182 0 263 -60 309 -116l-133 -108c-35 44 -91 74 -178 74
c-127 0 -209 -62 -241 -215c-7 -31 -10 -61 -10 -87c0 -101 53 -166 191 -166c76 0 133 25 180 62l92 -116c-72 -62 -156 -92 -287 -92c-14 0 -27 1 -39 1l-13 -32c53 -3 110 -15 110 -79c0 -112 -88 -128 -158 -128z" />
    <glyph glyph-name="Eacute" unicode="&#xc9;" horiz-adv-x="675" 
d="M319 781l180 183h194l-230 -183h-144zM-4 0l158 741h544l-32 -148h-380l-31 -144h371l-31 -143h-370l-35 -164h384l-30 -142h-548z" />
    <glyph glyph-name="Ntilde" unicode="&#xd1;" horiz-adv-x="802" 
d="M-4 0l158 741h176l219 -478l102 478h157l-158 -741h-151l-238 511l-109 -511h-156zM588 781c-77 0 -121 54 -171 54c-27 0 -54 -20 -78 -48l-78 74c52 62 107 95 162 95c77 0 121 -54 171 -54c26 0 51 19 77 49l78 -73c-54 -65 -108 -97 -161 -97z" />
    <glyph glyph-name="Odieresis" unicode="&#xd6;" horiz-adv-x="841" 
d="M325 781l29 136h142l-29 -136h-142zM547 781l29 136h142l-29 -136h-142zM388 -12c-225 0 -363 103 -363 303c0 37 4 77 13 121c59 277 240 341 418 341c222 0 360 -101 360 -300c0 -37 -4 -77 -13 -119c-60 -279 -240 -346 -415 -346zM390 132c140 0 216 69 247 214
c6 30 10 58 10 85c0 102 -54 172 -199 172c-140 0 -216 -69 -246 -212c-6 -29 -9 -58 -9 -85c0 -102 53 -174 197 -174z" />
    <glyph glyph-name="Udieresis" unicode="&#xdc;" horiz-adv-x="797" 
d="M303 781l29 136h142l-29 -136h-142zM525 781l29 136h142l-29 -136h-142zM352 -14c-250 0 -309 107 -309 221c0 33 5 68 12 101l93 433h164l-90 -425c-6 -28 -10 -54 -10 -77c0 -67 36 -108 158 -108c120 0 158 48 182 162l95 448h159l-103 -479
c-30 -141 -90 -276 -351 -276z" />
    <glyph glyph-name="aacute" unicode="&#xe1;" horiz-adv-x="633" 
d="M192 -9c-166 0 -210 64 -210 162c0 169 138 211 344 211h72c3 12 4 22 4 32c0 30 -20 45 -110 45c-43 0 -108 -14 -145 -33l-57 118c47 28 133 53 233 53c238 0 252 -85 219 -244l-32 -153c-8 -40 -11 -54 38 -52l-28 -128c-10 -3 -32 -4 -67 -4c-53 0 -73 9 -84 52
c-33 -38 -94 -59 -177 -59zM237 117c83 0 113 25 133 118l4 21h-72c-115 0 -163 -13 -163 -86c0 -33 20 -53 98 -53zM265 620l180 183h194l-230 -183h-144z" />
    <glyph glyph-name="agrave" unicode="&#xe0;" horiz-adv-x="633" 
d="M192 -9c-166 0 -210 64 -210 162c0 169 138 211 344 211h72c3 12 4 22 4 32c0 30 -20 45 -110 45c-43 0 -108 -14 -145 -33l-57 118c47 28 133 53 233 53c238 0 252 -85 219 -244l-32 -153c-8 -40 -11 -54 38 -52l-28 -128c-10 -3 -32 -4 -67 -4c-53 0 -73 9 -84 52
c-33 -38 -94 -59 -177 -59zM237 117c83 0 113 25 133 118l4 21h-72c-115 0 -163 -13 -163 -86c0 -33 20 -53 98 -53zM337 620l-151 183h183l102 -183h-134z" />
    <glyph glyph-name="acircumflex" unicode="&#xe2;" horiz-adv-x="633" 
d="M192 -9c-166 0 -210 64 -210 162c0 169 138 211 344 211h72c3 12 4 22 4 32c0 30 -20 45 -110 45c-43 0 -108 -14 -145 -33l-57 118c47 28 133 53 233 53c238 0 252 -85 219 -244l-32 -153c-8 -40 -11 -54 38 -52l-28 -128c-10 -3 -32 -4 -67 -4c-53 0 -73 9 -84 52
c-33 -38 -94 -59 -177 -59zM237 117c83 0 113 25 133 118l4 21h-72c-115 0 -163 -13 -163 -86c0 -33 20 -53 98 -53zM137 620l191 183h163l113 -183h-144l-70 86l-107 -86h-146z" />
    <glyph glyph-name="adieresis" unicode="&#xe4;" horiz-adv-x="633" 
d="M192 -9c-166 0 -210 64 -210 162c0 169 138 211 344 211h72c3 12 4 22 4 32c0 30 -20 45 -110 45c-43 0 -108 -14 -145 -33l-57 118c47 28 133 53 233 53c238 0 252 -85 219 -244l-32 -153c-8 -40 -11 -54 38 -52l-28 -128c-10 -3 -32 -4 -67 -4c-53 0 -73 9 -84 52
c-33 -38 -94 -59 -177 -59zM237 117c83 0 113 25 133 118l4 21h-72c-115 0 -163 -13 -163 -86c0 -33 20 -53 98 -53zM189 620l29 136h142l-29 -136h-142zM411 620l29 136h142l-29 -136h-142z" />
    <glyph glyph-name="atilde" unicode="&#xe3;" horiz-adv-x="633" 
d="M192 -9c-166 0 -210 64 -210 162c0 169 138 211 344 211h72c3 12 4 22 4 32c0 30 -20 45 -110 45c-43 0 -108 -14 -145 -33l-57 118c47 28 133 53 233 53c238 0 252 -85 219 -244l-32 -153c-8 -40 -11 -54 38 -52l-28 -128c-10 -3 -32 -4 -67 -4c-53 0 -73 9 -84 52
c-33 -38 -94 -59 -177 -59zM237 117c83 0 113 25 133 118l4 21h-72c-115 0 -163 -13 -163 -86c0 -33 20 -53 98 -53zM471 620c-77 0 -121 54 -171 54c-27 0 -54 -20 -78 -48l-78 74c52 62 107 95 162 95c77 0 121 -54 171 -54c26 0 51 19 77 49l78 -73
c-54 -65 -108 -97 -161 -97z" />
    <glyph glyph-name="aring" unicode="&#xe5;" horiz-adv-x="633" 
d="M192 -9c-166 0 -210 64 -210 162c0 169 138 211 344 211h72c3 12 4 22 4 32c0 30 -20 45 -110 45c-43 0 -108 -14 -145 -33l-57 118c47 28 133 53 233 53c238 0 252 -85 219 -244l-32 -153c-8 -40 -11 -54 38 -52l-28 -128c-10 -3 -32 -4 -67 -4c-53 0 -73 9 -84 52
c-33 -38 -94 -59 -177 -59zM237 117c83 0 113 25 133 118l4 21h-72c-115 0 -163 -13 -163 -86c0 -33 20 -53 98 -53zM385 610c-95 0 -134 52 -134 116c0 106 63 175 160 175c93 0 134 -56 134 -122c0 -106 -67 -169 -160 -169zM389 687c47 0 76 31 76 83c0 29 -15 54 -59 54
c-46 0 -75 -36 -75 -87c0 -28 17 -50 58 -50z" />
    <glyph glyph-name="ccedilla" unicode="&#xe7;" horiz-adv-x="567" 
d="M181 -249c-74 0 -125 21 -157 42l54 73c27 -18 58 -33 101 -33c33 0 56 9 56 44c0 32 -45 35 -82 32l-25 19l31 75c-115 29 -153 108 -153 205c0 36 4 71 11 106c32 159 116 265 316 265c129 0 191 -43 234 -98l-128 -101c-18 25 -45 55 -120 55
c-81 0 -125 -43 -145 -145c-4 -21 -7 -44 -7 -66c0 -60 27 -101 112 -101c41 0 73 6 121 44l83 -99c-69 -57 -139 -77 -217 -77c-8 0 -16 0 -24 1l-13 -34c53 -3 110 -15 110 -79c0 -112 -88 -128 -158 -128z" />
    <glyph glyph-name="eacute" unicode="&#xe9;" horiz-adv-x="599" 
d="M247 620l180 183h194l-230 -183h-144zM263 -11c-199 0 -258 98 -258 218c0 37 5 72 12 107c33 164 123 265 313 265c183 0 229 -89 229 -178c0 -52 -11 -118 -24 -177h-380v-2c0 -61 30 -106 127 -106c62 0 123 15 163 41l61 -109c-75 -49 -160 -59 -243 -59zM312 448
c-77 0 -115 -42 -137 -112h234c2 12 4 24 4 38c0 43 -20 74 -101 74z" />
    <glyph glyph-name="egrave" unicode="&#xe8;" horiz-adv-x="599" 
d="M263 -11c-199 0 -258 98 -258 218c0 37 5 72 12 107c33 164 123 265 313 265c183 0 229 -89 229 -178c0 -52 -11 -118 -24 -177h-380v-2c0 -61 30 -106 127 -106c62 0 123 15 163 41l61 -109c-75 -49 -160 -59 -243 -59zM312 448c-77 0 -115 -42 -137 -112h234
c2 12 4 24 4 38c0 43 -20 74 -101 74zM319 620l-151 183h183l102 -183h-134z" />
    <glyph glyph-name="ecircumflex" unicode="&#xea;" horiz-adv-x="599" 
d="M119 620l191 183h163l113 -183h-144l-70 86l-107 -86h-146zM263 -11c-199 0 -258 98 -258 218c0 37 5 72 12 107c33 164 123 265 313 265c183 0 229 -89 229 -178c0 -52 -11 -118 -24 -177h-380v-2c0 -61 30 -106 127 -106c62 0 123 15 163 41l61 -109
c-75 -49 -160 -59 -243 -59zM312 448c-77 0 -115 -42 -137 -112h234c2 12 4 24 4 38c0 43 -20 74 -101 74z" />
    <glyph glyph-name="edieresis" unicode="&#xeb;" horiz-adv-x="599" 
d="M171 620l29 136h142l-29 -136h-142zM393 620l29 136h142l-29 -136h-142zM263 -11c-199 0 -258 98 -258 218c0 37 5 72 12 107c33 164 123 265 313 265c183 0 229 -89 229 -178c0 -52 -11 -118 -24 -177h-380v-2c0 -61 30 -106 127 -106c62 0 123 15 163 41l61 -109
c-75 -49 -160 -59 -243 -59zM312 448c-77 0 -115 -42 -137 -112h234c2 12 4 24 4 38c0 43 -20 74 -101 74z" />
    <glyph glyph-name="iacute" unicode="&#xed;" horiz-adv-x="293" 
d="M122 620l151 183h193l-201 -183h-143zM-11 0l121 566h156l-120 -566h-157z" />
    <glyph glyph-name="igrave" unicode="&#xec;" horiz-adv-x="293" 
d="M127 620l-113 183h183l64 -183h-134zM-11 0l121 566h156l-120 -566h-157z" />
    <glyph glyph-name="icircumflex" unicode="&#xee;" horiz-adv-x="293" 
d="M-15 620l172 183h162l93 -183h-144l-50 86l-86 -86h-147zM-11 0l121 566h156l-120 -566h-157z" />
    <glyph glyph-name="idieresis" unicode="&#xef;" horiz-adv-x="293" 
d="M35 620l29 136h130l-29 -136h-130zM233 620l29 136h130l-29 -136h-130zM-11 0l121 566h156l-120 -566h-157z" />
    <glyph glyph-name="ntilde" unicode="&#xf1;" horiz-adv-x="644" 
d="M-17 0l118 557l125 9v-42c37 31 90 55 171 55c210 0 208 -114 179 -255l-70 -324h-156l65 307c14 70 25 124 -86 124c-85 0 -108 -48 -121 -112l-68 -319h-157zM475 620c-77 0 -121 54 -171 54c-27 0 -54 -20 -78 -48l-78 74c52 62 107 95 162 95c77 0 121 -54 171 -54
c26 0 51 19 77 49l78 -73c-54 -65 -108 -97 -161 -97z" />
    <glyph glyph-name="oacute" unicode="&#xf3;" horiz-adv-x="641" 
d="M268 620l180 183h194l-230 -183h-144zM272 -11c-190 0 -266 90 -266 225c0 32 4 65 11 100c41 190 147 265 317 265c190 0 266 -89 266 -223c0 -31 -5 -65 -12 -101c-40 -190 -145 -266 -316 -266zM281 123c91 0 129 49 149 144c5 23 8 46 8 66c0 61 -27 103 -114 103
c-92 0 -130 -50 -150 -146c-5 -23 -8 -45 -8 -66c0 -60 29 -101 115 -101z" />
    <glyph glyph-name="ograve" unicode="&#xf2;" horiz-adv-x="641" 
d="M272 -11c-190 0 -266 90 -266 225c0 32 4 65 11 100c41 190 147 265 317 265c190 0 266 -89 266 -223c0 -31 -5 -65 -12 -101c-40 -190 -145 -266 -316 -266zM281 123c91 0 129 49 149 144c5 23 8 46 8 66c0 61 -27 103 -114 103c-92 0 -130 -50 -150 -146
c-5 -23 -8 -45 -8 -66c0 -60 29 -101 115 -101zM340 620l-151 183h183l102 -183h-134z" />
    <glyph glyph-name="ocircumflex" unicode="&#xf4;" horiz-adv-x="641" 
d="M140 620l191 183h163l113 -183h-144l-70 86l-107 -86h-146zM272 -11c-190 0 -266 90 -266 225c0 32 4 65 11 100c41 190 147 265 317 265c190 0 266 -89 266 -223c0 -31 -5 -65 -12 -101c-40 -190 -145 -266 -316 -266zM281 123c91 0 129 49 149 144c5 23 8 46 8 66
c0 61 -27 103 -114 103c-92 0 -130 -50 -150 -146c-5 -23 -8 -45 -8 -66c0 -60 29 -101 115 -101z" />
    <glyph glyph-name="odieresis" unicode="&#xf6;" horiz-adv-x="641" 
d="M192 620l29 136h142l-29 -136h-142zM414 620l29 136h142l-29 -136h-142zM272 -11c-190 0 -266 90 -266 225c0 32 4 65 11 100c41 190 147 265 317 265c190 0 266 -89 266 -223c0 -31 -5 -65 -12 -101c-40 -190 -145 -266 -316 -266zM281 123c91 0 129 49 149 144
c5 23 8 46 8 66c0 61 -27 103 -114 103c-92 0 -130 -50 -150 -146c-5 -23 -8 -45 -8 -66c0 -60 29 -101 115 -101z" />
    <glyph glyph-name="otilde" unicode="&#xf5;" horiz-adv-x="641" 
d="M272 -11c-190 0 -266 90 -266 225c0 32 4 65 11 100c41 190 147 265 317 265c190 0 266 -89 266 -223c0 -31 -5 -65 -12 -101c-40 -190 -145 -266 -316 -266zM281 123c91 0 129 49 149 144c5 23 8 46 8 66c0 61 -27 103 -114 103c-92 0 -130 -50 -150 -146
c-5 -23 -8 -45 -8 -66c0 -60 29 -101 115 -101zM474 620c-77 0 -121 54 -171 54c-27 0 -54 -20 -78 -48l-78 74c52 62 107 95 162 95c77 0 121 -54 171 -54c26 0 51 19 77 49l78 -73c-54 -65 -108 -97 -161 -97z" />
    <glyph glyph-name="uacute" unicode="&#xfa;" horiz-adv-x="636" 
d="M266 620l180 183h194l-230 -183h-144zM267 -11c-234 0 -268 102 -227 296l60 281h157l-62 -293c-17 -83 -27 -146 86 -146c87 0 100 46 117 126l67 313h154l-68 -320c-42 -194 -101 -257 -284 -257z" />
    <glyph glyph-name="ugrave" unicode="&#xf9;" horiz-adv-x="636" 
d="M267 -11c-234 0 -268 102 -227 296l60 281h157l-62 -293c-17 -83 -27 -146 86 -146c87 0 100 46 117 126l67 313h154l-68 -320c-42 -194 -101 -257 -284 -257zM338 620l-151 183h183l102 -183h-134z" />
    <glyph glyph-name="ucircumflex" unicode="&#xfb;" horiz-adv-x="636" 
d="M138 620l191 183h163l113 -183h-144l-70 86l-107 -86h-146zM267 -11c-234 0 -268 102 -227 296l60 281h157l-62 -293c-17 -83 -27 -146 86 -146c87 0 100 46 117 126l67 313h154l-68 -320c-42 -194 -101 -257 -284 -257z" />
    <glyph glyph-name="udieresis" unicode="&#xfc;" horiz-adv-x="636" 
d="M190 620l29 136h142l-29 -136h-142zM412 620l29 136h142l-29 -136h-142zM267 -11c-234 0 -268 102 -227 296l60 281h157l-62 -293c-17 -83 -27 -146 86 -146c87 0 100 46 117 126l67 313h154l-68 -320c-42 -194 -101 -257 -284 -257z" />
    <glyph glyph-name="dagger" unicode="&#x2020;" horiz-adv-x="598" 
d="M108 -166l121 573h-174l30 141h174l49 228h155l-49 -228h175l-30 -141h-175l-121 -573h-155z" />
    <glyph glyph-name="degree" unicode="&#xb0;" horiz-adv-x="564" 
d="M284 267c-157 0 -218 92 -218 198c0 163 106 288 281 288c152 0 212 -95 212 -201c0 -164 -110 -285 -275 -285zM295 381c90 0 135 68 135 156c0 52 -26 94 -103 94c-89 0 -133 -71 -133 -158c0 -51 26 -92 101 -92z" />
    <glyph glyph-name="cent" unicode="&#xa2;" horiz-adv-x="570" 
d="M140 -94l21 99c-116 27 -155 105 -155 203c0 36 4 71 11 106c29 144 101 243 265 259l14 65h149l-15 -72c66 -15 106 -46 137 -85l-128 -101c-18 25 -45 55 -120 55c-81 0 -125 -43 -145 -145c-4 -21 -7 -44 -7 -66c0 -60 27 -101 112 -101c41 0 73 6 121 44l83 -99
c-56 -47 -113 -67 -174 -72l-19 -90h-150z" />
    <glyph glyph-name="sterling" unicode="&#xa3;" horiz-adv-x="652" 
d="M385 -7c-90 0 -153 21 -203 51c-50 -33 -122 -48 -225 -44l26 127c134 0 147 29 158 86c5 26 5 63 2 105h-122l25 120h90c-1 12 -1 23 -1 35c0 174 82 281 263 281c114 0 187 -28 242 -57l-85 -126c-39 24 -105 43 -165 43c-84 0 -103 -63 -103 -156v-20h172l-24 -120
h-144c1 -37 -1 -73 -7 -103c-5 -24 -12 -47 -20 -67c32 -14 70 -24 115 -24c58 0 64 11 81 90l6 28h136l-10 -49c-32 -155 -86 -200 -207 -200z" />
    <glyph glyph-name="section" unicode="&#xa7;" horiz-adv-x="606" 
d="M109 -5c-50 0 -79 1 -97 2l25 122h55c71 0 83 21 95 76l4 19c-95 21 -134 70 -134 136c0 129 86 174 197 182l3 14c24 114 71 199 234 199c50 0 79 -1 97 -2l-27 -128h-54c-72 0 -84 -24 -94 -70l-5 -22c98 -21 140 -72 140 -140c0 -133 -90 -173 -203 -179l-2 -9
c-24 -115 -71 -200 -234 -200zM313 296c64 0 106 13 106 74c0 37 -33 60 -126 60c-65 0 -108 -9 -108 -73c0 -36 32 -61 128 -61z" />
    <glyph glyph-name="bullet" unicode="&#x2022;" horiz-adv-x="388" 
d="M51 190l48 228h211l-48 -228h-211z" />
    <glyph glyph-name="paragraph" unicode="&#xb6;" horiz-adv-x="674" 
d="M146 0l54 256c-106 30 -140 97 -140 178c0 196 86 307 320 307h296l-158 -741h-148l51 239h-66h-10l-51 -239h-148zM356 364h91l52 241h-140c-86 0 -137 -43 -137 -151c0 -60 37 -90 134 -90z" />
    <glyph glyph-name="germandbls" unicode="&#xdf;" horiz-adv-x="672" 
d="M-51 -165l150 702c29 136 97 247 285 247c177 0 244 -68 244 -168c0 -110 -44 -190 -122 -214c71 -21 110 -65 110 -149c0 -187 -97 -253 -296 -253h-108l29 133h70c111 0 153 35 153 115c0 51 -41 74 -167 74l27 123c99 -1 145 27 145 117c0 40 -25 70 -100 70
c-69 0 -103 -37 -121 -119l-144 -678h-155z" />
    <glyph glyph-name="registered" unicode="&#xae;" horiz-adv-x="809" 
d="M405 -12c-248 0 -371 167 -371 383s123 383 371 383s371 -167 371 -383s-123 -383 -371 -383zM405 45c223 0 311 144 311 326s-88 326 -311 326c-224 0 -311 -144 -311 -326s87 -326 311 -326zM507 142l-86 157h-105v-157h-95v455h217c148 0 175 -60 175 -147
c0 -64 -16 -120 -95 -142l92 -166h-103zM316 381h119c60 0 80 14 80 66s-20 66 -81 66h-118v-132z" />
    <glyph glyph-name="copyright" unicode="&#xa9;" horiz-adv-x="809" 
d="M413 133c-167 0 -241 87 -241 243c0 169 99 243 248 243c82 0 139 -23 183 -68l-70 -71c-29 28 -65 44 -114 44c-96 0 -143 -51 -143 -149c0 -95 41 -150 144 -150c59 0 90 20 119 47l67 -66c-37 -39 -90 -73 -193 -73zM406 -12c-248 0 -372 167 -372 383
s124 383 372 383c247 0 371 -167 371 -383s-124 -383 -371 -383zM406 45c223 0 311 144 311 326s-88 326 -311 326c-224 0 -311 -144 -311 -326s87 -326 311 -326z" />
    <glyph glyph-name="trademark" unicode="&#x2122;" horiz-adv-x="1113" 
d="M482 281l99 460h132l54 -310l187 310h133l-98 -460h-114l56 267l-159 -267h-76l-45 267l-58 -267h-111zM178 281l76 356h-148l22 104h414l-22 -104h-149l-75 -356h-118z" />
    <glyph glyph-name="acute" unicode="&#xb4;" horiz-adv-x="590" 
d="M243 620l180 183h194l-230 -183h-144z" />
    <glyph glyph-name="dieresis" unicode="&#xa8;" horiz-adv-x="590" 
d="M167 620l29 136h142l-29 -136h-142zM389 620l29 136h142l-29 -136h-142z" />
    <glyph glyph-name="notequal" unicode="&#x2260;" horiz-adv-x="722" 
d="M94 57l70 104h-109l29 136h175l75 111h-227l29 135h285l71 105h129l-71 -105h111l-29 -135h-177l-75 -111h228l-28 -136h-287l-70 -104h-129z" />
    <glyph glyph-name="AE" unicode="&#xc6;" horiz-adv-x="1128" 
d="M-77 0l607 741h621l-31 -148h-373l-30 -144h362l-31 -143h-362l-35 -164h377l-31 -142h-533l27 127h-287l-105 -127h-176zM312 260h208l71 338z" />
    <glyph glyph-name="Oslash" unicode="&#xd8;" horiz-adv-x="841" 
d="M388 -12c-69 0 -129 9 -179 27l-45 -56h-154l96 118c-53 50 -81 122 -81 214c-1 37 4 77 13 121c59 277 239 341 418 341c65 0 122 -8 171 -25l44 55h153l-92 -115c54 -50 84 -122 84 -215c0 -37 -4 -77 -13 -119c-60 -279 -240 -346 -415 -346zM389 125
c145 0 223 71 255 221c6 30 10 60 10 87c0 43 -9 80 -31 110l-323 -407c25 -7 54 -11 89 -11zM185 304c0 -40 8 -76 26 -105l320 401c-24 6 -51 10 -83 10c-144 0 -222 -70 -253 -219c-6 -29 -10 -59 -10 -87z" />
    <glyph glyph-name="infinity" unicode="&#x221e;" horiz-adv-x="896" 
d="M249 165c-133 0 -200 67 -200 179c0 113 69 180 200 180c81 0 142 -46 195 -98c52 52 112 98 190 98c113 0 199 -49 199 -180c0 -129 -88 -179 -199 -179c-81 0 -142 45 -194 97c-53 -52 -114 -97 -191 -97zM253 279c38 0 74 28 111 64c-37 38 -72 67 -111 67
c-53 0 -81 -23 -81 -66c0 -42 26 -65 81 -65zM631 410c-39 0 -74 -28 -111 -65c36 -37 72 -66 111 -66c45 0 79 15 79 65c0 52 -33 66 -79 66z" />
    <glyph glyph-name="plusminus" unicode="&#xb1;" horiz-adv-x="722" 
d="M16 6l30 140h190l29 136h-191l31 141h190l40 189h156l-40 -189h190l-30 -141h-190l-29 -136h190l-30 -140h-536z" />
    <glyph glyph-name="lessequal" unicode="&#x2264;" horiz-adv-x="722" 
d="M34 6l28 135h351l-314 168l21 100l508 220l-30 -143l-326 -131l270 -131l-29 -136h-1l-17 -82h-461z" />
    <glyph glyph-name="greaterequal" unicode="&#x2265;" horiz-adv-x="722" 
d="M73 6l28 135h1l17 83l326 132l-270 131l30 142l415 -220l-21 -100l-386 -168h350l-29 -135h-461z" />
    <glyph glyph-name="yen" unicode="&#xa5;" horiz-adv-x="663" 
d="M44 229l22 110h174l-152 402h165l95 -282l216 282h168l-324 -402h172l-23 -110h-179l-13 -58h179l-22 -110h-180l-13 -61h-155l13 61h-178l22 110h179l13 58h-179z" />
    <glyph glyph-name="mu" unicode="&#xb5;" horiz-adv-x="640" 
d="M-51 -165l155 731h157l-62 -293c-17 -83 -31 -146 88 -146c90 0 98 46 115 126l67 313h154l-68 -320c-42 -194 -108 -257 -284 -257c-61 0 -103 16 -124 38l-41 -192h-157z" />
    <glyph glyph-name="mu" unicode="&#x3bc;" horiz-adv-x="640" 
d="M-51 -165l155 731h157l-62 -293c-17 -83 -31 -146 88 -146c90 0 98 46 115 126l67 313h154l-68 -320c-42 -194 -108 -257 -284 -257c-61 0 -103 16 -124 38l-41 -192h-157z" />
    <glyph glyph-name="partialdiff" unicode="&#x2202;" horiz-adv-x="832" 
d="M126 120c-56 67 -90 155 -90 251c0 95 34 183 90 250c0 0 3 -2 7 -6c-54 -66 -87 -151 -87 -244s33 -178 88 -244c-5 -4 -8 -7 -8 -7zM228 211c-35 43 -57 99 -57 160s21 116 56 160c3 -2 5 -5 8 -7c-33 -41 -54 -95 -54 -153s20 -112 54 -153c-2 -3 -5 -5 -7 -7z
M264 243c-28 35 -45 79 -45 128c0 48 17 93 45 128c3 -2 5 -5 8 -7c-27 -33 -43 -75 -43 -121s16 -88 43 -121c-3 -2 -5 -5 -8 -7zM316 289c-18 23 -28 51 -28 82s10 59 28 81c2 -2 5 -4 7 -7c-15 -20 -25 -46 -25 -74s10 -54 26 -75c-3 -2 -5 -5 -8 -7zM349 320
c-10 14 -16 32 -16 51s6 37 16 51c3 -2 5 -5 8 -7c-9 -13 -14 -28 -14 -44s5 -31 14 -44c-3 -2 -5 -4 -8 -7zM378 346c-4 7 -7 16 -7 25s3 18 7 25c4 -3 6 -5 6 -5c-3 -6 -5 -13 -5 -20s2 -14 5 -20c0 0 -2 -2 -6 -5zM416 60c-78 0 -148 29 -201 77c0 0 7 8 7 7
c52 -46 120 -74 194 -74s142 28 193 74c2 -3 5 -5 7 -8c-53 -47 -123 -76 -200 -76zM416 324c-10 0 -19 3 -27 9c2 1 6 6 6 6c6 -4 13 -7 21 -7s15 2 21 7c0 0 2 -2 5 -6c-7 -6 -16 -9 -26 -9zM482 319c-2 3 -4 5 -7 7c9 13 14 29 14 45c0 17 -5 32 -14 44c0 0 8 7 7 7
c11 -14 17 -32 17 -51s-6 -37 -17 -52zM292 269c-22 28 -35 64 -35 102c0 39 13 74 36 102l7 -7c-20 -26 -33 -59 -33 -95s13 -69 33 -95c-2 -2 -5 -5 -8 -7zM416 -17c-96 0 -185 37 -252 97l7 8c65 -59 151 -95 245 -95s179 36 244 94c0 1 7 -7 7 -7
c-67 -61 -155 -97 -251 -97zM416 121c-62 0 -118 23 -161 61l7 8c41 -37 95 -59 154 -59s113 22 153 59c2 -3 5 -5 7 -8c-42 -38 -98 -61 -160 -61zM416 170c-49 0 -94 19 -129 49l7 7c33 -29 75 -46 122 -46c46 0 89 17 121 46c2 -3 5 -5 7 -8c-34 -30 -79 -48 -128 -48z
M416 209c-39 0 -75 15 -103 38l7 8c26 -22 60 -36 96 -36s70 14 96 36c2 -2 4 -5 6 -8c-27 -23 -63 -38 -102 -38zM416 265c-25 0 -48 9 -66 24l7 8c16 -14 37 -22 59 -22s42 8 58 22c2 -3 5 -5 7 -8c-18 -15 -40 -24 -65 -24zM358 445c-4 3 -7 7 -8 8c18 15 41 24 66 24
s48 -9 66 -24l-8 -8c-16 14 -36 22 -58 22s-42 -8 -58 -22zM570 552c-41 37 -95 59 -154 59s-112 -22 -153 -58l-7 7c43 38 99 61 160 61c62 0 118 -23 161 -61c-2 -3 -5 -6 -7 -8zM454 346c-4 3 -6 5 -6 5c3 6 5 13 5 20s-2 14 -5 20l6 5c4 -7 7 -16 7 -25s-3 -18 -7 -25z
M468 333c-3 3 -5 5 -8 7c6 9 10 20 10 31s-4 22 -10 31l8 7c8 -11 12 -24 12 -38s-4 -27 -12 -38zM498 306c-3 2 -6 5 -8 7c12 16 19 36 19 58s-7 42 -19 58l7 7c14 -18 22 -41 22 -65s-8 -46 -21 -65zM540 269c-3 2 -5 5 -8 7c20 26 33 59 33 95s-13 69 -34 95l8 7
c23 -28 36 -63 36 -102s-13 -74 -35 -102zM568 243c-2 2 -5 5 -8 7c27 33 43 75 43 121s-16 88 -43 121l8 7c28 -35 45 -79 45 -128s-17 -93 -45 -128zM604 211c0 0 -3 2 -8 7c35 42 55 95 55 153s-20 112 -55 153l8 7c36 -43 57 -99 57 -160s-21 -117 -57 -160zM649 171
c-2 2 -5 4 -7 6c43 53 69 120 69 194s-26 141 -70 193l8 7c45 -54 72 -124 72 -200s-27 -146 -72 -200zM706 120c0 0 -3 3 -8 7c55 66 88 151 88 244s-33 178 -88 244l8 7c56 -67 90 -155 90 -251c0 -95 -34 -183 -90 -251zM183 170c-45 55 -72 124 -72 201
c0 76 27 146 71 200c2 -2 5 -4 8 -7c-43 -52 -69 -120 -69 -193c0 -74 26 -142 69 -194zM334 306c-13 18 -21 40 -21 65c0 24 8 47 21 65c3 -2 6 -5 8 -7c-12 -16 -19 -36 -19 -58c0 -21 7 -41 19 -57zM364 333c-8 11 -12 24 -12 38s4 27 12 38c2 -3 5 -5 7 -7
c-5 -9 -9 -20 -9 -31s4 -22 9 -31zM395 403l-5 6c7 6 16 9 26 9s19 -3 26 -9c-3 -3 -5 -6 -5 -6c-6 4 -13 7 -21 7s-15 -2 -21 -7zM384 416l-7 7c11 9 24 14 39 14c14 0 27 -5 38 -14c-2 -2 -4 -4 -6 -7c-9 8 -20 12 -32 12s-23 -5 -32 -12zM371 430l-7 8c14 12 33 19 52 19
c20 0 38 -7 52 -19c-4 -4 -7 -8 -7 -8c-12 11 -28 17 -45 17s-33 -6 -45 -17zM295 516l-7 8c34 30 79 48 128 48s94 -18 128 -49c1 0 -6 -7 -6 -7c-33 29 -76 46 -122 46s-89 -17 -121 -46zM416 240c-32 0 -61 11 -83 30l7 8c21 -17 48 -28 76 -28c29 0 55 11 75 28l7 -7
c-22 -19 -50 -31 -82 -31zM416 285c-20 0 -38 7 -53 19l7 8c13 -10 29 -17 46 -17s32 6 45 17l7 -8c-14 -12 -32 -19 -52 -19zM416 305c-15 0 -28 5 -40 14l7 7c10 -7 21 -12 33 -12s23 5 32 12l7 -7c-11 -9 -25 -14 -39 -14zM341 464l-7 7c22 19 51 31 82 31s60 -11 82 -30
l-7 -8c-20 17 -46 28 -75 28c-28 0 -54 -10 -75 -28zM320 487l-7 8c28 24 64 38 103 38s75 -15 102 -39l-6 -7c-26 23 -59 36 -96 36c-36 0 -70 -14 -96 -36zM610 597c-51 47 -119 75 -194 75c-74 0 -142 -28 -194 -74l-7 7c54 48 124 77 201 77s147 -29 201 -77zM172 654
l-7 8c67 61 155 97 251 97s185 -37 252 -97l-7 -8c-65 59 -151 95 -245 95s-179 -36 -244 -95zM516 290l-7 7c15 20 25 46 25 74s-10 54 -26 75l8 7c18 -23 28 -51 28 -82s-10 -59 -28 -81z" />
    <glyph glyph-name="summation" unicode="&#x2211;" horiz-adv-x="832" 
d="M126 120c-56 67 -90 155 -90 251c0 95 34 183 90 250c0 0 3 -2 7 -6c-54 -66 -87 -151 -87 -244s33 -178 88 -244c-5 -4 -8 -7 -8 -7zM228 211c-35 43 -57 99 -57 160s21 116 56 160c3 -2 5 -5 8 -7c-33 -41 -54 -95 -54 -153s20 -112 54 -153c-2 -3 -5 -5 -7 -7z
M264 243c-28 35 -45 79 -45 128c0 48 17 93 45 128c3 -2 5 -5 8 -7c-27 -33 -43 -75 -43 -121s16 -88 43 -121c-3 -2 -5 -5 -8 -7zM316 289c-18 23 -28 51 -28 82s10 59 28 81c2 -2 5 -4 7 -7c-15 -20 -25 -46 -25 -74s10 -54 26 -75c-3 -2 -5 -5 -8 -7zM349 320
c-10 14 -16 32 -16 51s6 37 16 51c3 -2 5 -5 8 -7c-9 -13 -14 -28 -14 -44s5 -31 14 -44c-3 -2 -5 -4 -8 -7zM378 346c-4 7 -7 16 -7 25s3 18 7 25c4 -3 6 -5 6 -5c-3 -6 -5 -13 -5 -20s2 -14 5 -20c0 0 -2 -2 -6 -5zM416 60c-78 0 -148 29 -201 77c0 0 7 8 7 7
c52 -46 120 -74 194 -74s142 28 193 74c2 -3 5 -5 7 -8c-53 -47 -123 -76 -200 -76zM416 324c-10 0 -19 3 -27 9c2 1 6 6 6 6c6 -4 13 -7 21 -7s15 2 21 7c0 0 2 -2 5 -6c-7 -6 -16 -9 -26 -9zM482 319c-2 3 -4 5 -7 7c9 13 14 29 14 45c0 17 -5 32 -14 44c0 0 8 7 7 7
c11 -14 17 -32 17 -51s-6 -37 -17 -52zM292 269c-22 28 -35 64 -35 102c0 39 13 74 36 102l7 -7c-20 -26 -33 -59 -33 -95s13 -69 33 -95c-2 -2 -5 -5 -8 -7zM416 -17c-96 0 -185 37 -252 97l7 8c65 -59 151 -95 245 -95s179 36 244 94c0 1 7 -7 7 -7
c-67 -61 -155 -97 -251 -97zM416 121c-62 0 -118 23 -161 61l7 8c41 -37 95 -59 154 -59s113 22 153 59c2 -3 5 -5 7 -8c-42 -38 -98 -61 -160 -61zM416 170c-49 0 -94 19 -129 49l7 7c33 -29 75 -46 122 -46c46 0 89 17 121 46c2 -3 5 -5 7 -8c-34 -30 -79 -48 -128 -48z
M416 209c-39 0 -75 15 -103 38l7 8c26 -22 60 -36 96 -36s70 14 96 36c2 -2 4 -5 6 -8c-27 -23 -63 -38 -102 -38zM416 265c-25 0 -48 9 -66 24l7 8c16 -14 37 -22 59 -22s42 8 58 22c2 -3 5 -5 7 -8c-18 -15 -40 -24 -65 -24zM358 445c-4 3 -7 7 -8 8c18 15 41 24 66 24
s48 -9 66 -24l-8 -8c-16 14 -36 22 -58 22s-42 -8 -58 -22zM570 552c-41 37 -95 59 -154 59s-112 -22 -153 -58l-7 7c43 38 99 61 160 61c62 0 118 -23 161 -61c-2 -3 -5 -6 -7 -8zM454 346c-4 3 -6 5 -6 5c3 6 5 13 5 20s-2 14 -5 20l6 5c4 -7 7 -16 7 -25s-3 -18 -7 -25z
M468 333c-3 3 -5 5 -8 7c6 9 10 20 10 31s-4 22 -10 31l8 7c8 -11 12 -24 12 -38s-4 -27 -12 -38zM498 306c-3 2 -6 5 -8 7c12 16 19 36 19 58s-7 42 -19 58l7 7c14 -18 22 -41 22 -65s-8 -46 -21 -65zM540 269c-3 2 -5 5 -8 7c20 26 33 59 33 95s-13 69 -34 95l8 7
c23 -28 36 -63 36 -102s-13 -74 -35 -102zM568 243c-2 2 -5 5 -8 7c27 33 43 75 43 121s-16 88 -43 121l8 7c28 -35 45 -79 45 -128s-17 -93 -45 -128zM604 211c0 0 -3 2 -8 7c35 42 55 95 55 153s-20 112 -55 153l8 7c36 -43 57 -99 57 -160s-21 -117 -57 -160zM649 171
c-2 2 -5 4 -7 6c43 53 69 120 69 194s-26 141 -70 193l8 7c45 -54 72 -124 72 -200s-27 -146 -72 -200zM706 120c0 0 -3 3 -8 7c55 66 88 151 88 244s-33 178 -88 244l8 7c56 -67 90 -155 90 -251c0 -95 -34 -183 -90 -251zM183 170c-45 55 -72 124 -72 201
c0 76 27 146 71 200c2 -2 5 -4 8 -7c-43 -52 -69 -120 -69 -193c0 -74 26 -142 69 -194zM334 306c-13 18 -21 40 -21 65c0 24 8 47 21 65c3 -2 6 -5 8 -7c-12 -16 -19 -36 -19 -58c0 -21 7 -41 19 -57zM364 333c-8 11 -12 24 -12 38s4 27 12 38c2 -3 5 -5 7 -7
c-5 -9 -9 -20 -9 -31s4 -22 9 -31zM395 403l-5 6c7 6 16 9 26 9s19 -3 26 -9c-3 -3 -5 -6 -5 -6c-6 4 -13 7 -21 7s-15 -2 -21 -7zM384 416l-7 7c11 9 24 14 39 14c14 0 27 -5 38 -14c-2 -2 -4 -4 -6 -7c-9 8 -20 12 -32 12s-23 -5 -32 -12zM371 430l-7 8c14 12 33 19 52 19
c20 0 38 -7 52 -19c-4 -4 -7 -8 -7 -8c-12 11 -28 17 -45 17s-33 -6 -45 -17zM295 516l-7 8c34 30 79 48 128 48s94 -18 128 -49c1 0 -6 -7 -6 -7c-33 29 -76 46 -122 46s-89 -17 -121 -46zM416 240c-32 0 -61 11 -83 30l7 8c21 -17 48 -28 76 -28c29 0 55 11 75 28l7 -7
c-22 -19 -50 -31 -82 -31zM416 285c-20 0 -38 7 -53 19l7 8c13 -10 29 -17 46 -17s32 6 45 17l7 -8c-14 -12 -32 -19 -52 -19zM416 305c-15 0 -28 5 -40 14l7 7c10 -7 21 -12 33 -12s23 5 32 12l7 -7c-11 -9 -25 -14 -39 -14zM341 464l-7 7c22 19 51 31 82 31s60 -11 82 -30
l-7 -8c-20 17 -46 28 -75 28c-28 0 -54 -10 -75 -28zM320 487l-7 8c28 24 64 38 103 38s75 -15 102 -39l-6 -7c-26 23 -59 36 -96 36c-36 0 -70 -14 -96 -36zM610 597c-51 47 -119 75 -194 75c-74 0 -142 -28 -194 -74l-7 7c54 48 124 77 201 77s147 -29 201 -77zM172 654
l-7 8c67 61 155 97 251 97s185 -37 252 -97l-7 -8c-65 59 -151 95 -245 95s-179 -36 -244 -95zM516 290l-7 7c15 20 25 46 25 74s-10 54 -26 75l8 7c18 -23 28 -51 28 -82s-10 -59 -28 -81z" />
    <glyph glyph-name="product" unicode="&#x220f;" horiz-adv-x="832" 
d="M126 120c-56 67 -90 155 -90 251c0 95 34 183 90 250c0 0 3 -2 7 -6c-54 -66 -87 -151 -87 -244s33 -178 88 -244c-5 -4 -8 -7 -8 -7zM228 211c-35 43 -57 99 -57 160s21 116 56 160c3 -2 5 -5 8 -7c-33 -41 -54 -95 -54 -153s20 -112 54 -153c-2 -3 -5 -5 -7 -7z
M264 243c-28 35 -45 79 -45 128c0 48 17 93 45 128c3 -2 5 -5 8 -7c-27 -33 -43 -75 -43 -121s16 -88 43 -121c-3 -2 -5 -5 -8 -7zM316 289c-18 23 -28 51 -28 82s10 59 28 81c2 -2 5 -4 7 -7c-15 -20 -25 -46 -25 -74s10 -54 26 -75c-3 -2 -5 -5 -8 -7zM349 320
c-10 14 -16 32 -16 51s6 37 16 51c3 -2 5 -5 8 -7c-9 -13 -14 -28 -14 -44s5 -31 14 -44c-3 -2 -5 -4 -8 -7zM378 346c-4 7 -7 16 -7 25s3 18 7 25c4 -3 6 -5 6 -5c-3 -6 -5 -13 -5 -20s2 -14 5 -20c0 0 -2 -2 -6 -5zM416 60c-78 0 -148 29 -201 77c0 0 7 8 7 7
c52 -46 120 -74 194 -74s142 28 193 74c2 -3 5 -5 7 -8c-53 -47 -123 -76 -200 -76zM416 324c-10 0 -19 3 -27 9c2 1 6 6 6 6c6 -4 13 -7 21 -7s15 2 21 7c0 0 2 -2 5 -6c-7 -6 -16 -9 -26 -9zM482 319c-2 3 -4 5 -7 7c9 13 14 29 14 45c0 17 -5 32 -14 44c0 0 8 7 7 7
c11 -14 17 -32 17 -51s-6 -37 -17 -52zM292 269c-22 28 -35 64 -35 102c0 39 13 74 36 102l7 -7c-20 -26 -33 -59 -33 -95s13 -69 33 -95c-2 -2 -5 -5 -8 -7zM416 -17c-96 0 -185 37 -252 97l7 8c65 -59 151 -95 245 -95s179 36 244 94c0 1 7 -7 7 -7
c-67 -61 -155 -97 -251 -97zM416 121c-62 0 -118 23 -161 61l7 8c41 -37 95 -59 154 -59s113 22 153 59c2 -3 5 -5 7 -8c-42 -38 -98 -61 -160 -61zM416 170c-49 0 -94 19 -129 49l7 7c33 -29 75 -46 122 -46c46 0 89 17 121 46c2 -3 5 -5 7 -8c-34 -30 -79 -48 -128 -48z
M416 209c-39 0 -75 15 -103 38l7 8c26 -22 60 -36 96 -36s70 14 96 36c2 -2 4 -5 6 -8c-27 -23 -63 -38 -102 -38zM416 265c-25 0 -48 9 -66 24l7 8c16 -14 37 -22 59 -22s42 8 58 22c2 -3 5 -5 7 -8c-18 -15 -40 -24 -65 -24zM358 445c-4 3 -7 7 -8 8c18 15 41 24 66 24
s48 -9 66 -24l-8 -8c-16 14 -36 22 -58 22s-42 -8 -58 -22zM570 552c-41 37 -95 59 -154 59s-112 -22 -153 -58l-7 7c43 38 99 61 160 61c62 0 118 -23 161 -61c-2 -3 -5 -6 -7 -8zM454 346c-4 3 -6 5 -6 5c3 6 5 13 5 20s-2 14 -5 20l6 5c4 -7 7 -16 7 -25s-3 -18 -7 -25z
M468 333c-3 3 -5 5 -8 7c6 9 10 20 10 31s-4 22 -10 31l8 7c8 -11 12 -24 12 -38s-4 -27 -12 -38zM498 306c-3 2 -6 5 -8 7c12 16 19 36 19 58s-7 42 -19 58l7 7c14 -18 22 -41 22 -65s-8 -46 -21 -65zM540 269c-3 2 -5 5 -8 7c20 26 33 59 33 95s-13 69 -34 95l8 7
c23 -28 36 -63 36 -102s-13 -74 -35 -102zM568 243c-2 2 -5 5 -8 7c27 33 43 75 43 121s-16 88 -43 121l8 7c28 -35 45 -79 45 -128s-17 -93 -45 -128zM604 211c0 0 -3 2 -8 7c35 42 55 95 55 153s-20 112 -55 153l8 7c36 -43 57 -99 57 -160s-21 -117 -57 -160zM649 171
c-2 2 -5 4 -7 6c43 53 69 120 69 194s-26 141 -70 193l8 7c45 -54 72 -124 72 -200s-27 -146 -72 -200zM706 120c0 0 -3 3 -8 7c55 66 88 151 88 244s-33 178 -88 244l8 7c56 -67 90 -155 90 -251c0 -95 -34 -183 -90 -251zM183 170c-45 55 -72 124 -72 201
c0 76 27 146 71 200c2 -2 5 -4 8 -7c-43 -52 -69 -120 -69 -193c0 -74 26 -142 69 -194zM334 306c-13 18 -21 40 -21 65c0 24 8 47 21 65c3 -2 6 -5 8 -7c-12 -16 -19 -36 -19 -58c0 -21 7 -41 19 -57zM364 333c-8 11 -12 24 -12 38s4 27 12 38c2 -3 5 -5 7 -7
c-5 -9 -9 -20 -9 -31s4 -22 9 -31zM395 403l-5 6c7 6 16 9 26 9s19 -3 26 -9c-3 -3 -5 -6 -5 -6c-6 4 -13 7 -21 7s-15 -2 -21 -7zM384 416l-7 7c11 9 24 14 39 14c14 0 27 -5 38 -14c-2 -2 -4 -4 -6 -7c-9 8 -20 12 -32 12s-23 -5 -32 -12zM371 430l-7 8c14 12 33 19 52 19
c20 0 38 -7 52 -19c-4 -4 -7 -8 -7 -8c-12 11 -28 17 -45 17s-33 -6 -45 -17zM295 516l-7 8c34 30 79 48 128 48s94 -18 128 -49c1 0 -6 -7 -6 -7c-33 29 -76 46 -122 46s-89 -17 -121 -46zM416 240c-32 0 -61 11 -83 30l7 8c21 -17 48 -28 76 -28c29 0 55 11 75 28l7 -7
c-22 -19 -50 -31 -82 -31zM416 285c-20 0 -38 7 -53 19l7 8c13 -10 29 -17 46 -17s32 6 45 17l7 -8c-14 -12 -32 -19 -52 -19zM416 305c-15 0 -28 5 -40 14l7 7c10 -7 21 -12 33 -12s23 5 32 12l7 -7c-11 -9 -25 -14 -39 -14zM341 464l-7 7c22 19 51 31 82 31s60 -11 82 -30
l-7 -8c-20 17 -46 28 -75 28c-28 0 -54 -10 -75 -28zM320 487l-7 8c28 24 64 38 103 38s75 -15 102 -39l-6 -7c-26 23 -59 36 -96 36c-36 0 -70 -14 -96 -36zM610 597c-51 47 -119 75 -194 75c-74 0 -142 -28 -194 -74l-7 7c54 48 124 77 201 77s147 -29 201 -77zM172 654
l-7 8c67 61 155 97 251 97s185 -37 252 -97l-7 -8c-65 59 -151 95 -245 95s-179 -36 -244 -95zM516 290l-7 7c15 20 25 46 25 74s-10 54 -26 75l8 7c18 -23 28 -51 28 -82s-10 -59 -28 -81z" />
    <glyph glyph-name="pi" unicode="&#x3c0;" horiz-adv-x="809" 
d="M406 -12c-248 0 -372 167 -372 383s124 383 372 383c247 0 371 -167 371 -383s-124 -383 -371 -383zM406 45c223 0 311 144 311 326s-88 326 -311 326c-224 0 -311 -144 -311 -326s87 -326 311 -326zM225 130v475h226c153 0 187 -61 187 -158s-32 -166 -192 -166h-121
v-151h-100zM325 367h125c63 0 85 20 85 75c0 56 -21 74 -86 74h-124v-149z" />
    <glyph glyph-name="integral" unicode="&#x222b;" horiz-adv-x="832" 
d="M126 120c-56 67 -90 155 -90 251c0 95 34 183 90 250c0 0 3 -2 7 -6c-54 -66 -87 -151 -87 -244s33 -178 88 -244c-5 -4 -8 -7 -8 -7zM228 211c-35 43 -57 99 -57 160s21 116 56 160c3 -2 5 -5 8 -7c-33 -41 -54 -95 -54 -153s20 -112 54 -153c-2 -3 -5 -5 -7 -7z
M264 243c-28 35 -45 79 -45 128c0 48 17 93 45 128c3 -2 5 -5 8 -7c-27 -33 -43 -75 -43 -121s16 -88 43 -121c-3 -2 -5 -5 -8 -7zM316 289c-18 23 -28 51 -28 82s10 59 28 81c2 -2 5 -4 7 -7c-15 -20 -25 -46 -25 -74s10 -54 26 -75c-3 -2 -5 -5 -8 -7zM349 320
c-10 14 -16 32 -16 51s6 37 16 51c3 -2 5 -5 8 -7c-9 -13 -14 -28 -14 -44s5 -31 14 -44c-3 -2 -5 -4 -8 -7zM378 346c-4 7 -7 16 -7 25s3 18 7 25c4 -3 6 -5 6 -5c-3 -6 -5 -13 -5 -20s2 -14 5 -20c0 0 -2 -2 -6 -5zM416 60c-78 0 -148 29 -201 77c0 0 7 8 7 7
c52 -46 120 -74 194 -74s142 28 193 74c2 -3 5 -5 7 -8c-53 -47 -123 -76 -200 -76zM416 324c-10 0 -19 3 -27 9c2 1 6 6 6 6c6 -4 13 -7 21 -7s15 2 21 7c0 0 2 -2 5 -6c-7 -6 -16 -9 -26 -9zM482 319c-2 3 -4 5 -7 7c9 13 14 29 14 45c0 17 -5 32 -14 44c0 0 8 7 7 7
c11 -14 17 -32 17 -51s-6 -37 -17 -52zM292 269c-22 28 -35 64 -35 102c0 39 13 74 36 102l7 -7c-20 -26 -33 -59 -33 -95s13 -69 33 -95c-2 -2 -5 -5 -8 -7zM416 -17c-96 0 -185 37 -252 97l7 8c65 -59 151 -95 245 -95s179 36 244 94c0 1 7 -7 7 -7
c-67 -61 -155 -97 -251 -97zM416 121c-62 0 -118 23 -161 61l7 8c41 -37 95 -59 154 -59s113 22 153 59c2 -3 5 -5 7 -8c-42 -38 -98 -61 -160 -61zM416 170c-49 0 -94 19 -129 49l7 7c33 -29 75 -46 122 -46c46 0 89 17 121 46c2 -3 5 -5 7 -8c-34 -30 -79 -48 -128 -48z
M416 209c-39 0 -75 15 -103 38l7 8c26 -22 60 -36 96 -36s70 14 96 36c2 -2 4 -5 6 -8c-27 -23 -63 -38 -102 -38zM416 265c-25 0 -48 9 -66 24l7 8c16 -14 37 -22 59 -22s42 8 58 22c2 -3 5 -5 7 -8c-18 -15 -40 -24 -65 -24zM358 445c-4 3 -7 7 -8 8c18 15 41 24 66 24
s48 -9 66 -24l-8 -8c-16 14 -36 22 -58 22s-42 -8 -58 -22zM570 552c-41 37 -95 59 -154 59s-112 -22 -153 -58l-7 7c43 38 99 61 160 61c62 0 118 -23 161 -61c-2 -3 -5 -6 -7 -8zM454 346c-4 3 -6 5 -6 5c3 6 5 13 5 20s-2 14 -5 20l6 5c4 -7 7 -16 7 -25s-3 -18 -7 -25z
M468 333c-3 3 -5 5 -8 7c6 9 10 20 10 31s-4 22 -10 31l8 7c8 -11 12 -24 12 -38s-4 -27 -12 -38zM498 306c-3 2 -6 5 -8 7c12 16 19 36 19 58s-7 42 -19 58l7 7c14 -18 22 -41 22 -65s-8 -46 -21 -65zM540 269c-3 2 -5 5 -8 7c20 26 33 59 33 95s-13 69 -34 95l8 7
c23 -28 36 -63 36 -102s-13 -74 -35 -102zM568 243c-2 2 -5 5 -8 7c27 33 43 75 43 121s-16 88 -43 121l8 7c28 -35 45 -79 45 -128s-17 -93 -45 -128zM604 211c0 0 -3 2 -8 7c35 42 55 95 55 153s-20 112 -55 153l8 7c36 -43 57 -99 57 -160s-21 -117 -57 -160zM649 171
c-2 2 -5 4 -7 6c43 53 69 120 69 194s-26 141 -70 193l8 7c45 -54 72 -124 72 -200s-27 -146 -72 -200zM706 120c0 0 -3 3 -8 7c55 66 88 151 88 244s-33 178 -88 244l8 7c56 -67 90 -155 90 -251c0 -95 -34 -183 -90 -251zM183 170c-45 55 -72 124 -72 201
c0 76 27 146 71 200c2 -2 5 -4 8 -7c-43 -52 -69 -120 -69 -193c0 -74 26 -142 69 -194zM334 306c-13 18 -21 40 -21 65c0 24 8 47 21 65c3 -2 6 -5 8 -7c-12 -16 -19 -36 -19 -58c0 -21 7 -41 19 -57zM364 333c-8 11 -12 24 -12 38s4 27 12 38c2 -3 5 -5 7 -7
c-5 -9 -9 -20 -9 -31s4 -22 9 -31zM395 403l-5 6c7 6 16 9 26 9s19 -3 26 -9c-3 -3 -5 -6 -5 -6c-6 4 -13 7 -21 7s-15 -2 -21 -7zM384 416l-7 7c11 9 24 14 39 14c14 0 27 -5 38 -14c-2 -2 -4 -4 -6 -7c-9 8 -20 12 -32 12s-23 -5 -32 -12zM371 430l-7 8c14 12 33 19 52 19
c20 0 38 -7 52 -19c-4 -4 -7 -8 -7 -8c-12 11 -28 17 -45 17s-33 -6 -45 -17zM295 516l-7 8c34 30 79 48 128 48s94 -18 128 -49c1 0 -6 -7 -6 -7c-33 29 -76 46 -122 46s-89 -17 -121 -46zM416 240c-32 0 -61 11 -83 30l7 8c21 -17 48 -28 76 -28c29 0 55 11 75 28l7 -7
c-22 -19 -50 -31 -82 -31zM416 285c-20 0 -38 7 -53 19l7 8c13 -10 29 -17 46 -17s32 6 45 17l7 -8c-14 -12 -32 -19 -52 -19zM416 305c-15 0 -28 5 -40 14l7 7c10 -7 21 -12 33 -12s23 5 32 12l7 -7c-11 -9 -25 -14 -39 -14zM341 464l-7 7c22 19 51 31 82 31s60 -11 82 -30
l-7 -8c-20 17 -46 28 -75 28c-28 0 -54 -10 -75 -28zM320 487l-7 8c28 24 64 38 103 38s75 -15 102 -39l-6 -7c-26 23 -59 36 -96 36c-36 0 -70 -14 -96 -36zM610 597c-51 47 -119 75 -194 75c-74 0 -142 -28 -194 -74l-7 7c54 48 124 77 201 77s147 -29 201 -77zM172 654
l-7 8c67 61 155 97 251 97s185 -37 252 -97l-7 -8c-65 59 -151 95 -245 95s-179 -36 -244 -95zM516 290l-7 7c15 20 25 46 25 74s-10 54 -26 75l8 7c18 -23 28 -51 28 -82s-10 -59 -28 -81z" />
    <glyph glyph-name="ordfeminine" unicode="&#xaa;" horiz-adv-x="597" 
d="M225 276c-127 0 -162 53 -162 121c0 156 114 181 279 181h59c2 10 3 19 3 27c0 24 -17 36 -89 36c-35 0 -88 -12 -119 -27l-45 96c37 23 107 43 189 43c193 0 207 -67 179 -197l-27 -125c-7 -32 -7 -42 31 -42l-22 -104c-9 -2 -27 -3 -54 -3c-29 0 -49 4 -61 17
c-8 8 -13 20 -15 37c-31 -38 -85 -60 -146 -60zM48 116l23 111h376l-23 -111h-376zM269 380c56 0 91 18 108 94l4 18h-60c-91 0 -130 -9 -130 -73c0 -25 17 -39 78 -39z" />
    <glyph glyph-name="ordmasculine" unicode="&#xba;" horiz-adv-x="591" 
d="M312 276c-162 0 -226 73 -226 184c1 178 100 293 251 293c164 0 228 -73 228 -184c0 -180 -97 -293 -253 -293zM311 386c79 0 122 64 122 164c0 52 -24 86 -95 86c-76 0 -121 -67 -121 -166c0 -51 25 -84 94 -84zM41 114l24 112h400l-24 -112h-400z" />
    <glyph glyph-name="Omega" unicode="&#x3a9;" horiz-adv-x="832" 
d="M126 120c-56 67 -90 155 -90 251c0 95 34 183 90 250c0 0 3 -2 7 -6c-54 -66 -87 -151 -87 -244s33 -178 88 -244c-5 -4 -8 -7 -8 -7zM228 211c-35 43 -57 99 -57 160s21 116 56 160c3 -2 5 -5 8 -7c-33 -41 -54 -95 -54 -153s20 -112 54 -153c-2 -3 -5 -5 -7 -7z
M264 243c-28 35 -45 79 -45 128c0 48 17 93 45 128c3 -2 5 -5 8 -7c-27 -33 -43 -75 -43 -121s16 -88 43 -121c-3 -2 -5 -5 -8 -7zM316 289c-18 23 -28 51 -28 82s10 59 28 81c2 -2 5 -4 7 -7c-15 -20 -25 -46 -25 -74s10 -54 26 -75c-3 -2 -5 -5 -8 -7zM349 320
c-10 14 -16 32 -16 51s6 37 16 51c3 -2 5 -5 8 -7c-9 -13 -14 -28 -14 -44s5 -31 14 -44c-3 -2 -5 -4 -8 -7zM378 346c-4 7 -7 16 -7 25s3 18 7 25c4 -3 6 -5 6 -5c-3 -6 -5 -13 -5 -20s2 -14 5 -20c0 0 -2 -2 -6 -5zM416 60c-78 0 -148 29 -201 77c0 0 7 8 7 7
c52 -46 120 -74 194 -74s142 28 193 74c2 -3 5 -5 7 -8c-53 -47 -123 -76 -200 -76zM416 324c-10 0 -19 3 -27 9c2 1 6 6 6 6c6 -4 13 -7 21 -7s15 2 21 7c0 0 2 -2 5 -6c-7 -6 -16 -9 -26 -9zM482 319c-2 3 -4 5 -7 7c9 13 14 29 14 45c0 17 -5 32 -14 44c0 0 8 7 7 7
c11 -14 17 -32 17 -51s-6 -37 -17 -52zM292 269c-22 28 -35 64 -35 102c0 39 13 74 36 102l7 -7c-20 -26 -33 -59 -33 -95s13 -69 33 -95c-2 -2 -5 -5 -8 -7zM416 -17c-96 0 -185 37 -252 97l7 8c65 -59 151 -95 245 -95s179 36 244 94c0 1 7 -7 7 -7
c-67 -61 -155 -97 -251 -97zM416 121c-62 0 -118 23 -161 61l7 8c41 -37 95 -59 154 -59s113 22 153 59c2 -3 5 -5 7 -8c-42 -38 -98 -61 -160 -61zM416 170c-49 0 -94 19 -129 49l7 7c33 -29 75 -46 122 -46c46 0 89 17 121 46c2 -3 5 -5 7 -8c-34 -30 -79 -48 -128 -48z
M416 209c-39 0 -75 15 -103 38l7 8c26 -22 60 -36 96 -36s70 14 96 36c2 -2 4 -5 6 -8c-27 -23 -63 -38 -102 -38zM416 265c-25 0 -48 9 -66 24l7 8c16 -14 37 -22 59 -22s42 8 58 22c2 -3 5 -5 7 -8c-18 -15 -40 -24 -65 -24zM358 445c-4 3 -7 7 -8 8c18 15 41 24 66 24
s48 -9 66 -24l-8 -8c-16 14 -36 22 -58 22s-42 -8 -58 -22zM570 552c-41 37 -95 59 -154 59s-112 -22 -153 -58l-7 7c43 38 99 61 160 61c62 0 118 -23 161 -61c-2 -3 -5 -6 -7 -8zM454 346c-4 3 -6 5 -6 5c3 6 5 13 5 20s-2 14 -5 20l6 5c4 -7 7 -16 7 -25s-3 -18 -7 -25z
M468 333c-3 3 -5 5 -8 7c6 9 10 20 10 31s-4 22 -10 31l8 7c8 -11 12 -24 12 -38s-4 -27 -12 -38zM498 306c-3 2 -6 5 -8 7c12 16 19 36 19 58s-7 42 -19 58l7 7c14 -18 22 -41 22 -65s-8 -46 -21 -65zM540 269c-3 2 -5 5 -8 7c20 26 33 59 33 95s-13 69 -34 95l8 7
c23 -28 36 -63 36 -102s-13 -74 -35 -102zM568 243c-2 2 -5 5 -8 7c27 33 43 75 43 121s-16 88 -43 121l8 7c28 -35 45 -79 45 -128s-17 -93 -45 -128zM604 211c0 0 -3 2 -8 7c35 42 55 95 55 153s-20 112 -55 153l8 7c36 -43 57 -99 57 -160s-21 -117 -57 -160zM649 171
c-2 2 -5 4 -7 6c43 53 69 120 69 194s-26 141 -70 193l8 7c45 -54 72 -124 72 -200s-27 -146 -72 -200zM706 120c0 0 -3 3 -8 7c55 66 88 151 88 244s-33 178 -88 244l8 7c56 -67 90 -155 90 -251c0 -95 -34 -183 -90 -251zM183 170c-45 55 -72 124 -72 201
c0 76 27 146 71 200c2 -2 5 -4 8 -7c-43 -52 -69 -120 -69 -193c0 -74 26 -142 69 -194zM334 306c-13 18 -21 40 -21 65c0 24 8 47 21 65c3 -2 6 -5 8 -7c-12 -16 -19 -36 -19 -58c0 -21 7 -41 19 -57zM364 333c-8 11 -12 24 -12 38s4 27 12 38c2 -3 5 -5 7 -7
c-5 -9 -9 -20 -9 -31s4 -22 9 -31zM395 403l-5 6c7 6 16 9 26 9s19 -3 26 -9c-3 -3 -5 -6 -5 -6c-6 4 -13 7 -21 7s-15 -2 -21 -7zM384 416l-7 7c11 9 24 14 39 14c14 0 27 -5 38 -14c-2 -2 -4 -4 -6 -7c-9 8 -20 12 -32 12s-23 -5 -32 -12zM371 430l-7 8c14 12 33 19 52 19
c20 0 38 -7 52 -19c-4 -4 -7 -8 -7 -8c-12 11 -28 17 -45 17s-33 -6 -45 -17zM295 516l-7 8c34 30 79 48 128 48s94 -18 128 -49c1 0 -6 -7 -6 -7c-33 29 -76 46 -122 46s-89 -17 -121 -46zM416 240c-32 0 -61 11 -83 30l7 8c21 -17 48 -28 76 -28c29 0 55 11 75 28l7 -7
c-22 -19 -50 -31 -82 -31zM416 285c-20 0 -38 7 -53 19l7 8c13 -10 29 -17 46 -17s32 6 45 17l7 -8c-14 -12 -32 -19 -52 -19zM416 305c-15 0 -28 5 -40 14l7 7c10 -7 21 -12 33 -12s23 5 32 12l7 -7c-11 -9 -25 -14 -39 -14zM341 464l-7 7c22 19 51 31 82 31s60 -11 82 -30
l-7 -8c-20 17 -46 28 -75 28c-28 0 -54 -10 -75 -28zM320 487l-7 8c28 24 64 38 103 38s75 -15 102 -39l-6 -7c-26 23 -59 36 -96 36c-36 0 -70 -14 -96 -36zM610 597c-51 47 -119 75 -194 75c-74 0 -142 -28 -194 -74l-7 7c54 48 124 77 201 77s147 -29 201 -77zM172 654
l-7 8c67 61 155 97 251 97s185 -37 252 -97l-7 -8c-65 59 -151 95 -245 95s-179 -36 -244 -95zM516 290l-7 7c15 20 25 46 25 74s-10 54 -26 75l8 7c18 -23 28 -51 28 -82s-10 -59 -28 -81z" />
    <glyph glyph-name="Omega" unicode="&#x2126;" horiz-adv-x="832" 
d="M126 120c-56 67 -90 155 -90 251c0 95 34 183 90 250c0 0 3 -2 7 -6c-54 -66 -87 -151 -87 -244s33 -178 88 -244c-5 -4 -8 -7 -8 -7zM228 211c-35 43 -57 99 -57 160s21 116 56 160c3 -2 5 -5 8 -7c-33 -41 -54 -95 -54 -153s20 -112 54 -153c-2 -3 -5 -5 -7 -7z
M264 243c-28 35 -45 79 -45 128c0 48 17 93 45 128c3 -2 5 -5 8 -7c-27 -33 -43 -75 -43 -121s16 -88 43 -121c-3 -2 -5 -5 -8 -7zM316 289c-18 23 -28 51 -28 82s10 59 28 81c2 -2 5 -4 7 -7c-15 -20 -25 -46 -25 -74s10 -54 26 -75c-3 -2 -5 -5 -8 -7zM349 320
c-10 14 -16 32 -16 51s6 37 16 51c3 -2 5 -5 8 -7c-9 -13 -14 -28 -14 -44s5 -31 14 -44c-3 -2 -5 -4 -8 -7zM378 346c-4 7 -7 16 -7 25s3 18 7 25c4 -3 6 -5 6 -5c-3 -6 -5 -13 -5 -20s2 -14 5 -20c0 0 -2 -2 -6 -5zM416 60c-78 0 -148 29 -201 77c0 0 7 8 7 7
c52 -46 120 -74 194 -74s142 28 193 74c2 -3 5 -5 7 -8c-53 -47 -123 -76 -200 -76zM416 324c-10 0 -19 3 -27 9c2 1 6 6 6 6c6 -4 13 -7 21 -7s15 2 21 7c0 0 2 -2 5 -6c-7 -6 -16 -9 -26 -9zM482 319c-2 3 -4 5 -7 7c9 13 14 29 14 45c0 17 -5 32 -14 44c0 0 8 7 7 7
c11 -14 17 -32 17 -51s-6 -37 -17 -52zM292 269c-22 28 -35 64 -35 102c0 39 13 74 36 102l7 -7c-20 -26 -33 -59 -33 -95s13 -69 33 -95c-2 -2 -5 -5 -8 -7zM416 -17c-96 0 -185 37 -252 97l7 8c65 -59 151 -95 245 -95s179 36 244 94c0 1 7 -7 7 -7
c-67 -61 -155 -97 -251 -97zM416 121c-62 0 -118 23 -161 61l7 8c41 -37 95 -59 154 -59s113 22 153 59c2 -3 5 -5 7 -8c-42 -38 -98 -61 -160 -61zM416 170c-49 0 -94 19 -129 49l7 7c33 -29 75 -46 122 -46c46 0 89 17 121 46c2 -3 5 -5 7 -8c-34 -30 -79 -48 -128 -48z
M416 209c-39 0 -75 15 -103 38l7 8c26 -22 60 -36 96 -36s70 14 96 36c2 -2 4 -5 6 -8c-27 -23 -63 -38 -102 -38zM416 265c-25 0 -48 9 -66 24l7 8c16 -14 37 -22 59 -22s42 8 58 22c2 -3 5 -5 7 -8c-18 -15 -40 -24 -65 -24zM358 445c-4 3 -7 7 -8 8c18 15 41 24 66 24
s48 -9 66 -24l-8 -8c-16 14 -36 22 -58 22s-42 -8 -58 -22zM570 552c-41 37 -95 59 -154 59s-112 -22 -153 -58l-7 7c43 38 99 61 160 61c62 0 118 -23 161 -61c-2 -3 -5 -6 -7 -8zM454 346c-4 3 -6 5 -6 5c3 6 5 13 5 20s-2 14 -5 20l6 5c4 -7 7 -16 7 -25s-3 -18 -7 -25z
M468 333c-3 3 -5 5 -8 7c6 9 10 20 10 31s-4 22 -10 31l8 7c8 -11 12 -24 12 -38s-4 -27 -12 -38zM498 306c-3 2 -6 5 -8 7c12 16 19 36 19 58s-7 42 -19 58l7 7c14 -18 22 -41 22 -65s-8 -46 -21 -65zM540 269c-3 2 -5 5 -8 7c20 26 33 59 33 95s-13 69 -34 95l8 7
c23 -28 36 -63 36 -102s-13 -74 -35 -102zM568 243c-2 2 -5 5 -8 7c27 33 43 75 43 121s-16 88 -43 121l8 7c28 -35 45 -79 45 -128s-17 -93 -45 -128zM604 211c0 0 -3 2 -8 7c35 42 55 95 55 153s-20 112 -55 153l8 7c36 -43 57 -99 57 -160s-21 -117 -57 -160zM649 171
c-2 2 -5 4 -7 6c43 53 69 120 69 194s-26 141 -70 193l8 7c45 -54 72 -124 72 -200s-27 -146 -72 -200zM706 120c0 0 -3 3 -8 7c55 66 88 151 88 244s-33 178 -88 244l8 7c56 -67 90 -155 90 -251c0 -95 -34 -183 -90 -251zM183 170c-45 55 -72 124 -72 201
c0 76 27 146 71 200c2 -2 5 -4 8 -7c-43 -52 -69 -120 -69 -193c0 -74 26 -142 69 -194zM334 306c-13 18 -21 40 -21 65c0 24 8 47 21 65c3 -2 6 -5 8 -7c-12 -16 -19 -36 -19 -58c0 -21 7 -41 19 -57zM364 333c-8 11 -12 24 -12 38s4 27 12 38c2 -3 5 -5 7 -7
c-5 -9 -9 -20 -9 -31s4 -22 9 -31zM395 403l-5 6c7 6 16 9 26 9s19 -3 26 -9c-3 -3 -5 -6 -5 -6c-6 4 -13 7 -21 7s-15 -2 -21 -7zM384 416l-7 7c11 9 24 14 39 14c14 0 27 -5 38 -14c-2 -2 -4 -4 -6 -7c-9 8 -20 12 -32 12s-23 -5 -32 -12zM371 430l-7 8c14 12 33 19 52 19
c20 0 38 -7 52 -19c-4 -4 -7 -8 -7 -8c-12 11 -28 17 -45 17s-33 -6 -45 -17zM295 516l-7 8c34 30 79 48 128 48s94 -18 128 -49c1 0 -6 -7 -6 -7c-33 29 -76 46 -122 46s-89 -17 -121 -46zM416 240c-32 0 -61 11 -83 30l7 8c21 -17 48 -28 76 -28c29 0 55 11 75 28l7 -7
c-22 -19 -50 -31 -82 -31zM416 285c-20 0 -38 7 -53 19l7 8c13 -10 29 -17 46 -17s32 6 45 17l7 -8c-14 -12 -32 -19 -52 -19zM416 305c-15 0 -28 5 -40 14l7 7c10 -7 21 -12 33 -12s23 5 32 12l7 -7c-11 -9 -25 -14 -39 -14zM341 464l-7 7c22 19 51 31 82 31s60 -11 82 -30
l-7 -8c-20 17 -46 28 -75 28c-28 0 -54 -10 -75 -28zM320 487l-7 8c28 24 64 38 103 38s75 -15 102 -39l-6 -7c-26 23 -59 36 -96 36c-36 0 -70 -14 -96 -36zM610 597c-51 47 -119 75 -194 75c-74 0 -142 -28 -194 -74l-7 7c54 48 124 77 201 77s147 -29 201 -77zM172 654
l-7 8c67 61 155 97 251 97s185 -37 252 -97l-7 -8c-65 59 -151 95 -245 95s-179 -36 -244 -95zM516 290l-7 7c15 20 25 46 25 74s-10 54 -26 75l8 7c18 -23 28 -51 28 -82s-10 -59 -28 -81z" />
    <glyph glyph-name="ae" unicode="&#xe6;" horiz-adv-x="956" 
d="M621 -11c-112 0 -173 31 -206 79c-40 -46 -102 -77 -224 -77c-156 0 -209 60 -209 162c0 175 148 211 344 211h72c2 12 4 23 4 32c0 29 -20 45 -110 45c-43 0 -108 -14 -145 -33l-57 118c47 28 133 53 233 53c101 0 160 -16 190 -46c43 30 99 46 175 46
c183 0 229 -89 229 -178c0 -52 -11 -118 -24 -177h-380v-2c0 -61 30 -106 127 -106c62 0 123 15 163 41l61 -109c-75 -49 -160 -59 -243 -59zM237 117c85 0 113 27 133 118l4 21h-72c-113 0 -163 -8 -163 -88c0 -34 24 -51 98 -51zM670 448c-77 0 -115 -42 -137 -112h234
c2 12 4 24 4 38c0 43 -20 74 -101 74z" />
    <glyph glyph-name="oslash" unicode="&#xf8;" horiz-adv-x="641" 
d="M272 -11c-55 0 -99 8 -136 21l-44 -53h-131l92 108c-33 38 -47 89 -47 149c0 32 4 65 11 100c41 190 147 265 317 265c54 0 98 -8 135 -21l44 53h132l-92 -108c32 -38 47 -88 47 -147c0 -31 -5 -65 -12 -101c-40 -190 -145 -266 -316 -266zM280 114c97 0 137 52 158 152
c6 25 9 49 9 70c0 16 -2 31 -6 44l-218 -259c16 -5 34 -7 57 -7zM158 220c0 -13 1 -24 4 -35l213 254c-14 4 -30 6 -49 6c-99 0 -138 -53 -159 -154c-5 -25 -9 -48 -9 -71z" />
    <glyph glyph-name="questiondown" unicode="&#xbf;" horiz-adv-x="697" 
d="M293 -9c-191 0 -274 59 -274 169c0 132 51 189 183 231c102 33 112 50 126 139h152c-20 -149 -47 -194 -178 -233c-92 -27 -116 -40 -116 -100c0 -37 26 -66 137 -66c58 0 127 12 192 34l49 -129c-80 -34 -200 -45 -271 -45zM324 587l34 157h182l-33 -157h-183z" />
    <glyph glyph-name="exclamdown" unicode="&#xa1;" horiz-adv-x="402" 
d="M36 0l125 508h140l-93 -508h-172zM152 565l38 176h182l-38 -176h-182z" />
    <glyph glyph-name="logicalnot" unicode="&#xac;" horiz-adv-x="832" 
d="M126 120c-56 67 -90 155 -90 251c0 95 34 183 90 250c0 0 3 -2 7 -6c-54 -66 -87 -151 -87 -244s33 -178 88 -244c-5 -4 -8 -7 -8 -7zM228 211c-35 43 -57 99 -57 160s21 116 56 160c3 -2 5 -5 8 -7c-33 -41 -54 -95 -54 -153s20 -112 54 -153c-2 -3 -5 -5 -7 -7z
M264 243c-28 35 -45 79 -45 128c0 48 17 93 45 128c3 -2 5 -5 8 -7c-27 -33 -43 -75 -43 -121s16 -88 43 -121c-3 -2 -5 -5 -8 -7zM316 289c-18 23 -28 51 -28 82s10 59 28 81c2 -2 5 -4 7 -7c-15 -20 -25 -46 -25 -74s10 -54 26 -75c-3 -2 -5 -5 -8 -7zM349 320
c-10 14 -16 32 -16 51s6 37 16 51c3 -2 5 -5 8 -7c-9 -13 -14 -28 -14 -44s5 -31 14 -44c-3 -2 -5 -4 -8 -7zM378 346c-4 7 -7 16 -7 25s3 18 7 25c4 -3 6 -5 6 -5c-3 -6 -5 -13 -5 -20s2 -14 5 -20c0 0 -2 -2 -6 -5zM416 60c-78 0 -148 29 -201 77c0 0 7 8 7 7
c52 -46 120 -74 194 -74s142 28 193 74c2 -3 5 -5 7 -8c-53 -47 -123 -76 -200 -76zM416 324c-10 0 -19 3 -27 9c2 1 6 6 6 6c6 -4 13 -7 21 -7s15 2 21 7c0 0 2 -2 5 -6c-7 -6 -16 -9 -26 -9zM482 319c-2 3 -4 5 -7 7c9 13 14 29 14 45c0 17 -5 32 -14 44c0 0 8 7 7 7
c11 -14 17 -32 17 -51s-6 -37 -17 -52zM292 269c-22 28 -35 64 -35 102c0 39 13 74 36 102l7 -7c-20 -26 -33 -59 -33 -95s13 -69 33 -95c-2 -2 -5 -5 -8 -7zM416 -17c-96 0 -185 37 -252 97l7 8c65 -59 151 -95 245 -95s179 36 244 94c0 1 7 -7 7 -7
c-67 -61 -155 -97 -251 -97zM416 121c-62 0 -118 23 -161 61l7 8c41 -37 95 -59 154 -59s113 22 153 59c2 -3 5 -5 7 -8c-42 -38 -98 -61 -160 -61zM416 170c-49 0 -94 19 -129 49l7 7c33 -29 75 -46 122 -46c46 0 89 17 121 46c2 -3 5 -5 7 -8c-34 -30 -79 -48 -128 -48z
M416 209c-39 0 -75 15 -103 38l7 8c26 -22 60 -36 96 -36s70 14 96 36c2 -2 4 -5 6 -8c-27 -23 -63 -38 -102 -38zM416 265c-25 0 -48 9 -66 24l7 8c16 -14 37 -22 59 -22s42 8 58 22c2 -3 5 -5 7 -8c-18 -15 -40 -24 -65 -24zM358 445c-4 3 -7 7 -8 8c18 15 41 24 66 24
s48 -9 66 -24l-8 -8c-16 14 -36 22 -58 22s-42 -8 -58 -22zM570 552c-41 37 -95 59 -154 59s-112 -22 -153 -58l-7 7c43 38 99 61 160 61c62 0 118 -23 161 -61c-2 -3 -5 -6 -7 -8zM454 346c-4 3 -6 5 -6 5c3 6 5 13 5 20s-2 14 -5 20l6 5c4 -7 7 -16 7 -25s-3 -18 -7 -25z
M468 333c-3 3 -5 5 -8 7c6 9 10 20 10 31s-4 22 -10 31l8 7c8 -11 12 -24 12 -38s-4 -27 -12 -38zM498 306c-3 2 -6 5 -8 7c12 16 19 36 19 58s-7 42 -19 58l7 7c14 -18 22 -41 22 -65s-8 -46 -21 -65zM540 269c-3 2 -5 5 -8 7c20 26 33 59 33 95s-13 69 -34 95l8 7
c23 -28 36 -63 36 -102s-13 -74 -35 -102zM568 243c-2 2 -5 5 -8 7c27 33 43 75 43 121s-16 88 -43 121l8 7c28 -35 45 -79 45 -128s-17 -93 -45 -128zM604 211c0 0 -3 2 -8 7c35 42 55 95 55 153s-20 112 -55 153l8 7c36 -43 57 -99 57 -160s-21 -117 -57 -160zM649 171
c-2 2 -5 4 -7 6c43 53 69 120 69 194s-26 141 -70 193l8 7c45 -54 72 -124 72 -200s-27 -146 -72 -200zM706 120c0 0 -3 3 -8 7c55 66 88 151 88 244s-33 178 -88 244l8 7c56 -67 90 -155 90 -251c0 -95 -34 -183 -90 -251zM183 170c-45 55 -72 124 -72 201
c0 76 27 146 71 200c2 -2 5 -4 8 -7c-43 -52 -69 -120 -69 -193c0 -74 26 -142 69 -194zM334 306c-13 18 -21 40 -21 65c0 24 8 47 21 65c3 -2 6 -5 8 -7c-12 -16 -19 -36 -19 -58c0 -21 7 -41 19 -57zM364 333c-8 11 -12 24 -12 38s4 27 12 38c2 -3 5 -5 7 -7
c-5 -9 -9 -20 -9 -31s4 -22 9 -31zM395 403l-5 6c7 6 16 9 26 9s19 -3 26 -9c-3 -3 -5 -6 -5 -6c-6 4 -13 7 -21 7s-15 -2 -21 -7zM384 416l-7 7c11 9 24 14 39 14c14 0 27 -5 38 -14c-2 -2 -4 -4 -6 -7c-9 8 -20 12 -32 12s-23 -5 -32 -12zM371 430l-7 8c14 12 33 19 52 19
c20 0 38 -7 52 -19c-4 -4 -7 -8 -7 -8c-12 11 -28 17 -45 17s-33 -6 -45 -17zM295 516l-7 8c34 30 79 48 128 48s94 -18 128 -49c1 0 -6 -7 -6 -7c-33 29 -76 46 -122 46s-89 -17 -121 -46zM416 240c-32 0 -61 11 -83 30l7 8c21 -17 48 -28 76 -28c29 0 55 11 75 28l7 -7
c-22 -19 -50 -31 -82 -31zM416 285c-20 0 -38 7 -53 19l7 8c13 -10 29 -17 46 -17s32 6 45 17l7 -8c-14 -12 -32 -19 -52 -19zM416 305c-15 0 -28 5 -40 14l7 7c10 -7 21 -12 33 -12s23 5 32 12l7 -7c-11 -9 -25 -14 -39 -14zM341 464l-7 7c22 19 51 31 82 31s60 -11 82 -30
l-7 -8c-20 17 -46 28 -75 28c-28 0 -54 -10 -75 -28zM320 487l-7 8c28 24 64 38 103 38s75 -15 102 -39l-6 -7c-26 23 -59 36 -96 36c-36 0 -70 -14 -96 -36zM610 597c-51 47 -119 75 -194 75c-74 0 -142 -28 -194 -74l-7 7c54 48 124 77 201 77s147 -29 201 -77zM172 654
l-7 8c67 61 155 97 251 97s185 -37 252 -97l-7 -8c-65 59 -151 95 -245 95s-179 -36 -244 -95zM516 290l-7 7c15 20 25 46 25 74s-10 54 -26 75l8 7c18 -23 28 -51 28 -82s-10 -59 -28 -81z" />
    <glyph glyph-name="radical" unicode="&#x221a;" horiz-adv-x="691" 
d="M130 -6l-82 452h162l43 -263l328 558h158l-446 -747h-163z" />
    <glyph glyph-name="florin" unicode="&#x192;" horiz-adv-x="615" 
d="M89 327l30 135h120l24 110c21 100 55 169 231 169h93l-30 -140h-53c-70 0 -84 -29 -93 -76l-14 -63h146l-29 -135h-146l-105 -493h-157l105 493h-122z" />
    <glyph glyph-name="approxequal" unicode="&#x2248;" horiz-adv-x="722" 
d="M135 144l-78 74c54 64 115 99 172 99c84 0 144 -57 198 -57c28 0 60 24 88 54l77 -74c-55 -64 -115 -101 -171 -101c-82 0 -140 57 -198 57c-30 0 -61 -22 -88 -52zM188 391l-77 74c54 63 115 99 171 99c85 0 145 -57 198 -57c29 0 61 23 88 53l77 -74
c-54 -63 -115 -100 -170 -100c-82 0 -141 57 -198 57c-30 0 -62 -22 -89 -52z" />
    <glyph glyph-name="Delta" unicode="&#x394;" horiz-adv-x="832" 
d="M126 120c-56 67 -90 155 -90 251c0 95 34 183 90 250c0 0 3 -2 7 -6c-54 -66 -87 -151 -87 -244s33 -178 88 -244c-5 -4 -8 -7 -8 -7zM228 211c-35 43 -57 99 -57 160s21 116 56 160c3 -2 5 -5 8 -7c-33 -41 -54 -95 -54 -153s20 -112 54 -153c-2 -3 -5 -5 -7 -7z
M264 243c-28 35 -45 79 -45 128c0 48 17 93 45 128c3 -2 5 -5 8 -7c-27 -33 -43 -75 -43 -121s16 -88 43 -121c-3 -2 -5 -5 -8 -7zM316 289c-18 23 -28 51 -28 82s10 59 28 81c2 -2 5 -4 7 -7c-15 -20 -25 -46 -25 -74s10 -54 26 -75c-3 -2 -5 -5 -8 -7zM349 320
c-10 14 -16 32 -16 51s6 37 16 51c3 -2 5 -5 8 -7c-9 -13 -14 -28 -14 -44s5 -31 14 -44c-3 -2 -5 -4 -8 -7zM378 346c-4 7 -7 16 -7 25s3 18 7 25c4 -3 6 -5 6 -5c-3 -6 -5 -13 -5 -20s2 -14 5 -20c0 0 -2 -2 -6 -5zM416 60c-78 0 -148 29 -201 77c0 0 7 8 7 7
c52 -46 120 -74 194 -74s142 28 193 74c2 -3 5 -5 7 -8c-53 -47 -123 -76 -200 -76zM416 324c-10 0 -19 3 -27 9c2 1 6 6 6 6c6 -4 13 -7 21 -7s15 2 21 7c0 0 2 -2 5 -6c-7 -6 -16 -9 -26 -9zM482 319c-2 3 -4 5 -7 7c9 13 14 29 14 45c0 17 -5 32 -14 44c0 0 8 7 7 7
c11 -14 17 -32 17 -51s-6 -37 -17 -52zM292 269c-22 28 -35 64 -35 102c0 39 13 74 36 102l7 -7c-20 -26 -33 -59 -33 -95s13 -69 33 -95c-2 -2 -5 -5 -8 -7zM416 -17c-96 0 -185 37 -252 97l7 8c65 -59 151 -95 245 -95s179 36 244 94c0 1 7 -7 7 -7
c-67 -61 -155 -97 -251 -97zM416 121c-62 0 -118 23 -161 61l7 8c41 -37 95 -59 154 -59s113 22 153 59c2 -3 5 -5 7 -8c-42 -38 -98 -61 -160 -61zM416 170c-49 0 -94 19 -129 49l7 7c33 -29 75 -46 122 -46c46 0 89 17 121 46c2 -3 5 -5 7 -8c-34 -30 -79 -48 -128 -48z
M416 209c-39 0 -75 15 -103 38l7 8c26 -22 60 -36 96 -36s70 14 96 36c2 -2 4 -5 6 -8c-27 -23 -63 -38 -102 -38zM416 265c-25 0 -48 9 -66 24l7 8c16 -14 37 -22 59 -22s42 8 58 22c2 -3 5 -5 7 -8c-18 -15 -40 -24 -65 -24zM358 445c-4 3 -7 7 -8 8c18 15 41 24 66 24
s48 -9 66 -24l-8 -8c-16 14 -36 22 -58 22s-42 -8 -58 -22zM570 552c-41 37 -95 59 -154 59s-112 -22 -153 -58l-7 7c43 38 99 61 160 61c62 0 118 -23 161 -61c-2 -3 -5 -6 -7 -8zM454 346c-4 3 -6 5 -6 5c3 6 5 13 5 20s-2 14 -5 20l6 5c4 -7 7 -16 7 -25s-3 -18 -7 -25z
M468 333c-3 3 -5 5 -8 7c6 9 10 20 10 31s-4 22 -10 31l8 7c8 -11 12 -24 12 -38s-4 -27 -12 -38zM498 306c-3 2 -6 5 -8 7c12 16 19 36 19 58s-7 42 -19 58l7 7c14 -18 22 -41 22 -65s-8 -46 -21 -65zM540 269c-3 2 -5 5 -8 7c20 26 33 59 33 95s-13 69 -34 95l8 7
c23 -28 36 -63 36 -102s-13 -74 -35 -102zM568 243c-2 2 -5 5 -8 7c27 33 43 75 43 121s-16 88 -43 121l8 7c28 -35 45 -79 45 -128s-17 -93 -45 -128zM604 211c0 0 -3 2 -8 7c35 42 55 95 55 153s-20 112 -55 153l8 7c36 -43 57 -99 57 -160s-21 -117 -57 -160zM649 171
c-2 2 -5 4 -7 6c43 53 69 120 69 194s-26 141 -70 193l8 7c45 -54 72 -124 72 -200s-27 -146 -72 -200zM706 120c0 0 -3 3 -8 7c55 66 88 151 88 244s-33 178 -88 244l8 7c56 -67 90 -155 90 -251c0 -95 -34 -183 -90 -251zM183 170c-45 55 -72 124 -72 201
c0 76 27 146 71 200c2 -2 5 -4 8 -7c-43 -52 -69 -120 -69 -193c0 -74 26 -142 69 -194zM334 306c-13 18 -21 40 -21 65c0 24 8 47 21 65c3 -2 6 -5 8 -7c-12 -16 -19 -36 -19 -58c0 -21 7 -41 19 -57zM364 333c-8 11 -12 24 -12 38s4 27 12 38c2 -3 5 -5 7 -7
c-5 -9 -9 -20 -9 -31s4 -22 9 -31zM395 403l-5 6c7 6 16 9 26 9s19 -3 26 -9c-3 -3 -5 -6 -5 -6c-6 4 -13 7 -21 7s-15 -2 -21 -7zM384 416l-7 7c11 9 24 14 39 14c14 0 27 -5 38 -14c-2 -2 -4 -4 -6 -7c-9 8 -20 12 -32 12s-23 -5 -32 -12zM371 430l-7 8c14 12 33 19 52 19
c20 0 38 -7 52 -19c-4 -4 -7 -8 -7 -8c-12 11 -28 17 -45 17s-33 -6 -45 -17zM295 516l-7 8c34 30 79 48 128 48s94 -18 128 -49c1 0 -6 -7 -6 -7c-33 29 -76 46 -122 46s-89 -17 -121 -46zM416 240c-32 0 -61 11 -83 30l7 8c21 -17 48 -28 76 -28c29 0 55 11 75 28l7 -7
c-22 -19 -50 -31 -82 -31zM416 285c-20 0 -38 7 -53 19l7 8c13 -10 29 -17 46 -17s32 6 45 17l7 -8c-14 -12 -32 -19 -52 -19zM416 305c-15 0 -28 5 -40 14l7 7c10 -7 21 -12 33 -12s23 5 32 12l7 -7c-11 -9 -25 -14 -39 -14zM341 464l-7 7c22 19 51 31 82 31s60 -11 82 -30
l-7 -8c-20 17 -46 28 -75 28c-28 0 -54 -10 -75 -28zM320 487l-7 8c28 24 64 38 103 38s75 -15 102 -39l-6 -7c-26 23 -59 36 -96 36c-36 0 -70 -14 -96 -36zM610 597c-51 47 -119 75 -194 75c-74 0 -142 -28 -194 -74l-7 7c54 48 124 77 201 77s147 -29 201 -77zM172 654
l-7 8c67 61 155 97 251 97s185 -37 252 -97l-7 -8c-65 59 -151 95 -245 95s-179 -36 -244 -95zM516 290l-7 7c15 20 25 46 25 74s-10 54 -26 75l8 7c18 -23 28 -51 28 -82s-10 -59 -28 -81z" />
    <glyph glyph-name="Delta" unicode="&#x2206;" horiz-adv-x="832" 
d="M126 120c-56 67 -90 155 -90 251c0 95 34 183 90 250c0 0 3 -2 7 -6c-54 -66 -87 -151 -87 -244s33 -178 88 -244c-5 -4 -8 -7 -8 -7zM228 211c-35 43 -57 99 -57 160s21 116 56 160c3 -2 5 -5 8 -7c-33 -41 -54 -95 -54 -153s20 -112 54 -153c-2 -3 -5 -5 -7 -7z
M264 243c-28 35 -45 79 -45 128c0 48 17 93 45 128c3 -2 5 -5 8 -7c-27 -33 -43 -75 -43 -121s16 -88 43 -121c-3 -2 -5 -5 -8 -7zM316 289c-18 23 -28 51 -28 82s10 59 28 81c2 -2 5 -4 7 -7c-15 -20 -25 -46 -25 -74s10 -54 26 -75c-3 -2 -5 -5 -8 -7zM349 320
c-10 14 -16 32 -16 51s6 37 16 51c3 -2 5 -5 8 -7c-9 -13 -14 -28 -14 -44s5 -31 14 -44c-3 -2 -5 -4 -8 -7zM378 346c-4 7 -7 16 -7 25s3 18 7 25c4 -3 6 -5 6 -5c-3 -6 -5 -13 -5 -20s2 -14 5 -20c0 0 -2 -2 -6 -5zM416 60c-78 0 -148 29 -201 77c0 0 7 8 7 7
c52 -46 120 -74 194 -74s142 28 193 74c2 -3 5 -5 7 -8c-53 -47 -123 -76 -200 -76zM416 324c-10 0 -19 3 -27 9c2 1 6 6 6 6c6 -4 13 -7 21 -7s15 2 21 7c0 0 2 -2 5 -6c-7 -6 -16 -9 -26 -9zM482 319c-2 3 -4 5 -7 7c9 13 14 29 14 45c0 17 -5 32 -14 44c0 0 8 7 7 7
c11 -14 17 -32 17 -51s-6 -37 -17 -52zM292 269c-22 28 -35 64 -35 102c0 39 13 74 36 102l7 -7c-20 -26 -33 -59 -33 -95s13 -69 33 -95c-2 -2 -5 -5 -8 -7zM416 -17c-96 0 -185 37 -252 97l7 8c65 -59 151 -95 245 -95s179 36 244 94c0 1 7 -7 7 -7
c-67 -61 -155 -97 -251 -97zM416 121c-62 0 -118 23 -161 61l7 8c41 -37 95 -59 154 -59s113 22 153 59c2 -3 5 -5 7 -8c-42 -38 -98 -61 -160 -61zM416 170c-49 0 -94 19 -129 49l7 7c33 -29 75 -46 122 -46c46 0 89 17 121 46c2 -3 5 -5 7 -8c-34 -30 -79 -48 -128 -48z
M416 209c-39 0 -75 15 -103 38l7 8c26 -22 60 -36 96 -36s70 14 96 36c2 -2 4 -5 6 -8c-27 -23 -63 -38 -102 -38zM416 265c-25 0 -48 9 -66 24l7 8c16 -14 37 -22 59 -22s42 8 58 22c2 -3 5 -5 7 -8c-18 -15 -40 -24 -65 -24zM358 445c-4 3 -7 7 -8 8c18 15 41 24 66 24
s48 -9 66 -24l-8 -8c-16 14 -36 22 -58 22s-42 -8 -58 -22zM570 552c-41 37 -95 59 -154 59s-112 -22 -153 -58l-7 7c43 38 99 61 160 61c62 0 118 -23 161 -61c-2 -3 -5 -6 -7 -8zM454 346c-4 3 -6 5 -6 5c3 6 5 13 5 20s-2 14 -5 20l6 5c4 -7 7 -16 7 -25s-3 -18 -7 -25z
M468 333c-3 3 -5 5 -8 7c6 9 10 20 10 31s-4 22 -10 31l8 7c8 -11 12 -24 12 -38s-4 -27 -12 -38zM498 306c-3 2 -6 5 -8 7c12 16 19 36 19 58s-7 42 -19 58l7 7c14 -18 22 -41 22 -65s-8 -46 -21 -65zM540 269c-3 2 -5 5 -8 7c20 26 33 59 33 95s-13 69 -34 95l8 7
c23 -28 36 -63 36 -102s-13 -74 -35 -102zM568 243c-2 2 -5 5 -8 7c27 33 43 75 43 121s-16 88 -43 121l8 7c28 -35 45 -79 45 -128s-17 -93 -45 -128zM604 211c0 0 -3 2 -8 7c35 42 55 95 55 153s-20 112 -55 153l8 7c36 -43 57 -99 57 -160s-21 -117 -57 -160zM649 171
c-2 2 -5 4 -7 6c43 53 69 120 69 194s-26 141 -70 193l8 7c45 -54 72 -124 72 -200s-27 -146 -72 -200zM706 120c0 0 -3 3 -8 7c55 66 88 151 88 244s-33 178 -88 244l8 7c56 -67 90 -155 90 -251c0 -95 -34 -183 -90 -251zM183 170c-45 55 -72 124 -72 201
c0 76 27 146 71 200c2 -2 5 -4 8 -7c-43 -52 -69 -120 -69 -193c0 -74 26 -142 69 -194zM334 306c-13 18 -21 40 -21 65c0 24 8 47 21 65c3 -2 6 -5 8 -7c-12 -16 -19 -36 -19 -58c0 -21 7 -41 19 -57zM364 333c-8 11 -12 24 -12 38s4 27 12 38c2 -3 5 -5 7 -7
c-5 -9 -9 -20 -9 -31s4 -22 9 -31zM395 403l-5 6c7 6 16 9 26 9s19 -3 26 -9c-3 -3 -5 -6 -5 -6c-6 4 -13 7 -21 7s-15 -2 -21 -7zM384 416l-7 7c11 9 24 14 39 14c14 0 27 -5 38 -14c-2 -2 -4 -4 -6 -7c-9 8 -20 12 -32 12s-23 -5 -32 -12zM371 430l-7 8c14 12 33 19 52 19
c20 0 38 -7 52 -19c-4 -4 -7 -8 -7 -8c-12 11 -28 17 -45 17s-33 -6 -45 -17zM295 516l-7 8c34 30 79 48 128 48s94 -18 128 -49c1 0 -6 -7 -6 -7c-33 29 -76 46 -122 46s-89 -17 -121 -46zM416 240c-32 0 -61 11 -83 30l7 8c21 -17 48 -28 76 -28c29 0 55 11 75 28l7 -7
c-22 -19 -50 -31 -82 -31zM416 285c-20 0 -38 7 -53 19l7 8c13 -10 29 -17 46 -17s32 6 45 17l7 -8c-14 -12 -32 -19 -52 -19zM416 305c-15 0 -28 5 -40 14l7 7c10 -7 21 -12 33 -12s23 5 32 12l7 -7c-11 -9 -25 -14 -39 -14zM341 464l-7 7c22 19 51 31 82 31s60 -11 82 -30
l-7 -8c-20 17 -46 28 -75 28c-28 0 -54 -10 -75 -28zM320 487l-7 8c28 24 64 38 103 38s75 -15 102 -39l-6 -7c-26 23 -59 36 -96 36c-36 0 -70 -14 -96 -36zM610 597c-51 47 -119 75 -194 75c-74 0 -142 -28 -194 -74l-7 7c54 48 124 77 201 77s147 -29 201 -77zM172 654
l-7 8c67 61 155 97 251 97s185 -37 252 -97l-7 -8c-65 59 -151 95 -245 95s-179 -36 -244 -95zM516 290l-7 7c15 20 25 46 25 74s-10 54 -26 75l8 7c18 -23 28 -51 28 -82s-10 -59 -28 -81z" />
    <glyph glyph-name="guillemotleft" unicode="&#xab;" horiz-adv-x="767" 
d="M173 0l-91 282l211 284h137l-199 -284l79 -282h-137zM423 0l-91 282l211 284h138l-199 -284l78 -282h-137z" />
    <glyph glyph-name="guillemotright" unicode="&#xbb;" horiz-adv-x="767" 
d="M51 0l199 284l-79 282h137l91 -283l-211 -283h-137zM300 0l199 284l-78 282h137l91 -283l-211 -283h-138z" />
    <glyph glyph-name="ellipsis" unicode="&#x2026;" horiz-adv-x="843" 
d="M-23 0l38 180h182l-38 -180h-182zM252 0l38 180h182l-38 -180h-182zM527 0l38 180h182l-38 -180h-182z" />
    <glyph glyph-name="Agrave" unicode="&#xc0;" horiz-adv-x="763" 
d="M-64 0l444 746h159l124 -746h-163l-19 122h-302l-70 -122h-173zM255 257h205l-44 280zM434 781l-151 183h183l102 -183h-134z" />
    <glyph glyph-name="Atilde" unicode="&#xc3;" horiz-adv-x="763" 
d="M-64 0l444 746h159l124 -746h-163l-19 122h-302l-70 -122h-173zM255 257h205l-44 280zM568 781c-77 0 -121 54 -171 54c-27 0 -54 -20 -78 -48l-78 74c52 62 107 95 162 95c77 0 121 -54 171 -54c26 0 51 19 77 49l78 -73c-54 -65 -108 -97 -161 -97z" />
    <glyph glyph-name="Otilde" unicode="&#xd5;" horiz-adv-x="841" 
d="M388 -12c-225 0 -363 103 -363 303c0 37 4 77 13 121c59 277 240 341 418 341c222 0 360 -101 360 -300c0 -37 -4 -77 -13 -119c-60 -279 -240 -346 -415 -346zM390 132c140 0 216 69 247 214c6 30 10 58 10 85c0 102 -54 172 -199 172c-140 0 -216 -69 -246 -212
c-6 -29 -9 -58 -9 -85c0 -102 53 -174 197 -174zM607 781c-77 0 -121 54 -171 54c-27 0 -54 -20 -78 -48l-78 74c52 62 107 95 162 95c77 0 121 -54 171 -54c26 0 51 19 77 49l78 -73c-54 -65 -108 -97 -161 -97z" />
    <glyph glyph-name="OE" unicode="&#x152;" horiz-adv-x="1239" 
d="M388 -12c-230 0 -363 103 -363 303c-1 37 4 77 13 121c59 277 240 341 418 341c124 0 213 -30 268 -90l17 78h520l-32 -148h-372l-30 -144h362l-31 -143h-362l-35 -164h376l-30 -142h-524l11 51c-57 -44 -124 -63 -206 -63zM390 132c140 0 216 69 247 214
c6 30 10 58 10 85c0 102 -54 172 -199 172c-140 0 -216 -69 -246 -212c-6 -29 -9 -58 -9 -85c0 -102 53 -174 197 -174z" />
    <glyph glyph-name="oe" unicode="&#x153;" horiz-adv-x="1018" 
d="M683 -11c-106 0 -167 28 -200 72c-50 -50 -119 -72 -211 -72c-190 0 -266 90 -266 225c0 32 4 65 11 100c41 190 147 265 317 265c105 0 170 -27 208 -74c45 47 111 74 208 74c183 0 229 -90 229 -178c0 -52 -11 -118 -24 -177h-380v-2c0 -61 30 -106 127 -106
c62 0 123 15 163 41l61 -109c-75 -49 -160 -59 -243 -59zM281 123c91 0 129 49 149 144c5 23 8 46 8 66c0 61 -27 103 -114 103c-92 0 -130 -50 -150 -146c-5 -23 -8 -45 -8 -66c0 -60 29 -101 115 -101zM732 448c-77 0 -115 -42 -137 -112h234c2 12 4 24 4 38
c0 43 -20 74 -101 74z" />
    <glyph glyph-name="endash" unicode="&#x2013;" horiz-adv-x="727" 
d="M15 258l30 140h650l-30 -140h-650z" />
    <glyph glyph-name="emdash" unicode="&#x2014;" horiz-adv-x="942" 
d="M15 258l30 140h866l-30 -140h-866z" />
    <glyph glyph-name="quotedblleft" unicode="&#x201c;" horiz-adv-x="531" 
d="M63 402l26 125c26 121 45 162 175 214l28 -75c-74 -31 -89 -45 -98 -88h83l-37 -176h-177zM306 402l27 125c25 121 44 162 174 214l28 -75c-74 -31 -89 -45 -99 -88h84l-37 -176h-177z" />
    <glyph glyph-name="quotedblright" unicode="&#x201d;" horiz-adv-x="531" 
d="M111 402l-28 74c74 33 89 46 98 90h-84l38 175h178l-27 -125c-26 -121 -44 -162 -175 -214zM355 402l-30 74c74 33 90 46 99 90h-84l38 175h177l-27 -125c-25 -121 -43 -162 -173 -214z" />
    <glyph glyph-name="quoteleft" unicode="&#x2018;" horiz-adv-x="293" 
d="M61 395l27 128c26 125 46 166 179 220l30 -77c-77 -33 -92 -47 -102 -91h86l-38 -180h-182z" />
    <glyph glyph-name="quoteright" unicode="&#x2019;" horiz-adv-x="293" 
d="M111 393l-30 77c76 32 91 46 101 90h-86l39 181h182l-27 -128c-27 -126 -46 -167 -179 -220z" />
    <glyph glyph-name="divide" unicode="&#xf7;" horiz-adv-x="722" 
d="M220 79l29 135h159l-29 -135h-159zM74 282l31 141h536l-30 -141h-537zM308 491l28 135h159l-29 -135h-158z" />
    <glyph glyph-name="lozenge" unicode="&#x25ca;" horiz-adv-x="641" 
d="M245 0l-225 371l225 370h153l225 -370l-226 -371h-152zM322 121l143 247l-145 252l-143 -248z" />
    <glyph glyph-name="ydieresis" unicode="&#xff;" horiz-adv-x="564" 
d="M40 -170c-32 0 -59 1 -76 2l25 118h42c63 0 69 8 87 42l14 27l-87 547h165l44 -342l187 342h162l-349 -602c-61 -105 -97 -134 -214 -134zM155 620l29 136h142l-29 -136h-142zM377 620l29 136h142l-29 -136h-142z" />
    <glyph glyph-name="Ydieresis" unicode="&#x178;" horiz-adv-x="740" 
d="M208 0l57 269l-179 472h171l119 -322l254 322h180l-382 -475l-56 -266h-164zM275 781l29 136h142l-29 -136h-142zM497 781l29 136h142l-29 -136h-142z" />
    <glyph glyph-name="fraction" unicode="&#x2044;" horiz-adv-x="553" 
d="M-78 0l573 741h138l-573 -741h-138z" />
    <glyph glyph-name="fraction" unicode="&#x2215;" horiz-adv-x="553" 
d="M-78 0l573 741h138l-573 -741h-138z" />
    <glyph glyph-name="Euro" unicode="&#x20ac;" horiz-adv-x="698" 
d="M35 394l23 109h108c54 150 162 250 317 250c107 0 183 -25 232 -58l-91 -123c-31 20 -73 41 -144 41c-75 0 -124 -46 -155 -110h208l-22 -109h-220c-4 -19 -7 -39 -9 -58h216l-23 -110h-194c8 -64 43 -104 124 -104c30 0 79 5 122 29l65 -115c-59 -36 -138 -48 -206 -48
c-177 0 -252 95 -260 238h-127l23 110h108c2 19 4 39 8 58h-103z" />
    <glyph glyph-name="guilsinglleft" unicode="&#x2039;" horiz-adv-x="486" 
d="M156 0l-91 282l211 284h141l-199 -284l78 -282h-140z" />
    <glyph glyph-name="guilsinglright" unicode="&#x203a;" horiz-adv-x="486" 
d="M33 0l199 284l-78 282h140l91 -283l-211 -283h-141z" />
    <glyph glyph-name="daggerdbl" unicode="&#x2021;" horiz-adv-x="598" 
d="M108 -166l50 237h-174l30 141h174l41 195h-174l30 141h174l49 228h155l-49 -228h175l-30 -141h-175l-41 -195h175l-30 -141h-175l-50 -237h-155z" />
    <glyph glyph-name="periodcentered" unicode="&#xb7;" horiz-adv-x="293" 
d="M35 274l39 184h182l-39 -184h-182z" />
    <glyph glyph-name="periodcentered" unicode="&#x2219;" horiz-adv-x="293" 
d="M35 274l39 184h182l-39 -184h-182z" />
    <glyph glyph-name="quotesinglbase" unicode="&#x201a;" horiz-adv-x="293" 
d="M-8 -162l-28 77c75 32 90 47 100 91h-86l39 180h182l-28 -129c-24 -113 -45 -166 -179 -219z" />
    <glyph glyph-name="quotedblbase" unicode="&#x201e;" horiz-adv-x="531" 
d="M-8 -157l-28 74c74 31 89 45 98 89h-84l37 175h178l-26 -124c-24 -111 -44 -163 -175 -214zM236 -157l-30 74c74 31 89 45 99 89h-84l37 175h177l-26 -124c-24 -111 -43 -163 -173 -214z" />
    <glyph glyph-name="perthousand" unicode="&#x2030;" horiz-adv-x="1712" 
d="M262 263c-141 0 -209 74 -209 188c0 198 126 302 262 302c140 0 208 -79 208 -193c0 -188 -120 -297 -261 -297zM273 380c71 0 109 82 109 174c0 47 -19 78 -76 78c-66 0 -111 -69 -111 -174c0 -47 20 -78 78 -78zM895 -11c-142 0 -209 74 -209 188
c0 198 125 302 262 302c140 0 208 -78 208 -193c0 -187 -120 -297 -261 -297zM906 106c71 0 109 83 109 174c0 47 -20 79 -76 79c-66 0 -111 -69 -111 -175c0 -47 20 -78 78 -78zM1400 -11c-141 0 -208 74 -208 188c0 198 125 302 261 302c140 0 209 -78 209 -193
c0 -187 -120 -297 -262 -297zM1412 106c70 0 108 83 108 174c0 47 -19 79 -76 79c-66 0 -111 -69 -111 -175c0 -47 20 -78 79 -78zM249 0l568 741h145l-567 -741h-146z" />
    <glyph glyph-name="Acircumflex" unicode="&#xc2;" horiz-adv-x="763" 
d="M-64 0l444 746h159l124 -746h-163l-19 122h-302l-70 -122h-173zM255 257h205l-44 280zM234 781l191 183h163l113 -183h-144l-70 86l-107 -86h-146z" />
    <glyph glyph-name="Ecircumflex" unicode="&#xca;" horiz-adv-x="675" 
d="M191 781l191 183h163l113 -183h-144l-70 86l-107 -86h-146zM-4 0l158 741h544l-32 -148h-380l-31 -144h371l-31 -143h-370l-35 -164h384l-30 -142h-548z" />
    <glyph glyph-name="Aacute" unicode="&#xc1;" horiz-adv-x="763" 
d="M-64 0l444 746h159l124 -746h-163l-19 122h-302l-70 -122h-173zM255 257h205l-44 280zM362 781l180 183h194l-230 -183h-144z" />
    <glyph glyph-name="Edieresis" unicode="&#xcb;" horiz-adv-x="675" 
d="M243 781l29 136h142l-29 -136h-142zM465 781l29 136h142l-29 -136h-142zM-4 0l158 741h544l-32 -148h-380l-31 -144h371l-31 -143h-370l-35 -164h384l-30 -142h-548z" />
    <glyph glyph-name="Egrave" unicode="&#xc8;" horiz-adv-x="675" 
d="M-4 0l158 741h544l-32 -148h-380l-31 -144h371l-31 -143h-370l-35 -164h384l-30 -142h-548zM391 781l-151 183h183l102 -183h-134z" />
    <glyph glyph-name="Iacute" unicode="&#xcd;" horiz-adv-x="333" 
d="M180 781l149 184h192l-198 -184h-143zM7 0l158 741h163l-158 -741h-163z" />
    <glyph glyph-name="Icircumflex" unicode="&#xce;" horiz-adv-x="333" 
d="M7 0l158 741h163l-158 -741h-163zM21 781l191 183h163l113 -183h-144l-70 86l-107 -86h-146z" />
    <glyph glyph-name="Idieresis" unicode="&#xcf;" horiz-adv-x="333" 
d="M7 0l158 741h163l-158 -741h-163zM73 781l29 136h142l-29 -136h-142zM295 781l29 136h142l-29 -136h-142z" />
    <glyph glyph-name="Igrave" unicode="&#xcc;" horiz-adv-x="333" 
d="M190 781l-121 184h183l71 -184h-133zM7 0l158 741h163l-158 -741h-163z" />
    <glyph glyph-name="Oacute" unicode="&#xd3;" horiz-adv-x="841" 
d="M401 781l180 183h194l-230 -183h-144zM388 -12c-225 0 -363 103 -363 303c0 37 4 77 13 121c59 277 240 341 418 341c222 0 360 -101 360 -300c0 -37 -4 -77 -13 -119c-60 -279 -240 -346 -415 -346zM390 132c140 0 216 69 247 214c6 30 10 58 10 85
c0 102 -54 172 -199 172c-140 0 -216 -69 -246 -212c-6 -29 -9 -58 -9 -85c0 -102 53 -174 197 -174z" />
    <glyph glyph-name="Ocircumflex" unicode="&#xd4;" horiz-adv-x="841" 
d="M273 781l191 183h163l113 -183h-144l-70 86l-107 -86h-146zM388 -12c-225 0 -363 103 -363 303c0 37 4 77 13 121c59 277 240 341 418 341c222 0 360 -101 360 -300c0 -37 -4 -77 -13 -119c-60 -279 -240 -346 -415 -346zM390 132c140 0 216 69 247 214c6 30 10 58 10 85
c0 102 -54 172 -199 172c-140 0 -216 -69 -246 -212c-6 -29 -9 -58 -9 -85c0 -102 53 -174 197 -174z" />
    <glyph glyph-name="apple" unicode="&#xf8ff;" horiz-adv-x="832" 
d="M126 120c-56 67 -90 155 -90 251c0 95 34 183 90 250c0 0 3 -2 7 -6c-54 -66 -87 -151 -87 -244s33 -178 88 -244c-5 -4 -8 -7 -8 -7zM228 211c-35 43 -57 99 -57 160s21 116 56 160c3 -2 5 -5 8 -7c-33 -41 -54 -95 -54 -153s20 -112 54 -153c-2 -3 -5 -5 -7 -7z
M264 243c-28 35 -45 79 -45 128c0 48 17 93 45 128c3 -2 5 -5 8 -7c-27 -33 -43 -75 -43 -121s16 -88 43 -121c-3 -2 -5 -5 -8 -7zM316 289c-18 23 -28 51 -28 82s10 59 28 81c2 -2 5 -4 7 -7c-15 -20 -25 -46 -25 -74s10 -54 26 -75c-3 -2 -5 -5 -8 -7zM349 320
c-10 14 -16 32 -16 51s6 37 16 51c3 -2 5 -5 8 -7c-9 -13 -14 -28 -14 -44s5 -31 14 -44c-3 -2 -5 -4 -8 -7zM378 346c-4 7 -7 16 -7 25s3 18 7 25c4 -3 6 -5 6 -5c-3 -6 -5 -13 -5 -20s2 -14 5 -20c0 0 -2 -2 -6 -5zM416 60c-78 0 -148 29 -201 77c0 0 7 8 7 7
c52 -46 120 -74 194 -74s142 28 193 74c2 -3 5 -5 7 -8c-53 -47 -123 -76 -200 -76zM416 324c-10 0 -19 3 -27 9c2 1 6 6 6 6c6 -4 13 -7 21 -7s15 2 21 7c0 0 2 -2 5 -6c-7 -6 -16 -9 -26 -9zM482 319c-2 3 -4 5 -7 7c9 13 14 29 14 45c0 17 -5 32 -14 44c0 0 8 7 7 7
c11 -14 17 -32 17 -51s-6 -37 -17 -52zM292 269c-22 28 -35 64 -35 102c0 39 13 74 36 102l7 -7c-20 -26 -33 -59 -33 -95s13 -69 33 -95c-2 -2 -5 -5 -8 -7zM416 -17c-96 0 -185 37 -252 97l7 8c65 -59 151 -95 245 -95s179 36 244 94c0 1 7 -7 7 -7
c-67 -61 -155 -97 -251 -97zM416 121c-62 0 -118 23 -161 61l7 8c41 -37 95 -59 154 -59s113 22 153 59c2 -3 5 -5 7 -8c-42 -38 -98 -61 -160 -61zM416 170c-49 0 -94 19 -129 49l7 7c33 -29 75 -46 122 -46c46 0 89 17 121 46c2 -3 5 -5 7 -8c-34 -30 -79 -48 -128 -48z
M416 209c-39 0 -75 15 -103 38l7 8c26 -22 60 -36 96 -36s70 14 96 36c2 -2 4 -5 6 -8c-27 -23 -63 -38 -102 -38zM416 265c-25 0 -48 9 -66 24l7 8c16 -14 37 -22 59 -22s42 8 58 22c2 -3 5 -5 7 -8c-18 -15 -40 -24 -65 -24zM358 445c-4 3 -7 7 -8 8c18 15 41 24 66 24
s48 -9 66 -24l-8 -8c-16 14 -36 22 -58 22s-42 -8 -58 -22zM570 552c-41 37 -95 59 -154 59s-112 -22 -153 -58l-7 7c43 38 99 61 160 61c62 0 118 -23 161 -61c-2 -3 -5 -6 -7 -8zM454 346c-4 3 -6 5 -6 5c3 6 5 13 5 20s-2 14 -5 20l6 5c4 -7 7 -16 7 -25s-3 -18 -7 -25z
M468 333c-3 3 -5 5 -8 7c6 9 10 20 10 31s-4 22 -10 31l8 7c8 -11 12 -24 12 -38s-4 -27 -12 -38zM498 306c-3 2 -6 5 -8 7c12 16 19 36 19 58s-7 42 -19 58l7 7c14 -18 22 -41 22 -65s-8 -46 -21 -65zM540 269c-3 2 -5 5 -8 7c20 26 33 59 33 95s-13 69 -34 95l8 7
c23 -28 36 -63 36 -102s-13 -74 -35 -102zM568 243c-2 2 -5 5 -8 7c27 33 43 75 43 121s-16 88 -43 121l8 7c28 -35 45 -79 45 -128s-17 -93 -45 -128zM604 211c0 0 -3 2 -8 7c35 42 55 95 55 153s-20 112 -55 153l8 7c36 -43 57 -99 57 -160s-21 -117 -57 -160zM649 171
c-2 2 -5 4 -7 6c43 53 69 120 69 194s-26 141 -70 193l8 7c45 -54 72 -124 72 -200s-27 -146 -72 -200zM706 120c0 0 -3 3 -8 7c55 66 88 151 88 244s-33 178 -88 244l8 7c56 -67 90 -155 90 -251c0 -95 -34 -183 -90 -251zM183 170c-45 55 -72 124 -72 201
c0 76 27 146 71 200c2 -2 5 -4 8 -7c-43 -52 -69 -120 -69 -193c0 -74 26 -142 69 -194zM334 306c-13 18 -21 40 -21 65c0 24 8 47 21 65c3 -2 6 -5 8 -7c-12 -16 -19 -36 -19 -58c0 -21 7 -41 19 -57zM364 333c-8 11 -12 24 -12 38s4 27 12 38c2 -3 5 -5 7 -7
c-5 -9 -9 -20 -9 -31s4 -22 9 -31zM395 403l-5 6c7 6 16 9 26 9s19 -3 26 -9c-3 -3 -5 -6 -5 -6c-6 4 -13 7 -21 7s-15 -2 -21 -7zM384 416l-7 7c11 9 24 14 39 14c14 0 27 -5 38 -14c-2 -2 -4 -4 -6 -7c-9 8 -20 12 -32 12s-23 -5 -32 -12zM371 430l-7 8c14 12 33 19 52 19
c20 0 38 -7 52 -19c-4 -4 -7 -8 -7 -8c-12 11 -28 17 -45 17s-33 -6 -45 -17zM295 516l-7 8c34 30 79 48 128 48s94 -18 128 -49c1 0 -6 -7 -6 -7c-33 29 -76 46 -122 46s-89 -17 -121 -46zM416 240c-32 0 -61 11 -83 30l7 8c21 -17 48 -28 76 -28c29 0 55 11 75 28l7 -7
c-22 -19 -50 -31 -82 -31zM416 285c-20 0 -38 7 -53 19l7 8c13 -10 29 -17 46 -17s32 6 45 17l7 -8c-14 -12 -32 -19 -52 -19zM416 305c-15 0 -28 5 -40 14l7 7c10 -7 21 -12 33 -12s23 5 32 12l7 -7c-11 -9 -25 -14 -39 -14zM341 464l-7 7c22 19 51 31 82 31s60 -11 82 -30
l-7 -8c-20 17 -46 28 -75 28c-28 0 -54 -10 -75 -28zM320 487l-7 8c28 24 64 38 103 38s75 -15 102 -39l-6 -7c-26 23 -59 36 -96 36c-36 0 -70 -14 -96 -36zM610 597c-51 47 -119 75 -194 75c-74 0 -142 -28 -194 -74l-7 7c54 48 124 77 201 77s147 -29 201 -77zM172 654
l-7 8c67 61 155 97 251 97s185 -37 252 -97l-7 -8c-65 59 -151 95 -245 95s-179 -36 -244 -95zM516 290l-7 7c15 20 25 46 25 74s-10 54 -26 75l8 7c18 -23 28 -51 28 -82s-10 -59 -28 -81z" />
    <glyph glyph-name="Ograve" unicode="&#xd2;" horiz-adv-x="841" 
d="M388 -12c-225 0 -363 103 -363 303c0 37 4 77 13 121c59 277 240 341 418 341c222 0 360 -101 360 -300c0 -37 -4 -77 -13 -119c-60 -279 -240 -346 -415 -346zM390 132c140 0 216 69 247 214c6 30 10 58 10 85c0 102 -54 172 -199 172c-140 0 -216 -69 -246 -212
c-6 -29 -9 -58 -9 -85c0 -102 53 -174 197 -174zM473 781l-151 183h183l102 -183h-134z" />
    <glyph glyph-name="Uacute" unicode="&#xda;" horiz-adv-x="797" 
d="M379 781l180 183h194l-230 -183h-144zM352 -14c-250 0 -309 107 -309 221c0 33 5 68 12 101l93 433h164l-90 -425c-6 -28 -10 -54 -10 -77c0 -67 36 -108 158 -108c120 0 158 48 182 162l95 448h159l-103 -479c-30 -141 -90 -276 -351 -276z" />
    <glyph glyph-name="Ucircumflex" unicode="&#xdb;" horiz-adv-x="797" 
d="M251 781l191 183h163l113 -183h-144l-70 86l-107 -86h-146zM352 -14c-250 0 -309 107 -309 221c0 33 5 68 12 101l93 433h164l-90 -425c-6 -28 -10 -54 -10 -77c0 -67 36 -108 158 -108c120 0 158 48 182 162l95 448h159l-103 -479c-30 -141 -90 -276 -351 -276z" />
    <glyph glyph-name="Ugrave" unicode="&#xd9;" horiz-adv-x="797" 
d="M352 -14c-250 0 -309 107 -309 221c0 33 5 68 12 101l93 433h164l-90 -425c-6 -28 -10 -54 -10 -77c0 -67 36 -108 158 -108c120 0 158 48 182 162l95 448h159l-103 -479c-30 -141 -90 -276 -351 -276zM451 781l-151 183h183l102 -183h-134z" />
    <glyph glyph-name="dotlessi" unicode="&#x131;" horiz-adv-x="293" 
d="M-11 0l121 566h156l-120 -566h-157z" />
    <glyph glyph-name="circumflex" unicode="&#x2c6;" horiz-adv-x="590" 
d="M115 620l191 183h163l113 -183h-144l-70 86l-107 -86h-146z" />
    <glyph glyph-name="tilde" unicode="&#x2dc;" horiz-adv-x="590" 
d="M449 620c-77 0 -121 54 -171 54c-27 0 -54 -20 -78 -48l-78 74c52 62 107 95 162 95c77 0 121 -54 171 -54c26 0 51 19 77 49l78 -73c-54 -65 -108 -97 -161 -97z" />
    <glyph glyph-name="macron" unicode="&#xaf;" horiz-adv-x="590" 
d="M141 620l27 125h414l-26 -125h-415z" />
    <glyph glyph-name="macron" unicode="&#x2c9;" horiz-adv-x="590" 
d="M141 620l27 125h414l-26 -125h-415z" />
    <glyph glyph-name="breve" unicode="&#x2d8;" horiz-adv-x="590" 
d="M368 610c-167 0 -194 87 -192 205l117 13c0 -69 12 -97 83 -97c64 0 92 28 116 97l110 -20c-34 -117 -108 -198 -234 -198z" />
    <glyph glyph-name="dotaccent" unicode="&#x2d9;" horiz-adv-x="590" 
d="M269 620l29 139h159l-29 -139h-159z" />
    <glyph glyph-name="ring" unicode="&#x2da;" horiz-adv-x="590" 
d="M363 610c-95 0 -134 52 -134 116c0 106 63 175 160 175c93 0 134 -56 134 -122c0 -106 -67 -169 -160 -169zM367 687c47 0 76 31 76 83c0 29 -15 54 -59 54c-46 0 -75 -36 -75 -87c0 -28 17 -50 58 -50z" />
    <glyph glyph-name="cedilla" unicode="&#xb8;" horiz-adv-x="590" 
d="M193 -249c-74 0 -125 21 -157 42l54 73c27 -18 58 -33 101 -33c33 0 56 9 56 44c0 32 -45 35 -82 32l-25 19l33 79h88l-20 -49c53 -3 110 -15 110 -79c0 -112 -88 -128 -158 -128z" />
    <glyph glyph-name="hungarumlaut" unicode="&#x2dd;" horiz-adv-x="590" 
d="M115 620l165 183h181l-214 -183h-132zM385 620l166 183h180l-214 -183h-132z" />
    <glyph glyph-name="ogonek" unicode="&#x2db;" horiz-adv-x="590" 
d="M206 -240c-118 0 -151 35 -151 85c0 91 95 140 148 162h91c-76 -45 -126 -84 -126 -127c0 -20 15 -33 66 -33c27 0 53 6 81 17l31 -75c-32 -17 -86 -29 -140 -29z" />
    <glyph glyph-name="caron" unicode="&#x2c7;" horiz-adv-x="590" 
d="M267 620l-113 183h144l70 -86l106 86h147l-191 -183h-163z" />
    <glyph glyph-name="f_f" horiz-adv-x="784" 
d="M361 -165l127 597h-186l-127 -597h-157l127 597h-107l29 134h106l10 46c28 129 86 182 244 182c47 0 48 -1 66 -2l-27 -128h-36c-66 0 -84 -23 -93 -68l-7 -30h186l10 46c28 129 86 182 244 182c46 0 63 -1 81 -2l-27 -128h-51c-66 0 -84 -23 -94 -68l-7 -30h131
l-29 -134h-130l-126 -597h-157z" />
    <glyph glyph-name="a.alt" horiz-adv-x="655" 
d="M214 -9c-160 0 -211 90 -211 205c0 37 6 77 15 117c34 160 103 266 274 266c115 0 163 -18 194 -62l41 52l107 -9l-118 -554l-122 -11v48c-37 -34 -86 -52 -180 -52zM275 125c85 0 121 34 144 142c6 26 8 51 8 72c0 64 -28 99 -113 99c-88 0 -117 -55 -137 -146
c-5 -25 -8 -50 -8 -72c0 -55 23 -95 106 -95z" />
    <glyph glyph-name="g.alt" horiz-adv-x="661" 
d="M245 -179c-143 0 -225 24 -284 50l75 125c49 -25 118 -43 208 -43c91 0 106 11 132 102l2 7c-40 -33 -91 -52 -171 -52c-138 0 -204 62 -204 199c0 30 8 75 15 107c39 167 106 263 274 263c128 0 170 -22 200 -62l41 52l107 -9l-103 -486c-36 -165 -73 -253 -292 -253z
M275 139c82 0 127 33 150 138c6 25 8 49 8 70c0 61 -34 91 -118 91c-85 0 -118 -49 -138 -136c-5 -25 -8 -49 -8 -70c0 -54 26 -93 106 -93z" />
    <glyph glyph-name="l.alt" horiz-adv-x="292" 
d="M-11 0l165 776h157l-165 -776h-157z" />
    <glyph glyph-name="u.alt" horiz-adv-x="643" 
d="M209 -11c-209 0 -208 111 -178 252l69 325h157l-67 -315c-14 -70 -25 -124 86 -124c85 0 105 48 118 112l70 327h156l-119 -560l-121 -11l-3 47c-36 -31 -86 -53 -168 -53z" />
    <glyph glyph-name="aacute.alt" horiz-adv-x="655" 
d="M275 620l180 183h194l-230 -183h-144zM214 -9c-160 0 -211 90 -211 205c0 37 6 77 15 117c34 160 103 266 274 266c115 0 163 -18 194 -62l41 52l107 -9l-118 -554l-122 -11v48c-37 -34 -86 -52 -180 -52zM275 125c85 0 121 34 144 142c6 26 8 51 8 72
c0 64 -28 99 -113 99c-88 0 -117 -55 -137 -146c-5 -25 -8 -50 -8 -72c0 -55 23 -95 106 -95z" />
    <glyph glyph-name="abreve.alt" horiz-adv-x="655" 
d="M214 -9c-160 0 -211 90 -211 205c0 37 6 77 15 117c34 160 103 266 274 266c115 0 163 -18 194 -62l41 52l107 -9l-118 -554l-122 -11v48c-37 -34 -86 -52 -180 -52zM275 125c85 0 121 34 144 142c6 26 8 51 8 72c0 64 -28 99 -113 99c-88 0 -117 -55 -137 -146
c-5 -25 -8 -50 -8 -72c0 -55 23 -95 106 -95zM400 610c-167 0 -194 87 -192 205l117 13c0 -69 12 -97 83 -97c64 0 92 28 116 97l110 -20c-34 -117 -108 -198 -234 -198z" />
    <glyph glyph-name="acircumflex.alt" horiz-adv-x="655" 
d="M147 620l191 183h163l113 -183h-144l-70 86l-107 -86h-146zM214 -9c-160 0 -211 90 -211 205c0 37 6 77 15 117c34 160 103 266 274 266c115 0 163 -18 194 -62l41 52l107 -9l-118 -554l-122 -11v48c-37 -34 -86 -52 -180 -52zM275 125c85 0 121 34 144 142
c6 26 8 51 8 72c0 64 -28 99 -113 99c-88 0 -117 -55 -137 -146c-5 -25 -8 -50 -8 -72c0 -55 23 -95 106 -95z" />
    <glyph glyph-name="adieresis.alt" horiz-adv-x="655" 
d="M199 620l29 136h142l-29 -136h-142zM421 620l29 136h142l-29 -136h-142zM214 -9c-160 0 -211 90 -211 205c0 37 6 77 15 117c34 160 103 266 274 266c115 0 163 -18 194 -62l41 52l107 -9l-118 -554l-122 -11v48c-37 -34 -86 -52 -180 -52zM275 125c85 0 121 34 144 142
c6 26 8 51 8 72c0 64 -28 99 -113 99c-88 0 -117 -55 -137 -146c-5 -25 -8 -50 -8 -72c0 -55 23 -95 106 -95z" />
    <glyph glyph-name="agrave.alt" horiz-adv-x="655" 
d="M214 -9c-160 0 -211 90 -211 205c0 37 6 77 15 117c34 160 103 266 274 266c115 0 163 -18 194 -62l41 52l107 -9l-118 -554l-122 -11v48c-37 -34 -86 -52 -180 -52zM275 125c85 0 121 34 144 142c6 26 8 51 8 72c0 64 -28 99 -113 99c-88 0 -117 -55 -137 -146
c-5 -25 -8 -50 -8 -72c0 -55 23 -95 106 -95zM347 620l-151 183h183l102 -183h-134z" />
    <glyph glyph-name="amacron.alt" horiz-adv-x="655" 
d="M214 -9c-160 0 -211 90 -211 205c0 37 6 77 15 117c34 160 103 266 274 266c115 0 163 -18 194 -62l41 52l107 -9l-118 -554l-122 -11v48c-37 -34 -86 -52 -180 -52zM275 125c85 0 121 34 144 142c6 26 8 51 8 72c0 64 -28 99 -113 99c-88 0 -117 -55 -137 -146
c-5 -25 -8 -50 -8 -72c0 -55 23 -95 106 -95zM173 620l27 125h414l-26 -125h-415z" />
    <glyph glyph-name="aogonek.alt" horiz-adv-x="655" 
d="M214 -9c-160 0 -211 90 -211 205c0 37 6 77 15 117c34 160 103 266 274 266c115 0 163 -18 194 -62l41 52l107 -9l-118 -554h-1c-67 -41 -116 -83 -116 -126c0 -20 14 -33 61 -33c27 0 46 4 73 15l32 -75c-29 -15 -74 -27 -128 -27c-112 0 -152 35 -152 92
c0 74 57 122 109 148v43c-37 -34 -86 -52 -180 -52zM275 125c85 0 121 34 144 142c6 26 8 51 8 72c0 64 -28 99 -113 99c-88 0 -117 -55 -137 -146c-5 -25 -8 -50 -8 -72c0 -55 23 -95 106 -95z" />
    <glyph glyph-name="aring.alt" horiz-adv-x="655" 
d="M395 610c-95 0 -134 52 -134 116c0 106 63 175 160 175c93 0 134 -56 134 -122c0 -106 -67 -169 -160 -169zM399 687c47 0 76 31 76 83c0 29 -15 54 -59 54c-46 0 -75 -36 -75 -87c0 -28 17 -50 58 -50zM214 -9c-160 0 -211 90 -211 205c0 37 6 77 15 117
c34 160 103 266 274 266c115 0 163 -18 194 -62l41 52l107 -9l-118 -554l-122 -11v48c-37 -34 -86 -52 -180 -52zM275 125c85 0 121 34 144 142c6 26 8 51 8 72c0 64 -28 99 -113 99c-88 0 -117 -55 -137 -146c-5 -25 -8 -50 -8 -72c0 -55 23 -95 106 -95z" />
    <glyph glyph-name="atilde.alt" horiz-adv-x="655" 
d="M214 -9c-160 0 -211 90 -211 205c0 37 6 77 15 117c34 160 103 266 274 266c115 0 163 -18 194 -62l41 52l107 -9l-118 -554l-122 -11v48c-37 -34 -86 -52 -180 -52zM275 125c85 0 121 34 144 142c6 26 8 51 8 72c0 64 -28 99 -113 99c-88 0 -117 -55 -137 -146
c-5 -25 -8 -50 -8 -72c0 -55 23 -95 106 -95zM481 620c-77 0 -121 54 -171 54c-27 0 -54 -20 -78 -48l-78 74c52 62 107 95 162 95c77 0 121 -54 171 -54c26 0 51 19 77 49l78 -73c-54 -65 -108 -97 -161 -97z" />
    <glyph glyph-name="gbreve.alt" horiz-adv-x="661" 
d="M245 -179c-143 0 -225 24 -284 50l75 125c49 -25 118 -43 208 -43c91 0 106 11 132 102l2 7c-40 -33 -91 -52 -171 -52c-138 0 -204 62 -204 199c0 30 8 75 15 107c39 167 106 263 274 263c128 0 170 -22 200 -62l41 52l107 -9l-103 -486c-36 -165 -73 -253 -292 -253z
M275 139c82 0 127 33 150 138c6 25 8 49 8 70c0 61 -34 91 -118 91c-85 0 -118 -49 -138 -136c-5 -25 -8 -49 -8 -70c0 -54 26 -93 106 -93zM403 610c-167 0 -194 87 -192 205l117 13c0 -69 12 -97 83 -97c64 0 92 28 116 97l110 -20c-34 -117 -108 -198 -234 -198z" />
    <glyph glyph-name="gcommaaccent.alt" horiz-adv-x="661" 
d="M306 620l20 96c23 104 44 144 160 182l19 -67c-66 -28 -78 -37 -85 -70h74l-30 -141h-158zM245 -179c-143 0 -225 24 -284 50l75 125c49 -25 118 -43 208 -43c91 0 106 11 132 102l2 7c-40 -33 -91 -52 -171 -52c-138 0 -204 62 -204 199c0 30 8 75 15 107
c39 167 106 263 274 263c128 0 170 -22 200 -62l41 52l107 -9l-103 -486c-36 -165 -73 -253 -292 -253zM275 139c82 0 127 33 150 138c6 25 8 49 8 70c0 61 -34 91 -118 91c-85 0 -118 -49 -138 -136c-5 -25 -8 -49 -8 -70c0 -54 26 -93 106 -93z" />
    <glyph glyph-name="lacute.alt" horiz-adv-x="292" 
d="M169 816l180 183h194l-230 -183h-144zM-11 0l165 776h157l-165 -776h-157z" />
    <glyph glyph-name="lcommaaccent.alt" horiz-adv-x="292" 
d="M-42 -330l-20 66c66 29 78 38 85 71h-73l32 155h158l-23 -110c-23 -106 -43 -142 -159 -182zM-11 0l165 776h157l-165 -776h-157z" />
    <glyph glyph-name="lslash.alt" horiz-adv-x="332" 
d="M-10 323l29 132l97 50l58 271h157l-39 -181l99 51l-29 -133l-98 -50l-98 -463h-157l79 373z" />
    <glyph glyph-name="lcaron.alt" horiz-adv-x="442" 
d="M344 484l-19 67c66 28 77 37 85 70h-66l32 155h151l-23 -110c-23 -105 -45 -136 -160 -182zM-11 0l165 776h157l-165 -776h-157z" />
    <glyph glyph-name="uacute.alt" horiz-adv-x="643" 
d="M268 620l180 183h194l-230 -183h-144zM209 -11c-209 0 -208 111 -178 252l69 325h157l-67 -315c-14 -70 -25 -124 86 -124c85 0 105 48 118 112l70 327h156l-119 -560l-121 -11l-3 47c-36 -31 -86 -53 -168 -53z" />
    <glyph glyph-name="ucircumflex.alt" horiz-adv-x="643" 
d="M140 620l191 183h163l113 -183h-144l-70 86l-107 -86h-146zM209 -11c-209 0 -208 111 -178 252l69 325h157l-67 -315c-14 -70 -25 -124 86 -124c85 0 105 48 118 112l70 327h156l-119 -560l-121 -11l-3 47c-36 -31 -86 -53 -168 -53z" />
    <glyph glyph-name="udieresis.alt" horiz-adv-x="643" 
d="M192 620l29 136h142l-29 -136h-142zM414 620l29 136h142l-29 -136h-142zM209 -11c-209 0 -208 111 -178 252l69 325h157l-67 -315c-14 -70 -25 -124 86 -124c85 0 105 48 118 112l70 327h156l-119 -560l-121 -11l-3 47c-36 -31 -86 -53 -168 -53z" />
    <glyph glyph-name="ugrave.alt" horiz-adv-x="643" 
d="M340 620l-151 183h183l102 -183h-134zM209 -11c-209 0 -208 111 -178 252l69 325h157l-67 -315c-14 -70 -25 -124 86 -124c85 0 105 48 118 112l70 327h156l-119 -560l-121 -11l-3 47c-36 -31 -86 -53 -168 -53z" />
    <glyph glyph-name="uhungarumlaut.alt" horiz-adv-x="643" 
d="M140 620l165 183h181l-214 -183h-132zM410 620l166 183h180l-214 -183h-132zM209 -11c-209 0 -208 111 -178 252l69 325h157l-67 -315c-14 -70 -25 -124 86 -124c85 0 105 48 118 112l70 327h156l-119 -560l-121 -11l-3 47c-36 -31 -86 -53 -168 -53z" />
    <glyph glyph-name="umacron.alt" horiz-adv-x="643" 
d="M166 620l27 125h414l-26 -125h-415zM209 -11c-209 0 -208 111 -178 252l69 325h157l-67 -315c-14 -70 -25 -124 86 -124c85 0 105 48 118 112l70 327h156l-119 -560l-121 -11l-3 47c-36 -31 -86 -53 -168 -53z" />
    <glyph glyph-name="uogonek.alt" horiz-adv-x="643" 
d="M209 -11c-209 0 -208 111 -178 252l69 325h157l-67 -315c-14 -70 -25 -124 86 -124c85 0 105 48 118 112l70 327h156l-119 -560c-66 -41 -116 -83 -116 -126c0 -20 15 -33 61 -33c27 0 46 4 74 15l31 -75c-28 -15 -74 -27 -128 -27c-112 0 -151 35 -151 92
c0 74 56 121 107 147l-2 43c-36 -31 -86 -53 -168 -53z" />
    <glyph glyph-name="uring.alt" horiz-adv-x="643" 
d="M388 610c-95 0 -134 52 -134 116c0 106 63 175 160 175c93 0 134 -56 134 -122c0 -106 -67 -169 -160 -169zM392 687c47 0 76 31 76 83c0 29 -15 54 -59 54c-46 0 -75 -36 -75 -87c0 -28 17 -50 58 -50zM209 -11c-209 0 -208 111 -178 252l69 325h157l-67 -315
c-14 -70 -25 -124 86 -124c85 0 105 48 118 112l70 327h156l-119 -560l-121 -11l-3 47c-36 -31 -86 -53 -168 -53z" />
    <glyph glyph-name="fl.alt" horiz-adv-x="700" 
d="M38 432l29 134h106l10 46c28 129 86 182 244 182c31 0 52 -1 66 -2l-27 -128h-36c-66 0 -84 -23 -93 -68l-7 -30h115l-28 -134h-115l-127 -597h-157l127 597h-107zM397 0l166 776h157l-167 -776h-156z" />
    <glyph glyph-name="f_f_l.alt" horiz-adv-x="1043" 
d="M361 -165l127 597h-186l-127 -597h-157l127 597h-107l29 134h106l10 46c28 129 86 182 244 182c47 0 48 -1 66 -2l-27 -128h-36c-66 0 -84 -23 -93 -68l-7 -30h186l10 46c28 129 86 182 244 182c27 0 48 -1 66 -2l-28 -128h-35c-66 0 -84 -23 -94 -68l-7 -30h116
l-29 -134h-115l-126 -597h-157zM739 0l166 776h156l-165 -776h-157z" />
    <glyph glyph-name="A.biform" horiz-adv-x="793" 
d="M291 -11c-221 0 -283 85 -284 192c0 234 143 287 413 287h144c16 76 9 135 -139 135c-72 0 -169 -25 -216 -50l-62 131c60 34 182 69 296 69c308 0 310 -147 274 -316l-47 -223c-12 -58 -12 -68 43 -68h6l-30 -144c-15 -3 -43 -4 -85 -4c-39 0 -63 7 -80 22
c-9 9 -17 19 -23 34c-38 -47 -135 -65 -210 -65zM341 128c115 0 160 41 185 156l11 56h-109c-196 0 -253 -24 -253 -122c0 -61 35 -90 166 -90z" />
    <glyph glyph-name="E.biform" horiz-adv-x="794" 
d="M384 -11c-266 0 -359 121 -359 293c0 50 6 90 15 129c50 235 179 342 410 342c244 0 312 -115 312 -261c0 -59 -14 -133 -30 -196h-544c1 -107 61 -163 205 -163c74 0 148 24 220 71l82 -122c-92 -68 -216 -93 -311 -93zM437 605c-126 0 -192 -46 -229 -175h387
c3 17 5 33 5 50c0 76 -35 125 -163 125z" />
    <glyph glyph-name="M.biform" horiz-adv-x="1269" 
d="M-5 0l155 729l134 12l-2 -58c39 41 113 70 215 70c151 0 198 -30 222 -83c41 48 114 83 259 83c266 0 271 -147 235 -316l-93 -437h-164l93 438c19 90 25 165 -134 165c-130 0 -162 -70 -183 -167l-93 -436h-164l93 438c20 95 23 165 -134 165c-129 0 -162 -69 -182 -167
l-93 -436h-164z" />
    <glyph glyph-name="N.biform" horiz-adv-x="804" 
d="M-5 0l155 729l134 12l-2 -58c39 41 122 70 224 70c267 0 279 -147 244 -316l-93 -437h-164l93 438c19 90 17 165 -143 165c-129 0 -171 -69 -191 -167l-93 -436h-164z" />
    <glyph glyph-name="R.biform" horiz-adv-x="474" 
d="M-5 0l155 729l134 12l-2 -67c35 38 110 73 250 73l-33 -156c-156 0 -226 -56 -247 -160l-92 -431h-165z" />
    <glyph glyph-name="U.biform" horiz-adv-x="807" 
d="M301 -12c-256 0 -279 147 -244 316l93 437h165l-96 -445c-19 -90 -16 -165 143 -165c129 0 171 68 191 167l95 443h164l-155 -729l-133 -12l1 55c-37 -37 -109 -67 -224 -67z" />
    <glyph glyph-name="AE.biform" horiz-adv-x="1291" 
d="M291 -11c-221 0 -283 85 -284 192c0 234 146 287 413 287h144c16 76 9 135 -139 135c-72 0 -169 -25 -216 -50l-62 131c60 34 182 69 296 69c138 0 211 -30 247 -78c63 53 147 78 258 78c245 0 312 -115 312 -261c0 -59 -12 -133 -29 -196h-544c1 -107 60 -163 205 -163
c73 0 148 24 220 71l81 -122c-92 -68 -216 -93 -310 -93c-156 0 -247 41 -296 110c-64 -66 -156 -110 -296 -110zM341 128c115 0 160 41 185 156l11 56h-108c-196 0 -254 -24 -254 -122c0 -61 35 -90 166 -90zM936 605c-127 0 -192 -46 -229 -175h387c2 17 4 33 4 50
c0 76 -35 125 -162 125z" />
    <glyph glyph-name="Aacute.biform" horiz-adv-x="793" 
d="M378 781l180 183h194l-230 -183h-144zM291 -11c-221 0 -283 85 -284 192c0 234 143 287 413 287h144c16 76 9 135 -139 135c-72 0 -169 -25 -216 -50l-62 131c60 34 182 69 296 69c308 0 310 -147 274 -316l-47 -223c-12 -58 -12 -68 43 -68h6l-30 -144
c-15 -3 -43 -4 -85 -4c-39 0 -63 7 -80 22c-9 9 -17 19 -23 34c-38 -47 -135 -65 -210 -65zM341 128c115 0 160 41 185 156l11 56h-109c-196 0 -253 -24 -253 -122c0 -61 35 -90 166 -90z" />
    <glyph glyph-name="Abreve.biform" horiz-adv-x="793" 
d="M291 -11c-221 0 -283 85 -284 192c0 234 143 287 413 287h144c16 76 9 135 -139 135c-72 0 -169 -25 -216 -50l-62 131c60 34 182 69 296 69c308 0 310 -147 274 -316l-47 -223c-12 -58 -12 -68 43 -68h6l-30 -144c-15 -3 -43 -4 -85 -4c-39 0 -63 7 -80 22
c-9 9 -17 19 -23 34c-38 -47 -135 -65 -210 -65zM341 128c115 0 160 41 185 156l11 56h-109c-196 0 -253 -24 -253 -122c0 -61 35 -90 166 -90zM503 771c-167 0 -194 87 -192 205l117 13c0 -69 12 -97 83 -97c64 0 92 28 116 97l110 -20c-34 -117 -108 -198 -234 -198z" />
    <glyph glyph-name="Acircumflex.biform" horiz-adv-x="793" 
d="M250 781l191 183h163l113 -183h-144l-70 86l-107 -86h-146zM291 -11c-221 0 -283 85 -284 192c0 234 143 287 413 287h144c16 76 9 135 -139 135c-72 0 -169 -25 -216 -50l-62 131c60 34 182 69 296 69c308 0 310 -147 274 -316l-47 -223c-12 -58 -12 -68 43 -68h6
l-30 -144c-15 -3 -43 -4 -85 -4c-39 0 -63 7 -80 22c-9 9 -17 19 -23 34c-38 -47 -135 -65 -210 -65zM341 128c115 0 160 41 185 156l11 56h-109c-196 0 -253 -24 -253 -122c0 -61 35 -90 166 -90z" />
    <glyph glyph-name="Adieresis.biform" horiz-adv-x="793" 
d="M302 781l29 136h142l-29 -136h-142zM524 781l29 136h142l-29 -136h-142zM291 -11c-221 0 -283 85 -284 192c0 234 143 287 413 287h144c16 76 9 135 -139 135c-72 0 -169 -25 -216 -50l-62 131c60 34 182 69 296 69c308 0 310 -147 274 -316l-47 -223
c-12 -58 -12 -68 43 -68h6l-30 -144c-15 -3 -43 -4 -85 -4c-39 0 -63 7 -80 22c-9 9 -17 19 -23 34c-38 -47 -135 -65 -210 -65zM341 128c115 0 160 41 185 156l11 56h-109c-196 0 -253 -24 -253 -122c0 -61 35 -90 166 -90z" />
    <glyph glyph-name="Agrave.biform" horiz-adv-x="793" 
d="M291 -11c-221 0 -283 85 -284 192c0 234 143 287 413 287h144c16 76 9 135 -139 135c-72 0 -169 -25 -216 -50l-62 131c60 34 182 69 296 69c308 0 310 -147 274 -316l-47 -223c-12 -58 -12 -68 43 -68h6l-30 -144c-15 -3 -43 -4 -85 -4c-39 0 -63 7 -80 22
c-9 9 -17 19 -23 34c-38 -47 -135 -65 -210 -65zM341 128c115 0 160 41 185 156l11 56h-109c-196 0 -253 -24 -253 -122c0 -61 35 -90 166 -90zM450 781l-151 183h183l102 -183h-134z" />
    <glyph glyph-name="Amacron.biform" horiz-adv-x="793" 
d="M291 -11c-221 0 -283 85 -284 192c0 234 143 287 413 287h144c16 76 9 135 -139 135c-72 0 -169 -25 -216 -50l-62 131c60 34 182 69 296 69c308 0 310 -147 274 -316l-47 -223c-12 -58 -12 -68 43 -68h6l-30 -144c-15 -3 -43 -4 -85 -4c-39 0 -63 7 -80 22
c-9 9 -17 19 -23 34c-38 -47 -135 -65 -210 -65zM341 128c115 0 160 41 185 156l11 56h-109c-196 0 -253 -24 -253 -122c0 -61 35 -90 166 -90zM276 781l27 125h414l-26 -125h-415z" />
    <glyph glyph-name="Aogonek.biform" horiz-adv-x="793" 
d="M291 -11c-221 0 -283 85 -284 192c0 234 143 287 413 287h144c16 76 9 135 -139 135c-72 0 -169 -25 -216 -50l-62 131c60 34 182 69 296 69c308 0 310 -147 274 -316l-47 -223c-12 -58 -12 -68 43 -68h6l-30 -144c-69 -38 -116 -79 -116 -118c0 -24 15 -37 61 -37
c28 0 46 4 74 15l32 -75c-29 -15 -74 -27 -128 -27c-112 0 -152 35 -152 95c0 74 58 121 108 145c-35 6 -53 23 -67 54c-38 -47 -135 -65 -210 -65zM341 128c115 0 160 41 185 156l11 56h-109c-196 0 -253 -24 -253 -122c0 -61 35 -90 166 -90z" />
    <glyph glyph-name="Aring.biform" horiz-adv-x="793" 
d="M498 771c-95 0 -134 52 -134 116c0 106 63 175 160 175c93 0 134 -56 134 -122c0 -106 -67 -169 -160 -169zM502 848c47 0 76 31 76 83c0 29 -15 54 -59 54c-46 0 -75 -36 -75 -87c0 -28 17 -50 58 -50zM291 -11c-221 0 -283 85 -284 192c0 234 143 287 413 287h144
c16 76 9 135 -139 135c-72 0 -169 -25 -216 -50l-62 131c60 34 182 69 296 69c308 0 310 -147 274 -316l-47 -223c-12 -58 -12 -68 43 -68h6l-30 -144c-15 -3 -43 -4 -85 -4c-39 0 -63 7 -80 22c-9 9 -17 19 -23 34c-38 -47 -135 -65 -210 -65zM341 128
c115 0 160 41 185 156l11 56h-109c-196 0 -253 -24 -253 -122c0 -61 35 -90 166 -90z" />
    <glyph glyph-name="Atilde.biform" horiz-adv-x="793" 
d="M291 -11c-221 0 -283 85 -284 192c0 234 143 287 413 287h144c16 76 9 135 -139 135c-72 0 -169 -25 -216 -50l-62 131c60 34 182 69 296 69c308 0 310 -147 274 -316l-47 -223c-12 -58 -12 -68 43 -68h6l-30 -144c-15 -3 -43 -4 -85 -4c-39 0 -63 7 -80 22
c-9 9 -17 19 -23 34c-38 -47 -135 -65 -210 -65zM341 128c115 0 160 41 185 156l11 56h-109c-196 0 -253 -24 -253 -122c0 -61 35 -90 166 -90zM584 781c-77 0 -121 54 -171 54c-27 0 -54 -20 -78 -48l-78 74c52 62 107 95 162 95c77 0 121 -54 171 -54c26 0 51 19 77 49
l78 -73c-54 -65 -108 -97 -161 -97z" />
    <glyph glyph-name="Eacute.biform" horiz-adv-x="792" 
d="M384 -11c-266 0 -359 121 -359 293c0 50 6 90 15 129c50 235 179 342 410 342c244 0 312 -115 312 -261c0 -59 -14 -133 -30 -196h-544c1 -107 61 -163 205 -163c74 0 148 24 220 71l82 -122c-92 -68 -216 -93 -311 -93zM437 605c-126 0 -192 -46 -229 -175h387
c3 17 5 33 5 50c0 76 -35 125 -163 125zM377 781l180 183h194l-230 -183h-144z" />
    <glyph glyph-name="Ecaron.biform" horiz-adv-x="792" 
d="M384 -11c-266 0 -359 121 -359 293c0 50 6 90 15 129c50 235 179 342 410 342c244 0 312 -115 312 -261c0 -59 -14 -133 -30 -196h-544c1 -107 61 -163 205 -163c74 0 148 24 220 71l82 -122c-92 -68 -216 -93 -311 -93zM437 605c-126 0 -192 -46 -229 -175h387
c3 17 5 33 5 50c0 76 -35 125 -163 125zM401 781l-113 183h144l70 -86l106 86h147l-191 -183h-163z" />
    <glyph glyph-name="Ecircumflex.biform" horiz-adv-x="792" 
d="M384 -11c-266 0 -359 121 -359 293c0 50 6 90 15 129c50 235 179 342 410 342c244 0 312 -115 312 -261c0 -59 -14 -133 -30 -196h-544c1 -107 61 -163 205 -163c74 0 148 24 220 71l82 -122c-92 -68 -216 -93 -311 -93zM437 605c-126 0 -192 -46 -229 -175h387
c3 17 5 33 5 50c0 76 -35 125 -163 125zM249 781l191 183h163l113 -183h-144l-70 86l-107 -86h-146z" />
    <glyph glyph-name="Edieresis.biform" horiz-adv-x="792" 
d="M384 -11c-266 0 -359 121 -359 293c0 50 6 90 15 129c50 235 179 342 410 342c244 0 312 -115 312 -261c0 -59 -14 -133 -30 -196h-544c1 -107 61 -163 205 -163c74 0 148 24 220 71l82 -122c-92 -68 -216 -93 -311 -93zM437 605c-126 0 -192 -46 -229 -175h387
c3 17 5 33 5 50c0 76 -35 125 -163 125zM301 781l29 136h142l-29 -136h-142zM523 781l29 136h142l-29 -136h-142z" />
    <glyph glyph-name="Edotaccent.biform" horiz-adv-x="792" 
d="M384 -11c-266 0 -359 121 -359 293c0 50 6 90 15 129c50 235 179 342 410 342c244 0 312 -115 312 -261c0 -59 -14 -133 -30 -196h-544c1 -107 61 -163 205 -163c74 0 148 24 220 71l82 -122c-92 -68 -216 -93 -311 -93zM437 605c-126 0 -192 -46 -229 -175h387
c3 17 5 33 5 50c0 76 -35 125 -163 125zM403 781l29 139h159l-29 -139h-159z" />
    <glyph glyph-name="Egrave.biform" horiz-adv-x="792" 
d="M384 -11c-266 0 -359 121 -359 293c0 50 6 90 15 129c50 235 179 342 410 342c244 0 312 -115 312 -261c0 -59 -14 -133 -30 -196h-544c1 -107 61 -163 205 -163c74 0 148 24 220 71l82 -122c-92 -68 -216 -93 -311 -93zM437 605c-126 0 -192 -46 -229 -175h387
c3 17 5 33 5 50c0 76 -35 125 -163 125zM449 781l-151 183h183l102 -183h-134z" />
    <glyph glyph-name="Emacron.biform" horiz-adv-x="792" 
d="M384 -11c-266 0 -359 121 -359 293c0 50 6 90 15 129c50 235 179 342 410 342c244 0 312 -115 312 -261c0 -59 -14 -133 -30 -196h-544c1 -107 61 -163 205 -163c74 0 148 24 220 71l82 -122c-92 -68 -216 -93 -311 -93zM437 605c-126 0 -192 -46 -229 -175h387
c3 17 5 33 5 50c0 76 -35 125 -163 125zM275 781l27 125h414l-26 -125h-415z" />
    <glyph glyph-name="Eogonek.biform" horiz-adv-x="792" 
d="M384 -11c-266 0 -359 121 -359 293c0 50 6 90 15 129c50 235 179 342 410 342c244 0 312 -115 312 -261c0 -59 -14 -133 -30 -196h-544c1 -107 61 -163 205 -163c74 0 148 24 220 71l82 -122c-54 -40 -118 -65 -181 -79c-73 -43 -120 -81 -120 -123c0 -20 15 -33 66 -33
c27 0 53 6 81 17l31 -75c-32 -17 -86 -29 -140 -29c-118 0 -151 35 -151 85c0 72 58 117 109 144h-6zM437 605c-126 0 -192 -46 -229 -175h387c3 17 5 33 5 50c0 76 -35 125 -163 125z" />
    <glyph glyph-name="Nacute.biform" horiz-adv-x="804" 
d="M-5 0l155 729l134 12l-2 -58c39 41 122 70 224 70c267 0 279 -147 244 -316l-93 -437h-164l93 438c19 90 17 165 -143 165c-129 0 -171 -69 -191 -167l-93 -436h-164zM383 781l180 183h194l-230 -183h-144z" />
    <glyph glyph-name="Ncaron.biform" horiz-adv-x="804" 
d="M407 781l-113 183h144l70 -86l106 86h147l-191 -183h-163zM-5 0l155 729l134 12l-2 -58c39 41 122 70 224 70c267 0 279 -147 244 -316l-93 -437h-164l93 438c19 90 17 165 -143 165c-129 0 -171 -69 -191 -167l-93 -436h-164z" />
    <glyph glyph-name="Ncommaaccent.biform" horiz-adv-x="804" 
d="M213 -330l-20 66c66 29 78 38 85 71h-73l32 155h158l-23 -110c-23 -106 -43 -142 -159 -182zM-5 0l155 729l134 12l-2 -58c39 41 122 70 224 70c267 0 279 -147 244 -316l-93 -437h-164l93 438c19 90 17 165 -143 165c-129 0 -171 -69 -191 -167l-93 -436h-164z" />
    <glyph glyph-name="Ntilde.biform" horiz-adv-x="804" 
d="M-5 0l155 729l134 12l-2 -58c39 41 122 70 224 70c267 0 279 -147 244 -316l-93 -437h-164l93 438c19 90 17 165 -143 165c-129 0 -171 -69 -191 -167l-93 -436h-164zM589 781c-77 0 -121 54 -171 54c-27 0 -54 -20 -78 -48l-78 74c52 62 107 95 162 95
c77 0 121 -54 171 -54c26 0 51 19 77 49l78 -73c-54 -65 -108 -97 -161 -97z" />
    <glyph glyph-name="OE.biform" horiz-adv-x="1397" 
d="M989 -11c-163 0 -255 45 -302 119c-79 -93 -187 -120 -299 -120c-225 0 -363 103 -363 303c0 37 4 77 13 121c59 277 240 341 418 341c141 0 242 -41 297 -121c65 82 162 121 301 121c245 0 312 -115 312 -261c0 -59 -13 -133 -30 -196h-543c1 -107 60 -163 205 -163
c73 0 148 24 220 71l81 -122c-92 -68 -216 -93 -310 -93zM390 132c140 0 216 69 247 214c6 30 10 58 10 85c0 102 -54 172 -199 172c-140 0 -216 -69 -246 -212c-6 -29 -9 -58 -9 -85c0 -102 53 -174 197 -174zM1042 605c-127 0 -192 -46 -229 -175h386c3 17 5 33 5 50
c0 76 -35 125 -162 125z" />
    <glyph glyph-name="Racute.biform" horiz-adv-x="474" 
d="M218 781l180 183h194l-230 -183h-144zM-5 0l155 729l134 12l-2 -67c35 38 110 73 250 73l-33 -156c-156 0 -226 -56 -247 -160l-92 -431h-165z" />
    <glyph glyph-name="Rcaron.biform" horiz-adv-x="474" 
d="M242 781l-113 183h144l70 -86l106 86h147l-191 -183h-163zM-5 0l155 729l134 12l-2 -67c35 38 110 73 250 73l-33 -156c-156 0 -226 -56 -247 -160l-92 -431h-165z" />
    <glyph glyph-name="Rcommaaccent.biform" horiz-adv-x="474" 
d="M-33 -330l-20 66c66 29 78 38 85 71h-73l32 155h158l-23 -110c-23 -106 -43 -142 -159 -182zM-5 0l155 729l134 12l-2 -67c35 38 110 73 250 73l-33 -156c-156 0 -226 -56 -247 -160l-92 -431h-165z" />
    <glyph glyph-name="Uacute.biform" horiz-adv-x="807" 
d="M301 -12c-256 0 -279 147 -244 316l93 437h165l-96 -445c-19 -90 -16 -165 143 -165c129 0 171 68 191 167l95 443h164l-155 -729l-133 -12l1 55c-37 -37 -109 -67 -224 -67zM384 781l180 183h194l-230 -183h-144z" />
    <glyph glyph-name="Ucircumflex.biform" horiz-adv-x="807" 
d="M301 -12c-256 0 -279 147 -244 316l93 437h165l-96 -445c-19 -90 -16 -165 143 -165c129 0 171 68 191 167l95 443h164l-155 -729l-133 -12l1 55c-37 -37 -109 -67 -224 -67zM256 781l191 183h163l113 -183h-144l-70 86l-107 -86h-146z" />
    <glyph glyph-name="Udieresis.biform" horiz-adv-x="807" 
d="M301 -12c-256 0 -279 147 -244 316l93 437h165l-96 -445c-19 -90 -16 -165 143 -165c129 0 171 68 191 167l95 443h164l-155 -729l-133 -12l1 55c-37 -37 -109 -67 -224 -67zM308 781l29 136h142l-29 -136h-142zM530 781l29 136h142l-29 -136h-142z" />
    <glyph glyph-name="Ugrave.biform" horiz-adv-x="807" 
d="M301 -12c-256 0 -279 147 -244 316l93 437h165l-96 -445c-19 -90 -16 -165 143 -165c129 0 171 68 191 167l95 443h164l-155 -729l-133 -12l1 55c-37 -37 -109 -67 -224 -67zM456 781l-151 183h183l102 -183h-134z" />
    <glyph glyph-name="Uhungarumlaut.biform" horiz-adv-x="807" 
d="M301 -12c-256 0 -279 147 -244 316l93 437h165l-96 -445c-19 -90 -16 -165 143 -165c129 0 171 68 191 167l95 443h164l-155 -729l-133 -12l1 55c-37 -37 -109 -67 -224 -67zM256 781l165 183h181l-214 -183h-132zM526 781l166 183h180l-214 -183h-132z" />
    <glyph glyph-name="Umacron.biform" horiz-adv-x="807" 
d="M301 -12c-256 0 -279 147 -244 316l93 437h165l-96 -445c-19 -90 -16 -165 143 -165c129 0 171 68 191 167l95 443h164l-155 -729l-133 -12l1 55c-37 -37 -109 -67 -224 -67zM282 781l27 125h414l-26 -125h-415z" />
    <glyph glyph-name="Uogonek.biform" horiz-adv-x="807" 
d="M301 -12c-256 0 -279 147 -244 316l93 437h165l-96 -445c-19 -90 -16 -165 143 -165c129 0 171 68 191 167l95 443h164l-155 -729c-67 -40 -116 -89 -116 -132c0 -20 15 -33 61 -33c27 0 46 4 74 15l31 -75c-28 -15 -74 -27 -128 -27c-112 0 -151 32 -151 98
c0 65 51 115 96 147l1 50c-37 -37 -109 -67 -224 -67z" />
    <glyph glyph-name="Uring.biform" horiz-adv-x="807" 
d="M301 -12c-256 0 -279 147 -244 316l93 437h165l-96 -445c-19 -90 -16 -165 143 -165c129 0 171 68 191 167l95 443h164l-155 -729l-133 -12l1 55c-37 -37 -109 -67 -224 -67zM504 771c-95 0 -134 52 -134 116c0 106 63 175 160 175c93 0 134 -56 134 -122
c0 -106 -67 -169 -160 -169zM508 848c47 0 76 31 76 83c0 29 -15 54 -59 54c-46 0 -75 -36 -75 -87c0 -28 17 -50 58 -50z" />
    <glyph glyph-name="commaaccent" unicode="&#xf6c3;" horiz-adv-x="293" 
d="M-42 -330l-20 66c66 29 78 38 85 71h-73l32 155h158l-23 -110c-23 -106 -43 -142 -159 -182z" />
    <glyph glyph-name="commaaccent.2" horiz-adv-x="293" 
d="M122 620l20 96c23 104 44 144 160 182l19 -67c-66 -28 -78 -37 -85 -70h74l-30 -141h-158z" />
    <glyph glyph-name="Abreve" unicode="&#x102;" horiz-adv-x="763" 
d="M-64 0l444 746h159l124 -746h-163l-19 122h-302l-70 -122h-173zM255 257h205l-44 280zM487 771c-167 0 -194 87 -192 205l117 13c0 -69 12 -97 83 -97c64 0 92 28 116 97l110 -20c-34 -117 -108 -198 -234 -198z" />
    <glyph glyph-name="Amacron" unicode="&#x100;" horiz-adv-x="763" 
d="M-64 0l444 746h159l124 -746h-163l-19 122h-302l-70 -122h-173zM255 257h205l-44 280zM260 781l27 125h414l-26 -125h-415z" />
    <glyph glyph-name="Aogonek" unicode="&#x104;" horiz-adv-x="763" 
d="M-64 0l444 746h159l124 -746h-57c-67 -41 -114 -78 -114 -120c0 -20 15 -33 66 -33c27 0 53 6 81 17l32 -75c-33 -17 -86 -29 -140 -29c-118 0 -152 35 -152 85c0 84 68 133 120 157l-18 120h-302l-70 -122h-173zM255 257h205l-44 280z" />
    <glyph glyph-name="Cacute" unicode="&#x106;" horiz-adv-x="743" 
d="M352 781l180 183h194l-230 -183h-144zM368 -11c-246 0 -344 115 -344 290c0 40 4 83 14 129c58 273 226 345 407 345c182 0 263 -60 309 -116l-133 -108c-35 44 -91 74 -178 74c-127 0 -209 -62 -241 -215c-7 -31 -10 -61 -10 -87c0 -101 53 -166 191 -166
c76 0 133 25 180 62l92 -116c-72 -62 -156 -92 -287 -92z" />
    <glyph glyph-name="Ccaron" unicode="&#x10c;" horiz-adv-x="743" 
d="M376 781l-113 183h144l70 -86l106 86h147l-191 -183h-163zM368 -11c-246 0 -344 115 -344 290c0 40 4 83 14 129c58 273 226 345 407 345c182 0 263 -60 309 -116l-133 -108c-35 44 -91 74 -178 74c-127 0 -209 -62 -241 -215c-7 -31 -10 -61 -10 -87
c0 -101 53 -166 191 -166c76 0 133 25 180 62l92 -116c-72 -62 -156 -92 -287 -92z" />
    <glyph glyph-name="Dcaron" unicode="&#x10e;" horiz-adv-x="773" 
d="M390 781l-113 183h144l70 -86l106 86h147l-191 -183h-163zM-5 0l158 741h189c291 0 408 -78 408 -266c0 -44 -5 -92 -17 -147c-62 -289 -204 -328 -420 -328h-318zM189 143h127c162 0 216 38 252 205c8 39 13 73 13 103c0 97 -56 143 -215 143h-81z" />
    <glyph glyph-name="Dcroat" unicode="&#x110;" horiz-adv-x="773" 
d="M-13 310l28 129h73l65 302h189c291 0 408 -78 408 -266c0 -44 -5 -92 -17 -147c-62 -289 -204 -328 -420 -328h-318l66 310h-74zM189 143h127c162 0 216 38 252 205c8 39 13 73 13 103c0 97 -56 143 -240 143h-56l-33 -155h138l-28 -129h-138z" />
    <glyph glyph-name="Emacron" unicode="&#x112;" horiz-adv-x="675" 
d="M-4 0l158 741h544l-32 -148h-380l-31 -144h371l-31 -143h-370l-35 -164h384l-30 -142h-548zM217 781l27 125h414l-26 -125h-415z" />
    <glyph glyph-name="Edotaccent" unicode="&#x116;" horiz-adv-x="675" 
d="M-4 0l158 741h544l-32 -148h-380l-31 -144h371l-31 -143h-370l-35 -164h384l-30 -142h-548zM345 781l29 139h159l-29 -139h-159z" />
    <glyph glyph-name="Eogonek" unicode="&#x118;" horiz-adv-x="675" 
d="M-4 0l158 741h544l-32 -148h-380l-31 -144h371l-31 -143h-370l-35 -164h384l-30 -142h-93c-69 -42 -114 -79 -114 -120c0 -20 15 -33 66 -33c27 0 53 6 81 17l31 -75c-32 -17 -86 -29 -140 -29c-118 0 -151 35 -151 85c0 83 78 131 132 155h-360z" />
    <glyph glyph-name="Ecaron" unicode="&#x11a;" horiz-adv-x="675" 
d="M343 781l-113 183h144l70 -86l106 86h147l-191 -183h-163zM-4 0l158 741h544l-32 -148h-380l-31 -144h371l-31 -143h-370l-35 -164h384l-30 -142h-548z" />
    <glyph glyph-name="Gbreve" unicode="&#x11e;" horiz-adv-x="787" 
d="M374 -11c-248 0 -350 109 -350 289c0 52 6 92 14 130c47 236 189 345 408 345c165 0 268 -55 314 -116l-133 -108c-30 36 -77 74 -192 74c-136 0 -208 -78 -236 -215c-5 -27 -10 -60 -10 -88c0 -109 54 -173 196 -173c122 0 164 37 187 153l3 15h-197l29 136h357
l-27 -130c-50 -239 -139 -312 -363 -312zM499 771c-167 0 -194 87 -192 205l117 13c0 -69 12 -97 83 -97c64 0 92 28 116 97l110 -20c-34 -117 -108 -198 -234 -198z" />
    <glyph glyph-name="Gcommaaccent" unicode="&#x122;" horiz-adv-x="787" 
d="M204 -330l-20 66c66 29 78 38 85 71h-73l32 155h158l-23 -110c-23 -106 -43 -142 -159 -182zM374 -11c-248 0 -350 109 -350 289c0 52 6 92 14 130c47 236 189 345 408 345c165 0 268 -55 314 -116l-133 -108c-30 36 -77 74 -192 74c-136 0 -208 -78 -236 -215
c-5 -27 -10 -60 -10 -88c0 -109 54 -173 196 -173c122 0 164 37 187 153l3 15h-197l29 136h357l-27 -130c-50 -239 -139 -312 -363 -312z" />
    <glyph glyph-name="uni0130" unicode="&#x130;" horiz-adv-x="333" 
d="M7 0l158 741h163l-158 -741h-163zM174 781l29 139h159l-29 -139h-159z" />
    <glyph glyph-name="Imacron" unicode="&#x12a;" horiz-adv-x="333" 
d="M7 0l158 741h163l-158 -741h-163zM46 781l27 125h414l-26 -125h-415z" />
    <glyph glyph-name="Iogonek" unicode="&#x12e;" horiz-adv-x="333" 
d="M7 0l158 741h163l-158 -741h-1c-67 -42 -114 -77 -114 -120c0 -20 14 -33 61 -33c27 0 46 4 74 15l31 -75c-28 -15 -74 -27 -128 -27c-118 0 -151 35 -151 85c0 82 64 130 116 155h-51z" />
    <glyph glyph-name="Kcommaaccent" unicode="&#x136;" horiz-adv-x="740" 
d="M181 -330l-20 66c66 29 78 38 85 71h-73l32 155h158l-23 -110c-23 -106 -43 -142 -159 -182zM464 0l-134 334l-129 -124l-44 -210h-161l158 741h161l-67 -311l317 311h193l-300 -291l178 -450h-172z" />
    <glyph glyph-name="Lacute" unicode="&#x139;" horiz-adv-x="597" 
d="M204 781l180 183h194l-230 -183h-144zM-4 0l158 741h164l-128 -599h344l-30 -142h-508z" />
    <glyph glyph-name="Lcommaaccent" unicode="&#x13b;" horiz-adv-x="597" 
d="M110 -330l-20 66c66 29 78 38 85 71h-73l32 155h158l-23 -110c-23 -106 -43 -142 -159 -182zM-4 0l158 741h164l-128 -599h344l-30 -142h-508z" />
    <glyph glyph-name="Lcaron" unicode="&#x13d;" horiz-adv-x="597" 
d="M366 484l-20 67c66 28 78 37 85 70h-66l33 155h150l-23 -110c-22 -105 -45 -136 -159 -182zM-4 0l158 741h164l-128 -599h344l-30 -142h-508z" />
    <glyph glyph-name="Nacute" unicode="&#x143;" horiz-adv-x="802" 
d="M382 781l180 183h194l-230 -183h-144zM-4 0l158 741h176l219 -478l102 478h157l-158 -741h-151l-238 511l-109 -511h-156z" />
    <glyph glyph-name="Ncommaaccent" unicode="&#x145;" horiz-adv-x="802" 
d="M212 -330l-20 66c66 29 78 38 85 71h-73l32 155h158l-23 -110c-23 -106 -43 -142 -159 -182zM-4 0l158 741h176l219 -478l102 478h157l-158 -741h-151l-238 511l-109 -511h-156z" />
    <glyph glyph-name="Ncaron" unicode="&#x147;" horiz-adv-x="802" 
d="M406 781l-113 183h144l70 -86l106 86h147l-191 -183h-163zM-4 0l158 741h176l219 -478l102 478h157l-158 -741h-151l-238 511l-109 -511h-156z" />
    <glyph glyph-name="Omacron" unicode="&#x14c;" horiz-adv-x="841" 
d="M299 781l27 125h414l-26 -125h-415zM388 -12c-225 0 -363 103 -363 303c0 37 4 77 13 121c59 277 240 341 418 341c222 0 360 -101 360 -300c0 -37 -4 -77 -13 -119c-60 -279 -240 -346 -415 -346zM390 132c140 0 216 69 247 214c6 30 10 58 10 85
c0 102 -54 172 -199 172c-140 0 -216 -69 -246 -212c-6 -29 -9 -58 -9 -85c0 -102 53 -174 197 -174z" />
    <glyph glyph-name="Ohungarumlaut" unicode="&#x150;" horiz-adv-x="841" 
d="M273 781l165 183h181l-214 -183h-132zM543 781l166 183h180l-214 -183h-132zM388 -12c-225 0 -363 103 -363 303c0 37 4 77 13 121c59 277 240 341 418 341c222 0 360 -101 360 -300c0 -37 -4 -77 -13 -119c-60 -279 -240 -346 -415 -346zM390 132c140 0 216 69 247 214
c6 30 10 58 10 85c0 102 -54 172 -199 172c-140 0 -216 -69 -246 -212c-6 -29 -9 -58 -9 -85c0 -102 53 -174 197 -174z" />
    <glyph glyph-name="Racute" unicode="&#x154;" horiz-adv-x="752" 
d="M357 781l180 183h194l-230 -183h-144zM447 0l-85 246h-154l-53 -246h-160l158 741h286c237 0 300 -88 300 -189c0 -143 -53 -265 -213 -298l87 -254h-166zM238 387h189c95 0 141 39 141 131c0 59 -47 83 -143 83h-142z" />
    <glyph glyph-name="Rcommaaccent" unicode="&#x156;" horiz-adv-x="752" 
d="M187 -330l-20 66c66 29 78 38 85 71h-73l32 155h158l-23 -110c-23 -106 -43 -142 -159 -182zM447 0l-85 246h-154l-53 -246h-160l158 741h286c237 0 300 -88 300 -189c0 -143 -53 -265 -213 -298l87 -254h-166zM238 387h189c95 0 141 39 141 131c0 59 -47 83 -143 83
h-142z" />
    <glyph glyph-name="Rcaron" unicode="&#x158;" horiz-adv-x="752" 
d="M381 781l-113 183h144l70 -86l106 86h147l-191 -183h-163zM447 0l-85 246h-154l-53 -246h-160l158 741h286c237 0 300 -88 300 -189c0 -143 -53 -265 -213 -298l87 -254h-166zM238 387h189c95 0 141 39 141 131c0 59 -47 83 -143 83h-142z" />
    <glyph glyph-name="Sacute" unicode="&#x15a;" horiz-adv-x="721" 
d="M341 781l180 183h194l-230 -183h-144zM332 -11c-178 0 -297 52 -373 110l105 115c67 -53 161 -89 276 -89c92 0 146 17 146 84c0 60 -47 67 -161 98c-136 37 -236 70 -236 208c0 184 137 238 297 238c180 0 274 -51 323 -88l-108 -122c-40 32 -116 67 -221 67
c-82 0 -124 -18 -124 -81c0 -51 55 -66 143 -87c136 -32 255 -67 255 -200c0 -182 -124 -253 -322 -253z" />
    <glyph glyph-name="Scedilla" unicode="&#x15e;" horiz-adv-x="721" 
d="M332 -11c-178 0 -297 52 -373 110l105 115c67 -53 161 -89 276 -89c92 0 146 17 146 84c0 60 -47 67 -161 98c-136 37 -236 70 -236 208c0 184 137 238 297 238c180 0 274 -51 323 -88l-108 -122c-40 32 -116 67 -221 67c-82 0 -124 -18 -124 -81c0 -51 55 -66 143 -87
c136 -32 255 -67 255 -200c0 -182 -124 -253 -322 -253zM258 -249c-74 0 -125 21 -157 42l54 73c27 -18 58 -33 101 -33c33 0 56 9 56 44c0 32 -45 35 -82 32l-25 19l33 79h88l-20 -49c53 -3 110 -15 110 -79c0 -112 -88 -128 -158 -128z" />
    <glyph glyph-name="Scommaaccent" unicode="&#x218;" horiz-adv-x="721" 
d="M171 -330l-20 66c66 29 78 38 85 71h-73l32 155h158l-23 -110c-23 -106 -43 -142 -159 -182zM332 -11c-178 0 -297 52 -373 110l105 115c67 -53 161 -89 276 -89c92 0 146 17 146 84c0 60 -47 67 -161 98c-136 37 -236 70 -236 208c0 184 137 238 297 238
c180 0 274 -51 323 -88l-108 -122c-40 32 -116 67 -221 67c-82 0 -124 -18 -124 -81c0 -51 55 -66 143 -87c136 -32 255 -67 255 -200c0 -182 -124 -253 -322 -253z" />
    <glyph glyph-name="Tcommaaccent" unicode="&#x162;" horiz-adv-x="686" 
d="M154 -330l-20 66c66 29 78 38 85 71h-73l32 155h158l-23 -110c-23 -106 -43 -142 -159 -182zM183 0l126 593h-247l32 148h658l-32 -148h-247l-126 -593h-164z" />
    <glyph glyph-name="Tcommaaccent" unicode="&#x21a;" horiz-adv-x="686" 
d="M154 -330l-20 66c66 29 78 38 85 71h-73l32 155h158l-23 -110c-23 -106 -43 -142 -159 -182zM183 0l126 593h-247l32 148h658l-32 -148h-247l-126 -593h-164z" />
    <glyph glyph-name="Tcaron" unicode="&#x164;" horiz-adv-x="686" 
d="M348 781l-113 183h144l70 -86l106 86h147l-191 -183h-163zM183 0l126 593h-247l32 148h658l-32 -148h-247l-126 -593h-164z" />
    <glyph glyph-name="Umacron" unicode="&#x16a;" horiz-adv-x="797" 
d="M352 -14c-250 0 -309 107 -309 221c0 33 5 68 12 101l93 433h164l-90 -425c-6 -28 -10 -54 -10 -77c0 -67 36 -108 158 -108c120 0 158 48 182 162l95 448h159l-103 -479c-30 -141 -90 -276 -351 -276zM277 781l27 125h414l-26 -125h-415z" />
    <glyph glyph-name="Uring" unicode="&#x16e;" horiz-adv-x="797" 
d="M499 771c-95 0 -134 52 -134 116c0 106 63 175 160 175c93 0 134 -56 134 -122c0 -106 -67 -169 -160 -169zM503 848c47 0 76 31 76 83c0 29 -15 54 -59 54c-46 0 -75 -36 -75 -87c0 -28 17 -50 58 -50zM352 -14c-250 0 -309 107 -309 221c0 33 5 68 12 101l93 433h164
l-90 -425c-6 -28 -10 -54 -10 -77c0 -67 36 -108 158 -108c120 0 158 48 182 162l95 448h159l-103 -479c-30 -141 -90 -276 -351 -276z" />
    <glyph glyph-name="Uhungarumlaut" unicode="&#x170;" horiz-adv-x="797" 
d="M352 -14c-250 0 -309 107 -309 221c0 33 5 68 12 101l93 433h164l-90 -425c-6 -28 -10 -54 -10 -77c0 -67 36 -108 158 -108c120 0 158 48 182 162l95 448h159l-103 -479c-30 -141 -90 -276 -351 -276zM251 781l165 183h181l-214 -183h-132zM521 781l166 183h180
l-214 -183h-132z" />
    <glyph glyph-name="Uogonek" unicode="&#x172;" horiz-adv-x="797" 
d="M319 -240c-118 0 -151 35 -151 85c0 72 59 118 110 145c-188 19 -235 115 -235 217c0 33 5 68 12 101l93 433h164l-90 -425c-6 -28 -10 -54 -10 -77c0 -67 36 -108 158 -108c120 0 158 48 182 162l95 448h159l-103 -479c-29 -137 -87 -268 -330 -275
c-57 -37 -92 -70 -92 -107c0 -20 15 -33 66 -33c27 0 53 6 81 17l31 -75c-32 -17 -86 -29 -140 -29z" />
    <glyph glyph-name="Zacute" unicode="&#x179;" horiz-adv-x="672" 
d="M317 781l180 183h194l-230 -183h-144zM-47 0l27 122l479 471h-362l31 148h578l-28 -134l-473 -465h384l-30 -142h-606z" />
    <glyph glyph-name="Zdotaccent" unicode="&#x17b;" horiz-adv-x="672" 
d="M-47 0l27 122l479 471h-362l31 148h578l-28 -134l-473 -465h384l-30 -142h-606zM343 781l29 139h159l-29 -139h-159z" />
    <glyph glyph-name="abreve" unicode="&#x103;" horiz-adv-x="633" 
d="M192 -9c-166 0 -210 64 -210 162c0 169 138 211 344 211h72c3 12 4 22 4 32c0 30 -20 45 -110 45c-43 0 -108 -14 -145 -33l-57 118c47 28 133 53 233 53c238 0 252 -85 219 -244l-32 -153c-8 -40 -11 -54 38 -52l-28 -128c-10 -3 -32 -4 -67 -4c-53 0 -73 9 -84 52
c-33 -38 -94 -59 -177 -59zM237 117c83 0 113 25 133 118l4 21h-72c-115 0 -163 -13 -163 -86c0 -33 20 -53 98 -53zM390 610c-167 0 -194 87 -192 205l117 13c0 -69 12 -97 83 -97c64 0 92 28 116 97l110 -20c-34 -117 -108 -198 -234 -198z" />
    <glyph glyph-name="amacron" unicode="&#x101;" horiz-adv-x="633" 
d="M192 -9c-166 0 -210 64 -210 162c0 169 138 211 344 211h72c3 12 4 22 4 32c0 30 -20 45 -110 45c-43 0 -108 -14 -145 -33l-57 118c47 28 133 53 233 53c238 0 252 -85 219 -244l-32 -153c-8 -40 -11 -54 38 -52l-28 -128c-10 -3 -32 -4 -67 -4c-53 0 -73 9 -84 52
c-33 -38 -94 -59 -177 -59zM237 117c83 0 113 25 133 118l4 21h-72c-115 0 -163 -13 -163 -86c0 -33 20 -53 98 -53zM163 620l27 125h414l-26 -125h-415z" />
    <glyph glyph-name="aogonek" unicode="&#x105;" horiz-adv-x="633" 
d="M192 -9c-166 0 -210 64 -210 162c0 169 138 211 344 211h72c3 12 4 22 4 32c0 30 -20 45 -110 45c-43 0 -108 -14 -145 -33l-57 118c47 28 133 53 233 53c238 0 252 -85 219 -244l-32 -153c-8 -40 -11 -54 38 -52l-28 -128c-66 -41 -116 -79 -116 -122
c0 -20 15 -33 61 -33c28 0 46 4 74 15l32 -75c-29 -15 -74 -27 -128 -27c-112 0 -152 35 -152 92c0 78 69 126 121 149c-12 3 -21 8 -27 15c-8 8 -13 20 -16 34c-33 -38 -94 -59 -177 -59zM237 117c83 0 113 25 133 118l4 21h-72c-115 0 -163 -13 -163 -86
c0 -33 20 -53 98 -53z" />
    <glyph glyph-name="cacute" unicode="&#x107;" horiz-adv-x="567" 
d="M231 620l180 183h194l-230 -183h-144zM266 -9c-199 0 -260 95 -260 217c0 36 4 71 11 106c32 159 116 265 316 265c129 0 191 -43 234 -98l-128 -101c-18 25 -45 55 -120 55c-81 0 -125 -43 -145 -145c-4 -21 -7 -44 -7 -66c0 -60 27 -101 112 -101c41 0 73 6 121 44
l83 -99c-69 -57 -139 -77 -217 -77z" />
    <glyph glyph-name="ccaron" unicode="&#x10d;" horiz-adv-x="567" 
d="M255 620l-113 183h144l70 -86l106 86h147l-191 -183h-163zM266 -9c-199 0 -260 95 -260 217c0 36 4 71 11 106c32 159 116 265 316 265c129 0 191 -43 234 -98l-128 -101c-18 25 -45 55 -120 55c-81 0 -125 -43 -145 -145c-4 -21 -7 -44 -7 -66c0 -60 27 -101 112 -101
c41 0 73 6 121 44l83 -99c-69 -57 -139 -77 -217 -77z" />
    <glyph glyph-name="dcaron" unicode="&#x10f;" horiz-adv-x="817" 
d="M720 484l-20 67c66 28 78 37 85 70h-66l33 155h150l-23 -110c-23 -105 -45 -136 -159 -182zM214 -9c-160 0 -211 90 -211 205c0 37 6 77 15 117c34 160 103 266 274 266c115 0 159 -26 181 -60l56 257h157l-164 -770l-122 -11v48c-37 -34 -92 -52 -186 -52zM275 125
c86 0 127 34 150 142c6 26 8 51 8 72c0 64 -31 99 -118 99c-88 0 -118 -55 -138 -146c-5 -25 -8 -50 -8 -72c0 -55 23 -95 106 -95z" />
    <glyph glyph-name="dcroat" unicode="&#x111;" horiz-adv-x="661" 
d="M391 603l25 123h334l-26 -123h-333zM214 -9c-160 0 -211 90 -211 205c0 37 6 77 15 117c34 160 103 266 274 266c115 0 159 -26 181 -60l56 257h157l-164 -770l-122 -11v48c-37 -34 -92 -52 -186 -52zM275 125c86 0 127 34 150 142c6 26 8 51 8 72c0 64 -31 99 -118 99
c-88 0 -118 -55 -138 -146c-5 -25 -8 -50 -8 -72c0 -55 23 -95 106 -95z" />
    <glyph glyph-name="emacron" unicode="&#x113;" horiz-adv-x="599" 
d="M263 -11c-199 0 -258 98 -258 218c0 37 5 72 12 107c33 164 123 265 313 265c183 0 229 -89 229 -178c0 -52 -11 -118 -24 -177h-380v-2c0 -61 30 -106 127 -106c62 0 123 15 163 41l61 -109c-75 -49 -160 -59 -243 -59zM312 448c-77 0 -115 -42 -137 -112h234
c2 12 4 24 4 38c0 43 -20 74 -101 74zM145 620l27 125h414l-26 -125h-415z" />
    <glyph glyph-name="edotaccent" unicode="&#x117;" horiz-adv-x="599" 
d="M263 -11c-199 0 -258 98 -258 218c0 37 5 72 12 107c33 164 123 265 313 265c183 0 229 -89 229 -178c0 -52 -11 -118 -24 -177h-380v-2c0 -61 30 -106 127 -106c62 0 123 15 163 41l61 -109c-75 -49 -160 -59 -243 -59zM312 448c-77 0 -115 -42 -137 -112h234
c2 12 4 24 4 38c0 43 -20 74 -101 74zM273 620l29 139h159l-29 -139h-159z" />
    <glyph glyph-name="eogonek" unicode="&#x119;" horiz-adv-x="599" 
d="M263 -11c-199 0 -258 98 -258 218c0 37 5 72 12 107c33 164 123 265 313 265c183 0 229 -89 229 -178c0 -52 -11 -118 -24 -177h-380v-2c0 -61 30 -106 127 -106c62 0 123 15 163 41l61 -109c-37 -25 -76 -39 -116 -48c-70 -41 -115 -79 -115 -120c0 -20 15 -33 66 -33
c27 0 53 6 81 17l31 -75c-32 -17 -86 -29 -140 -29c-118 0 -151 35 -151 85c0 72 58 117 109 144h-8zM312 448c-77 0 -115 -42 -137 -112h234c2 12 4 24 4 38c0 43 -20 74 -101 74z" />
    <glyph glyph-name="ecaron" unicode="&#x11b;" horiz-adv-x="599" 
d="M271 620l-113 183h144l70 -86l106 86h147l-191 -183h-163zM263 -11c-199 0 -258 98 -258 218c0 37 5 72 12 107c33 164 123 265 313 265c183 0 229 -89 229 -178c0 -52 -11 -118 -24 -177h-380v-2c0 -61 30 -106 127 -106c62 0 123 15 163 41l61 -109
c-75 -49 -160 -59 -243 -59zM312 448c-77 0 -115 -42 -137 -112h234c2 12 4 24 4 38c0 43 -20 74 -101 74z" />
    <glyph glyph-name="gbreve" unicode="&#x11f;" horiz-adv-x="640" 
d="M301 208c-39 0 -73 3 -103 8c-4 -8 -6 -17 -6 -27c0 -20 8 -30 48 -31c228 -4 294 -39 294 -143c0 -161 -106 -194 -317 -194c-212 0 -293 39 -293 139c0 94 70 137 149 149c-15 17 -21 42 -21 68c0 34 17 63 40 85c-31 27 -45 62 -45 105c0 152 86 212 272 212
c14 0 31 -1 49 -2l263 51l-21 -119h-89c27 -25 45 -65 45 -110c0 -134 -85 -191 -265 -191zM244 -72c92 -1 124 13 124 68c0 38 -42 51 -164 51c-87 0 -112 -18 -112 -63c0 -33 33 -56 152 -56zM302 312c73 0 107 26 107 88c0 37 -25 58 -102 58c-71 0 -105 -23 -105 -88
c0 -35 22 -58 100 -58zM392 610c-167 0 -194 87 -192 205l117 13c0 -69 12 -97 83 -97c64 0 92 28 116 97l110 -20c-34 -117 -108 -198 -234 -198z" />
    <glyph glyph-name="gcommaaccent" unicode="&#x123;" horiz-adv-x="640" 
d="M276 620l20 96c23 104 44 144 160 182l19 -67c-66 -28 -78 -37 -85 -70h74l-30 -141h-158zM301 208c-39 0 -73 3 -103 8c-4 -8 -6 -17 -6 -27c0 -20 8 -30 48 -31c228 -4 294 -39 294 -143c0 -161 -106 -194 -317 -194c-212 0 -293 39 -293 139c0 94 70 137 149 149
c-15 17 -21 42 -21 68c0 34 17 63 40 85c-31 27 -45 62 -45 105c0 152 86 212 272 212c14 0 31 -1 49 -2l263 51l-21 -119h-89c27 -25 45 -65 45 -110c0 -134 -85 -191 -265 -191zM244 -72c92 -1 124 13 124 68c0 38 -42 51 -164 51c-87 0 -112 -18 -112 -63
c0 -33 33 -56 152 -56zM302 312c73 0 107 26 107 88c0 37 -25 58 -102 58c-71 0 -105 -23 -105 -88c0 -35 22 -58 100 -58z" />
    <glyph glyph-name="imacron" unicode="&#x12b;" horiz-adv-x="293" 
d="M-11 0l121 566h156l-120 -566h-157zM-7 620l27 125h414l-26 -125h-415z" />
    <glyph glyph-name="iogonek" unicode="&#x12f;" horiz-adv-x="293" 
d="M-11 0l121 566h156l-120 -566h-1c-65 -40 -114 -77 -114 -120c0 -20 15 -33 61 -33c28 0 46 4 74 15l32 -75c-29 -15 -74 -27 -129 -27c-118 0 -151 35 -151 85c0 82 64 130 116 155h-45zM120 618l31 143h158l-30 -143h-159z" />
    <glyph glyph-name="kcommaaccent" unicode="&#x137;" horiz-adv-x="585" 
d="M103 -330l-20 66c66 29 78 38 85 71h-73l32 155h158l-23 -110c-23 -106 -43 -142 -159 -182zM-16 0l165 776h155l-90 -424l215 214h174l-232 -228l129 -338h-163l-86 220l-83 -81l-29 -139h-155z" />
    <glyph glyph-name="lacute" unicode="&#x13a;" horiz-adv-x="341" 
d="M171 817l180 183h194l-230 -183h-144zM147 -2c-113 0 -146 56 -117 192l124 586h157l-124 -586c-10 -46 -5 -59 42 -59h19l-27 -129c-13 -2 -44 -4 -74 -4z" />
    <glyph glyph-name="lcommaaccent" unicode="&#x13c;" horiz-adv-x="341" 
d="M-18 -330l-20 66c66 29 78 38 85 71h-73l32 155h158l-23 -110c-23 -106 -43 -142 -159 -182zM147 -2c-113 0 -146 56 -117 192l124 586h157l-124 -586c-10 -46 -5 -59 42 -59h19l-27 -129c-13 -2 -44 -4 -74 -4z" />
    <glyph glyph-name="lcaron" unicode="&#x13e;" horiz-adv-x="444" 
d="M347 484l-20 67c66 28 78 37 85 70h-66l33 155h150l-23 -110c-23 -105 -45 -136 -159 -182zM147 -2c-113 0 -146 56 -117 192l124 586h157l-124 -586c-10 -46 -5 -59 42 -59h19l-27 -129c-13 -2 -44 -4 -74 -4z" />
    <glyph glyph-name="nacute" unicode="&#x144;" horiz-adv-x="644" 
d="M269 620l180 183h194l-230 -183h-144zM-26 0l118 557l125 9v-42c37 31 90 55 171 55c210 0 208 -114 179 -255l-70 -324h-156l65 307c14 70 25 124 -86 124c-85 0 -108 -48 -121 -112l-68 -319h-157z" />
    <glyph glyph-name="ncommaaccent" unicode="&#x146;" horiz-adv-x="644" 
d="M133 -330l-20 66c66 29 78 38 85 71h-73l32 155h158l-23 -110c-23 -106 -43 -142 -159 -182zM-17 0l118 557l125 9v-42c37 31 90 55 171 55c210 0 208 -114 179 -255l-70 -324h-156l65 307c14 70 25 124 -86 124c-85 0 -108 -48 -121 -112l-68 -319h-157z" />
    <glyph glyph-name="ncaron" unicode="&#x148;" horiz-adv-x="644" 
d="M293 620l-113 183h144l70 -86l106 86h147l-191 -183h-163zM-17 0l118 557l125 9v-42c37 31 90 55 171 55c210 0 208 -114 179 -255l-70 -324h-156l65 307c14 70 25 124 -86 124c-85 0 -108 -48 -121 -112l-68 -319h-157z" />
    <glyph glyph-name="omacron" unicode="&#x14d;" horiz-adv-x="641" 
d="M166 620l27 125h414l-26 -125h-415zM272 -11c-190 0 -266 90 -266 225c0 32 4 65 11 100c41 190 147 265 317 265c190 0 266 -89 266 -223c0 -31 -5 -65 -12 -101c-40 -190 -145 -266 -316 -266zM281 123c91 0 129 49 149 144c5 23 8 46 8 66c0 61 -27 103 -114 103
c-92 0 -130 -50 -150 -146c-5 -23 -8 -45 -8 -66c0 -60 29 -101 115 -101z" />
    <glyph glyph-name="ohungarumlaut" unicode="&#x151;" horiz-adv-x="641" 
d="M140 620l165 183h181l-214 -183h-132zM410 620l166 183h180l-214 -183h-132zM272 -11c-190 0 -266 90 -266 225c0 32 4 65 11 100c41 190 147 265 317 265c190 0 266 -89 266 -223c0 -31 -5 -65 -12 -101c-40 -190 -145 -266 -316 -266zM281 123c91 0 129 49 149 144
c5 23 8 46 8 66c0 61 -27 103 -114 103c-92 0 -130 -50 -150 -146c-5 -23 -8 -45 -8 -66c0 -60 29 -101 115 -101z" />
    <glyph glyph-name="racute" unicode="&#x155;" horiz-adv-x="384" 
d="M142 620l180 183h194l-230 -183h-144zM-16 0l118 557l125 9v-54c29 39 94 60 178 61l-32 -150c-123 -1 -152 -46 -171 -134l-61 -289h-157z" />
    <glyph glyph-name="rcommaaccent" unicode="&#x157;" horiz-adv-x="384" 
d="M-49 -330l-20 66c66 29 78 38 85 71h-73l32 155h158l-23 -110c-23 -106 -43 -142 -159 -182zM-16 0l118 557l125 9v-54c29 39 94 60 178 61l-32 -150c-123 -1 -152 -46 -171 -134l-61 -289h-157z" />
    <glyph glyph-name="rcaron" unicode="&#x159;" horiz-adv-x="377" 
d="M161 620l-113 183h144l70 -86l106 86h147l-191 -183h-163zM-16 0l118 557l125 9v-54c29 39 94 60 178 61l-32 -150c-123 -1 -152 -46 -171 -134l-61 -289h-157z" />
    <glyph glyph-name="sacute" unicode="&#x15b;" horiz-adv-x="553" 
d="M225 620l180 183h194l-230 -183h-144zM232 -9c-115 0 -215 37 -277 90l95 107c50 -38 131 -70 198 -70c53 0 82 4 82 48c0 34 -50 44 -106 58c-80 19 -178 46 -178 153c0 149 103 202 253 202c107 0 191 -32 242 -67l-97 -117c-35 21 -86 47 -160 47
c-55 0 -76 -9 -76 -44c0 -32 39 -42 101 -57c88 -23 179 -49 179 -157c0 -148 -103 -193 -256 -193z" />
    <glyph glyph-name="scedilla" unicode="&#x15f;" horiz-adv-x="553" 
d="M232 -9c-115 0 -215 37 -277 90l95 107c50 -38 131 -70 198 -70c53 0 82 4 82 48c0 34 -50 44 -106 58c-80 19 -178 46 -178 153c0 149 103 202 253 202c107 0 191 -32 242 -67l-97 -117c-35 21 -86 47 -160 47c-55 0 -76 -9 -76 -44c0 -32 39 -42 101 -57
c88 -23 179 -49 179 -157c0 -148 -103 -193 -256 -193zM175 -249c-74 0 -125 21 -157 42l54 73c27 -18 58 -33 101 -33c33 0 56 9 56 44c0 32 -45 35 -82 32l-25 19l33 79h88l-20 -49c53 -3 110 -15 110 -79c0 -112 -88 -128 -158 -128z" />
    <glyph glyph-name="scommaaccent" unicode="&#x219;" horiz-adv-x="553" 
d="M87 -330l-20 66c66 29 78 38 85 71h-73l32 155h158l-23 -110c-23 -106 -43 -142 -159 -182zM232 -9c-115 0 -215 37 -277 90l95 107c50 -38 131 -70 198 -70c53 0 82 4 82 48c0 34 -50 44 -106 58c-80 19 -178 46 -178 153c0 149 103 202 253 202c107 0 191 -32 242 -67
l-97 -117c-35 21 -86 47 -160 47c-55 0 -76 -9 -76 -44c0 -32 39 -42 101 -57c88 -23 179 -49 179 -157c0 -148 -103 -193 -256 -193z" />
    <glyph glyph-name="tcommaaccent" unicode="&#x163;" horiz-adv-x="448" 
d="M26 -330l-20 66c66 29 78 38 85 71h-73l32 155h158l-23 -110c-23 -106 -43 -142 -159 -182zM38 432l29 134h101l56 138l127 25l-35 -163h129l-28 -134h-130l-49 -233c-10 -44 -8 -68 59 -68h56l-28 -131c-23 -2 -60 -2 -88 -2c-159 0 -183 69 -157 195l51 239h-93z" />
    <glyph glyph-name="tcommaaccent" unicode="&#x21b;" horiz-adv-x="448" 
d="M26 -330l-20 66c66 29 78 38 85 71h-73l32 155h158l-23 -110c-23 -106 -43 -142 -159 -182zM38 432l29 134h101l56 138l127 25l-35 -163h129l-28 -134h-130l-49 -233c-10 -44 -8 -68 59 -68h56l-28 -131c-23 -2 -60 -2 -88 -2c-159 0 -183 69 -157 195l51 239h-93z" />
    <glyph glyph-name="tcaron" unicode="&#x165;" horiz-adv-x="448" 
d="M416 634l-19 63c63 28 74 36 81 69h-63l32 147h143l-22 -105c-22 -101 -44 -130 -152 -174zM38 432l29 134h101l56 138l127 25l-35 -163h129l-28 -134h-130l-49 -233c-10 -44 -8 -68 59 -68h56l-28 -131c-23 -2 -60 -2 -88 -2c-159 0 -183 69 -157 195l51 239h-93z" />
    <glyph glyph-name="umacron" unicode="&#x16b;" horiz-adv-x="636" 
d="M267 -11c-234 0 -268 102 -227 296l60 281h157l-62 -293c-17 -83 -27 -146 86 -146c87 0 100 46 117 126l67 313h154l-68 -320c-42 -194 -101 -257 -284 -257zM164 620l27 125h414l-26 -125h-415z" />
    <glyph glyph-name="uring" unicode="&#x16f;" horiz-adv-x="636" 
d="M386 610c-95 0 -134 52 -134 116c0 106 63 175 160 175c93 0 134 -56 134 -122c0 -106 -67 -169 -160 -169zM390 687c47 0 76 31 76 83c0 29 -15 54 -59 54c-46 0 -75 -36 -75 -87c0 -28 17 -50 58 -50zM267 -11c-234 0 -268 102 -227 296l60 281h157l-62 -293
c-17 -83 -27 -146 86 -146c87 0 100 46 117 126l67 313h154l-68 -320c-42 -194 -101 -257 -284 -257z" />
    <glyph glyph-name="uhungarumlaut" unicode="&#x171;" horiz-adv-x="636" 
d="M267 -11c-234 0 -268 102 -227 296l60 281h157l-62 -293c-17 -83 -27 -146 86 -146c87 0 100 46 117 126l67 313h154l-68 -320c-42 -194 -101 -257 -284 -257zM138 620l165 183h181l-214 -183h-132zM408 620l166 183h180l-214 -183h-132z" />
    <glyph glyph-name="uogonek" unicode="&#x173;" horiz-adv-x="636" 
d="M236 -240c-118 0 -151 35 -151 85c0 75 63 121 115 148c-174 18 -197 118 -160 292l60 281h157l-62 -293c-17 -83 -27 -146 86 -146c87 0 100 46 117 126l67 313h154l-68 -320c-40 -184 -95 -250 -256 -256c-59 -38 -97 -72 -97 -110c0 -20 15 -33 66 -33
c27 0 53 6 81 17l31 -75c-32 -17 -86 -29 -140 -29z" />
    <glyph glyph-name="zacute" unicode="&#x17a;" horiz-adv-x="520" 
d="M209 620l180 183h194l-230 -183h-144zM-59 0l23 105l330 327h-244l28 134h456l-23 -107l-332 -333h273l-27 -126h-484z" />
    <glyph glyph-name="zdotaccent" unicode="&#x17c;" horiz-adv-x="520" 
d="M-59 0l23 105l330 327h-244l28 134h456l-23 -107l-332 -333h273l-27 -126h-484zM235 620l29 139h159l-29 -139h-159z" />
    <glyph glyph-name="space.lftab" horiz-adv-x="375" 
 />
    <glyph glyph-name="comma.lftab" horiz-adv-x="375" 
d="M29 -156l-21 76c76 29 89 42 97 80h-85l38 180h182l-32 -151c-25 -120 -58 -145 -179 -185z" />
    <glyph glyph-name="period.lftab" horiz-adv-x="375" 
d="M20 0l38 180h182l-38 -180h-182z" />
    <glyph glyph-name="minus.lftab" 
d="M88 282l31 141h536l-30 -141h-537z" />
    <glyph glyph-name="multiply.lftab" 
d="M169 104l-74 99l181 149l-118 149l117 98l118 -149l180 149l74 -99l-180 -148l117 -149l-116 -98l-117 149z" />
    <glyph glyph-name="quotedbl.lftab" 
d="M187 398l64 343h163l-83 -343h-144zM432 398l63 343h164l-84 -343h-143z" />
    <glyph glyph-name="numbersign.lftab" 
d="M98 0l37 178h-128l29 136h128l18 88h-128l30 137h127l42 202h150l-42 -202h98l42 202h150l-42 -202h134l-29 -137h-133l-18 -88h133l-30 -136h-132l-38 -178h-150l38 178h-98l-38 -178h-150zM300 306h122l22 105h-122z" />
    <glyph glyph-name="dollar.lftab" 
d="M206 -94l22 101c-95 14 -165 45 -215 88l90 108c63 -48 129 -79 244 -79c94 0 132 33 132 101c0 52 -40 66 -133 89c-108 26 -210 64 -210 192c0 160 109 226 247 235l15 71h145l-17 -78c81 -12 133 -37 163 -61l-91 -115c-38 27 -106 54 -194 54
c-85 0 -113 -34 -113 -88c0 -55 49 -66 141 -91c104 -28 201 -61 201 -189c0 -151 -101 -235 -263 -244l-20 -94h-144z" />
    <glyph glyph-name="percent.lftab" horiz-adv-x="1160" 
d="M246 258c-161 0 -218 80 -188 242c30 175 115 249 234 249c162 0 221 -85 191 -246c-30 -183 -121 -245 -237 -245zM250 370c54 0 85 40 98 142c14 82 0 117 -60 117c-56 0 -83 -48 -97 -144c-12 -81 1 -115 59 -115zM865 -9c-161 0 -218 81 -187 243
c29 175 114 249 234 249c162 0 220 -85 191 -247c-31 -182 -121 -245 -238 -245zM869 103c54 0 85 41 98 142c14 82 0 117 -60 117c-56 0 -83 -48 -96 -143c-13 -82 0 -116 58 -116zM254 0l520 741h140l-519 -741h-141z" />
    <glyph glyph-name="quotesingle.lftab" 
d="M308 398l64 344h163l-83 -344h-144z" />
    <glyph glyph-name="plus.lftab" 
d="M239 92l40 190h-191l31 141h190l40 189h156l-40 -189h190l-30 -141h-190l-40 -190h-156z" />
    <glyph glyph-name="zero.lftab" 
d="M328 -11c-201 0 -285 94 -285 259c0 46 6 97 18 154c53 250 170 351 364 351c198 0 282 -100 282 -265c0 -47 -6 -97 -18 -152c-53 -249 -172 -347 -361 -347zM340 125c106 0 154 72 187 229c10 45 16 87 16 123c0 84 -34 133 -132 133c-107 0 -154 -68 -188 -225
c-10 -48 -16 -91 -16 -127c0 -85 34 -133 133 -133z" />
    <glyph glyph-name="one.lftab" 
d="M83 0l27 130h169l100 470h-168l30 141h323l-131 -611h159l-28 -130h-481z" />
    <glyph glyph-name="two.lftab" 
d="M17 0l26 123l284 209c145 106 179 132 179 210c0 43 -27 74 -124 74c-48 0 -129 -13 -179 -34l-47 124c69 29 155 47 247 47c185 0 265 -65 265 -178c0 -150 -59 -196 -219 -313l-180 -132h311l-27 -130h-536z" />
    <glyph glyph-name="three.lftab" 
d="M328 -12c-154 0 -249 37 -325 92l93 114c66 -47 141 -75 234 -75c76 0 131 28 131 128c0 57 -32 82 -125 82h-119l27 132h146c74 0 115 16 115 96c0 41 -28 62 -119 62c-48 0 -131 -11 -184 -37l-59 119c78 42 197 52 272 52c170 0 254 -56 254 -159
c0 -126 -49 -177 -124 -199c48 -21 72 -68 72 -145c0 -196 -120 -262 -289 -262z" />
    <glyph glyph-name="four.lftab" 
d="M23 152l25 117l426 472h175l-420 -463h183l77 211h110l-45 -211h115l-27 -126h-115l-32 -152h-144l32 152h-360z" />
    <glyph glyph-name="five.lftab" 
d="M338 -11c-144 0 -255 45 -311 91l94 114c65 -50 147 -75 233 -75c71 0 135 29 135 144c0 80 -53 103 -135 103c-37 0 -75 -9 -114 -26l-123 39l97 362h477l-29 -134h-336l-37 -134c38 17 80 22 128 22c132 0 235 -34 235 -211c0 -239 -134 -295 -314 -295z" />
    <glyph glyph-name="six.lftab" 
d="M349 -11c-209 0 -295 97 -295 251c0 35 5 74 14 116c64 303 185 385 472 385h123l-29 -134h-101c-217 0 -255 -69 -282 -156c33 35 102 54 188 54c170 0 231 -79 231 -189c0 -204 -112 -327 -321 -327zM354 117c121 0 157 67 157 166c0 57 -32 95 -140 95
c-86 0 -159 -27 -159 -150c0 -71 45 -111 142 -111z" />
    <glyph glyph-name="seven.lftab" 
d="M121 0l388 607h-357l28 134h534l-25 -114l-395 -627h-173z" />
    <glyph glyph-name="eight.lftab" 
d="M327 -16c-227 0 -301 91 -301 193c0 116 51 191 168 227c-58 29 -68 80 -68 131c0 124 78 218 284 218c234 0 295 -77 295 -172c0 -89 -29 -164 -125 -187c67 -30 78 -80 78 -147c0 -157 -102 -263 -331 -263zM344 110c95 0 154 39 154 132c0 56 -39 92 -152 92
c-98 0 -157 -39 -157 -135c0 -54 38 -89 155 -89zM409 454c94 0 137 27 137 102c0 43 -30 72 -134 72c-95 0 -135 -28 -135 -101c0 -44 30 -73 132 -73z" />
    <glyph glyph-name="nine.lftab" 
d="M87 0l28 130h101c217 0 258 72 284 159c-32 -35 -102 -54 -189 -54c-170 0 -231 81 -231 191c0 204 113 327 321 327c209 0 295 -97 295 -251c0 -36 -4 -75 -13 -116c-65 -304 -186 -386 -473 -386h-123zM378 357c86 0 160 27 160 150c0 70 -45 111 -142 111
c-121 0 -157 -67 -157 -166c0 -57 31 -95 139 -95z" />
    <glyph glyph-name="less.lftab" 
d="M522 63l-412 230l22 107l510 228l-30 -142l-328 -140l268 -140z" />
    <glyph glyph-name="equal.lftab" 
d="M69 161l29 140h525l-29 -140h-525zM121 404l29 139h525l-30 -139h-524z" />
    <glyph glyph-name="greater.lftab" 
d="M99 63l30 143l328 139l-268 141l30 142l414 -229l-24 -108z" />
    <glyph glyph-name="degree.lftab" 
d="M377 267c-157 0 -218 92 -218 198c0 163 106 288 281 288c152 0 212 -95 212 -201c0 -164 -110 -285 -275 -285zM388 381c90 0 135 68 135 156c0 52 -26 94 -103 94c-89 0 -133 -71 -133 -158c0 -51 26 -92 101 -92z" />
    <glyph glyph-name="cent.lftab" 
d="M230 -94l21 99c-116 27 -155 105 -155 203c0 36 4 71 11 106c29 144 101 243 265 259l14 65h149l-15 -72c66 -15 106 -46 137 -85l-128 -101c-18 25 -45 55 -120 55c-81 0 -125 -43 -145 -145c-4 -21 -7 -44 -7 -66c0 -60 27 -101 112 -101c41 0 73 6 121 44l83 -99
c-56 -47 -113 -67 -174 -72l-19 -90h-150z" />
    <glyph glyph-name="sterling.lftab" 
d="M434 -7c-90 0 -153 21 -203 51c-50 -33 -122 -48 -225 -44l26 127c134 0 147 29 158 86c5 26 5 63 2 105h-122l25 120h90c-1 12 -1 23 -1 35c0 174 82 281 263 281c114 0 187 -28 242 -57l-85 -126c-39 24 -105 43 -165 43c-84 0 -103 -63 -103 -156v-20h172l-24 -120
h-144c1 -37 -1 -73 -7 -103c-5 -24 -12 -47 -20 -67c32 -14 70 -24 115 -24c58 0 64 11 81 90l6 28h136l-10 -49c-32 -155 -86 -200 -207 -200z" />
    <glyph glyph-name="yen.lftab" 
d="M87 229l22 110h174l-152 402h165l95 -282l216 282h168l-324 -402h172l-23 -110h-179l-13 -58h179l-22 -110h-180l-13 -61h-155l13 61h-178l22 110h179l13 58h-179z" />
    <glyph glyph-name="ordfeminine.lftab" 
d="M301 276c-127 0 -162 53 -162 121c0 156 114 181 279 181h59c2 10 3 19 3 27c0 24 -17 36 -89 36c-35 0 -88 -12 -119 -27l-45 96c37 23 107 43 189 43c193 0 207 -67 179 -197l-27 -125c-7 -32 -7 -42 31 -42l-22 -104c-9 -2 -27 -3 -54 -3c-29 0 -49 4 -61 17
c-8 8 -13 20 -15 37c-31 -38 -85 -60 -146 -60zM124 116l23 111h376l-23 -111h-376zM345 380c56 0 91 18 108 94l4 18h-60c-91 0 -130 -9 -130 -73c0 -25 17 -39 78 -39z" />
    <glyph glyph-name="ordmasculine.lftab" 
d="M391 276c-162 0 -226 73 -226 184c1 178 100 293 251 293c164 0 228 -73 228 -184c0 -180 -97 -293 -253 -293zM390 386c79 0 122 64 122 164c0 52 -24 86 -95 86c-76 0 -121 -67 -121 -166c0 -51 25 -84 94 -84zM120 114l24 112h400l-24 -112h-400z" />
    <glyph glyph-name="florin.lftab" 
d="M156 327l30 135h120l24 110c21 100 55 169 231 169h93l-30 -140h-53c-70 0 -84 -29 -93 -76l-14 -63h146l-29 -135h-146l-105 -493h-157l105 493h-122z" />
    <glyph glyph-name="divide.lftab" 
d="M234 79l29 135h159l-29 -135h-159zM88 282l31 141h536l-30 -141h-537zM322 491l28 135h159l-29 -135h-158z" />
    <glyph glyph-name="fraction.lftab" 
d="M20 0l573 741h138l-573 -741h-138z" />
    <glyph glyph-name="Euro.lftab" 
d="M61 394l23 109h108c54 150 162 250 317 250c107 0 183 -25 232 -58l-91 -123c-31 20 -73 41 -144 41c-75 0 -124 -46 -155 -110h208l-22 -109h-220c-4 -19 -7 -39 -9 -58h216l-23 -110h-194c8 -64 43 -104 124 -104c30 0 79 5 122 29l65 -115c-59 -36 -138 -48 -206 -48
c-177 0 -252 95 -260 238h-127l23 110h108c2 19 4 39 8 58h-103z" />
    <glyph glyph-name="perthousand.lftab" horiz-adv-x="1640" 
d="M254 258c-160 0 -217 80 -187 242c30 175 115 249 234 249c162 0 221 -85 191 -246c-30 -183 -121 -245 -238 -245zM259 370c54 0 85 40 98 142c14 82 0 117 -60 117c-56 0 -83 -48 -97 -144c-13 -81 1 -115 59 -115zM874 -9c-161 0 -218 81 -188 243
c30 175 115 249 235 249c161 0 220 -85 191 -247c-31 -182 -121 -245 -238 -245zM878 103c54 0 85 41 98 142c14 82 0 117 -60 117c-56 0 -83 -48 -96 -143c-13 -82 0 -116 58 -116zM1335 -9c-160 0 -217 81 -187 243c30 175 115 249 234 249c162 0 221 -85 191 -247
c-30 -182 -121 -245 -238 -245zM1340 103c54 0 85 41 98 142c14 82 0 117 -60 117c-56 0 -83 -48 -97 -143c-13 -82 1 -116 59 -116zM263 0l520 741h140l-519 -741h-141z" />
    <glyph glyph-name="zero.superior" horiz-adv-x="583" 
d="M285 247c-138 0 -197 64 -197 173c0 30 4 63 12 98c35 165 115 231 249 231c138 0 197 -67 197 -177c0 -29 -4 -62 -12 -97c-35 -166 -116 -228 -249 -228zM293 347c66 0 92 38 113 140c7 29 11 56 11 79c0 53 -20 78 -78 78c-65 0 -90 -37 -112 -138
c-6 -30 -10 -56 -10 -79c0 -54 19 -80 76 -80z" />
    <glyph glyph-name="one.superior" horiz-adv-x="380" 
d="M118 254l81 382h-83l22 105h211l-104 -487h-127z" />
    <glyph glyph-name="two.superior" horiz-adv-x="514" 
d="M41 254l18 85l185 135c100 74 116 86 116 133c0 27 -24 38 -76 38c-31 0 -84 -8 -118 -21l-35 93c46 19 103 31 164 31c130 0 192 -39 192 -118c0 -98 -35 -129 -143 -206l-98 -73h185l-20 -97h-370z" />
    <glyph glyph-name="three.superior" horiz-adv-x="514" 
d="M256 246c-101 0 -173 24 -223 61l68 85c43 -30 92 -50 152 -50c48 0 79 21 79 75c0 32 -20 46 -80 46h-81l22 100h98c46 0 69 8 69 50c0 25 -21 37 -72 37c-32 0 -87 -8 -121 -25l-43 89c52 29 139 35 189 35c113 0 176 -38 176 -106c0 -82 -35 -114 -82 -130
c31 -14 48 -44 48 -95c0 -129 -87 -172 -199 -172z" />
    <glyph glyph-name="four.superior" horiz-adv-x="552" 
d="M47 344l18 87l280 310h134l-276 -304h103l46 115h92l-25 -115h75l-20 -93h-74l-19 -90h-115l19 90h-238z" />
    <glyph glyph-name="five.superior" horiz-adv-x="520" 
d="M262 247c-106 0 -181 30 -217 59l67 86c44 -33 99 -49 150 -49c48 0 89 11 89 83c0 50 -32 63 -86 63c-24 0 -51 -5 -77 -16l-85 27l65 241h335l-21 -100h-227l-19 -69c24 8 53 12 76 12c90 0 167 -24 167 -143c0 -163 -102 -194 -217 -194z" />
    <glyph glyph-name="six.superior" horiz-adv-x="555" 
d="M286 247c-139 0 -204 65 -204 168c0 23 2 49 8 76c42 199 125 250 314 250h97l-21 -99h-83c-132 0 -149 -38 -168 -90c26 24 65 33 117 33c116 0 162 -47 162 -124c0 -131 -83 -214 -222 -214zM289 341c70 0 93 43 93 101c0 34 -19 52 -82 52c-56 0 -94 -19 -94 -87
c0 -42 28 -66 83 -66z" />
    <glyph glyph-name="seven.superior" horiz-adv-x="467" 
d="M81 254l247 386h-230l22 101h371l-16 -78l-259 -409h-135z" />
    <glyph glyph-name="eight.superior" horiz-adv-x="570" 
d="M279 243c-153 0 -210 60 -210 128c0 75 34 123 109 148c-36 19 -44 52 -44 86c0 82 59 144 197 144c159 0 208 -52 208 -116c0 -57 -22 -106 -84 -121c43 -20 53 -53 53 -96c0 -104 -75 -173 -229 -173zM290 332c58 0 92 24 92 80c0 33 -23 56 -94 56
c-57 0 -91 -24 -91 -80c0 -33 23 -56 93 -56zM335 555c54 0 78 17 78 61c0 25 -17 45 -82 45c-54 0 -77 -18 -77 -62c0 -25 17 -44 81 -44z" />
    <glyph glyph-name="nine.superior" horiz-adv-x="555" 
d="M113 254l20 98h75c135 0 150 35 169 88c-23 -23 -64 -33 -117 -33c-111 0 -162 50 -162 122c0 136 83 220 222 220s205 -65 205 -168c0 -23 -3 -49 -9 -77c-43 -199 -124 -250 -313 -250h-90zM307 495c56 0 93 18 93 87c0 42 -27 65 -82 65c-71 0 -94 -42 -94 -100
c0 -34 19 -52 83 -52z" />
    <glyph glyph-name="zero.inferior" horiz-adv-x="583" 
d="M233 -6c-138 0 -197 64 -197 173c0 30 4 63 12 98c35 165 115 231 249 231c138 0 197 -67 197 -177c0 -29 -4 -62 -12 -97c-35 -166 -116 -228 -249 -228zM241 94c66 0 92 38 113 140c7 29 11 56 11 79c0 53 -20 78 -78 78c-65 0 -90 -37 -112 -138
c-6 -30 -10 -56 -10 -79c0 -54 19 -80 76 -80z" />
    <glyph glyph-name="one.inferior" horiz-adv-x="380" 
d="M66 1l81 382h-83l22 105h211l-104 -487h-127z" />
    <glyph glyph-name="two.inferior" horiz-adv-x="514" 
d="M-11 1l18 85l185 135c100 74 116 86 116 133c0 27 -24 38 -76 38c-31 0 -84 -8 -118 -21l-35 93c46 19 103 31 164 31c130 0 192 -39 192 -118c0 -98 -35 -129 -143 -206l-98 -73h185l-20 -97h-370z" />
    <glyph glyph-name="three.inferior" horiz-adv-x="514" 
d="M204 -7c-101 0 -173 24 -223 61l68 85c43 -30 92 -50 152 -50c48 0 79 21 79 75c0 32 -20 46 -80 46h-81l22 100h98c46 0 69 8 69 50c0 25 -21 37 -72 37c-32 0 -87 -8 -121 -25l-43 89c52 29 139 35 189 35c113 0 176 -38 176 -106c0 -82 -35 -114 -82 -130
c31 -14 48 -44 48 -95c0 -129 -87 -172 -199 -172z" />
    <glyph glyph-name="four.inferior" horiz-adv-x="552" 
d="M-5 91l18 87l280 310h134l-276 -304h103l46 115h92l-25 -115h75l-20 -93h-74l-19 -90h-115l19 90h-238z" />
    <glyph glyph-name="five.inferior" horiz-adv-x="520" 
d="M210 -6c-106 0 -181 30 -217 59l67 86c44 -33 99 -49 150 -49c48 0 89 11 89 83c0 50 -32 63 -86 63c-24 0 -51 -5 -77 -16l-85 27l65 241h335l-21 -100h-227l-19 -69c24 8 53 12 76 12c90 0 167 -24 167 -143c0 -163 -102 -194 -217 -194z" />
    <glyph glyph-name="six.inferior" horiz-adv-x="555" 
d="M234 -6c-139 0 -204 65 -204 168c0 23 2 49 8 76c42 199 125 250 314 250h97l-21 -99h-83c-132 0 -149 -38 -168 -90c26 24 65 33 117 33c116 0 162 -47 162 -124c0 -131 -83 -214 -222 -214zM237 88c70 0 93 43 93 101c0 34 -19 52 -82 52c-56 0 -94 -19 -94 -87
c0 -42 28 -66 83 -66z" />
    <glyph glyph-name="seven.inferior" horiz-adv-x="467" 
d="M29 1l247 386h-230l22 101h371l-16 -78l-259 -409h-135z" />
    <glyph glyph-name="eight.inferior" horiz-adv-x="570" 
d="M227 -10c-153 0 -210 60 -210 128c0 75 34 123 109 148c-36 19 -44 52 -44 86c0 82 59 144 197 144c159 0 208 -52 208 -116c0 -57 -22 -106 -84 -121c43 -20 53 -53 53 -96c0 -104 -75 -173 -229 -173zM238 79c58 0 92 24 92 80c0 33 -23 56 -94 56
c-57 0 -91 -24 -91 -80c0 -33 23 -56 93 -56zM283 302c54 0 78 17 78 61c0 25 -17 45 -82 45c-54 0 -77 -18 -77 -62c0 -25 17 -44 81 -44z" />
    <glyph glyph-name="nine.inferior" horiz-adv-x="555" 
d="M61 1l20 98h75c135 0 150 35 169 88c-23 -23 -64 -33 -117 -33c-111 0 -162 50 -162 122c0 136 83 220 222 220s205 -65 205 -168c0 -23 -3 -49 -9 -77c-43 -199 -124 -250 -313 -250h-90zM255 242c56 0 93 18 93 87c0 42 -27 65 -82 65c-71 0 -94 -42 -94 -100
c0 -34 19 -52 83 -52z" />
    <glyph glyph-name="zero.numerator" horiz-adv-x="523" 
d="M255 247c-138 0 -197 64 -197 173c0 30 4 63 12 98c35 165 115 231 249 231c138 0 197 -67 197 -177c0 -29 -4 -62 -12 -97c-35 -166 -116 -228 -249 -228zM263 347c66 0 92 38 113 140c7 29 11 56 11 79c0 53 -20 78 -78 78c-65 0 -90 -37 -112 -138
c-6 -30 -10 -56 -10 -79c0 -54 19 -80 76 -80z" />
    <glyph glyph-name="one.numerator" horiz-adv-x="320" 
d="M88 254l81 382h-83l22 105h211l-104 -487h-127z" />
    <glyph glyph-name="two.numerator" horiz-adv-x="454" 
d="M11 254l18 85l185 135c100 74 116 86 116 133c0 27 -24 38 -76 38c-31 0 -84 -8 -118 -21l-35 93c46 19 103 31 164 31c130 0 192 -39 192 -118c0 -98 -35 -129 -143 -206l-98 -73h185l-20 -97h-370z" />
    <glyph glyph-name="three.numerator" horiz-adv-x="454" 
d="M226 246c-101 0 -173 24 -223 61l68 85c43 -30 92 -50 152 -50c48 0 79 21 79 75c0 32 -20 46 -80 46h-81l22 100h98c46 0 69 8 69 50c0 25 -21 37 -72 37c-32 0 -87 -8 -121 -25l-43 89c52 29 139 35 189 35c113 0 176 -38 176 -106c0 -82 -35 -114 -82 -130
c31 -14 48 -44 48 -95c0 -129 -87 -172 -199 -172z" />
    <glyph glyph-name="four.numerator" horiz-adv-x="492" 
d="M17 344l18 87l280 310h134l-276 -304h103l46 115h92l-25 -115h75l-20 -93h-74l-19 -90h-115l19 90h-238z" />
    <glyph glyph-name="five.numerator" horiz-adv-x="460" 
d="M232 247c-106 0 -181 30 -217 59l67 86c44 -33 99 -49 150 -49c48 0 89 11 89 83c0 50 -32 63 -86 63c-24 0 -51 -5 -77 -16l-85 27l65 241h335l-21 -100h-227l-19 -69c24 8 53 12 76 12c90 0 167 -24 167 -143c0 -163 -102 -194 -217 -194z" />
    <glyph glyph-name="six.numerator" horiz-adv-x="495" 
d="M256 247c-139 0 -204 65 -204 168c0 23 2 49 8 76c42 199 125 250 314 250h97l-21 -99h-83c-132 0 -149 -38 -168 -90c26 24 65 33 117 33c116 0 162 -47 162 -124c0 -131 -83 -214 -222 -214zM259 341c70 0 93 43 93 101c0 34 -19 52 -82 52c-56 0 -94 -19 -94 -87
c0 -42 28 -66 83 -66z" />
    <glyph glyph-name="seven.numerator" horiz-adv-x="407" 
d="M51 254l247 386h-230l22 101h371l-16 -78l-259 -409h-135z" />
    <glyph glyph-name="eight.numerator" horiz-adv-x="510" 
d="M249 243c-153 0 -210 60 -210 128c0 75 34 123 109 148c-36 19 -44 52 -44 86c0 82 59 144 197 144c159 0 208 -52 208 -116c0 -57 -22 -106 -84 -121c43 -20 53 -53 53 -96c0 -104 -75 -173 -229 -173zM260 332c58 0 92 24 92 80c0 33 -23 56 -94 56
c-57 0 -91 -24 -91 -80c0 -33 23 -56 93 -56zM305 555c54 0 78 17 78 61c0 25 -17 45 -82 45c-54 0 -77 -18 -77 -62c0 -25 17 -44 81 -44z" />
    <glyph glyph-name="nine.numerator" horiz-adv-x="495" 
d="M83 254l20 98h75c135 0 150 35 169 88c-23 -23 -64 -33 -117 -33c-111 0 -162 50 -162 122c0 136 83 220 222 220s205 -65 205 -168c0 -23 -3 -49 -9 -77c-43 -199 -124 -250 -313 -250h-90zM277 495c56 0 93 18 93 87c0 42 -27 65 -82 65c-71 0 -94 -42 -94 -100
c0 -34 19 -52 83 -52z" />
    <glyph glyph-name="zero.denominator" horiz-adv-x="523" 
d="M203 -6c-138 0 -197 64 -197 173c0 30 4 63 12 98c35 165 115 231 249 231c138 0 197 -67 197 -177c0 -29 -4 -62 -12 -97c-35 -166 -116 -228 -249 -228zM211 94c66 0 92 38 113 140c7 29 11 56 11 79c0 53 -20 78 -78 78c-65 0 -90 -37 -112 -138
c-6 -30 -10 -56 -10 -79c0 -54 19 -80 76 -80z" />
    <glyph glyph-name="one.denominator" horiz-adv-x="320" 
d="M36 1l81 382h-83l22 105h211l-104 -487h-127z" />
    <glyph glyph-name="two.denominator" horiz-adv-x="454" 
d="M-41 1l18 85l185 135c100 74 116 86 116 133c0 27 -24 38 -76 38c-31 0 -84 -8 -118 -21l-35 93c46 19 103 31 164 31c130 0 192 -39 192 -118c0 -98 -35 -129 -143 -206l-98 -73h185l-20 -97h-370z" />
    <glyph glyph-name="three.denominator" horiz-adv-x="454" 
d="M174 -7c-101 0 -173 24 -223 61l68 85c43 -30 92 -50 152 -50c48 0 79 21 79 75c0 32 -20 46 -80 46h-81l22 100h98c46 0 69 8 69 50c0 25 -21 37 -72 37c-32 0 -87 -8 -121 -25l-43 89c52 29 139 35 189 35c113 0 176 -38 176 -106c0 -82 -35 -114 -82 -130
c31 -14 48 -44 48 -95c0 -129 -87 -172 -199 -172z" />
    <glyph glyph-name="four.denominator" horiz-adv-x="492" 
d="M-35 91l18 87l280 310h134l-276 -304h103l46 115h92l-25 -115h75l-20 -93h-74l-19 -90h-115l19 90h-238z" />
    <glyph glyph-name="five.denominator" horiz-adv-x="460" 
d="M180 -6c-106 0 -181 30 -217 59l67 86c44 -33 99 -49 150 -49c48 0 89 11 89 83c0 50 -32 63 -86 63c-24 0 -51 -5 -77 -16l-85 27l65 241h335l-21 -100h-227l-19 -69c24 8 53 12 76 12c90 0 167 -24 167 -143c0 -163 -102 -194 -217 -194z" />
    <glyph glyph-name="six.denominator" horiz-adv-x="495" 
d="M204 -6c-139 0 -204 65 -204 168c0 23 2 49 8 76c42 199 125 250 314 250h97l-21 -99h-83c-132 0 -149 -38 -168 -90c26 24 65 33 117 33c116 0 162 -47 162 -124c0 -131 -83 -214 -222 -214zM207 88c70 0 93 43 93 101c0 34 -19 52 -82 52c-56 0 -94 -19 -94 -87
c0 -42 28 -66 83 -66z" />
    <glyph glyph-name="seven.denominator" horiz-adv-x="407" 
d="M-1 1l247 386h-230l22 101h371l-16 -78l-259 -409h-135z" />
    <glyph glyph-name="eight.denominator" horiz-adv-x="510" 
d="M197 -10c-153 0 -210 60 -210 128c0 75 34 123 109 148c-36 19 -44 52 -44 86c0 82 59 144 197 144c159 0 208 -52 208 -116c0 -57 -22 -106 -84 -121c43 -20 53 -53 53 -96c0 -104 -75 -173 -229 -173zM208 79c58 0 92 24 92 80c0 33 -23 56 -94 56
c-57 0 -91 -24 -91 -80c0 -33 23 -56 93 -56zM253 302c54 0 78 17 78 61c0 25 -17 45 -82 45c-54 0 -77 -18 -77 -62c0 -25 17 -44 81 -44z" />
    <glyph glyph-name="nine.denominator" horiz-adv-x="495" 
d="M31 1l20 98h75c135 0 150 35 169 88c-23 -23 -64 -33 -117 -33c-111 0 -162 50 -162 122c0 136 83 220 222 220s205 -65 205 -168c0 -23 -3 -49 -9 -77c-43 -199 -124 -250 -313 -250h-90zM225 242c56 0 93 18 93 87c0 42 -27 65 -82 65c-71 0 -94 -42 -94 -100
c0 -34 19 -52 83 -52z" />
    <glyph glyph-name="uni00A0" unicode="&#xa0;" horiz-adv-x="215" 
 />
    <glyph glyph-name="registered.superior" horiz-adv-x="669" 
d="M356 184c-183 0 -278 124 -278 285s95 286 278 286c181 0 276 -125 276 -286s-95 -285 -276 -285zM356 229c162 0 229 107 229 240c0 134 -67 241 -229 241c-164 0 -231 -107 -231 -241c0 -133 67 -240 231 -240zM418 309l-61 109h-61v-109h-79v327h157
c107 0 132 -44 132 -107c0 -46 -15 -86 -70 -103l66 -117h-84zM296 479h72c42 0 57 10 57 47c0 38 -14 47 -57 47h-72v-94z" />
    </font>
</defs>
</svg>
