<?xml version="1.0" standalone="no"?>
<!DOCTYPE svg PUBLIC "-//W3C//DTD SVG 1.1//EN" "http://www.w3.org/Graphics/SVG/1.1/DTD/svg11.dtd" >
<svg xmlns="http://www.w3.org/2000/svg" xmlns:xlink="http://www.w3.org/1999/xlink" version="1.1">
<metadata>
Created by FontForge 20170731 at Mon Jul 16 14:59:52 2007
 By Aleksey,,,
Copyright (c) The Font Bureau, Inc., 2003. All rights reserved.
</metadata>
<defs>
<font id="AntennaCond-Regular" horiz-adv-x="471" >
  <font-face 
    font-family="AntennaCond Regular"
    font-weight="400"
    font-stretch="normal"
    units-per-em="1000"
    panose-1="2 0 5 6 0 0 0 2 0 4"
    ascent="800"
    descent="-200"
    x-height="555"
    cap-height="741"
    bbox="-33 -220 1280 946"
    underline-thickness="50"
    underline-position="-200"
    unicode-range="U+0020-FB02"
  />
<missing-glyph horiz-adv-x="180" 
 />
    <glyph glyph-name="fi" unicode="fi" horiz-adv-x="529" 
d="M18 473v82h87v62q0 154 158 154h47v-83h-39q-43 0 -57.5 -19.5t-14.5 -60.5v-53h111v-82h-111v-473h-94v473h-87zM375 0v555h94v-555h-94zM375 623v112h94v-112h-94z" />
    <glyph glyph-name="fl" unicode="fl" horiz-adv-x="569" 
d="M18 473v82h87v62q0 154 158 154h47v-83h-39q-43 0 -57.5 -19.5t-14.5 -60.5v-53h111v-82h-111v-473h-94v473h-87zM534 0q-5 -1 -32 -1q-73 0 -100 28.5t-27 102.5v639h94v-628q0 -37 10 -48t55 -11v-82z" />
    <glyph glyph-name="f_f_l" unicode="ffl" horiz-adv-x="840" 
d="M375 0v473h-176v-473h-94v473h-87v82h87v62q0 154 158 154h47v-83h-39q-43 0 -57.5 -19.5t-14.5 -60.5v-53h176v62q0 154 159 154h46v-83h-39q-43 0 -57.5 -19.5t-14.5 -60.5v-53h111v-82h-111v-473h-94zM804 0q-4 -1 -32 -1q-72 0 -99.5 28.5t-27.5 102.5v639h94v-628
q0 -37 10 -48t55 -11v-82z" />
    <glyph glyph-name="f_f_i" unicode="ffi" horiz-adv-x="799" 
d="M375 0v473h-176v-473h-94v473h-87v82h87v62q0 154 158 154h47v-83h-39q-43 0 -57.5 -19.5t-14.5 -60.5v-53h176v62q0 154 159 154h46v-83h-39q-43 0 -57.5 -19.5t-14.5 -60.5v-53h111v-82h-111v-473h-94zM645 0v555h94v-555h-94zM645 623v112h94v-112h-94z" />
    <glyph glyph-name="f_j" unicode="fj" horiz-adv-x="529" 
d="M18 473v82h87v62q0 154 158 154h47v-83h-39q-43 0 -57.5 -19.5t-14.5 -60.5v-53h111v-82h-111v-473h-94v473h-87zM318 -158v77h8q31 0 40 13.5t9 50.5v572h94v-575q0 -77 -28.5 -107.5t-108.5 -30.5h-14zM375 623v112h94v-112h-94z" />
    <glyph glyph-name="f_f" unicode="ff" horiz-adv-x="606" 
d="M375 0v473h-176v-473h-94v473h-87v82h87v62q0 154 158 154h47v-83h-39q-43 0 -57.5 -19.5t-14.5 -60.5v-53h176v62q0 154 159 154q53 0 63 -1v-82h-56q-43 0 -57.5 -19.5t-14.5 -60.5v-53h128v-82h-128v-473h-94z" />
    <glyph glyph-name=".notdef" horiz-adv-x="180" 
 />
    <glyph glyph-name=".null" horiz-adv-x="0" 
 />
    <glyph glyph-name="nonmarkingreturn" horiz-adv-x="333" 
 />
    <glyph glyph-name="space" unicode=" " horiz-adv-x="180" 
 />
    <glyph glyph-name="space" unicode="&#xa0;" horiz-adv-x="180" 
 />
    <glyph glyph-name="exclam" unicode="!" horiz-adv-x="306" 
d="M96 0v125h113v-125h-113zM111 211l-8 530h102l-10 -530h-84z" />
    <glyph glyph-name="quotedbl" unicode="&#x22;" horiz-adv-x="425" 
d="M79 439l-4 302h96l-5 -302h-87zM260 439l-6 302h97l-6 -302h-85z" />
    <glyph glyph-name="numbersign" unicode="#" horiz-adv-x="593" 
d="M98 0l33 219h-84v87h97l18 118h-115v86h128l35 231h89l-35 -231h107l34 231h89l-35 -231h86v-86h-99l-18 -118h117v-87h-130l-33 -219h-88l33 219h-107l-33 -219h-89zM225 299h120l21 131h-121z" />
    <glyph glyph-name="dollar" unicode="$" horiz-adv-x="538" 
d="M227 -92v92q-110 7 -184 60l44 71q64 -42 144 -51v273q-82 34 -121.5 75t-39.5 121q0 172 157 190v86h90v-85q81 -8 143 -42l-42 -75q-46 24 -106 31v-240q86 -36 131 -81.5t45 -131.5q0 -90 -40.5 -140t-130.5 -60v-93h-90zM396 196q0 44 -20 71t-64 50v-235
q84 18 84 114zM162 552q0 -64 69 -101v200q-69 -16 -69 -99z" />
    <glyph glyph-name="percent" unicode="%" horiz-adv-x="935" 
d="M202 276q-87 0 -128.5 54.5t-41.5 181.5q0 128 41.5 182t128.5 54q88 0 130 -54t42 -182q0 -127 -42 -181.5t-130 -54.5zM203 348q47 0 66.5 36t19.5 126t-19.5 126t-66.5 36t-66.5 -36t-19.5 -126t19.5 -126t66.5 -36zM732 -7q-88 0 -129 54t-41 182t41 182.5t129 54.5
t129.5 -55t41.5 -182t-41.5 -181.5t-129.5 -54.5zM732 65q47 0 67 36.5t20 125.5q0 90 -20 126t-67 36t-66.5 -36t-19.5 -126t20 -126t66 -36zM262 0l325 741h88l-326 -741h-87z" />
    <glyph glyph-name="ampersand" unicode="&#x26;" horiz-adv-x="664" 
d="M258 -7q-116 0 -168.5 53t-52.5 154q0 73 36.5 122.5t104.5 95.5q-60 89 -60 176q0 160 157 160q154 0 154 -160q0 -63 -34 -109t-93 -89q23 -27 61 -71l97 -116q27 68 50 253l84 -11q-14 -111 -29.5 -183.5t-44.5 -128.5l118 -139h-116l-55 65q-75 -72 -209 -72zM258 73
q100 0 154 57l-123 147q-25 28 -64 77q-45 -36 -70 -71t-25 -79q0 -61 26 -96t102 -35zM209 594q0 -62 47 -135q85 66 85 135q0 38 -14.5 58t-51.5 20q-38 0 -52 -19.5t-14 -58.5z" />
    <glyph glyph-name="quotesingle" unicode="'" horiz-adv-x="245" 
d="M79 439l-4 302h97l-6 -302h-87z" />
    <glyph glyph-name="parenleft" unicode="(" horiz-adv-x="399" 
d="M255 -173q-67 66 -117.5 188.5t-50.5 287.5q0 157 51 284t117 193l69 -46q-142 -164 -142 -430q0 -151 43 -261t99 -171z" />
    <glyph glyph-name="parenright" unicode=")" horiz-adv-x="399" 
d="M144 -173l-68 45q141 168 141 432q0 150 -42.5 259t-98.5 171l68 46q68 -67 118 -189t50 -287q0 -159 -51 -286t-117 -191z" />
    <glyph glyph-name="asterisk" unicode="*" horiz-adv-x="481" 
d="M202 301l9 163l-126 -86l-41 69l138 74l-138 76l41 67l126 -86l-9 164h75l-7 -165l126 88l41 -67l-139 -77l139 -75l-40 -68l-127 87l7 -164h-75z" />
    <glyph glyph-name="plus" unicode="+" horiz-adv-x="566" 
d="M239 124v187h-156v82h156v186h88v-186h156v-82h-156v-187h-88z" />
    <glyph glyph-name="comma" unicode="," horiz-adv-x="216" 
d="M77 -119l-28 49q36 20 45 31.5t9 38.5h-52v126h114v-118q0 -50 -16.5 -75t-71.5 -52z" />
    <glyph glyph-name="hyphen" unicode="-" horiz-adv-x="353" 
d="M37 271v87h278v-87h-278z" />
    <glyph glyph-name="hyphen" unicode="&#xad;" horiz-adv-x="353" 
d="M37 271v87h278v-87h-278z" />
    <glyph glyph-name="period" unicode="." horiz-adv-x="216" 
d="M51 0v126h114v-126h-114z" />
    <glyph glyph-name="slash" unicode="/" horiz-adv-x="426" 
d="M0 0l332 741h94l-332 -741h-94z" />
    <glyph glyph-name="zero" unicode="0" horiz-adv-x="590" 
d="M296 -8q-75 0 -122.5 22t-73 72.5t-34.5 115.5t-9 168q0 82 5.5 138t20 104.5t41 77t69 44t103.5 15.5q74 0 121 -22.5t72 -73.5t34 -116t9 -167q0 -104 -9 -169t-34 -115.5t-72 -72t-121 -21.5zM296 79q84 0 112.5 63.5t28.5 227.5q0 162 -29 225t-112 63
q-85 0 -113.5 -62.5t-28.5 -225.5q0 -164 28.5 -227.5t113.5 -63.5z" />
    <glyph glyph-name="one" unicode="1" horiz-adv-x="311" 
d="M131 0v655h-108v86h202v-741h-94z" />
    <glyph glyph-name="two" unicode="2" horiz-adv-x="494" 
d="M34 0v76l164 203q94 116 119 166t25 108q0 57 -24.5 82t-84.5 25q-82 0 -150 -35l-40 79q88 45 204 45q101 0 145 -44.5t44 -138.5q0 -80 -31.5 -142.5t-138.5 -195.5l-116 -145h295v-83h-411z" />
    <glyph glyph-name="three" unicode="3" horiz-adv-x="493" 
d="M225 -8q-111 0 -196 47l43 77q70 -38 147 -38q74 0 103.5 31.5t29.5 113.5q0 69 -26.5 100t-111.5 31h-88v84h93q67 0 91.5 28.5t24.5 82.5q0 66 -26 88.5t-88 22.5q-71 0 -141 -34l-39 76q82 47 194 47q100 0 146.5 -37.5t46.5 -140.5q0 -73 -18.5 -111.5t-59.5 -54.5
q54 -16 74.5 -57.5t20.5 -133.5q0 -122 -52.5 -172t-167.5 -50z" />
    <glyph glyph-name="four" unicode="4" horiz-adv-x="545" 
d="M36 168v75l259 498h99l-258 -494h198l19 228h68v-228h99v-79h-99v-168h-88v168h-297z" />
    <glyph glyph-name="five" unicode="5" horiz-adv-x="513" 
d="M245 -8q-124 0 -212 48l43 77q71 -39 163 -39q76 0 108 33t32 131q0 96 -30 127.5t-99 31.5q-73 0 -119 -39l-73 21l18 358h361v-86h-281l-10 -200q47 32 134 32q104 0 148.5 -52t44.5 -191q0 -77 -13.5 -126.5t-44 -77t-70.5 -38t-100 -10.5z" />
    <glyph glyph-name="six" unicode="6" horiz-adv-x="558" 
d="M292 -8q-52 0 -90.5 8.5t-65 27.5t-43 43t-25 61.5t-11.5 75.5t-3 93q0 56 1 93t4.5 81t10 71.5t18 59t28 50t40.5 36.5t55 27.5t71.5 15.5t91.5 6h57v-86h-62q-56 0 -95.5 -10.5t-62 -26.5t-36 -46t-18 -58.5t-7.5 -74.5q46 60 170 60q115 0 155 -59.5t40 -182.5
q0 -139 -48 -202t-175 -63zM293 75q75 0 102 43t27 138q0 86 -27 124.5t-100 38.5q-67 0 -105.5 -38t-38.5 -119q0 -102 28.5 -144.5t113.5 -42.5z" />
    <glyph glyph-name="seven" unicode="7" horiz-adv-x="442" 
d="M108 0l218 655h-307v86h409v-74l-220 -667h-100z" />
    <glyph glyph-name="eight" unicode="8" horiz-adv-x="561" 
d="M281 -8q-73 0 -121.5 17t-71.5 50t-31.5 68t-8.5 84q0 39 3 66t13 55t31.5 47t54.5 29q-49 19 -65 58t-16 103q0 39 9 69t31 56.5t65.5 40.5t106.5 14q121 0 166 -48t45 -132q0 -63 -16 -102.5t-65 -58.5q34 -11 55.5 -29.5t31 -47t12.5 -54.5t3 -66q0 -49 -8.5 -84
t-31.5 -68t-71 -50t-121 -17zM281 74q80 0 108.5 37.5t28.5 109.5q0 70 -28.5 105.5t-108.5 35.5t-108.5 -35.5t-28.5 -105.5q0 -72 28.5 -109.5t108.5 -37.5zM281 442q68 0 93.5 28.5t25.5 84.5t-25.5 84t-93.5 28q-67 0 -93.5 -28.5t-26.5 -83.5q0 -56 26.5 -84.5
t93.5 -28.5z" />
    <glyph glyph-name="nine" unicode="9" horiz-adv-x="558" 
d="M125 0v83h64q68 0 111 13.5t65.5 44.5t30.5 66t11 92q-45 -60 -169 -60q-61 0 -100.5 16.5t-60 50.5t-28 74.5t-7.5 100.5q0 139 48.5 203.5t176.5 64.5q77 0 125 -19t72 -62t32 -93.5t8 -133.5q0 -50 -1 -85t-3.5 -75t-7.5 -67t-14 -56.5t-21.5 -49t-30 -39t-40.5 -31
t-53 -21t-67 -13.5t-82 -4h-59zM263 319q67 0 105.5 38.5t38.5 119.5q0 102 -28.5 144t-113.5 42q-75 0 -102 -42.5t-27 -139.5q0 -85 27 -123.5t100 -38.5z" />
    <glyph glyph-name="colon" unicode=":" horiz-adv-x="232" 
d="M59 0v124h113v-124h-113zM59 432v123h113v-123h-113z" />
    <glyph glyph-name="semicolon" unicode=";" horiz-adv-x="232" 
d="M59 432v123h113v-123h-113zM85 -119l-28 49q36 20 45 31.5t9 38.5h-52v124h113v-116q0 -51 -16 -75.5t-71 -51.5z" />
    <glyph glyph-name="less" unicode="&#x3c;" horiz-adv-x="565" 
d="M448 106l-363 206v68l363 206v-91l-268 -148l268 -149v-92z" />
    <glyph glyph-name="equal" unicode="=" horiz-adv-x="567" 
d="M86 203v87h396v-87h-396zM86 402v86h396v-86h-396z" />
    <glyph glyph-name="greater" unicode="&#x3e;" horiz-adv-x="566" 
d="M117 106v91l267 148l-267 150v91l363 -206v-68z" />
    <glyph glyph-name="question" unicode="?" horiz-adv-x="518" 
d="M193 204q-1 86 14.5 123.5t81.5 104.5q44 44 59.5 69.5t15.5 63.5q0 47 -24 72t-88 25q-78 0 -150 -37l-42 79q90 45 206 45q107 0 149.5 -44t42.5 -124q0 -62 -21 -99.5t-69 -86.5q-60 -60 -72.5 -89t-10.5 -102h-92zM182 0v114h112v-114h-112z" />
    <glyph glyph-name="at" unicode="@" horiz-adv-x="843" 
d="M422 -165q-193 0 -281 103.5t-88 352.5t88 353t281 104t281 -104t88 -353q0 -146 -28.5 -202t-110.5 -56q-54 0 -80.5 16.5t-33.5 51.5q-37 -67 -157 -67q-43 0 -74.5 14t-49 36.5t-28 57.5t-13.5 69t-3 80q0 47 3.5 81.5t13.5 69.5t28 57.5t49.5 36.5t74.5 14
q64 0 94.5 -13.5t47.5 -42.5l15 53l63 -5v-343q2 -66 11 -86t48 -20q42 0 56 38t14 160q0 223 -73.5 312t-235.5 89q-108 0 -173.5 -36t-100 -125t-34.5 -240t34.5 -239.5t100 -124.5t173.5 -36q122 0 234 46l21 -51q-117 -51 -255 -51zM404 107q32 0 53.5 9.5t33.5 23.5
t18 41t7.5 49.5t1.5 60.5q0 99 -21 140t-93 41q-35 0 -56.5 -12.5t-32 -39t-14 -55.5t-3.5 -75q0 -93 20.5 -138t85.5 -45z" />
    <glyph glyph-name="A" unicode="A" horiz-adv-x="598" 
d="M20 0l228 746h102l228 -746h-98l-46 154h-274l-44 -154h-96zM186 242h223l-111 368z" />
    <glyph glyph-name="B" unicode="B" horiz-adv-x="570" 
d="M65 0v741h236q111 0 163.5 -44t52.5 -143q0 -132 -92 -165q54 -16 80.5 -60t26.5 -125q0 -110 -57.5 -157t-167.5 -47h-242zM161 83h145q63 0 96 28t33 100q0 71 -33 99t-96 28h-145v-255zM161 425h137q62 0 92.5 26t30.5 91q0 64 -30 89t-93 25h-137v-231z" />
    <glyph glyph-name="C" unicode="C" horiz-adv-x="521" 
d="M303 -8q-80 0 -134 25.5t-83.5 77.5t-41 117.5t-11.5 157.5t11 156t40.5 117.5t85.5 79.5t140 26q111 0 180 -47l-51 -80q-54 33 -132 33q-101 0 -138.5 -66.5t-37.5 -220.5t37.5 -221.5t139.5 -67.5q80 0 143 40l48 -75q-82 -52 -196 -52z" />
    <glyph glyph-name="D" unicode="D" horiz-adv-x="600" 
d="M65 0v741h210q87 0 144 -22t89.5 -70t45.5 -114t13 -164q0 -100 -12.5 -166t-45.5 -114t-91 -69.5t-147 -21.5h-206zM162 85h116q114 0 152.5 65t38.5 220q0 153 -38 217.5t-151 64.5h-118v-567z" />
    <glyph glyph-name="E" unicode="E" horiz-adv-x="519" 
d="M65 0v741h407v-89h-312v-225h296v-88h-296v-252h315v-87h-410z" />
    <glyph glyph-name="F" unicode="F" horiz-adv-x="499" 
d="M65 0v741h408v-89h-311v-231h294v-88h-294v-333h-97z" />
    <glyph glyph-name="G" unicode="G" horiz-adv-x="577" 
d="M299 -8q-151 0 -208.5 90.5t-57.5 287.5q0 207 63 293t218 86q113 0 194 -51l-50 -80q-66 38 -148 38q-97 0 -138.5 -61t-41.5 -227q0 -164 38.5 -228.5t138.5 -64.5q87 0 115.5 47t28.5 186v25h-175v84h268v-95q0 -192 -49.5 -261t-195.5 -69z" />
    <glyph glyph-name="H" unicode="H" horiz-adv-x="630" 
d="M65 0v741h97v-308h306v308h97v-741h-97v338h-306v-338h-97z" />
    <glyph glyph-name="I" unicode="I" horiz-adv-x="240" 
d="M72 0v741h97v-741h-97z" />
    <glyph glyph-name="J" unicode="J" horiz-adv-x="354" 
d="M25 0v87h70q56 0 78.5 23.5t22.5 74.5v556h97v-562q0 -95 -46 -137t-138 -42h-84z" />
    <glyph glyph-name="K" unicode="K" horiz-adv-x="585" 
d="M65 0v741h96v-352l280 352h112l-226 -280l233 -461h-107l-191 382l-101 -130v-252h-96z" />
    <glyph glyph-name="L" unicode="L" horiz-adv-x="482" 
d="M65 0v741h97v-654h303v-87h-400z" />
    <glyph glyph-name="M" unicode="M" horiz-adv-x="742" 
d="M65 0v741h122l184 -576l184 576h122v-741h-95v558l-180 -558h-70l-181 558v-558h-86z" />
    <glyph glyph-name="N" unicode="N" horiz-adv-x="627" 
d="M65 0v741h105l300 -548v548h93v-741h-90l-316 573v-573h-92z" />
    <glyph glyph-name="O" unicode="O" horiz-adv-x="628" 
d="M315 -8q-73 0 -125.5 20.5t-82 52.5t-47 84t-22.5 102t-5 119t5 119t22.5 102t47 84.5t82 53t125.5 20.5q72 0 124.5 -20.5t82 -53t46.5 -84.5t22 -102t5 -119t-5 -119t-22 -102t-46.5 -84t-82 -52.5t-124.5 -20.5zM315 79q49 0 83 15t53.5 38t30 62.5t13.5 78t3 94.5
t-3 94.5t-14 78t-30.5 63t-53.5 38.5t-82 15q-49 0 -83.5 -15t-53.5 -38t-30 -63t-14 -78t-3 -95q0 -56 3 -94t14 -78t30 -63t53.5 -38t83.5 -15z" />
    <glyph glyph-name="P" unicode="P" horiz-adv-x="570" 
d="M65 0v741h252q114 0 167 -55.5t53 -169.5q0 -235 -222 -235h-154v-281h-96zM161 368h152q68 0 98.5 33t30.5 111t-30.5 110t-98.5 32h-152v-286z" />
    <glyph glyph-name="Q" unicode="Q" horiz-adv-x="628" 
d="M413 -170q-83 0 -124 34t-40 109q0 18 1 27q-56 8 -96 32t-63 56t-36.5 80t-17.5 94t-4 108q0 69 5 119t22.5 102t47 84.5t82 53t125.5 20.5q72 0 124.5 -20.5t82 -53t46.5 -84.5t22 -102t5 -119q0 -66 -4.5 -114t-20 -98t-42.5 -82t-73.5 -54t-111.5 -25v-9
q0 -42 19 -58.5t62 -16.5h63v-83h-74zM315 79q49 0 83 15t53.5 38t30 62.5t13.5 78t3 94.5t-3 94.5t-14 78t-30.5 63t-53.5 38.5t-82 15q-49 0 -83.5 -15t-53.5 -38t-30 -63t-14 -78t-3 -95q0 -56 3 -94t14 -78t30 -63t53.5 -38t83.5 -15z" />
    <glyph glyph-name="R" unicode="R" horiz-adv-x="579" 
d="M425 0l-129 286h-135v-286h-96v741h250q114 0 167 -54.5t53 -166.5q0 -189 -143 -225l134 -295h-101zM161 373h151q68 0 97.5 32.5t29.5 109.5q0 76 -29.5 107.5t-97.5 31.5h-151v-281z" />
    <glyph glyph-name="S" unicode="S" horiz-adv-x="539" 
d="M270 -8q-145 0 -241 60l48 75q86 -51 191 -51q141 0 141 112q0 59 -32.5 87t-130.5 68q-101 42 -145 86.5t-44 126.5q0 91 57 142t165 51q110 0 197 -40l-41 -83q-68 32 -154 32q-129 0 -129 -99q0 -49 26.5 -73.5t110.5 -61.5q64 -27 98.5 -45.5t64.5 -45.5t41 -60.5
t11 -83.5q0 -93 -59.5 -145t-174.5 -52z" />
    <glyph glyph-name="T" unicode="T" horiz-adv-x="548" 
d="M225 0v652h-208v89h514v-89h-209v-652h-97z" />
    <glyph glyph-name="U" unicode="U" horiz-adv-x="625" 
d="M313 -10q-140 0 -196.5 63.5t-56.5 193.5v494h97v-487q0 -92 33.5 -133.5t123.5 -41.5t124 41.5t34 133.5v487h93v-494q0 -131 -55.5 -194t-196.5 -63z" />
    <glyph glyph-name="V" unicode="V" horiz-adv-x="594" 
d="M246 -5l-226 746h98l181 -603l178 603h97l-226 -746h-102z" />
    <glyph glyph-name="W" unicode="W" horiz-adv-x="861" 
d="M203 -5l-176 746h98l131 -560l135 560h85l136 -560l131 560h91l-175 -746h-94l-134 550l-134 -550h-94z" />
    <glyph glyph-name="X" unicode="X" horiz-adv-x="584" 
d="M452 0l-166 301l-157 -301h-104l213 388l-193 353h106l145 -266l139 266h103l-193 -354l213 -387h-106z" />
    <glyph glyph-name="Y" unicode="Y" horiz-adv-x="570" 
d="M237 0v267l-231 474h104l176 -369l178 369h99l-230 -474v-267h-96z" />
    <glyph glyph-name="Z" unicode="Z" horiz-adv-x="532" 
d="M31 0v75l343 577h-329v89h444v-80l-342 -574h351v-87h-467z" />
    <glyph glyph-name="bracketleft" unicode="[" horiz-adv-x="394" 
d="M94 -158v927h224v-81h-129v-768h132v-78h-227z" />
    <glyph glyph-name="backslash" unicode="\" horiz-adv-x="426" 
d="M332 0l-332 741h94l332 -741h-94z" />
    <glyph glyph-name="bracketright" unicode="]" horiz-adv-x="394" 
d="M76 -158v78h130v768h-129v81h225v-927h-226z" />
    <glyph glyph-name="asciicircum" unicode="^" 
d="M80 596l112 162h89l111 -162h-78l-79 96l-79 -96h-76z" />
    <glyph glyph-name="underscore" unicode="_" horiz-adv-x="362" 
d="M-30 -125v72h422v-72h-422z" />
    <glyph glyph-name="grave" unicode="`" 
d="M219 613l-135 162h107l111 -162h-83z" />
    <glyph glyph-name="a" unicode="a" horiz-adv-x="510" 
d="M198 -6q-89 0 -127 44t-38 129q0 116 67.5 159.5t217.5 43.5h23q-2 59 -21.5 84.5t-76.5 25.5q-77 0 -137 -30l-39 77q76 39 185 39q107 0 144 -44.5t37 -151.5v-234q0 -34 7 -44t36 -10v-82q-8 -1 -26 -1q-46 0 -67 11.5t-28 41.5q-43 -58 -157 -58zM217 72
q124 0 124 143v78h-22q-111 0 -154 -22.5t-43 -94.5q0 -58 23.5 -81t71.5 -23z" />
    <glyph glyph-name="b" unicode="b" horiz-adv-x="528" 
d="M56 3v766h93v-267q38 63 160 63q48 0 82.5 -16t54 -40.5t30.5 -64.5t14 -77t3 -88q0 -52 -3.5 -89.5t-15 -77t-31 -64t-54.5 -40t-83 -15.5q-75 0 -108.5 14.5t-57.5 46.5l-14 -58zM281 75q72 0 95 49t23 151q0 50 -4 82.5t-15.5 62t-36 43.5t-62.5 14q-35 0 -59.5 -10.5
t-38.5 -26.5t-21.5 -44t-9.5 -54.5t-2 -66.5t2 -66t9.5 -54t21 -44t38.5 -26t60 -10z" />
    <glyph glyph-name="c" unicode="c" horiz-adv-x="420" 
d="M250 -8q-65 0 -108 19.5t-66 59t-32 88.5t-9 120q0 56 5 97.5t19.5 78.5t39 60t63.5 36.5t93 13.5q80 0 136 -28l-40 -81q-42 21 -92 21q-74 0 -101.5 -47.5t-27.5 -152.5q0 -106 27 -154.5t103 -48.5q47 0 103 26l36 -72q-72 -36 -149 -36z" />
    <glyph glyph-name="d" unicode="d" horiz-adv-x="528" 
d="M219 -7q-48 0 -82.5 16t-54 40.5t-30.5 64t-14 77t-3 89.5q0 51 3.5 89t15 77t31.5 63.5t55 40t83 15.5q66 0 101 -14t55 -43v261h93v-765l-74 -7l-9 61q-41 -65 -170 -65zM247 75q35 0 60 10.5t39 26.5t21.5 44.5t9.5 55t2 66.5t-2 66t-9.5 54t-21.5 43.5t-38.5 26
t-60.5 10.5q-38 0 -62 -14t-36 -43t-16 -61t-4 -82q0 -39 2 -66.5t9 -55.5t20 -44t34.5 -26.5t52.5 -10.5z" />
    <glyph glyph-name="e" unicode="e" horiz-adv-x="478" 
d="M251 -7q-67 0 -110.5 19t-66 59t-31 88.5t-8.5 119.5q0 69 9.5 118t33 88.5t67 59.5t108.5 20q32 0 57 -4.5t44 -13t33.5 -21.5t24 -30t16 -37.5t10 -45t5 -52.5t1.5 -59v-66h-320q3 -85 30.5 -123.5t101.5 -38.5q71 0 141 32l36 -72q-77 -41 -182 -41zM251 482
q-70 0 -96.5 -39.5t-29.5 -123.5h232q-1 39 -2 56.5t-6.5 43t-16 36t-31 19t-50.5 8.5z" />
    <glyph glyph-name="f" unicode="f" horiz-adv-x="336" 
d="M18 473v82h87v62q0 154 158 154q54 0 64 -1v-82h-56q-43 0 -57.5 -19.5t-14.5 -60.5v-53h128v-82h-128v-473h-94v473h-87z" />
    <glyph glyph-name="g" unicode="g" horiz-adv-x="497" 
d="M240 199q-38 0 -70 6q-6 -14 -6 -30q0 -22 17.5 -29.5t65.5 -7.5q125 0 171.5 -31t46.5 -109q0 -87 -54 -126t-170 -39q-121 0 -172.5 29.5t-51.5 105.5q0 107 97 131q-32 20 -32 69q0 36 22 65q-60 42 -60 147q0 98 50 142t146 44q13 0 45 -2l175 27v-75h-80
q56 -38 56 -136q0 -97 -50.5 -139t-145.5 -42zM240 276q53 0 78.5 24.5t25.5 78.5t-25.5 79t-78.5 25q-104 0 -104 -104q0 -103 104 -103zM240 -93q76 0 103 19.5t27 67.5q0 40 -26 55t-104 15q-73 0 -101.5 -19t-28.5 -62q0 -44 27 -60t103 -16z" />
    <glyph glyph-name="h" unicode="h" horiz-adv-x="519" 
d="M56 0v769h93v-264q36 60 158 60q52 0 85 -14t48.5 -43.5t21 -62.5t5.5 -84v-361h-94v340q0 75 -18 105.5t-81 30.5q-75 0 -99.5 -40.5t-24.5 -143.5v-292h-94z" />
    <glyph glyph-name="i" unicode="i" horiz-adv-x="213" 
d="M59 0v555h94v-555h-94zM59 623v113h95v-113h-95z" />
    <glyph glyph-name="j" unicode="j" horiz-adv-x="213" 
d="M2 -158v77h9q31 0 39.5 13t8.5 51v572h94v-575q0 -77 -28 -107.5t-108 -30.5h-15zM59 623v113h95v-113h-95z" />
    <glyph glyph-name="k" unicode="k" horiz-adv-x="466" 
d="M56 0v769h92v-488l192 274h101l-167 -235l180 -320h-99l-143 245l-64 -93v-152h-92z" />
    <glyph glyph-name="l" unicode="l" horiz-adv-x="254" 
d="M219 0q-5 -1 -33 -1q-72 0 -99.5 28.5t-27.5 102.5v639h94v-628q0 -36 10.5 -47.5t55.5 -11.5v-82z" />
    <glyph glyph-name="m" unicode="m" horiz-adv-x="806" 
d="M56 0v550l75 6l8 -55q35 64 163 64q66 0 94 -16.5t40 -49.5q38 66 172 66q42 0 71.5 -10.5t45.5 -26t25 -44t11 -55t2 -68.5v-361h-93v340q0 77 -16 106.5t-79 29.5q-73 0 -96 -40.5t-23 -143.5v-292h-93v340q0 32 -1 49t-6 36.5t-15 29t-27.5 15.5t-44.5 6
q-74 0 -97.5 -41t-23.5 -143v-292h-92z" />
    <glyph glyph-name="n" unicode="n" horiz-adv-x="519" 
d="M56 0v550l75 6l8 -55q39 64 167 64q52 0 85 -14t49 -43.5t21.5 -62.5t5.5 -84v-361h-94v340q0 75 -18 105.5t-81 30.5q-76 0 -100 -42t-24 -142v-292h-94z" />
    <glyph glyph-name="o" unicode="o" horiz-adv-x="514" 
d="M257 -8q-68 0 -113 20.5t-68 61.5t-32 89t-9 116q0 67 8.5 114.5t31.5 89t68.5 62t113.5 20.5q55 0 95.5 -14.5t64.5 -39t38 -62.5t19 -77.5t5 -92.5q0 -69 -8.5 -116.5t-31.5 -88.5t-68 -61.5t-114 -20.5zM257 74q42 0 68.5 14.5t39 44.5t16.5 61.5t4 81.5q0 39 -2 65.5
t-9.5 54.5t-21 44t-37.5 26.5t-58 10.5t-57.5 -10.5t-37 -26.5t-21.5 -44t-10 -54.5t-2 -65.5t2 -66t10 -54.5t21.5 -44t37 -27t57.5 -10.5z" />
    <glyph glyph-name="p" unicode="p" horiz-adv-x="528" 
d="M56 -158v708l75 6l7 -56q41 65 171 65q48 0 82.5 -16t54 -40.5t30.5 -64.5t14 -77t3 -88q0 -65 -6.5 -110.5t-25 -88.5t-57.5 -65t-98 -22q-66 0 -101 14t-55 43v-208h-94zM281 75q71 0 94.5 49t23.5 151q0 50 -4 82.5t-16 62t-36 43.5t-62 14q-35 0 -59.5 -10.5
t-38.5 -26.5t-21.5 -44t-9.5 -54.5t-2 -66.5t2 -66t9.5 -54t21 -44t38.5 -26t60 -10z" />
    <glyph glyph-name="q" unicode="q" horiz-adv-x="528" 
d="M379 -158v212q-40 -61 -160 -61q-48 0 -82.5 16t-54 40.5t-30.5 64t-14 77t-3 89.5q0 51 3.5 89t15 77t31.5 63.5t55 40t83 15.5q74 0 110 -14.5t56 -44.5l14 56l69 -6v-714h-93zM247 75q35 0 60 10.5t39 26.5t21.5 44.5t9.5 55t2 66.5t-2 66t-9.5 54t-21.5 43.5
t-38.5 26t-60.5 10.5q-38 0 -62 -14t-36 -43t-16 -61t-4 -82q0 -39 2 -66.5t9 -55.5t20 -44t34.5 -26.5t52.5 -10.5z" />
    <glyph glyph-name="r" unicode="r" horiz-adv-x="302" 
d="M56 0v550l74 6l9 -63q37 67 154 67v-88q-48 -1 -78.5 -16.5t-44 -46.5t-17 -59t-3.5 -74v-276h-94z" />
    <glyph glyph-name="s" unicode="s" horiz-adv-x="405" 
d="M200 -7q-110 0 -184 37l37 74q64 -34 147 -34q93 0 93 74q0 36 -24 56.5t-91 49.5q-77 33 -111 67.5t-34 96.5q0 151 177 151q87 0 151 -28l-37 -78q-55 24 -117 24q-84 0 -84 -67q0 -31 22.5 -50t85.5 -46q82 -34 116 -69.5t34 -105.5q0 -76 -47 -114t-134 -38z" />
    <glyph glyph-name="t" unicode="t" horiz-adv-x="365" 
d="M18 473v82h88l15 147l76 17v-164h130v-82h-130v-316q0 -41 12.5 -58t55.5 -17h62v-82q-42 -3 -72 -3q-89 0 -120.5 34.5t-31.5 116.5v325h-85z" />
    <glyph glyph-name="u" unicode="u" horiz-adv-x="508" 
d="M254 -8q-118 0 -159.5 49.5t-41.5 164.5v349h94v-344q0 -75 19.5 -105t89.5 -30q68 0 87.5 30t19.5 105v344h92v-349q0 -116 -40 -165t-161 -49z" />
    <glyph glyph-name="v" unicode="v" horiz-adv-x="462" 
d="M180 -4l-172 559h98l127 -434l127 434h94l-172 -559h-102z" />
    <glyph glyph-name="w" unicode="w" horiz-adv-x="714" 
d="M161 -4l-148 559h94l103 -410l106 410h87l105 -407l104 407h89l-147 -559h-90l-107 397l-105 -397h-91z" />
    <glyph glyph-name="x" unicode="x" horiz-adv-x="456" 
d="M343 0l-121 211l-115 -211h-95l164 292l-150 263h101l106 -187l102 187h95l-150 -268l164 -287h-101z" />
    <glyph glyph-name="y" unicode="y" horiz-adv-x="448" 
d="M65 -158v77h51q22 0 32.5 8t16.5 28l12 43l-169 557h95l122 -422l122 422h92l-189 -620q-17 -55 -47 -74t-89 -19h-49z" />
    <glyph glyph-name="z" unicode="z" horiz-adv-x="410" 
d="M20 0v65l246 408h-231v82h346v-65l-246 -413h255v-77h-370z" />
    <glyph glyph-name="braceleft" unicode="{" horiz-adv-x="423" 
d="M275 -158q-81 0 -118 30t-37 95q0 31 21.5 130t21.5 120q0 30 -21 39.5t-80 9.5v79q58 0 79.5 9t21.5 39q0 24 -21.5 122t-21.5 129q0 65 36.5 95t117.5 30h76v-81h-50q-42 0 -62.5 -16t-20.5 -55q0 -24 20 -115t20 -123q0 -56 -49 -73q49 -20 49 -74q0 -35 -20 -126
t-20 -112q0 -40 20.5 -57t62.5 -17h50v-78h-75z" />
    <glyph glyph-name="bar" unicode="|" horiz-adv-x="282" 
d="M94 -158v927h95v-927h-95z" />
    <glyph glyph-name="braceright" unicode="}" horiz-adv-x="423" 
d="M73 -158v78h50q43 0 63 17t20 57q0 20 -20 111t-20 127q0 55 49 74q-49 18 -49 73q0 31 20 122.5t20 115.5q0 39 -20 55t-63 16h-50v81h77q80 0 116 -30t36 -95q0 -31 -21 -129t-21 -122q0 -30 20.5 -38.5t80.5 -8.5v-80q-58 0 -79.5 -9t-21.5 -40q0 -21 21 -120t21 -130
q0 -65 -36 -95t-117 -30h-76z" />
    <glyph glyph-name="asciitilde" unicode="~" 
d="M124 403l-62 35q42 83 111 83q27 0 64.5 -20.5t51.5 -20.5q27 0 57 46l61 -35q-41 -86 -110 -86q-27 0 -65 20t-52 20q-29 0 -56 -42z" />
    <glyph glyph-name="exclamdown" unicode="&#xa1;" horiz-adv-x="307" 
d="M102 0l9 531h85l9 -531h-103zM97 616v125h113v-125h-113z" />
    <glyph glyph-name="cent" unicode="&#xa2;" horiz-adv-x="436" 
d="M205 -96v95q-94 14 -128.5 82.5t-34.5 197.5q0 127 34.5 195t128.5 84v85h91v-82q55 -4 102 -26l-40 -79q-33 16 -67 20v-401q32 3 80 25l35 -70q-53 -29 -110 -33v-93h-91zM138 277q0 -85 15 -131t57 -62v383q-41 -16 -56.5 -62t-15.5 -128z" />
    <glyph glyph-name="sterling" unicode="&#xa3;" horiz-adv-x="501" 
d="M349 -5q-85 0 -166 43q-42 -38 -166 -38v83q75 0 97 15t22 69q0 43 -28 170h-89v78h73q-20 100 -20 149q0 93 46 139t148 46q111 0 190 -41l-40 -76q-63 30 -150 30q-102 0 -102 -107q0 -45 19 -140h163v-78h-148q24 -130 24 -169q0 -32 -5 -62q62 -30 121 -30
q33 0 44.5 17.5t11.5 56.5v58h83v-61q0 -82 -28 -117t-100 -35z" />
    <glyph glyph-name="currency" unicode="&#xa4;" horiz-adv-x="558" 
d="M28 410v77h94q12 138 64 200t168 62q101 0 171 -41l-45 -79q-55 30 -127 30q-69 0 -99.5 -40.5t-38.5 -131.5h208v-77h-212v-71h212v-78h-208q8 -96 39 -139.5t100 -43.5q59 0 127 35l43 -75q-81 -46 -176 -46q-114 0 -165 63.5t-62 205.5h-93v78h90v71h-90z" />
    <glyph glyph-name="yen" unicode="&#xa5;" horiz-adv-x="520" 
d="M55 224v78h160v5l-202 434h100l148 -337l148 337h97l-200 -434v-5h160v-78h-160v-71h160v-78h-160v-75h-91v75h-160v78h160v71h-160z" />
    <glyph glyph-name="brokenbar" unicode="&#xa6;" horiz-adv-x="282" 
d="M94 -158v384h95v-384h-95zM94 385v384h95v-384h-95z" />
    <glyph glyph-name="section" unicode="&#xa7;" horiz-adv-x="454" 
d="M116 -8q-32 0 -46 2v74h38q43 0 57.5 21t14.5 63v72q-68 8 -99 43.5t-31 103.5q0 69 31 104.5t99 42.5v65q0 81 31.5 123t121.5 42q9 0 26.5 -0.5t20.5 -0.5v-78h-39q-43 0 -58 -20.5t-15 -63.5v-66q71 -7 103.5 -43t32.5 -105t-32.5 -104.5t-102.5 -42.5v-66
q0 -81 -32 -123.5t-121 -42.5zM226 287q101 0 101 82q0 43 -24.5 62t-76.5 19q-51 0 -75.5 -19t-24.5 -62q0 -82 100 -82z" />
    <glyph glyph-name="dieresis" unicode="&#xa8;" 
d="M105 613v105h84v-105h-84zM282 613v105h85v-105h-85z" />
    <glyph glyph-name="copyright" unicode="&#xa9;" horiz-adv-x="667" 
d="M339 123q-103 0 -140.5 62.5t-37.5 189.5q0 125 37.5 187.5t144.5 62.5q74 0 120 -30l-35 -53q-35 23 -87 23q-67 0 -91.5 -45t-24.5 -147t24.5 -147t92.5 -45q53 0 95 27l32 -51q-54 -34 -130 -34zM333 -10q-85 0 -143.5 27.5t-90.5 80t-45.5 118.5t-13.5 154
q0 89 13.5 155t45.5 119t90.5 80.5t143.5 27.5q68 0 119.5 -18.5t84.5 -51t53.5 -82t29 -105t8.5 -125.5q0 -88 -14 -154t-46 -118.5t-91 -80t-144 -27.5zM333 30q73 0 123.5 24.5t78 71.5t39 106t11.5 138q0 80 -11.5 139t-39 106.5t-78 72t-123.5 24.5
q-140 0 -195.5 -88.5t-55.5 -253.5q0 -79 11.5 -138t39 -106t77.5 -71.5t123 -24.5z" />
    <glyph glyph-name="ordfeminine" unicode="&#xaa;" horiz-adv-x="452" 
d="M178 286q-129 0 -129 139q0 94 54 127t178 33h17q-1 51 -16 72t-62 21q-57 0 -111 -24l-32 64q64 31 151 31q86 0 116 -36t30 -123v-189q0 -25 6 -33.5t30 -8.5v-69q-4 0 -12 -0.5t-11 -0.5q-40 0 -57 12.5t-23 46.5q-34 -62 -129 -62zM199 351q99 0 99 113v62h-17
q-89 0 -123 -18t-34 -75q0 -46 18.5 -64t56.5 -18zM62 143v70h322v-70h-322z" />
    <glyph glyph-name="guillemotleft" unicode="&#xab;" horiz-adv-x="575" 
d="M188 0l-121 277l121 278h84l-115 -278l115 -277h-84zM404 0l-120 277l120 278h83l-115 -278l115 -277h-83z" />
    <glyph glyph-name="logicalnot" unicode="&#xac;" horiz-adv-x="832" 
d="M126 120q-90 108 -90 251q0 142 90 250q3 -2 7 -6q-87 -106 -87 -244t88 -244zM228 211q-57 70 -57 160t56 160q2 -1 4.5 -3.5l3.5 -3.5q-54 -67 -54 -153q0 -88 54 -153q-1 -1 -2 -2.5t-2.5 -2.5t-2.5 -2zM264 243q-45 56 -45 128t45 128q1 -1 4 -3.5t4 -3.5
q-43 -53 -43 -121t43 -121q-2 -1 -4.5 -3.5zM316 289q-28 36 -28 82q0 47 28 81l7 -7q-25 -33 -25 -74t26 -75q-2 -1 -4 -3.5t-4 -3.5zM349 320q-16 22 -16 51t16 51q2 -1 4 -3.5t4 -3.5q-14 -20 -14 -44t14 -44q-3 -2 -8 -7zM378 346q-7 12 -7 25t7 25l6 -5q-5 -10 -5 -20
t5 -20q-2 -2 -6 -5zM416 60q-116 0 -201 77l7 7q84 -74 194 -74q111 0 193 74q1 -2 3.5 -4t3.5 -4q-86 -76 -200 -76zM416 324q-15 0 -27 9l6 6q10 -7 21 -7q13 0 21 7q2 -2 5 -6q-10 -9 -26 -9zM482 319q-3 4 -7 7q14 20 14 45t-14 44l7 7q17 -22 17 -51t-17 -52zM292 269
q-35 45 -35 102q0 58 36 102l7 -7q-33 -43 -33 -95t33 -95q-5 -5 -8 -7zM416 -17q-144 0 -252 97l7 8q105 -95 245 -95q139 0 244 94l2 -1l4 -4l1 -2q-107 -97 -251 -97zM416 121q-92 0 -161 61l7 8q65 -59 154 -59t153 59q1 -1 3.5 -4t3.5 -4q-67 -61 -160 -61zM416 170
q-72 0 -129 49l7 7q52 -46 122 -46t121 46l3.5 -3.5t3.5 -4.5q-54 -48 -128 -48zM416 209q-57 0 -103 38l7 8q43 -36 96 -36t96 36q2 -2 6 -8q-45 -38 -102 -38zM416 265q-37 0 -66 24l7 8q25 -22 59 -22q33 0 58 22q1 -2 3.5 -4t3.5 -4q-29 -24 -65 -24zM358 445q-3 2 -7 7
l-1 1q29 24 66 24t66 -24l-8 -8q-25 22 -58 22t-58 -22zM570 552q-65 59 -154 59q-87 0 -153 -58l-7 7q69 61 160 61q92 0 161 -61q-2 -3 -7 -8zM454 346l-6 5q5 10 5 20t-5 20l6 5q7 -12 7 -25t-7 -25zM468 333q-5 5 -8 7q10 15 10 31t-10 31l8 7q12 -16 12 -38
q0 -21 -12 -38zM498 306q-3 2 -8 7q19 25 19 58t-19 58l7 7q22 -28 22 -65q0 -34 -21 -65zM540 269q-2 1 -4 3.5t-4 3.5q33 43 33 95q0 53 -34 95l8 7q36 -44 36 -102q0 -57 -35 -102zM568 243q-5 5 -8 7q43 53 43 121t-43 121l8 7q45 -56 45 -128t-45 -128zM604 211
q-3 2 -8 7q55 66 55 153q0 89 -55 153l8 7q57 -68 57 -160t-57 -160zM649 171q-1 1 -3.5 3t-3.5 3q69 85 69 194q0 110 -70 193l8 7q72 -86 72 -200t-72 -200zM706 120q-3 3 -8 7q88 106 88 244t-88 244l8 7q90 -108 90 -251q0 -142 -90 -251zM183 170q-72 88 -72 201
t71 200q1 -1 3.5 -3t4.5 -4q-69 -83 -69 -193q0 -111 69 -194zM334 306q-21 29 -21 65t21 65q3 -2 8 -7q-19 -25 -19 -58q0 -32 19 -57zM364 333q-12 17 -12 38t12 38q1 -1 2 -2.5t2.5 -2.5t2.5 -2q-9 -16 -9 -31t9 -31zM395 403l-5 6q10 9 26 9t26 -9l-5 -6q-11 7 -21 7
q-13 0 -21 -7zM384 416l-7 7q17 14 39 14q21 0 38 -14q-4 -4 -6 -7q-14 12 -32 12q-17 0 -32 -12zM371 430l-7 8q22 19 52 19t52 -19l-7 -8q-19 17 -45 17t-45 -17zM295 516l-7 8q54 48 128 48t128 -49l-2 -1l-2 -4l-2 -2q-52 46 -122 46t-121 -46zM416 240q-48 0 -83 30
l7 8q35 -28 76 -28q42 0 75 28l7 -7q-36 -31 -82 -31zM416 285q-29 0 -53 19l7 8q22 -17 46 -17q25 0 45 17l7 -8q-22 -19 -52 -19zM416 305q-21 0 -40 14l7 7q17 -12 33 -12q17 0 32 12l7 -7q-17 -14 -39 -14zM341 464l-7 7q36 31 82 31q47 0 82 -30l-7 -8q-33 28 -75 28
t-75 -28zM320 487l-7 8q44 38 103 38q58 0 102 -39l-6 -7q-41 36 -96 36q-53 0 -96 -36zM610 597q-81 75 -194 75q-110 0 -194 -74l-7 7q87 77 201 77t201 -77zM172 654l-7 8q107 97 251 97t252 -97l-7 -8q-105 95 -245 95q-139 0 -244 -95zM516 290l-7 7q25 33 25 74
t-26 75l8 7q28 -36 28 -82q0 -47 -28 -81z" />
    <glyph glyph-name="registered" unicode="&#xae;" horiz-adv-x="667" 
d="M333 -10q-85 0 -143.5 27.5t-90.5 80t-45.5 118.5t-13.5 154q0 89 13.5 155t45.5 119t90.5 80.5t143.5 27.5q68 0 119.5 -18.5t84.5 -51t53.5 -82t29 -105t8.5 -125.5q0 -88 -14 -154t-46 -118.5t-91 -80t-144 -27.5zM333 30q73 0 123.5 24.5t78 71.5t39 106t11.5 138
q0 80 -11.5 139t-39 106.5t-78 72t-123.5 24.5q-140 0 -195.5 -88.5t-55.5 -253.5q0 -79 11.5 -138t39 -106t77.5 -71.5t123 -24.5zM429 130l-88 194h-87v-194h-62v485h162q78 0 110 -34t32 -109q0 -64 -21.5 -99t-72.5 -45l90 -198h-63zM254 375h98q46 0 65 21t19 72
t-19 72t-65 21h-98v-186z" />
    <glyph glyph-name="macron" unicode="&#xaf;" 
d="M81 613v78h308v-78h-308z" />
    <glyph glyph-name="macron" unicode="&#x2c9;" 
d="M81 613v78h308v-78h-308z" />
    <glyph glyph-name="degree" unicode="&#xb0;" horiz-adv-x="457" 
d="M229 277q-104 0 -143 62t-39 174q0 53 7.5 92.5t27 73.5t56.5 52t91 18t91 -18t56.5 -52t27 -73.5t7.5 -92.5q0 -112 -39 -174t-143 -62zM229 350q62 0 83 41t21 120t-21 119.5t-83 40.5q-61 0 -82.5 -41t-21.5 -119q0 -79 21.5 -120t82.5 -41z" />
    <glyph glyph-name="plusminus" unicode="&#xb1;" horiz-adv-x="840" 
d="M375 0v473h-176v-473h-94v473h-87v82h87v62q0 154 158 154h47v-83h-39q-43 0 -57.5 -19.5t-14.5 -60.5v-53h176v62q0 154 159 154h46v-83h-39q-43 0 -57.5 -19.5t-14.5 -60.5v-53h111v-82h-111v-473h-94zM804 0q-4 -1 -32 -1q-72 0 -99.5 28.5t-27.5 102.5v639h94v-628
q0 -37 10 -48t55 -11v-82z" />
    <glyph glyph-name="twosuperior" unicode="&#xb2;" horiz-adv-x="378" 
d="M51 281v54l102 127q60 74 74.5 99t14.5 55q0 34 -15 47.5t-50 13.5q-51 0 -93 -22l-32 63q56 28 136 28q67 0 97.5 -29t30.5 -90q0 -49 -18.5 -84.5t-88.5 -121.5l-60 -77h175v-63h-273z" />
    <glyph glyph-name="threesuperior" unicode="&#xb3;" horiz-adv-x="381" 
d="M178 276q-80 0 -133 32l33 58q42 -24 94 -24q45 0 62 17.5t17 64.5q0 39 -16 54.5t-68 15.5h-58v65h60q41 0 56.5 14.5t15.5 44.5q0 37 -15 48.5t-53 11.5q-48 0 -91 -20l-31 59q58 29 133 29q67 0 99 -23.5t32 -88.5q0 -80 -46 -100q35 -12 45.5 -38t10.5 -79
q0 -77 -35.5 -109t-111.5 -32z" />
    <glyph glyph-name="acute" unicode="&#xb4;" 
d="M169 613l112 162h104l-133 -162h-83z" />
    <glyph glyph-name="mu" unicode="&#xb5;" horiz-adv-x="511" 
d="M56 -158v713h94v-344q0 -75 20 -105t89 -30t88 30t19 105v344h92v-349q0 -116 -39 -165t-157 -49q-86 0 -112 40v-190h-94z" />
    <glyph glyph-name="mu" unicode="&#x3bc;" horiz-adv-x="511" 
d="M56 -158v713h94v-344q0 -75 20 -105t89 -30t88 30t19 105v344h92v-349q0 -116 -39 -165t-157 -49q-86 0 -112 40v-190h-94z" />
    <glyph glyph-name="paragraph" unicode="&#xb6;" horiz-adv-x="517" 
d="M194 0v292q-87 14 -122.5 68t-35.5 154q0 119 51.5 173t180.5 54h186v-741h-91v286h-78v-286h-91zM266 368h97v288h-97q-74 0 -105 -32.5t-31 -111.5t31 -111.5t105 -32.5z" />
    <glyph glyph-name="periodcentered" unicode="&#xb7;" horiz-adv-x="216" 
d="M51 279v128h114v-128h-114z" />
    <glyph glyph-name="periodcentered" unicode="&#x2219;" horiz-adv-x="216" 
d="M51 279v128h114v-128h-114z" />
    <glyph glyph-name="cedilla" unicode="&#xb8;" 
d="M250 -220q-53 0 -100 21l21 48q39 -14 73 -14q33 0 45.5 10.5t12.5 34.5q0 26 -16 33.5t-58 5.5l-22 16l14 72h56l-9 -51q100 7 100 -81q0 -49 -27 -72t-90 -23z" />
    <glyph glyph-name="onesuperior" unicode="&#xb9;" horiz-adv-x="272" 
d="M111 281v391h-68v69h146v-460h-78z" />
    <glyph glyph-name="ordmasculine" unicode="&#xba;" horiz-adv-x="452" 
d="M226 284q-55 0 -91.5 17t-55.5 50t-26 72t-7 93q0 55 7 93.5t25.5 72t55.5 50.5t92 17t92.5 -17t56 -51t25.5 -72.5t7 -92.5q0 -114 -37.5 -173t-143.5 -59zM226 353q63 0 82 40t19 122q0 31 -1.5 52t-7.5 43.5t-16.5 35.5t-29.5 21.5t-46 8.5q-33 0 -54.5 -11.5
t-31.5 -35.5t-13 -49.5t-3 -64.5q0 -82 19.5 -122t82.5 -40zM60 143v70h332v-70h-332z" />
    <glyph glyph-name="guillemotright" unicode="&#xbb;" horiz-adv-x="575" 
d="M87 0l115 278l-115 277h83l121 -277l-121 -278h-83zM303 0l115 278l-115 277h84l119 -277l-119 -278h-84z" />
    <glyph glyph-name="onequarter" unicode="&#xbc;" horiz-adv-x="759" 
d="M158 0l324 741h86l-325 -741h-85zM406 93v59l160 308h79l-159 -305h107l14 123h56v-123h61v-62h-61v-93h-71v93h-186zM119 281v391h-68v69h147v-460h-79z" />
    <glyph glyph-name="onehalf" unicode="&#xbd;" horiz-adv-x="808" 
d="M158 0l324 741h86l-325 -741h-85zM119 281v391h-68v69h147v-460h-79zM479 0v54l103 125q60 75 74.5 100t14.5 56q0 34 -15 47t-50 13q-49 0 -93 -21l-32 62q56 30 136 30q67 0 98 -30t31 -90q0 -48 -19.5 -84.5t-88.5 -122.5l-61 -76h174v-63h-272z" />
    <glyph glyph-name="threequarters" unicode="&#xbe;" horiz-adv-x="833" 
d="M178 276q-80 0 -133 32l33 58q42 -24 94 -24q45 0 62 17.5t17 64.5q0 39 -16 54.5t-68 15.5h-58v65h60q41 0 56.5 14.5t15.5 44.5q0 37 -15 48.5t-53 11.5q-48 0 -91 -20l-31 59q58 29 133 29q67 0 99 -23.5t32 -88.5q0 -80 -46 -100q35 -12 45.5 -38t10.5 -79
q0 -77 -35.5 -109t-111.5 -32zM230 0l326 741h85l-326 -741h-85zM480 93v59l161 308h79l-161 -305h108l14 123h56v-123h61v-62h-61v-93h-71v93h-186z" />
    <glyph glyph-name="questiondown" unicode="&#xbf;" horiz-adv-x="535" 
d="M268 -8q-106 0 -148.5 44t-42.5 124q0 62 21 99.5t69 86.5q60 60 72.5 88.5t10.5 102.5h92q1 -86 -14.5 -123.5t-82.5 -104.5q-43 -44 -58.5 -70t-15.5 -63q0 -47 24 -72t88 -25q78 0 150 37l42 -79q-88 -45 -207 -45zM240 627v114h112v-114h-112z" />
    <glyph glyph-name="Agrave" unicode="&#xc0;" horiz-adv-x="598" 
d="M20 0l228 746h102l228 -746h-98l-46 154h-274l-44 -154h-96zM186 242h223l-111 368zM281 783l-135 162h107l111 -162h-83z" />
    <glyph glyph-name="Aacute" unicode="&#xc1;" horiz-adv-x="598" 
d="M20 0l228 746h102l228 -746h-98l-46 154h-274l-44 -154h-96zM186 242h223l-111 368zM231 783l112 162h104l-133 -162h-83z" />
    <glyph glyph-name="Acircumflex" unicode="&#xc2;" horiz-adv-x="598" 
d="M20 0l228 746h102l228 -746h-98l-46 154h-274l-44 -154h-96zM186 242h223l-111 368zM142 783l112 162h89l111 -162h-78l-79 96l-79 -96h-76z" />
    <glyph glyph-name="Atilde" unicode="&#xc3;" horiz-adv-x="598" 
d="M20 0l228 746h102l228 -746h-98l-46 154h-274l-44 -154h-96zM186 242h223l-111 368zM186 779l-62 35q42 83 111 83q27 0 64.5 -20.5t51.5 -20.5q27 0 57 46l61 -35q-41 -86 -110 -86q-27 0 -65 20t-52 20q-29 0 -56 -42z" />
    <glyph glyph-name="Adieresis" unicode="&#xc4;" horiz-adv-x="598" 
d="M20 0l228 746h102l228 -746h-98l-46 154h-274l-44 -154h-96zM186 242h223l-111 368zM167 783v105h84v-105h-84zM344 783v105h85v-105h-85z" />
    <glyph glyph-name="Aring" unicode="&#xc5;" horiz-adv-x="598" 
d="M20 0l217 711q-44 27 -44 102q0 118 105 118q54 0 79.5 -32t25.5 -86q0 -72 -43 -101l218 -712h-98l-46 154h-274l-44 -154h-96zM186 242h223l-111 368zM298 746q53 0 53 67q0 68 -53 68q-54 0 -54 -68q0 -64 48 -67h6z" />
    <glyph glyph-name="AE" unicode="&#xc6;" horiz-adv-x="874" 
d="M15 0l357 741h455v-89h-312v-226h296v-87h-296v-252h315v-87h-410v158h-234l-76 -158h-95zM225 241h195v404z" />
    <glyph glyph-name="Ccedilla" unicode="&#xc7;" horiz-adv-x="521" 
d="M273 -220q-53 0 -100 21l21 48q39 -14 73 -14q33 0 45.5 10.5t12.5 34.5q0 26 -16 33.5t-58 5.5l-22 16l12 62q-61 10 -102.5 39.5t-64 79.5t-32 110.5t-9.5 143.5q0 92 11 156t40.5 117.5t85.5 79.5t140 26q111 0 180 -47l-51 -80q-54 33 -132 33q-101 0 -138.5 -66.5
t-37.5 -220.5t37.5 -221.5t139.5 -67.5q80 0 143 40l48 -75q-82 -52 -196 -52h-7l-6 -36q100 7 100 -81q0 -49 -27 -72t-90 -23z" />
    <glyph glyph-name="Egrave" unicode="&#xc8;" horiz-adv-x="519" 
d="M65 0v741h407v-89h-312v-225h296v-88h-296v-252h315v-87h-410zM242 783l-135 162h107l111 -162h-83z" />
    <glyph glyph-name="Eacute" unicode="&#xc9;" horiz-adv-x="519" 
d="M192 783l112 162h104l-133 -162h-83zM65 0v741h407v-89h-312v-225h296v-88h-296v-252h315v-87h-410z" />
    <glyph glyph-name="Ecircumflex" unicode="&#xca;" horiz-adv-x="519" 
d="M103 783l112 162h89l111 -162h-78l-79 96l-79 -96h-76zM65 0v741h407v-89h-312v-225h296v-88h-296v-252h315v-87h-410z" />
    <glyph glyph-name="Edieresis" unicode="&#xcb;" horiz-adv-x="519" 
d="M128 783v105h84v-105h-84zM305 783v105h85v-105h-85zM65 0v741h407v-89h-312v-225h296v-88h-296v-252h315v-87h-410z" />
    <glyph glyph-name="Igrave" unicode="&#xcc;" horiz-adv-x="240" 
d="M83 783l-113 163h104l90 -163h-81zM72 0v741h97v-741h-97z" />
    <glyph glyph-name="Iacute" unicode="&#xcd;" horiz-adv-x="240" 
d="M75 783l90 163h104l-113 -163h-81zM72 0v741h97v-741h-97z" />
    <glyph glyph-name="Icircumflex" unicode="&#xce;" horiz-adv-x="240" 
d="M-33 783l108 163h89l109 -163h-77l-77 98l-76 -98h-76zM72 0v741h97v-741h-97z" />
    <glyph glyph-name="Idieresis" unicode="&#xcf;" horiz-adv-x="240" 
d="M72 0v741h97v-741h-97zM-9 783v105h84v-105h-84zM168 783v105h85v-105h-85z" />
    <glyph glyph-name="Eth" unicode="&#xd0;" horiz-adv-x="600" 
d="M1 341v80h64v320h210q87 0 144 -22t89.5 -70t45.5 -114t13 -164q0 -100 -12.5 -166t-45.5 -114t-91 -69.5t-147 -21.5h-206v341h-64zM162 85h116q114 0 152.5 65t38.5 220q0 153 -38 217.5t-151 64.5h-118v-231h123v-80h-123v-256z" />
    <glyph glyph-name="Ntilde" unicode="&#xd1;" horiz-adv-x="627" 
d="M65 0v741h105l300 -548v548h93v-741h-90l-316 573v-573h-92zM201 779l-62 35q42 83 111 83q27 0 64.5 -20.5t51.5 -20.5q27 0 57 46l61 -35q-41 -86 -110 -86q-27 0 -65 20t-52 20q-29 0 -56 -42z" />
    <glyph glyph-name="Ograve" unicode="&#xd2;" horiz-adv-x="628" 
d="M315 -8q-73 0 -125.5 20.5t-82 52.5t-47 84t-22.5 102t-5 119t5 119t22.5 102t47 84.5t82 53t125.5 20.5q72 0 124.5 -20.5t82 -53t46.5 -84.5t22 -102t5 -119t-5 -119t-22 -102t-46.5 -84t-82 -52.5t-124.5 -20.5zM315 79q49 0 83 15t53.5 38t30 62.5t13.5 78t3 94.5
t-3 94.5t-14 78t-30.5 63t-53.5 38.5t-82 15q-49 0 -83.5 -15t-53.5 -38t-30 -63t-14 -78t-3 -95q0 -56 3 -94t14 -78t30 -63t53.5 -38t83.5 -15zM297 783l-135 162h107l111 -162h-83z" />
    <glyph glyph-name="Oacute" unicode="&#xd3;" horiz-adv-x="628" 
d="M247 783l112 162h104l-133 -162h-83zM315 -8q-73 0 -125.5 20.5t-82 52.5t-47 84t-22.5 102t-5 119t5 119t22.5 102t47 84.5t82 53t125.5 20.5q72 0 124.5 -20.5t82 -53t46.5 -84.5t22 -102t5 -119t-5 -119t-22 -102t-46.5 -84t-82 -52.5t-124.5 -20.5zM315 79
q49 0 83 15t53.5 38t30 62.5t13.5 78t3 94.5t-3 94.5t-14 78t-30.5 63t-53.5 38.5t-82 15q-49 0 -83.5 -15t-53.5 -38t-30 -63t-14 -78t-3 -95q0 -56 3 -94t14 -78t30 -63t53.5 -38t83.5 -15z" />
    <glyph glyph-name="Ocircumflex" unicode="&#xd4;" horiz-adv-x="628" 
d="M158 783l112 162h89l111 -162h-78l-79 96l-79 -96h-76zM315 -8q-73 0 -125.5 20.5t-82 52.5t-47 84t-22.5 102t-5 119t5 119t22.5 102t47 84.5t82 53t125.5 20.5q72 0 124.5 -20.5t82 -53t46.5 -84.5t22 -102t5 -119t-5 -119t-22 -102t-46.5 -84t-82 -52.5t-124.5 -20.5z
M315 79q49 0 83 15t53.5 38t30 62.5t13.5 78t3 94.5t-3 94.5t-14 78t-30.5 63t-53.5 38.5t-82 15q-49 0 -83.5 -15t-53.5 -38t-30 -63t-14 -78t-3 -95q0 -56 3 -94t14 -78t30 -63t53.5 -38t83.5 -15z" />
    <glyph glyph-name="Otilde" unicode="&#xd5;" horiz-adv-x="628" 
d="M315 -8q-73 0 -125.5 20.5t-82 52.5t-47 84t-22.5 102t-5 119t5 119t22.5 102t47 84.5t82 53t125.5 20.5q72 0 124.5 -20.5t82 -53t46.5 -84.5t22 -102t5 -119t-5 -119t-22 -102t-46.5 -84t-82 -52.5t-124.5 -20.5zM315 79q49 0 83 15t53.5 38t30 62.5t13.5 78t3 94.5
t-3 94.5t-14 78t-30.5 63t-53.5 38.5t-82 15q-49 0 -83.5 -15t-53.5 -38t-30 -63t-14 -78t-3 -95q0 -56 3 -94t14 -78t30 -63t53.5 -38t83.5 -15zM202 779l-62 35q42 83 111 83q27 0 64.5 -20.5t51.5 -20.5q27 0 57 46l61 -35q-41 -86 -110 -86q-27 0 -65 20t-52 20
q-29 0 -56 -42z" />
    <glyph glyph-name="Odieresis" unicode="&#xd6;" horiz-adv-x="628" 
d="M183 783v105h84v-105h-84zM360 783v105h85v-105h-85zM315 -8q-73 0 -125.5 20.5t-82 52.5t-47 84t-22.5 102t-5 119t5 119t22.5 102t47 84.5t82 53t125.5 20.5q72 0 124.5 -20.5t82 -53t46.5 -84.5t22 -102t5 -119t-5 -119t-22 -102t-46.5 -84t-82 -52.5t-124.5 -20.5z
M315 79q49 0 83 15t53.5 38t30 62.5t13.5 78t3 94.5t-3 94.5t-14 78t-30.5 63t-53.5 38.5t-82 15q-49 0 -83.5 -15t-53.5 -38t-30 -63t-14 -78t-3 -95q0 -56 3 -94t14 -78t30 -63t53.5 -38t83.5 -15z" />
    <glyph glyph-name="multiply" unicode="&#xd7;" horiz-adv-x="566" 
d="M158 168l-57 59l124 125l-124 124l57 59l125 -125l126 125l57 -59l-126 -124l125 -124l-56 -59l-126 124z" />
    <glyph glyph-name="Oslash" unicode="&#xd8;" horiz-adv-x="628" 
d="M96 -41l37 83q-59 45 -79.5 126t-20.5 202q0 69 5 119t22.5 102t47 84.5t82 53t125.5 20.5q63 0 109 -15l25 49h85l-39 -84q59 -45 79.5 -126.5t20.5 -202.5q0 -69 -5 -119t-22 -102t-46.5 -84t-82 -52.5t-124.5 -20.5q-61 0 -108 14l-21 -47h-90zM315 74q49 0 83.5 15
t54 38.5t30.5 64t14 79t3 96.5q0 177 -48 238l-215 -520q33 -11 78 -11zM128 367q0 -88 9.5 -145t37.5 -93l212 520q-31 11 -72 11q-50 0 -85 -15.5t-54.5 -39t-30.5 -64t-14 -79t-3 -95.5z" />
    <glyph glyph-name="Ugrave" unicode="&#xd9;" horiz-adv-x="625" 
d="M313 -10q-140 0 -196.5 63.5t-56.5 193.5v494h97v-487q0 -92 33.5 -133.5t123.5 -41.5t124 41.5t34 133.5v487h93v-494q0 -131 -55.5 -194t-196.5 -63zM294 783l-135 162h107l111 -162h-83z" />
    <glyph glyph-name="Uacute" unicode="&#xda;" horiz-adv-x="625" 
d="M244 783l112 162h104l-133 -162h-83zM313 -10q-140 0 -196.5 63.5t-56.5 193.5v494h97v-487q0 -92 33.5 -133.5t123.5 -41.5t124 41.5t34 133.5v487h93v-494q0 -131 -55.5 -194t-196.5 -63z" />
    <glyph glyph-name="Ucircumflex" unicode="&#xdb;" horiz-adv-x="625" 
d="M155 783l112 162h89l111 -162h-78l-79 96l-79 -96h-76zM313 -10q-140 0 -196.5 63.5t-56.5 193.5v494h97v-487q0 -92 33.5 -133.5t123.5 -41.5t124 41.5t34 133.5v487h93v-494q0 -131 -55.5 -194t-196.5 -63z" />
    <glyph glyph-name="Udieresis" unicode="&#xdc;" horiz-adv-x="625" 
d="M180 783v105h84v-105h-84zM357 783v105h85v-105h-85zM313 -10q-140 0 -196.5 63.5t-56.5 193.5v494h97v-487q0 -92 33.5 -133.5t123.5 -41.5t124 41.5t34 133.5v487h93v-494q0 -131 -55.5 -194t-196.5 -63z" />
    <glyph glyph-name="Yacute" unicode="&#xdd;" horiz-adv-x="570" 
d="M237 0v267l-231 474h104l176 -369l178 369h99l-230 -474v-267h-96zM217 783l112 162h104l-133 -162h-83z" />
    <glyph glyph-name="Thorn" unicode="&#xde;" horiz-adv-x="558" 
d="M65 0v741h96v-123h156q119 0 169.5 -54.5t50.5 -171.5t-50.5 -173.5t-171.5 -56.5h-154v-162h-96zM161 245h152q69 0 99 33t30 110q0 79 -30 112t-99 33h-152v-288z" />
    <glyph glyph-name="germandbls" unicode="&#xdf;" horiz-adv-x="534" 
d="M56 0v578q0 96 48.5 146.5t157.5 50.5q107 0 153.5 -45.5t46.5 -147.5q0 -79 -16 -120t-56 -58q64 -14 87.5 -59t23.5 -136q0 -116 -51 -162.5t-185 -46.5h-49v85h49q82 0 112.5 30.5t30.5 105.5q0 73 -30 103t-111 30h-21v80h21q56 0 80.5 28.5t24.5 96.5t-25.5 97
t-84.5 29t-86.5 -28t-27.5 -87v-570h-92z" />
    <glyph glyph-name="agrave" unicode="&#xe0;" horiz-adv-x="510" 
d="M198 -6q-89 0 -127 44t-38 129q0 116 67.5 159.5t217.5 43.5h23q-2 59 -21.5 84.5t-76.5 25.5q-77 0 -137 -30l-39 77q76 39 185 39q107 0 144 -44.5t37 -151.5v-234q0 -34 7 -44t36 -10v-82q-8 -1 -26 -1q-46 0 -67 11.5t-28 41.5q-43 -58 -157 -58zM217 72
q124 0 124 143v78h-22q-111 0 -154 -22.5t-43 -94.5q0 -58 23.5 -81t71.5 -23zM237 613l-135 162h107l111 -162h-83z" />
    <glyph glyph-name="aacute" unicode="&#xe1;" horiz-adv-x="510" 
d="M198 -6q-89 0 -127 44t-38 129q0 116 67.5 159.5t217.5 43.5h23q-2 59 -21.5 84.5t-76.5 25.5q-77 0 -137 -30l-39 77q76 39 185 39q107 0 144 -44.5t37 -151.5v-234q0 -34 7 -44t36 -10v-82q-8 -1 -26 -1q-46 0 -67 11.5t-28 41.5q-43 -58 -157 -58zM217 72
q124 0 124 143v78h-22q-111 0 -154 -22.5t-43 -94.5q0 -58 23.5 -81t71.5 -23zM187 613l112 162h104l-133 -162h-83z" />
    <glyph glyph-name="acircumflex" unicode="&#xe2;" horiz-adv-x="510" 
d="M198 -6q-89 0 -127 44t-38 129q0 116 67.5 159.5t217.5 43.5h23q-2 59 -21.5 84.5t-76.5 25.5q-77 0 -137 -30l-39 77q76 39 185 39q107 0 144 -44.5t37 -151.5v-234q0 -34 7 -44t36 -10v-82q-8 -1 -26 -1q-46 0 -67 11.5t-28 41.5q-43 -58 -157 -58zM217 72
q124 0 124 143v78h-22q-111 0 -154 -22.5t-43 -94.5q0 -58 23.5 -81t71.5 -23zM98 613l112 162h89l111 -162h-78l-79 96l-79 -96h-76z" />
    <glyph glyph-name="atilde" unicode="&#xe3;" horiz-adv-x="510" 
d="M198 -6q-89 0 -127 44t-38 129q0 116 67.5 159.5t217.5 43.5h23q-2 59 -21.5 84.5t-76.5 25.5q-77 0 -137 -30l-39 77q76 39 185 39q107 0 144 -44.5t37 -151.5v-234q0 -34 7 -44t36 -10v-82q-8 -1 -26 -1q-46 0 -67 11.5t-28 41.5q-43 -58 -157 -58zM217 72
q124 0 124 143v78h-22q-111 0 -154 -22.5t-43 -94.5q0 -58 23.5 -81t71.5 -23zM142 609l-62 35q42 83 111 83q27 0 64.5 -20.5t51.5 -20.5q27 0 57 46l61 -35q-41 -86 -110 -86q-27 0 -65 20t-52 20q-29 0 -56 -42z" />
    <glyph glyph-name="adieresis" unicode="&#xe4;" horiz-adv-x="510" 
d="M198 -6q-89 0 -127 44t-38 129q0 116 67.5 159.5t217.5 43.5h23q-2 59 -21.5 84.5t-76.5 25.5q-77 0 -137 -30l-39 77q76 39 185 39q107 0 144 -44.5t37 -151.5v-234q0 -34 7 -44t36 -10v-82q-8 -1 -26 -1q-46 0 -67 11.5t-28 41.5q-43 -58 -157 -58zM217 72
q124 0 124 143v78h-22q-111 0 -154 -22.5t-43 -94.5q0 -58 23.5 -81t71.5 -23zM123 613v105h84v-105h-84zM300 613v105h85v-105h-85z" />
    <glyph glyph-name="aring" unicode="&#xe5;" horiz-adv-x="510" 
d="M198 -6q-89 0 -127 44t-38 129q0 116 67.5 159.5t217.5 43.5h23q-2 59 -21.5 84.5t-76.5 25.5q-77 0 -137 -30l-39 77q76 39 185 39q107 0 144 -44.5t37 -151.5v-234q0 -34 7 -44t36 -10v-82q-8 -1 -26 -1q-46 0 -67 11.5t-28 41.5q-43 -58 -157 -58zM217 72
q124 0 124 143v78h-22q-111 0 -154 -22.5t-43 -94.5q0 -58 23.5 -81t71.5 -23zM254 606q-105 0 -105 117q0 118 105 118q54 0 79.5 -32t25.5 -86q0 -53 -25.5 -85t-79.5 -32zM254 656q53 0 53 67q0 68 -53 68q-54 0 -54 -68q0 -67 54 -67z" />
    <glyph glyph-name="ae" unicode="&#xe6;" horiz-adv-x="784" 
d="M557 -7q-133 0 -179 89q-23 -47 -68 -67.5t-120 -20.5q-157 0 -157 173q0 116 67.5 160t217.5 44h23q-2 59 -22 84t-76 25q-77 0 -137 -30l-39 77q76 39 185 39q117 0 149 -62q51 61 157 61q58 0 96.5 -16.5t57 -46.5t28 -71t9.5 -90.5v-104.5h-319q3 -85 30.5 -123.5
t101.5 -38.5q70 0 140 32l36 -72q-75 -41 -181 -41zM217 72q124 0 124 143v78h-22q-111 0 -154 -22.5t-43 -94.5q0 -58 23.5 -81t71.5 -23zM556 482q-70 0 -96.5 -39.5t-29.5 -123.5h234q0 38 -1.5 56.5t-7 43t-16.5 35.5t-31.5 19.5t-51.5 8.5z" />
    <glyph glyph-name="ccedilla" unicode="&#xe7;" horiz-adv-x="420" 
d="M225 -220q-53 0 -100 21l21 48q39 -14 73 -14q33 0 45.5 10.5t12.5 34.5q0 26 -16 33.5t-58 5.5l-22 16l12 62q-47 8 -79 31t-49 61t-23.5 83t-6.5 107q0 56 5 97.5t19.5 78.5t39 60t63.5 36.5t93 13.5q80 0 136 -28l-40 -81q-42 21 -92 21q-74 0 -101.5 -47.5
t-27.5 -152.5q0 -106 27 -154.5t103 -48.5q47 0 103 26l36 -72q-72 -36 -149 -36h-2l-6 -36q100 7 100 -81q0 -49 -27 -72t-90 -23z" />
    <glyph glyph-name="egrave" unicode="&#xe8;" horiz-adv-x="478" 
d="M251 -7q-67 0 -110.5 19t-66 59t-31 88.5t-8.5 119.5q0 69 9.5 118t33 88.5t67 59.5t108.5 20q32 0 57 -4.5t44 -13t33.5 -21.5t24 -30t16 -37.5t10 -45t5 -52.5t1.5 -59v-66h-320q3 -85 30.5 -123.5t101.5 -38.5q71 0 141 32l36 -72q-77 -41 -182 -41zM251 482
q-70 0 -96.5 -39.5t-29.5 -123.5h232q-1 39 -2 56.5t-6.5 43t-16 36t-31 19t-50.5 8.5zM222 613l-135 162h107l111 -162h-83z" />
    <glyph glyph-name="eacute" unicode="&#xe9;" horiz-adv-x="478" 
d="M172 613l112 162h104l-133 -162h-83zM251 -7q-67 0 -110.5 19t-66 59t-31 88.5t-8.5 119.5q0 69 9.5 118t33 88.5t67 59.5t108.5 20q32 0 57 -4.5t44 -13t33.5 -21.5t24 -30t16 -37.5t10 -45t5 -52.5t1.5 -59v-66h-320q3 -85 30.5 -123.5t101.5 -38.5q71 0 141 32l36 -72
q-77 -41 -182 -41zM251 482q-70 0 -96.5 -39.5t-29.5 -123.5h232q-1 39 -2 56.5t-6.5 43t-16 36t-31 19t-50.5 8.5z" />
    <glyph glyph-name="ecircumflex" unicode="&#xea;" horiz-adv-x="478" 
d="M83 613l112 162h89l111 -162h-78l-79 96l-79 -96h-76zM251 -7q-67 0 -110.5 19t-66 59t-31 88.5t-8.5 119.5q0 69 9.5 118t33 88.5t67 59.5t108.5 20q32 0 57 -4.5t44 -13t33.5 -21.5t24 -30t16 -37.5t10 -45t5 -52.5t1.5 -59v-66h-320q3 -85 30.5 -123.5t101.5 -38.5
q71 0 141 32l36 -72q-77 -41 -182 -41zM251 482q-70 0 -96.5 -39.5t-29.5 -123.5h232q-1 39 -2 56.5t-6.5 43t-16 36t-31 19t-50.5 8.5z" />
    <glyph glyph-name="edieresis" unicode="&#xeb;" horiz-adv-x="478" 
d="M108 613v105h84v-105h-84zM285 613v105h85v-105h-85zM251 -7q-67 0 -110.5 19t-66 59t-31 88.5t-8.5 119.5q0 69 9.5 118t33 88.5t67 59.5t108.5 20q32 0 57 -4.5t44 -13t33.5 -21.5t24 -30t16 -37.5t10 -45t5 -52.5t1.5 -59v-66h-320q3 -85 30.5 -123.5t101.5 -38.5
q71 0 141 32l36 -72q-77 -41 -182 -41zM251 482q-70 0 -96.5 -39.5t-29.5 -123.5h232q-1 39 -2 56.5t-6.5 43t-16 36t-31 19t-50.5 8.5z" />
    <glyph glyph-name="igrave" unicode="&#xec;" horiz-adv-x="213" 
d="M71 613l-94 162h103l72 -162h-81zM59 0v555h94v-555h-94z" />
    <glyph glyph-name="iacute" unicode="&#xed;" horiz-adv-x="213" 
d="M61 613l70 162h105l-94 -162h-81zM59 0v555h94v-555h-94z" />
    <glyph glyph-name="icircumflex" unicode="&#xee;" horiz-adv-x="213" 
d="M-33 613l95 162h89l96 -162h-79l-63 96l-62 -96h-76zM59 0v555h94v-555h-94z" />
    <glyph glyph-name="idieresis" unicode="&#xef;" horiz-adv-x="213" 
d="M-9 613v105h77v-105h-77zM145 613v105h76v-105h-76zM59 0v555h94v-555h-94z" />
    <glyph glyph-name="eth" unicode="&#xf0;" horiz-adv-x="515" 
d="M225 583v70l70 18q-24 34 -55 61l70 47q45 -35 77 -84l95 25v-70l-62 -16q59 -132 59 -341q0 -57 -4 -97.5t-17.5 -81.5t-37 -66t-64.5 -40.5t-99 -15.5q-125 0 -173.5 71.5t-48.5 206.5q0 61 8.5 106t29 84.5t61.5 60.5t101 21q97 0 139 -47q-15 61 -42 116zM257 74
q34 0 58 10.5t37.5 27t21 43.5t9.5 52t2 61t-2 61t-9.5 52t-21 43t-37.5 26.5t-58 10.5q-41 0 -68 -14.5t-39.5 -43.5t-16.5 -59.5t-4 -75.5t4 -75.5t16.5 -60t39.5 -44t68 -14.5z" />
    <glyph glyph-name="ntilde" unicode="&#xf1;" horiz-adv-x="519" 
d="M56 0v550l75 6l8 -55q39 64 167 64q52 0 85 -14t49 -43.5t21.5 -62.5t5.5 -84v-361h-94v340q0 75 -18 105.5t-81 30.5q-76 0 -100 -42t-24 -142v-292h-94zM146 609l-62 35q42 83 111 83q27 0 64.5 -20.5t51.5 -20.5q27 0 57 46l61 -35q-41 -86 -110 -86q-27 0 -65 20
t-52 20q-29 0 -56 -42z" />
    <glyph glyph-name="ograve" unicode="&#xf2;" horiz-adv-x="514" 
d="M257 -8q-68 0 -113 20.5t-68 61.5t-32 89t-9 116q0 67 8.5 114.5t31.5 89t68.5 62t113.5 20.5q55 0 95.5 -14.5t64.5 -39t38 -62.5t19 -77.5t5 -92.5q0 -69 -8.5 -116.5t-31.5 -88.5t-68 -61.5t-114 -20.5zM257 74q42 0 68.5 14.5t39 44.5t16.5 61.5t4 81.5q0 39 -2 65.5
t-9.5 54.5t-21 44t-37.5 26.5t-58 10.5t-57.5 -10.5t-37 -26.5t-21.5 -44t-10 -54.5t-2 -65.5t2 -66t10 -54.5t21.5 -44t37 -27t57.5 -10.5zM238 613l-135 162h107l111 -162h-83z" />
    <glyph glyph-name="oacute" unicode="&#xf3;" horiz-adv-x="514" 
d="M188 613l112 162h104l-133 -162h-83zM257 -8q-68 0 -113 20.5t-68 61.5t-32 89t-9 116q0 67 8.5 114.5t31.5 89t68.5 62t113.5 20.5q55 0 95.5 -14.5t64.5 -39t38 -62.5t19 -77.5t5 -92.5q0 -69 -8.5 -116.5t-31.5 -88.5t-68 -61.5t-114 -20.5zM257 74q42 0 68.5 14.5
t39 44.5t16.5 61.5t4 81.5q0 39 -2 65.5t-9.5 54.5t-21 44t-37.5 26.5t-58 10.5t-57.5 -10.5t-37 -26.5t-21.5 -44t-10 -54.5t-2 -65.5t2 -66t10 -54.5t21.5 -44t37 -27t57.5 -10.5z" />
    <glyph glyph-name="ocircumflex" unicode="&#xf4;" horiz-adv-x="514" 
d="M99 613l112 162h89l111 -162h-78l-79 96l-79 -96h-76zM257 -8q-68 0 -113 20.5t-68 61.5t-32 89t-9 116q0 67 8.5 114.5t31.5 89t68.5 62t113.5 20.5q55 0 95.5 -14.5t64.5 -39t38 -62.5t19 -77.5t5 -92.5q0 -69 -8.5 -116.5t-31.5 -88.5t-68 -61.5t-114 -20.5zM257 74
q42 0 68.5 14.5t39 44.5t16.5 61.5t4 81.5q0 39 -2 65.5t-9.5 54.5t-21 44t-37.5 26.5t-58 10.5t-57.5 -10.5t-37 -26.5t-21.5 -44t-10 -54.5t-2 -65.5t2 -66t10 -54.5t21.5 -44t37 -27t57.5 -10.5z" />
    <glyph glyph-name="otilde" unicode="&#xf5;" horiz-adv-x="514" 
d="M257 -8q-68 0 -113 20.5t-68 61.5t-32 89t-9 116q0 67 8.5 114.5t31.5 89t68.5 62t113.5 20.5q55 0 95.5 -14.5t64.5 -39t38 -62.5t19 -77.5t5 -92.5q0 -69 -8.5 -116.5t-31.5 -88.5t-68 -61.5t-114 -20.5zM257 74q42 0 68.5 14.5t39 44.5t16.5 61.5t4 81.5q0 39 -2 65.5
t-9.5 54.5t-21 44t-37.5 26.5t-58 10.5t-57.5 -10.5t-37 -26.5t-21.5 -44t-10 -54.5t-2 -65.5t2 -66t10 -54.5t21.5 -44t37 -27t57.5 -10.5zM143 609l-62 35q42 83 111 83q27 0 64.5 -20.5t51.5 -20.5q27 0 57 46l61 -35q-41 -86 -110 -86q-27 0 -65 20t-52 20
q-29 0 -56 -42z" />
    <glyph glyph-name="odieresis" unicode="&#xf6;" horiz-adv-x="514" 
d="M124 613v105h84v-105h-84zM301 613v105h85v-105h-85zM257 -8q-68 0 -113 20.5t-68 61.5t-32 89t-9 116q0 67 8.5 114.5t31.5 89t68.5 62t113.5 20.5q55 0 95.5 -14.5t64.5 -39t38 -62.5t19 -77.5t5 -92.5q0 -69 -8.5 -116.5t-31.5 -88.5t-68 -61.5t-114 -20.5zM257 74
q42 0 68.5 14.5t39 44.5t16.5 61.5t4 81.5q0 39 -2 65.5t-9.5 54.5t-21 44t-37.5 26.5t-58 10.5t-57.5 -10.5t-37 -26.5t-21.5 -44t-10 -54.5t-2 -65.5t2 -66t10 -54.5t21.5 -44t37 -27t57.5 -10.5z" />
    <glyph glyph-name="divide" unicode="&#xf7;" horiz-adv-x="566" 
d="M233 125v98h100v-98h-100zM81 309v87h404v-87h-404zM233 481v98h100v-98h-100z" />
    <glyph glyph-name="oslash" unicode="&#xf8;" horiz-adv-x="514" 
d="M62 -43l42 82q-69 63 -69 240q0 67 8.5 114.5t31.5 89t68.5 62t113.5 20.5q49 0 91 -13l23 46h84l-42 -84q66 -64 66 -235q0 -69 -8.5 -116.5t-31.5 -88.5t-68 -61.5t-114 -20.5q-52 0 -89 12l-23 -47h-83zM126 276q0 -108 25 -152l162 347q-24 9 -56 9
q-42 0 -69.5 -14.5t-40 -44.5t-17 -62.5t-4.5 -82.5zM257 72q34 0 58.5 10.5t38.5 27.5t21.5 45t10 55t2.5 66q0 106 -24 149l-162 -345q24 -8 55 -8z" />
    <glyph glyph-name="ugrave" unicode="&#xf9;" horiz-adv-x="508" 
d="M254 -8q-118 0 -159.5 49.5t-41.5 164.5v349h94v-344q0 -75 19.5 -105t89.5 -30q68 0 87.5 30t19.5 105v344h92v-349q0 -116 -40 -165t-161 -49zM236 613l-135 162h107l111 -162h-83z" />
    <glyph glyph-name="uacute" unicode="&#xfa;" horiz-adv-x="508" 
d="M186 613l112 162h104l-133 -162h-83zM254 -8q-118 0 -159.5 49.5t-41.5 164.5v349h94v-344q0 -75 19.5 -105t89.5 -30q68 0 87.5 30t19.5 105v344h92v-349q0 -116 -40 -165t-161 -49z" />
    <glyph glyph-name="ucircumflex" unicode="&#xfb;" horiz-adv-x="508" 
d="M97 613l112 162h89l111 -162h-78l-79 96l-79 -96h-76zM254 -8q-118 0 -159.5 49.5t-41.5 164.5v349h94v-344q0 -75 19.5 -105t89.5 -30q68 0 87.5 30t19.5 105v344h92v-349q0 -116 -40 -165t-161 -49z" />
    <glyph glyph-name="udieresis" unicode="&#xfc;" horiz-adv-x="508" 
d="M122 613v105h84v-105h-84zM299 613v105h85v-105h-85zM254 -8q-118 0 -159.5 49.5t-41.5 164.5v349h94v-344q0 -75 19.5 -105t89.5 -30q68 0 87.5 30t19.5 105v344h92v-349q0 -116 -40 -165t-161 -49z" />
    <glyph glyph-name="yacute" unicode="&#xfd;" horiz-adv-x="448" 
d="M65 -158v77h51q22 0 32.5 8t16.5 28l12 43l-169 557h95l122 -422l122 422h92l-189 -620q-17 -55 -47 -74t-89 -19h-49zM158 613l112 162h104l-133 -162h-83z" />
    <glyph glyph-name="thorn" unicode="&#xfe;" horiz-adv-x="528" 
d="M56 -158v927h93v-267q36 63 160 63q48 0 82.5 -16t54 -40.5t30.5 -64.5t14 -77t3 -88q0 -65 -6.5 -110.5t-25 -88.5t-57.5 -65t-98 -22q-66 0 -101 14t-55 43v-208h-94zM281 75q71 0 94.5 49t23.5 151q0 50 -4 82.5t-16 62t-36 43.5t-62 14q-35 0 -59.5 -10.5
t-38.5 -26.5t-21.5 -44t-9.5 -54.5t-2 -66.5t2 -66t9.5 -54t21 -44t38.5 -26t60 -10z" />
    <glyph glyph-name="ydieresis" unicode="&#xff;" horiz-adv-x="448" 
d="M65 -158v77h51q22 0 32.5 8t16.5 28l12 43l-169 557h95l122 -422l122 422h92l-189 -620q-17 -55 -47 -74t-89 -19h-49zM94 613v105h84v-105h-84zM271 613v105h85v-105h-85z" />
    <glyph glyph-name="dotlessi" unicode="&#x131;" horiz-adv-x="213" 
d="M59 0v555h94v-555h-94z" />
    <glyph glyph-name="Lslash" unicode="&#x141;" horiz-adv-x="482" 
d="M1 302v80l64 35v324h97v-271l122 67v-80l-122 -67v-303h303v-87h-400v337z" />
    <glyph glyph-name="lslash" unicode="&#x142;" horiz-adv-x="314" 
d="M20 390v82l79 45v252h94v-197l88 51v-83l-88 -51v-348q0 -36 10.5 -47.5t55.5 -11.5v-82q-5 -1 -33 -1q-72 0 -99.5 28.5t-27.5 102.5v305z" />
    <glyph glyph-name="OE" unicode="&#x152;" horiz-adv-x="952" 
d="M508 0v60q-65 -68 -193 -68q-73 0 -125.5 20.5t-82 52.5t-47 84t-22.5 102t-5 119t5 119t22.5 102t47 84.5t82 53t125.5 20.5q127 0 193 -69v61h398v-89h-313v-226h296v-87h-296v-252h314v-87h-399zM315 79q49 0 83 15t53.5 38t30 62.5t13.5 78t3 94.5t-3 94.5t-14 78
t-30.5 63t-53.5 38.5t-82 15q-49 0 -83.5 -15t-53.5 -38t-30 -63t-14 -78t-3 -95q0 -56 3 -94t14 -78t30 -63t53.5 -38t83.5 -15z" />
    <glyph glyph-name="oe" unicode="&#x153;" horiz-adv-x="831" 
d="M257 -8q-68 0 -113 20.5t-68 61.5t-32 89t-9 116q0 67 8.5 114.5t31.5 89t68.5 62t113.5 20.5q125 0 176 -80q51 80 172 80q48 0 83 -12t55 -33.5t32.5 -51.5t15.5 -66.5t5 -78.5t0 -87h-319q3 -85 30 -123.5t101 -38.5q69 0 142 32l36 -72q-77 -41 -182 -41
q-123 0 -172 76q-50 -77 -175 -77zM257 74q42 0 68.5 14.5t39 44.5t16.5 61.5t4 81.5q0 39 -2 65.5t-9.5 54.5t-21 44t-37.5 26.5t-58 10.5t-57.5 -10.5t-37 -26.5t-21.5 -44t-10 -54.5t-2 -65.5t2 -66t10 -54.5t21.5 -44t37 -27t57.5 -10.5zM604 482q-70 0 -96.5 -39.5
t-29.5 -123.5h233q-1 38 -2 56.5t-7 43t-16.5 35.5t-31 19.5t-50.5 8.5z" />
    <glyph glyph-name="Scaron" unicode="&#x160;" horiz-adv-x="539" 
d="M224 783l-112 162h79l78 -97l78 97h77l-111 -162h-89zM270 -8q-145 0 -241 60l48 75q86 -51 191 -51q141 0 141 112q0 59 -32.5 87t-130.5 68q-101 42 -145 86.5t-44 126.5q0 91 57 142t165 51q110 0 197 -40l-41 -83q-68 32 -154 32q-129 0 -129 -99q0 -49 26.5 -73.5
t110.5 -61.5q64 -27 98.5 -45.5t64.5 -45.5t41 -60.5t11 -83.5q0 -93 -59.5 -145t-174.5 -52z" />
    <glyph glyph-name="scaron" unicode="&#x161;" horiz-adv-x="405" 
d="M160 613l-112 162h79l78 -97l78 97h77l-111 -162h-89zM200 -7q-110 0 -184 37l37 74q64 -34 147 -34q93 0 93 74q0 36 -24 56.5t-91 49.5q-77 33 -111 67.5t-34 96.5q0 151 177 151q87 0 151 -28l-37 -78q-55 24 -117 24q-84 0 -84 -67q0 -31 22.5 -50t85.5 -46
q82 -34 116 -69.5t34 -105.5q0 -76 -47 -114t-134 -38z" />
    <glyph glyph-name="Ydieresis" unicode="&#x178;" horiz-adv-x="570" 
d="M237 0v267l-231 474h104l176 -369l178 369h99l-230 -474v-267h-96zM153 783v105h84v-105h-84zM330 783v105h85v-105h-85z" />
    <glyph glyph-name="Zcaron" unicode="&#x17d;" horiz-adv-x="532" 
d="M221 783l-112 162h79l78 -97l78 97h77l-111 -162h-89zM31 0v75l343 577h-329v89h444v-80l-342 -574h351v-87h-467z" />
    <glyph glyph-name="zcaron" unicode="&#x17e;" horiz-adv-x="410" 
d="M162 613l-112 162h79l78 -97l78 97h77l-111 -162h-89zM20 0v65l246 408h-231v82h346v-65l-246 -413h255v-77h-370z" />
    <glyph glyph-name="florin" unicode="&#x192;" horiz-adv-x="447" 
d="M65 370v83h96l20 135q13 80 44 116.5t114 36.5q9 0 27.5 -0.5t22.5 -0.5v-82h-42q-21 0 -34.5 -5t-21 -18t-10.5 -24.5t-6 -32.5l-19 -125h133v-83h-146l-81 -528h-93l79 528h-83z" />
    <glyph glyph-name="circumflex" unicode="&#x2c6;" 
d="M80 613l112 162h89l111 -162h-78l-79 96l-79 -96h-76z" />
    <glyph glyph-name="caron" unicode="&#x2c7;" 
d="M192 613l-112 162h79l78 -97l78 97h77l-111 -162h-89z" />
    <glyph glyph-name="breve" unicode="&#x2d8;" 
d="M236 608q-81 0 -115 35t-44 107l69 10q7 -41 26.5 -60.5t63.5 -19.5q43 0 62 19.5t26 60.5l70 -9q-11 -73 -44.5 -108t-113.5 -35z" />
    <glyph glyph-name="dotaccent" unicode="&#x2d9;" 
d="M189 613v112h94v-112h-94z" />
    <glyph glyph-name="ring" unicode="&#x2da;" 
d="M236 606q-105 0 -105 117q0 118 105 118q54 0 79.5 -32t25.5 -86q0 -53 -25.5 -85t-79.5 -32zM236 656q53 0 53 67q0 68 -53 68q-54 0 -54 -68q0 -67 54 -67z" />
    <glyph glyph-name="ogonek" unicode="&#x2db;" horiz-adv-x="472" 
d="M250 -216q-61 0 -90.5 21t-29.5 70q0 47 29 83t65 58h73q-91 -71 -91 -127q0 -22 12 -32.5t42 -10.5h32v-62h-42z" />
    <glyph glyph-name="tilde" unicode="&#x2dc;" 
d="M124 609l-62 35q42 83 111 83q27 0 64.5 -20.5t51.5 -20.5q27 0 57 46l61 -35q-41 -86 -110 -86q-27 0 -65 20t-52 20q-29 0 -56 -42z" />
    <glyph glyph-name="hungarumlaut" unicode="&#x2dd;" 
d="M91 613l108 162h100l-133 -162h-75zM275 613l109 162h98l-132 -162h-75z" />
    <glyph glyph-name="Delta" unicode="&#x394;" horiz-adv-x="529" 
d="M18 473v82h87v62q0 154 158 154h47v-83h-39q-43 0 -57.5 -19.5t-14.5 -60.5v-53h111v-82h-111v-473h-94v473h-87zM318 -158v77h8q31 0 40 13.5t9 50.5v572h94v-575q0 -77 -28.5 -107.5t-108.5 -30.5h-14zM375 623v112h94v-112h-94z" />
    <glyph glyph-name="Delta" unicode="&#x2206;" horiz-adv-x="529" 
d="M18 473v82h87v62q0 154 158 154h47v-83h-39q-43 0 -57.5 -19.5t-14.5 -60.5v-53h111v-82h-111v-473h-94v473h-87zM318 -158v77h8q31 0 40 13.5t9 50.5v572h94v-575q0 -77 -28.5 -107.5t-108.5 -30.5h-14zM375 623v112h94v-112h-94z" />
    <glyph glyph-name="Omega" unicode="&#x3a9;" horiz-adv-x="832" 
d="M126 120q-90 108 -90 251q0 142 90 250q3 -2 7 -6q-87 -106 -87 -244t88 -244zM228 211q-57 70 -57 160t56 160q2 -1 4.5 -3.5l3.5 -3.5q-54 -67 -54 -153q0 -88 54 -153q-1 -1 -2 -2.5t-2.5 -2.5t-2.5 -2zM264 243q-45 56 -45 128t45 128q1 -1 4 -3.5t4 -3.5
q-43 -53 -43 -121t43 -121q-2 -1 -4.5 -3.5zM316 289q-28 36 -28 82q0 47 28 81l7 -7q-25 -33 -25 -74t26 -75q-2 -1 -4 -3.5t-4 -3.5zM349 320q-16 22 -16 51t16 51q2 -1 4 -3.5t4 -3.5q-14 -20 -14 -44t14 -44q-3 -2 -8 -7zM378 346q-7 12 -7 25t7 25l6 -5q-5 -10 -5 -20
t5 -20q-2 -2 -6 -5zM416 60q-116 0 -201 77l7 7q84 -74 194 -74q111 0 193 74q1 -2 3.5 -4t3.5 -4q-86 -76 -200 -76zM416 324q-15 0 -27 9l6 6q10 -7 21 -7q13 0 21 7q2 -2 5 -6q-10 -9 -26 -9zM482 319q-3 4 -7 7q14 20 14 45t-14 44l7 7q17 -22 17 -51t-17 -52zM292 269
q-35 45 -35 102q0 58 36 102l7 -7q-33 -43 -33 -95t33 -95q-5 -5 -8 -7zM416 -17q-144 0 -252 97l7 8q105 -95 245 -95q139 0 244 94l2 -1l4 -4l1 -2q-107 -97 -251 -97zM416 121q-92 0 -161 61l7 8q65 -59 154 -59t153 59q1 -1 3.5 -4t3.5 -4q-67 -61 -160 -61zM416 170
q-72 0 -129 49l7 7q52 -46 122 -46t121 46l3.5 -3.5t3.5 -4.5q-54 -48 -128 -48zM416 209q-57 0 -103 38l7 8q43 -36 96 -36t96 36q2 -2 6 -8q-45 -38 -102 -38zM416 265q-37 0 -66 24l7 8q25 -22 59 -22q33 0 58 22q1 -2 3.5 -4t3.5 -4q-29 -24 -65 -24zM358 445q-3 2 -7 7
l-1 1q29 24 66 24t66 -24l-8 -8q-25 22 -58 22t-58 -22zM570 552q-65 59 -154 59q-87 0 -153 -58l-7 7q69 61 160 61q92 0 161 -61q-2 -3 -7 -8zM454 346l-6 5q5 10 5 20t-5 20l6 5q7 -12 7 -25t-7 -25zM468 333q-5 5 -8 7q10 15 10 31t-10 31l8 7q12 -16 12 -38
q0 -21 -12 -38zM498 306q-3 2 -8 7q19 25 19 58t-19 58l7 7q22 -28 22 -65q0 -34 -21 -65zM540 269q-2 1 -4 3.5t-4 3.5q33 43 33 95q0 53 -34 95l8 7q36 -44 36 -102q0 -57 -35 -102zM568 243q-5 5 -8 7q43 53 43 121t-43 121l8 7q45 -56 45 -128t-45 -128zM604 211
q-3 2 -8 7q55 66 55 153q0 89 -55 153l8 7q57 -68 57 -160t-57 -160zM649 171q-1 1 -3.5 3t-3.5 3q69 85 69 194q0 110 -70 193l8 7q72 -86 72 -200t-72 -200zM706 120q-3 3 -8 7q88 106 88 244t-88 244l8 7q90 -108 90 -251q0 -142 -90 -251zM183 170q-72 88 -72 201
t71 200q1 -1 3.5 -3t4.5 -4q-69 -83 -69 -193q0 -111 69 -194zM334 306q-21 29 -21 65t21 65q3 -2 8 -7q-19 -25 -19 -58q0 -32 19 -57zM364 333q-12 17 -12 38t12 38q1 -1 2 -2.5t2.5 -2.5t2.5 -2q-9 -16 -9 -31t9 -31zM395 403l-5 6q10 9 26 9t26 -9l-5 -6q-11 7 -21 7
q-13 0 -21 -7zM384 416l-7 7q17 14 39 14q21 0 38 -14q-4 -4 -6 -7q-14 12 -32 12q-17 0 -32 -12zM371 430l-7 8q22 19 52 19t52 -19l-7 -8q-19 17 -45 17t-45 -17zM295 516l-7 8q54 48 128 48t128 -49l-2 -1l-2 -4l-2 -2q-52 46 -122 46t-121 -46zM416 240q-48 0 -83 30
l7 8q35 -28 76 -28q42 0 75 28l7 -7q-36 -31 -82 -31zM416 285q-29 0 -53 19l7 8q22 -17 46 -17q25 0 45 17l7 -8q-22 -19 -52 -19zM416 305q-21 0 -40 14l7 7q17 -12 33 -12q17 0 32 12l7 -7q-17 -14 -39 -14zM341 464l-7 7q36 31 82 31q47 0 82 -30l-7 -8q-33 28 -75 28
t-75 -28zM320 487l-7 8q44 38 103 38q58 0 102 -39l-6 -7q-41 36 -96 36q-53 0 -96 -36zM610 597q-81 75 -194 75q-110 0 -194 -74l-7 7q87 77 201 77t201 -77zM172 654l-7 8q107 97 251 97t252 -97l-7 -8q-105 95 -245 95q-139 0 -244 -95zM516 290l-7 7q25 33 25 74
t-26 75l8 7q28 -36 28 -82q0 -47 -28 -81z" />
    <glyph glyph-name="Omega" unicode="&#x2126;" horiz-adv-x="832" 
d="M126 120q-90 108 -90 251q0 142 90 250q3 -2 7 -6q-87 -106 -87 -244t88 -244zM228 211q-57 70 -57 160t56 160q2 -1 4.5 -3.5l3.5 -3.5q-54 -67 -54 -153q0 -88 54 -153q-1 -1 -2 -2.5t-2.5 -2.5t-2.5 -2zM264 243q-45 56 -45 128t45 128q1 -1 4 -3.5t4 -3.5
q-43 -53 -43 -121t43 -121q-2 -1 -4.5 -3.5zM316 289q-28 36 -28 82q0 47 28 81l7 -7q-25 -33 -25 -74t26 -75q-2 -1 -4 -3.5t-4 -3.5zM349 320q-16 22 -16 51t16 51q2 -1 4 -3.5t4 -3.5q-14 -20 -14 -44t14 -44q-3 -2 -8 -7zM378 346q-7 12 -7 25t7 25l6 -5q-5 -10 -5 -20
t5 -20q-2 -2 -6 -5zM416 60q-116 0 -201 77l7 7q84 -74 194 -74q111 0 193 74q1 -2 3.5 -4t3.5 -4q-86 -76 -200 -76zM416 324q-15 0 -27 9l6 6q10 -7 21 -7q13 0 21 7q2 -2 5 -6q-10 -9 -26 -9zM482 319q-3 4 -7 7q14 20 14 45t-14 44l7 7q17 -22 17 -51t-17 -52zM292 269
q-35 45 -35 102q0 58 36 102l7 -7q-33 -43 -33 -95t33 -95q-5 -5 -8 -7zM416 -17q-144 0 -252 97l7 8q105 -95 245 -95q139 0 244 94l2 -1l4 -4l1 -2q-107 -97 -251 -97zM416 121q-92 0 -161 61l7 8q65 -59 154 -59t153 59q1 -1 3.5 -4t3.5 -4q-67 -61 -160 -61zM416 170
q-72 0 -129 49l7 7q52 -46 122 -46t121 46l3.5 -3.5t3.5 -4.5q-54 -48 -128 -48zM416 209q-57 0 -103 38l7 8q43 -36 96 -36t96 36q2 -2 6 -8q-45 -38 -102 -38zM416 265q-37 0 -66 24l7 8q25 -22 59 -22q33 0 58 22q1 -2 3.5 -4t3.5 -4q-29 -24 -65 -24zM358 445q-3 2 -7 7
l-1 1q29 24 66 24t66 -24l-8 -8q-25 22 -58 22t-58 -22zM570 552q-65 59 -154 59q-87 0 -153 -58l-7 7q69 61 160 61q92 0 161 -61q-2 -3 -7 -8zM454 346l-6 5q5 10 5 20t-5 20l6 5q7 -12 7 -25t-7 -25zM468 333q-5 5 -8 7q10 15 10 31t-10 31l8 7q12 -16 12 -38
q0 -21 -12 -38zM498 306q-3 2 -8 7q19 25 19 58t-19 58l7 7q22 -28 22 -65q0 -34 -21 -65zM540 269q-2 1 -4 3.5t-4 3.5q33 43 33 95q0 53 -34 95l8 7q36 -44 36 -102q0 -57 -35 -102zM568 243q-5 5 -8 7q43 53 43 121t-43 121l8 7q45 -56 45 -128t-45 -128zM604 211
q-3 2 -8 7q55 66 55 153q0 89 -55 153l8 7q57 -68 57 -160t-57 -160zM649 171q-1 1 -3.5 3t-3.5 3q69 85 69 194q0 110 -70 193l8 7q72 -86 72 -200t-72 -200zM706 120q-3 3 -8 7q88 106 88 244t-88 244l8 7q90 -108 90 -251q0 -142 -90 -251zM183 170q-72 88 -72 201
t71 200q1 -1 3.5 -3t4.5 -4q-69 -83 -69 -193q0 -111 69 -194zM334 306q-21 29 -21 65t21 65q3 -2 8 -7q-19 -25 -19 -58q0 -32 19 -57zM364 333q-12 17 -12 38t12 38q1 -1 2 -2.5t2.5 -2.5t2.5 -2q-9 -16 -9 -31t9 -31zM395 403l-5 6q10 9 26 9t26 -9l-5 -6q-11 7 -21 7
q-13 0 -21 -7zM384 416l-7 7q17 14 39 14q21 0 38 -14q-4 -4 -6 -7q-14 12 -32 12q-17 0 -32 -12zM371 430l-7 8q22 19 52 19t52 -19l-7 -8q-19 17 -45 17t-45 -17zM295 516l-7 8q54 48 128 48t128 -49l-2 -1l-2 -4l-2 -2q-52 46 -122 46t-121 -46zM416 240q-48 0 -83 30
l7 8q35 -28 76 -28q42 0 75 28l7 -7q-36 -31 -82 -31zM416 285q-29 0 -53 19l7 8q22 -17 46 -17q25 0 45 17l7 -8q-22 -19 -52 -19zM416 305q-21 0 -40 14l7 7q17 -12 33 -12q17 0 32 12l7 -7q-17 -14 -39 -14zM341 464l-7 7q36 31 82 31q47 0 82 -30l-7 -8q-33 28 -75 28
t-75 -28zM320 487l-7 8q44 38 103 38q58 0 102 -39l-6 -7q-41 36 -96 36q-53 0 -96 -36zM610 597q-81 75 -194 75q-110 0 -194 -74l-7 7q87 77 201 77t201 -77zM172 654l-7 8q107 97 251 97t252 -97l-7 -8q-105 95 -245 95q-139 0 -244 -95zM516 290l-7 7q25 33 25 74
t-26 75l8 7q28 -36 28 -82q0 -47 -28 -81z" />
    <glyph glyph-name="pi" unicode="&#x3c0;" horiz-adv-x="667" 
d="M333 -10q-85 0 -143.5 27.5t-90.5 80t-45.5 118.5t-13.5 154q0 89 13.5 155t45.5 119t90.5 80.5t143.5 27.5q68 0 119.5 -18.5t84.5 -51t53.5 -82t29 -105t8.5 -125.5q0 -88 -14 -154t-46 -118.5t-91 -80t-144 -27.5zM333 30q73 0 123.5 24.5t78 71.5t39 106t11.5 138
q0 80 -11.5 139t-39 106.5t-78 72t-123.5 24.5q-140 0 -195.5 -88.5t-55.5 -253.5q0 -79 11.5 -138t39 -106t77.5 -71.5t123 -24.5zM199 119v496h166q81 0 114 -35.5t33 -114.5q0 -78 -33 -114.5t-114 -36.5h-104v-195h-62zM261 366h102q47 0 67 22t20 74q0 54 -19.5 75.5
t-67.5 21.5h-102v-193z" />
    <glyph glyph-name="endash" unicode="&#x2013;" horiz-adv-x="573" 
d="M37 272v86h500v-86h-500z" />
    <glyph glyph-name="emdash" unicode="&#x2014;" horiz-adv-x="748" 
d="M37 272v86h674v-86h-674z" />
    <glyph glyph-name="quoteleft" unicode="&#x2018;" horiz-adv-x="216" 
d="M51 488v117q0 56 17.5 83.5t71.5 54.5l26 -49q-33 -19 -43 -33t-10 -42h52v-131h-114z" />
    <glyph glyph-name="quoteright" unicode="&#x2019;" horiz-adv-x="216" 
d="M77 486l-28 49q34 19 44 33t10 42h-52v131h114v-116q0 -57 -17.5 -84.5t-70.5 -54.5z" />
    <glyph glyph-name="quotesinglbase" unicode="&#x201a;" horiz-adv-x="216" 
d="M77 -124l-28 49q34 19 44 33t10 42h-52v131h114v-116q0 -58 -17.5 -85.5t-70.5 -53.5z" />
    <glyph glyph-name="quotedblleft" unicode="&#x201c;" horiz-adv-x="385" 
d="M51 493v116q0 56 17 82t70 52l26 -47q-33 -19 -43 -33t-10 -42h51v-128h-111zM223 493v116q0 56 16.5 82t69.5 52l26 -47q-33 -19 -43 -33t-10 -42h51v-128h-110z" />
    <glyph glyph-name="quotedblright" unicode="&#x201d;" horiz-adv-x="384" 
d="M75 491l-26 47q33 18 43.5 32.5t10.5 40.5h-52v130h111v-116q0 -56 -16.5 -82t-70.5 -52zM246 491l-25 47q32 18 42 32t10 41h-51v130h111v-116q0 -56 -16.5 -82t-70.5 -52z" />
    <glyph glyph-name="quotedblbase" unicode="&#x201e;" horiz-adv-x="384" 
d="M75 -120l-26 47q33 19 43.5 33.5t10.5 41.5h-52v129h111v-116q0 -57 -16.5 -83t-70.5 -52zM246 -120l-25 47q32 19 42 33.5t10 41.5h-51v129h111v-116q0 -57 -16.5 -83t-70.5 -52z" />
    <glyph glyph-name="dagger" unicode="&#x2020;" horiz-adv-x="458" 
d="M182 -158v616h-139v87h139v224h93v-224h140v-87h-140v-616h-93z" />
    <glyph glyph-name="daggerdbl" unicode="&#x2021;" horiz-adv-x="458" 
d="M182 -158v235h-139v87h139v296h-139v88h139v221h93v-221h140v-88h-140v-296h140v-87h-140v-235h-93z" />
    <glyph glyph-name="bullet" unicode="&#x2022;" horiz-adv-x="297" 
d="M77 216v176h142v-176h-142z" />
    <glyph glyph-name="ellipsis" unicode="&#x2026;" horiz-adv-x="617" 
d="M51 0v126h114v-126h-114zM252 0v126h112v-126h-112zM453 0v126h112v-126h-112z" />
    <glyph glyph-name="perthousand" unicode="&#x2030;" horiz-adv-x="1312" 
d="M202 276q-87 0 -128.5 54.5t-41.5 181.5q0 128 41.5 182t128.5 54q88 0 130 -54t42 -182q0 -127 -42 -181.5t-130 -54.5zM203 348q47 0 66.5 36t19.5 126t-19.5 126t-66.5 36t-66.5 -36t-19.5 -126t19.5 -126t66.5 -36zM732 -7q-88 0 -129 54t-41 182t41 182.5t129 54.5
t129.5 -55t41.5 -182t-41.5 -181.5t-129.5 -54.5zM732 65q47 0 67 36.5t20 125.5q0 90 -20 126t-67 36t-66.5 -36t-19.5 -126t20 -126t66 -36zM262 0l325 741h88l-326 -741h-87zM1109 -7q-88 0 -129 54t-41 182t41 182.5t129 54.5t129.5 -55t41.5 -182t-41.5 -181.5
t-129.5 -54.5zM1110 65q47 0 66.5 36t19.5 126t-19.5 126t-66.5 36t-67 -36t-20 -126q0 -89 20 -125.5t67 -36.5z" />
    <glyph glyph-name="guilsinglleft" unicode="&#x2039;" horiz-adv-x="361" 
d="M188 0l-121 277l121 278h86l-114 -278l114 -277h-86z" />
    <glyph glyph-name="guilsinglright" unicode="&#x203a;" horiz-adv-x="361" 
d="M87 0l114 278l-114 277h86l121 -277l-121 -278h-86z" />
    <glyph glyph-name="fraction" unicode="&#x2044;" horiz-adv-x="417" 
d="M3 0l325 741h85l-325 -741h-85z" />
    <glyph glyph-name="fraction" unicode="&#x2215;" horiz-adv-x="417" 
d="M3 0l325 741h85l-325 -741h-85z" />
    <glyph glyph-name="Euro" unicode="&#x20ac;" horiz-adv-x="558" 
d="M28 410v77h94q12 138 64 200t168 62q101 0 171 -41l-45 -79q-55 30 -127 30q-69 0 -99.5 -40.5t-38.5 -131.5h208v-77h-212v-71h212v-78h-208q8 -96 39 -139.5t100 -43.5q59 0 127 35l43 -75q-81 -46 -176 -46q-114 0 -165 63.5t-62 205.5h-93v78h90v71h-90z" />
    <glyph glyph-name="trademark" unicode="&#x2122;" horiz-adv-x="862" 
d="M386 278v463h79l111 -347l110 347h80v-463h-69v320l-99 -320h-47l-99 320v-320h-66zM161 278v398h-124v65h320v-65h-124v-398h-72z" />
    <glyph glyph-name="partialdiff" unicode="&#x2202;" horiz-adv-x="832" 
d="M126 120q-90 108 -90 251q0 142 90 250q3 -2 7 -6q-87 -106 -87 -244t88 -244zM228 211q-57 70 -57 160t56 160q2 -1 4.5 -3.5l3.5 -3.5q-54 -67 -54 -153q0 -88 54 -153q-1 -1 -2 -2.5t-2.5 -2.5t-2.5 -2zM264 243q-45 56 -45 128t45 128q1 -1 4 -3.5t4 -3.5
q-43 -53 -43 -121t43 -121q-2 -1 -4.5 -3.5zM316 289q-28 36 -28 82q0 47 28 81l7 -7q-25 -33 -25 -74t26 -75q-2 -1 -4 -3.5t-4 -3.5zM349 320q-16 22 -16 51t16 51q2 -1 4 -3.5t4 -3.5q-14 -20 -14 -44t14 -44q-3 -2 -8 -7zM378 346q-7 12 -7 25t7 25l6 -5q-5 -10 -5 -20
t5 -20q-2 -2 -6 -5zM416 60q-116 0 -201 77l7 7q84 -74 194 -74q111 0 193 74q1 -2 3.5 -4t3.5 -4q-86 -76 -200 -76zM416 324q-15 0 -27 9l6 6q10 -7 21 -7q13 0 21 7q2 -2 5 -6q-10 -9 -26 -9zM482 319q-3 4 -7 7q14 20 14 45t-14 44l7 7q17 -22 17 -51t-17 -52zM292 269
q-35 45 -35 102q0 58 36 102l7 -7q-33 -43 -33 -95t33 -95q-5 -5 -8 -7zM416 -17q-144 0 -252 97l7 8q105 -95 245 -95q139 0 244 94l2 -1l4 -4l1 -2q-107 -97 -251 -97zM416 121q-92 0 -161 61l7 8q65 -59 154 -59t153 59q1 -1 3.5 -4t3.5 -4q-67 -61 -160 -61zM416 170
q-72 0 -129 49l7 7q52 -46 122 -46t121 46l3.5 -3.5t3.5 -4.5q-54 -48 -128 -48zM416 209q-57 0 -103 38l7 8q43 -36 96 -36t96 36q2 -2 6 -8q-45 -38 -102 -38zM416 265q-37 0 -66 24l7 8q25 -22 59 -22q33 0 58 22q1 -2 3.5 -4t3.5 -4q-29 -24 -65 -24zM358 445q-3 2 -7 7
l-1 1q29 24 66 24t66 -24l-8 -8q-25 22 -58 22t-58 -22zM570 552q-65 59 -154 59q-87 0 -153 -58l-7 7q69 61 160 61q92 0 161 -61q-2 -3 -7 -8zM454 346l-6 5q5 10 5 20t-5 20l6 5q7 -12 7 -25t-7 -25zM468 333q-5 5 -8 7q10 15 10 31t-10 31l8 7q12 -16 12 -38
q0 -21 -12 -38zM498 306q-3 2 -8 7q19 25 19 58t-19 58l7 7q22 -28 22 -65q0 -34 -21 -65zM540 269q-2 1 -4 3.5t-4 3.5q33 43 33 95q0 53 -34 95l8 7q36 -44 36 -102q0 -57 -35 -102zM568 243q-5 5 -8 7q43 53 43 121t-43 121l8 7q45 -56 45 -128t-45 -128zM604 211
q-3 2 -8 7q55 66 55 153q0 89 -55 153l8 7q57 -68 57 -160t-57 -160zM649 171q-1 1 -3.5 3t-3.5 3q69 85 69 194q0 110 -70 193l8 7q72 -86 72 -200t-72 -200zM706 120q-3 3 -8 7q88 106 88 244t-88 244l8 7q90 -108 90 -251q0 -142 -90 -251zM183 170q-72 88 -72 201
t71 200q1 -1 3.5 -3t4.5 -4q-69 -83 -69 -193q0 -111 69 -194zM334 306q-21 29 -21 65t21 65q3 -2 8 -7q-19 -25 -19 -58q0 -32 19 -57zM364 333q-12 17 -12 38t12 38q1 -1 2 -2.5t2.5 -2.5t2.5 -2q-9 -16 -9 -31t9 -31zM395 403l-5 6q10 9 26 9t26 -9l-5 -6q-11 7 -21 7
q-13 0 -21 -7zM384 416l-7 7q17 14 39 14q21 0 38 -14q-4 -4 -6 -7q-14 12 -32 12q-17 0 -32 -12zM371 430l-7 8q22 19 52 19t52 -19l-7 -8q-19 17 -45 17t-45 -17zM295 516l-7 8q54 48 128 48t128 -49l-2 -1l-2 -4l-2 -2q-52 46 -122 46t-121 -46zM416 240q-48 0 -83 30
l7 8q35 -28 76 -28q42 0 75 28l7 -7q-36 -31 -82 -31zM416 285q-29 0 -53 19l7 8q22 -17 46 -17q25 0 45 17l7 -8q-22 -19 -52 -19zM416 305q-21 0 -40 14l7 7q17 -12 33 -12q17 0 32 12l7 -7q-17 -14 -39 -14zM341 464l-7 7q36 31 82 31q47 0 82 -30l-7 -8q-33 28 -75 28
t-75 -28zM320 487l-7 8q44 38 103 38q58 0 102 -39l-6 -7q-41 36 -96 36q-53 0 -96 -36zM610 597q-81 75 -194 75q-110 0 -194 -74l-7 7q87 77 201 77t201 -77zM172 654l-7 8q107 97 251 97t252 -97l-7 -8q-105 95 -245 95q-139 0 -244 -95zM516 290l-7 7q25 33 25 74
t-26 75l8 7q28 -36 28 -82q0 -47 -28 -81z" />
    <glyph glyph-name="product" unicode="&#x220f;" horiz-adv-x="832" 
d="M126 120q-90 108 -90 251q0 142 90 250q3 -2 7 -6q-87 -106 -87 -244t88 -244zM228 211q-57 70 -57 160t56 160q2 -1 4.5 -3.5l3.5 -3.5q-54 -67 -54 -153q0 -88 54 -153q-1 -1 -2 -2.5t-2.5 -2.5t-2.5 -2zM264 243q-45 56 -45 128t45 128q1 -1 4 -3.5t4 -3.5
q-43 -53 -43 -121t43 -121q-2 -1 -4.5 -3.5zM316 289q-28 36 -28 82q0 47 28 81l7 -7q-25 -33 -25 -74t26 -75q-2 -1 -4 -3.5t-4 -3.5zM349 320q-16 22 -16 51t16 51q2 -1 4 -3.5t4 -3.5q-14 -20 -14 -44t14 -44q-3 -2 -8 -7zM378 346q-7 12 -7 25t7 25l6 -5q-5 -10 -5 -20
t5 -20q-2 -2 -6 -5zM416 60q-116 0 -201 77l7 7q84 -74 194 -74q111 0 193 74q1 -2 3.5 -4t3.5 -4q-86 -76 -200 -76zM416 324q-15 0 -27 9l6 6q10 -7 21 -7q13 0 21 7q2 -2 5 -6q-10 -9 -26 -9zM482 319q-3 4 -7 7q14 20 14 45t-14 44l7 7q17 -22 17 -51t-17 -52zM292 269
q-35 45 -35 102q0 58 36 102l7 -7q-33 -43 -33 -95t33 -95q-5 -5 -8 -7zM416 -17q-144 0 -252 97l7 8q105 -95 245 -95q139 0 244 94l2 -1l4 -4l1 -2q-107 -97 -251 -97zM416 121q-92 0 -161 61l7 8q65 -59 154 -59t153 59q1 -1 3.5 -4t3.5 -4q-67 -61 -160 -61zM416 170
q-72 0 -129 49l7 7q52 -46 122 -46t121 46l3.5 -3.5t3.5 -4.5q-54 -48 -128 -48zM416 209q-57 0 -103 38l7 8q43 -36 96 -36t96 36q2 -2 6 -8q-45 -38 -102 -38zM416 265q-37 0 -66 24l7 8q25 -22 59 -22q33 0 58 22q1 -2 3.5 -4t3.5 -4q-29 -24 -65 -24zM358 445q-3 2 -7 7
l-1 1q29 24 66 24t66 -24l-8 -8q-25 22 -58 22t-58 -22zM570 552q-65 59 -154 59q-87 0 -153 -58l-7 7q69 61 160 61q92 0 161 -61q-2 -3 -7 -8zM454 346l-6 5q5 10 5 20t-5 20l6 5q7 -12 7 -25t-7 -25zM468 333q-5 5 -8 7q10 15 10 31t-10 31l8 7q12 -16 12 -38
q0 -21 -12 -38zM498 306q-3 2 -8 7q19 25 19 58t-19 58l7 7q22 -28 22 -65q0 -34 -21 -65zM540 269q-2 1 -4 3.5t-4 3.5q33 43 33 95q0 53 -34 95l8 7q36 -44 36 -102q0 -57 -35 -102zM568 243q-5 5 -8 7q43 53 43 121t-43 121l8 7q45 -56 45 -128t-45 -128zM604 211
q-3 2 -8 7q55 66 55 153q0 89 -55 153l8 7q57 -68 57 -160t-57 -160zM649 171q-1 1 -3.5 3t-3.5 3q69 85 69 194q0 110 -70 193l8 7q72 -86 72 -200t-72 -200zM706 120q-3 3 -8 7q88 106 88 244t-88 244l8 7q90 -108 90 -251q0 -142 -90 -251zM183 170q-72 88 -72 201
t71 200q1 -1 3.5 -3t4.5 -4q-69 -83 -69 -193q0 -111 69 -194zM334 306q-21 29 -21 65t21 65q3 -2 8 -7q-19 -25 -19 -58q0 -32 19 -57zM364 333q-12 17 -12 38t12 38q1 -1 2 -2.5t2.5 -2.5t2.5 -2q-9 -16 -9 -31t9 -31zM395 403l-5 6q10 9 26 9t26 -9l-5 -6q-11 7 -21 7
q-13 0 -21 -7zM384 416l-7 7q17 14 39 14q21 0 38 -14q-4 -4 -6 -7q-14 12 -32 12q-17 0 -32 -12zM371 430l-7 8q22 19 52 19t52 -19l-7 -8q-19 17 -45 17t-45 -17zM295 516l-7 8q54 48 128 48t128 -49l-2 -1l-2 -4l-2 -2q-52 46 -122 46t-121 -46zM416 240q-48 0 -83 30
l7 8q35 -28 76 -28q42 0 75 28l7 -7q-36 -31 -82 -31zM416 285q-29 0 -53 19l7 8q22 -17 46 -17q25 0 45 17l7 -8q-22 -19 -52 -19zM416 305q-21 0 -40 14l7 7q17 -12 33 -12q17 0 32 12l7 -7q-17 -14 -39 -14zM341 464l-7 7q36 31 82 31q47 0 82 -30l-7 -8q-33 28 -75 28
t-75 -28zM320 487l-7 8q44 38 103 38q58 0 102 -39l-6 -7q-41 36 -96 36q-53 0 -96 -36zM610 597q-81 75 -194 75q-110 0 -194 -74l-7 7q87 77 201 77t201 -77zM172 654l-7 8q107 97 251 97t252 -97l-7 -8q-105 95 -245 95q-139 0 -244 -95zM516 290l-7 7q25 33 25 74
t-26 75l8 7q28 -36 28 -82q0 -47 -28 -81z" />
    <glyph glyph-name="summation" unicode="&#x2211;" horiz-adv-x="832" 
d="M126 120q-90 108 -90 251q0 142 90 250q3 -2 7 -6q-87 -106 -87 -244t88 -244zM228 211q-57 70 -57 160t56 160q2 -1 4.5 -3.5l3.5 -3.5q-54 -67 -54 -153q0 -88 54 -153q-1 -1 -2 -2.5t-2.5 -2.5t-2.5 -2zM264 243q-45 56 -45 128t45 128q1 -1 4 -3.5t4 -3.5
q-43 -53 -43 -121t43 -121q-2 -1 -4.5 -3.5zM316 289q-28 36 -28 82q0 47 28 81l7 -7q-25 -33 -25 -74t26 -75q-2 -1 -4 -3.5t-4 -3.5zM349 320q-16 22 -16 51t16 51q2 -1 4 -3.5t4 -3.5q-14 -20 -14 -44t14 -44q-3 -2 -8 -7zM378 346q-7 12 -7 25t7 25l6 -5q-5 -10 -5 -20
t5 -20q-2 -2 -6 -5zM416 60q-116 0 -201 77l7 7q84 -74 194 -74q111 0 193 74q1 -2 3.5 -4t3.5 -4q-86 -76 -200 -76zM416 324q-15 0 -27 9l6 6q10 -7 21 -7q13 0 21 7q2 -2 5 -6q-10 -9 -26 -9zM482 319q-3 4 -7 7q14 20 14 45t-14 44l7 7q17 -22 17 -51t-17 -52zM292 269
q-35 45 -35 102q0 58 36 102l7 -7q-33 -43 -33 -95t33 -95q-5 -5 -8 -7zM416 -17q-144 0 -252 97l7 8q105 -95 245 -95q139 0 244 94l2 -1l4 -4l1 -2q-107 -97 -251 -97zM416 121q-92 0 -161 61l7 8q65 -59 154 -59t153 59q1 -1 3.5 -4t3.5 -4q-67 -61 -160 -61zM416 170
q-72 0 -129 49l7 7q52 -46 122 -46t121 46l3.5 -3.5t3.5 -4.5q-54 -48 -128 -48zM416 209q-57 0 -103 38l7 8q43 -36 96 -36t96 36q2 -2 6 -8q-45 -38 -102 -38zM416 265q-37 0 -66 24l7 8q25 -22 59 -22q33 0 58 22q1 -2 3.5 -4t3.5 -4q-29 -24 -65 -24zM358 445q-3 2 -7 7
l-1 1q29 24 66 24t66 -24l-8 -8q-25 22 -58 22t-58 -22zM570 552q-65 59 -154 59q-87 0 -153 -58l-7 7q69 61 160 61q92 0 161 -61q-2 -3 -7 -8zM454 346l-6 5q5 10 5 20t-5 20l6 5q7 -12 7 -25t-7 -25zM468 333q-5 5 -8 7q10 15 10 31t-10 31l8 7q12 -16 12 -38
q0 -21 -12 -38zM498 306q-3 2 -8 7q19 25 19 58t-19 58l7 7q22 -28 22 -65q0 -34 -21 -65zM540 269q-2 1 -4 3.5t-4 3.5q33 43 33 95q0 53 -34 95l8 7q36 -44 36 -102q0 -57 -35 -102zM568 243q-5 5 -8 7q43 53 43 121t-43 121l8 7q45 -56 45 -128t-45 -128zM604 211
q-3 2 -8 7q55 66 55 153q0 89 -55 153l8 7q57 -68 57 -160t-57 -160zM649 171q-1 1 -3.5 3t-3.5 3q69 85 69 194q0 110 -70 193l8 7q72 -86 72 -200t-72 -200zM706 120q-3 3 -8 7q88 106 88 244t-88 244l8 7q90 -108 90 -251q0 -142 -90 -251zM183 170q-72 88 -72 201
t71 200q1 -1 3.5 -3t4.5 -4q-69 -83 -69 -193q0 -111 69 -194zM334 306q-21 29 -21 65t21 65q3 -2 8 -7q-19 -25 -19 -58q0 -32 19 -57zM364 333q-12 17 -12 38t12 38q1 -1 2 -2.5t2.5 -2.5t2.5 -2q-9 -16 -9 -31t9 -31zM395 403l-5 6q10 9 26 9t26 -9l-5 -6q-11 7 -21 7
q-13 0 -21 -7zM384 416l-7 7q17 14 39 14q21 0 38 -14q-4 -4 -6 -7q-14 12 -32 12q-17 0 -32 -12zM371 430l-7 8q22 19 52 19t52 -19l-7 -8q-19 17 -45 17t-45 -17zM295 516l-7 8q54 48 128 48t128 -49l-2 -1l-2 -4l-2 -2q-52 46 -122 46t-121 -46zM416 240q-48 0 -83 30
l7 8q35 -28 76 -28q42 0 75 28l7 -7q-36 -31 -82 -31zM416 285q-29 0 -53 19l7 8q22 -17 46 -17q25 0 45 17l7 -8q-22 -19 -52 -19zM416 305q-21 0 -40 14l7 7q17 -12 33 -12q17 0 32 12l7 -7q-17 -14 -39 -14zM341 464l-7 7q36 31 82 31q47 0 82 -30l-7 -8q-33 28 -75 28
t-75 -28zM320 487l-7 8q44 38 103 38q58 0 102 -39l-6 -7q-41 36 -96 36q-53 0 -96 -36zM610 597q-81 75 -194 75q-110 0 -194 -74l-7 7q87 77 201 77t201 -77zM172 654l-7 8q107 97 251 97t252 -97l-7 -8q-105 95 -245 95q-139 0 -244 -95zM516 290l-7 7q25 33 25 74
t-26 75l8 7q28 -36 28 -82q0 -47 -28 -81z" />
    <glyph glyph-name="minus" unicode="&#x2212;" horiz-adv-x="566" 
d="M83 311v82h400v-82h-400z" />
    <glyph glyph-name="radical" unicode="&#x221a;" horiz-adv-x="538" 
d="M173 -4l-132 423h98l86 -295l184 617h91l-229 -745h-98z" />
    <glyph glyph-name="infinity" unicode="&#x221e;" horiz-adv-x="799" 
d="M375 0v473h-176v-473h-94v473h-87v82h87v62q0 154 158 154h47v-83h-39q-43 0 -57.5 -19.5t-14.5 -60.5v-53h176v62q0 154 159 154h46v-83h-39q-43 0 -57.5 -19.5t-14.5 -60.5v-53h111v-82h-111v-473h-94zM645 0v555h94v-555h-94zM645 623v112h94v-112h-94z" />
    <glyph glyph-name="integral" unicode="&#x222b;" horiz-adv-x="832" 
d="M126 120q-90 108 -90 251q0 142 90 250q3 -2 7 -6q-87 -106 -87 -244t88 -244zM228 211q-57 70 -57 160t56 160q2 -1 4.5 -3.5l3.5 -3.5q-54 -67 -54 -153q0 -88 54 -153q-1 -1 -2 -2.5t-2.5 -2.5t-2.5 -2zM264 243q-45 56 -45 128t45 128q1 -1 4 -3.5t4 -3.5
q-43 -53 -43 -121t43 -121q-2 -1 -4.5 -3.5zM316 289q-28 36 -28 82q0 47 28 81l7 -7q-25 -33 -25 -74t26 -75q-2 -1 -4 -3.5t-4 -3.5zM349 320q-16 22 -16 51t16 51q2 -1 4 -3.5t4 -3.5q-14 -20 -14 -44t14 -44q-3 -2 -8 -7zM378 346q-7 12 -7 25t7 25l6 -5q-5 -10 -5 -20
t5 -20q-2 -2 -6 -5zM416 60q-116 0 -201 77l7 7q84 -74 194 -74q111 0 193 74q1 -2 3.5 -4t3.5 -4q-86 -76 -200 -76zM416 324q-15 0 -27 9l6 6q10 -7 21 -7q13 0 21 7q2 -2 5 -6q-10 -9 -26 -9zM482 319q-3 4 -7 7q14 20 14 45t-14 44l7 7q17 -22 17 -51t-17 -52zM292 269
q-35 45 -35 102q0 58 36 102l7 -7q-33 -43 -33 -95t33 -95q-5 -5 -8 -7zM416 -17q-144 0 -252 97l7 8q105 -95 245 -95q139 0 244 94l2 -1l4 -4l1 -2q-107 -97 -251 -97zM416 121q-92 0 -161 61l7 8q65 -59 154 -59t153 59q1 -1 3.5 -4t3.5 -4q-67 -61 -160 -61zM416 170
q-72 0 -129 49l7 7q52 -46 122 -46t121 46l3.5 -3.5t3.5 -4.5q-54 -48 -128 -48zM416 209q-57 0 -103 38l7 8q43 -36 96 -36t96 36q2 -2 6 -8q-45 -38 -102 -38zM416 265q-37 0 -66 24l7 8q25 -22 59 -22q33 0 58 22q1 -2 3.5 -4t3.5 -4q-29 -24 -65 -24zM358 445q-3 2 -7 7
l-1 1q29 24 66 24t66 -24l-8 -8q-25 22 -58 22t-58 -22zM570 552q-65 59 -154 59q-87 0 -153 -58l-7 7q69 61 160 61q92 0 161 -61q-2 -3 -7 -8zM454 346l-6 5q5 10 5 20t-5 20l6 5q7 -12 7 -25t-7 -25zM468 333q-5 5 -8 7q10 15 10 31t-10 31l8 7q12 -16 12 -38
q0 -21 -12 -38zM498 306q-3 2 -8 7q19 25 19 58t-19 58l7 7q22 -28 22 -65q0 -34 -21 -65zM540 269q-2 1 -4 3.5t-4 3.5q33 43 33 95q0 53 -34 95l8 7q36 -44 36 -102q0 -57 -35 -102zM568 243q-5 5 -8 7q43 53 43 121t-43 121l8 7q45 -56 45 -128t-45 -128zM604 211
q-3 2 -8 7q55 66 55 153q0 89 -55 153l8 7q57 -68 57 -160t-57 -160zM649 171q-1 1 -3.5 3t-3.5 3q69 85 69 194q0 110 -70 193l8 7q72 -86 72 -200t-72 -200zM706 120q-3 3 -8 7q88 106 88 244t-88 244l8 7q90 -108 90 -251q0 -142 -90 -251zM183 170q-72 88 -72 201
t71 200q1 -1 3.5 -3t4.5 -4q-69 -83 -69 -193q0 -111 69 -194zM334 306q-21 29 -21 65t21 65q3 -2 8 -7q-19 -25 -19 -58q0 -32 19 -57zM364 333q-12 17 -12 38t12 38q1 -1 2 -2.5t2.5 -2.5t2.5 -2q-9 -16 -9 -31t9 -31zM395 403l-5 6q10 9 26 9t26 -9l-5 -6q-11 7 -21 7
q-13 0 -21 -7zM384 416l-7 7q17 14 39 14q21 0 38 -14q-4 -4 -6 -7q-14 12 -32 12q-17 0 -32 -12zM371 430l-7 8q22 19 52 19t52 -19l-7 -8q-19 17 -45 17t-45 -17zM295 516l-7 8q54 48 128 48t128 -49l-2 -1l-2 -4l-2 -2q-52 46 -122 46t-121 -46zM416 240q-48 0 -83 30
l7 8q35 -28 76 -28q42 0 75 28l7 -7q-36 -31 -82 -31zM416 285q-29 0 -53 19l7 8q22 -17 46 -17q25 0 45 17l7 -8q-22 -19 -52 -19zM416 305q-21 0 -40 14l7 7q17 -12 33 -12q17 0 32 12l7 -7q-17 -14 -39 -14zM341 464l-7 7q36 31 82 31q47 0 82 -30l-7 -8q-33 28 -75 28
t-75 -28zM320 487l-7 8q44 38 103 38q58 0 102 -39l-6 -7q-41 36 -96 36q-53 0 -96 -36zM610 597q-81 75 -194 75q-110 0 -194 -74l-7 7q87 77 201 77t201 -77zM172 654l-7 8q107 97 251 97t252 -97l-7 -8q-105 95 -245 95q-139 0 -244 -95zM516 290l-7 7q25 33 25 74
t-26 75l8 7q28 -36 28 -82q0 -47 -28 -81z" />
    <glyph glyph-name="approxequal" unicode="&#x2248;" horiz-adv-x="567" 
d="M136 388l-66 37q42 85 119 85q35 0 95 -20.5t85 -20.5q20 0 33.5 10.5t29.5 34.5l64 -36q-43 -87 -119 -87q-35 0 -94.5 20t-85.5 20q-20 0 -33 -10t-28 -33zM136 189l-66 36q42 85 119 85q35 0 95 -20t85 -20q20 0 33.5 11t29.5 35l64 -37q-43 -87 -119 -87
q-35 0 -94.5 19.5t-85.5 19.5q-35 0 -61 -42z" />
    <glyph glyph-name="notequal" unicode="&#x2260;" horiz-adv-x="606" 
d="M375 0v473h-176v-473h-94v473h-87v82h87v62q0 154 158 154h47v-83h-39q-43 0 -57.5 -19.5t-14.5 -60.5v-53h176v62q0 154 159 154q53 0 63 -1v-82h-56q-43 0 -57.5 -19.5t-14.5 -60.5v-53h128v-82h-128v-473h-94z" />
    <glyph glyph-name="lessequal" unicode="&#x2264;" horiz-adv-x="566" 
d="M448 114l-363 203v67l363 202v-91l-268 -144l268 -145v-92zM85 13v83h363v-83h-363z" />
    <glyph glyph-name="greaterequal" unicode="&#x2265;" horiz-adv-x="566" 
d="M119 114v92l266 145l-266 144v91l363 -202v-67zM119 13v83h363v-83h-363z" />
    <glyph glyph-name="lozenge" unicode="&#x25ca;" horiz-adv-x="654" 
d="M18 473v82h87v62q0 154 158 154h47v-83h-39q-43 0 -57.5 -19.5t-14.5 -60.5v-53h197l15 147l75 17v-164h131v-82h-131v-316q0 -41 13 -58t56 -17h62v-82q-45 -3 -72 -3q-89 0 -120.5 34.5t-31.5 116.5v325h-194v-473h-94v473h-87z" />
    <glyph glyph-name="apple" unicode="&#xf8ff;" horiz-adv-x="832" 
d="M126 120q-90 108 -90 251q0 142 90 250q3 -2 7 -6q-87 -106 -87 -244t88 -244zM228 211q-57 70 -57 160t56 160q2 -1 4.5 -3.5l3.5 -3.5q-54 -67 -54 -153q0 -88 54 -153q-1 -1 -2 -2.5t-2.5 -2.5t-2.5 -2zM264 243q-45 56 -45 128t45 128q1 -1 4 -3.5t4 -3.5
q-43 -53 -43 -121t43 -121q-2 -1 -4.5 -3.5zM316 289q-28 36 -28 82q0 47 28 81l7 -7q-25 -33 -25 -74t26 -75q-2 -1 -4 -3.5t-4 -3.5zM349 320q-16 22 -16 51t16 51q2 -1 4 -3.5t4 -3.5q-14 -20 -14 -44t14 -44q-3 -2 -8 -7zM378 346q-7 12 -7 25t7 25l6 -5q-5 -10 -5 -20
t5 -20q-2 -2 -6 -5zM416 60q-116 0 -201 77l7 7q84 -74 194 -74q111 0 193 74q1 -2 3.5 -4t3.5 -4q-86 -76 -200 -76zM416 324q-15 0 -27 9l6 6q10 -7 21 -7q13 0 21 7q2 -2 5 -6q-10 -9 -26 -9zM482 319q-3 4 -7 7q14 20 14 45t-14 44l7 7q17 -22 17 -51t-17 -52zM292 269
q-35 45 -35 102q0 58 36 102l7 -7q-33 -43 -33 -95t33 -95q-5 -5 -8 -7zM416 -17q-144 0 -252 97l7 8q105 -95 245 -95q139 0 244 94l2 -1l4 -4l1 -2q-107 -97 -251 -97zM416 121q-92 0 -161 61l7 8q65 -59 154 -59t153 59q1 -1 3.5 -4t3.5 -4q-67 -61 -160 -61zM416 170
q-72 0 -129 49l7 7q52 -46 122 -46t121 46l3.5 -3.5t3.5 -4.5q-54 -48 -128 -48zM416 209q-57 0 -103 38l7 8q43 -36 96 -36t96 36q2 -2 6 -8q-45 -38 -102 -38zM416 265q-37 0 -66 24l7 8q25 -22 59 -22q33 0 58 22q1 -2 3.5 -4t3.5 -4q-29 -24 -65 -24zM358 445q-3 2 -7 7
l-1 1q29 24 66 24t66 -24l-8 -8q-25 22 -58 22t-58 -22zM570 552q-65 59 -154 59q-87 0 -153 -58l-7 7q69 61 160 61q92 0 161 -61q-2 -3 -7 -8zM454 346l-6 5q5 10 5 20t-5 20l6 5q7 -12 7 -25t-7 -25zM468 333q-5 5 -8 7q10 15 10 31t-10 31l8 7q12 -16 12 -38
q0 -21 -12 -38zM498 306q-3 2 -8 7q19 25 19 58t-19 58l7 7q22 -28 22 -65q0 -34 -21 -65zM540 269q-2 1 -4 3.5t-4 3.5q33 43 33 95q0 53 -34 95l8 7q36 -44 36 -102q0 -57 -35 -102zM568 243q-5 5 -8 7q43 53 43 121t-43 121l8 7q45 -56 45 -128t-45 -128zM604 211
q-3 2 -8 7q55 66 55 153q0 89 -55 153l8 7q57 -68 57 -160t-57 -160zM649 171q-1 1 -3.5 3t-3.5 3q69 85 69 194q0 110 -70 193l8 7q72 -86 72 -200t-72 -200zM706 120q-3 3 -8 7q88 106 88 244t-88 244l8 7q90 -108 90 -251q0 -142 -90 -251zM183 170q-72 88 -72 201
t71 200q1 -1 3.5 -3t4.5 -4q-69 -83 -69 -193q0 -111 69 -194zM334 306q-21 29 -21 65t21 65q3 -2 8 -7q-19 -25 -19 -58q0 -32 19 -57zM364 333q-12 17 -12 38t12 38q1 -1 2 -2.5t2.5 -2.5t2.5 -2q-9 -16 -9 -31t9 -31zM395 403l-5 6q10 9 26 9t26 -9l-5 -6q-11 7 -21 7
q-13 0 -21 -7zM384 416l-7 7q17 14 39 14q21 0 38 -14q-4 -4 -6 -7q-14 12 -32 12q-17 0 -32 -12zM371 430l-7 8q22 19 52 19t52 -19l-7 -8q-19 17 -45 17t-45 -17zM295 516l-7 8q54 48 128 48t128 -49l-2 -1l-2 -4l-2 -2q-52 46 -122 46t-121 -46zM416 240q-48 0 -83 30
l7 8q35 -28 76 -28q42 0 75 28l7 -7q-36 -31 -82 -31zM416 285q-29 0 -53 19l7 8q22 -17 46 -17q25 0 45 17l7 -8q-22 -19 -52 -19zM416 305q-21 0 -40 14l7 7q17 -12 33 -12q17 0 32 12l7 -7q-17 -14 -39 -14zM341 464l-7 7q36 31 82 31q47 0 82 -30l-7 -8q-33 28 -75 28
t-75 -28zM320 487l-7 8q44 38 103 38q58 0 102 -39l-6 -7q-41 36 -96 36q-53 0 -96 -36zM610 597q-81 75 -194 75q-110 0 -194 -74l-7 7q87 77 201 77t201 -77zM172 654l-7 8q107 97 251 97t252 -97l-7 -8q-105 95 -245 95q-139 0 -244 -95zM516 290l-7 7q25 33 25 74
t-26 75l8 7q28 -36 28 -82q0 -47 -28 -81z" />
    </font>
</defs>
</svg>
