<svg id="Layer_1" data-name="Layer 1" xmlns="http://www.w3.org/2000/svg" viewBox="0 0 58.125 20.91569"><title>logo-color</title><path d="M32.13524,14.59814l1.17311.04283,1.15629.05964,1.14405.07648,1.12571.09177,1.1104.10706,1.09358.12083,1.0737.13766,1.05229.15142,1.0324.16518,1.011.18048.98958.19271.96511.20649.9391.21871.91463.231.8871.24319.86263.25543.83357.26613.803.27836.77392.28907.7418.30131.71121.309.67756.31966.64545.33037.60873.338.57356.34873.53685.35484.50014.364.46037.37014.41908.38084.38084.38543.33955.39308.29672.40072.25389.40532.21107.41143.16365.41755.1193.42213.07189.42826.02447.42978-.02447.43132-.07189.42826-.1193.42213-.16365.41755-.21107.41143-.25389.40531-.29672.3992-.33955.39308-.38084.387-.41908.37931-.46037.37013-.50014.364-.53685.35637-.57356.34567-.60873.338-.64545.33037-.67756.31966-.71121.31049-.7418.29825-.77392.28907-.803.27836-.83357.26766-.86263.2539-.8871.24624-.91463.231-.9391.21872-.96511.20495-.98958.19425-1.011.17742-1.0324.16518-1.05229.15142-1.0737.13765-1.09358.12236-1.1104.10707-1.12571.09024-1.144.07647-1.15629.05965-1.17311.04282-1.18535.026-1.20065.00765L28.55165,35.471l-1.18535-.026-1.17311-.04282-1.15629-.05965-1.14406-.07647-1.1257-.09024-1.1104-.10707-1.09206-.12236-1.07522-.13765-1.05229-.15142-1.0324-.16518-1.011-.17742-.98958-.19425-.9651-.20495L13.5,33.6968l-.9131-.23095-.88863-.24624-.86263-.2539-.832-.26766-.80451-.27836-.77392-.28907-.7418-.29825-.71121-.31049-.67756-.31966-.64544-.33037-.60874-.338-.57355-.34567L3.93,29.8318l-.50014-.364-.46038-.37013-.41908-.37931-.38084-.387L1.83,27.9383l-.29672-.3992-.2539-.40531-.21107-.41143-.16365-.41755-.12083-.42213L.712,25.45442.6875,25.0231.712,24.59332l.07189-.42826.12083-.42213.16365-.41755.21107-.41143.2539-.40532L1.83,22.10791l.33954-.39308.38084-.38543.41908-.38084.46038-.37014.50014-.364.53685-.35484.57355-.34873.60874-.338.64544-.33037.67756-.31966.71121-.309.7418-.30131.77392-.28907.80451-.27836.832-.26613.86263-.25543.88863-.24319L13.5,16.3494l.93911-.21871.9651-.20649.98958-.19271,1.011-.18048,1.0324-.16518,1.05229-.15142,1.07522-.13766,1.09206-.12083,1.1104-.10706,1.1257-.09177,1.14406-.07648,1.15629-.05964,1.17311-.04283,1.18535-.02447,1.19759-.01071,1.20065.01071Zm-4.68023.81063-1.13029.03823-1.11652.05507-1.0997.07035-1.08746.08412-1.06911.09789-1.05076.11318-1.03393.12695-1.01558.13918-.99569.153-.97275.16519-.95287.17894-.92993.18966-.90546.20036-.881.21566-.85651.22483-.829.23554-.803.24625-.77392.25848-.74486.26613-.71733.27684-.68368.286-.65309.29519-.621.30283-.58579.312-.55214.32119-.5185.32731-.48179.33649-.442.3426-.40531.35025-.36861.35637-.32578.36249-.286.36861-.24625.37472L2.116,23.46l-.15754.38543-.11471.38849-.07035.39308-.02448.39766.02448.3992.07035.39308.11471.38848.15754.38238.20342.38084.24625.37319.286.36861.32578.36248.36861.35637.40531.35026.442.34413.48179.33343.5185.33037.55214.31966.58579.31048.621.30437.65309.29519.68368.28449.71733.27683.74486.26766.77392.25542.803.24625.829.23707.85651.22483.881.2126.90546.20342.92993.19119.95287.17742.97275.16518.99569.15142,1.01558.14071,1.03393.12542,1.05076.11318,1.06911.101,1.08593.08412,1.10123.07036,1.11652.05506L27.455,34.639l1.141.02448,1.15476.00611,1.15323-.00611,1.14252-.02448,1.12877-.03823,1.11652-.05506,1.10123-.07036,1.08593-.08412,1.06911-.101,1.05228-.11318,1.0324-.12542,1.01558-.14071.9957-.15142.97275-.16518.95287-.17742.92992-.19119.90546-.20342.881-.2126.85651-.22483.829-.23707.803-.24625.77392-.25542.74486-.26766.71733-.27683.68368-.28449.65309-.29519.621-.30437.5858-.31048.55214-.31966.51544-.33037.48179-.33343.44508-.34413.40531-.35026.36708-.35637.32731-.36248.286-.36861.24625-.37319.20036-.38084.15907-.38238.11471-.38848.07036-.39308.02294-.3992L57.725,24.627l-.07036-.39308L57.54,23.8454,57.3809,23.46l-.20036-.37931-.24625-.37472-.286-.36861-.32731-.36249-.36708-.35637-.40531-.35025-.44508-.34261-.48179-.33648-.51544-.32731-.55214-.32119-.5858-.312-.621-.30284-.65309-.29519-.68368-.286-.71733-.27684-.74486-.26613-.77392-.25848-.803-.24625-.829-.23554L46.286,17.2365l-.881-.21566-.90545-.20036-.92993-.18966-.95287-.179-.97275-.16518-.99569-.153-1.01558-.13918-1.0324-.12695-1.05229-.11318L36.479,15.65654,35.393,15.57242l-1.10123-.07036L33.17529,15.447l-1.12876-.03823L30.904,15.38429l-1.15324-.00764-1.15476.00764Zm4.512.832,1.089.03671,1.07522.04894,1.063.06271,1.0477.078,1.0324.09024,1.01405.10248.99722.11624.97887.127.96052.13918.9391.15142.9177.16365.89627.17436.87487.18354.85039.19425.82593.20648.79992.21565.77392.22484.74792.234.71885.24319.6898.25389.66074.26.62861.27071.59956.27684.56591.28448.53226.29214.50014.29825.46343.30742.42978.31355.39155.31966.35484.32578.31508.3319.27683.33648.23554.34261.19425.34566.15294.35178.11012.35484.0673.361.02294.36249-.02294.364-.0673.3579-.11012.35637-.15294.35025-.19425.34872-.23554.34261-.27683.33648-.31508.3319-.35484.32578-.39155.31813-.42978.31355-.46343.30742-.50014.29825-.53226.29214-.56591.286-.59956.27684-.62861.27071-.66074.26-.6898.25236-.71886.24319-.74791.23554-.77392.22483-.79993.21566-.82592.20648-.85039.19425-.87487.18354-.89628.17436-.91769.16366-.9391.14989-.96052.14071-.97887.12694-.99722.11472-1.01405.104-1.0324.09024-1.0477.07648-1.063.0627-1.07523.05048-1.089.03671-1.10123.01988-1.11346.00765-1.11347-.00765L27.5376,33.807l-1.089-.03671-1.07676-.05048-1.063-.0627-1.04617-.07648-1.0324-.09024-1.01558-.104-.99722-.11472-.97887-.12694-.959-.14071-.9391-.14989-.91922-.16366-.89628-.17436-.87181-.18354-.85192-.19425-.82592-.20648-.79992-.21566-.77392-.22483-.74792-.23554-.71886-.24319L9.245,30.76021l-.65921-.26-.63015-.27071-.598-.27684-.56744-.286-.53226-.29214-.50014-.29825-.46343-.30742-.42826-.31355L4.473,28.13714l-.35178-.32578-.31813-.3319L3.52622,27.143l-.23554-.34261-.19424-.34872-.15295-.35025L2.83337,25.745l-.0673-.3579-.02294-.364.02294-.36249.0673-.361.11012-.35484.15295-.35178.19424-.34566.23554-.34261.27684-.33648.31813-.3319.35178-.32578.39308-.31966.42826-.31355L5.75774,20.97l.50014-.29825.53226-.29214.56744-.28448.598-.27684.63015-.27071.65921-.26.68979-.25389.71886-.24319.74792-.234.77392-.22484.79992-.21565.82592-.20648.85192-.19425.87181-.18354.89628-.17436.91922-.16365.9391-.15142.959-.13918.97887-.127.99722-.11624,1.01558-.10248,1.0324-.09024,1.04617-.078,1.063-.06271,1.07676-.04894,1.089-.03671,1.10123-.01989,1.11347-.00764,1.11346.00764ZM47.0263,21.75154H45.57788l-.00765.00153h-.03671l-.00612.00153h-.00611l-.00612.00153h-.00612l-.00612.00153h-.00611l-.01836.00612-.00459.00153-.01223.00459-.00459.00153-.00612.00153-.00459.00459-.00458.00153-.00612.00459-.01224.01223-.00611.00459-.00765.00765-.00459.00612-.00459.00458-.01682.02448-.00459.00764-.00459.00612-.00459.00765-.01682.02906-.02294.03824-.03059.04894-.03518.05965-.04283.06577-.04741.07341-.05353.08259-.0566.09024-.06118.09483-.06576.10248-.07036.10706-.07342.11012-.07647.11624-.07953.12083-.0826.12236-.08412.12695-.08565.12848-.08565.13153-.08871.13307-.09024.13306-.08871.1346-.09024.13306-.08871.1346-.09024.13153-.08565.13307-.08565.12848-.08565.12694-.0826.12236-.07953.12083-.078.11624-.07648.11318-.07035.10707-.13154.19883-.05965.08871-.05506.08412-.09483.14071-.03823.05965-.03059.049-.00612.00611-.00459.00765-.00612.00459-.00459.00612-.0107.0107-.00612.00459-.00459.00459-.00612.00459L42.655,25.953l-.00611.00459-.00765.00458-.00612.00153h-.00459l-.00611.00153h-.02294l-.01683-.00764-.01682-.01683-.00153-.00612-.00459-.00458-.00153-.00612-.00153-.00459-.00459-.01224-.00152-.00764v-.00612l-.00153-.00765v-.00611l-.00459-.026-.00459-.02906-.01224-.05354-.00764-.029-.00765-.026-.00764-.029-.01071-.026-.01224-.02905-.01223-.026-.01224-.02905-.01376-.026-.01683-.02906-.03212-.05353-.01682-.02906-.01988-.026-.01836-.026-.01988-.02447-.01988-.026-.023-.026-.02447-.02448-.02294-.02447-.02447-.02447-.026-.02448-.02448-.02447-.02906-.02294-.026-.02294-.02906-.02294-.03059-.02294-.02906-.01989-.03059-.02294L41.95,25.03536l-.03212-.01989-.06577-.0367-.03518-.01836-.03518-.01682-.03671-.01682-.0367-.01377-.02906-.01071-.026-.01223-.02906-.01071-.02906-.00765-.026-.0107-.0566-.01683-.026-.00764-.02906-.00765-.02906-.00612-.026-.00765-.02906-.00611-.029-.00459-.026-.00612-.029-.00612-.02906-.00459-.026-.00459-.05659-.00764-.026-.00153-.02906-.00153-.02906-.00459h-.026l-.05659-.00459h-.026l-.02906-.00153h-.05659l-.026.00153h-.02906l-.02906.00153H40.786l-.026.00153-.05659.00459-.02906.00459-.02906.00153-.05659.00764-.05048.00612-.05047.00765-.10248.01988-.04894.01071-.05047.01223-.049.01224-.09788.02906-.14683.04894-.04742.01836-.04894.01835-.04742.01836-.09482.04129-.04742.02294-.04741.01989-.04436.02294L39.567,25.118l-.04435.02294-.09024.049-.04436.026-.04435.02447-.04283.026-.04435.026-.04283.026-.04282.02906-.04283.026-.12847.08566-.0413.02905-.04283.03059-.04129.02906-.0413.03059-.0413.02906-.04129.03059-.06118.04742-.1193.09483-.06118.04741-.1193.09789-.05659.04894-.05965.05047-.05965.04895-.11471.10247-.05965.05047-.0566.05048-.05965.05353-.05659.05048-.05659.05353-.05965.05047-.05659.05353-.05965.05048-.05659.05353-.05965.05047-.05965.05354-.05659.05047-.05965.05047-.06118.05354-.1193.10247L37.1,27.05275l-.12236.10248-.06118.04894-.06271.04894-.06118.049-.06577.04741-.06271.04894-.06576.04742-.06271.04435-.0673.04742-.06577.04435-.0673.04283-.03823.02447-.03671.02447-.078.04436L36.141,27.741l-.03824.02294-.0413.02294-.04129.01988-.04283.01989-.04129.01988-.08565.03671-.0413.01682-.08565.03212-.04283.01224-.04435.01376-.04283.01224-.04282.01071L35.465,27.998l-.08565.01223-.04283.00459h-.12542l-.04282-.00459-.0826-.01223-.03823-.01071-.0413-.0107-.078-.02906-.0367-.01835-.03824-.01989-.03671-.02294-.03518-.02447-.03518-.026-.03518-.03059-.03059-.02906-.026-.03059-.026-.03212-.02447-.03212-.02447-.03671-.01989-.03671-.01835-.03671-.01835-.03823-.01683-.0413-.01376-.04282-.01071-.04283-.01224-.04283-.00764-.04435-.00612-.04741-.00764-.09483v-.09636l.00458-.05047.00459-.049.01683-.10247.0107-.05048.01224-.05353.01376-.05047.01836-.05353.01835-.05048.01988-.05353.02294-.05353.02448-.05353.026-.05048.02906-.05353.03212-.05047.03212-.05354.03518-.05047.0367-.05047.03824-.04895.04283-.05047.04282-.04894L34.977,25.953l.00459-.00459.00612-.00458.00459-.00459.00612-.00459.00459-.00459.00459-.00153.00611-.00153.00459-.00153.00612-.00153H35.029l.00612-.00152h.01835l.00459.00152h.00459l.00611.00153.00765.00459.00153.00153.01223.00612.00153.00459.00459.00153.00459.00764.00612.00612v.00459l.00459.00764v.00459l.00152.00459V26.002l-.01223.0673-.00153.01989-.00459.04435-.00153.01988v.06577l.00153.01988v.023l.00459.04129.00459.02294.00153.01989.00459.01988.00611.01989.00459.01988.01224.0413.00612.01835.00764.01988.00612.01989.00765.01835.0107.01988.00765.01836.03059.05506.01223.01835.01224.01682.01223.01836.01224.01682.01376.01835.02906.03212.01683.01682.01682.01377.01683.01682.01988.01836.01988.01682.02294.01682.02295.01377.01988.01683.02447.01223.02294.01377.023.01223.04894.01989.02294.0107.02447.01071.02448.00764.026.00612.02447.00765.02447.00612.026.00458.02448.00459.05353.00765.026.00153h.02447l.026.00153h.026L36.037,26.987l.05353-.00765.05353-.01223.02448-.00612.07953-.02447.02447-.01071.026-.0107.02448-.01071.026-.01223.02906-.01377.05659-.03212.026-.01682.07953-.05506.02448-.01836.04894-.04129.02294-.01989.02294-.02294.02294-.01988.01989-.02294.01988-.02448.01989-.02294.01988-.02447.03671-.04894.01835-.026.01682-.02447.03212-.05353.01377-.026.01377-.02906.01376-.026.01377-.02906.02447-.05659.01224-.03059.0107-.02906.01071-.03059.01071-.02906.03212-.12236.00611-.03212.00612-.03059.00612-.03212.00612-.04894.00458-.04894.00153-.04895v-.04741l-.00153-.04742-.00458-.04894-.00612-.04435-.00765-.04742-.0107-.04435L37.00972,25.43,36.996,25.3856l-.01376-.04282-.01835-.0413-.01836-.04283-.02294-.04129-.04435-.078-.026-.03823-.026-.03671-.029-.03518-.03059-.03518-.0306-.03212-.03211-.03212-.03518-.03059-.03518-.02906-.03671-.02906-.03671-.026-.078-.04894-.0413-.02295-.0413-.01988-.08565-.03671-.04282-.01376-.04436-.01377-.04435-.01223-.04742-.01071-.04741-.00765L36.04,24.62239l-.04742-.00459-.04129-.00153-.078-.00459-.03824.00153h-.0367l-.078.00459-.11624.01223-.03671.00612-.03823.00612-.03824.00765-.03671.00764-.03823.00765-.03671.01071-.03824.0107-.03671.01224-.03823.01224-.03671.01223-.03824.01377-.03671.01376-.0367.01683-.03824.01682-.03671.01682-.07341.03671-.03671.01989-.03824.01988-.03671.01988-.07341.04436-.11013.07341-.07341.05353-.07342.0566-.03518.02905-.01835.01683-.01835.01376-.01683.01377-.01835.01377-.06576.05659-.01377.01377-.01683.01376-.01376.01224-.02906.02906-.01682.01376-.01377.01377-.01224.01377-.05659.05659-.01223.01682-.01377.01377-.01377.01682-.01223.01377-.02906.03212-.01223.01682-.01377.01683-.01377.01835-.01376.01682-.01377.01835-.01224.01836-.029.0367-.01683.01989-.02906.0413-.01682.01988-.01377.01988-.01682.02294-.00459.00612-.00459.00459-.00459.00612-.01682.01682-.00459.00153-.00459.00459-.00459.00153-.00459.00459-.00611.00153-.00765.00459h-.00459l-.00459.00152h-.00459l-.00459.00153H33.81l-.00459-.00153h-.00459l-.00153-.00152-.00459-.00153h-.00459l-.00153-.00459-.00458-.00153-.00153-.00153-.00153-.00459-.00459-.00459-.00459-.00764-.00153-.00612V25.8108l-.00459-.01223v-.153l-.00459-.1193-.00458-.05659-.00612-.05506-.01683-.10707-.0107-.05047-.02447-.09789-.01377-.04741-.03212-.09024-.01835-.0413-.01989-.0413-.01988-.03823-.02294-.03824-.02448-.03671-.02447-.03517-.026-.03212-.05659-.06118-.03059-.02906-.03212-.026-.03212-.02448-.03518-.02447-.03671-.02294-.03823-.01988-.03824-.01836-.03824-.01682-.04282-.01682-.0413-.01377L33.03,24.4725l-.04436-.0107-.04741-.00765-.09789-.01224-.05047-.00459-.05353-.00153h-.0826l-.04129.00153-.0413.00459-.04283.00459-.04129.00459-.0413.00612-.04282.00612-.0413.00764-.0413.01071-.04282.00765-.0413.01223-.0413.01071-.04282.01377-.0413.01223-.08259.02906-.12236.049-.08259.0367-.0413.01989-.03824.01835-.04129.01988-.03824.023-.03824.01988-.11624.06729-.03824.02448-.14683.09788-.0367.026-.03518.02448-.03671.026-.07036.05353-.14683.12236-.03671.03212-.03518.03212-.07341.06576-.10707.101-.07035.07036-.03671.03518-.03518.03517-.03518.03671-.03518.03518-.03518.03671-.03518.03518-.03517.03671-.03212.0367-.13919.14684-.03211.0367-.03518.03824-.07036.07342-.0673.07647-.03518.03671-.03518.03823-.07035.07342-.03518.03824-.104.11012-.03518.03824-.01223.01223-.00459.00153-.00765.00765-.00611.00152-.00459.00153-.00153.00459-.00459.00153h-.00459l-.00765.00459h-.00458l-.00459.00153h-.00612l-.00459-.00153h-.00612l-.00459-.00153-.00152-.00153-.00459-.00153-.00153-.00152-.00459-.00153-.00153-.00459-.00612-.00612-.00153-.00459-.00152-.00612-.00459-.00459-.00765-.02447v-.00612l-.00612-.02447v-.00764l-.00153-.0413-.00152-.04283-.00153-.04129-.00153-.04283-.01989-.205-.01835-.12236-.00764-.03824-.00612-.04129-.00765-.03824-.00764-.0413-.01071-.03823-.00765-.03824-.0107-.03671-.01989-.078-.01223-.03671-.01071-.03671-.01223-.03671-.01377-.0367-.01223-.03671-.01224-.03518-.02906-.07036-.01682-.03518-.01377-.03211-.01682-.03518-.03212-.06577-.01683-.03059-.01835-.03212-.01835-.03059-.01835-.02906-.01836-.03059-.01835-.02906-.01682-.01988-.00612-.00765-.00765-.01071-.0107-.00765-.01683-.01682-.01988-.01682-.01071-.00612-.0107-.00765-.01989-.01223-.01223-.00612-.01071-.00612-.01223-.00459-.01071-.00459-.01223-.00611-.01224-.00153-.02447-.00765-.04894-.00765H28.8851l-.01223.00153h-.01224l-.01377.00153-.01223.00459-.01224.00153-.02447.00765-.01377.00459-.0367.01835-.00612.00459-.00612.00153-.02447.01224-.00765.00611-.0107.00459-.01071.00612-.01071.00459-.01223.00612L28.648,24.887l-.01223.00612-.01377.00612-.01223.00612-.01224.00764-.01377.00612-.01376.00765-.01377.00612-.04282.02447-.01683.00764-.01376.01071-.03212.01682-.01377.01071-.01682.00765-.01683.0107-.01376.01071-.049.03059-.01376.01071-.01683.0107-.01376.01071-.01683.01071-.01376.01223-.01683.01071-.01376.01223-.01377.01071-.00612.00612-.00765.00611-.02447.02448-.00459.00764-.01223.01224-.00459.00764-.00459.00612-.00612.00765-.00459.00612-.00764.01682-.00153.00765-.00459.00764-.00153.00612-.00459.00765-.00153.0107-.00764.03212v.01071l-.00153.00764v.0566l.00459.01988v.00765l.00153.01223.00459.01988.00458.01071.00153.01071.03671.12694.01377.06271.01682.06271.01224.06577.01376.06271.03059.19577.00765.06577.01223.13154.00459.0673.00459.06576.00153.0673.00153.06577v.06576l-.00153.0673-.00153.06577-.00153.0673-.00459.06576-.00611.0673-.00612.06577-.01682.13154-.01071.06576-.01224.06577-.0107.06577-.02906.13153-.01377.06271-.01682.06271-.01835.06577-.01836.06118-.04129.12695-.04436.12235-.02447.06119-.02447.05964-.04895.11013-.026.05506-.026.05353-.02906.05353-.03059.05353-.02906.05354-.03212.05047-.03211.05353-.03212.04894-.03518.05048L27.6294,28.7l-.07342.09789-.03671.04741-.078.09483-.0413.04435-.04129.04283-.04283.04435-.0413.0413-.04435.0413-.04283.04129-.09023.078-.09483.07341-.04742.03518-.04894.03212-.04741.03212-.049.03059-.05047.02906-.04894.02906-.10248.05353-.05353.02294-.05048.02294-.10706.0413-.05353.01682-.03671.01224-.03518.01071-.03671.00764-.03518.00765-.03517.00612-.03671.00764-.03518.00459-.03518.00612-.03671.00153-.03518.00459L25.95,29.763h-.07035l-.104-.00611-.03518-.00459L25.67471,29.74l-.03518-.00611-.03212-.00765-.03212-.01071-.03059-.0107-.03212-.01071-.03059-.01377-.03059-.01223-.03059-.01682-.03059-.01377-.03059-.01835-.0566-.03671-.029-.01989-.05354-.04435-.026-.02447-.026-.026-.04894-.05354-.02447-.03059-.023-.02906-.03059-.04435-.02906-.04435-.04894-.09483-.0413-.10248-.01682-.05047-.01682-.05353-.01224-.05506-.01071-.05506-.0107-.0566-.01224-.11471-.00153-.05965v-.12236l.00765-.12235.00765-.06271.01988-.127.01223-.06577.01683-.06271.01682-.06576.01836-.06577.01988-.06577.02294-.06576.02447-.06577.026-.06577.02906-.06576.06118-.13154.07036-.13154.03671-.06576.03823-.06271.0413-.06271.08565-.127.04742-.06271.04129-.05353.08565-.10706.04436-.05048.09024-.09788.04741-.049.04742-.04741.04894-.04742.09788-.09024.05048-.04435.05047-.04283.10248-.08259.05353-.0413.05353-.03823.05506-.03824.05353-.03824.11013-.07341.05506-.03518.05659-.03518.05506-.03212.1713-.09788.05659-.03059.05965-.02906.05659-.03059.05965-.02906.0566-.02906.17741-.07953.17742-.07342.1193-.04435.00765-.00153.00612-.00459.00611-.00153.00612-.00459.00612-.00153.00459-.00459.00611-.00153.00459-.00458.00612-.00459.00459-.00153.01223-.01224.00153-.00459.00459-.00152.00459-.00459.00612-.01224.00153-.00612.00611-.01223v-.00459l.00153-.00612v-.00764l.00153-.00612v-.01377l-.00153-.00611V25.329l-.00153-.00612v-.00612l-.00152-.00459-.00612-.01835-.00153-.0107-.00459-.01071-.00459-.00765-.00153-.0107-.00459-.01224-.00764-.01988-.00153-.01071-.00765-.01988-.00459-.01224-.00764-.01988-.00459-.01224-.01224-.03059-.00458-.01223-.00765-.01989-.00153-.0107-.00765-.01989-.01376-.04129-.00459-.00765-.00459-.01071-.00153-.00764-.00459-.00765-.00459-.01071-.00152-.00765-.00459-.00764-.00153-.00765-.00153-.00612-.00459-.00765L27.5269,24.913l-.01223-.02906-.00612-.01224-.00765-.01223-.00611-.01224-.00765-.01071-.00765-.01223-.0107-.00765-.00765-.01071-.0107-.0107-.01989-.01683-.01223-.00764-.01071-.00612-.04894-.02447-.01377-.00459-.01223-.00459-.04283-.01224-.01377-.00153-.01682-.00153-.01377-.00153-.01682-.00153-.01377-.00153h-.01682l-.01682-.00153h-.08566l-.01835.00153h-.01835l-.05506.00612-.04283.00459-.12847.01835-.0413.00765-.04282.00765-.0413.00765-.04283.00764-.04129.00765-.0413.01071-.04283.00764-.04129.01071-.0413.01224-.0413.0107-.03823.01224-.12236.03671-.03824.01223-.04129.01377-.03824.01376-.0413.01377-.03823.01376-.0413.01377-.03824.01682-.03823.01377-.078.03212-.04129.01682-.03824.01835-.03824.01683-.156.07341-.03671.01836-.03824.01988-.03824.01835-.078.0413-.10095.05506-.09635.05659-.09483.05965-.09483.06118-.08871.06271-.08871.06577-.08565.0673-.08259.06729-.08259.07189-.078.07189-.07647.07189-.1453.14988-.07036.078-.0673.07647-.06576.078-.06271.078-.05965.07953-.05965.078-.05659.07953-.05506.078-.05354.07953-.05047.078-.04894.07953-.09483.156-.08565.15143-.03824.07647-.03823.07341-.03671.07342-.03671.07036-.03212.07188-.03212.0673-.03059.0673-.02906.06271-.026.06271-.026.06118-.02447.05965-.023.05659-.0107.02447-.01071.026-.0107.02448-.01071.026-.01071.02447-.0107.02294-.01071.02448-.0413.09024-.0107.01988-.01071.02294-.03059.06118-.01071.01835-.0107.01989-.06118.11012-.01071.01683-.0107.01835-.01989.03212-.01223.01682-.03059.04894-.01224.01377-.01071.01682-.01223.01377-.01071.01682-.01224.01377-.0107.01683-.02447.029-.01377.01989-.01682.01835L22.602,28.908l-.01835.01989-.01682.01835-.01683.01989-.01835.01835-.03671.04129-.01835.01836-.03671.04129-.10248.10248-.02294.01988-.04436.04436-.02447.01988-.02294.02294-.02447.02294-.02447.02448-.026.02294-.07954.07341-.05659.049-.02906.026-.06118.05353-.03059.02906-.06577.05659-.03517.02906-.03212.03059-.03671.03059-.03518.03059-.00459.00459-.00459.00153-.00153.00459-.0107.0107-.00459.00765-.00459.00459-.00612.01223-.00459.00612-.00459.00765-.00153.00611-.00153.00459v.00459l-.00153.00612-.00153.00459-.00153.00612v.00611l-.00153.00459v.01071l-.00153.00612v.01682l.00153.00612v.01223l.00153.00459v.00612l.00459.01223.00153.00459.00612.01835.00459.00765.00612.00765.00458.0107.00612.01071.00765.01223.00612.01224.01682.02447.00765.01377.03059.04282.01071.01683.0107.01376.01071.01683.01223.01682.01224.01377.01071.01682.02447.03212.01071.01377.02447.03212.01223.01376.01071.01377.01224.01377.0107.01376.01224.01224.03059.03671.04435.04435.00765.00612.00612.00612.00612.00458.01223.00459.00612.00459.00612.00153h.00612l.01223.00459h.01224l.00612.00153h.01223l.00612-.00153h.01224l.00611-.00153h.00459l.01224-.00459h.00612l.00611-.00153.00459-.00153.01224-.00458.00459-.00153.00612-.00153.00459-.00153.00611-.00459.00459-.00153.00612-.00153.01224-.00611.00458-.00459.01224-.00612.00153-.00153.00459-.00153.00153-.00153.00459-.00152.02447-.01836.10706-.07341.02448-.01989.02906-.01835.07953-.06118.026-.02294.026-.01989.026-.02294.026-.01988.07953-.0673.02447-.02294.026-.02294.02447-.02294.026-.02294.09789-.09024.02294-.01989.0673-.0673.02294-.01988.01989-.02294.01988-.01989.01988-.02294.01988-.01988.03671-.0413.01683-.01835.01835-.01988.01682-.01836.01377-.01835.00612-.00612.00459-.00611.0107-.01071.00612-.00459.00459-.00459.00612-.00459.00611-.00153.00459-.00152.00612-.00153.00459-.00153.00612-.00153h.00458l.00459-.00153h.00612l.00459.00153h.01071l.00458.00153.00612.00153.00459.00153.00459.00458.00459.00153.00612.00459.01223.01224.00459.00611.00459.00459.01224.01836.00153.00764.00459.00612.00458.00765.00153.00764.00765.01683.00153.0107.00153.00765.01683.04894.01376.04894.01683.04895.0367.09482.01989.04742.01988.04435.02294.04436.02447.04435.023.04436.07953.12847.05659.08259.03059.0413.03059.03824.03212.03823.06577.07342.03518.03671.0367.03671.03671.03212.03671.03517.078.06577.0413.03059.0413.02906.04129.03059.04283.026.04282.02906.04436.02447.04435.026.04436.02294.04741.02447.04742.01988.04894.02295.04741.01835.05048.01835.04894.01835.09177.02906.09483.02447.09177.023.09177.01835.09483.01376.09176.01071.09483.00765.09177.00459h.09177l.09483-.00153.09177-.00612.18353-.01988.09177-.01683.09177-.01835.09024-.01988.09177-.02448.09024-.026.09024-.03059.08871-.03212.09024-.03518.08871-.03823.08871-.0413.08871-.04283.1713-.09482.08565-.05048.08413-.05353.08412-.05506.08259-.05659.08412-.05965.07954-.06118.08259-.06577.078-.06577.07953-.06729.07647-.07036.078-.07189.07647-.07341.07342-.07648.07188-.078.04742-.04894.08565-.09483.04129-.04742.078-.09024.03671-.04435.0367-.04283.03518-.04129.03518-.04283.03212-.03823.03059-.0413.06118-.078.02906-.0367.05353-.07342.05354-.07035.02447-.03518.02294-.03212.02447-.03212.02294-.03212.01989-.03059.02294-.03059.01988-.03059.0413-.05659.01835-.02906.01989-.026.01835-.02906.01835-.02448.01835-.026.03671-.04894.01683-.02447.01835-.02295.01682-.02447.01835-.02294.01836-.01988.06118-.078.07035-.08565.03518-.04741.03824-.04742.03824-.04894.03823-.05047.08565-.10707.04283-.05659.04435-.05506.04742-.05659.04741-.05965.04894-.05965.04895-.06118.10247-.12236.05353-.06271.16519-.19119.05659-.0627.05659-.06577.05965-.06271.05965-.06577.18354-.19118.06271-.06271.12847-.12542.06577-.05965.06577-.06118.0673-.05965.13459-.11471.07036-.0566.07035-.05506.07036-.05353.02447-.01835.026-.01835.026-.01989.026-.01835.026-.01682.05353-.03671.07953-.04894.02906-.01683.10706-.05659.05353-.02447.02448-.01071.026-.01223.026-.01071.02447-.00765.02448-.0107.02447-.00612.02447-.00765.04895-.01223.04435-.00765.04435-.00459h.04283l.01988.00153.01836.00153.01988.00459.01835.00459.01683.00612.01835.00611.01682.00765.01377.00765.01223.00764.01224.01071.0107.00765.01224.0107.01071.01071.00764.0107.01071.01224.02447.03671.01224.02906.00611.01682.00459.01377.00459.01682.00459.01835.00153.01683.00459.0367v.06119l-.00153.02294-.00459.02294-.00153.02294-.00612.02447-.00458.02447-.00612.026-.00765.02447-.00764.02906-.01071.026-.01988.05659-.01224.03059-.01377.03059-.01376.03212-.03212.06577-.03671.07035-.14683.26155-.07647.13153-.07648.13307-.156.26613-.15907.26613-.08259.13306-.07954.13307-.16365.26154-.07954.13153L31.187,28.547l-.15907.2539-.07953.12541-.078.12236-.078.12083-.07647.1193-.07342.11624-.07341.11471-.07189.11319-.07036.10859-.07035.104-.06577.10248L30.228,30.049l-.06118.09483-.05965.09177-.05506.08871-.05506.08412-.04894.07954-.04742.07647-.04435.07036-.0413.06729-.0367.05965-.03212.0566-.03059.05047-.02448.04435-.02294.03824-.00153.00612-.00458.00612-.01224.0367V31.037l.00153.00459.00153.00612.00153.00459v.00459l.00458.00458.00459.00765.00459.00459.00153.00459.00459.00153.00459.00459.00459.00152.00459.00459.01223.00612.00612.00153.00459.00153.00612.00153h.00611l.00612.00153h.01224l.00611.00152h.0826l.0367-.00152h1.349l.00459-.00153h.0107l.00612-.00153H31.242l.00459-.00153h.00612l.00764-.00459H31.265l.01224-.00612.00153-.00153.01223-.00611.00153-.00153.00765-.00459.00152-.00459.00459-.00153.00765-.00764.00459-.00153.00153-.00459.00611-.00612.00153-.00459.00459-.00153.00153-.00459.00459-.00458.00153-.00459.00612-.00612.00458-.00765.05507-.08565.05506-.08412.05506-.08565.05353-.08412.05506-.08412.05353-.08413.05506-.08412.05353-.08412.05506-.08412.15907-.25237.05506-.08412.05353-.0826.05353-.08412.05353-.08259.05354-.08412.05353-.0826.05353-.08412.05506-.08259.05353-.08412.05353-.0826.05353-.08412.05354-.08259.05353-.08413.05506-.08259.05353-.08412.05353-.08259.05506-.08413.05353-.08259.05354-.08412.05506-.0826.05353-.08412.05506-.08259.05506-.08412.05353-.08413.05506-.08412.05506-.08259.11471-.17436.00153-.00459.01224-.01224.00459-.00153.00459-.00458.00458-.00153H33.55l.00459-.00153h.01224l.00153.00153h.00152l.00153.00153h.00153l.01377.01376v.00153l.00459.00459v.00153l.00153.00459V27.663l.00152.00152v.00459l.00153.00153v.02447l.01071.10248.00153.02294.00153.01988.00459.023.00152.02294.00459.02294.00459.01988.00153.02294.00765.04436.00611.02294.00765.04435.01223.04436.00459.02294.01224.04435.00764.02294.01224.04436.00765.01988.00764.02294.00765.01989.00764.02294.01683.0413.0107.01988.00765.01988.01071.01836.0107.01988.01071.01835.01223.01836.01071.01835.03212.04894.02294.03059.01989.03059.02294.02906.02447.02906.04435.05353.02448.026.04894.049.026.02294.02447.02294.05354.04129.026.01836.026.01988.026.01683.026.01835.02906.01682.11471.05659.02906.01224.03059.0107.02906.01071.06118.01989.06118.01682.03059.00612.03212.00611.03059.00612.03212.00459.03059.00459.03212.00459.09789.00612h.13153l.02448-.00153h.02294l.02447-.00153h.01988l.04436-.00459.0413-.00459.02294-.00153.01988-.00459.01988-.00153.06119-.01223.01835-.00459L35.419,29.093l.0413-.01224.01988-.00459.02294-.00612L35.523,29.064l.023-.00765.01988-.00612.02294-.00764.02294-.00612.02448-.00765.02294-.00764.04894-.01683.02447-.0107.026-.00765.05354-.01988.02905-.01071.04436-.01682.02294-.01071.04435-.01682.01989-.01071.02294-.00765.01988-.0107.02295-.00765.04129-.01988.01989-.00765.04129-.01988.01836-.01071.01988-.01071.01835-.0107.01989-.00765.09176-.05047L36.326,28.726l.01835-.0107.01682-.01071.01836-.01071.01682-.01223.08259-.05048.01377-.0107.01682-.01071.02906-.01988.01683-.01071.02906-.01988.00764-.00459.00612-.00459.01682-.00765.01836-.00612h.02294l.00764.00459h.00459l.00459.00459.00765.00459.00153.00459.00458.00153.00153.00459.00459.00459.01071.01988v.00459l.00459.00765v.00458l.00153.00459v.01224l.00152.00153v.01223l-.01223.0673-.01071.07036-.0107.06729-.00765.07036-.00459.07035-.00612.07189-.00458.13918.00152.07036.00153.07189.00765.13918.01682.13918.01224.07036.01223.0673.01377.06729.01682.0673.01989.0673.01988.06577.02294.06576.02448.06271.026.06271.02906.06118.03059.05965.03212.05965.0367.05965.03671.05659.03824.05506.04282.05354.04436.05047.04741.05047.04894.049.05048.04741.05353.04436.05659.04282.05965.0413.06118.03823.06271.03671.0673.03518.07953.03671.0826.03212.08259.02906.08412.02294.0826.01988.08259.01377.08412.01223.08259.00612.08413.00459h.08259l.08259-.00459.0826-.00612.08259-.0107.08259-.01224.0826-.01682.15906-.0413.07954-.02447.078-.02906.07954-.02906.07647-.03059.078-.03518.07648-.03518.07341-.03823.07648-.03824.07188-.0413.14377-.08565.07036-.04435.0673-.04742.13153-.09482.06577-.04895.06118-.04894.06118-.05047.05965-.04895.05659-.05047.16825-.156.00459-.00612.00611-.00458.00459-.00459.00612-.00153.00459-.00459.00612-.00153.00459-.00459.00611-.00153.00765-.00459h.00612l.00459-.00152H40.708l.00459.00152h.00458l.00765.00459.00459.00459.00459.00153.00153.00459.00764.00765.00153.00458.00153.00612.00459.00459.00459.01224.00153.00764.00153.00612.00458.01682v.00765l.00153.01071v.0107l.00153.01071v.01835l.00153.01988.00153.01836.00153.01988.00459.01989.00153.01835.01682.08259.01223.0413.00459.01988.00612.01989.00765.01988.00611.01988.00765.01989.00612.01988.00764.01989.01071.01835.01682.0413.01989.04129.0107.01835.01071.01989.01224.01835.0107.01989.03671.05506.01377.01835.01223.01835.01377.01835.01376.01683.01377.01835.01377.01682.01376.01836.01683.01682.01682.01377.04283.04282.09483.07342.05047.03059.05353.03059.05353.026.0566.02294.05659.01989.05965.01835.06118.01682.12694.01989.0673.00611.0673.00459h.07036l.07035-.00153.07189-.00459.07342-.00764.07341-.01071.07647-.01223.07648-.01683.078-.01835.15907-.04435.07953-.026.16366-.06119.08259-.03518.08412-.0367.08413-.0413.08412-.04283.08565-.04435.08565-.04741.08565-.05048.08565-.05353.08565-.05506.08565-.05659.08871-.06118.08871-.06271L44.004,30.465l.05506-.04282.0566-.04283.05506-.04435.05659-.04742.05659-.04435.05506-.04742.11471-.09788.05506-.04894.11472-.10248.05506-.05047.1713-.15907.16977-.16366.05506-.05659.05659-.05506.0566-.05659.05506-.05965.05659-.05659.05506-.05965.05659-.05965.11012-.1193.05506-.06118.11319-.12083L45.743,28.807l.05506-.06118.05506-.06271.05506-.06118.05353-.06271.05506-.06271.2126-.25389.00153-.00153.00153-.00459.00458-.00459.00153-.00459.00153-.00153v-.00153l.00153-.00459.00153-.00152.00153-.00459V28.212l.00153-.00459v-.00459l.00153-.00153v-.00459l.00152-.00459v-.00152l.00153-.00459V28.16l-.00153-.00153v-.00765l-.00458-.00765v-.00458l-.00612-.01224L46.234,28.1218l-.00459-.00764-.00459-.00153-.00153-.00459L46.211,28.0958l-.00765-.0107-.00764-.00765L46.185,28.0698l-.03518-.03518-.01071-.00764-.01835-.01835-.01071-.00765-.00764-.00765-.01071-.00764-.01835-.01835-.01071-.00765L46.052,27.949l-.01989-.01682-.01835-.01835-.03059-.02448-.01835-.01682-.01836-.01835-.01988-.01683-.01682-.01682-.01071-.00765-.00765-.00611-.00764-.00765-.01071-.00765-.00764-.00764-.00765-.00612L45.85009,27.77l-.00459-.00152-.00152-.00459-.02906-.01377h-.00459l-.00459-.00153h-.00459L45.795,27.7471h-.00764l-.00459-.00153h-.02294l-.00459.00153h-.00765l-.00459.00153h-.00459l-.00458.00153h-.00459l-.00765.00459H45.717l-.00764.00459-.00153.00153-.01224.00611-.00153.00153L45.6895,27.77l-.00152.00153-.05506.05047-.10707.10248-.05353.05353-.10859.104-.10707.10706-.05047.05353-.05353.05353-.05353.05506-.05506.05354-.10707.10706-.05353.05506-.05506.05353-.05353.05506-.11012.10707-.05507.05506-.05506.05353-.05659.05353-.05506.05506-.05659.05353-.05965.05353-.05659.05353-.1193.10707-.06118.05047L44.03,29.3714l-.06271.05048-.06118.05047-.06271.05353-.06271.04895-.06577.05047-.06729.05048-.06577.04894-.0673.04894-.13918.09789-.04894.03212-.026.01376-.02447.01683-.026.01376-.02906.01683-.026.01376-.02906.01377-.026.01224-.02906.01376-.02906.01224-.03059.01223-.05659.01989-.03059.0107-.02906.01071-.02906.00765-.03059.00611-.05659.01224-.03059.00459-.02906.00459-.05659.00458h-.026l-.02906-.00152-.05353-.00459-.026-.00612-.04894-.01224L42.47,30.07956l-.04436-.02447L42.3843,30.023l-.01989-.01835-.01835-.01989-.02447-.03059-.00612-.00764-.00459-.01071-.00612-.00765-.00458-.0107-.00612-.01071-.00765-.01988-.00153-.01071-.00459-.01071-.00152-.0107-.00459-.01071-.00153-.01223-.00153-.01071v-.01224l-.00153-.01223v-.02294l-.00153-.01224.00153-.01223v-.02447l.00153-.01377.00153-.01224v-.01223l.00153-.01377.00459-.01223.00152-.01377.00459-.01377.00153-.01376.01683-.05659.00611-.01683.00459-.01376.00612-.01683.00612-.01377.01223-.03211.02906-.06119.0413-.08259.05659-.10247.07036-.12083.08259-.13919.09177-.156.104-.16977.11318-.18354.12236-.19578.13154-.20954.13765-.21871.1453-.22942.15142-.24013.15754-.24319.15907-.25237.16518-.25542.16825-.26154.16977-.26154.1713-.26613.1713-.26461.1713-.26613.17131-.2646.16977-.26.16518-.25542.16366-.25237.16212-.24625.156-.23707.14989-.22942.14377-.22177.13765-.20954.12848-.19884.12083-.18353.11012-.16978.101-.156.09024-.13919.07953-.12083.06577-.104L47.118,21.958l.03824-.06271.02447-.03824.00153-.00612.00459-.00459.00153-.00611.00153-.00459v-.00459l.00152-.00459.00153-.00612v-.02447l-.00153-.00459v-.00459l-.00152-.00153-.00153-.00459V21.776l-.00765-.00765-.00153-.00459-.00459-.00153-.00153-.00459-.029-.01377h-.00459l-.00612-.00153-.00459-.00153h-.01223l-.00612-.00153h-.08565Zm-24.90919-4.07-.24013.01071-.24166.01376-.24012.01683-.20037.01988-.19883.02294-.19883.02906-.1973.03212-.19731.03671-.19424.04282-.19272.04742-.18965.05047-.1866.05506-.1866.05965-.182.06271-.18048.0673-.17589.07341-.17436.07648-.16977.08259-.16518.08412-.15907.08871-.15754.09483-.153.09636-.14683.10094-.14377.104-.13765.10706-.13307.11318-.12541.11472-.12083.12083-.11472.12083-.10859.12694-.10248.12848-.09482.13459-.08871.1346-.07954.14071-.07341.14072L16.3999,20.58l-.05659.14988-.04894.153-.0413.156-.03212.15907L16.198,21.36l-.01377.16366-.00611.16977.00153.08412.00458.08565.00765.0826.01071.08412.01223.08259.01683.07953.01988.07954.02294.078.02448.07647.026.07648.03059.07188.03212.07342.0367.07036.03671.06729.0413.0673.04435.06577.04436.06118.04894.06118.05048.05965.05353.05506.05506.05506.1193.10248.06271.04741.06577.04436.06729.04129.07036.0413.07188.03671.07342.03212.07648.03211.078.026.07953.026.08259.02294.08413.01835.08565.01683.08565.01223.09024.00765.09177.00612.09177.00153h.09482l.11319-.00612.11012-.0107.11012-.01377.1086-.01835.10706-.023.10706-.026.10707-.02906.10247-.03518.104-.0367.10094-.0413.10095-.04283.1973-.09788.09636-.05506.09483-.0566.09483-.06117.09023-.06271.09024-.06577.09024-.07036.08565-.07188.08566-.07648.08412-.078.08259-.07953.07953-.0826.07954-.08565.078-.08871.07342-.08871.07341-.09177.07189-.09482.07035-.09636.0673-.09789.06577-.09789.06577-.10247.06117-.10248.05965-.104.05659-.10707.0566-.10859.05353-.10859L21.59709,21.1l.04894-.11318.01836-.04129.01376-.0413.01224-.0413.01682-.07341.00459-.03671.00459-.03212.00153-.03212-.00459-.06118-.00459-.02906-.00612-.026-.01682-.04894-.01071-.023-.01223-.01988-.01224-.01835-.01376-.01836-.01377-.01682-.01682-.01377-.01683-.01223-.01835-.01071-.03671-.01682-.01988-.00612-.01835-.00459-.01989-.00153h-.01988l-.01988.00153-.01989.00459-.04129.01224-.0413.01988-.01988.01376-.01836.01377-.0367.03671-.01836.01988-.04435.0673-.02906.04435-.03059.04283-.03059.04129-.03059.04283-.09789.12236-.03212.03823-.03518.0413-.03518.03824L20.84,20.999l-.03518.03823-.03671.03671-.03518.03671-.0367.03518-.03671.0367-.03824.03518-.03671.03518-.156.13154-.03823.03059-.12236.09177-.12236.08565-.04282.026-.0413.026-.04283.026-.1713.09789-.08565.04435-.04436.01989-.10706.04894-.10706.0413-.05353.01835-.05354.01682-.05047.01377-.05353.01376-.05353.01224-.05048.00765-.05353.00765-.05047.00764-.04894.00459-.05048.00459-.04894.00153h-.05047l-.04742-.00153-.04894-.00459-.04741-.00459-.09024-.01682L18.607,21.9932l-.04282-.01223-.04283-.01377-.0413-.01376-.03823-.01683-.078-.04129-.07035-.04436-.03518-.026-.03059-.026-.03059-.03059-.02906-.03059-.026-.03212-.026-.03518-.023-.03518-.02294-.03823-.01988-.03824-.01836-.04283-.01988-.05965-.01988-.06271-.01377-.0627-.0107-.06271L17.96,21.20246l-.00459-.0673v-.0673l.00459-.06729.00612-.07036.0107-.07035.01377-.07036.01835-.07189.01989-.07188.02447-.07036.02906-.07188.03212-.07189.03517-.07188.03824-.07189.04283-.07035.04435-.07189.04894-.07036.05354-.07035.05506-.07036.12236-.13459.06729-.0673.07036-.06577.07342-.06271.07647-.06271.07953-.06118.08413-.06117.08565-.0566.09024-.05659.09177-.05506.09635-.05506.101-.05047.10247-.04895.10707-.04894.11012-.04435.11318-.04283.16366-.05965.16518-.05353.16519-.04741.16518-.04436.16824-.03824.16519-.03517.16824-.03059.16518-.026.16825-.02294.16824-.01835.16824-.01683.338-.01988.16824-.00459.16977-.00153H22.579l.16824.00459.16977.00612.338.01988.16977.01377.16824.01682.33955.03671.338.04435.16825.02447.338.05354.16825.02906.16977.02906.16824.02906.33649.06118.16824.03212.16825.03059.16518.03212.16824.03059.16519.03059.16518.03211h.01224l.00764.00459h.00459l.00153.00153.00765.00459.00611.00153.00765.00459.00459.00459.00459.00153.00612.00612.00458.00153.00459.00459.00153.00459.00459.00153.00765.01682v.00153l.00153.00459v.01224l-.00765.01682-.00765.00765-.00611.00459-.00612.00611-.00612.00459-.00765.00153-.02905.01683-.03059.01682-.02906.01682-.03059.01377-.02906.01682-.06118.03212-.02906.01377-.12236.06576-.03059.01836-.03212.01682-.03059.01836-.03212.01835-.03059.01835-.06577.03671-.03518.01988-.03212.01989-.03517.02294-.03518.01988-.07036.04436-.03671.02447-.03518.02447-.03823.026-.03671.026-.03824.026-.078.05659-.03824.03059-.0413.03059-.04282.03212-.0413.03212-.04282.03517-.04283.03671-.09024.07342-.03212.02906-.03518.02906-.03211.02906-.03518.02906-.07036.06118-.03518.02906-.0367.03212-.03671.03059-.03518.03059-.11012.09788-.03824.03212-.03671.03518-.0367.03212-.03824.03518L24.627,20.684l-.03824.03517-.0367.03518-.03824.03671-.03671.03518-.03823.03671-.07342.07341-.03824.03671-.0367.03671-.03671.03823-.03671.03671-.03671.03824-.03671.03671-.07341.078-.07036.078-.03517.0413-.07036.078-.03518.0413-.03212.03824-.03212.04129-.03212.03824-.06117.078-.03212.03824-.02906.03823-.03059.03824-.03059.03671-.02906.03824-.0306.03823-.02906.03671-.02906.03824-.02906.0367-.02906.03824-.026.03671-.02906.03671-.02906.03823-.026.03671-.02906.03671-.026.03824-.02906.0367-.026.03671-.02906.03671-.026.03824-.02906.0367-.026.03671-.02906.03824-.026.03671-.02906.0367-.02906.03824-.026.03671-.02906.03823-.02906.03671-.05659.078-.03059.0367-.02906.03824-.09177.11624-.00765.01224-.01224.01223-.00611.00459-.01224.01224-.00459.00153-.00459.00459-.00612.00153-.00459.00153-.00458.00459-.01224.00612h-.00459l-.00459.00153-.00153.00153h-.00459l-.00459.00153H22.5683l-.00153.00153h-.00612l-.00153.00153h-.01683V23.096H22.5377l-.07341.01223-.15142.02447-.07342.01224-.07647.01071-.07342.01223-.07647.01224-.07342.01376-.14683.02448-.07647.01376-.07342.01224-.14683.02906-.07188.01682-.07342.01377-.07341.01682-.07342.01835-.07189.01683-.07188.01835-.07342.01988-.14377.0413-.14377.04436-.07189.02447-.07188.026-.07036.026-.07188.026-.20954.09177-.13918.07036-.07036.03671-.0673.03823-.07035.03824-.1346.08565-.06729.04436-.01377.0107-.01224.01071-.01376.0107-.01224.01071-.03517.03518-.0306.03671-.00764.01223-.01071.01224-.00765.01224-.00764.01376-.00612.01224-.00765.01376-.00612.01377-.00611.01223-.01989.07189-.00459.02906v.05659l.00153.01377v.01376l.00459.01224.00153.01376.00765.02906.00612.01377.00612.01223.00611.01377.00765.01224.00765.01376.03212.0413.0107.00765.01071.0107.01071.00765.0107.00612.01224.00764.01071.00612.02447.01224.01223.00459.01224.00611.01224.00459.01223.00153.01377.00459.01223.00153.01377.00153.01224.00153h.01376l.01377.00153h.01376l.01224-.00153h.01376l.02906-.00459.01224-.00153.01376-.00153.02906-.00764.01224-.00459.01377-.00612.01223-.00459.01377-.00612.01223-.00611.01377-.00765.01224-.00612.02447-.01682.04129-.03059.04283-.03059.0413-.02906.04282-.02906.04283-.026.04129-.026.04283-.026.04282-.02447.0413-.02447.12848-.0673.08565-.0413.04435-.01988.08565-.03671.04436-.01682.04283-.01682.04435-.01683.04436-.01376.04282-.01377.04436-.01376.04435-.01224.04742-.01224.04435-.0107.04436-.01224.04741-.00765.04436-.0107.09483-.01683.18812-.02447.049-.00459.04741-.00459.14989-.00611h.01224v.00153H21.799l.00153.00153h.00612v.00153h.00459l.00153.00153h.00153v.00153h.00153l.00459.00459V23.951h.00153v.00153l.00153.00153v.00153l.00153.00153v.00459l.00153.00153v.01223H21.825v.00765l-.00153.00153v.00153l-.00153.00153v.00153l-.00153.00153v.00153l-.00153.00153v.00153l-.00153.00153-.07342.10095-.07035.09635-.0673.09177-.06577.08871-.06118.08565-.06118.0826-.05659.07953-.05659.07647-.05506.07342-.05047.07189-.10248.13459-.04741.06271-.09483.12236-.04436.05659-.04282.05659-.08565.11012-.04283.05354-.16365.205-.12236.14683-.0413.05047-.08565.09789-.08565.10247-.04436.05354-.09482.10706-.04742.05506-.05047.05659-.05047.05965-.05354.05965-.05506.06271-.026.03059-.02906.03212-.02906.03059-.02906.03212-.1713.18354-.026.03059-.02906.03059-.02906.02906-.02906.03059L19.39,26.984l-.02906.03059-.02906.02906-.03059.02906-.11471.11471-.03059.02906-.05659.05659-.03059.02906-.02906.02906-.03059.02906-.02906.02906-.03059.026-.03059.02906-.02906.02906-.09177.08565-.03059.026-.09177.08565-.127.11318-.127.10859-.12847.10248-.12695.09483-.127.09023-.127.08566-.12694.078-.12695.07342-.127.07035-.12542.06118-.12541.05659-.12236.05354-.12236.04741-.12236.0413-.12083.0367-.1193.03212-.1193.026-.11624.02294-.11318.01682-.11471.01224-.11013.00764-.10859.00153-.10706-.00153-.104-.00612-.10247-.0107-.09789-.01683-.09636-.01835-.09483-.02447-.09024-.02906-.08871-.03212-.08565-.03671-.08259-.03823-.078-.04436-.07342-.04894-.07188-.05353-.0673-.05506-.06271-.06118-.05965-.06271-.05353-.0673-.05047-.07189-.02906-.04282-.026-.04283-.02448-.04435-.02447-.04283-.02294-.04435-.01988-.04436L14.35955,27.92l-.01682-.04436-.01682-.04282-.02906-.09024-.01071-.04283-.01071-.04435-.0107-.04283-.00612-.04435-.00612-.04283-.00612-.04435-.00459-.04282-.00153-.04283v-.13154l.00153-.04282.00765-.08565.00612-.0413.00612-.04282.00765-.04283.0107-.0413.00765-.04129.01224-.0413.0107-.0413.01377-.04129.01223-.0413.01377-.0413.04894-.11624.03671-.078.02447-.04742.02447-.04435.026-.04436.02906-.04435.05659-.08565.06118-.08565.06577-.08259.104-.11625.0367-.03823.11013-.11013.11624-.104.04129-.03212.03824-.03212.0413-.03212.12236-.09177.08259-.05659.04282-.02906.12236-.07953.04283-.02447.08259-.04895.12236-.0673.078-.04129.01683-.00765.01223-.00764.01377-.00765.01223-.01071.01224-.00764.01224-.01071.0107-.01223.01071-.01071.01988-.02447.01683-.02448.00611-.01223.01224-.02906.00612-.01224.00459-.01682.00764-.02906.00153-.01683.00153-.01376v-.04742l-.00611-.04894-.00459-.01835-.00459-.01683-.01224-.03211-.00612-.01836-.01682-.03212-.01071-.01835-.0107-.01683-.01224-.01835-.02447-.03212-.01376-.01835-.0306-.03059-.01223-.00765-.01224-.01071-.02447-.01682-.01376-.00765-.01377-.00612-.01376-.00764-.01377-.00612-.03212-.01224-.01682-.00459-.01683-.00611L15.73,24.49089l-.01835-.00459-.01682-.00459-.01836-.00153-.01835-.00459-.01683-.00153-.0367-.00459H15.5862l-.01835-.00153H15.548l-.01836-.00153H15.4929l-.01835.00153h-.03671l-.03671.00459-.01682.00153-.03671.00459-.01682.00153-.01682.00459-.05354.01071-.05047.0107-.10706.02906-.10707.03212-.05506.01836-.05353.01988-.05506.01988-.05353.02294-.05507.02295-.05353.02447-.05506.026-.05353.026-.05506.026-.05353.02906-.10707.06118-.15906.09789-.05048.03518-.153.11012-.14683.11624-.09482.0826-.04436.04129-.04741.04283-.12848.12847-.08259.09024-.03824.04742-.03824.04435-.0367.04742-.03824.05047-.03824.05353-.03823.05506-.03671.05353-.03671.05506-.07035.11013-.03212.05659-.09177.1713-.026.05965-.02907.05659-.026.06118-.04894.1193-.02294.06118-.01989.06118-.01988.06271-.01988.06118-.01683.06271-.01835.06271-.02906.127-.01377.06577-.01223.06576-.01989.13154-.00764.0673-.00612.06576-.00612.0673-.00459.07036-.00459.13459-.00152.07036.00458.13918.00459.07189.00459.07035.00612.07189.01376.127.01836.12542.02447.12236.02906.11929.03212.11472.03671.11471.04129.11012.04436.10707.04894.104.05047.10248.05659.09788.05965.09636.06271.09177.0673.09024.07188.08565.07342.08412.07647.07953.07954.078.08259.07341.08565.07189.08871.0673.09177.06271.09177.06118.09636.05659.09788.05506.10095.04894.10248.04895.104.04282.10859.0413.10707.03671.11012.03518.11318.02906.11318.026.11472.02447.11624.01835.11624.01683.1193.01223.1193.00765.12083.00459.12083.00153L16.0114,30.93l.28908-.01836.09483-.0107.19271-.02448.09483-.01376.09636-.01835L16.874,30.826l.19272-.04435.09483-.026.09636-.02906.09635-.03059.09636-.03212.09636-.03518.09635-.03824.09789-.04129.09636-.04283.09789-.04741.09788-.049.09789-.05047.09789-.05506.10094-.05965.09789-.06118.10248-.06271.10094-.0673.101-.07189.10247-.07647.104-.078.10248-.07954.104-.08565.104-.08871.10706-.09483.10706-.09635.10707-.101.21871-.21107.20342-.21107.10095-.10859.20036-.22483.101-.11472.09788-.1193.101-.11929.1973-.24625.09636-.12542.09789-.127.09635-.12694.19272-.26154.09636-.13307.09483-.13306.09635-.1346.18813-.27378.09177-.13918.09483-.13918.09177-.13918.09177-.14072.09483-.14071.09024-.14377.18353-.286.27072-.42979.09024-.1453.09024-.14377.08871-.1453.09024-.14377.08871-.14531.2646-.42978.08565-.14071.00459-.00612.00459-.00765.00459-.00459.00459-.00764.00459-.00459.00153-.00459.00611-.00612.00153-.00459.00459-.00459.00459-.00153.00153-.00459.00459-.00153.00459-.00459.00459-.00153.00459-.00458.00612-.00153.00458-.00459.00459-.00153.01224-.00459.00612-.00459.01835-.00612.0413-.0107.04129-.00765.03671-.00612h.01224l.05506-.00765.11471-.01223.05659-.00765.06118-.00612.05965-.00765.06118-.00611.06271-.00612.06271-.00765.06271-.00612.06577-.00611.06271-.00765.06576-.00612.0673-.00612.06577-.00764.0673-.00612.06576-.00612.1346-.01224.06577-.00764.20036-.01836L25.326,23.486l.06729-.00611.06577-.00612.06271-.00612.06577-.00459.06271-.00612.06271-.00458.06118-.00612.29825-.01988.16518-.01224.05047-.00153h.01224l.01071-.00153h.03823l.01071-.00153h.03823l.00612.00153h.01835l.00612.00153h.00612l.00612.00153h.00459l.00611.00153.00765.00459.00612.00153.01682.00765.00459.00458.00459.00154.00612.00458.00459.00459.00458.00153.00459.00459.00459.00612.01224.01224.00764.01223.07189.08259.01682.01683.01377.01682.01682.01377.01683.01682.01376.01682.03212.02906.01836.01683.04894.04282.01835.01377.01683.01376.01835.01377.01682.01224.01835.01376.01836.01224.01682.01376.01835.01224.01683.01224.0367.02447.01683.01223.01835.01071.01835.01224.01683.0107.01835.01224.01682.01071.01836.0107.04894.03059.01835.00765.01683.01071.01682.00764.01377.00765.00764.00459.00612.00459.00765.00459.00611.00459.00612.00153.00765.00459.00611.00458.00612.00153.00612.00459.00612.00153.00611.00459.00612.00153.00459.00153.00612.00459.01223.00459.00459.00153.01224.00459.00459.00153.00611.00153.00459.00153.01224.00459h.00459l.00611.00153.00459.00153h.00612l.00612.00153h.00459l.00611.00153h.01071l.00612.00153h.05506l.00612-.00153h.00764l.00612-.00153h.00765l.01223-.00459.00765-.00153.0367-.01224.00612-.00459.00612-.00153.00612-.00458.00611-.00153.00612-.00459.00612-.00153.00459-.00459.00612-.00459.00458-.00459.00612-.00153.00612-.00459.00765-.00765.00611-.00459.00765-.00764.00612-.00459.01988-.01988.00459-.00612.01071-.01071.00458-.00612.00612-.00764.02448-.03671.00152-.00765.00459-.00612.00153-.00611.00459-.00612.00153-.00765L27.741,23.873l.00152-.00765.00153-.00612v-.00612l.00153-.00611v-.01377l.00153-.00612v-.01835l-.00153-.00612v-.01223l-.00153-.00612v-.00612l-.00459-.01224-.00152-.00458-.00459-.01224-.00459-.00459-.00153-.00612-.00459-.00459-.00612-.00764-.01376-.01377-.01989-.01682-.01223-.01071-.01224-.00765-.01376-.0107-.01377-.01224-.01682-.01071-.01683-.01223-.01682-.01071-.05506-.03671-.01835-.01376-.01836-.01224-.01988-.01223-.01835-.01377-.01836-.01224-.01835-.01376-.01988-.01224-.01836-.01376-.01682-.01224-.01835-.01376-.04894-.03671-.02906-.02447-.04436-.04436-.00764-.0107-.00612-.01071-.00459-.01071-.00459-.00765-.00153-.00764v-.026l.00153-.00459v-.00459l.00153-.00459.00153-.00153v-.00459l.00153-.00153.00153-.00459.00458-.00459.00459-.00153.00153-.00459.00612-.00611h.00459l.00612-.00612h.00458l.00459-.00459h.00459l.00153-.00153h.00459l.00153-.00153h.00459l.00153-.00153L27.30968,23.2l.026-.01071.026-.00765.026-.0107.026-.01224.026-.01071.05353-.02447.02447-.01224.026-.01223.05353-.02906.02448-.01377.026-.01682.02447-.01683.026-.01682.02448-.01682.02447-.01836.02447-.01682.02447-.01988.02448-.01836.02447-.01988.02294-.01988.02447-.01988.0673-.0673.02294-.02447.01989-.02447.02294-.02448.01988-.02447.0413-.05353.05506-.08565.03671-.06118.03212-.06118.01376-.03212.01683-.03212.01223-.03212.01377-.03211.01223-.03212.01989-.07036.0107-.03212.01071-.03518.00612-.03517.00764-.03518.00612-.03518.00765-.07036.00153-.0367.00459-.07036v-.03518l-.00153-.03212-.00153-.03517-.00459-.03518-.00612-.03212-.00612-.03518-.01682-.06577-.01071-.03212-.0107-.03059-.01377-.03211-.01377-.03059-.01376-.02907-.01683-.03059-.01835-.02906-.01988-.02906-.02294-.02906-.02294-.026-.02448-.026-.05353-.04894-.02906-.02295-.026-.01988-.02906-.01835-.026-.01836-.02906-.01682-.03059-.01376-.02906-.01377-.03059-.01224-.09177-.03059-.03212-.00764-.06576-.01224-.03212-.00459-.03212-.00153-.03518-.00153-.03212-.00153-.03518.00153-.03212.00153-.03518.00153-.03518.00459-.07035.01224-.07036.01682-.03518.01071-.07035.02447-.07036.02906-.03518.01682-.03212.01836-.03517.01835-.03212.01988-.03518.02294-.06577.04436-.03212.026-.03212.02447-.03212.02906-.03059.026-.05659.05659-.026.03059-.026.02906-.026.03059-.02448.03212-.02294.03059-.02294.03212-.02294.03059-.01988.03211-.01836.03518-.01988.03212-.01683.03212-.04894.104L26.34459,21.9l-.01377.03518-.01223.03671-.01224.03518-.01071.0367-.00764.03518-.01071.03671-.00764.03518-.01836.11012-.00459.03518-.00458.03671-.00153.0367-.00459.03671v.03518l-.00153.03671v.03517L26.236,22.55l.00153.03518.00153.03671.00152.03518.00459.03517.00153.00612v.01683l.00153.00611v.026l-.00153.00459v.00765l-.00153.00153v.00459l-.00153.00459-.00152.00153v.00459l-.00459.00459-.00459.00153-.00153.00459-.00153.00153-.00765.00458-.00152.00153-.00459.00153h-.00459l-.00612.00153-.00459.00153-.00612.00153h-.00458l-.00612.00154h-.00612l-.00765.00153h-.00611l-.00765.00153H26.1427l-.04894.00458-.09483.00765-.04741.00153-.04894.00459-.04742.00459-.04741.00153-.04742.00459-.09483.00459-.04894.00459-.14071.00611-.04741.00459-.24013.01071-.04742.00459-.48484.01988-.049.00459-.2493.01071-.049.00458-.10247.00459h-.02294l-.00153-.00153h-.00459l-.00153-.00153h-.00153l-.00153-.00153H24.1712l-.00153-.00153v-.00153h-.00153l-.00153-.00153v-.00153l-.00153-.00153v-.00153l-.00153-.00153V22.885l.00153-.00153v-.00459l.00153-.00153v-.00153l.00153-.00459.00153-.00153v-.00153l.00458-.00459.05965-.101.06118-.10094.06271-.09789.06271-.09636.06577-.09482.1346-.18813.06729-.09024.14377-.18048.07342-.08871.14683-.1713.078-.08565.156-.16825.07953-.08259.16213-.16212.16518-.15754.08566-.078.08412-.078.08871-.078.08565-.07647.08871-.07648.09024-.07647.08871-.07342.09177-.07341.09024-.07342.18354-.14683.18812-.14377.09483-.07342.09483-.07188.09636-.07189.09635-.07035.19272-.14378.00764-.00458.00459-.00612.00612-.00612.00612-.00459.01682-.02447.00153-.00612.00459-.00612.00153-.00611.00153-.00765.00153-.00612.00152-.00765.00153-.00611.00153-.00765v-.00612l.00153-.00765v-.00611l.00153-.00765v-.07189l-.00153-.00764v-.01683l-.00153-.01376v-.02447l-.00153-.00765V19.309l.35178.078.17437.04282.17589.0413.52155.13459.17589.04742.52155.14071.17437.04894.34872.09483.17436.04894.34872.09483.17437.04436.17436.04741.17436.04436.17589.04282.17436.04283.17589.0413.17436.04129.52767.11012.1759.03212.17589.03059.17741.02906.17742.026.17742.02447.17742.02294.17742.01835.18048.01683.18048.01376.18048.01071.18048.00612.182.00459h.25848l.22483-.00612.29672-.01683.07342-.00611.07647-.00765.07342-.00612.07341-.00765.07189-.00764.14683-.01989.07342-.01223.07189-.01224.07341-.01224.14377-.02906.07342-.01682.14377-.03212.07189-.01835.14377-.0413.07188-.02294.07036-.02294.07189-.02295.07035-.02447.07189-.026.07036-.026.07188-.02906.07036-.02906.07035-.03059.13919-.06577.13918-.07036.07035-.0367.05965-.03212.11472-.06577.10706-.06577.05047-.03059.04895-.03212.04741-.03212.04742-.03059.04435-.03212.0413-.03059.04129-.03212.0413-.03059.03671-.03212.03671-.03059.03518-.03059.03211-.03212.03212-.03059.02906-.03059.02906-.03212.02906-.03059.04894-.06118.02294-.03059.023-.03212.01988-.03059.01835-.03059.01683-.03059.01682-.03212.02906-.06118.01223-.03059.01071-.03059.01071-.03212.00764-.03059.00612-.03059.00612-.03211.00764-.06118.00153-.03212.00153-.01989v-.04282l-.00153-.01988-.00153-.01836-.00459-.01988-.00152-.01835L38.5774,18.662l-.00459-.01835-.01224-.03212-.02447-.04894-.01988-.02906-.01989-.02448-.02447-.02447-.01223-.0107-.02906-.01989-.01377-.00764L38.4,18.43874l-.01377-.00765-.03212-.01224-.01835-.00458-.01683-.00459-.01835-.00459-.01835-.00153-.01988-.00153L38.244,18.4005h-.01988l-.01989.00153h-.01988l-.01988.00459-.01989.00153-.02294.00459-.18354.04129-.18354.03824-.182.03671-.18353.03517-.182.03212-.182.03059-.182.02906-.182.026-.18048.02447-.36248.04435-.36249.03671-.361.02906-.18048.01224-.361.01988-.36095.01224-.18048.00459-.17742.00153h-.361l-.18048-.00153-.361-.00765-.18048-.00612-.18048-.00765-.36248-.01988-.36249-.02447-.18048-.01377-.364-.03212-.364-.0367-.182-.01989-.18354-.02294-.24012-.02906-.23708-.03212-.24012-.03059-.47567-.07035L28.9707,18.402,27.091,18.09308l-.7051-.11012-.234-.03518-.46955-.06577-.23554-.03059-.234-.02906-.23554-.026-.47108-.049-.23554-.01988-.23554-.01835-.47261-.02906-.23707-.01071-.23554-.00765-.24013-.00458h-.23707l-.23707.00153-.24013.00611Zm19.20574,8.23016.12848.078.09635.09483.0673.10706.0413.11625.01835.12694-.00459.1346-.01988.13765-.03518.14071-.04742.13918-.05659.13919-.06271.13459-.00459.01071-.00459.00764-.00458.01989-.00459.01682v.01071l.00153.00764v.00765l.00458.01682.00459.01377.00612.01223.00765.01377.02447.02447.01377.01224.01376.01071.01683.0107.01682.00765.01835.00764.01683.00765.01223.00459.00765.00764.00459.01224v.01682l-.00459.01071-.00459.01223-.00612.01224-.04894.104-.05048.09635-.04894.09024-.04894.08565-.10248.16366-.05353.07953-.05506.07954L41.121,28.339l-.05965.08412-.06118.09177-.05965.08412-.05965.07953-.06118.078-.06271.07647-.06576.07342-.0673.07188-.07036.0673-.07035.07036-.07342.06576-.07647.06577-.078.06577-.12236.09636-.13153.09788-.13766.09177-.14071.08412-.1453.07342-.14683.05965-.14683.04282-.14683.02294h-.14683l-.14377-.026-.13919-.05659-.05659-.03518-.05353-.04435-.04435-.05048L38.51471,29.61l-.03518-.06118-.026-.0673-.02294-.07035-.01836-.07189-.0107-.07189-.00765-.07188v-.07036l.01071-.19271.026-.19425.03824-.19424.05506-.19425.07035-.19425.08412-.19424.09789-.19578.11012-.19424.127-.19425.13918-.19577.15142-.19272.19578-.22789.19883-.205.19883-.18048.19883-.15754.19425-.13154.19119-.10247.18659-.07647.17742-.04742.16977-.01376.15907.01682.14683.04894Zm-13.666-4.25656.06271.1086.00459.14683-.04435.16212-.08412.153-.12542.15142-.14989.127-.16366.09788-.16824.0566H26.9564l-.02906-.01377-.02294-.03518-.01835-.05965-.00153-.20648.04741-.22177.1086-.21872.17436-.19883.11012-.07342.1193-.03518.11471.00612.09789.05047Z" transform="translate(-0.6875 -14.56296)" fill="#1c396d"/></svg>