<?xml version="1.0" standalone="no"?>
<!DOCTYPE svg PUBLIC "-//W3C//DTD SVG 1.1//EN" "http://www.w3.org/Graphics/SVG/1.1/DTD/svg11.dtd" >
<svg xmlns="http://www.w3.org/2000/svg" xmlns:xlink="http://www.w3.org/1999/xlink" version="1.1">
<metadata>
Created by FontForge 20170731 at Thu May 24 23:21:45 2018
 By Aleksey,,,
</metadata>
<defs>
<font id="LincolnMillerB-Bold" horiz-adv-x="500" >
  <font-face 
    font-family="LincolnMillerB"
    font-weight="700"
    font-stretch="normal"
    units-per-em="1000"
    panose-1="2 0 5 4 9 0 0 2 0 3"
    ascent="764"
    descent="-236"
    x-height="462"
    cap-height="683"
    bbox="-167 -242 1231 952"
    underline-thickness="20"
    underline-position="-153"
    unicode-range="U+0020-FB05"
  />
<missing-glyph horiz-adv-x="200" 
 />
    <glyph glyph-name="f_f" unicode="ff" horiz-adv-x="630" 
d="M18 0v7q26 2 43 8q26 10 26 44v387h-96v16h96v11q0 126 68 197q68 70 169 70q100 0 129 -59q68 66 165 66q74 0 106 -30.5t32 -72.5q0 -25 -20 -47.5t-53 -22.5q-27 0 -50 15.5t-23 44.5q0 13 8.5 43t9.5 37q0 9 -8 15.5t-18 6.5q-37 0 -55 -48t-22 -148v-78h122v-16
h-121v-383q0 -33 27 -44q24 -10 64 -12v-7h-286v7q27 2 38 13q12 11 12 39v387h-149v-383q0 -31 14 -42q12 -9 41 -14v-7h-269zM231 462h150v18q0 46 9 87q-28 0 -51 15t-23 45q0 13 8.5 43t9.5 37q0 9 -8 15.5t-18 6.5q-69 0 -77 -211v-56z" />
    <glyph glyph-name="f_f_i" unicode="ffi" horiz-adv-x="888" 
d="M18 0v7q26 2 43 8q26 10 26 44v387h-96v16h96v11q0 126 68 197q68 70 169 70q99 0 129 -60q69 67 195 67q86 0 127 -30t41 -78q0 -26 -20 -50.5t-53 -24.5q-32 0 -52.5 17t-20.5 48q0 12 14 80q0 9 -16 17.5t-36 8.5q-99 0 -107 -210v-63h136l151 8l4 -4v-405
q0 -33 24 -45q14 -7 46 -9v-7h-267v7q28 1 39 11q13 12 13 41v338q0 33 -24 49h-121v-386q0 -23 7 -34q7 -12 47 -19v-7h-249v7q27 2 38 13q12 11 12 39v387h-149v-383q0 -31 14 -42q12 -9 41 -14v-7h-269zM231 462h150v18q0 42 10 87q-28 0 -51.5 15.5t-23.5 44.5
q0 13 8.5 43t9.5 37q0 9 -8 15.5t-18 6.5q-69 0 -77 -211v-56z" />
    <glyph glyph-name="f_f_l" unicode="ffl" horiz-adv-x="890" 
d="M18 0v7q26 2 43 8q26 10 26 44v387h-96v16h96v11q0 126 68 197q68 70 169 70q99 0 129 -60q69 67 165 67q55 0 91 -19l101 18l4 -4v-681q0 -33 26 -45q13 -6 43 -9v-7h-263v7q27 1 38 10q12 10 12 42v507q-13 8 -23.5 24t-10.5 36q0 11 3.5 21.5t6.5 15.5t10.5 16t9.5 14
q-19 43 -54 43q-41 0 -62 -40t-25 -141v-93h102v-16h-101v-386q0 -23 7 -34q7 -12 47 -19v-7h-249v7q27 2 38 13q12 11 12 39v387h-149v-383q0 -31 14 -42q12 -9 41 -14v-7h-269zM231 462h150v18q0 50 10 87q-28 0 -51.5 15.5t-23.5 44.5q0 13 8.5 43t9.5 37q0 9 -8 15.5
t-18 6.5q-69 0 -77 -211v-56z" />
    <glyph glyph-name="f_t" unicode="ft" horiz-adv-x="653" 
d="M18 0v7q26 2 43 8q26 10 26 44v387h-96v16h96v18q0 126 68 197q68 70 169 70q74 0 106 -30.5t32 -72.5q0 -20 -12 -38h70v-144h126v-16h-126v-319q0 -81 58 -81q33 0 50 28t19 66h12q-2 -67 -36.5 -110t-108.5 -43q-68 0 -103 37.5t-35 105.5v316h-144v-385q0 -33 27 -44
q18 -7 64 -10v-7h-305zM231 462h147v112q-25 3 -43.5 18.5t-18.5 41.5q0 13 8.5 43t9.5 37q0 9 -8 15.5t-18 6.5q-37 0 -55 -48t-22 -148v-78z" />
    <glyph glyph-name="f_j" unicode="fj" horiz-adv-x="582" 
d="M376 -6l1 403q0 33 -24 49h-121v-386q0 -23 7 -34q7 -12 47 -19v-7h-268v7q26 2 43 8q26 10 26 44v387h-96v16h96v18q0 125 68 195q70 72 199 72q86 0 127 -30t41 -78q0 -26 -20 -50.5t-53 -24.5q-32 0 -52.5 17t-20.5 48q0 12 14 80q0 9 -16 17.5t-36 8.5
q-99 0 -107 -210v-63h136l150 8l4 -4v-420q0 -135 -62 -201q-68 -73 -160 -73q-132 0 -132 97q0 24 19.5 47.5t51.5 23.5q27 0 49 -16t22 -47q0 -29 -17 -92q10 -2 16 -2q40 0 54 50t14 161z" />
    <glyph glyph-name="f_i" unicode="fi" horiz-adv-x="597" 
d="M18 0v7q26 2 43 8q26 10 26 44v387h-96v16h96v18q0 125 68 195q70 72 199 72q86 0 127 -30t41 -78q0 -26 -20 -50.5t-53 -24.5q-32 0 -52.5 17t-20.5 48q0 12 14 80q0 9 -16 17.5t-36 8.5q-99 0 -107 -210v-63h136l151 8l4 -4v-405q0 -33 24 -45q14 -7 46 -9v-7h-267v7
q28 1 39 11q13 12 13 41v338q0 33 -24 49h-121v-386q0 -23 7 -34q7 -12 47 -19v-7h-268z" />
    <glyph glyph-name="f_l" unicode="fl" horiz-adv-x="596" 
d="M18 0v7q26 2 43 8q26 10 26 44v387h-96v16h96v18q0 125 68 196q69 71 169 71q55 0 91 -19l101 18l4 -4v-681q0 -33 26 -45q13 -6 43 -9v-7h-263v7q27 1 38 10q12 10 12 42v507q-13 8 -23.5 24t-10.5 36q0 11 3.5 21.5t6.5 15.5t10.5 16t9.5 14q-19 43 -54 43
q-41 0 -62 -40t-25 -141v-93h102v-16h-101v-386q0 -29 14 -41q8 -7 41 -12v-7h-269z" />
    <glyph glyph-name=".notdef" horiz-adv-x="200" 
 />
    <glyph glyph-name=".notdef" horiz-adv-x="200" 
 />
    <glyph glyph-name=".null" horiz-adv-x="0" 
 />
    <glyph glyph-name="nonmarkingreturn" horiz-adv-x="333" 
 />
    <glyph glyph-name="space" unicode=" " horiz-adv-x="200" 
 />
    <glyph glyph-name="exclam" unicode="!" horiz-adv-x="327" 
d="M158 223q-13 83 -45 218.5t-32 175.5q0 35 22 59.5t60 24.5t60.5 -24.5t22.5 -59.5q0 -41 -33 -178t-46 -216h-9zM163 -11q-36 0 -60.5 24t-24.5 60t25 60.5t60 24.5q36 0 61 -24.5t25 -60.5t-25 -60t-61 -24z" />
    <glyph glyph-name="quotedbl" unicode="&#x22;" horiz-adv-x="402" 
d="M97 472q-9 35 -26 80t-27.5 75t-10.5 43q0 26 19.5 46.5t50.5 20.5t50.5 -20.5t19.5 -46.5q0 -12 -11 -42.5t-28 -75.5t-27 -80h-10zM293 472q-9 35 -26 80t-27.5 75t-10.5 43q0 26 19.5 46.5t50.5 20.5t50.5 -20.5t19.5 -46.5q0 -12 -11 -42.5t-28 -75.5t-27 -80h-10z
" />
    <glyph glyph-name="numbersign" unicode="#" horiz-adv-x="522" 
d="M183 -7v141l-110 -27v110l110 27v109l-110 -27v109l110 28v164h16v-159l125 31v128h16v-123l111 28v-110l-111 -28v-110l111 28v-109l-111 -28v-182h-16v177l-125 -31v-146h-16zM199 248l125 32v109l-125 -31v-110z" />
    <glyph glyph-name="dollar" unicode="$" horiz-adv-x="603" 
d="M254 -142v137q-91 8 -144.5 46.5t-53.5 96.5q0 45 20 70.5t54 25.5q59 0 59 -63q0 -23 -12.5 -35t-29 -20t-21.5 -18q0 -33 36.5 -58t91.5 -32v244q-85 10 -135 54t-50 127q0 71 48.5 120t136.5 62v98h18v-96q21 3 41 3q27 0 38 -1v94h18v-95q79 -9 120.5 -44t41.5 -81
q0 -37 -16.5 -62t-46.5 -25q-24 0 -41.5 14.5t-17.5 40.5q0 27 25 51.5t28 36.5q-4 16 -30 32.5t-63 22.5v-225q87 -16 134.5 -57.5t47.5 -133.5q0 -63 -44 -117.5t-138 -71.5v-141h-18v138q-27 -3 -55 -3h-24v-135h-18zM272 6h25q26 0 54 4v231q-41 6 -79 9v-244zM351 381
v225q-8 1 -30 1q-21 0 -49 -4v-213q53 -5 79 -9zM369 15q78 26 78 124q0 84 -78 99v-223zM254 393v206q-35 -9 -56.5 -41t-21.5 -69q0 -81 78 -96z" />
    <glyph glyph-name="percent" unicode="%" horiz-adv-x="869" 
d="M221 283q-78 0 -127 43.5t-49 122.5q0 73 52.5 122.5t123.5 49.5q79 0 130 -43.5t51 -127.5q0 -69 -53 -118t-128 -49zM224 294q33 0 53 43t20 111q0 162 -75 162q-74 0 -74 -157q0 -159 76 -159zM643 -13q-78 0 -127.5 43.5t-49.5 121.5q0 73 53 122.5t124 49.5
q79 0 130 -43.5t51 -127.5q0 -69 -53 -117.5t-128 -48.5zM229 -96l-22 11l427 774l25 -12zM646 -3q33 0 53 43.5t20 110.5q0 162 -75 162q-39 0 -56.5 -44t-17.5 -113q0 -159 76 -159z" />
    <glyph glyph-name="ampersand" unicode="&#x26;" horiz-adv-x="753" 
d="M242 -16q-91 0 -151 41.5t-60 123.5q0 71 45 118.5t134 90.5q-81 120 -81 185q0 69 55.5 111.5t149.5 42.5q62 0 94 -34.5t32 -92.5q0 -84 -116 -156q51 -76 163 -220q33 44 58.5 99.5t25.5 84.5q0 15 -24 25t-79 21v7h272v-7q-81 -8 -116 -49q-11 -13 -57.5 -86.5
t-70.5 -106.5q6 -7 20.5 -24.5t21.5 -25.5t19.5 -23t20.5 -23l18 -18t17.5 -16.5t14.5 -10.5q29 -17 46 -23.5t49 -9.5v-8h-254l-62 74q-90 -90 -185 -90zM295 37q77 0 124 47q-122 154 -199 260q-39 -58 -39 -153q0 -72 32 -113t82 -41zM338 425q76 49 76 146
q0 51 -19.5 83t-56.5 32q-30 0 -50.5 -28t-20.5 -73q0 -53 71 -160z" />
    <glyph glyph-name="quotesingle" unicode="'" horiz-adv-x="206" 
d="M97 472q-9 35 -26 80t-27.5 75t-10.5 43q0 26 19.5 46.5t50.5 20.5t50.5 -20.5t19.5 -46.5q0 -12 -11 -42.5t-28 -75.5t-27 -80h-10z" />
    <glyph glyph-name="parenleft" unicode="(" horiz-adv-x="350" 
d="M290 -160q-115 81 -179.5 202.5t-64.5 254.5q0 123 60.5 240t182.5 211l36 -16q-115 -88 -173 -200.5t-59 -230.5q-2 -128 58 -243t178 -200z" />
    <glyph glyph-name="parenright" unicode=")" horiz-adv-x="350" 
d="M60 -160l-39 18q118 85 178 200t58 243q-1 118 -59 230.5t-173 200.5l36 16q122 -94 182.5 -211t60.5 -240q0 -133 -64.5 -254.5t-179.5 -202.5z" />
    <glyph glyph-name="asterisk" unicode="*" horiz-adv-x="387" 
d="M196 398q-33 0 -33 33q0 13 13 53.5t14 58.5q-16 -11 -41 -40.5t-33 -36.5q-13 -12 -27.5 -10.5t-23.5 16.5q-9 18 -2.5 30t24.5 18q10 3 45 11.5t56 17.5q-16 7 -34 12t-39.5 10.5t-32.5 8.5q-42 14 -20 50q10 15 25 15t25 -11q8 -7 35 -37t43 -41q-2 19 -14.5 59.5
t-12.5 52.5q0 33 33 33q34 0 34 -32q0 -13 -14 -53.5t-16 -59.5q15 11 41 41t35 37q30 25 49 -7q19 -34 -20 -47q-10 -4 -47 -13.5t-56 -17.5q18 -7 53.5 -16t48.5 -13q19 -6 25 -20.5t-5 -31.5q-21 -29 -49 -3q-8 8 -34 37t-41 41q2 -16 16 -57.5t14 -54.5q0 -14 -9 -23.5
t-25 -9.5z" />
    <glyph glyph-name="plus" unicode="+" horiz-adv-x="566" 
d="M257 19v216h-215v49h215v217h51v-217h216v-49h-216v-216h-51z" />
    <glyph glyph-name="comma" unicode="," horiz-adv-x="269" 
d="M62 -180l-5 10q49 24 79 69t35 101h-32q-53 0 -75.5 24.5t-22.5 59.5q0 31 21.5 55t57.5 24q55 0 81.5 -37t26.5 -100q0 -59 -47 -117.5t-119 -88.5z" />
    <glyph glyph-name="hyphen" unicode="-" horiz-adv-x="396" 
d="M35 200v105h326v-105h-326z" />
    <glyph glyph-name="period" unicode="." horiz-adv-x="269" 
d="M135 -13q-37 0 -63.5 25.5t-26.5 62.5t26.5 62.5t63.5 25.5t63.5 -25.5t26.5 -62.5t-26.5 -62.5t-63.5 -25.5z" />
    <glyph glyph-name="slash" unicode="/" horiz-adv-x="406" 
d="M62 -209l-32 10l312 951l33 -10z" />
    <glyph glyph-name="zero" unicode="0" horiz-adv-x="629" 
d="M308 -16q-130 0 -204 88t-74 217q0 149 86 240.5t204 91.5q131 0 205 -87.5t74 -217.5q0 -149 -85.5 -240.5t-205.5 -91.5zM312 -5q59 0 89 83.5t30 224.5q0 307 -115 307q-58 0 -88 -84t-30 -224q0 -307 114 -307z" />
    <glyph glyph-name="one" unicode="1" horiz-adv-x="429" 
d="M42 0v7q50 3 81 12q14 4 23.5 16t9.5 28v473q-44 -4 -66 -5q-63 -3 -64 -3v8q87 12 152 28q79 20 131 52h10q-9 -51 -9 -158v-390q0 -35 29 -48q21 -10 76 -13v-7h-373z" />
    <glyph glyph-name="two" unicode="2" horiz-adv-x="577" 
d="M34 0v61q167 121 232 178q62 55 89 114t27 134q0 57 -24.5 89.5t-71.5 32.5q-61 0 -97 -60t-36 -129q0 -81 66 -81q22 0 43 11t29.5 19.5t23.5 24.5l6 -5q-61 -108 -158 -108q-61 0 -94.5 33.5t-33.5 86.5q0 85 80 152.5t196 67.5q95 0 158.5 -43.5t63.5 -117.5
q0 -91 -87.5 -162t-259.5 -147l-43 -32h306q19 0 35 8.5t28.5 26t20 30.5t17.5 34l8 -3l-62 -215h-462z" />
    <glyph glyph-name="three" unicode="3" horiz-adv-x="557" 
d="M225 -27q-95 0 -157 35.5t-62 103.5q0 51 31 80t76 29q34 0 54.5 -18.5t20.5 -42.5q0 -22 -12 -39.5t-26.5 -26.5t-26.5 -21.5t-12 -24.5q0 -24 25.5 -44t77.5 -20q68 0 111 57.5t43 157.5q0 59 -16 87.5t-54 28.5t-100 -58l-16 23q52 33 74 48.5t51 42.5t39.5 54.5
t10.5 64.5q0 56 -21 87t-59 31q-52 0 -80.5 -40t-28.5 -86q0 -37 16 -56t41 -19q32 0 63 36l6 -6q-18 -31 -57 -58.5t-71 -27.5q-55 0 -85 27.5t-30 73.5q0 71 76 119.5t187 48.5q97 0 151 -35t54 -95q0 -129 -231 -154l-13 -12q30 5 51 5q49 0 93 -11t79.5 -43.5
t35.5 -83.5q0 -100 -91 -159t-218 -59z" />
    <glyph glyph-name="four" unicode="4" horiz-adv-x="595" 
d="M170 0v8q55 3 72 9q14 5 23 18.5t9 29.5v137h-264v20l332 406h85v-396h60q35 0 48 29t15 58h8v-211h-8q-2 37 -11 62q-11 32 -47 32h-65v-135q0 -35 29 -48q18 -8 67 -11v-8h-353zM40 232h234v285z" />
    <glyph glyph-name="five" unicode="5" horiz-adv-x="535" 
d="M216 -14q-86 0 -144.5 32t-58.5 95q0 42 24 64.5t57 22.5q31 0 52 -18.5t21 -44.5q0 -23 -5.5 -40t-16.5 -36t-14 -24q2 -16 28 -29t56 -13q52 0 85 63.5t33 148.5q0 76 -27.5 117.5t-83.5 41.5q-40 0 -84 -28t-64 -65l-14 4l76 339h12q11 -13 66.5 -26t110.5 -13
q134 0 191 45l7 -6q-102 -158 -306 -158q-75 0 -99 4l-35 -154q41 40 73 54q47 21 112 21q103 0 168 -47.5t65 -131.5q0 -106 -77.5 -162t-207.5 -56z" />
    <glyph glyph-name="six" unicode="6" horiz-adv-x="577" 
d="M281 -16q-105 0 -175 79.5t-70 217.5q0 173 99.5 296t243.5 123q80 0 120 -37t40 -82q0 -31 -21 -51t-52 -20q-49 0 -66.5 32t-21.5 100q-2 23 -8.5 33.5t-26.5 10.5q-57 0 -96.5 -97t-53.5 -237l4 -2q59 84 158 84q79 0 133 -58t54 -156q0 -41 -13.5 -80t-41.5 -75.5
t-81.5 -58.5t-124.5 -22zM284 -4q32 0 53 21.5t29 60.5t10.5 67.5t2.5 69.5q0 183 -92 183q-45 0 -70.5 -51.5t-25.5 -149.5q0 -90 25 -145.5t68 -55.5z" />
    <glyph glyph-name="seven" unicode="7" horiz-adv-x="486" 
d="M216 -121q-35 0 -55.5 21t-20.5 63q0 97 107 263q45 69 174 245h-283q-34 0 -58 -23.5t-53 -89.5l-9 2l66 290h6l18 -56h404v-11q-79 -100 -139 -233q-59 -131 -71 -352q-6 -119 -86 -119z" />
    <glyph glyph-name="eight" unicode="8" horiz-adv-x="565" 
d="M265 -18q-101 0 -167 42t-66 110q0 89 138 142q-118 56 -118 162q0 78 70.5 133.5t167.5 55.5q94 0 155 -38.5t61 -99.5q0 -75 -117 -124q81 -36 115 -75.5t34 -96.5q0 -94 -77.5 -152.5t-195.5 -58.5zM289 -5q66 0 104 37.5t38 85.5q0 39 -32 65t-102 47q-57 17 -114 41
q-44 -55 -44 -133q0 -60 40.5 -101.5t109.5 -41.5zM376 371q17 24 24.5 45.5t7.5 60.5q0 56 -33 96.5t-94 40.5q-65 0 -95.5 -32t-30.5 -75q0 -34 30 -57t88 -43q13 -5 51 -18.5t52 -17.5z" />
    <glyph glyph-name="nine" unicode="9" horiz-adv-x="577" 
d="M188 -105q-81 0 -125.5 31t-44.5 80q0 32 22.5 52.5t59.5 20.5q19 0 32.5 -7.5t20.5 -14.5t13.5 -29t8 -29.5t6.5 -38.5q8 -50 42 -50q44 0 78.5 51.5t53 125t28.5 166.5l-4 1q-56 -83 -158 -83q-79 0 -133 58t-54 155q0 41 13.5 80.5t42 76t82 58.5t124.5 22
q105 0 175 -79.5t70 -217.5q0 -181 -102.5 -305t-250.5 -124zM290 207q44 0 70 51.5t26 149.5q0 89 -26 145t-67 56q-26 0 -44.5 -16t-27.5 -37t-14.5 -55t-6.5 -57t-1 -55q0 -84 23 -133t68 -49z" />
    <glyph glyph-name="colon" unicode=":" horiz-adv-x="298" 
d="M149 -11q-36 0 -61 24t-25 60t25 60.5t61 24.5q35 0 60 -24.5t25 -60.5t-25 -60t-60 -24zM149 295q-36 0 -61 24.5t-25 60.5q0 35 25.5 59.5t60.5 24.5t60 -24.5t25 -59.5q0 -36 -25 -60.5t-60 -24.5z" />
    <glyph glyph-name="semicolon" unicode=";" horiz-adv-x="298" 
d="M74 -186l-5 9q50 26 80.5 73t34.5 105h-34q-49 0 -70 23t-21 57q0 29 21.5 52.5t55.5 23.5q50 0 76.5 -34.5t26.5 -93.5q0 -69 -49 -127t-116 -88zM149 295q-36 0 -61 24.5t-25 60.5q0 35 25.5 59.5t60.5 24.5t60 -24.5t25 -59.5q0 -36 -25 -60.5t-60 -24.5z" />
    <glyph glyph-name="less" unicode="&#x3c;" horiz-adv-x="566" 
d="M500 32l-442 208v40l442 208v-51l-378 -177l378 -177v-51z" />
    <glyph glyph-name="equal" unicode="=" horiz-adv-x="566" 
d="M62 153v49h442v-49h-442zM62 318v49h442v-49h-442z" />
    <glyph glyph-name="greater" unicode="&#x3e;" horiz-adv-x="566" 
d="M508 240l-442 -208v51l377 177l-377 177v51l442 -208v-40z" />
    <glyph glyph-name="question" unicode="?" horiz-adv-x="504" 
d="M201 208l-4 186q135 14 135 151q0 143 -96 143q-25 0 -47.5 -8.5t-31.5 -20.5q35 -61 35 -91q0 -38 -21.5 -60.5t-58.5 -22.5q-39 0 -58.5 22.5t-19.5 59.5q0 53 61 92.5t147 39.5q100 0 162 -52.5t62 -143.5q0 -98 -67 -159t-181 -67l-5 -69h-12zM213 -13
q-36 0 -61.5 25.5t-25.5 61.5t25.5 62t61.5 26t61.5 -26t25.5 -62t-25.5 -61.5t-61.5 -25.5z" />
    <glyph glyph-name="at" unicode="@" horiz-adv-x="1028" 
d="M514 -215q-116 0 -210.5 46t-152 137t-57.5 211q0 105 42 196t111 151.5t156.5 95t179.5 34.5q144 0 235.5 -86.5t91.5 -235.5q0 -122 -65 -211.5t-158 -89.5q-48 0 -79 21.5t-32 60.5l-3 1q-50 -81 -112 -81q-43 0 -75 33t-32 99q0 55 28.5 114t81.5 102t115 43
q27 0 45.5 -17t23.5 -44h3l20 55h94l-95 -272q-12 -32 -12 -58q0 -45 39 -45q70 0 130 85t60 210q0 130 -86 208t-215 78q-67 0 -132.5 -30.5t-118.5 -85t-85.5 -140t-32.5 -186.5q0 -175 92.5 -268.5t238.5 -93.5q135 0 241.5 73.5t158.5 222.5l10 -3q-25 -84 -71 -148.5
t-105.5 -103.5t-127 -58.5t-140.5 -19.5zM482 56q45 0 96 91l65 193q-12 72 -61 72q-35 0 -67.5 -49.5t-50.5 -114.5t-19 -118q-1 -74 37 -74z" />
    <glyph glyph-name="A" unicode="A" horiz-adv-x="703" 
d="M-26 0v7q44 5 55 12q30 19 56 78q27 59 127 296t125 301h56q25 -63 128 -336t111 -292q14 -34 40 -47q15 -8 53 -12v-7h-369v7q106 9 106 33q0 11 -4 21l-68 182h-223q-2 -4 -26.5 -67t-26.5 -70q-15 -43 -15 -62q0 -10 8 -17t25 -10.5t28.5 -5t33 -3t24.5 -1.5v-7h-244z
M175 262h208l-100 259z" />
    <glyph glyph-name="B" unicode="B" horiz-adv-x="697" 
d="M22 0v7q5 1 23 2t32.5 3t20.5 4q30 11 30 49v550q0 37 -30 50q-8 4 -22.5 6t-32.5 3.5t-21 1.5v7h357q123 0 186.5 -36t63.5 -116q0 -67 -53 -106.5t-139 -52.5v-9q90 -2 158.5 -49t68.5 -129q0 -100 -76 -142.5t-225 -42.5h-341zM367 10q52 0 85.5 52.5t33.5 126.5
q0 75 -40 120.5t-113 45.5q-15 0 -39 -3v-300q4 -18 23.5 -30t49.5 -12zM294 368h19q70 0 105.5 42.5t35.5 109.5q0 66 -33.5 109t-86.5 43q-16 0 -40 -2v-302z" />
    <glyph glyph-name="C" unicode="C" horiz-adv-x="674" 
d="M373 -15q-147 0 -244.5 94.5t-97.5 254.5q0 162 100.5 264t255.5 102q111 0 197 -45l29 37h11l4 -256h-12q-39 124 -97.5 187.5t-126.5 63.5q-89 0 -132 -91.5t-43 -244.5q0 -328 194 -328q150 0 233 161l11 -5q-36 -86 -107.5 -140t-174.5 -54z" />
    <glyph glyph-name="D" unicode="D" horiz-adv-x="780" 
d="M29 0v7q53 4 69 9q30 10 30 46v555q0 39 -30 49q-19 6 -69 10v7h341q47 0 95 -9.5t100 -34t92 -62t66 -100t26 -140.5q0 -84 -32.5 -150.5t-88.5 -106t-125 -60t-146 -20.5h-328zM375 11q187 0 187 327q0 153 -55 243.5t-150 90.5q-26 0 -62 -2v-595q0 -64 80 -64z" />
    <glyph glyph-name="E" unicode="E" horiz-adv-x="674" 
d="M29 0v7q53 4 69 9q30 10 30 46v555q0 39 -30 49q-19 6 -69 10v7h581v-179h-11q-14 42 -58.5 99.5t-80.5 62.5q-40 5 -86 5h-79v-311h65q59 0 88 29q15 15 30.5 49t18.5 56h11v-285h-11q-3 23 -19.5 59.5t-29.5 50.5q-27 29 -88 29h-65v-251q0 -55 19 -70t87 -15
q37 0 56 1t43 6.5t35 16.5q50 48 117 173h9l-13 -209h-619z" />
    <glyph glyph-name="F" unicode="F" horiz-adv-x="627" 
d="M22 0v7l76 9q30 11 30 49v552q0 37 -30 49q-4 2 -76 10v7h596v-181h-9q-15 42 -53.5 96t-73.5 65q-26 8 -90 8h-97v-315h64q61 0 88 27q15 15 30.5 49.5t20.5 58.5h10v-289h-10q-21 80 -51 114q-24 28 -88 28h-64v-278q0 -35 30 -49q7 -3 73 -10v-7h-376z" />
    <glyph glyph-name="G" unicode="G" horiz-adv-x="757" 
d="M363 -15q-143 0 -237.5 89.5t-94.5 258.5q0 165 101.5 266t262.5 101q120 0 203 -45l33 37h10l4 -253h-12q-40 117 -99.5 183t-130.5 66q-96 0 -141 -90.5t-45 -246.5q0 -165 45 -259t124 -94q43 0 77.5 22t49.5 62v149q-2 40 -34 54q-17 8 -70 11v8h349v-8
q-48 -5 -58 -9q-30 -11 -30 -50v-246l-8 -3l-66 64q-109 -67 -233 -67z" />
    <glyph glyph-name="H" unicode="H" horiz-adv-x="854" 
d="M395 0h-366v7q53 4 69 9q30 10 30 46v555q0 39 -30 49q-19 6 -69 10v7h366v-7q-66 -8 -70 -9q-30 -9 -30 -49v-253h264v252q0 37 -30 49q-9 3 -69 10v7h365v-7q-48 -4 -68 -9q-31 -7 -31 -49v-553q0 -39 31 -49q14 -5 68 -9v-7h-365v7q47 3 69 9q30 8 30 46v284h-264
v-282q0 -38 30 -48q12 -4 70 -9v-7z" />
    <glyph glyph-name="I" unicode="I" horiz-adv-x="427" 
d="M29 0v7q56 4 71 9q30 10 30 46v555q0 39 -30 49q-19 6 -71 10v7h369v-7q-67 -8 -71 -9q-30 -9 -30 -49v-554q0 -38 30 -48q11 -4 71 -9v-7h-369z" />
    <glyph glyph-name="J" unicode="J" horiz-adv-x="546" 
d="M183 -18q-91 0 -136.5 34t-45.5 91q0 44 26 68.5t69 24.5q41 0 64 -24.5t23 -68.5q0 -30 -19 -58t-50 -40v-5q18 -8 38 -8q113 0 113 172v445q0 37 -31 50q-15 7 -76 13v7h374v-7q-64 -7 -71 -9q-30 -10 -30 -49v-410q0 -105 -71.5 -165.5t-176.5 -60.5z" />
    <glyph glyph-name="K" unicode="K" horiz-adv-x="786" 
d="M29 0v7q65 7 69 9q30 11 30 43v558q0 37 -30 49q-8 4 -20 5.5t-29 3t-20 1.5v7h365v-7q-64 -8 -69 -9q-30 -9 -30 -49v-272h15q99 87 179.5 177.5t80.5 119.5q0 23 -92 33v7h278v-7q-101 -9 -155 -61q-37 -36 -87.5 -88.5t-84.5 -85.5q40 -52 118 -168t118 -172
q46 -63 77 -79q21 -11 60 -15v-7h-374v7q34 4 48 11.5t14 27.5q0 23 -50 105t-129 178h-16v-263q0 -37 29 -50q9 -4 62 -9v-7h-357z" />
    <glyph glyph-name="L" unicode="L" horiz-adv-x="641" 
d="M22 0v7q5 1 23.5 2t33 3t19.5 4q30 13 30 50v550q0 37 -30 49q-7 3 -76 11v7h375v-7q-2 0 -31 -1t-40 -5q-31 -10 -31 -49v-523q0 -57 19 -71.5t87 -14.5q90 0 115 25q23 23 60 80t60 99h8l-13 -216h-609z" />
    <glyph glyph-name="M" unicode="M" horiz-adv-x="936" 
d="M6 0v7q1 0 23 1t39.5 4t27.5 11q32 24 32 136v412q0 60 -30 84q-19 16 -87 21v7h273l183 -453l144 368q17 43 21 85h274v-7q-60 -7 -72 -11q-30 -10 -30 -49v-547q0 -34 30 -49q19 -10 73 -13v-7h-380v7q3 0 23.5 2t35.5 4t21 5q32 17 32 51v551l-240 -609h-27
q-20 71 -47 139l-180 449v-439q0 -108 33 -135q6 -5 20.5 -8.5t27 -5t30 -3t19.5 -1.5v-7h-269z" />
    <glyph glyph-name="N" unicode="N" horiz-adv-x="746" 
d="M581 -3l-436 589v-426q0 -108 33 -137q8 -6 25 -9.5t42 -5.5l25 -1v-7h-264v7q4 1 23.5 1.5t37.5 3.5t29 11q32 24 32 137v399q0 59 -27 86q-29 29 -90 31v7h258l339 -461v298q0 108 -34 137q-6 5 -20 8.5t-25 5t-29 3.5l-19 2v7h267v-7q-3 -1 -23.5 -2t-38.5 -5t-29 -12
q-32 -25 -32 -136v-524h-44z" />
    <glyph glyph-name="O" unicode="O" horiz-adv-x="779" 
d="M386 -16q-151 0 -250 93q-105 99 -105 257q0 175 115 277q99 88 244 88q150 0 247 -88q111 -101 111 -265q0 -174 -113 -276q-95 -86 -249 -86zM390 -4q88 0 129 93.5t41 253.5q0 70 -8.5 128.5t-27 108.5t-52.5 78.5t-82 28.5q-84 0 -127.5 -90.5t-43.5 -257.5
q0 -101 16 -175.5t55.5 -121t99.5 -46.5z" />
    <glyph glyph-name="P" unicode="P" horiz-adv-x="649" 
d="M22 0v7q60 3 76 10q30 11 30 49v550q0 37 -30 49q-8 3 -76 11v7h361q255 0 255 -170q0 -72 -43.5 -121.5t-109 -70.5t-145.5 -21h-45v-233q0 -35 30 -49q15 -6 73 -11v-7h-376zM295 313h18q76 0 111 50t35 126q0 181 -132 181h-32v-357z" />
    <glyph glyph-name="Q" unicode="Q" horiz-adv-x="779" 
d="M617 -192q-165 0 -186 178q-28 -2 -45 -2q-151 0 -249 92q-106 99 -106 258q0 161 104 267q96 98 255 98q150 0 250 -92q108 -100 108 -261q0 -146 -85 -245q-43 -51 -101 -80q38 -119 126 -119q46 0 74 25t36 66l9 -3q-11 -68 -60 -125t-130 -57zM249 117
q23 52 58.5 81.5t72.5 29.5q52 0 91.5 -35.5t58.5 -102.5q30 92 30 253q0 73 -8.5 132t-27.5 108t-53 76.5t-81 27.5q-84 0 -127.5 -91t-43.5 -257q0 -132 30 -222zM390 -4q18 0 38 5q-11 173 -85 173q-65 0 -89 -71q47 -107 136 -107z" />
    <glyph glyph-name="R" unicode="R" horiz-adv-x="751" 
d="M606 -12q-69 0 -105.5 37.5t-47.5 128.5t-37.5 134.5t-88.5 43.5h-32v-266q0 -35 30 -49q7 -3 70 -10v-7h-373v7q60 3 76 10q30 11 30 49v548q0 38 -30 50q-10 4 -76 12v7h367q121 0 189 -38.5t68 -117.5q0 -76 -53 -119.5t-138 -60.5v-7q54 -4 97.5 -29t57.5 -74
q7 -24 11.5 -47t9.5 -49t8 -42q5 -22 17.5 -34t27.5 -12q20 0 37 22.5t17 60.5v30h14v-31q0 -70 -32 -108.5t-114 -38.5zM295 346h16q71 0 113 40t42 124q0 77 -35 118.5t-103 41.5h-33v-324z" />
    <glyph glyph-name="S" unicode="S" horiz-adv-x="592" 
d="M296 -15q-121 0 -215 52l-30 -45h-12l-6 252h10q41 -109 103.5 -178t137.5 -69q65 0 98.5 39.5t33.5 94.5q0 89 -116 130q-123 42 -128 44q-62 26 -92.5 76.5t-30.5 116.5q0 84 65.5 143t174.5 59q119 0 192 -45l26 37h12l4 -237h-10q-38 107 -89.5 169.5t-125.5 62.5
q-52 0 -82.5 -34.5t-30.5 -83.5q0 -93 116 -135q8 -3 59 -19.5t70 -24.5q63 -27 95.5 -71.5t32.5 -119.5q0 -92 -73 -153t-189 -61z" />
    <glyph glyph-name="T" unicode="T" horiz-adv-x="637" 
d="M125 0v7q64 4 80 10q30 12 30 50v604h-26q-37 0 -72 -5q-28 -4 -68.5 -65.5t-53.5 -103.5h-9v186h625v-186h-9q-14 43 -53 104t-68 65q-35 5 -72 5h-27v-602q0 -36 30 -50q11 -5 81 -12v-7h-388z" />
    <glyph glyph-name="U" unicode="U" horiz-adv-x="773" 
d="M400 -16q-136 0 -210.5 66t-74.5 178v387q0 34 -30 50q-8 4 -21 6.5t-28.5 3.5t-18.5 1v7h366v-7q-64 -8 -69 -9q-31 -10 -31 -49v-400q0 -102 38.5 -148t119.5 -46q83 0 138.5 55t55.5 154v289q0 106 -35 136q-6 5 -19.5 8.5t-25 5t-28 3t-18.5 1.5v7h266v-7
q-74 -6 -91 -19q-18 -14 -25 -43t-7 -91v-295q0 -117 -70.5 -180.5t-181.5 -63.5z" />
    <glyph glyph-name="V" unicode="V" horiz-adv-x="689" 
d="M367 -8h-56q-210 554 -233 613q-12 29 -22 42.5t-26 18.5q-21 6 -56 10v7h366v-7q-56 -5 -77 -10.5t-22 -14.5t5 -27q54 -158 170 -456q19 42 73 182.5t73 191.5q26 72 26 97q0 30 -111 36v8h237v-8q-34 -2 -53 -9q-14 -6 -26 -21t-18 -28t-16 -37q-22 -54 -116 -288
t-118 -300z" />
    <glyph glyph-name="W" unicode="W" horiz-adv-x="1035" 
d="M278 -8l-200 612q-14 43 -38 58q-19 12 -57 14v7h344v-7q-85 -8 -85 -31q0 -11 5 -33q5 -17 62.5 -191.5t81.5 -244.5l114 314q-42 148 -79 171q-21 13 -57 15v7h358v-7q-86 -8 -97 -24q-2 -3 -2 -7q0 -18 5 -33q62 -197 149 -440q19 47 68 184t60 171q25 75 25 106
q0 12 -9 20t-29 12.5t-32 6t-37 3.5q-3 0 -4 0.5t-3 0.5h-4v7h244v-7q-39 -4 -57 -14q-30 -16 -63 -106q-192 -527 -206 -564h-66q-13 38 -78 239.5t-77 232.5l-172 -472h-64z" />
    <glyph glyph-name="X" unicode="X" horiz-adv-x="764" 
d="M-6 0v7q36 3 58 12q47 19 102 83q152 178 166 196l-183 286q-42 65 -80 80q-22 9 -59 12v7h424v-7q-115 -7 -115 -30q0 -14 17 -51t39 -71q67 -104 72 -111q16 21 46 58.5t44 55.5q73 98 73 121q0 11 -26.5 17t-85.5 11v7h265v-7q-37 -3 -56 -11q-49 -22 -101 -84
q-92 -110 -150 -182q19 -28 100.5 -156.5t92.5 -144.5q17 -24 24 -33.5t23 -24t32 -21.5q22 -9 58 -12v-7h-424v7q110 7 110 34q0 24 -44 99q-68 116 -87 142q-96 -119 -102 -127q-79 -105 -79 -118q0 -21 110 -30v-7h-264z" />
    <glyph glyph-name="Y" unicode="Y" horiz-adv-x="704" 
d="M155 0v7q70 4 81 8q31 12 31 50v156q0 33 -5.5 52.5t-25.5 55.5q-113 207 -145 262q-31 51 -63 71q-20 12 -54 14v7h391v-7q-109 -6 -109 -26q0 -16 44 -99q89 -171 130 -238q9 17 33.5 61t47 85.5t39.5 72.5q50 94 50 109q0 28 -105 35v7h227v-7q-36 -5 -53 -14
q-30 -17 -65 -75q-61 -101 -133 -234q-24 -45 -30.5 -73.5t-6.5 -78.5v-134q0 -36 30 -50q15 -6 80 -10v-7h-389z" />
    <glyph glyph-name="Z" unicode="Z" horiz-adv-x="646" 
d="M6 0v10l429 661h-134q-73 0 -103 -13q-22 -9 -65 -61.5t-80 -114.5h-11l20 201h564v-10l-429 -661h148q79 0 110.5 6.5t46.5 23.5q77 89 124 181h10l-23 -223h-607z" />
    <glyph glyph-name="bracketleft" unicode="[" horiz-adv-x="566" 
d="M485 -200l-5 2q17 21 17 45q0 22 -18.5 34.5t-73.5 12.5q-109 0 -308 -45l-23 -8v886l23 -8q199 -45 308 -45q56 0 74 12t18 35q0 22 -16 44l5 3q10 -7 19 -27.5t9 -41.5q0 -58 -33.5 -93t-99.5 -35q-27 0 -53 6.5t-56.5 22.5t-49 27t-58 38.5t-56.5 38.5v-840
q17 11 56.5 38.5t58 38.5t49 27t56.5 22.5t53 6.5q66 0 99.5 -35t33.5 -93q0 -22 -10 -41.5t-19 -27.5z" />
    <glyph glyph-name="backslash" unicode="\" horiz-adv-x="406" 
d="M375 -199l-32 -10l-313 951l33 10z" />
    <glyph glyph-name="bracketright" unicode="]" horiz-adv-x="566" 
d="M95 -198l-5 -2q-9 8 -19 27.5t-10 41.5q0 58 33.5 93t99.5 35q27 0 53 -6t56.5 -22.5t48.5 -27.5t58.5 -38.5t56.5 -38.5v840q-16 -11 -56.5 -38.5t-58.5 -38.5t-48.5 -27.5t-56.5 -22.5t-53 -6q-66 0 -99.5 35t-33.5 93q0 21 9 41.5t18 27.5l6 -3q-16 -22 -16 -44
q0 -23 18 -35t74 -12q109 0 308 45l23 8v-886l-23 8q-200 45 -308 45q-55 0 -73.5 -12.5t-18.5 -34.5q0 -24 17 -45z" />
    <glyph glyph-name="asciicircum" unicode="^" horiz-adv-x="450" 
d="M37 380l-7 5q73 119 134 208q7 11 12 15.5t17 8.5t31 4q42 0 62 -28q61 -89 134 -208l-7 -5l-188 137z" />
    <glyph glyph-name="underscore" unicode="_" horiz-adv-x="599" 
d="M-6 -154v48h610v-48h-610z" />
    <glyph glyph-name="grave" unicode="`" 
d="M330 533q-47 30 -154 92q-36 21 -51 37t-15 42q0 21 15.5 36t42.5 15q24 0 41 -14.5t37 -45.5q5 -8 90 -155z" />
    <glyph glyph-name="a" unicode="a" horiz-adv-x="514" 
d="M146 -15q-51 0 -86 32.5t-35 81.5q0 58 26 85t72 44q23 8 61.5 19t66 20t38.5 17v66q0 115 -57 115q-35 0 -54 -19q0 -1 11.5 -36t11.5 -54t-23 -38t-59 -19t-54 20.5t-18 48.5q0 44 62 75.5t131 31.5q46 0 76.5 -5t60 -20t44 -46t14.5 -79q0 -53 -3 -142.5t-3 -98.5
q0 -15 9.5 -31t26.5 -16q23 0 37 26t15 70h12q-3 -146 -122 -146q-80 0 -115 65h-3q-21 -22 -35 -34t-42.5 -22.5t-65.5 -10.5zM227 38q38 0 59 32l4 198q-36 -14 -51 -23q-33 -18 -47.5 -45t-14.5 -73q0 -89 50 -89z" />
    <glyph glyph-name="b" unicode="b" horiz-adv-x="569" 
d="M64 -15l-7 3q6 80 6 181v490q0 42 -27 57q-15 8 -64 11v7l232 12l4 -4v-330l4 -1q56 64 127 64q87 0 142 -66.5t55 -179.5q0 -106 -65.5 -175t-163.5 -69q-47 0 -85.5 12.5t-50 21t-34.5 26.5zM285 -3q91 0 91 225q0 101 -20.5 154t-74.5 53q-40 0 -73 -39v-319
q21 -74 77 -74z" />
    <glyph glyph-name="c" unicode="c" horiz-adv-x="455" 
d="M258 -15q-115 0 -175 69t-60 179q0 100 65 171t177 71q82 0 125 -32t43 -85q0 -31 -20 -51.5t-57 -20.5q-36 0 -56.5 19.5t-20.5 51.5q0 11 14 45t15 37q-5 24 -42 24q-41 0 -63 -56.5t-22 -165.5q0 -99 32 -151.5t86 -52.5q100 0 143 96l11 -7q-24 -61 -77 -101
t-118 -40z" />
    <glyph glyph-name="d" unicode="d" horiz-adv-x="584" 
d="M232 -14q-87 0 -143 69t-56 182q0 103 64.5 170.5t152.5 67.5q59 0 113 -24v204q0 42 -25 57q-18 11 -87 16v6l249 12l7 -7v-660q0 -30 25 -48q17 -13 58 -15v-6l-222 -14l-4 4v49l-4 1q-61 -64 -128 -64zM288 29q42 0 75 42v315q-20 74 -77 74q-45 0 -69.5 -64.5
t-24.5 -167.5q0 -199 96 -199z" />
    <glyph glyph-name="e" unicode="e" horiz-adv-x="480" 
d="M263 -15q-118 0 -179 69.5t-61 178.5q0 102 62 172t171 70q107 0 156.5 -56t49.5 -143v-6h-283v-29q0 -95 32.5 -150.5t101.5 -55.5q100 0 149 95l11 -8q-30 -61 -84.5 -99t-125.5 -38zM179 283l128 2q0 25 -0.5 40.5t-2 39.5t-5 39t-10 30t-16.5 22t-24 7
q-33 0 -50.5 -49.5t-19.5 -130.5z" />
    <glyph glyph-name="f" unicode="f" horiz-adv-x="336" 
d="M18 0v7q26 2 43 8q26 10 26 44v387h-96v16h96v18q0 126 68 197q68 70 169 70q74 0 106 -30.5t32 -72.5q0 -25 -20 -47.5t-53 -22.5q-27 0 -50 15.5t-23 44.5q0 13 8.5 43t9.5 37q0 9 -8 15.5t-18 6.5q-37 0 -55 -48t-22 -148v-78h122v-16h-121v-385q0 -33 27 -44
q18 -7 64 -10v-7h-305z" />
    <glyph glyph-name="g" unicode="g" horiz-adv-x="512" 
d="M242 -232q-122 0 -179 34t-57 93q0 42 40.5 67.5t118.5 28.5v4q-108 32 -108 97t106 86v4q-64 19 -97 55.5t-33 85.5q0 73 64 112.5t144 39.5q85 0 124 -23q41 104 103 104q22 0 38.5 -14.5t16.5 -38.5t-14.5 -40t-37.5 -16q-39 0 -63 44q-20 -8 -32 -41v-3
q35 -22 53.5 -57.5t18.5 -71.5q0 -65 -58.5 -104.5t-139.5 -39.5h-77q-23 -17 -23 -33q0 -7 1 -12t4.5 -8.5l6.5 -6.5t9.5 -4.5t10.5 -3t13 -2t14.5 -0.5t16.5 -0.5t17 -0.5l130 -5q53 -3 96.5 -41.5t43.5 -104.5q0 -80 -69 -132t-202 -52zM265 -221q66 0 102 39.5t36 96.5
q0 46 -48 63q-30 5 -183 5q-49 -26 -49 -88q0 -52 37 -84t105 -32zM241 183q65 0 65 139q0 142 -66 142q-61 0 -61 -139q0 -142 62 -142z" />
    <glyph glyph-name="h" unicode="h" horiz-adv-x="591" 
d="M14 0v7q29 2 43 6q24 8 24 39v607q0 39 -23 54q-18 12 -70 15v6l233 12l4 -4v-349h3q1 1 13 14t14.5 15t14 13t17 13.5t18 10t22.5 9.5t24.5 4.5t29.5 2.5q137 0 137 -157v-262q0 -18 4 -27t17 -14q12 -4 45 -8v-7h-265v7q24 2 37 7q15 5 15 44v266q0 90 -63 90
q-30 0 -52 -13t-31 -31v-313q0 -34 15 -41q10 -5 40 -9v-7h-266z" />
    <glyph glyph-name="i" unicode="i" horiz-adv-x="307" 
d="M18 0v7q32 2 43 6q26 10 26 44v331q0 33 -25 50q-16 11 -59 13v6l225 12l4 -4v-409q0 -31 22 -42q14 -7 48 -7v-7h-284zM148 568q-37 0 -62.5 24.5t-25.5 61.5t25.5 61.5t62.5 24.5t62 -24.5t25 -61.5t-25 -61.5t-62 -24.5z" />
    <glyph glyph-name="j" unicode="j" horiz-adv-x="316" 
d="M20 -232q-132 0 -132 97q0 24 19.5 47.5t51.5 23.5q27 0 49 -16t22 -47q0 -29 -17 -92q10 -2 16 -2q40 0 54 50t14 161v390q0 36 -26 53q-19 13 -83 16v8l250 12l4 -4v-423q0 -135 -62 -201q-68 -73 -160 -73zM160 568q-37 0 -62.5 24.5t-25.5 61.5t25.5 61.5t62.5 24.5
q36 0 61 -24.5t25 -61.5t-25 -61.5t-61 -24.5z" />
    <glyph glyph-name="k" unicode="k" horiz-adv-x="557" 
d="M14 0v7q29 2 43 6q24 8 24 39v607q0 39 -23 54q-18 12 -70 15v6l233 12l4 -4v-514q125 122 166 174q12 16 12 30t-67 24v6h206v-6q-45 -8 -68.5 -19t-49.5 -33q-31 -25 -82 -78q23 -11 44.5 -32.5t35 -39t31.5 -54.5t24 -50t22 -57t17 -45q10 -25 35 -33q24 -8 36 -8v-7
h-214q-17 74 -54 151t-70 77q-12 0 -24 -14v-157q0 -34 15 -41q10 -5 40 -9v-7h-266z" />
    <glyph glyph-name="l" unicode="l" horiz-adv-x="297" 
d="M9 0v7q35 2 42 5q26 10 26 44v600q0 39 -27 58q-17 11 -69 14v6l236 12l4 -4v-683q0 -33 26 -45q7 -3 43 -7v-7h-281z" />
    <glyph glyph-name="m" unicode="m" horiz-adv-x="878" 
d="M19 0v7q29 2 43 6q24 8 24 39v331q0 39 -23 54q-18 12 -51 14v6l215 12l4 -4v-72h3q1 1 10.5 11t11.5 12.5t11 11t13 11t13 9.5t15 9.5t15.5 7t18 6t19.5 3t23 1.5q94 0 127 -84h4q28 29 41.5 41.5t46 27.5t71.5 15q65 0 98 -42t33 -115v-261q0 -19 4 -28t17 -14
q18 -6 45 -8v-7h-263v7q24 2 37 8q14 8 14 44v262q0 95 -57 95q-32 0 -53.5 -13t-30.5 -31v-311q0 -34 17 -45q12 -7 35 -9v-7h-248v7q26 2 36 8q14 8 14 44v258q0 97 -58 97q-30 0 -52 -13t-31 -31v-313q0 -34 15 -41q10 -5 40 -9v-7h-267z" />
    <glyph glyph-name="n" unicode="n" horiz-adv-x="597" 
d="M19 0v7q29 2 43 6q24 8 24 39v331q0 39 -23 54q-18 12 -51 14v6l215 12l4 -4v-72h3q1 1 13 14t14.5 15t14 13t17 13.5t18 10t22.5 9.5t24.5 4.5t29.5 2.5q137 0 137 -157v-262q0 -18 4 -27t17 -14q12 -4 45 -8v-7h-265v7q24 2 37 7q15 5 15 44v266q0 90 -63 90
q-30 0 -52 -13t-31 -31v-313q0 -34 15 -41q10 -5 40 -9v-7h-267z" />
    <glyph glyph-name="o" unicode="o" horiz-adv-x="544" 
d="M269 -15q-105 0 -175.5 67t-70.5 179q0 108 68 176t182 68q115 0 181.5 -67t66.5 -174q0 -109 -65.5 -179t-186.5 -70zM273 -4q28 0 46.5 19t26.5 56t11 74t3 90q0 104 -18 166.5t-68 62.5q-89 0 -89 -227q0 -54 2.5 -90t11 -74t27 -57.5t47.5 -19.5z" />
    <glyph glyph-name="p" unicode="p" horiz-adv-x="581" 
d="M-4 -226v7q43 2 55 6q25 8 25 46v550q0 39 -23 54q-18 12 -51 14v6l215 12l4 -4v-54l4 -1q57 65 130 65q85 0 139 -65.5t54 -171.5q0 -110 -62 -180t-154 -70q-66 0 -108 31h-4v-181q0 -35 28 -46q17 -6 73 -11v-7h-325zM299 4q90 0 90 222q0 201 -95 201q-43 0 -74 -39
v-312q23 -72 79 -72z" />
    <glyph glyph-name="q" unicode="q" horiz-adv-x="571" 
d="M278 -226v7q47 3 59 7q26 10 26 46v214l-4 1q-58 -61 -126 -61q-90 0 -145 67.5t-55 180.5q0 105 69.5 172t173.5 67q91 0 170 -43l62 56l7 -2q-8 -82 -8 -158v-489q0 -35 27 -48q7 -4 60 -10v-7h-316zM284 31q48 0 79 42v316q-18 74 -75 74q-47 0 -71.5 -65t-24.5 -168
q0 -199 92 -199z" />
    <glyph glyph-name="r" unicode="r" horiz-adv-x="447" 
d="M19 0v7q32 2 42 6q25 9 25 44v329q0 34 -26 53q-14 10 -50 12v6l217 12l4 -4v-70h2q60 78 129 78q38 0 62.5 -25t24.5 -66q0 -36 -21.5 -61t-55.5 -25q-33 0 -53.5 17.5t-20.5 47.5q0 12 3.5 26t8.5 26t6 15q-28 -1 -52 -19t-33 -34v-314q0 -33 27 -44q15 -7 66 -10v-7
h-305z" />
    <glyph glyph-name="s" unicode="s" horiz-adv-x="421" 
d="M210 -15q-44 0 -90 14.5t-64 28.5l-23 -34h-8l-5 173h7q29 -62 75.5 -116.5t100.5 -54.5q38 0 60 22.5t22 58.5q0 38 -25.5 59t-95.5 44q-131 43 -131 154q0 60 48 100.5t129 40.5q80 0 134 -27l21 28h8l6 -158h-8q-27 61 -66.5 103.5t-79.5 42.5q-34 0 -53 -22t-19 -52
q0 -38 23 -56t92 -41q134 -44 134 -153q0 -73 -54 -114t-138 -41z" />
    <glyph glyph-name="t" unicode="t" horiz-adv-x="352" 
d="M213 -13q-68 0 -103 37.5t-35 105.5v316h-85v16h87v144h142v-144h126v-16h-126v-319q0 -81 58 -81q33 0 50 28t19 66h12q-2 -67 -36.5 -110t-108.5 -43z" />
    <glyph glyph-name="u" unicode="u" horiz-adv-x="581" 
d="M201 -13q-65 0 -96.5 44t-31.5 119v240q0 38 -26 51q-14 7 -50 9v7l219 12l3 -4v-332q0 -95 56 -95q57 0 84 51v302q0 36 -22 49q-12 7 -58 9v8l220 12l4 -4v-390q0 -35 25 -49q13 -8 50 -10v-6l-211 -14l-7 7v62h-3q-22 -25 -37.5 -38.5t-47.5 -26.5t-71 -13z" />
    <glyph glyph-name="v" unicode="v" horiz-adv-x="465" 
d="M215 -6q-114 276 -176 412q-19 43 -63 49v7h277v-7q-62 -3 -62 -23q0 -4 6 -21q62 -162 110 -267q8 20 46 121.5t43 113.5q11 29 10 45q-1 8 -7.5 13.5t-22 9t-23.5 5t-29 4.5v6h169v-6q-28 -5 -42 -15t-26 -38q-66 -160 -113 -286q-25 -66 -42 -123h-55z" />
    <glyph glyph-name="w" unicode="w" horiz-adv-x="720" 
d="M202 -6q-9 23 -46 118.5t-69.5 178t-45.5 114.5q-18 45 -64 50v7h261v-7q-50 -3 -50 -23q0 -4 6 -21q10 -30 47.5 -133t51.5 -132q1 3 64 166q-23 68 -34 93q-8 26 -20 36.5t-35 13.5v7h260v-7q-61 -3 -61 -24q0 -6 5 -20q2 -5 22 -65.5t42 -122t31 -80.5q7 17 43.5 115
t43.5 115q10 24 10 45q0 15 -20.5 23t-59.5 15v6h169v-5q-16 -3 -26.5 -7.5t-23.5 -17.5t-21 -34l-110 -281q-28 -74 -43 -123h-57q-7 20 -50 141t-56 157q-13 -23 -67 -175q-28 -79 -40 -123h-57z" />
    <glyph glyph-name="x" unicode="x" horiz-adv-x="501" 
d="M-9 0v7q52 9 90 57q6 7 31.5 37.5t49.5 59.5t34 42q-5 7 -65 102.5t-66 104.5q-27 42 -65 45v7h269v-7q-16 0 -35 -4t-20 -10q-2 -7 7 -22q51 -92 76 -126l81 110q12 16 12 28q-1 13 -71 25v6h181v-6q-39 -6 -58.5 -17.5t-41.5 -36.5q-33 -36 -95 -119q1 -1 67.5 -108
t74.5 -119q17 -25 29.5 -34.5t36.5 -13.5v-8h-275v8q20 1 40 6t20 12q0 5 -10 25q-4 9 -39 67t-45 73q-84 -102 -99 -125q-15 -21 -15 -30q0 -10 26 -18.5t43 -9.5v-8h-168z" />
    <glyph glyph-name="y" unicode="y" horiz-adv-x="465" 
d="M72 -232q-33 0 -62 21.5t-29 64.5q0 28 21 50.5t53 22.5q25 0 47 -15t22 -47q0 -18 -5.5 -45t-5.5 -30q68 20 132 186q-10 21 -104 217t-102 213q-20 42 -66 49v7h274v-7q-60 -3 -60 -23q0 -2 7 -21q7 -18 56 -124.5t63 -133.5q24 53 85 227q10 28 10 44q0 5 -2 8.5
t-7 6.5t-10 5t-13.5 3.5t-14.5 3t-16.5 3t-16.5 2.5v6h167v-6q-22 -4 -30.5 -7t-19.5 -14t-19 -32q-16 -40 -52 -134.5t-71.5 -186.5t-39.5 -103q-45 -113 -88 -162t-103 -49z" />
    <glyph glyph-name="z" unicode="z" horiz-adv-x="437" 
d="M9 0v12l251 438h-51q-64 0 -95 -14q-30 -13 -78 -125h-9v151h393v-11l-252 -439q24 -1 66 -1q39 0 77 4q31 4 51 38q25 44 57 120h8v-173h-418z" />
    <glyph glyph-name="braceleft" unicode="{" horiz-adv-x="424" 
d="M394 -161v-8q-116 0 -174 35t-58 136q0 20 8 64t8 65q0 74 -34 99t-113 31v53q80 7 113.5 31.5t33.5 98.5q0 21 -8 65t-8 64q0 101 58 136t174 35v-8q-26 -1 -41 -5t-30 -16t-21 -37t-6 -65q0 -20 4.5 -62t4.5 -62q0 -41 -11 -70.5t-26 -46.5t-45 -30t-51.5 -18
t-62.5 -13v-47q41 -8 62.5 -13t51.5 -18t45 -30t26 -46.5t11 -70.5q0 -20 -4.5 -62t-4.5 -62q0 -41 6 -66t21 -36.5t29.5 -15.5t41.5 -5z" />
    <glyph glyph-name="bar" unicode="|" horiz-adv-x="281" 
d="M119 -207v953h43v-953h-43z" />
    <glyph glyph-name="braceright" unicode="}" horiz-adv-x="424" 
d="M29 -169v8q27 1 41.5 5t29.5 15.5t21 36.5t6 66q0 20 -4.5 62t-4.5 62q0 41 11 70.5t26 46.5t45 30t51.5 18t62.5 13v47q-41 8 -62.5 13t-51.5 18t-45 30t-26 46.5t-11 70.5q0 20 4.5 62t4.5 62q0 40 -6 65t-21 37t-30 16t-41 5v8q116 0 174 -35t58 -136q0 -20 -8 -64
t-8 -65q0 -74 33.5 -98.5t113.5 -31.5v-53q-79 -6 -113 -31t-34 -99q0 -21 8 -65t8 -64q0 -101 -58 -136t-174 -35z" />
    <glyph glyph-name="asciitilde" unicode="~" horiz-adv-x="534" 
d="M62 191l-8 3q17 62 52.5 105.5t85.5 43.5q40 0 99 -23t81 -23q38 0 60 13t39 46l8 -3q-18 -64 -52 -107t-82 -43q-44 0 -101 23t-79 23q-39 0 -62.5 -13t-40.5 -45z" />
    <glyph glyph-name="nbspace" unicode="&#xa0;" horiz-adv-x="100" 
 />
    <glyph glyph-name="exclamdown" unicode="&#xa1;" horiz-adv-x="327" 
d="M168 464q13 -83 45 -218.5t32 -175.5q0 -35 -22 -59.5t-60 -24.5t-60.5 24.5t-22.5 59.5q0 41 33 178t46 216h9zM163 698q36 0 60.5 -24t24.5 -60t-25 -60.5t-60 -24.5q-36 0 -61 24.5t-25 60.5t25 60t61 24z" />
    <glyph glyph-name="cent" unicode="&#xa2;" horiz-adv-x="483" 
d="M165 -113l-16 4l42 178q-73 23 -113 83t-40 150q0 98 66 169t173 71q17 0 24 -1l31 130l17 -4l-29 -127q57 -9 92 -39.5t35 -71.5q0 -29 -17 -48t-46 -19q-25 0 -41.5 15.5t-16.5 42.5q0 25 9 49.5t9 30.5q-4 14 -28 26l-90 -379q27 -38 83 -38q96 0 141 85l9 -5
q-25 -60 -74.5 -95.5t-111.5 -35.5q-35 0 -65 7zM213 165l86 366q-6 1 -18 1q-44 0 -74 -58t-30 -164q0 -92 36 -145z" />
    <glyph glyph-name="sterling" unicode="&#xa3;" horiz-adv-x="748" 
d="M57 -98q-117 0 -117 89q0 49 54 87.5t127 38.5q64 0 142 -22q2 19 -2 87h-174v17h173q-5 49 -7 88h-160v18h159q0 175 83.5 284t218.5 109q101 0 155.5 -50t54.5 -117q0 -73 -49 -118.5t-133 -45.5q-57 0 -88 32t-31 85q0 41 20 87l9 -2q-17 -39 -17 -73q0 -49 26.5 -77
t69.5 -28q46 0 71 34.5t25 100.5q0 70 -28.5 116.5t-83.5 46.5q-79 0 -115.5 -70.5t-38.5 -221.5q0 -56 -6 -92h162v-18h-165q-9 -49 -32 -88h189v-17h-197q-26 -55 -61 -97q20 -7 76 -30.5t92.5 -33.5t71.5 -10q41 0 69.5 11.5t44 33.5t22.5 43t12 51l10 -2
q-30 -233 -234 -233q-35 0 -78.5 12.5t-68 23.5t-73.5 35q-32 -37 -80 -60.5t-98 -23.5zM56 -83q95 0 164 76q-97 45 -176 45q-38 0 -60.5 -16.5t-22.5 -42.5q0 -27 24.5 -44.5t70.5 -17.5z" />
    <glyph glyph-name="currency" unicode="&#xa4;" horiz-adv-x="603" 
d="M367 -14q-111 0 -183 65.5t-86 187.5h-74v17h73q-2 27 0 77h-73v18h76q16 116 96.5 192.5t203.5 76.5q81 0 132 -36.5t51 -94.5q0 -41 -18 -61t-43 -20q-28 0 -44.5 16t-16.5 40q0 19 19 48t19 43q-4 22 -32.5 38.5t-67.5 16.5q-126 0 -144 -259h208v-18h-209
q0 -58 1 -77h182v-17h-181q6 -93 46 -153t109 -60q106 0 165 122l9 -5q-33 -74 -83.5 -115.5t-134.5 -41.5z" />
    <glyph glyph-name="yen" unicode="&#xa5;" horiz-adv-x="582" 
d="M115 0v7q54 3 74 10q14 5 22.5 18t8.5 29v88h-152v18h152v77h-152v18h149q-9 20 -66 129t-68 128q-24 46 -56 64q-20 12 -51 14v7h324v-7q-81 -5 -81 -27q0 -18 143 -286q9 15 28.5 49.5t30 52.5t27 47t25.5 46t18.5 35.5t14 29.5t4.5 15q0 31 -89 38v7h197v-7
q-51 -7 -86 -58q-85 -133 -164 -277h157v-18h-159v-77h159v-18h-159v-83q0 -35 29 -48q25 -11 70 -14v-7h-350z" />
    <glyph glyph-name="brokenbar" unicode="&#xa6;" horiz-adv-x="281" 
d="M119 -207v392h43v-392h-43zM119 364v382h43v-382h-43z" />
    <glyph glyph-name="section" unicode="&#xa7;" horiz-adv-x="540" 
d="M242 -227q-65 0 -101.5 40.5t-36.5 76.5q0 38 19 61.5t56 23.5q27 0 44.5 -19.5t17.5 -44.5q0 -23 -22 -47.5t-22 -34.5q0 -20 14 -33t36 -13q33 0 54.5 29t21.5 75q0 33 -16.5 62t-50.5 71q-18 22 -58.5 67.5t-70.5 81.5q-39 46 -55 79.5t-16 73.5q0 53 39.5 90.5
t93.5 49.5q-43 59 -43 128q0 61 47 104.5t124 43.5q64 0 98 -40t34 -77t-19 -61t-56 -24q-27 0 -44.5 18.5t-17.5 44.5q0 23 24 48t24 34q0 21 -14 34t-39 13q-34 0 -55.5 -27.5t-21.5 -73.5q0 -34 15.5 -61t52.5 -72q23 -28 63.5 -74.5t64.5 -74.5q39 -46 55.5 -80.5
t16.5 -73.5q0 -53 -39.5 -88t-96.5 -48q47 -61 47 -134q0 -61 -45.5 -104.5t-121.5 -43.5zM354 65q57 19 57 83q0 48 -48 106q-160 188 -167 198q-56 -21 -56 -84q0 -48 51 -109q18 -22 79 -93t84 -101z" />
    <glyph glyph-name="dieresis" unicode="&#xa8;" 
d="M140 563q-31 0 -52.5 23t-21.5 55t21.5 55t52.5 23q30 0 52 -23t22 -55t-22 -55t-52 -23zM360 563q-31 0 -52.5 23t-21.5 55t21.5 55t52.5 23q30 0 52 -23t22 -55t-22 -55t-52 -23z" />
    <glyph glyph-name="copyright" unicode="&#xa9;" horiz-adv-x="950" 
d="M482 13q-105 0 -172 64t-67 170q0 103 75 173t183 70q33 0 70.5 -11t47.5 -19l27 34h8l4 -178h-10q-23 67 -60.5 114t-89.5 47t-84.5 -59.5t-32.5 -165.5q0 -202 136 -202q46 0 84 28.5t61 79.5l11 -5q-29 -66 -73.5 -103t-117.5 -37zM476 -181q-181 0 -309 126.5
t-128 305.5q0 116 58 215t159 157t220 58q180 0 307.5 -126.5t127.5 -303.5q0 -117 -58 -216.5t-158.5 -157.5t-218.5 -58zM476 -152q166 0 281.5 118t115.5 285q0 165 -116 282.5t-281 117.5q-166 0 -282.5 -117.5t-116.5 -282.5q0 -167 116.5 -285t282.5 -118z" />
    <glyph glyph-name="ordfeminine" unicode="&#xaa;" horiz-adv-x="373" 
d="M125 326q-42 0 -62.5 18t-20.5 49q0 54 57 75q15 6 58.5 17.5t53.5 17.5v46q0 62 -40 62q-19 0 -32 -11q0 -2 5 -22t5 -30q0 -12 -12.5 -23.5t-33.5 -11.5t-31.5 12.5t-10.5 29.5q0 27 37.5 46t77.5 19q56 0 89.5 -18t33.5 -71q0 -31 -2 -82t-2 -57q0 -29 24 -29
q25 0 27 50h9q-3 -86 -74 -86q-53 0 -68 41q-38 -42 -88 -42zM169 357q25 0 39 21l3 115q-39 -15 -58 -33t-19 -52q0 -51 35 -51zM47 234v32h284v-32h-284z" />
    <glyph glyph-name="guillemotleft" unicode="&#xab;" horiz-adv-x="569" 
d="M296 16q-42 29 -124 87.5t-105 74.5q-16 11 -20.5 19t-4.5 27q0 18 4.5 26t17.5 18l232 164l5 -5l-135 -204l135 -203zM513 16q-42 29 -124 87.5t-105 74.5q-16 11 -20.5 19t-4.5 27q0 18 4.5 26t17.5 18q18 13 104 73.5t128 90.5l5 -5l-135 -204l135 -203z" />
    <glyph glyph-name="logicalnot" unicode="&#xac;" horiz-adv-x="566" 
d="M452 39v210h-409v48h462v-258h-53z" />
    <glyph glyph-name="registered" unicode="&#xae;" horiz-adv-x="494" 
d="M323 423q-42 0 -48 51l-1 6q-1 7 -1 8t-1 7t-2 7.5t-2.5 6t-3.5 6t-5 4.5t-6 4t-7.5 2t-9.5 1h-12v-74q0 -11 9 -15q6 -3 20 -3v-8h-104v8q14 0 20 3q9 5 9 15v152q0 12 -9 15q-12 4 -20 4v8h110q71 0 71 -46q0 -40 -68 -52v-3q51 -7 56 -32q1 -4 4.5 -19.5t5.5 -23.5
q5 -16 15 -16q15 0 15 26h7q0 -22 -9.5 -32t-32.5 -10zM247 339q-77 0 -129.5 52.5t-52.5 129.5t52.5 129.5t129.5 52.5t129.5 -52.5t52.5 -129.5t-52.5 -129.5t-129.5 -52.5zM247 357q69 0 114.5 47.5t45.5 116.5t-45.5 116.5t-114.5 47.5t-114.5 -47.5t-45.5 -116.5
t45.5 -116.5t114.5 -47.5zM224 535h16q44 0 44 44q0 24 -9 33.5t-27 9.5h-24v-87z" />
    <glyph glyph-name="macron" unicode="&#xaf;" 
d="M85 585v91h330v-91h-330z" />
    <glyph glyph-name="degree" unicode="&#xb0;" horiz-adv-x="387" 
d="M191 414q-68 0 -111.5 38t-43.5 107q0 64 46.5 107.5t108.5 43.5q70 0 115 -38t45 -112q0 -61 -47 -103.5t-113 -42.5zM194 423q33 0 52 39t19 96q0 63 -18 102.5t-55 39.5t-54 -39.5t-17 -97.5q0 -60 17.5 -100t55.5 -40z" />
    <glyph glyph-name="plusminus" unicode="&#xb1;" horiz-adv-x="567" 
d="M257 79v208h-215v51h215v208h53v-208h214v-51h-214v-208h-53zM52 0v48h463v-48h-463z" />
    <glyph glyph-name="twosuperior" unicode="&#xb2;" horiz-adv-x="460" 
d="M62 337v25q122 73 188 135q72 69 72 154q0 36 -20 60.5t-52 24.5q-49 0 -82 -38t-33 -79q0 -53 48 -53q25 0 47.5 18t35.5 39l6 -4q-48 -90 -130 -90q-83 0 -83 73q0 51 56.5 97.5t143.5 46.5q76 0 120 -31.5t44 -84.5q0 -62 -52 -102.5t-173 -90.5q-24 -12 -44 -28h211
q24 0 40.5 17t37.5 52l7 -3l-60 -138h-328z" />
    <glyph glyph-name="threesuperior" unicode="&#xb3;" horiz-adv-x="462" 
d="M191 332q-61 0 -105.5 24t-44.5 70q0 29 20 48.5t46 19.5q21 0 33.5 -11.5t12.5 -30.5q0 -13 -8 -22t-17.5 -13t-17.5 -10t-8 -13q0 -20 23.5 -36t63.5 -16q51 0 89.5 42t38.5 95q0 77 -55 77q-29 0 -77 -48l-14 20q71 34 106.5 64t35.5 75q0 30 -15 49.5t-45 19.5
q-33 0 -63.5 -26t-30.5 -62q0 -41 36 -41q25 0 55 27l5 -5q-16 -21 -43.5 -37.5t-56.5 -16.5q-76 0 -76 58q0 44 57 78.5t136 34.5q72 0 105.5 -24t33.5 -62q0 -31 -36 -57t-109 -37q68 4 110.5 -17.5t42.5 -70.5q0 -64 -65.5 -105t-162.5 -41z" />
    <glyph glyph-name="acute" unicode="&#xb4;" 
d="M324 625q-107 -62 -154 -92l-6 7q85 147 90 155q20 31 37 45.5t41 14.5q27 0 42.5 -15t15.5 -36q0 -26 -15 -42t-51 -37z" />
    <glyph glyph-name="mu" unicode="&#xb5;" horiz-adv-x="615" 
d="M98 -226q-19 0 -33 15t-14 38q0 25 11 76.5t12 58.5q5 40 5 101v400h146v-330q0 -95 56 -95q57 0 84 51v374h144v-369q0 -24 9.5 -38t25.5 -14q26 0 40 22.5t17 54.5h10q-8 -128 -121 -128q-97 0 -122 76h-3q-34 -41 -67 -59t-77 -18q-87 0 -121 73h-2v-56
q0 -33 23.5 -92.5t23.5 -84.5q0 -27 -13.5 -41.5t-33.5 -14.5z" />
    <glyph glyph-name="paragraph" unicode="&#xb6;" horiz-adv-x="627" 
d="M316 -125v429h-30q-63 0 -110 17.5t-71.5 46.5t-35.5 59.5t-11 62.5q0 31 10 62t32 62t64.5 50t100.5 19h334v-19h-142v-789h-24v789h-93v-789h-24z" />
    <glyph glyph-name="periodcentered" unicode="&#xb7;" horiz-adv-x="269" 
d="M134 183q-37 0 -63.5 25.5t-26.5 62.5t26.5 62.5t63.5 25.5t63.5 -25.5t26.5 -62.5t-26.5 -62.5t-63.5 -25.5z" />
    <glyph glyph-name="cedilla" unicode="&#xb8;" 
d="M138 -236v15q29 0 48.5 2t40.5 8t32 20t11 35q0 23 -13 32t-44 9v115h15v-43q134 3 134 -88q0 -61 -56 -83t-168 -22z" />
    <glyph glyph-name="onesuperior" unicode="&#xb9;" horiz-adv-x="352" 
d="M44 339v7q57 4 70 8q24 7 24 31v316q-10 -3 -31 -3q-44 0 -89 34l2 4q44 -16 82 -16q34 0 74 9.5t60 19.5h9q-9 -37 -9 -102v-260q0 -23 23 -31q16 -6 68 -10v-7h-283z" />
    <glyph glyph-name="ordmasculine" unicode="&#xba;" horiz-adv-x="373" 
d="M184 325q-62 0 -107.5 39t-45.5 109q0 68 44.5 107.5t111.5 39.5q68 0 111.5 -39t43.5 -106t-43.5 -108.5t-114.5 -41.5zM187 334q59 0 59 141q0 136 -59 136t-59 -135q0 -142 59 -142zM44 234v32h284v-32h-284z" />
    <glyph glyph-name="guillemotright" unicode="&#xbb;" horiz-adv-x="569" 
d="M273 16l-5 4l135 203l-135 204l5 5q36 -26 122 -86.5t109 -77.5q14 -10 18.5 -18t4.5 -26q0 -19 -4.5 -27t-20.5 -19q-23 -16 -105 -74.5t-124 -87.5zM56 16l-6 4l136 203l-136 204l6 5q36 -26 122 -86.5t109 -77.5q14 -10 18.5 -18t4.5 -26q0 -19 -4.5 -27t-20.5 -19
q-23 -16 -105 -74.5t-124 -87.5z" />
    <glyph glyph-name="onequarter" unicode="&#xbc;" horiz-adv-x="570" 
d="M150 339v5q56 4 70 8q24 7 24 31v318q-12 -3 -32 -3q-41 0 -89 35l3 3q44 -16 82 -16q33 0 73.5 9.5t60.5 19.5h8q-8 -39 -8 -102v-262q0 -23 23 -31q14 -6 68 -10v-5h-283zM37 241v35h495v-35h-495zM221 -227v5q40 3 50 6q21 6 21 30v88h-212v31l253 251h52v-247
q73 0 85 9q20 15 20 49h5v-154h-5q-2 39 -21 54q-9 7 -84 7v-84q0 -24 20 -31q17 -7 50 -9v-5h-234zM292 126l-190 -189h190v189z" />
    <glyph glyph-name="onehalf" unicode="&#xbd;" horiz-adv-x="570" 
d="M150 339v5q57 4 70 8q24 7 24 31v318q-11 -3 -31 -3q-41 0 -89 35l2 3q44 -16 82 -16q34 0 74.5 9.5t60.5 19.5h8q-9 -43 -9 -102v-262q0 -23 23 -31q15 -6 68 -10v-5h-283zM37 241v35h495v-35h-495zM112 -227v25q122 73 188 135q72 68 72 154q0 36 -20 61.5t-51 25.5
q-49 0 -82.5 -39t-33.5 -80q0 -53 49 -53q47 0 82 57l5 -4q-48 -90 -129 -90q-41 0 -62 19.5t-21 53.5q0 51 57 97.5t144 46.5q75 0 119 -31.5t44 -84.5q0 -62 -52.5 -102.5t-174.5 -90.5q-30 -15 -43 -28h214q13 0 23 4.5t20.5 16.5t16.5 20.5t18 27.5l5 -3l-60 -138h-328z
" />
    <glyph glyph-name="threequarters" unicode="&#xbe;" horiz-adv-x="570" 
d="M221 -227v5q40 3 50 6q21 6 21 30v88h-212v31l253 251h52v-247q73 0 85 9q20 15 20 49h5v-154h-5q-2 39 -21 54q-9 7 -84 7v-84q0 -24 20 -31q17 -7 50 -9v-5h-234zM292 126l-190 -189h190v189zM37 241v35h495v-35h-495zM240 332q-61 0 -105.5 24t-44.5 70
q0 29 19.5 48.5t46.5 19.5q21 0 33.5 -11.5t12.5 -30.5q0 -16 -13 -26t-25.5 -16.5t-12.5 -15.5q0 -21 24 -37.5t63 -16.5q51 0 89.5 43t38.5 96q0 34 -14.5 57t-43.5 23q-24 0 -75 -51l-13 20q71 34 106.5 64t35.5 75q0 30 -15.5 50.5t-45.5 20.5q-32 0 -62.5 -27
t-30.5 -63q0 -41 36 -41q23 0 55 27l4 -4q-43 -55 -99 -55q-76 0 -76 58q0 45 56.5 79t136.5 34q71 0 105 -24t34 -62q0 -31 -36.5 -57t-109.5 -37q68 4 111 -17.5t43 -70.5q0 -64 -65.5 -105t-162.5 -41z" />
    <glyph glyph-name="questiondown" unicode="&#xbf;" horiz-adv-x="504" 
d="M327 477l4 -186q-135 -14 -135 -151q0 -143 96 -143q25 0 47.5 8.5t31.5 20.5q-35 61 -35 91q0 38 21.5 60.5t58.5 22.5q39 0 58.5 -22.5t19.5 -59.5q0 -53 -61 -92.5t-147 -39.5q-100 0 -162 52.5t-62 143.5q0 98 67 159t181 67l5 69h12zM315 698q36 0 61.5 -25.5
t25.5 -61.5t-25.5 -62t-61.5 -26t-61.5 26t-25.5 62t25.5 61.5t61.5 25.5z" />
    <glyph glyph-name="Agrave" unicode="&#xc0;" horiz-adv-x="703" 
d="M-26 0v7q44 5 55 12q30 19 56 78q27 59 127 296t125 301h56q25 -63 128 -336t111 -292q14 -34 40 -47q15 -8 53 -12v-7h-369v7q106 9 106 33q0 11 -4 21l-68 182h-223q-2 -4 -26.5 -67t-26.5 -70q-15 -43 -15 -62q0 -10 8 -17t25 -10.5t28.5 -5t33 -3t24.5 -1.5v-7h-244z
M175 262h208l-100 259zM426 730q-47 30 -154 92q-36 21 -51 37t-15 42q0 21 15.5 36t42.5 15q24 0 41 -14.5t37 -45.5q5 -8 90 -155z" />
    <glyph glyph-name="Aacute" unicode="&#xc1;" horiz-adv-x="703" 
d="M-26 0v7q44 5 55 12q30 19 56 78q27 59 127 296t125 301h56q25 -63 128 -336t111 -292q14 -34 40 -47q15 -8 53 -12v-7h-369v7q106 9 106 33q0 11 -4 21l-68 182h-223q-2 -4 -26.5 -67t-26.5 -70q-15 -43 -15 -62q0 -10 8 -17t25 -10.5t28.5 -5t33 -3t24.5 -1.5v-7h-244z
M175 262h208l-100 259zM413 820q-107 -62 -154 -92l-6 7q85 147 90 155q20 31 37 45.5t41 14.5q27 0 42.5 -15t15.5 -36q0 -26 -15 -42t-51 -37z" />
    <glyph glyph-name="Acircumflex" unicode="&#xc2;" horiz-adv-x="703" 
d="M-26 0v7q44 5 55 12q30 19 56 78q27 59 127 296t125 301h56q25 -63 128 -336t111 -292q14 -34 40 -47q15 -8 53 -12v-7h-369v7q106 9 106 33q0 11 -4 21l-68 182h-223q-2 -4 -26.5 -67t-26.5 -70q-15 -43 -15 -62q0 -10 8 -17t25 -10.5t28.5 -5t33 -3t24.5 -1.5v-7h-244z
M175 262h208l-100 259zM497 734l-156 116l-154 -115l-10 7q58 100 109 180q12 20 57 20q43 0 55 -18q55 -84 110 -182z" />
    <glyph glyph-name="Atilde" unicode="&#xc3;" horiz-adv-x="703" 
d="M-26 0v7q44 5 55 12q30 19 56 78q27 59 127 296t125 301h56q25 -63 128 -336t111 -292q14 -34 40 -47q15 -8 53 -12v-7h-369v7q106 9 106 33q0 11 -4 21l-68 182h-223q-2 -4 -26.5 -67t-26.5 -70q-15 -43 -15 -62q0 -10 8 -17t25 -10.5t28.5 -5t33 -3t24.5 -1.5v-7h-244z
M175 262h208l-100 259zM167 746l-13 5q11 31 26 59.5t45 55t64 26.5q38 0 90.5 -25.5t78.5 -25.5q57 0 81 62l13 -4q-15 -52 -51 -97t-88 -45q-38 0 -87.5 26t-73.5 26q-54 0 -85 -63z" />
    <glyph glyph-name="Adieresis" unicode="&#xc4;" horiz-adv-x="703" 
d="M-26 0v7q44 5 55 12q30 19 56 78q27 59 127 296t125 301h56q25 -63 128 -336t111 -292q14 -34 40 -47q15 -8 53 -12v-7h-369v7q106 9 106 33q0 11 -4 21l-68 182h-223q-2 -4 -26.5 -67t-26.5 -70q-15 -43 -15 -62q0 -10 8 -17t25 -10.5t28.5 -5t33 -3t24.5 -1.5v-7h-244z
M175 262h208l-100 259zM240 757q-31 0 -52.5 23t-21.5 55t21.5 55t52.5 23q30 0 52 -23t22 -55t-22 -55t-52 -23zM460 757q-31 0 -52.5 23t-21.5 55t21.5 55t52.5 23q30 0 52 -23t22 -55t-22 -55t-52 -23z" />
    <glyph glyph-name="Aring" unicode="&#xc5;" horiz-adv-x="703" 
d="M-26 0v7q44 5 55 12q30 19 56 78q27 59 127 296t125 301h56q25 -63 128 -336t111 -292q14 -34 40 -47q15 -8 53 -12v-7h-369v7q106 9 106 33q0 11 -4 21l-68 182h-223q-2 -4 -26.5 -67t-26.5 -70q-15 -43 -15 -62q0 -10 8 -17t25 -10.5t28.5 -5t33 -3t24.5 -1.5v-7h-244z
M175 262h208l-100 259zM352 719q-59 0 -94 29t-35 78q0 47 37.5 77t91.5 30q56 0 92.5 -29.5t36.5 -77.5q0 -47 -35.5 -77t-93.5 -30zM352 733q31 0 44.5 27t13.5 66q0 38 -13.5 65.5t-44.5 27.5q-30 0 -44 -27t-14 -66q0 -38 13.5 -65.5t44.5 -27.5z" />
    <glyph glyph-name="AE" unicode="&#xc6;" horiz-adv-x="1017" 
d="M-23 0v7q41 2 68 18q35 18 94 120l302 521q-15 6 -99 10v7h611v-179h-11q-14 42 -58.5 99.5t-80.5 62.5q-40 5 -86 5h-79v-311h65q59 0 88 29q15 15 30.5 49t18.5 56h11v-285h-11q-3 23 -19.5 59.5t-29.5 50.5q-27 29 -88 29h-65v-251q0 -55 19 -70t87 -15q37 0 56 1
t43 6.5t35 16.5q50 48 117 173h9l-13 -209h-619v7q53 4 69 9q30 10 30 46v226h-227l-97 -172q-19 -34 -19 -62q0 -22 36 -33.5t76 -13.5v-7h-263zM254 307h217v358h-12z" />
    <glyph glyph-name="Ccedilla" unicode="&#xc7;" horiz-adv-x="674" 
d="M257 -242v15q29 0 48.5 2t40.5 8t32 20t11 35q0 23 -13 32t-44 9v108q-132 13 -216.5 105.5t-84.5 241.5q0 162 100.5 264t255.5 102q111 0 197 -45l29 37h11l4 -256h-12q-39 124 -97.5 187.5t-126.5 63.5q-89 0 -132 -91.5t-43 -244.5q0 -328 194 -328q150 0 233 161
l11 -5q-36 -86 -107.5 -140t-174.5 -54q-5 0 -13.5 0.5t-12.5 0.5v-35q134 3 134 -88q0 -61 -56 -83t-168 -22z" />
    <glyph glyph-name="Egrave" unicode="&#xc8;" horiz-adv-x="674" 
d="M29 0v7q53 4 69 9q30 10 30 46v555q0 39 -30 49q-19 6 -69 10v7h581v-179h-11q-14 42 -58.5 99.5t-80.5 62.5q-40 5 -86 5h-79v-311h65q59 0 88 29q15 15 30.5 49t18.5 56h11v-285h-11q-3 23 -19.5 59.5t-29.5 50.5q-27 29 -88 29h-65v-251q0 -55 19 -70t87 -15
q37 0 56 1t43 6.5t35 16.5q50 48 117 173h9l-13 -209h-619zM429 728q-47 30 -154 92q-36 21 -51 37t-15 42q0 21 15.5 36t42.5 15q24 0 41 -14.5t37 -45.5q5 -8 90 -155z" />
    <glyph glyph-name="Eacute" unicode="&#xc9;" horiz-adv-x="674" 
d="M29 0v7q53 4 69 9q30 10 30 46v555q0 39 -30 49q-19 6 -69 10v7h581v-179h-11q-14 42 -58.5 99.5t-80.5 62.5q-40 5 -86 5h-79v-311h65q59 0 88 29q15 15 30.5 49t18.5 56h11v-285h-11q-3 23 -19.5 59.5t-29.5 50.5q-27 29 -88 29h-65v-251q0 -55 19 -70t87 -15
q37 0 56 1t43 6.5t35 16.5q50 48 117 173h9l-13 -209h-619zM434 821q-107 -62 -154 -92l-6 7q85 147 90 155q20 31 37 45.5t41 14.5q27 0 42.5 -15t15.5 -36q0 -26 -15 -42t-51 -37z" />
    <glyph glyph-name="Ecircumflex" unicode="&#xca;" horiz-adv-x="674" 
d="M29 0v7q53 4 69 9q30 10 30 46v555q0 39 -30 49q-19 6 -69 10v7h581v-179h-11q-14 42 -58.5 99.5t-80.5 62.5q-40 5 -86 5h-79v-311h65q59 0 88 29q15 15 30.5 49t18.5 56h11v-285h-11q-3 23 -19.5 59.5t-29.5 50.5q-27 29 -88 29h-65v-251q0 -55 19 -70t87 -15
q37 0 56 1t43 6.5t35 16.5q50 48 117 173h9l-13 -209h-619zM492 735l-156 116l-154 -115l-10 7q58 100 109 180q7 12 19 16t38 4q43 0 55 -18q55 -84 110 -182z" />
    <glyph glyph-name="Edieresis" unicode="&#xcb;" horiz-adv-x="674" 
d="M29 0v7q53 4 69 9q30 10 30 46v555q0 39 -30 49q-19 6 -69 10v7h581v-179h-11q-14 42 -58.5 99.5t-80.5 62.5q-40 5 -86 5h-79v-311h65q59 0 88 29q15 15 30.5 49t18.5 56h11v-285h-11q-3 23 -19.5 59.5t-29.5 50.5q-27 29 -88 29h-65v-251q0 -55 19 -70t87 -15
q37 0 56 1t43 6.5t35 16.5q50 48 117 173h9l-13 -209h-619zM225 758q-31 0 -52.5 23t-21.5 55t21.5 55t52.5 23q30 0 52 -23t22 -55t-22 -55t-52 -23zM445 758q-31 0 -52.5 23t-21.5 55t21.5 55t52.5 23q30 0 52 -23t22 -55t-22 -55t-52 -23z" />
    <glyph glyph-name="Igrave" unicode="&#xcc;" horiz-adv-x="427" 
d="M29 0v7q56 4 71 9q30 10 30 46v555q0 39 -30 49q-19 6 -71 10v7h369v-7q-67 -8 -71 -9q-30 -9 -30 -49v-554q0 -38 30 -48q11 -4 71 -9v-7h-369zM280 729q-47 30 -154 92q-36 21 -51 37t-15 42q0 21 15.5 36t42.5 15q24 0 41 -14.5t37 -45.5q5 -8 90 -155z" />
    <glyph glyph-name="Iacute" unicode="&#xcd;" horiz-adv-x="427" 
d="M29 0v7q56 4 71 9q30 10 30 46v555q0 39 -30 49q-19 6 -71 10v7h369v-7q-67 -8 -71 -9q-30 -9 -30 -49v-554q0 -38 30 -48q11 -4 71 -9v-7h-369zM285 820q-107 -62 -154 -92l-6 7q85 147 90 155q20 31 37 45.5t41 14.5q27 0 42.5 -15t15.5 -36q0 -26 -15 -42t-51 -37z
" />
    <glyph glyph-name="Icircumflex" unicode="&#xce;" horiz-adv-x="427" 
d="M29 0v7q56 4 71 9q30 10 30 46v555q0 39 -30 49q-19 6 -71 10v7h369v-7q-67 -8 -71 -9q-30 -9 -30 -49v-554q0 -38 30 -48q11 -4 71 -9v-7h-369zM355 735l-156 116l-154 -115l-10 7q58 100 109 180q12 20 57 20q43 0 55 -18q55 -84 110 -182z" />
    <glyph glyph-name="Idieresis" unicode="&#xcf;" horiz-adv-x="427" 
d="M29 0v7q56 4 71 9q30 10 30 46v555q0 39 -30 49q-19 6 -71 10v7h369v-7q-67 -8 -71 -9q-30 -9 -30 -49v-554q0 -38 30 -48q11 -4 71 -9v-7h-369zM93 757q-31 0 -52.5 23t-21.5 55t21.5 55t52.5 23q30 0 52 -23t22 -55t-22 -55t-52 -23zM313 757q-31 0 -52.5 23t-21.5 55
t21.5 55t52.5 23q30 0 52 -23t22 -55t-22 -55t-52 -23z" />
    <glyph glyph-name="Eth" unicode="&#xd0;" horiz-adv-x="780" 
d="M29 0v7q53 4 69 9q30 10 30 46v282h-81v28h81v245q0 39 -30 49q-19 6 -69 10v7h341q47 0 95 -9.5t100 -34t92 -62t66 -100t26 -140.5q0 -84 -32.5 -150.5t-88.5 -106t-125 -60t-146 -20.5h-328zM375 11q187 0 187 327q0 153 -55 243.5t-150 90.5q-26 0 -62 -2v-298h124
v-28h-124v-269q0 -64 80 -64z" />
    <glyph glyph-name="Ntilde" unicode="&#xd1;" horiz-adv-x="746" 
d="M581 -3l-436 589v-426q0 -108 33 -137q8 -6 25 -9.5t42 -5.5l25 -1v-7h-264v7q4 1 23.5 1.5t37.5 3.5t29 11q32 24 32 137v399q0 59 -27 86q-29 29 -90 31v7h258l339 -461v298q0 108 -34 137q-6 5 -20 8.5t-25 5t-29 3.5l-19 2v7h267v-7q-3 -1 -23.5 -2t-38.5 -5t-29 -12
q-32 -25 -32 -136v-524h-44zM200 746l-13 5q11 31 26 59.5t45 55t64 26.5q38 0 90.5 -25.5t78.5 -25.5q57 0 81 62l13 -4q-15 -52 -51 -97t-88 -45q-38 0 -87.5 26t-73.5 26q-54 0 -85 -63z" />
    <glyph glyph-name="Ograve" unicode="&#xd2;" horiz-adv-x="779" 
d="M386 -16q-151 0 -250 93q-105 99 -105 257q0 175 115 277q99 88 244 88q150 0 247 -88q111 -101 111 -265q0 -174 -113 -276q-95 -86 -249 -86zM390 -4q88 0 129 93.5t41 253.5q0 70 -8.5 128.5t-27 108.5t-52.5 78.5t-82 28.5q-84 0 -127.5 -90.5t-43.5 -257.5
q0 -101 16 -175.5t55.5 -121t99.5 -46.5zM463 728q-47 30 -154 92q-36 21 -51 37t-15 42q0 21 15.5 36t42.5 15q24 0 41 -14.5t37 -45.5q5 -8 90 -155z" />
    <glyph glyph-name="Oacute" unicode="&#xd3;" horiz-adv-x="779" 
d="M386 -16q-151 0 -250 93q-105 99 -105 257q0 175 115 277q99 88 244 88q150 0 247 -88q111 -101 111 -265q0 -174 -113 -276q-95 -86 -249 -86zM390 -4q88 0 129 93.5t41 253.5q0 70 -8.5 128.5t-27 108.5t-52.5 78.5t-82 28.5q-84 0 -127.5 -90.5t-43.5 -257.5
q0 -101 16 -175.5t55.5 -121t99.5 -46.5zM443 819q-107 -62 -154 -92l-6 7q85 147 90 155q20 31 37 45.5t41 14.5q27 0 42.5 -15t15.5 -36q0 -26 -15 -42t-51 -37z" />
    <glyph glyph-name="Ocircumflex" unicode="&#xd4;" horiz-adv-x="779" 
d="M386 -16q-151 0 -250 93q-105 99 -105 257q0 175 115 277q99 88 244 88q150 0 247 -88q111 -101 111 -265q0 -174 -113 -276q-95 -86 -249 -86zM390 -4q88 0 129 93.5t41 253.5q0 70 -8.5 128.5t-27 108.5t-52.5 78.5t-82 28.5q-84 0 -127.5 -90.5t-43.5 -257.5
q0 -101 16 -175.5t55.5 -121t99.5 -46.5zM535 734l-156 116l-154 -115l-10 7q58 100 109 180q12 20 57 20q43 0 55 -18q55 -84 110 -182z" />
    <glyph glyph-name="Otilde" unicode="&#xd5;" horiz-adv-x="779" 
d="M386 -16q-151 0 -250 93q-105 99 -105 257q0 175 115 277q99 88 244 88q150 0 247 -88q111 -101 111 -265q0 -174 -113 -276q-95 -86 -249 -86zM390 -4q88 0 129 93.5t41 253.5q0 70 -8.5 128.5t-27 108.5t-52.5 78.5t-82 28.5q-84 0 -127.5 -90.5t-43.5 -257.5
q0 -101 16 -175.5t55.5 -121t99.5 -46.5zM195 746l-13 5q11 31 26 59.5t45 55t64 26.5q38 0 90.5 -25.5t78.5 -25.5q57 0 81 62l13 -4q-15 -52 -51 -97t-88 -45q-38 0 -87.5 26t-73.5 26q-54 0 -85 -63z" />
    <glyph glyph-name="Odieresis" unicode="&#xd6;" horiz-adv-x="779" 
d="M386 -16q-151 0 -250 93q-105 99 -105 257q0 175 115 277q99 88 244 88q150 0 247 -88q111 -101 111 -265q0 -174 -113 -276q-95 -86 -249 -86zM390 -4q88 0 129 93.5t41 253.5q0 70 -8.5 128.5t-27 108.5t-52.5 78.5t-82 28.5q-84 0 -127.5 -90.5t-43.5 -257.5
q0 -101 16 -175.5t55.5 -121t99.5 -46.5zM271 757q-31 0 -52.5 23t-21.5 55t21.5 55t52.5 23q30 0 52 -23t22 -55t-22 -55t-52 -23zM491 757q-31 0 -52.5 23t-21.5 55t21.5 55t52.5 23q30 0 52 -23t22 -55t-22 -55t-52 -23z" />
    <glyph glyph-name="multiply" unicode="&#xd7;" horiz-adv-x="566" 
d="M97 41l-32 32l187 185l-183 183l35 34l182 -182l181 182l31 -32l-182 -181l185 -184l-34 -35l-185 185z" />
    <glyph glyph-name="Oslash" unicode="&#xd8;" horiz-adv-x="779" 
d="M35 -22l96 103q-100 98 -100 253q0 175 115 277q99 88 244 88q143 0 239 -81l87 93l14 -11l-88 -94q106 -101 106 -260q0 -174 -113 -276q-95 -86 -249 -86q-145 0 -242 86l-96 -103zM390 -4q88 0 129 93.5t41 253.5q0 91 -14 160l-312 -336q38 -171 156 -171zM219 339
q0 -89 11 -151l312 336q-39 163 -152 163q-84 0 -127.5 -90.5t-43.5 -257.5z" />
    <glyph glyph-name="Ugrave" unicode="&#xd9;" horiz-adv-x="773" 
d="M400 -16q-136 0 -210.5 66t-74.5 178v387q0 34 -30 50q-8 4 -21 6.5t-28.5 3.5t-18.5 1v7h366v-7q-64 -8 -69 -9q-31 -10 -31 -49v-400q0 -102 38.5 -148t119.5 -46q83 0 138.5 55t55.5 154v289q0 106 -35 136q-6 5 -19.5 8.5t-25 5t-28 3t-18.5 1.5v7h266v-7
q-74 -6 -91 -19q-18 -14 -25 -43t-7 -91v-295q0 -117 -70.5 -180.5t-181.5 -63.5zM498 728q-47 30 -154 92q-36 21 -51 37t-15 42q0 21 15.5 36t42.5 15q24 0 41 -14.5t37 -45.5q5 -8 90 -155z" />
    <glyph glyph-name="Uacute" unicode="&#xda;" horiz-adv-x="773" 
d="M400 -16q-136 0 -210.5 66t-74.5 178v387q0 34 -30 50q-8 4 -21 6.5t-28.5 3.5t-18.5 1v7h366v-7q-64 -8 -69 -9q-31 -10 -31 -49v-400q0 -102 38.5 -148t119.5 -46q83 0 138.5 55t55.5 154v289q0 106 -35 136q-6 5 -19.5 8.5t-25 5t-28 3t-18.5 1.5v7h266v-7
q-74 -6 -91 -19q-18 -14 -25 -43t-7 -91v-295q0 -117 -70.5 -180.5t-181.5 -63.5zM508 822q-107 -62 -154 -92l-6 7q85 147 90 155q20 31 37 45.5t41 14.5q27 0 42.5 -15t15.5 -36q0 -26 -15 -42t-51 -37z" />
    <glyph glyph-name="Ucircumflex" unicode="&#xdb;" horiz-adv-x="773" 
d="M400 -16q-136 0 -210.5 66t-74.5 178v387q0 34 -30 50q-8 4 -21 6.5t-28.5 3.5t-18.5 1v7h366v-7q-64 -8 -69 -9q-31 -10 -31 -49v-400q0 -102 38.5 -148t119.5 -46q83 0 138.5 55t55.5 154v289q0 106 -35 136q-6 5 -19.5 8.5t-25 5t-28 3t-18.5 1.5v7h266v-7
q-74 -6 -91 -19q-18 -14 -25 -43t-7 -91v-295q0 -117 -70.5 -180.5t-181.5 -63.5zM571 734l-156 116l-154 -115l-10 7q58 100 109 180q12 20 57 20q43 0 55 -18q55 -84 110 -182z" />
    <glyph glyph-name="Udieresis" unicode="&#xdc;" horiz-adv-x="773" 
d="M400 -16q-136 0 -210.5 66t-74.5 178v387q0 34 -30 50q-8 4 -21 6.5t-28.5 3.5t-18.5 1v7h366v-7q-64 -8 -69 -9q-31 -10 -31 -49v-400q0 -102 38.5 -148t119.5 -46q83 0 138.5 55t55.5 154v289q0 106 -35 136q-6 5 -19.5 8.5t-25 5t-28 3t-18.5 1.5v7h266v-7
q-74 -6 -91 -19q-18 -14 -25 -43t-7 -91v-295q0 -117 -70.5 -180.5t-181.5 -63.5zM315 757q-31 0 -52.5 23t-21.5 55t21.5 55t52.5 23q30 0 52 -23t22 -55t-22 -55t-52 -23zM535 757q-31 0 -52.5 23t-21.5 55t21.5 55t52.5 23q30 0 52 -23t22 -55t-22 -55t-52 -23z" />
    <glyph glyph-name="Yacute" unicode="&#xdd;" horiz-adv-x="704" 
d="M155 0v7q70 4 81 8q31 12 31 50v156q0 33 -5.5 52.5t-25.5 55.5q-113 207 -145 262q-31 51 -63 71q-20 12 -54 14v7h391v-7q-109 -6 -109 -26q0 -16 44 -99q89 -171 130 -238q9 17 33.5 61t47 85.5t39.5 72.5q50 94 50 109q0 28 -105 35v7h227v-7q-36 -5 -53 -14
q-30 -17 -65 -75q-61 -101 -133 -234q-24 -45 -30.5 -73.5t-6.5 -78.5v-134q0 -36 30 -50q15 -6 80 -10v-7h-389zM484 819q-107 -62 -154 -92l-6 7q85 147 90 155q20 31 37 45.5t41 14.5q27 0 42.5 -15t15.5 -36q0 -26 -15 -42t-51 -37z" />
    <glyph glyph-name="Thorn" unicode="&#xde;" horiz-adv-x="649" 
d="M295 167h18q76 0 111 49.5t35 125.5q0 181 -132 181h-32v-356zM295 620v-84h88q255 0 255 -170q0 -72 -43.5 -121.5t-109 -70.5t-145.5 -21h-45v-86q0 -38 30 -50q14 -6 81 -10v-7h-385v7q60 3 77 10q30 11 30 49v549q0 38 -30 49q-12 5 -76 12v7h375v-7q-53 -3 -71 -9
q-31 -10 -31 -47z" />
    <glyph glyph-name="germandbls" unicode="&#xdf;" horiz-adv-x="623" 
d="M82 461v20q0 126 67 199q62 67 183 67q75 0 128 -35.5t53 -94.5q0 -82 -78 -122q-11 -6 -31 -15.5t-29.5 -14.5t-17.5 -14t-8 -19q0 -17 22.5 -35t83.5 -56q6 -4 10 -6.5t10.5 -6.5t11.5 -7q66 -41 91 -78.5t25 -93.5q0 -72 -52.5 -117.5t-131.5 -45.5q-76 0 -112.5 29
t-36.5 74q0 30 16 51.5t46 21.5q29 0 44 -16.5t15 -41.5q0 -16 -10.5 -36t-10.5 -28q0 -17 14 -30t38 -13q34 0 55.5 25.5t21.5 61.5q0 35 -21 64.5t-81 63.5q-58 32 -86.5 62.5t-28.5 72.5q0 20 8 38t15 27.5t28.5 31.5t29.5 32q34 37 34 115q0 69 -21.5 107.5t-59.5 38.5
q-47 0 -68 -49t-22 -163v-525h-214v7q23 1 43 7q27 9 27 45v386h-91v16h91z" />
    <glyph glyph-name="agrave" unicode="&#xe0;" horiz-adv-x="514" 
d="M146 -15q-51 0 -86 32.5t-35 81.5q0 58 26 85t72 44q23 8 61.5 19t66 20t38.5 17v66q0 115 -57 115q-35 0 -54 -19q0 -1 11.5 -36t11.5 -54t-23 -38t-59 -19t-54 20.5t-18 48.5q0 44 62 75.5t131 31.5q46 0 76.5 -5t60 -20t44 -46t14.5 -79q0 -53 -3 -142.5t-3 -98.5
q0 -15 9.5 -31t26.5 -16q23 0 37 26t15 70h12q-3 -146 -122 -146q-80 0 -115 65h-3q-21 -22 -35 -34t-42.5 -22.5t-65.5 -10.5zM227 38q38 0 59 32l4 198q-36 -14 -51 -23q-33 -18 -47.5 -45t-14.5 -73q0 -89 50 -89zM337 533q-47 30 -154 92q-36 21 -51 37t-15 42
q0 21 15.5 36t42.5 15q24 0 41 -14.5t37 -45.5q5 -8 90 -155z" />
    <glyph glyph-name="aacute" unicode="&#xe1;" horiz-adv-x="514" 
d="M146 -15q-51 0 -86 32.5t-35 81.5q0 58 26 85t72 44q23 8 61.5 19t66 20t38.5 17v66q0 115 -57 115q-35 0 -54 -19q0 -1 11.5 -36t11.5 -54t-23 -38t-59 -19t-54 20.5t-18 48.5q0 44 62 75.5t131 31.5q46 0 76.5 -5t60 -20t44 -46t14.5 -79q0 -53 -3 -142.5t-3 -98.5
q0 -15 9.5 -31t26.5 -16q23 0 37 26t15 70h12q-3 -146 -122 -146q-80 0 -115 65h-3q-21 -22 -35 -34t-42.5 -22.5t-65.5 -10.5zM227 38q38 0 59 32l4 198q-36 -14 -51 -23q-33 -18 -47.5 -45t-14.5 -73q0 -89 50 -89zM333 625q-107 -62 -154 -92l-6 7q85 147 90 155
q20 31 37 45.5t41 14.5q27 0 42.5 -15t15.5 -36q0 -26 -15 -42t-51 -37z" />
    <glyph glyph-name="acircumflex" unicode="&#xe2;" horiz-adv-x="514" 
d="M146 -15q-51 0 -86 32.5t-35 81.5q0 58 26 85t72 44q23 8 61.5 19t66 20t38.5 17v66q0 115 -57 115q-35 0 -54 -19q0 -1 11.5 -36t11.5 -54t-23 -38t-59 -19t-54 20.5t-18 48.5q0 44 62 75.5t131 31.5q46 0 76.5 -5t60 -20t44 -46t14.5 -79q0 -53 -3 -142.5t-3 -98.5
q0 -15 9.5 -31t26.5 -16q23 0 37 26t15 70h12q-3 -146 -122 -146q-80 0 -115 65h-3q-21 -22 -35 -34t-42.5 -22.5t-65.5 -10.5zM227 38q38 0 59 32l4 198q-36 -14 -51 -23q-33 -18 -47.5 -45t-14.5 -73q0 -89 50 -89zM408 540l-156 116l-154 -115l-10 7q58 100 109 180
q7 12 19 16t38 4q43 0 55 -18q55 -84 110 -182z" />
    <glyph glyph-name="atilde" unicode="&#xe3;" horiz-adv-x="514" 
d="M146 -15q-51 0 -86 32.5t-35 81.5q0 58 26 85t72 44q23 8 61.5 19t66 20t38.5 17v66q0 115 -57 115q-35 0 -54 -19q0 -1 11.5 -36t11.5 -54t-23 -38t-59 -19t-54 20.5t-18 48.5q0 44 62 75.5t131 31.5q46 0 76.5 -5t60 -20t44 -46t14.5 -79q0 -53 -3 -142.5t-3 -98.5
q0 -15 9.5 -31t26.5 -16q23 0 37 26t15 70h12q-3 -146 -122 -146q-80 0 -115 65h-3q-21 -22 -35 -34t-42.5 -22.5t-65.5 -10.5zM227 38q38 0 59 32l4 198q-36 -14 -51 -23q-33 -18 -47.5 -45t-14.5 -73q0 -89 50 -89zM74 552l-13 5q11 31 26 59.5t45 55t64 26.5
q38 0 90.5 -25.5t78.5 -25.5q57 0 81 62l13 -4q-15 -52 -51 -97t-88 -45q-38 0 -87.5 26t-73.5 26q-54 0 -85 -63z" />
    <glyph glyph-name="adieresis" unicode="&#xe4;" horiz-adv-x="514" 
d="M146 -15q-51 0 -86 32.5t-35 81.5q0 58 26 85t72 44q23 8 61.5 19t66 20t38.5 17v66q0 115 -57 115q-35 0 -54 -19q0 -1 11.5 -36t11.5 -54t-23 -38t-59 -19t-54 20.5t-18 48.5q0 44 62 75.5t131 31.5q46 0 76.5 -5t60 -20t44 -46t14.5 -79q0 -53 -3 -142.5t-3 -98.5
q0 -15 9.5 -31t26.5 -16q23 0 37 26t15 70h12q-3 -146 -122 -146q-80 0 -115 65h-3q-21 -22 -35 -34t-42.5 -22.5t-65.5 -10.5zM227 38q38 0 59 32l4 198q-36 -14 -51 -23q-33 -18 -47.5 -45t-14.5 -73q0 -89 50 -89zM143 554q-31 0 -52.5 23t-21.5 55t21.5 55t52.5 23
q30 0 52 -23t22 -55t-22 -55t-52 -23zM363 554q-31 0 -52.5 23t-21.5 55t21.5 55t52.5 23q30 0 52 -23t22 -55t-22 -55t-52 -23z" />
    <glyph glyph-name="aring" unicode="&#xe5;" horiz-adv-x="514" 
d="M146 -15q-51 0 -86 32.5t-35 81.5q0 58 26 85t72 44q23 8 61.5 19t66 20t38.5 17v66q0 115 -57 115q-35 0 -54 -19q0 -1 11.5 -36t11.5 -54t-23 -38t-59 -19t-54 20.5t-18 48.5q0 44 62 75.5t131 31.5q46 0 76.5 -5t60 -20t44 -46t14.5 -79q0 -53 -3 -142.5t-3 -98.5
q0 -15 9.5 -31t26.5 -16q23 0 37 26t15 70h12q-3 -146 -122 -146q-80 0 -115 65h-3q-21 -22 -35 -34t-42.5 -22.5t-65.5 -10.5zM227 38q38 0 59 32l4 198q-36 -14 -51 -23q-33 -18 -47.5 -45t-14.5 -73q0 -89 50 -89zM250 525q-59 0 -94 29t-35 78q0 47 37.5 77t91.5 30
q56 0 92.5 -29.5t36.5 -77.5q0 -47 -35.5 -77t-93.5 -30zM250 539q31 0 44.5 27t13.5 66q0 38 -13.5 65.5t-44.5 27.5q-30 0 -44 -27t-14 -66q0 -38 13.5 -65.5t44.5 -27.5z" />
    <glyph glyph-name="ae" unicode="&#xe6;" horiz-adv-x="731" 
d="M514 -15q-138 0 -199 98q-38 -51 -77 -74.5t-92 -23.5q-51 0 -86 32.5t-35 81.5q0 58 26 85t72 44q23 8 61.5 19t66 20t38.5 17v66q0 115 -57 115q-35 0 -54 -19q0 -1 11.5 -36t11.5 -54t-23 -38t-59 -19t-54 20.5t-18 48.5q0 44 62 75.5t131 31.5q95 0 139 -44
q59 44 128 44q107 0 156.5 -56t49.5 -143v-6h-283v-29q0 -95 32.5 -150.5t101.5 -55.5q100 0 149 95l11 -8q-30 -61 -84.5 -99t-125.5 -38zM227 38q38 0 59 32l4 198q-25 -10 -41 -18q-39 -19 -55.5 -46t-16.5 -77q0 -89 50 -89zM430 283l128 2q0 25 -0.5 40.5t-2 39.5
t-5 39t-10 30t-16.5 22t-24 7q-33 0 -50.5 -49.5t-19.5 -130.5z" />
    <glyph glyph-name="ccedilla" unicode="&#xe7;" horiz-adv-x="455" 
d="M123 -236v15q29 0 48.5 2t40.5 8t32 20t11 35q0 23 -13 32t-44 9v106q-86 17 -130.5 82.5t-44.5 159.5q0 100 65 171t177 71q82 0 125 -32t43 -85q0 -31 -20 -51.5t-57 -20.5q-36 0 -56.5 19.5t-20.5 51.5q0 11 14 45t15 37q-5 24 -42 24q-41 0 -63 -56.5t-22 -165.5
q0 -99 32 -151.5t86 -52.5q100 0 143 96l11 -7q-24 -61 -77 -101t-118 -40q-24 0 -45 3v-31q134 3 134 -88q0 -61 -56 -83t-168 -22z" />
    <glyph glyph-name="egrave" unicode="&#xe8;" horiz-adv-x="480" 
d="M263 -15q-118 0 -179 69.5t-61 178.5q0 102 62 172t171 70q107 0 156.5 -56t49.5 -143v-6h-283v-29q0 -95 32.5 -150.5t101.5 -55.5q100 0 149 95l11 -8q-30 -61 -84.5 -99t-125.5 -38zM179 283l128 2q0 25 -0.5 40.5t-2 39.5t-5 39t-10 30t-16.5 22t-24 7
q-33 0 -50.5 -49.5t-19.5 -130.5zM330 533q-47 30 -154 92q-36 21 -51 37t-15 42q0 21 15.5 36t42.5 15q24 0 41 -14.5t37 -45.5q5 -8 90 -155z" />
    <glyph glyph-name="eacute" unicode="&#xe9;" horiz-adv-x="480" 
d="M263 -15q-118 0 -179 69.5t-61 178.5q0 102 62 172t171 70q107 0 156.5 -56t49.5 -143v-6h-283v-29q0 -95 32.5 -150.5t101.5 -55.5q100 0 149 95l11 -8q-30 -61 -84.5 -99t-125.5 -38zM179 283l128 2q0 25 -0.5 40.5t-2 39.5t-5 39t-10 30t-16.5 22t-24 7
q-33 0 -50.5 -49.5t-19.5 -130.5zM334 625q-107 -62 -154 -92l-6 7q85 147 90 155q20 31 37 45.5t41 14.5q27 0 42.5 -15t15.5 -36q0 -26 -15 -42t-51 -37z" />
    <glyph glyph-name="ecircumflex" unicode="&#xea;" horiz-adv-x="480" 
d="M263 -15q-118 0 -179 69.5t-61 178.5q0 102 62 172t171 70q107 0 156.5 -56t49.5 -143v-6h-283v-29q0 -95 32.5 -150.5t101.5 -55.5q100 0 149 95l11 -8q-30 -61 -84.5 -99t-125.5 -38zM179 283l128 2q0 25 -0.5 40.5t-2 39.5t-5 39t-10 30t-16.5 22t-24 7
q-33 0 -50.5 -49.5t-19.5 -130.5zM402 540l-156 116l-154 -115l-10 7q58 100 109 180q7 12 19 16t38 4q43 0 55 -18q55 -84 110 -182z" />
    <glyph glyph-name="edieresis" unicode="&#xeb;" horiz-adv-x="480" 
d="M263 -15q-118 0 -179 69.5t-61 178.5q0 102 62 172t171 70q107 0 156.5 -56t49.5 -143v-6h-283v-29q0 -95 32.5 -150.5t101.5 -55.5q100 0 149 95l11 -8q-30 -61 -84.5 -99t-125.5 -38zM179 283l128 2q0 25 -0.5 40.5t-2 39.5t-5 39t-10 30t-16.5 22t-24 7
q-33 0 -50.5 -49.5t-19.5 -130.5zM141 554q-31 0 -52.5 23t-21.5 55t21.5 55t52.5 23q30 0 52 -23t22 -55t-22 -55t-52 -23zM361 554q-31 0 -52.5 23t-21.5 55t21.5 55t52.5 23q30 0 52 -23t22 -55t-22 -55t-52 -23z" />
    <glyph glyph-name="igrave" unicode="&#xec;" horiz-adv-x="307" 
d="M23 0v7q32 2 43 6q26 10 26 44v331q0 33 -25 50q-16 11 -59 13v6l225 12l4 -4v-409q0 -31 22 -42q14 -7 48 -7v-7h-284zM220 533q-47 30 -154 92q-36 21 -51 37t-15 42q0 21 15.5 36t42.5 15q24 0 41 -14.5t37 -45.5q5 -8 90 -155z" />
    <glyph glyph-name="iacute" unicode="&#xed;" horiz-adv-x="307" 
d="M23 0v7q32 2 43 6q26 10 26 44v331q0 33 -25 50q-16 11 -59 13v6l225 12l4 -4v-409q0 -31 22 -42q14 -7 48 -7v-7h-284zM214 625q-107 -62 -154 -92l-6 7q85 147 90 155q20 31 37 45.5t41 14.5q27 0 42.5 -15t15.5 -36q0 -26 -15 -42t-51 -37z" />
    <glyph glyph-name="icircumflex" unicode="&#xee;" horiz-adv-x="307" 
d="M283 530l-139 116l-138 -115l-8 6q21 37 52 101.5t42 83.5q12 21 54 21q41 0 52 -19q10 -16 41 -81.5t53 -105.5zM18 0v7q32 2 43 6q26 10 26 44v331q0 33 -25 50q-16 11 -59 13v6l225 12l4 -4v-409q0 -31 22 -42q14 -7 48 -7v-7h-284z" />
    <glyph glyph-name="idieresis" unicode="&#xef;" horiz-adv-x="307" 
d="M41 554q-29 0 -50 22t-21 52q0 31 21 53t50 22q30 0 51 -21.5t21 -51.5q0 -31 -21 -53.5t-51 -22.5zM246 554q-29 0 -50 22t-21 52q0 31 21 53t50 22q30 0 51 -21.5t21 -51.5q0 -31 -21 -53.5t-51 -22.5zM18 0v7q32 2 43 6q26 10 26 44v331q0 33 -25 50q-16 11 -59 13v6
l225 12l4 -4v-409q0 -31 22 -42q14 -7 48 -7v-7h-284z" />
    <glyph glyph-name="eth" unicode="&#xf0;" horiz-adv-x="544" 
d="M269 -15q-105 0 -175.5 67t-70.5 179q0 109 69 176.5t180 67.5q50 0 84 -23l4 2q-13 83 -75 172l-116 -73l-13 21l115 71q-45 56 -93 95l5 8q71 -33 130 -76l94 58l13 -21l-85 -52q184 -147 184 -365q0 -140 -64 -223.5t-186 -83.5zM273 -4q28 0 46.5 19t26.5 56t11 74
t3 90q0 104 -18 166.5t-68 62.5q-89 0 -89 -227q0 -54 2.5 -90t11 -74t27 -57.5t47.5 -19.5z" />
    <glyph glyph-name="ntilde" unicode="&#xf1;" horiz-adv-x="597" 
d="M19 0v7q29 2 43 6q24 8 24 39v331q0 39 -23 54q-18 12 -51 14v6l215 12l4 -4v-72h3q1 1 13 14t14.5 15t14 13t17 13.5t18 10t22.5 9.5t24.5 4.5t29.5 2.5q137 0 137 -157v-262q0 -18 4 -27t17 -14q12 -4 45 -8v-7h-265v7q24 2 37 7q15 5 15 44v266q0 90 -63 90
q-30 0 -52 -13t-31 -31v-313q0 -34 15 -41q10 -5 40 -9v-7h-267zM114 552l-13 5q11 31 26 59.5t45 55t64 26.5q38 0 90.5 -25.5t78.5 -25.5q57 0 81 62l13 -4q-15 -52 -51 -97t-88 -45q-38 0 -87.5 26t-73.5 26q-54 0 -85 -63z" />
    <glyph glyph-name="ograve" unicode="&#xf2;" horiz-adv-x="544" 
d="M269 -15q-105 0 -175.5 67t-70.5 179q0 108 68 176t182 68q115 0 181.5 -67t66.5 -174q0 -109 -65.5 -179t-186.5 -70zM273 -4q28 0 46.5 19t26.5 56t11 74t3 90q0 104 -18 166.5t-68 62.5q-89 0 -89 -227q0 -54 2.5 -90t11 -74t27 -57.5t47.5 -19.5zM343 533
q-47 30 -154 92q-36 21 -51 37t-15 42q0 21 15.5 36t42.5 15q24 0 41 -14.5t37 -45.5q5 -8 90 -155z" />
    <glyph glyph-name="oacute" unicode="&#xf3;" horiz-adv-x="544" 
d="M269 -15q-105 0 -175.5 67t-70.5 179q0 108 68 176t182 68q115 0 181.5 -67t66.5 -174q0 -109 -65.5 -179t-186.5 -70zM273 -4q28 0 46.5 19t26.5 56t11 74t3 90q0 104 -18 166.5t-68 62.5q-89 0 -89 -227q0 -54 2.5 -90t11 -74t27 -57.5t47.5 -19.5zM344 625
q-107 -62 -154 -92l-6 7q85 147 90 155q20 31 37 45.5t41 14.5q27 0 42.5 -15t15.5 -36q0 -26 -15 -42t-51 -37z" />
    <glyph glyph-name="ocircumflex" unicode="&#xf4;" horiz-adv-x="544" 
d="M269 -15q-105 0 -175.5 67t-70.5 179q0 108 68 176t182 68q115 0 181.5 -67t66.5 -174q0 -109 -65.5 -179t-186.5 -70zM273 -4q28 0 46.5 19t26.5 56t11 74t3 90q0 104 -18 166.5t-68 62.5q-89 0 -89 -227q0 -54 2.5 -90t11 -74t27 -57.5t47.5 -19.5zM422 540l-156 116
l-154 -115l-10 7q58 100 109 180q7 12 19 16t38 4q43 0 55 -18q55 -84 110 -182z" />
    <glyph glyph-name="otilde" unicode="&#xf5;" horiz-adv-x="544" 
d="M269 -15q-105 0 -175.5 67t-70.5 179q0 108 68 176t182 68q115 0 181.5 -67t66.5 -174q0 -109 -65.5 -179t-186.5 -70zM273 -4q28 0 46.5 19t26.5 56t11 74t3 90q0 104 -18 166.5t-68 62.5q-89 0 -89 -227q0 -54 2.5 -90t11 -74t27 -57.5t47.5 -19.5zM82 552l-13 5
q11 31 26 59.5t45 55t64 26.5q38 0 90.5 -25.5t78.5 -25.5q57 0 81 62l13 -4q-15 -52 -51 -97t-88 -45q-38 0 -87.5 26t-73.5 26q-54 0 -85 -63z" />
    <glyph glyph-name="odieresis" unicode="&#xf6;" horiz-adv-x="544" 
d="M269 -15q-105 0 -175.5 67t-70.5 179q0 108 68 176t182 68q115 0 181.5 -67t66.5 -174q0 -109 -65.5 -179t-186.5 -70zM273 -4q28 0 46.5 19t26.5 56t11 74t3 90q0 104 -18 166.5t-68 62.5q-89 0 -89 -227q0 -54 2.5 -90t11 -74t27 -57.5t47.5 -19.5zM156 553
q-31 0 -52.5 23t-21.5 55t21.5 55t52.5 23q30 0 52 -23t22 -55t-22 -55t-52 -23zM376 553q-31 0 -52.5 23t-21.5 55t21.5 55t52.5 23q30 0 52 -23t22 -55t-22 -55t-52 -23z" />
    <glyph glyph-name="divide" unicode="&#xf7;" horiz-adv-x="566" 
d="M283 55q-25 0 -43 17.5t-18 43.5t18 43.5t43 17.5t43 -17.5t18 -43.5t-18 -43.5t-43 -17.5zM283 342q-25 0 -43 17.5t-18 42.5q0 26 17.5 43.5t43.5 17.5t43.5 -17.5t17.5 -43.5q0 -25 -18 -42.5t-43 -17.5zM520 235h-474v49h474v-49z" />
    <glyph glyph-name="oslash" unicode="&#xf8;" horiz-adv-x="544" 
d="M40 -15l57 63q-74 69 -74 183q0 108 68 176t182 68q99 0 164 -52l63 69l11 -11l-62 -68q72 -66 72 -179q0 -109 -65.5 -179t-186.5 -70q-93 0 -160 53l-57 -63zM185 237q0 -71 2 -100l168 206q-14 121 -81 121q-89 0 -89 -227zM273 -4q28 0 46.5 19t26.5 56t11 74t3 90
q0 49 -3 87l-168 -206q4 -50 24.5 -85t59.5 -35z" />
    <glyph glyph-name="ugrave" unicode="&#xf9;" horiz-adv-x="581" 
d="M201 -13q-65 0 -96.5 44t-31.5 119v240q0 38 -26 51q-14 7 -50 9v7l219 12l3 -4v-332q0 -95 56 -95q57 0 84 51v302q0 36 -22 49q-12 7 -58 9v8l220 12l4 -4v-390q0 -35 25 -49q13 -8 50 -10v-6l-211 -14l-7 7v62h-3q-22 -25 -37.5 -38.5t-47.5 -26.5t-71 -13zM352 533
q-47 30 -154 92q-36 21 -51 37t-15 42q0 21 15.5 36t42.5 15q24 0 41 -14.5t37 -45.5q5 -8 90 -155z" />
    <glyph glyph-name="uacute" unicode="&#xfa;" horiz-adv-x="581" 
d="M201 -13q-65 0 -96.5 44t-31.5 119v240q0 38 -26 51q-14 7 -50 9v7l219 12l3 -4v-332q0 -95 56 -95q57 0 84 51v302q0 36 -22 49q-12 7 -58 9v8l220 12l4 -4v-390q0 -35 25 -49q13 -8 50 -10v-6l-211 -14l-7 7v62h-3q-22 -25 -37.5 -38.5t-47.5 -26.5t-71 -13zM369 625
q-107 -62 -154 -92l-6 7q85 147 90 155q20 31 37 45.5t41 14.5q27 0 42.5 -15t15.5 -36q0 -26 -15 -42t-51 -37z" />
    <glyph glyph-name="ucircumflex" unicode="&#xfb;" horiz-adv-x="581" 
d="M201 -13q-65 0 -96.5 44t-31.5 119v240q0 38 -26 51q-14 7 -50 9v7l219 12l3 -4v-332q0 -95 56 -95q57 0 84 51v302q0 36 -22 49q-12 7 -58 9v8l220 12l4 -4v-390q0 -35 25 -49q13 -8 50 -10v-6l-211 -14l-7 7v62h-3q-22 -25 -37.5 -38.5t-47.5 -26.5t-71 -13zM436 540
l-156 116l-154 -115l-10 7q58 100 109 180q7 12 19 16t38 4q43 0 55 -18q55 -84 110 -182z" />
    <glyph glyph-name="udieresis" unicode="&#xfc;" horiz-adv-x="581" 
d="M201 -13q-65 0 -96.5 44t-31.5 119v240q0 38 -26 51q-14 7 -50 9v7l219 12l3 -4v-332q0 -95 56 -95q57 0 84 51v302q0 36 -22 49q-12 7 -58 9v8l220 12l4 -4v-390q0 -35 25 -49q13 -8 50 -10v-6l-211 -14l-7 7v62h-3q-22 -25 -37.5 -38.5t-47.5 -26.5t-71 -13zM166 554
q-31 0 -52.5 23t-21.5 55t21.5 55t52.5 23q30 0 52 -23t22 -55t-22 -55t-52 -23zM386 554q-31 0 -52.5 23t-21.5 55t21.5 55t52.5 23q30 0 52 -23t22 -55t-22 -55t-52 -23z" />
    <glyph glyph-name="yacute" unicode="&#xfd;" horiz-adv-x="465" 
d="M72 -232q-33 0 -62 21.5t-29 64.5q0 28 21 50.5t53 22.5q25 0 47 -15t22 -47q0 -18 -5.5 -45t-5.5 -30q68 20 132 186q-10 21 -104 217t-102 213q-20 42 -66 49v7h274v-7q-60 -3 -60 -23q0 -2 7 -21q7 -18 56 -124.5t63 -133.5q24 53 85 227q10 28 10 44q0 5 -2 8.5
t-7 6.5t-10 5t-13.5 3.5t-14.5 3t-16.5 3t-16.5 2.5v6h167v-6q-22 -4 -30.5 -7t-19.5 -14t-19 -32q-16 -40 -52 -134.5t-71.5 -186.5t-39.5 -103q-45 -113 -88 -162t-103 -49zM374 625q-107 -62 -154 -92l-6 7q85 147 90 155q20 31 37 45.5t41 14.5q27 0 42.5 -15t15.5 -36
q0 -26 -15 -42t-51 -37z" />
    <glyph glyph-name="thorn" unicode="&#xfe;" horiz-adv-x="581" 
d="M-4 -226v7q43 2 55 6q25 8 25 46v823q0 39 -27 58q-17 11 -69 14v6l236 12l4 -4v-332l4 -1q58 66 131 66q85 0 139 -65.5t54 -171.5q0 -110 -62 -180t-154 -70q-66 0 -108 31h-4v-181q0 -35 28 -46q17 -6 73 -11v-7h-325zM299 4q90 0 90 222q0 201 -95 201q-43 0 -74 -39
v-312q23 -72 79 -72z" />
    <glyph glyph-name="ydieresis" unicode="&#xff;" horiz-adv-x="465" 
d="M72 -232q-33 0 -62 21.5t-29 64.5q0 28 21 50.5t53 22.5q25 0 47 -15t22 -47q0 -18 -5.5 -45t-5.5 -30q68 20 132 186q-10 21 -104 217t-102 213q-20 42 -66 49v7h274v-7q-60 -3 -60 -23q0 -2 7 -21q7 -18 56 -124.5t63 -133.5q24 53 85 227q10 28 10 44q0 5 -2 8.5
t-7 6.5t-10 5t-13.5 3.5t-14.5 3t-16.5 3t-16.5 2.5v6h167v-6q-22 -4 -30.5 -7t-19.5 -14t-19 -32q-16 -40 -52 -134.5t-71.5 -186.5t-39.5 -103q-45 -113 -88 -162t-103 -49zM145 554q-31 0 -52.5 23t-21.5 55t21.5 55t52.5 23q30 0 52 -23t22 -55t-22 -55t-52 -23z
M365 554q-31 0 -52.5 23t-21.5 55t21.5 55t52.5 23q30 0 52 -23t22 -55t-22 -55t-52 -23z" />
    <glyph glyph-name="dotlessi" unicode="&#x131;" horiz-adv-x="317" 
d="M23 0v7q32 2 43 6q26 10 26 44v331q0 33 -25 50q-16 11 -59 13v6l225 12l4 -4v-409q0 -31 22 -42q14 -7 48 -7v-7h-284z" />
    <glyph glyph-name="Lslash" unicode="&#x141;" horiz-adv-x="641" 
d="M22 0v7q5 1 23.5 2t33 3t19.5 4q30 13 30 50v234l-86 -31l-9 25l95 34v288q0 37 -30 49q-7 3 -76 11v7h375v-7q-2 0 -31 -1t-40 -5q-31 -10 -31 -49v-241l130 47l8 -24l-138 -50v-255q0 -57 19 -71.5t87 -14.5q90 0 115 25q23 23 60 80t60 99h8l-13 -216h-609z" />
    <glyph glyph-name="lslash" unicode="&#x142;" horiz-adv-x="297" 
d="M9 0v7q35 2 42 5q26 10 26 44v266l-75 -28l-9 23l84 32v307q0 39 -27 58q-17 11 -69 14v6l236 12l4 -4v-349l71 27l8 -24l-79 -30v-307q0 -33 26 -45q7 -3 43 -7v-7h-281z" />
    <glyph glyph-name="OE" unicode="&#x152;" horiz-adv-x="1072" 
d="M1008 683v-179h-11q-14 42 -58.5 99.5t-80.5 62.5q-40 5 -86 5h-79v-311h65q59 0 88 29q15 15 30.5 49t18.5 56h11v-285h-11q-3 23 -19.5 59.5t-29.5 50.5q-27 29 -88 29h-65v-251q0 -55 19 -70t87 -15q37 0 56 1t43 6.5t35 16.5q50 48 117 173h9l-13 -209h-645
q-72 0 -136 19.5t-117.5 58.5t-85 106t-31.5 154q0 163 107.5 254t272.5 91h597zM415 11q47 0 79 24t32 75v465q0 32 -9.5 52.5t-28 29.5t-36 11.5t-44.5 2.5q-192 0 -192 -330q0 -150 50.5 -240t148.5 -90z" />
    <glyph glyph-name="oe" unicode="&#x153;" horiz-adv-x="813" 
d="M596 -15q-99 0 -161 51q-65 -51 -166 -51q-105 0 -175.5 67t-70.5 179q0 108 68 176t182 68q99 0 164 -52q62 52 152 52q107 0 156.5 -56t49.5 -143v-6h-283v-29q0 -95 32.5 -150.5t101.5 -55.5q100 0 149 95l11 -8q-30 -61 -84.5 -99t-125.5 -38zM273 -4q28 0 46.5 19
t26.5 56t11 74t3 90q0 104 -18 166.5t-68 62.5q-89 0 -89 -227q0 -54 2.5 -90t11 -74t27 -57.5t47.5 -19.5zM512 283l128 2q0 25 -0.5 40.5t-2 39.5t-5 39t-10 30t-16.5 22t-24 7q-33 0 -50.5 -49.5t-19.5 -130.5z" />
    <glyph glyph-name="Scaron" unicode="&#x160;" horiz-adv-x="592" 
d="M296 -15q-121 0 -215 52l-30 -45h-12l-6 252h10q41 -109 103.5 -178t137.5 -69q65 0 98.5 39.5t33.5 94.5q0 89 -116 130q-123 42 -128 44q-62 26 -92.5 76.5t-30.5 116.5q0 84 65.5 143t174.5 59q119 0 192 -45l26 37h12l4 -237h-10q-38 107 -89.5 169.5t-125.5 62.5
q-52 0 -82.5 -34.5t-30.5 -83.5q0 -93 116 -135q8 -3 59 -19.5t70 -24.5q63 -27 95.5 -71.5t32.5 -119.5q0 -92 -73 -153t-189 -61zM137 947l156 -116l154 115l10 -7q-58 -100 -109 -180q-12 -20 -57 -20q-43 0 -55 18q-55 84 -110 182z" />
    <glyph glyph-name="scaron" unicode="&#x161;" horiz-adv-x="421" 
d="M210 -15q-44 0 -90 14.5t-64 28.5l-23 -34h-8l-5 173h7q29 -62 75.5 -116.5t100.5 -54.5q38 0 60 22.5t22 58.5q0 38 -25.5 59t-95.5 44q-131 43 -131 154q0 60 48 100.5t129 40.5q80 0 134 -27l21 28h8l6 -158h-8q-27 61 -66.5 103.5t-79.5 42.5q-34 0 -53 -22t-19 -52
q0 -38 23 -56t92 -41q134 -44 134 -153q0 -73 -54 -114t-138 -41zM51 747l156 -116l154 115l10 -7q-58 -100 -109 -180q-12 -20 -57 -20q-43 0 -55 18q-55 84 -110 182z" />
    <glyph glyph-name="Ydieresis" unicode="&#x178;" horiz-adv-x="704" 
d="M155 0v7q70 4 81 8q31 12 31 50v156q0 33 -5.5 52.5t-25.5 55.5q-113 207 -145 262q-31 51 -63 71q-20 12 -54 14v7h391v-7q-109 -6 -109 -26q0 -16 44 -99q89 -171 130 -238q9 17 33.5 61t47 85.5t39.5 72.5q50 94 50 109q0 28 -105 35v7h227v-7q-36 -5 -53 -14
q-30 -17 -65 -75q-61 -101 -133 -234q-24 -45 -30.5 -73.5t-6.5 -78.5v-134q0 -36 30 -50q15 -6 80 -10v-7h-389zM276 757q-31 0 -52.5 23t-21.5 55t21.5 55t52.5 23q30 0 52 -23t22 -55t-22 -55t-52 -23zM496 757q-31 0 -52.5 23t-21.5 55t21.5 55t52.5 23q30 0 52 -23
t22 -55t-22 -55t-52 -23z" />
    <glyph glyph-name="Zcaron" unicode="&#x17d;" horiz-adv-x="646" 
d="M6 0v10l429 661h-134q-73 0 -103 -13q-22 -9 -65 -61.5t-80 -114.5h-11l20 201h564v-10l-429 -661h148q79 0 110.5 6.5t46.5 23.5q77 89 124 181h10l-23 -223h-607zM167 941l156 -116l154 115l10 -7q-58 -100 -109 -180q-12 -20 -57 -20q-43 0 -55 18q-55 84 -110 182z
" />
    <glyph glyph-name="zcaron" unicode="&#x17e;" horiz-adv-x="437" 
d="M9 0v12l251 438h-51q-64 0 -95 -14q-30 -13 -78 -125h-9v151h393v-11l-252 -439q24 -1 66 -1q39 0 77 4q31 4 51 38q25 44 57 120h8v-173h-418zM64 747l156 -116l154 115l10 -7q-58 -100 -109 -180q-7 -12 -19 -16t-38 -4q-43 0 -55 18q-55 84 -110 182z" />
    <glyph glyph-name="florin" unicode="&#x192;" horiz-adv-x="549" 
d="M-45 -193q-51 0 -85 24t-34 72q0 27 19 46t45 19q30 0 49 -18t19 -51q0 -21 -14 -40t-33 -29q9 -14 36 -14q95 0 142 223q11 54 49 279h-106l3 19h105q14 81 37.5 133t66.5 92q67 62 177 62q52 0 93 -28t41 -73q0 -27 -16.5 -46t-46.5 -19q-29 0 -49 16t-20 46
q0 35 41 78q-10 16 -43 16q-45 0 -74 -54t-48 -164l-10 -59h125l-4 -19h-124q-36 -211 -45 -251q-28 -126 -116 -195q-83 -65 -180 -65z" />
    <glyph glyph-name="circumflex" unicode="&#x2c6;" 
d="M404 540l-156 116l-154 -115l-10 7q58 100 109 180q7 12 19 16t38 4q43 0 55 -18q55 -84 110 -182z" />
    <glyph glyph-name="caron" unicode="&#x2c7;" 
d="M95 747l156 -116l154 115l10 -7q-58 -100 -109 -180q-12 -20 -57 -20q-43 0 -55 18q-55 84 -110 182z" />
    <glyph glyph-name="breve" unicode="&#x2d8;" 
d="M250 536q-45 0 -86.5 44t-67.5 140l16 6q22 -43 58.5 -68t79.5 -25t79.5 25t58.5 68l16 -6q-26 -96 -67.5 -140t-86.5 -44z" />
    <glyph glyph-name="dotaccent" unicode="&#x2d9;" 
d="M250 565q-31 0 -52.5 23t-21.5 55t21.5 55t52.5 23q30 0 52 -23t22 -55t-22 -55t-52 -23z" />
    <glyph glyph-name="ring" unicode="&#x2da;" 
d="M250 525q-59 0 -94 29t-35 78q0 47 37.5 77t91.5 30q56 0 92.5 -29.5t36.5 -77.5q0 -47 -35.5 -77t-93.5 -30zM250 539q31 0 44.5 27t13.5 66q0 38 -13.5 65.5t-44.5 27.5q-30 0 -44 -27t-14 -66q0 -38 13.5 -65.5t44.5 -27.5z" />
    <glyph glyph-name="ogonek" unicode="&#x2db;" 
d="M346 -236q-192 0 -192 93q0 38 39 70.5t114 72.5h12q-63 -57 -63 -129q0 -42 21 -64.5t69 -29.5v-13z" />
    <glyph glyph-name="tilde" unicode="&#x2dc;" 
d="M64 552l-13 5q11 31 26 59.5t45 55t64 26.5q38 0 90.5 -25.5t78.5 -25.5q57 0 81 62l13 -4q-15 -52 -51 -97t-88 -45q-38 0 -87.5 26t-73.5 26q-54 0 -85 -63z" />
    <glyph glyph-name="hungarumlaut" unicode="&#x2dd;" 
d="M230 642q-17 -12 -68.5 -44t-98.5 -63l-8 7q80 142 87 153q17 26 33.5 37t41.5 11q24 0 37.5 -13t13.5 -31q0 -32 -38 -57zM417 642q-15 -10 -35.5 -23t-57.5 -36.5t-74 -47.5l-8 7q18 31 46.5 82t40.5 71q17 27 33.5 37.5t41.5 10.5q24 0 37.5 -13t13.5 -31
q0 -32 -38 -57z" />
    <glyph glyph-name="pi" unicode="&#x3c0;" horiz-adv-x="638" 
d="M19 0v6q29 2 43 6q25 8 25 41v355q0 32 -24 41q-19 6 -44 7v6h600v-6q-29 -2 -44 -6q-25 -8 -25 -41v-355q0 -31 25 -41q18 -5 43 -7v-6h-278v6q32 4 43 9q19 8 19 42v350q0 44 -69 44h-29q-67 0 -68 -41v-352q0 -34 19 -42q13 -6 42 -10v-6h-278z" />
    <glyph glyph-name="endash" unicode="&#x2013;" horiz-adv-x="544" 
d="M50 205v94h444v-94h-444z" />
    <glyph glyph-name="emdash" unicode="&#x2014;" horiz-adv-x="884" 
d="M50 205v94h784v-94h-784z" />
    <glyph glyph-name="quoteleft" unicode="&#x2018;" horiz-adv-x="215" 
d="M194 779l5 -11q-42 -15 -81.5 -56.5t-43.5 -78.5h40q44 0 64.5 -25.5t20.5 -53.5q0 -25 -20.5 -50.5t-57.5 -25.5q-53 0 -75.5 34t-22.5 86q0 64 51 110t120 71z" />
    <glyph glyph-name="quoteright" unicode="&#x2019;" horiz-adv-x="215" 
d="M33 476l-5 11q42 15 81.5 56.5t43.5 78.5h-40q-44 0 -64.5 25.5t-20.5 53.5q0 25 20.5 50.5t57.5 25.5q52 0 75 -34t23 -86q0 -64 -51 -110t-120 -71z" />
    <glyph glyph-name="quotesinglbase" unicode="&#x201a;" horiz-adv-x="235" 
d="M28 -160l-5 11q42 15 81.5 56.5t43.5 78.5h-40q-44 0 -64.5 25.5t-20.5 53.5q0 25 20.5 50.5t57.5 25.5q53 0 75.5 -34t22.5 -86q0 -64 -51 -110t-120 -71z" />
    <glyph glyph-name="quotedblleft" unicode="&#x201c;" horiz-adv-x="417" 
d="M396 779l5 -11q-42 -15 -81.5 -56.5t-43.5 -78.5h40q44 0 64.5 -25.5t20.5 -53.5q0 -25 -20.5 -50.5t-57.5 -25.5q-53 0 -75.5 34t-22.5 86q0 64 51 110t120 71zM194 779l5 -11q-42 -15 -81.5 -56.5t-43.5 -78.5h40q44 0 64.5 -25.5t20.5 -53.5q0 -25 -20.5 -50.5
t-57.5 -25.5q-53 0 -75.5 34t-22.5 86q0 64 51 110t120 71z" />
    <glyph glyph-name="quotedblright" unicode="&#x201d;" horiz-adv-x="417" 
d="M33 476l-5 11q42 15 81.5 56.5t43.5 78.5h-40q-44 0 -64.5 25.5t-20.5 53.5q0 25 20.5 50.5t57.5 25.5q52 0 75 -34t23 -86q0 -64 -51 -110t-120 -71zM235 476l-5 11q42 15 81.5 56.5t43.5 78.5h-40q-44 0 -64.5 25.5t-20.5 53.5q0 25 20.5 50.5t57.5 25.5q52 0 75 -34
t23 -86q0 -64 -51 -110t-120 -71z" />
    <glyph glyph-name="quotedblbase" unicode="&#x201e;" horiz-adv-x="437" 
d="M28 -160l-5 11q42 15 81.5 56.5t43.5 78.5h-40q-44 0 -64.5 25.5t-20.5 53.5q0 25 20.5 50.5t57.5 25.5q53 0 75.5 -34t22.5 -86q0 -64 -51 -110t-120 -71zM230 -160l-5 11q42 15 81.5 56.5t43.5 78.5h-40q-44 0 -64.5 25.5t-20.5 53.5q0 25 20.5 50.5t57.5 25.5
q53 0 75.5 -34t22.5 -86q0 -64 -51 -110t-120 -71z" />
    <glyph glyph-name="dagger" unicode="&#x2020;" horiz-adv-x="425" 
d="M208 96q-6 124 -35 395q-3 30 -13 30q-4 0 -20 -22q-1 -1 -6.5 -9t-8 -10.5t-8.5 -9t-10 -9t-10.5 -5t-12.5 -2.5q-24 0 -39 14.5t-15 39.5q0 15 10.5 26.5t25.5 11.5q30 0 40 -38q5 2 16.5 8.5t22.5 11t20 4.5q26 0 41 -16q-3 19 -20.5 66t-17.5 69q0 21 11.5 36
t32.5 15t32 -15t11 -36q0 -23 -17.5 -69.5t-20.5 -65.5q17 16 41 16q9 0 20 -4t23.5 -10.5t16.5 -8.5q10 37 42 37q15 0 25 -11t10 -27q0 -25 -15.5 -39.5t-40.5 -14.5q-6 0 -12 2.5t-10 5t-9.5 8.5t-8 9t-8 10t-6.5 9q-16 23 -22 23q-11 0 -12 -30q-26 -247 -35 -395h-8z
" />
    <glyph glyph-name="daggerdbl" unicode="&#x2021;" horiz-adv-x="425" 
d="M213 5q-19 0 -31 14t-12 32q0 22 18 53t20 39q-7 -7 -24 -13t-28 -6q-17 0 -42 10q-8 -40 -41 -40q-15 0 -24.5 11.5t-9.5 27.5q0 19 11.5 31.5t32.5 12.5q19 0 38 -21.5t33 -21.5q4 0 7.5 2t6 9t4 11t4.5 15q28 136 32 165h8q11 -66 34 -165q9 -37 22 -37q14 0 32 21.5
t37 21.5q22 0 34 -12.5t12 -31.5q0 -15 -10.5 -27t-25.5 -12q-31 0 -40 39q-30 -9 -41 -9t-28 6.5t-25 12.5q2 -10 20.5 -40t18.5 -52q0 -18 -12 -32t-31 -14zM208 367q-4 27 -18.5 95t-14.5 70q-11 37 -22 37q-14 0 -32.5 -21.5t-37.5 -21.5q-22 0 -33.5 12.5t-11.5 31.5
q0 15 10 27t25 12q32 0 41 -39q30 9 41 9q28 0 52 -19q-2 11 -20 40.5t-18 51.5q0 18 12 32t31 14t31 -14t12 -32q0 -22 -18.5 -53t-20.5 -39q7 7 24.5 13t28.5 6q17 0 42 -10q8 40 41 40q15 0 24.5 -11.5t9.5 -27.5q0 -19 -11.5 -31.5t-32.5 -12.5q-20 0 -39 21.5t-32 21.5
t-22 -37q-30 -142 -33 -165h-8z" />
    <glyph glyph-name="bullet" unicode="&#x2022;" horiz-adv-x="397" 
d="M79 325q0 53 37 90.5t90 37.5t90.5 -37.5t37.5 -90.5t-37.5 -90t-90.5 -37t-90 37t-37 90z" />
    <glyph glyph-name="ellipsis" unicode="&#x2026;" horiz-adv-x="807" 
d="M135 -13q-37 0 -63.5 25.5t-26.5 62.5t26.5 62.5t63.5 25.5t63.5 -25.5t26.5 -62.5t-26.5 -62.5t-63.5 -25.5zM404 -13q-37 0 -63.5 25.5t-26.5 62.5t26.5 62.5t63.5 25.5t63.5 -25.5t26.5 -62.5t-26.5 -62.5t-63.5 -25.5zM673 -13q-37 0 -63.5 25.5t-26.5 62.5
t26.5 62.5t63.5 25.5t63.5 -25.5t26.5 -62.5t-26.5 -62.5t-63.5 -25.5z" />
    <glyph glyph-name="perthousand" unicode="&#x2030;" horiz-adv-x="1276" 
d="M221 283q-78 0 -127 43.5t-49 122.5q0 73 52.5 122.5t123.5 49.5q79 0 130 -43.5t51 -127.5q0 -69 -53 -118t-128 -49zM224 294q33 0 53 43t20 111q0 162 -75 162q-74 0 -74 -157q0 -159 76 -159zM643 -13q-78 0 -127.5 43.5t-49.5 121.5q0 73 53 122.5t124 49.5
q79 0 130 -43.5t51 -127.5q0 -69 -53 -117.5t-128 -48.5zM229 -96l-22 11l427 774l25 -12zM646 -3q33 0 53 43.5t20 110.5q0 162 -75 162q-39 0 -56.5 -44t-17.5 -113q0 -159 76 -159zM1049 -13q-78 0 -127 43t-49 122q0 73 52.5 122.5t123.5 49.5q79 0 130.5 -43.5
t51.5 -127.5q0 -69 -53.5 -117.5t-128.5 -48.5zM1053 -3q33 0 53 43.5t20 110.5q0 162 -75 162q-39 0 -56.5 -44t-17.5 -113q0 -159 76 -159z" />
    <glyph glyph-name="guilsinglleft" unicode="&#x2039;" horiz-adv-x="352" 
d="M296 16q-42 29 -124 87.5t-105 74.5q-16 11 -20.5 19t-4.5 27q0 18 4.5 26t17.5 18l232 164l5 -5l-135 -204l135 -203z" />
    <glyph glyph-name="guilsinglright" unicode="&#x203a;" horiz-adv-x="352" 
d="M56 16l-6 4l136 203l-136 204l6 5q36 -26 122 -86.5t109 -77.5q14 -10 18.5 -18t4.5 -26q0 -19 -4.5 -27t-20.5 -19q-23 -16 -105 -74.5t-124 -87.5z" />
    <glyph glyph-name="fraction" unicode="&#x2044;" horiz-adv-x="326" 
d="M-98 -204l-24 13l505 942l26 -13z" />
    <glyph glyph-name="Euro" unicode="&#x20ac;" horiz-adv-x="603" 
d="M367 -14q-111 0 -183 65.5t-86 187.5h-74v17h73q-2 27 0 77h-73v18h76q16 116 96.5 192.5t203.5 76.5q81 0 132 -36.5t51 -94.5q0 -41 -18 -61t-43 -20q-28 0 -44.5 16t-16.5 40q0 19 19 48t19 43q-4 22 -32.5 38.5t-67.5 16.5q-126 0 -144 -259h208v-18h-209
q0 -58 1 -77h182v-17h-181q6 -93 46 -153t109 -60q106 0 165 122l9 -5q-33 -74 -83.5 -115.5t-134.5 -41.5z" />
    <glyph glyph-name="copyrightsound" unicode="&#x2117;" horiz-adv-x="950" 
d="M280 25v7q37 2 60 10t23 30v356q0 25 -23 31q-2 1 -63 12v7h266q75 0 117.5 -30t42.5 -81q0 -69 -52 -107t-138 -38h-45v-150q0 -23 21 -30q23 -8 73 -10v-7h-282zM468 232h22q51 0 73.5 35t22.5 83t-20 83t-63 35h-35v-236zM476 -181q-181 0 -309 126.5t-128 305.5
q0 116 58 215t159 157t220 58q180 0 307.5 -126.5t127.5 -303.5q0 -117 -58 -216.5t-158.5 -157.5t-218.5 -58zM476 -152q166 0 281.5 118t115.5 285q0 165 -116 282.5t-281 117.5q-166 0 -282.5 -117.5t-116.5 -282.5q0 -167 116.5 -285t282.5 -118z" />
    <glyph glyph-name="trademark" unicode="&#x2122;" horiz-adv-x="683" 
d="M293 433v6q31 5 37 9q12 9 12 49v138q0 21 -11 30q-18 11 -35 11v7h108l76 -185l63 152q6 13 8 33h111v-7q-10 0 -31 -6q-10 -4 -10 -17v-190q0 -13 10 -17q5 -3 32 -7v-6h-150v6q1 0 10.5 1t17 2.5t9.5 2.5q10 6 10 18v181h-6l-88 -208h-25l-80 203h-6v-139
q0 -39 12 -49q8 -7 39 -12v-6h-113zM82 433v6q32 5 33 5q12 4 12 16v212h-15q-25 0 -34 -1q-11 -1 -22.5 -23t-15.5 -39h-7v74h247v-74h-7q-20 60 -37 62q-9 1 -34 1h-14v-210q0 -14 11 -17q2 -1 32 -6v-6h-149z" />
    <glyph glyph-name="Omega" unicode="&#x2126;" horiz-adv-x="855" 
d="M74 0l-48 213l7 2q11 -28 19 -44.5t26 -33t41 -16.5h165q-225 111 -225 285q0 67 32.5 124t85.5 93t118.5 56t132.5 20q51 0 102.5 -11.5t99.5 -35.5t84.5 -57.5t59 -82.5t22.5 -106q0 -173 -224 -285h164q17 0 31 8t25 24.5t16.5 28t14.5 33.5l7 -2l-49 -213h-269
l-11 58q52 50 76.5 126.5t24.5 216.5q0 83 -16 145t-56 102t-102 40q-91 0 -132.5 -79.5t-41.5 -207.5q0 -140 24.5 -216.5t75.5 -126.5l-11 -58h-269z" />
    <glyph glyph-name="partialdiff" unicode="&#x2202;" horiz-adv-x="573" 
d="M283 -15q-107 0 -184.5 60.5t-77.5 174.5q0 107 75.5 168.5t190.5 61.5q71 0 108 -43l3 1q-10 189 -148 189q-107 0 -132 -81h-10q20 106 156 106t210.5 -89.5t74.5 -262.5q0 -135 -71.5 -210t-194.5 -75zM286 -5q100 0 100 230q0 215 -99 215q-103 0 -103 -215
q0 -230 102 -230z" />
    <glyph glyph-name="Delta" unicode="&#x2206;" horiz-adv-x="700" 
d="M-30 0v6q40 4 59 16q35 23 58 81q14 34 122.5 309t111.5 282h70q33 -83 131 -340t108 -281q14 -36 41 -52q17 -11 55 -15v-6h-756zM194 12h181q77 0 77 30q0 10 -4 22l-174 468l-152 -400q-20 -55 -17 -80q4 -40 89 -40z" />
    <glyph glyph-name="product" unicode="&#x220f;" horiz-adv-x="862" 
d="M391 -89h-367v6q64 5 76 9q31 12 31 47v556q0 37 -31 49q-15 5 -76 10v6h814v-6q-61 -6 -76 -10q-31 -7 -31 -49v-552q0 -39 31 -49q13 -6 76 -11v-6h-367v6q43 3 66 9q30 10 30 47v560q0 17 -7.5 28t-22.5 16t-28 6.5t-32 1.5h-93q-27 0 -43 -2.5t-31 -15t-16 -37.5
v-554q0 -37 31 -48q15 -6 66 -11v-6z" />
    <glyph glyph-name="summation" unicode="&#x2211;" horiz-adv-x="650" 
d="M-14 -83v7q18 5 29 15.5t27 33.5l202 312l-175 265q-15 23 -25.5 32t-26.5 12v6h596l20 -195h-8q-31 52 -81 108.5t-76 65.5q-30 10 -95 10h-139l202 -303l-234 -358h151q125 0 153 29q76 80 132 178h7l-23 -218h-636z" />
    <glyph glyph-name="minus" unicode="&#x2212;" horiz-adv-x="566" 
d="M46 236v48h474v-48h-474z" />
    <glyph glyph-name="radical" unicode="&#x221a;" horiz-adv-x="609" 
d="M320 -49l-213 382l-64 -31l-5 10l188 93l193 -350h2l191 615l11 -2l-216 -700z" />
    <glyph glyph-name="infinity" unicode="&#x221e;" horiz-adv-x="592" 
d="M159 143q-48 0 -82 33.5t-34 82.5q0 52 34 85.5t85 33.5q38 0 69 -21.5t67 -61.5q28 29 43.5 43.5t41.5 27t54 12.5q49 0 80.5 -32.5t31.5 -83.5q0 -52 -35.5 -85.5t-81.5 -33.5q-59 0 -136 82q-74 -82 -137 -82zM162 188q18 0 38 11.5t32.5 23.5t35.5 36
q-30 37 -54.5 56t-53.5 19q-31 0 -49 -21t-18 -54q0 -31 19 -51t50 -20zM433 188q31 0 49.5 22.5t18.5 48.5q0 35 -19 55t-50 20q-16 0 -32 -9t-29 -20.5t-46 -43.5q37 -41 59.5 -57t48.5 -16z" />
    <glyph glyph-name="integral" unicode="&#x222b;" horiz-adv-x="555" 
d="M-47 -193q-51 0 -85.5 24t-34.5 74q0 27 19.5 47t46.5 20q31 0 50.5 -18t19.5 -53q0 -22 -15 -41.5t-34 -29.5q9 -15 36 -15q95 0 142 224q12 55 21 106.5t17.5 110t12.5 81.5q14 81 37.5 133t66.5 92q68 62 181 62q53 0 95 -28.5t42 -74.5q0 -27 -17 -46.5t-48 -19.5
q-30 0 -50.5 16t-20.5 47q0 35 44 81q-11 16 -45 16q-45 0 -72.5 -53.5t-46.5 -165.5q-50 -292 -58 -329q-28 -123 -118 -195q-85 -65 -186 -65z" />
    <glyph glyph-name="approxequal" unicode="&#x2248;" horiz-adv-x="567" 
d="M59 145q9 33 43 59t78 26t127 -15t112 -15q52 0 80 43h6q-34 -88 -114 -88q-46 0 -127 14t-111 14q-62 0 -87 -38h-7zM59 290q9 33 43 59t78 26t127.5 -14.5t111.5 -14.5q52 0 80 42h6q-34 -87 -114 -87q-46 0 -127 13.5t-111 13.5q-63 0 -87 -38h-7z" />
    <glyph glyph-name="notequal" unicode="&#x2260;" horiz-adv-x="566" 
d="M498 443l-76 -76h82v-49h-131l-116 -116h247v-49h-296l-111 -112l-32 32l80 80h-83v49h132l116 116h-248v49h297l108 108z" />
    <glyph glyph-name="lessequal" unicode="&#x2264;" horiz-adv-x="566" 
d="M52 0v46h461v-46h-461zM502 89l-442 201v41l442 201v-52l-377 -170l377 -170v-51z" />
    <glyph glyph-name="greaterequal" unicode="&#x2265;" horiz-adv-x="566" 
d="M513 46v-46h-461v46h461zM505 290l-442 -201v51l378 170l-378 170v52l442 -201v-41z" />
    <glyph glyph-name="lozenge" unicode="&#x25ca;" horiz-adv-x="620" 
d="M279 0l-250 305l249 305h60l253 -305l-251 -305h-61zM311 84l174 221l-178 221l-172 -221z" />
    <glyph glyph-name="apple" unicode="&#xf8ff;" horiz-adv-x="616" 
d="M377 -2q-31 0 -53 21.5t-22 53.5q0 14 9 43t9 51v11l-7 5q-7 -1 -20 -1q-30 0 -56 18l-13 -1q-15 -22 -21 -61q-14 -83 -78 -83q-31 0 -54 22.5t-23 54.5t24 53.5t59 21.5q49 0 74 13l3 14q-10 22 -10 43q0 13 3 25l-5 13q-9 3 -27 3q-15 0 -35 -3.5t-29 -3.5
q-33 0 -55 22.5t-22 53.5t22 54t54 23q45 0 67 -42q4 -7 9 -24t11.5 -31.5t17.5 -25.5l15 1q28 30 69 30l11 7q0 28 -17 61.5t-17 52.5q0 32 22 52.5t54 20.5t53 -22.5t21 -53.5q0 -22 -10 -37.5t-22.5 -23t-29 -22.5t-26.5 -33l4 -12q38 -20 48 -58l12 -6q23 8 54.5 39
t63.5 31q30 0 51.5 -22.5t21.5 -54.5q0 -31 -21.5 -52.5t-53.5 -21.5q-24 0 -56.5 23t-59.5 27l-9 -8q-6 -35 -39 -60l-1 -10q15 -20 53 -39q55 -26 55 -76q0 -30 -23 -53t-55 -23zM293 208q29 0 48 20t19 50q0 29 -19 48.5t-48 19.5q-28 0 -47.5 -19.5t-19.5 -48.5
t19.5 -49.5t47.5 -20.5z" />
    <glyph glyph-name="fi" unicode="&#xfb01;" horiz-adv-x="597" 
d="M18 0v7q26 2 43 8q26 10 26 44v387h-96v16h96v18q0 125 68 195q70 72 199 72q86 0 127 -30t41 -78q0 -26 -20 -50.5t-53 -24.5q-32 0 -52.5 17t-20.5 48q0 12 14 80q0 9 -16 17.5t-36 8.5q-99 0 -107 -210v-63h136l151 8l4 -4v-405q0 -33 24 -45q14 -7 46 -9v-7h-267v7
q28 1 39 11q13 12 13 41v338q0 33 -24 49h-121v-386q0 -23 7 -34q7 -12 47 -19v-7h-268z" />
    <glyph glyph-name="fl" unicode="&#xfb02;" horiz-adv-x="596" 
d="M18 0v7q26 2 43 8q26 10 26 44v387h-96v16h96v18q0 125 68 196q69 71 169 71q55 0 91 -19l101 18l4 -4v-681q0 -33 26 -45q13 -6 43 -9v-7h-263v7q27 1 38 10q12 10 12 42v507q-13 8 -23.5 24t-10.5 36q0 11 3.5 21.5t6.5 15.5t10.5 16t9.5 14q-19 43 -54 43
q-41 0 -62 -40t-25 -141v-93h102v-16h-101v-386q0 -29 14 -41q8 -7 41 -12v-7h-269z" />
    <glyph glyph-name="glyph10" horiz-adv-x="200" 
 />
    <glyph glyph-name="e.ordn" horiz-adv-x="396" 
d="M221 278q-88 0 -132 49t-44 125q0 69 45.5 118.5t123.5 49.5t114.5 -42t36.5 -105v-9h-228q2 -152 116 -152q32 0 62 16t48 44l7 -5q-53 -89 -149 -89zM138 474l135 1q0 137 -60 137q-67 0 -75 -138z" />
    <glyph glyph-name="R.salt" horiz-adv-x="751" 
d="M22 0v7q60 3 76 10q30 11 30 49v548q0 38 -30 50q-10 4 -76 12v7h367q121 0 189 -38.5t68 -117.5q0 -140 -191 -180v-7q68 -8 103 -34t60 -90q7 -18 16.5 -49t17.5 -60t10 -34q17 -50 61 -59q25 -5 60 -7v-7h-279q-17 83 -57 198q-27 76 -49 105t-71 29h-32v-266
q0 -35 30 -49q7 -3 70 -10v-7h-373zM295 346h16q71 0 113 40t42 124q0 77 -35 118.5t-103 41.5h-33v-324z" />
    <glyph glyph-name="ampersand.salt" horiz-adv-x="876" 
d="M366 -17q-137 0 -228.5 63.5t-91.5 164.5q0 99 120 160q-24 16 -39 29.5t-29 41t-14 60.5q0 57 46 98.5t118 41.5q132 0 167 -135l-6 -3q-19 28 -52.5 45.5t-75.5 17.5q-58 0 -90.5 -35t-32.5 -81q0 -50 20 -73q66 34 112 34q35 0 54.5 -14t19.5 -38q0 -21 -14.5 -35.5
t-40.5 -14.5q-16 0 -32 3.5t-31.5 10.5t-25 12t-25.5 15.5t-20 12.5q-30 -30 -30 -79q0 -81 81.5 -132t219.5 -50q140 1 219 59t79 141q0 64 -48 101t-114 37q-50 0 -84.5 -27.5t-34.5 -70.5t27 -67.5t64 -24.5q41 0 59 24q-84 10 -84 57q0 30 19.5 44t42.5 14
q27 0 46.5 -17.5t19.5 -49.5q0 -36 -25.5 -60t-68.5 -24q-56 0 -95.5 34t-39.5 95q0 57 29 95t67.5 51.5t83.5 13.5q14 0 57 -2.5t54 -2.5q45 0 71.5 27t26.5 62q0 33 -23 57t-59 24q-20 0 -34 -10t-14 -20q62 -15 62 -56q0 -24 -14.5 -36.5t-37.5 -12.5q-28 0 -47.5 17
t-19.5 51q0 33 27.5 55t74.5 22q53 0 84.5 -33t30.5 -85q0 -75 -48 -111.5t-139 -34.5q47 -16 78 -55.5t31 -100.5q0 -51 -24 -102t-71 -96t-127 -73.5t-181 -28.5z" />
    <glyph glyph-name="NUL" horiz-adv-x="0" 
 />
    <glyph glyph-name="NUL" horiz-adv-x="0" 
 />
    <glyph glyph-name="DEL" horiz-adv-x="0" 
 />
    </font>
</defs>
</svg>
