<?xml version="1.0" standalone="no"?>
<!DOCTYPE svg PUBLIC "-//W3C//DTD SVG 1.1//EN" "http://www.w3.org/Graphics/SVG/1.1/DTD/svg11.dtd" >
<svg xmlns="http://www.w3.org/2000/svg" xmlns:xlink="http://www.w3.org/1999/xlink" version="1.1">
<metadata>
Created by FontForge 20170731 at Thu May 24 23:21:45 2018
 By Aleksey,,,
</metadata>
<defs>
<font id="lincoln-icons" horiz-adv-x="1024" >
  <font-face 
    font-family="lincoln-icons"
    font-weight="400"
    font-stretch="normal"
    units-per-em="1024"
    panose-1="2 0 5 3 0 0 0 0 0 0"
    ascent="960"
    descent="-64"
    x-height="825"
    cap-height="960"
    bbox="-0.142857 -66 1024.62 960"
    underline-thickness="0"
    underline-position="0"
    unicode-range="U+0020-007A"
  />
<missing-glyph 
 />
    <glyph glyph-name=".notdef" 
 />
    <glyph glyph-name=".notdef" 
 />
    <glyph glyph-name=".null" horiz-adv-x="0" 
 />
    <glyph glyph-name="nonmarkingreturn" horiz-adv-x="341" 
 />
    <glyph glyph-name="space" unicode=" " horiz-adv-x="512" 
 />
    <glyph glyph-name="facebook-solid" unicode="!" 
d="M968 960q27 0 40 -16q2 -2 4 -4.5l4 -5t3 -5.5t2 -5.5t1.5 -6l1 -7t0.5 -6.5v-912q0 -27 -16 -40q-3 -3 -6.5 -6t-7 -4.5t-8 -3t-9 -2t-9.5 -0.5h-262v397h133l21 155h-154v98q0 36 16 56q19 19 61 19h82v140q-56 5 -119 5q-91 0 -145 -54t-54 -150v-114h-133v-155h133
v-397h-491q-27 0 -40 16q-16 13 -16 40v912q0 27 16 40q13 16 40 16h912z" />
    <glyph glyph-name="star" unicode="#" 
d="M814 -38q-10 0 -13 2l-287 140l-287 -140q-14 -7 -29 5q-6 3 -9 10.5t-1 13.5l41 314l-222 230q-10 11 -4 29q3 15 22 19l314 57l152 279q4 8 14 11t20.5 0t15.5 -11l148 -279l312 -57q19 -4 22 -19q1 -6 1 -11t-2 -9t-5 -9l-222 -230l43 -314q0 -18 -12 -24
q-1 -4 -4.5 -5.5t-7.5 -1.5zM85 539l193 -201q5 -5 7.5 -10.5t2.5 -11.5l-39 -280l251 124q12 3 24 0l253 -124l-39 280q0 14 8 22l193 201l-275 52q-17 4 -21 12l-129 246l-133 -246q-2 -6 -7 -9t-12 -3z" />
    <glyph glyph-name="fullscreen, expand" unicode="$" 
d="M152 647v-398q0 -13 7.5 -20t19.5 -7h666q12 0 19.5 7t7.5 20v398q0 13 -7.5 20t-19.5 7h-666q-6 0 -11 -2t-8.5 -5t-5.5 -8t-2 -12zM208 621h608v-346h-608v346zM216 113h-160v160q0 13 -8.5 21t-20.5 8t-19.5 -8t-7.5 -21v-189q0 -6 2 -11t5.5 -8.5t8.5 -5.5t11 -2h189
q8 0 14 3.5t9.5 9.5t3.5 14q0 13 -8 21t-19 8zM27 594q8 0 14.5 3.5t10.5 10.5t4 15v160h160q27 0 27 29q0 12 -7.5 19.5t-19.5 7.5h-189q-13 0 -20 -7.5t-7 -19.5v-189q0 -13 7.5 -21t19.5 -8zM997 839h-189q-12 0 -19.5 -7.5t-7.5 -19.5q0 -29 27 -29h160v-160q0 -8 4 -15
t10.5 -10.5t14.5 -3.5q12 0 19.5 8t7.5 21v189q0 6 -3 12t-9.5 10.5t-14.5 4.5zM997 302q-8 0 -14.5 -3.5t-10.5 -10.5t-4 -15v-160h-160q-27 0 -27 -29q0 -12 7.5 -19.5t19.5 -7.5h189q13 0 20 7.5t7 19.5v189q0 13 -7.5 21t-19.5 8z" />
    <glyph glyph-name="star-solid" unicode="%" 
d="M1022 565q-1 7 -6.5 12t-11.5 5l-317 57l-154 286q-3 4 -6.5 7t-7.5 4t-8 1q-14 0 -23 -12l-152 -284l-315 -57q-17 -4 -20 -17q-4 -15 6 -24l222 -233l-45 -322q0 -8 2 -14.5t8 -10.5q4 -2 8.5 -3t8.5 -0.5t10 1.5l290 138l289 -138q3 -1 6.5 -1.5t6.5 -0.5q6 0 14 4
q10 8 10 25l-45 318l222 232q13 17 8 27z" />
    <glyph glyph-name="circle" unicode="&#x26;" 
d="M512 -64q-104 0 -198.5 40.5t-163.5 109.5t-109.5 163.5t-40.5 198.5t40.5 198.5t109.5 163.5t163.5 109.5t198.5 40.5t198.5 -40.5t163.5 -109.5t109.5 -163.5t40.5 -198.5t-40.5 -198.5t-109.5 -163.5t-163.5 -109.5t-198.5 -40.5zM512 904q-93 0 -177.5 -36
t-145.5 -97t-97 -145.5t-36 -177.5t36 -177.5t97 -145.5t145.5 -97t177.5 -36t177.5 36t145.5 97t97 145.5t36 177.5t-36 177.5t-97 145.5t-145.5 97t-177.5 36z" />
    <glyph glyph-name="square-plus" unicode="(" 
d="M997 960h-970q-13 0 -20 -7t-7 -20v-970q0 -13 7 -20t20 -7h970q13 0 20 7t7 20v970q0 13 -7 20t-20 7zM968 -8h-912v912h912v-912zM276 421h209v-209q0 -13 7.5 -20t19.5 -7t19.5 7t7.5 20v209h209q7 0 12 2t8 5.5t5 8.5t2 11t-2 11t-5 8.5t-8 5.5t-12 2h-209v209
q0 7 -2 12t-5.5 8t-8.5 5t-11 2q-3 0 -6 -0.5t-5.5 -1.5t-4.5 -2t-3.5 -3l-3 -4t-2.5 -4.5t-1.5 -5t-0.5 -6.5v-209h-209q-9 0 -15 -3.5t-9 -9.5t-3 -14t4 -14t10 -9.5t13 -3.5z" />
    <glyph glyph-name="square-check" unicode=")" 
d="M997 960h-970q-13 0 -20 -7t-7 -20v-970q0 -13 7 -20t20 -7h970q13 0 20 7t7 20v970q0 13 -7 20t-20 7zM968 -8h-912v912h912v-912zM366 242q8 -7 19 -10q4 0 7 1t6 2.5t5 4.5l374 377q10 9 10 20t-10 19q-5 5 -11.5 6.5t-14 0t-13.5 -6.5l-347 -354l-105 127q-6 6 -13 8
t-14 1t-12 -6q-10 -8 -11 -20t7 -20z" />
    <glyph glyph-name="circle-check-solid" unicode="*" 
d="M512 960q-104 0 -198.5 -40.5t-163.5 -109.5t-109.5 -163.5t-40.5 -198.5t40.5 -198.5t109.5 -163.5t163.5 -109.5t198.5 -40.5t198.5 40.5t163.5 109.5t109.5 163.5t40.5 198.5t-40.5 198.5t-109.5 163.5t-163.5 109.5t-198.5 40.5zM785 590l-314 -323q-12 -8 -21 -8
q-6 0 -18 8l-173 162q-5 6 -7 12.5t0 13t7 12.5q9 9 20 9t19 -9l152 -144l298 302q8 9 19 9t18 -9q4 -2 6 -5t3 -6t1 -6t-1 -6t-3 -6.5t-6 -5.5z" />
    <glyph glyph-name="dash-cluster-icon" unicode="+" 
d="M512 902q-104 0 -198.5 -40.5t-163.5 -109t-109.5 -163.5t-40.5 -199q0 -125 51 -228q10 -16 25 -16h5t4 0.5t3 1.5q11 4 14.5 14.5t0.5 22.5q-23 48 -35 99t-12 102q0 94 36 179.5t97 147t145.5 98t177.5 36.5q62 0 121.5 -16.5t109.5 -46t92 -72t71.5 -92.5t45.5 -109
t16 -121q0 -111 -43 -197q-3 -7 -2 -14.5t5 -13t10 -7.5q11 -4 21.5 -0.5t15.5 12.5q49 105 49 220q0 104 -40.5 199t-109.5 163.5t-163.5 109t-198.5 40.5zM726 216q-9 -10 -10.5 -21t6.5 -18q24 -20 39 -2q9 7 19 21t18.5 28.5t9.5 15.5q31 63 31 142q0 38 -8.5 74.5
t-24.5 69t-38.5 61t-51 51.5t-61 39.5t-69.5 25t-76 8.5q-89 0 -165.5 -43.5t-121 -119.5t-44.5 -166q0 -72 33 -148q2 -4 5.5 -10t14 -21t19.5 -26q3 -3 6.5 -5t7.5 -3t8 -1q5 0 11 2t10 5q5 5 7.5 11.5t1 13.5t-6.5 12q-7 9 -15 20.5t-12 19.5l-4 7q-26 56 -26 123
q0 112 80 193t193 81t193 -80t80 -194q0 -62 -24 -117q-4 -5 -11.5 -16.5t-14 -20.5t-9.5 -12zM936 107q-50 0 -89 -35q-14 -13 -24.5 -18t-28.5 -5q-14 0 -22.5 6.5t-27.5 26.5q-13 16 -21.5 25t-27.5 18.5t-41 9.5q-54 0 -93 -53q-13 -18 -23 -25.5t-26 -7.5
q-11 0 -19.5 4t-13.5 9.5t-16 19.5q-2 1 -4 4q-14 16 -23 24t-27 16.5t-39 8.5q-51 0 -90 -53q-9 -12 -16 -19t-15.5 -10.5t-18.5 -3.5q-18 0 -28.5 5t-24.5 18q-12 10 -21 16.5t-27.5 12.5t-40.5 6q-4 0 -8.5 -1.5t-8 -3.5t-6.5 -5.5t-4 -7.5t-1 -9q0 -8 3.5 -14.5
t10 -10.5t14.5 -4q17 0 26.5 -4.5t25.5 -15.5q13 -12 22.5 -18.5t27.5 -12.5t40 -6q52 0 91 53q14 17 24.5 25t24.5 8q6 0 11 -1.5t8 -2.5t8 -5t7 -6l8.5 -8.5l9.5 -9.5q13 -16 21.5 -25t27.5 -18.5t41 -9.5q31 0 52.5 15t37.5 38q8 9 11 12t9 8.5t9.5 7t9.5 3.5t13 2
q10 0 18.5 -5t13.5 -9.5t17 -18.5q5 -5 8 -8.5t8 -9t9.5 -9.5t10 -8.5t11.5 -7.5t13 -5.5t14.5 -3.5t16.5 -1q49 0 90 37q11 8 16 11t14.5 6t21.5 3q6 0 11 2.5t9 6t6 9t2 11.5q0 12 -8.5 19.5t-19.5 7.5z" />
    <glyph glyph-name="pop-out" unicode="0" 
d="M997 -64h-687q-12 0 -19.5 7.5t-7.5 19.5t7 18.5t20 6.5h664v920h-922v-674q0 -12 -7.5 -20t-19.5 -8t-18.5 7.5t-6.5 20.5v701q0 19 18 24q4 1 7 1h972q7 0 13.5 -3t10 -9t3.5 -13v-972q0 -11 -8 -19t-19 -8zM726 638h-300q-10 0 -18.5 7.5t-8.5 19.5q0 11 7.5 18
t19.5 7h300q8 0 14 -3t10 -9t4 -13q0 -13 -8 -20t-20 -7zM726 338q-10 0 -18.5 7t-8.5 17v303q0 19 20 24q4 1 7 1q6 0 10 -1.5t7.5 -3.5t5.5 -5t3.5 -7t1.5 -8v-303q0 -7 -4 -12.5t-10 -8.5t-14 -3zM280 189q-10 0 -17.5 7.5t-7.5 18.5t8 19l446 446q21 16 37.5 -0.5
t-0.5 -36.5l-451 -447q-2 -7 -15 -7z" />
    <glyph glyph-name="chat-bubble" unicode="1" 
d="M259 -63q-9 0 -13 4q-3 1 -5 2t-4 3t-3.5 4.5t-2.5 5t-1.5 5.5t-0.5 5v228q-93 34 -161 136.5t-68 241.5q0 75 30.5 146.5t80 124t117.5 84.5t140 32h315q92 0 171 -52t124.5 -140t45.5 -191t-46 -191.5t-124.5 -139.5t-170.5 -51h-90l-318 -251q-2 0 -4.5 -1.5
t-4.5 -2.5t-4 -1.5t-3 -0.5zM368 902q-79 0 -151.5 -46.5t-116 -124t-43.5 -161.5q0 -63 18 -120.5t47.5 -99.5t67 -71.5t77.5 -40.5q4 -1 7.5 -3.5t6 -6t4 -8t1.5 -10.5v-187l282 221q12 6 17 6h98q77 0 142.5 44t103.5 119t38 163t-38 163t-103.5 119t-142.5 44h-315z" />
    <glyph glyph-name="instagram, camera" unicode="2" 
d="M514 705q-70 0 -129 -34.5t-93.5 -93.5t-34.5 -129q0 -107 75.5 -182t182 -75t182 75t75.5 182q0 70 -34.5 129t-94 93.5t-129.5 34.5zM514 274q-47 0 -87 23.5t-63.5 63.5t-23.5 87q0 72 51.5 123t123 51t122.5 -51t51 -123t-51 -123t-123 -51zM850 708
q0 -15 -7.5 -27.5t-19.5 -19.5t-27 -7q-24 0 -40 15.5t-16 38.5q0 15 7.5 28t20 20.5t28.5 7.5q22 0 38 -16.5t16 -39.5zM764 960h-500q-110 0 -186 -76t-76 -186v-505q0 -106 75.5 -181.5t182.5 -75.5h504q107 0 182 75.5t75 181.5v505q4 110 -71 186t-186 76zM943 198
q0 -72 -51 -124t-123 -52h-505q-75 -2 -126.5 49.5t-51.5 126.5v500q0 37 14 70t37.5 57t56.5 38t70 14h505q28 0 54.5 -9t48 -25t37.5 -37.5t25 -48t9 -54.5v-505z" />
    <glyph glyph-name="printer, print" unicode="3" 
d="M809 705h190q13 0 19 -6t6 -17v-465q-4 -23 -28 -23h-187v-230q0 -14 -4.5 -19.5t-15.5 -5.5h-554q-25 0 -25 25v230h-182q-14 0 -21 5.5t-7 17.5v465q0 23 28 23h182v227q0 25 25 25h549q6 0 11 -1t8 -4.5t4.5 -8t1.5 -11.5v-227zM258 705h508v209h-508v-209zM976 662
h-928v-428h162v215q0 23 25 23h549q25 0 25 -23v-210h167v423zM766 427h-508v-203q2 -1 2 -3v-4q0 -10 -2 -13v-222h508v445zM316 328h392q28 0 28 -20q0 -10 -7 -14t-21 -4h-392q-13 0 -19 4t-6 14q0 2 0.5 4.5t1.5 4.5t2.5 4t3.5 3t4.5 2t5.5 1.5t7 0.5zM316 227h392
q28 0 28 -23q0 -5 -2 -8t-5.5 -5.5t-8.5 -3.5t-12 -1h-392q-25 0 -25 18q0 6 1.5 10t4.5 7t7.5 4.5t11.5 1.5zM316 123h392q28 0 28 -20q0 -10 -7.5 -15t-20.5 -5h-392q-25 0 -25 20q0 3 0.5 5t1.5 4t2.5 4t3.5 3t4.5 2t5.5 1.5t7 0.5z" />
    <glyph glyph-name="paper-airplane" unicode="4" 
d="M1022 901v2v4q-2 1 -2 2l-4 2q-2 0 -2 4h-2h-4h-2h-2h-6h-4l-982 -406q-6 -2 -9 -7t-3 -12t3 -12.5t9 -7.5l373 -143v-328q0 -16 16 -18h4q13 0 18 10l142 240l259 -143q1 -2 3 -2h7q6 0 8 2q10 7 10 14l172 791zM905 841l-504 -468l-326 126zM425 80v232l101 -56z
M818 142l-379 209l528 490z" />
    <glyph glyph-name="map-search" unicode="5" 
d="M478 181l-135 -98v630l254 181v-384q0 -3 1 -6l2 -6t3.5 -5t5 -3.5t5.5 -2.5t7 -1t7 1t5.5 2.5t4.5 3.5t3.5 4.5t2 5.5t0.5 7v384l256 -181v-286q0 -7 3 -12t8 -8.5t13 -3.5q5 0 8.5 1.5t6.5 4.5t4.5 7.5t1.5 10.5v294q0 6 -2 11t-6 6l-308 216h-2h-2q-6 0 -8 4h-4.5
t-3 -1t-3.5 -3h-2h-2l-286 -203l-282 203q-7 7 -21 0q-5 -2 -9 -7.5t-4 -9.5v-681q0 -13 9 -17l298 -213h4h3q6 -3 8 -3l9 3h2h4l169 121q6 5 8.5 13t-2.5 15q-6 4 -11.5 6.5t-11.5 3t-11 -3.5zM43 894l256 -181v-630l-256 182v629zM1018 -28l-135 135q41 50 41 115
q0 49 -25 91.5t-68 67t-93 24.5q-75 0 -129 -54t-54 -129t54 -129.5t129 -54.5q72 0 115 41l137 -137q4 -4 13 -4q4 0 8.5 1.5t6.5 2.5q3 3 4.5 6.5t1.5 8t-1.5 8.5t-4.5 7zM597 220q0 37 19 69.5t51.5 52t70.5 19.5q59 0 100 -41.5t41 -99.5q0 -59 -41 -100t-100 -41
q-19 0 -37 5t-33.5 14t-28.5 22t-22 28.5t-14.5 33.5t-5.5 38z" />
    <glyph glyph-name="mouse" unicode="6" 
d="M986 894q-6 0 -11.5 -2.5t-8.5 -6t-5 -9t-2 -11.5v-250q0 -33 -7 -60t-18 -45.5t-25.5 -31.5t-30 -19t-31.5 -6q-21 0 -40.5 10t-35.5 29t-26 50.5t-10 72.5v107q0 111 -84 180q-79 58 -176 58q-61 0 -115 -23.5t-90.5 -74t-36.5 -117.5v-19h-83q-44 0 -76 -15t-48.5 -44
t-16.5 -69v-379q0 -117 82 -200t197.5 -83t197.5 83t82 200v379q0 57 -45.5 92.5t-120.5 35.5h-113v19q0 39 16.5 70.5t44 50.5t60.5 28.5t69 9.5q39 0 75.5 -12t63.5 -33q14 -13 25.5 -28t19.5 -32t12.5 -36.5t4.5 -40.5v-107q0 -101 49 -160q49 -56 118 -56q67 0 117.5 58
t50.5 160v248q0 8 -4 14.5t-10.5 10.5t-14.5 4zM150 670h83v-140h-168v68q0 32 18 52t67 20zM289 -10q-92 0 -158 66t-66 159v259h447v-259q0 -91 -66 -158t-157 -67zM402 670q12 0 26 -2t35.5 -8t35 -22t13.5 -40v-68h-223v140h113z" />
    <glyph glyph-name="fuel-pump" unicode="7" 
d="M520 808h-247q-15 0 -28.5 -6.5t-23.5 -17t-16 -25t-6 -29.5v-116q0 -12 7.5 -20t19.5 -8h347q13 0 20 8t7 20v116q-1 16 -7 30t-16.5 24.5t-25 17t-31.5 6.5zM543 641h-288v89q0 6 2.5 11t7 8t10.5 3h247q10 0 16.5 -6.5t6.5 -15.5v-89h-2zM991 662q-31 56 -54.5 92
t-39 51.5t-25 19.5t-19.5 3q-12 -3 -20.5 -9.5t-10.5 -12.5q-4 -11 1 -22t16 -15q8 -3 16 0q8 -9 10 -13q-14 -22 -21.5 -45t-4.5 -51t22 -50q32 -35 76 -35q4 0 7.5 0.5t6.5 1t6.5 0.5h6.5q7 -25 4.5 -49t-7 -41.5t-14 -33t-16.5 -24t-14 -14.5q-24 -24 -52.5 -33.5
t-40.5 0.5q-16 10 -19 41.5t2.5 64t14.5 55.5q1 2 2 4.5t1 5t-1 5l-2 5t-2.5 4.5t-3.5 4.5t-4 3.5l-86 56v183q0 43 -30 74t-73 31h-448q-22 0 -41.5 -8.5t-33 -22.5t-21 -33.5t-7.5 -40.5v-637q-29 -2 -50.5 -25t-21.5 -53v-44q0 -33 22.5 -55.5t53.5 -22.5h643q34 0 56 23
t22 55v44q0 31 -20.5 53.5t-50.5 24.5v384l34 -25q-39 -159 33 -207q10 -6 21 -8t23 -2q26 0 55.5 13t57.5 38q35 33 55 75t18.5 99.5t-32.5 117.5zM742 103v-46q0 -10 -7 -16t-16 -6h-643q-6 0 -11 3.5t-7.5 8.5t-2.5 10v46q0 6 3.5 10.5t8 7t9.5 2.5h21q11 0 18.5 9
t7.5 20v664q0 21 14 34t34 13h452q10 0 18.5 -4t15 -10.5t10 -15t3.5 -17.5v-664q0 -13 7.5 -21t19.5 -8h20q10 0 17.5 -6.5t7.5 -13.5zM902 647q-17 20 0 58q4 -7 17.5 -30t21.5 -38q2 -1 2 -4q-22 -7 -41 14z" />
    <glyph glyph-name="speaker, volume" unicode="8" 
d="M884 148q-4 0 -8.5 2t-6.5 4q-6 6 -6 15.5t6 16.5q73 72 98.5 167.5t0 190.5t-98.5 168q-6 6 -6 15.5t6.5 16t16 6.5t15.5 -7q60 -60 91.5 -137.5t31.5 -156t-31.5 -155.5t-91.5 -138q-13 -8 -17 -8zM779 219q-12 0 -15 7q-6 6 -6 14.5t6 14.5q19 20 34 42t25 46.5
t15.5 51t5.5 54.5q0 110 -80 193q-3 3 -4.5 7t-1.5 8t1.5 8t4.5 7q6 6 15.5 6t16.5 -6q43 -44 66.5 -101.5t23.5 -119.5q0 -128 -90 -221q-8 -11 -17 -11zM667 291q-6 0 -15 4q-6 6 -6 15.5t6 16.5q53 52 53 122q0 23 -5.5 44.5t-17.5 41.5t-30 36q-6 6 -6 15.5t6 15.5
q5 4 10.5 5.5t11.5 0t10 -5.5q65 -64 65 -152.5t-65 -150.5q-8 -8 -17 -8zM568 51q-3 0 -7.5 2.5t-6.5 3.5l-238 194h-293q-9 0 -16 6.5t-7 14.5v349q0 10 7 16.5t16 6.5h291l244 196q6 10 21 2q6 -1 9 -6.5t3 -12.5v-751q0 -13 -12 -21h-11zM44 293h278q6 0 13 -6l214 -171
v665l-214 -174q-5 -5 -13 -5h-278v-309z" />
    <glyph glyph-name="volume-mute, mute" unicode="9" 
d="M607 25q-4 0 -8.5 3t-6.5 4l-256 206h-311q-11 0 -18 6.5t-7 15.5v372q0 4 0.5 7t2 6t4 5t5 3.5t6 2.5t7.5 1h307l260 208q4 5 11 5.5t13 -2.5q11 -3 11 -20v-800q0 -15 -11 -23h-9zM49 283h296q7 0 14 -7l226 -181v708l-226 -186q-5 -5 -14 -5h-296v-329zM912 446
l105 106q7 6 7 16.5t-6.5 17t-17 6.5t-16.5 -7l-106 -107l-105 107q-7 7 -17 7t-16.5 -6.5t-6.5 -17t6 -16.5l106 -106l-106 -107q-4 -5 -5.5 -10.5t0 -11t5.5 -9.5q4 -7 16 -7q9 0 16 7l105 105l105 -105q4 -7 16 -7q10 0 14 7q6 6 6 15t-6 16z" />
    <glyph glyph-name="charge, battery" unicode="=" 
d="M894 863h-160v70q0 12 -8 19.5t-21 7.5h-392q-5 0 -8.5 -1t-6.5 -2.5t-5 -4l-4 -5t-2.5 -6.5t-0.5 -8v-70h-156q-13 0 -20 -7t-7 -19v-693q0 -85 60.5 -146.5t146.5 -61.5h404q86 0 146.5 61.5t60.5 146.5v693q0 12 -7.5 19t-19.5 7zM339 904h340v-41h-340v41zM866 144
q0 -64 -44.5 -108t-107.5 -44h-404q-63 0 -107.5 44t-44.5 108v664h708v-664zM685 471l-126 14l89 187q7 17 -6 31q-14 14 -29 6q-24 -16 -303 -300q-14 -14 -6 -31q11 -16 25 -16h103l-126 -218q-7 -23 7 -37q6 -4 16 -4q8 0 21 4l351 314q4 4 6.5 9t2.5 10t-1 10
q-6 13 -24 21zM438 265l64 113q6 15 0 29q-11 14 -27 14h-82q70 68 138 138l-38 -86q-6 -13 0 -25q8 -14 21 -14l101 -11z" />
    <glyph glyph-name="twitter-solid" unicode="@" 
d="M1024 764q-47 -65 -105 -107v-27q0 -93 -25 -168q-25 -88 -75 -162q-43 -71 -118 -139q-37 -30 -78.5 -53t-90.5 -40q-96 -36 -209 -36q-176 0 -323 95q32 -4 50 -4q143 0 262 91q-69 0 -123 41q-55 42 -75 104q32 -4 41 -4q30 0 54 9q-23 4 -45 14t-40.5 24t-34.5 32
q-48 58 -48 135v2q46 -25 96 -25q-44 27 -69 73l-8 16t-6.5 16t-4.5 16.5t-3.5 17t-2 17t-0.5 17.5q0 59 28 107q39 -48 87 -87t104 -68q115 -59 243 -66q-7 27 -7 50q0 43 15.5 80t46.5 68q61 61 150 61q90 0 152 -66q72 14 135 50q-6 -18 -15 -35t-21 -31.5t-26 -26.5
t-32 -23q55 6 121 32z" />
    <glyph glyph-name="hand-key" unicode="B" 
d="M1021 386q-6 17 -26 26.5t-45 9.5q-6 0 -13.5 -1.5t-16 -4t-16.5 -6.5l-20 -12.5t-30.5 -19t-29.5 -18.5q-8 -5 -31 -20.5t-38 -25t-34 -21.5t-31.5 -18t-18.5 -6q-11 1 -88.5 11.5t-102.5 12.5v12h167q38 0 73 43t35 74q0 8 -1.5 12.5t-6.5 7.5q-8 11 -22 12h-182h-111
q-46 0 -77 -7t-68 -31q-60 -42 -110 -93h-155q-8 0 -15 -6t-7 -16v-315q0 -4 2.5 -8.5t5.5 -7.5q6 -6 14 -6h2l153 24q5 0 9 2.5t6.5 6.5t2.5 9v30q107 76 179 76h60h72q159 0 207 17q10 4 25 13t36 24t38 28t46.5 35t45.5 34q8 6 15.5 11.5t15 11.5t14 11t13.5 10t13.5 9.5
l13 9t12.5 7.5q9 8 14.5 16t7 15t1 12.5t-2.5 9.5zM155 26l-111 -16v269h111v-253zM975 368q-14 -11 -45.5 -36t-49.5 -39q-156 -117 -183 -128q-34 -14 -191 -14h-72h-60q-77 0 -179 -69v197q82 74 116 99q31 21 56.5 26.5t66.5 5.5h111h170q-18 -30 -30 -42
q-7 -8 -13.5 -12.5t-12.5 -7t-12 -2.5h-187q-5 0 -9.5 -3t-7.5 -8t-3 -12v-48q0 -9 5 -14.5t11 -5.5q3 0 49 -6t97.5 -12.5t66.5 -7.5q22 0 63 23t114 73q57 42 78 51q2 1 6.5 2t10 1.5t9.5 0.5q12 0 20.5 -2.5t10.5 -5.5q-2 -2 -6 -4zM731 707q-9 -15 12 -26q1 0 3.5 -1
t4.5 -1q15 1 19 12q27 71 -2 141q-5 8 -12 10.5t-17 1.5q-8 -5 -11 -12t1 -16q25 -52 2 -109zM249 699q12 -8 22 -8h257q22 -49 66 -79.5t97 -30.5h115q4 0 8 2q2 0 2 4q2 2 6 4q22 41 34 82.5t12 83.5q0 28 -5.5 56.5t-15.5 54t-23 50.5v4q-2 2 -6 4q-2 0 -2 4q-2 2 -8 2
h-115q-36 0 -68 -13t-56.5 -37.5t-38.5 -57.5h-20q-14 0 -22 -8h-6q-8 8 -22 8h-20q-14 0 -22 -8l-4 -2l-2 2q-8 8 -22 8h-121q-14 0 -22 -10l-32 -36q-4 -4 -6.5 -9t-2.5 -10.5t2.5 -11t6.5 -10.5zM691 892h101q32 -58 32 -135q0 -35 -8 -69.5t-24 -66.5h-101
q-55 0 -94.5 40t-39.5 96q0 19 5 36.5t13.5 32t21 27t27.5 21t32 13.5t35 5zM277 784h113l6 -6q4 -4 9.5 -6t11.5 -2t12.5 2t10.5 6l4 6h14l6 -6q5 -5 13 -7t16 0t13 7l6 6h6q-1 -4 -2 -9t-1.5 -8.5t-0.5 -9.5q1 -16 4 -26h-245l-24 28z" />
    <glyph glyph-name="guage" unicode="C" 
d="M512 960q-8 0 -15 -6t-7 -16v-248q0 -8 6 -15t16 -7q22 0 22 22v228q187 -8 318.5 -145t131.5 -325q0 -128 -63.5 -236.5t-172.5 -172t-236 -63.5t-235.5 63t-172.5 171.5t-64 237.5q0 185 128 322q6 6 6 15t-6 15q-17 13 -30 0q-138 -153 -138 -352q0 -105 40.5 -199.5
t109.5 -163t163.5 -109t198.5 -40.5t198.5 40.5t163.5 109t109.5 163t40.5 199.5q0 104 -40.5 198.5t-109.5 163.5t-163.5 109.5t-198.5 40.5zM450 390q23 -26 60 -26q32 0 56 23t24 57q0 29 -22 54l-2 4q-2 1 -294 210q-15 7 -26 -4t-4 -26zM538 472q12 -10 12 -28
q0 -15 -12.5 -27.5t-27.5 -12.5q-18 0 -28 12l-138 194q120 -82 194 -138z" />
    <glyph glyph-name="refresh" unicode="D" 
d="M912 767q-40 53 -94 93.5t-116.5 64.5t-130.5 32q-8 3 -14 -2.5t-6 -15.5q0 -4 0.5 -7t1.5 -6t3 -5t5.5 -3t7.5 -1q92 -11 174.5 -56.5t140.5 -117.5q59 -75 83.5 -164t12.5 -183q-10 -93 -55.5 -175t-117.5 -141q-38 -29 -79 -50.5t-85.5 -33.5t-90.5 -15.5t-93 3.5
q-92 9 -174 55t-142 119q-58 73 -83.5 162.5t-15.5 184.5q6 58 27 111.5t53 100t75 84.5v-156q0 -8 6 -13t16 -5q6 0 10.5 2.5t7 7t2.5 10.5v200q0 5 -2.5 9t-7.5 6.5t-12 2.5l-197 -2q-5 0 -10 -2.5t-7.5 -6.5t-2.5 -9q0 -9 6 -15.5t14 -6.5h143q-137 -128 -161 -316
q-12 -100 15.5 -197t91.5 -178q63 -81 152 -130.5t190 -61.5q22 -2 62 -2q175 0 316 110q80 62 128.5 151t60.5 190.5t-15 199.5t-93 178z" />
    <glyph glyph-name="flag" unicode="E" 
d="M0 772v-291h1024v87h-585v111h585v93h-1024zM257 572l-39 19l-36 -19l8 41l-29 27l41 6l18 37l17 -37l40 -6l-28 -27zM0 203h1024v-79h-1024v79zM0 393h1024v-82h-1024v82z" />
    <glyph glyph-name="plus" unicode="F" 
d="M25 426h471v-467q0 -9 6.5 -15.5t15.5 -6.5q11 0 18 6.5t7 15.5v467h459q9 0 15.5 6.5t6.5 15.5t-6.5 15.5t-15.5 6.5h-457v467q0 9 -6.5 15.5t-15.5 6.5q-5 0 -10 -2t-8 -5t-5 -7t-2 -8v-467h-473q-11 0 -18 -6.5t-7 -15.5t7 -15.5t18 -6.5z" />
    <glyph glyph-name="search" unicode="G" 
d="M988 -64q-11 0 -15 4l-259 263q-6 6 -6 15t6 15q3 3 7 5t8.5 2t8.5 -2t7 -5l259 -259q3 -3 4.5 -7t1.5 -8t-1.5 -8t-4.5 -7q-8 -8 -16 -8zM441.5 102q-116.5 0 -215 57t-155.5 155t-57 215q0 50 11.5 98.5t32.5 91t50.5 80t66.5 67t79 50.5t90 32.5t97 11.5
q87 0 166 -33.5t137 -90.5t92 -136.5t34 -166.5q0 -117 -57.5 -216t-156 -157t-215 -58zM441 918q-78 0 -149.5 -31t-123.5 -82.5t-82.5 -123.5t-30.5 -152q0 -105 52 -194.5t141 -141t193.5 -51.5t194.5 52t143 141.5t53 193.5q0 106 -52 195t-142 141.5t-197 52.5z" />
    <glyph glyph-name="arrow-right" unicode="H" 
d="M1024 453q0 4 -6 4l-320 324q-4 4 -9.5 5.5t-11 0t-9.5 -5.5t-5.5 -10t0 -11.5t5.5 -9.5l284 -284h-929q-10 0 -16.5 -6t-6.5 -15q0 -23 23 -23h929l-280 -278q-7 -6 -7 -15.5t7 -15.5q4 -4 14 -4q2 0 4.5 0.5t4.5 1.5t3 2l318 317q0 1 1 3q3 3 5 4q1 2 1.5 5.5t0.5 5.5
v5z" />
    <glyph glyph-name="shield-check" unicode="I" 
d="M697 609l-229 -225l-109 108q-3 3 -7 4.5t-8 1.5t-8 -1.5t-7 -4.5t-4.5 -7t-1.5 -8t1.5 -8t4.5 -7l123 -120q3 -6 14 -6q8 0 14 6l241 239q6 6 6 14t-6 14q-3 8 -10.5 8t-13.5 -8zM930 581v251q-1 14 -16 20l-398 108h-10l-396 -106q-7 -1 -11.5 -6.5t-4.5 -11.5v-259
q0 -42 0.5 -69.5t7.5 -84t20 -101t39.5 -100t63.5 -101.5l2 -2l6 -6q1 -1 3 -3.5t4.5 -5t4.5 -5.5q2 0 5.5 -4t6.5 -6q1 -3 5.5 -7t6.5 -7l4 -2q1 0 2 -2l6 -6q4 -3 12 -10t12 -11t8 -4l2 -4q2 -3 5.5 -5t6 -4.5l4.5 -4.5q8 -4 12 -8l2 -2q2 -1 8.5 -5t11.5 -5q4 -4 16 -8
q1 -2 4 -4t7 -4.5t6 -3.5q8 -3 16 -8q5 -1 12.5 -5t9.5 -5l6 -4q1 -1 5 -2t5 -2q6 -3 18.5 -7.5t17.5 -6.5l4 -2q8 -4 22 -4q14 1 22 4l6 2q5 3 17 7t17 7q1 1 5 2t5 2l6 4q16 4 22 10q8 5 16 8l17 12q12 4 16 8q3 1 9.5 5t10.5 5l2 2q4 4 12 8q3 3 8.5 7t7.5 7l2 4q4 4 8 4
q2 1 4 3l4 4t4 3.5t4 3.5l4 4t4 3t3.5 2.5t2.5 3.5t2 2l4 2l2 4l1 1l1 1l1 1l1 1l1 1l1 1l1 2l1 1l2 1q2 1 3.5 3t2.5 3.5t2 3.5l4 4q1 3 3 5t5.5 4.5t5.5 4.5l2 2q0 2 2 2q37 46 63 102t38.5 100.5t19.5 101.5t7.5 85t0.5 71zM767 145l-6 -4q-1 -2 -2.5 -4t-3 -3.5
l-4.5 -4.5l-4 -2q-1 0 -2 -2t-2.5 -3.5t-3.5 -2.5l-1 -1h-1v-1l-1 -1l-1 -1l-1 -1h-1l-1 -1v-1l-1 -1l-1 -1l-1 -1l-1 -1l-1 -1l-2 -2v-2q-1 -2 -2.5 -3.5t-1.5 -2.5q-2 -2 -7 -6t-9 -7t-8 -5q-2 -2 -4.5 -3.5t-3.5 -2.5l-6 -2q-3 -2 -8 -5.5t-8 -5.5q-8 -4 -12 -8v-2
q-1 -1 -2.5 -2l-3 -2t-3 -2.5t-3.5 -2.5t-3 -1q-2 -2 -6 -5t-6 -5q-12 -4 -20 -10q-2 -1 -4.5 -2.5t-5.5 -3t-4 -2.5q-4 -1 -7 -2.5t-6.5 -4t-6.5 -3.5l-6 -4q-1 -1 -5 -2t-5 -2q-6 -3 -11 -5t-12.5 -4t-10.5 -3l-4 -2q-7 -2 -20 0h-2q-3 0 -6 1t-6.5 2.5t-6.5 2.5t-6.5 2
t-6.5 2q-2 0 -5.5 2.5t-6.5 3.5l-4 2q-18 9 -22 12q-8 3 -16 8q-15 5 -20 10q-7 4 -11 8q-12 8 -16 12v2q-2 1 -6 4t-6 4q-2 0 -7.5 4t-8.5 5l-6 4q-2 2 -8 4q-4 3 -12 10t-12 10l-2 2l-2 2l-4 6q-1 2 -5 6t-5 6q-5 4 -12 10l-1 1l-1 1l-1 1l-1 1l-1 1l-1 1l-1 1l-1 2l-2 1
l-2 4l-4 2q-30 36 -52 77t-35 83.5t-21 77.5t-11 77.5t-4 64t-1 54.5v244l379 97l379 -103v-238q-1 -29 0.5 -64t-5.5 -82.5t-18.5 -93.5t-36.5 -97.5t-60 -94.5z" />
    <glyph glyph-name="shield-key" unicode="J" 
d="M932 578v252q0 14 -16 20l-400 110h-10l-398 -106q-16 -4 -16 -18v-258q0 -55 2.5 -94t13.5 -108t40.5 -134.5t75.5 -121.5q0 -4 2 -4l6 -4q2 -6 10 -14q2 -4 10 -12q2 -1 6.5 -5.5t7.5 -6.5l2 -4q5 -3 8 -8q3 -2 12 -8.5t14 -11.5q3 -6 8 -6l2 -2q10 -10 16 -14
q2 -4 14 -8q2 -1 5 -3.5t6 -4.5t7 -4q12 -4 16 -8q3 -1 10 -5t10 -5q1 -1 4 -2.5l6 -3t6 -2.5q6 -2 22 -12l4 -2l12 -6q20 -8 34 -12l4 -4q8 -2 20 -2q14 0 22 2l6 4q5 2 17 6t17 6l12 6l4 2q21 10 22 12l16 8q3 1 10 5t10 5q4 4 16 8q2 2 18 14q3 1 7 4t7 4q3 3 8 7t8 7
l2 2q6 6 8 6q4 4 13 11t13 11l8 8l4 4l12 12q4 4 8 10l2 4q2 4 14 12l2 4q0 2 4 2q38 45 65 100t40 99t20 101t8 85t1 71zM768 144l-6 -6l-10 -10v-4q-5 -3 -8 -8q-2 -1 -6 -5t-6 -5l-6 -6q-4 -4 -4 -6l-24 -18q-2 -3 -3.5 -4.5t-2.5 -2t-2 -1.5l-6 -2q-3 -2 -8 -6t-8 -6
q-8 -4 -14 -8q-3 -1 -8 -5t-8 -5t-7 -4t-7 -4q-2 -2 -8 -5.5t-10 -6.5q-12 -4 -14 -8q-13 -3 -22 -10l-4 -2q-4 -4 -8 -4q-26 -9 -34 -10l-4 -2q-2 0 -4.5 -2t-3.5 -2q-6 0 -12 4h-2q-5 1 -16 5t-16 5q-1 1 -3 1.5t-4 1.5t-5 3l-4 2q-4 1 -22 10q-6 4 -14 8l-18 12
q-9 3 -14 8q-3 1 -8.5 5t-9.5 5q-4 4 -12 8q-4 4 -16 12l-6 2q-1 1 -3.5 2.5t-4.5 3.5l-24 18q-4 4 -4 6l-4 6l-10 10q-2 1 -5.5 4.5t-6.5 5.5q-1 2 -5 6t-5 6l-2 2q0 2 -4 2q-35 43 -60 96t-37 95.5t-18.5 97t-7.5 81t-1 68.5v242l380 100l380 -106v-236q12 -274 -120 -434
zM428 686q-17 -10 -10 -28q2 -10 18 -10q6 0 8 2q59 26 114 2q17 -7 26 12q4 8 1 15.5t-11 10.5q-68 30 -146 -4zM690 740l-6 4h-2q-80 45 -172 45t-172 -45h-2q-2 -2 -6 -4q0 -4 -2 -4q-2 -2 -2 -8v-118q0 -57 31 -103.5t81 -66.5v-24q0 -10 8 -22l4 -2l-4 -4q-8 -8 -8 -20
v-26q0 -12 8 -20l4 -4l-4 -2q-8 -12 -8 -22v-128q0 -16 12 -22l38 -36q8 -8 20 -8q10 0 22 8l38 36q10 7 10 22v274q51 20 83.5 66.5t32.5 103.5v118zM536 170l-30 -26l-30 26v122l6 6q8 8 8 21t-8 21l-2 8v16l4 6q9 8 9 21t-9 21l-4 10v8q10 -4 28 -4q20 0 28 4v-260z
M652 610q0 -58 -43 -101t-101 -43t-100 42.5t-42 101.5v108q66 34 142.5 34t143.5 -34v-108z" />
    <glyph glyph-name="chevron-right" unicode="K" 
d="M775 471l-480 482q-7 7 -18 7t-18 -7t-7 -18t7 -18l465 -465l-475 -473q-7 -7 -7 -18t7 -18q4 -7 17 -7q4 0 8.5 2t6.5 5l494 494q13 19 0 34z" />
    <glyph glyph-name="chevron-left" unicode="L" 
d="M775 953q-3 3 -7 4.5t-7.5 2t-7.5 0t-8 -2t-7 -4.5l-489 -494q-7 -7 -7 -18t7 -18l480 -480q4 -4 7.5 -5.5t9.5 -1.5q9 0 16.5 7t7.5 18t-7 18l-463 463l475 477q7 7 7 17t-7 17z" />
    <glyph glyph-name="price-tag" unicode="M" 
d="M931 806q0 -10 -3 -19.5t-8.5 -17t-12.5 -13t-16.5 -8.5t-18.5 -3q-17 0 -31.5 8t-22.5 22t-8 31q0 25 18 42.5t44 17.5q24 0 41.5 -17.5t17.5 -42.5zM1017 954q-3 6 -14 6h-476q-9 -1 -12 -6l-507 -505q-6 -6 -6 -15.5t6 -15.5l476 -476q2 -2 6 -4t8 -2q6 0 13 6
l504 503q4 8 4 14v483q7 5 -2 12zM981 467l-481 -480l-447 446l486 486h446z" />
    <glyph glyph-name="clipboard-check" unicode="N" 
d="M829 806h-208v2l-2 4v36q0 40 -28.5 72.5t-68.5 38.5q-47 6 -82 -26t-35 -79v-40q0 -1 -2 -4t-2 -4h-204q-8 0 -14.5 -6t-6.5 -16v-826q0 -8 6 -15t15 -7h632q19 0 19 22v828q0 4 -1.5 8t-4.5 6.5t-6.5 4t-6.5 1.5zM399 758q21 7 33 23t12 35v40q0 17 9 32.5t23.5 24
t31.5 8.5h8q13 -2 24.5 -8.5t19.5 -16t13 -21t5 -23.5v-38q0 -14 6.5 -26t18 -20t24.5 -10q15 -7 24 -13t17 -18.5t9 -28.5h-330q2 16 7.5 27t15 18t14.5 9.5t15 5.5zM809 -18h-590v786h118q-30 -30 -30 -78q0 -10 9 -19.5t21 -9.5h352q6 0 12.5 4t11 11t4.5 14q0 13 -2 24
t-6 20.5t-10 18t-14 15.5h124v-786zM677 483l-219 -219l-107 104q-6 6 -15 6t-15 -6t-6 -15t6 -15l121 -117q6 -6 12 -6q4 0 8 2t6 4l237 237q13 13 0 29q-3 2 -8 2.5t-10.5 -1t-9.5 -5.5z" />
    <glyph glyph-name="chevron-down" unicode="O" 
d="M516 177q-4 0 -7.5 1.5t-6 3t-3.5 3.5l-492 491q-7 7 -7 17t7 17q7 9 18 9t18 -9l475 -475l463 463q16 16 36 0q5 -5 6.5 -11.5t0 -13.5t-6.5 -11l-487 -477q-1 -3 -2.5 -4.5t-4 -2t-4 -1t-3.5 -0.5z" />
    <glyph glyph-name="wallet" unicode="P" 
d="M618 487q0 -17 -12 -28.5t-30 -11.5q-16 0 -28 11.5t-12 28.5t12 28.5t28 11.5q18 0 30 -11.5t12 -28.5zM978 601h-26v164q0 8 -6 15t-16 7h-116v106q0 22 -22 22h-748q-22 0 -22 -22v-892q0 -8 6 -14t16 -6h888q9 0 15.5 5.5t6.5 14.5v298h28q8 0 14 5.5t6 14.5v262
q-3 20 -24 20zM62 873h712v-90h-712v90zM910 23h-848v722h848v-142h-452q-8 0 -15 -6t-7 -16v-262q0 -8 6 -14t16 -6h456v-276h-4zM960 339h-482v220h482v-220z" />
    <glyph glyph-name="chevron-up" unicode="Q" 
d="M1000 176q-3 0 -17 7l-477 475l-463 -463q-7 -7 -18 -7t-18 7.5t-7 18t7 17.5l480 480q7 9 18 9t18 -9l494 -492q5 -4 6.5 -11t0 -13.5t-6.5 -11.5q-5 -7 -17 -7z" />
    <glyph glyph-name="send" unicode="R" 
d="M363 770q9 0 16 7l125 109v-532q0 -10 7 -17.5t18 -7.5q23 0 23 25v525l107 -104q7 -9 17.5 -9t16.5 9q5 5 6.5 10.5t0 11.5t-6.5 10l-145 148q-10 5 -16 5h-3h-7q-1 -2 -2 -2q-5 0 -5 -3l-168 -143q-15 -14 -3 -35q7 -7 19 -7zM901 699h-268q-6 0 -11 -3t-8.5 -9
t-3.5 -14q0 -5 2 -9t5 -7t7 -5t9 -2h248v-670h-740v673h247q10 0 18 7t8 18t-7 18t-19 7h-268q-9 0 -17 -7.5t-8 -17.5v-717q0 -10 6.5 -17.5t18.5 -7.5h786q4 0 7 1t6 3t5.5 5t3.5 7.5t1 8.5v717q-2 8 -10 14.5t-18 6.5z" />
    <glyph glyph-name="home" unicode="S" 
d="M1015 524l-486 396q-14 10 -24 0l-498 -402q-13 -14 -2 -28q3 -8 16 -8q2 0 14 4l110 90v-582q0 -6 2.5 -11t7.5 -8t12 -3h688q10 0 16 6t6 16v592l116 -94q3 -3 6 -4t6 -1t6.5 0.5t6.5 2t5 4.5q3 19 -8 30zM571 14h-120v352h120v-352zM831 14h-220v372q0 9 -6 15.5
t-16 6.5h-158q-6 0 -11 -2.5t-8 -7.5t-3 -12v-372h-226v594l336 270l316 -256v-608h-4z" />
    <glyph glyph-name="check" unicode="T" 
d="M1008 786q-14 13 -32 13t-31 -13l-577 -577l-288 284q-7 7 -15 10.5t-16.5 3.5t-16.5 -3.5t-15 -10.5q-11 -9 -15 -20t0 -22.5t15 -20.5l320 -324q9 -9 31 -9q18 0 27 9l608 608q14 15 18.5 28t1 24t-14.5 20z" />
    <glyph glyph-name="grid" unicode="V" 
d="M293 951h-175q-48 0 -83 -35.5t-35 -82.5v-179q0 -50 34.5 -84t83.5 -34h175q20 0 38 5.5t32.5 16.5t25 25.5t16.5 32.5t6 38v179q0 47 -34.5 82.5t-83.5 35.5zM324 654q0 -13 -9 -22t-22 -9h-175q-13 0 -21.5 9t-8.5 22v179q0 13 8 19.5t22 6.5h175q14 0 22.5 -6.5
t8.5 -19.5v-179zM906 951h-175q-32 0 -59.5 -16.5t-43 -44t-15.5 -57.5v-179q0 -33 15.5 -60t43 -42.5t59.5 -15.5h175q32 0 59.5 15.5t43 42.5t15.5 60v179q0 47 -35 82.5t-83 35.5zM936 654q0 -7 -2 -12.5t-6 -9.5t-10 -6.5t-12 -2.5h-175q-13 0 -22 9t-9 22v179
q0 13 8.5 19.5t22.5 6.5h175q14 0 22 -6.5t8 -19.5v-179zM293 360h-175q-19 0 -37 -5.5t-32.5 -16.5t-25.5 -25.5t-17 -32.5t-6 -38v-179q0 -47 35 -82.5t83 -35.5h175q32 0 59.5 16.5t43 44t15.5 57.5v179q0 50 -34.5 84t-83.5 34zM324 63q0 -3 -0.5 -6t-2 -5.5t-3 -4.5
t-3.5 -3.5t-4.5 -3t-5 -2.5t-6 -1h-6.5h-175q-6 0 -12 1.5t-10 4.5t-6 8t-2 12v179q0 9 3.5 16t11 11t15.5 4h175q13 0 22 -9t9 -22v-179zM906 360h-175q-20 0 -38 -5.5t-32.5 -16.5t-25 -25.5t-16.5 -32.5t-6 -38v-179q0 -18 5.5 -35.5t16.5 -32.5t25.5 -26.5t33 -17.5
t37.5 -6h175q48 0 83 35.5t35 82.5v179q0 50 -34.5 84t-83.5 34zM936 63q0 -5 -1.5 -9.5t-4 -7.5t-6.5 -5t-8.5 -3t-9.5 -1h-175q-30 1 -31 26v179q0 13 9 22t22 9h175q13 0 21.5 -9t8.5 -22v-179z" />
    <glyph glyph-name="list" unicode="W" 
d="M152 913h-50q-42 0 -72 -30t-30 -73v-49q0 -43 30 -73t72 -30h50q42 0 72 30t30 73v49q0 21 -8 40t-21.5 32.5t-32.5 22t-40 8.5zM201 761q0 -7 -1 -13t-3.5 -11t-5.5 -9.5t-7 -8t-9 -6.5t-11 -4t-12 -1h-50q-7 0 -13.5 1t-11.5 4t-9.5 6.5t-8 8t-5.5 9.5t-3.5 11
t-1.5 13v49q0 24 14 38.5t39 14.5h50q22 0 35.5 -15t13.5 -38v-49zM152 238h-50q-42 0 -72 -30t-30 -73v-49q0 -43 30 -73t72 -30h50q42 0 72 30t30 73v49q0 43 -30 73t-72 30zM201 86q0 -23 -13.5 -36t-35.5 -13h-50q-8 0 -15.5 1.5t-13 4t-10 7t-8 10t-5 12t-1.5 14.5v49
q0 26 14 39.5t39 13.5h50q11 0 20 -3.5t15.5 -10t10 -16.5t3.5 -23v-49zM152 583h-50q-42 0 -72 -30t-30 -73v-53q0 -43 30 -72.5t72 -29.5h50q42 0 72 29.5t30 72.5v53q0 43 -30 73t-72 30zM201 427q0 -23 -13.5 -36t-35.5 -13h-50q-10 0 -18.5 2t-14.5 6.5t-10.5 10.5
t-7 13.5t-2.5 16.5v53q0 23 14 36.5t39 13.5h50q22 0 35.5 -13.5t13.5 -36.5v-53zM406 746h580q15 0 26.5 11t11.5 30q0 9 -2.5 16t-7.5 12t-12 7.5t-16 2.5h-580q-25 0 -35 -23q-3 -7 -3 -15q0 -19 10 -30t28 -11zM986 495h-580q-27 0 -36 -26q-2 -8 -2 -15q0 -20 10 -31
t28 -11h580q15 0 26.5 11.5t11.5 30.5t-11.5 30t-26.5 11zM986 154h-580q-24 0 -35 -25q-3 -8 -3 -17q0 -13 4.5 -22.5t13 -14t20.5 -4.5h580q15 0 26.5 11t11.5 30q0 11 -5.5 21t-14.5 15.5t-18 5.5z" />
    <glyph glyph-name="circle-play" unicode="X" 
d="M427 296l237 152l-237 152v-304zM512 960q-102 0 -195 -40.5t-160 -109t-107 -163.5t-40 -199t40 -199t107 -163.5t160 -109t195 -40.5q68 0 133 18.5t120 51.5t101.5 80.5t79 103.5t50.5 122t18 136q0 104 -40 199t-107 163.5t-160 109t-195 40.5zM512 -23
q-75 0 -145 23.5t-126.5 67.5t-99 101.5t-65.5 129.5t-23 149t23 149t65.5 129.5t99 101.5t126.5 67.5t145 23.5q94 0 179 -37t146.5 -100.5t97.5 -150.5t36 -183t-36 -183t-97.5 -150.5t-146.5 -100.5t-179 -37z" />
    <glyph glyph-name="circle-information" unicode="Y" 
d="M512 960q-102 0 -195 -40.5t-160 -109t-107 -163.5t-40 -199t40 -199t107 -163.5t160 -109t195 -40.5q68 0 133 18.5t120 51.5t101.5 80.5t79 103.5t50.5 122t18 136q0 104 -40 199t-107 163.5t-160 109t-195 40.5zM512 -23q-75 0 -145 23.5t-126.5 67.5t-99 101.5
t-65.5 129.5t-23 149t23 149t65.5 129.5t99 101.5t126.5 67.5t145 23.5q94 0 179 -37t146.5 -100.5t97.5 -150.5t36 -183t-36 -183t-97.5 -150.5t-146.5 -100.5t-179 -37zM490 590h46v-420h-46v420zM512 726q-9 0 -17.5 -3.5t-14 -11t-5.5 -17.5q0 -14 11.5 -24.5
t25.5 -10.5t25.5 10.5t11.5 24.5t-11 23t-26 9z" />
    <glyph glyph-name="image" unicode="Z" 
d="M102 141h822q20 0 20 22q0 12 -8 16l-246 272q-2 6 -16 6q-4 0 -16 -6l-90 -98l-196 186q-9 6 -16 6q-11 0 -14 -8l-256 -364q-10 -7 -2 -22q5 -10 18 -10zM364 495l194 -184q6 -6 14 -6q6 0 12 6l86 94l204 -224h-734zM674 549q38 0 65 26.5t27 63.5q0 39 -27 65.5
t-65 26.5q-39 0 -65.5 -26.5t-26.5 -65.5q0 -38 26.5 -64t65.5 -26zM674 691q22 0 36 -15t14 -37t-15 -36t-35 -14q-22 0 -37 15t-15 35q0 23 15 37.5t37 14.5zM0 857v-818h1024v818h-1024zM984 79h-944v738h944v-738z" />
    <glyph glyph-name="chain, link" unicode="^" 
d="M973 829l-82 82q-52 49 -119 49q-23 0 -44 -5.5t-40.5 -16.5t-34.5 -27l-188 -189q-23 -23 -31.5 -54t0 -61.5t31.5 -54.5l2 -2q9 -9 20 -9t19 9q4 4 6.5 9t2.5 10t-2.5 9.5t-6.5 8.5l-2 4q-12 12 -16.5 29.5t0 34.5t16.5 31l188 186q30 33 80 33q22 0 43 -8.5t37 -24.5
l82 -82q34 -34 34 -80.5t-34 -79.5l-186 -188q-20 -19 -48 -19t-47 19l-4 6q-4 4 -8.5 6t-9.5 2t-10 -2t-9 -6q-9 -9 -9 -20t9 -19l2 -4q18 -16 39.5 -25.5t46.5 -9.5q50 0 84 35l189 188q49 46 49 115.5t-49 120.5zM557 350q-9 9 -20 9t-19 -9q-6 -5 -8 -12t0 -13.5
t8 -11.5l2 -4q19 -19 19 -47t-19 -47l-188 -187q-30 -33 -80 -33q-47 0 -80 33l-82 82q-34 34 -34 81t34 79l186 188q20 19 48 19t47 -19l4 -2q5 -6 11.5 -8t13.5 0t12 8q9 8 9 19t-9 20l-2 2q-35 35 -86 35q-25 0 -47 -9t-37 -26l-189 -188q-49 -49 -49 -120t49 -120
l82 -82q51 -51 119 -51q74 0 119 51l188 187q35 35 35 85.5t-35 86.5zM311 249q6 -8 19 -8q12 0 20 8l367 367q7 8 7 19t-7 20q-9 8 -20 8t-19 -8l-367 -367q-9 -9 -9 -21t9 -18z" />
    <glyph glyph-name="tow-truck" unicode="_" 
d="M1011 552q-7 4 -14.5 4.5t-14 -3t-10.5 -10.5q-9 -16 -26.5 -21t-34.5 -1q-14 6 -23.5 14.5t-9.5 22.5q0 36 41 49q10 2 16.5 10t6.5 19v177q0 7 -4 13t-11 11q-6 5 -13 5t-14 -5l-516 -329v163q0 7 -3 13t-8.5 10t-12.5 6q-32 3 -64.5 4t-68.5 -1t-63 -12t-37 -26
q-24 -37 -86 -210q-12 -8 -21.5 -20t-14.5 -26t-5 -28v-212q0 -4 1 -7.5t2.5 -6.5t4 -5.5t5 -4t6.5 -2.5t8 -1h53q7 -26 25 -46t42.5 -31t51.5 -11q21 0 40 7t34.5 19t27.5 28t18 34h160q7 -26 24.5 -46t42.5 -31t52 -11q42 0 75.5 26t44.5 64q32 7 53 31.5t21 57.5v142
q0 37 -27 63.5t-64 26.5h-275l462 298v-109q-66 -30 -66 -96q0 -31 19 -54.5t53 -34.5q22 -5 44 -4.5t44.5 13t37.5 35.5q4 7 4 14.5t-3 13.5t-10 11zM175 636q8 8 54 11.5t100 -1.5v-177h-224q61 151 70 167zM199 110q-18 0 -32.5 8t-23.5 21.5t-11 29.5v8v9v6q0 1 2 4l2 4
q0 2 2 6q0 2 2 4q0 3 2 4.5l2 1.5q0 3 4 7l4 6q2 2 6 2q2 2 4 6q1 1 5 2q0 1 2 2q4 3 6 4q17 4 24 4q19 0 39 -10q29 -22 29 -57v-5v-2q-1 -28 -21 -46.5t-47 -18.5zM598 110q-27 0 -45.5 17t-22.5 42v8v9v6q1 2 5 6q0 2 2 4q0 2 1 3.5t1 2.5t2 2.5t2 3.5q0 1 1 2.5t1 4.5
l6 4q2 0 6 4l1 1l1 1l1 1l1 1q4 0 4 4q3 1 9 4q12 6 24 6q36 0 58 -31q10 -12 10 -39v-4q-1 -11 -5.5 -20.5t-11 -17.5t-14.5 -13.5t-17.5 -8.5t-19.5 -3zM736 377v-140q0 -3 -0.5 -5.5l-1 -5t-1.5 -4.5l-2 -4t-2.5 -4t-3 -3.5t-3 -2.5t-2.5 -2q-6 21 -7 23q0 2 -2 4
q-1 3 -4 7t-4 7q-1 1 -1.5 2.5t-1.5 3.5t-3 3q-1 0 -2 3q-4 5 -6 7q-2 4 -4 6q-2 1 -5.5 4t-7.5 4q-1 3 -4 4.5t-4 1.5q-6 7 -10 7q-2 0 -3.5 0.5l-3 1l-1.5 0.5q-2 0 -4.5 1t-3.5 1t-3 1t-4 3q-1 0 -2.5 0.5l-3 1t-2.5 0.5q-3 0 -10.5 1t-12.5 1h-2h-4h-5.5t-4.5 -0.5
t-5 -0.5t-5 -1q-3 0 -5.5 -1t-3.5 -1q-3 0 -7.5 -3t-6.5 -3q-1 0 -2.5 -0.5l-3 -1t-2.5 -0.5q-2 -2 -3.5 -3t-3 -1.5l-3 -1t-3.5 -1.5l-2 -2q-4 -2 -6 -4q-8 -7 -10 -8q-6 -6 -6 -8q-1 -1 -2 -3t-3 -4t-3 -4l-5 -8q-6 -6 -6 -12q0 -1 -1 -3q-1 -4 -1 -5q-2 -2 -3 -4t-2 -5.5
t-1 -5.5q0 -1 -2 -2q-2 -4 -2 -6v-2h-152v2q0 2 -0.5 3.5t-1 2.5t-0.5 2q0 9 -6 15q0 2 -1.5 4.5t-1.5 3.5l-6 12l-4 8q-2 1 -3.5 3.5t-2.5 4.5t-2 3l-6 6q-1 1 -2.5 2l-4.5 3t-6 3q0 1 -2.5 2.5t-5.5 3.5q-4 4 -10 4q-2 5 -8 5q-3 1 -7.5 2t-7.5 2l-2 1l-6 3q-1 0 -5 0.5
t-9 1t-8 0.5h-3h-2q-14 0 -22 -2q-1 0 -4 -2l-4 -2q-3 0 -4.5 -0.5l-3 -1t-3.5 -1.5t-4 -1q-1 0 -4 -3l-4 -2q-1 -1 -5 -2t-5 -2q-3 -2 -5 -3t-4 -1.5t-4 -1.5q-3 -6 -10 -8l-6 -6q-1 -1 -3.5 -4.5t-4.5 -6.5q-1 -1 -1.5 -3t-1.5 -3t-1 -2q-7 -6 -7 -12v-3q-1 -4 -2 -5
q-2 -2 -2.5 -4t-1.5 -5.5t-2 -5.5q0 -1 -1 -2q-3 -4 -3 -6v-2h-21v177q0 4 1 7.5t2.5 7t3.5 6.5t4 5.5t5 4.5t6 3t6.5 2t6.5 1h611q15 -4 25 -13.5t10 -23.5z" />
    <glyph glyph-name="logo" unicode="a" 
d="M669 448v28q-2 220 -40 442q-3 23 -9.5 28.5t-31.5 7.5l-44 6h-30h-27q-22 0 -47 -6q-25 -3 -30 -8.5t-11 -27.5q-7 -31 -13.5 -73.5t-13.5 -99t-11.5 -127.5t-5.5 -142v-28v-28q2 -220 40 -442q4 -27 15 -32q8 -2 26 -4q1 0 42 -6h34h34q10 0 19.5 1.5t22.5 4.5
q31 4 36 15q3 6 5 21q40 236 40 442v28zM540 937q2 -9 6 -34l4 -5h11h3q5 -1 7.5 -2t6 -2t5 -3t3.5 -5t3.5 -7t3.5 -10q0 -3 4 -27t9.5 -59t11 -79.5t10 -102.5t5.5 -115v-4q1 -5 4 -6t6.5 -2t5.5 -1.5t3 -1.5q1 0 2.5 -2.5t4.5 -3.5q-15 0 -37.5 1.5t-35.5 4.5
q-21 1 -31 5.5t-12.5 12.5t-2.5 25q0 217 -9 435q4 -2 6 -5t2 -5zM429 869q5 18 10 22t22 7h11q2 0 2 5q1 1 1.5 3l1 4t1 3.5t0.5 4.5t0.5 5t1 6.5t0.5 7.5q0 8 9 8q-5 -319 -5 -431q0 -18 -2.5 -26t-12.5 -12.5t-31 -4.5q-22 0 -69 -6h-4q0 4 2 5t5 1q2 1 4.5 1.5t5 1.5
t5.5 2t4 6v4q0 70 5.5 142.5t12.5 117.5t13.5 83.5t6.5 39.5zM484 -41q-1 6 -2 11l-1.5 7.5t-1 7.5t-1.5 8q-1 4 -4 5h-11l-12.5 2.5t-7.5 3.5t-7 8.5t-5 14.5q0 1 -6.5 39.5t-13 84t-13 119t-7.5 144.5v2q0 7 -4 7q-2 0 -6 1q-3 1 -4 1t-3 1t-2 3q-1 0 -2.5 1.5t-4.5 2.5
q12 -1 37.5 -2t35.5 -2q16 -2 25 -4.5t14 -8t6 -12.5t1 -20q0 -221 9 -433q-8 0 -9 8zM595 27q-5 -18 -10 -22t-22 -7h-11q-2 0 -2 -5q-3 -6 -6 -34l-2 -6l-7 -2q5 159 5 431q0 26 8 34.5t38 8.5q9 0 73 6q-2 -6 -7 -6q-3 -1 -7 -2.5t-8 -2.5q-4 0 -4 -6v-4
q0 -70 -5.5 -142.5t-12.5 -117.5t-13.5 -83.5t-6.5 -39.5v0z" />
    <glyph glyph-name="park" unicode="b" 
d="M512 960q-104 0 -198.5 -40.5t-163.5 -109.5t-109.5 -163.5t-40.5 -198.5t40.5 -198.5t109.5 -163.5t163.5 -109.5t198.5 -40.5t198.5 40.5t163.5 109.5t109.5 163.5t40.5 198.5t-40.5 198.5t-109.5 163.5t-163.5 109.5t-198.5 40.5zM512 -24q-95 0 -182.5 38t-150.5 101
t-101 150.5t-38 182.5t38 182.5t101 150.5t150.5 101t182.5 38q127 0 235.5 -63t172.5 -171.5t64 -237.5t-64 -237.5t-172.5 -171.5t-235.5 -63zM560 742h-234v-634h40v270h194q83 0 136.5 51.5t53.5 132.5q0 72 -49.5 126t-140.5 54zM366 706h190q66 0 108 -40t42 -104
q0 -66 -42 -106t-108 -40h-190v290z" />
    <glyph glyph-name="diamond" unicode="c" 
d="M1024 641v4v4l-2 8v2l-1 1l-3 5l-236 263l-4 2l-2 2h-2h-4h-1h-512h-1h-4h-2l-2 -2q-1 -1 -4 -2l-240 -269q0 -2 -2 -6v-2q0 -1 -1 -4t-1 -4v-2v-6q0 -2 2 -2v-4l493 -661l2 -4h2h4h2h6h4h4h2h2l4 4l491 661l6 12v0zM250 874l55 -207h-241zM345 667l-62 229h460l-62 -229
h-336zM669 627l-156 -565l-156 565h312zM317 627l148 -543l-407 543h259zM709 627h255l-403 -543zM721 667l55 207l184 -207h-239z" />
    <glyph glyph-name="person-doorman" unicode="d" 
d="M706 362q-1 0 -2.5 1t-3.5 1q-34 18 -82 32q60 32 96 88.5t36 125.5v110q0 22 -4 32q0 2 2 4.5t2 3.5v178q0 22 -22 22h-434q-22 0 -22 -22v-178q0 -4 2 -8q-2 -10 -2 -32v-110q0 -70 36.5 -127.5t95.5 -86.5q-139 -38 -228.5 -160.5t-89.5 -281.5q0 -7 7 -12.5t15 -5.5
t15 6t7 16q0 171 112.5 294.5t271.5 123.5q90 0 162 -42v-376q0 -22 22 -22t22 22v350q82 -55 131 -149t49 -205q0 -8 6 -14t16 -6q22 0 22 20q-6 133 -70 242t-168 166zM312 920h396v-138h-396v138zM312 610v110q0 14 4 20h392q0 -3 2 -10t2 -10v-110q0 -81 -59 -139.5
t-141 -58.5t-141 58.5t-59 139.5zM628 218q0 -16 -12 -28t-28 -12t-28 12t-12 28q0 18 11.5 30t28.5 12t28.5 -12t11.5 -30zM628 70q0 -16 -12 -28t-28 -12t-28 12t-12 28q0 18 11.5 30t28.5 12t28.5 -12t11.5 -30z" />
    <glyph glyph-name="car" unicode="e" 
d="M992 473l-15 27q11 4 19.5 9.5t14.5 13t9.5 16t3.5 16.5q0 13 -6.5 25t-18 21t-27 14t-33.5 5h-3.5h-3.5h-3.5h-4t-4 -0.5t-3.5 -1t-3.5 -1t-3.5 -1.5l-61 136q-8 19 -21.5 33t-31.5 21.5t-40 8.5h-490q-31 -1 -55 -18t-36 -45l-61 -138q-3 1 -9 2.5t-11 2.5t-9 1
q-36 0 -60.5 -18.5t-24.5 -46.5q0 -6 1.5 -11.5t4 -11t7 -10t9.5 -9t11.5 -7.5t13.5 -6l-14 -21q-1 -2 -3 -5q-1 -2 -2 -3t-2 -2.5t-1.5 -3t-0.5 -2.5q-11 -23 -8 -47l29 -304q0 -12 9 -20.5t21 -8.5h81q13 0 21 8.5t8 20.5v53l207 -9q22 0 29 -4q20 0 30 -2q62 -3 120 0
q10 0 30 1t31 1l207 11v-53q0 -8 3.5 -14.5t10.5 -10.5t15 -4h81q12 0 21 8t9 17l29 304q3 25 -8 47q-2 10 -8 16zM926 502l35 -53l2 -2v-2q3 -4 4 -9.5t1.5 -9t0.5 -9.5l-30 -293h-61v41q0 17 -11 27.5t-28 10.5l-211 -10q-18 -4 -57 -4q-62 -3 -118 0q-20 0 -28 4
q-19 0 -29 2l-207 10h-6q-15 0 -26 -11t-11 -27v-41h-63l-30 291q0 8 0.5 11.5t1.5 8t4 8.5v2l2 2l2 4l32 47q9 9 0 22q-2 3 -7 6.5t-9 3.5q-17 0 -29.5 7.5t-12.5 15.5q0 5 3.5 9t9 7.5t14.5 5.5t19 2q9 0 17.5 -2t13.5 -6q8 -3 16 0q10 7 10 12l69 153q16 31 57 38h490
q5 0 10 -1t9.5 -3t9 -4.5t8.5 -6t7.5 -7.5t6 -9t4.5 -10l67 -150q1 -3 10 -12q5 -1 9 -1t7 1q10 8 29 8q18 0 32 -7.5t14 -16.5q0 -5 -5.5 -10t-15 -8.5t-21.5 -4.5q-8 0 -17 -10q0 -14 6 -20zM756 553q-230 -18 -480 0h-2q-6 0 -11 -2t-8 -7t-3 -10q0 -8 5.5 -14t12.5 -6
l13.5 -1t36.5 -2t52.5 -2t69.5 -2t80 -1q59 0 119.5 2t120.5 6q5 0 9 3t6.5 7.5t2.5 9.5q0 8 -8 13.5t-16 5.5z" />
    <glyph glyph-name="envelope, mail" unicode="f" 
d="M1002 817h-980q-9 0 -15.5 -5.5t-6.5 -14.5v-698q0 -8 6 -14t16 -6h980q9 0 15.5 5.5t6.5 14.5v698q0 9 -6.5 14.5t-15.5 5.5zM960 779l-448 -444l-444 444h892zM40 121v622l456 -454q3 -6 14 -6q9 0 12 6l458 454v-624h-940v2z" />
    <glyph glyph-name="person" unicode="g" 
d="M615 397q60 32 96 88.5t36 125.5v111q0 99 -70.5 168.5t-169.5 69.5q-65 0 -120 -32t-86.5 -87t-31.5 -119v-111q0 -34 9.5 -67.5t27 -61t42 -49.5t53.5 -36q-140 -38 -229.5 -161t-89.5 -282q0 -7 7 -12.5t15 -5.5q2 0 4 0.5l4 1t3.5 1.5t3.5 2.5t3 3.5l2 4t1.5 4t0.5 5
q0 113 51.5 209.5t140.5 153t193 56.5q106 0 195 -56t140.5 -152.5t51.5 -210.5q0 -9 6 -15.5t16 -6.5t16 6t6 16q-6 157 -97.5 279t-229.5 160zM507 413q-81 0 -139.5 58.5t-58.5 139.5v111q0 26 7 51.5t20 47t31.5 39.5t40.5 31t48 20t53 7q32 0 62 -10t54 -28t42.5 -42.5
t28 -54.5t9.5 -61v-111q4 -88 -64 -148q-57 -50 -134 -50z" />
    <glyph glyph-name="map-marker" unicode="h" 
d="M510 960q-140 0 -238 -98t-98 -238q0 -66 28 -138l292 -540q5 -10 18 -10q5 0 20 10l290 542q28 62 28 136q-3 140 -102 238t-238 98zM782 504l-272 -506l-272 506q-24 57 -24 120q0 123 86.5 209.5t209.5 86.5t209.5 -86.5t86.5 -209.5q0 -63 -24 -120zM510 818
q-81 0 -137.5 -57t-56.5 -137q0 -81 56.5 -137.5t137.5 -56.5t137.5 56.5t56.5 137.5q0 80 -57 137t-137 57zM510 470q-63 0 -108.5 45.5t-45.5 108.5q0 62 45.5 107t108.5 45t108.5 -45t45.5 -107q0 -63 -45.5 -108.5t-108.5 -45.5z" />
    <glyph glyph-name="key" unicode="i" 
d="M368 754q-58 -23 -103.5 -71t-68.5 -109q-2 -16 10 -26h8q7 0 13 4t8 10q9 26 24 50t34 44t42 36.5t49 27.5q8 3 11.5 11t-1.5 15q-2 4 -6 7t-9.5 3t-10.5 -2zM1013 99l-352 350q31 64 31 134q0 25 -4 49.5t-11.5 47.5t-18.5 45t-26 42t-33 38l-150 150l-8 4h-2h-8h-2
q-151 -38 -273 -154q-115 -112 -156 -273v-4v-8v-2q0 -5 6 -8l150 -150q3 -3 7.5 -7l9 -8t7.5 -7l2 -2q2 -2 5.5 -4.5t5.5 -4.5t5 -4t6 -3q79 -53 172 -53q68 0 128 28l38 -38q6 -6 13 -9t15 -3h21v-16q0 -5 1.5 -10.5t4.5 -10t6 -6.5l30 -30q6 -6 12 -8t14 -2h23v-22
q0 -14 10 -29l164 -164q5 -5 11.5 -7.5t16.5 -2.5h2l93 6q10 0 18 5t13 14t7 20l5 91q3 2 2 7t-3.5 9t-7.5 10zM528 358q-26 -18 -56 -29t-61 -14.5t-61.5 0t-60.5 14.5t-56 29q-5 1 -8.5 3t-7 5t-5.5 4l-2 4q-10 5 -20 18l-141 142q41 136 141 243q98 100 243 141l139 -143
q39 -39 59 -88.5t20 -103.5q0 -28 -5 -54t-14.5 -50.5t-24.5 -46.5t-35 -40q-14 -14 -22 -18l-2 -4q-1 -1 -3.5 -2.5t-4 -3t-3.5 -2.5t-4.5 -2t-4.5 -2zM981 -22l-89 -4l-164 161v23q0 11 -6 20t-15 14.5t-19 5.5h-22l-29 31v22q0 11 -5.5 20t-14.5 14.5t-20 5.5h-23l-30 31
q3 0 4 1t2 1q20 15 22 16l2 4q3 1 6.5 4t6 5.5l6.5 6.5l6 6q18 16 42 49l213 -213l129 -131z" />
    <glyph glyph-name="person-bow-tie, person-concierge, concierge" unicode="j" 
d="M576 45h-123q-16 0 -19 15q-1 3 -1 5v98q0 8 6 15t14 7h123q8 0 15 -6t7 -16v-98q-7 -20 -22 -20zM473 85h81v56h-81v-56zM522 266h-19q-118 0 -202.5 85t-84.5 203v116q0 122 87 208q85 82 202 82h19q118 0 202.5 -85t84.5 -203v-118q0 -78 -38.5 -144t-105.5 -105
t-145 -39zM505 920q-101 0 -174 -72.5t-73 -175.5v-118q0 -50 20 -96t53 -79t79 -53t95 -20h19q102 0 174.5 73t72.5 175v116q0 102 -72.5 174t-174.5 72h-19v4zM801 -64h-3.5t-3.5 0.5t-5 1.5l-227 123q-7 3 -9.5 11.5t1.5 14.5q9 18 28 8l197 -105v246l-197 -105
q-6 -3 -11.5 -3t-9.5 2.5t-7 8.5q-4 8 -1.5 15.5t9.5 10.5l227 123q10 3 20 0q3 -1 5.5 -4t3.5 -6.5t1 -5.5v-316q0 -11 -10 -16q0 -4 -8 -4zM224 -64q-8 0 -12 2q-10 5 -10 16v318q0 7 2 11t8 5q10 3 20 0l227 -123q8 -3 10.5 -11.5t-2.5 -14.5t-12.5 -9t-13.5 1l-199 105
v-246l199 105q17 8 26 -8q5 -8 2.5 -15.5t-10.5 -10.5l-227 -123q-1 -2 -8 -2zM23 29q-14 0 -17 8q-4 6 -2 13.5t9 12.5q84 57 205 94q9 3 15.5 -1t8.5 -13q3 -7 -0.5 -14t-11.5 -10q-114 -33 -195 -88q-4 -2 -12 -2zM1002 29q-10 0 -12 2q-73 49 -195 88q-7 3 -11 10t-3 14
q7 21 26 14q124 -39 205 -94q6 -5 8 -12.5t-2 -13.5q-5 -8 -16 -8z" />
    <glyph glyph-name="lock" unicode="k" 
d="M903 -64h-782q-8 0 -15 6t-7 16v673q0 5 2.5 9.5t7.5 7.5t12 3h782q8 0 15 -6t7 -14v-673q0 -7 -3.5 -12t-8.5 -7.5t-10 -2.5zM143 -24h742v633h-742v-633zM500 98q-8 0 -15 6t-7 16v155q0 9 6 15.5t16 6.5q22 0 22 -22v-155q0 -10 -6 -16t-16 -6zM544 301q0 -11 -6 -21
t-16 -15.5t-22 -5.5q-18 0 -31 12.5t-13 29.5q0 12 6 22t16 16t22 6q18 0 31 -13t13 -31zM740 625h-40v117q0 74 -58.5 126t-139.5 52q-83 0 -140.5 -51.5t-57.5 -126.5v-115h-42v115q0 89 70.5 153.5t167.5 64.5q32 0 63 -7.5t57.5 -21.5t48.5 -34t37.5 -44t24.5 -52.5
t9 -58.5v-117z" />
    <glyph glyph-name="unlock" unicode="l" 
d="M482 268v-143q0 -5 1.5 -9t4 -6.5t6.5 -4.5t8 -2q22 0 22 22v147q10 6 16 16t6 22q0 9 -3.5 16.5t-9.5 13t-14 9t-17 3.5q-18 0 -30 -12t-12 -30q-2 -14 4 -24.5t18 -17.5zM902 652h-597v93q0 73 57.5 125t139.5 52q64 0 123 -38q29 -21 44 -41q5 -7 12.5 -8.5t13.5 2.5
q4 3 6.5 7.5t2.5 9.5t-3 9q-11 15 -24.5 28t-29.5 23q-60 46 -147 46q-98 0 -167.5 -63.5t-69.5 -153.5v-93h-141q-5 0 -10 -2.5t-8.5 -7.5t-3.5 -12v-670q0 -8 6 -15t16 -7h780q8 0 15 6t7 16v670q0 11 -7 17.5t-15 6.5zM884 -18h-740v630h740v-630z" />
    <glyph glyph-name="triangle-caution, caution" unicode="m" 
d="M1023 25l-493 865q-6 11 -17 11t-17 -11l-494 -865q-4 -10 0 -20q6 -10 16 -10h985q13 0 16 10q8 8 4 20zM54 35l458 803l459 -805h-917v2zM490 602v-292q0 -8 6 -14t16 -6q22 0 22 20v292q0 8 -6 15t-16 7t-16 -7t-6 -15zM512 235q-8 0 -15 -6t-7 -16v-38q0 -8 6 -15
t16 -7q22 0 22 22v38q-3 11 -8.5 16.5t-13.5 5.5z" />
    <glyph glyph-name="circle-check" unicode="n" 
d="M1018 838q6 6 6 15t-6 15q-13 13 -30 0l-88 -88q-70 84 -171.5 132t-216.5 48q-104 0 -198.5 -40.5t-163.5 -109.5t-109.5 -163.5t-40.5 -198.5t40.5 -198.5t109.5 -163.5t163.5 -109.5t198.5 -40.5t198.5 40.5t163.5 109.5t109.5 163.5t40.5 198.5q0 167 -98 300z
M984 448q0 -95 -38 -182.5t-101 -150.5t-150.5 -101t-182.5 -38t-182.5 38t-150.5 101t-101 150.5t-38 182.5q0 127 63 235.5t171.5 172.5t237.5 64q107 0 200.5 -45t161.5 -125l-380 -380l-190 188q-6 6 -15 6t-15 -6t-6 -15t6 -15l202 -202q8 -4 14 -4q10 0 14 4l394 394
q86 -124 86 -272z" />
    <glyph glyph-name="business" unicode="o" 
d="M1002 84h-53v557q0 4 -1.5 7.5t-4 7t-6 5.5t-8.5 2h-155v171q0 6 -2.5 11t-7 8t-10.5 3h-480q-9 0 -15.5 -6.5t-6.5 -15.5v-175h-157q-5 0 -9.5 -2.5t-7.5 -7t-3 -10.5v-555h-53q-10 0 -16 -6t-6 -16q0 -22 22 -22h980q5 0 9 1.5t7 4.5t4.5 7t1.5 9q0 7 -3 12t-8 7.5
t-11 2.5zM908 84h-134v535h134v-535zM291 816h444v-730h-148v332q0 9 -6 15.5t-16 6.5h-112q-5 0 -9.5 -3t-7.5 -8t-3 -11v-332h-144v730h2zM547 84h-72v313h72v-313zM116 619h136v-535h-136v535z" />
    <glyph glyph-name="phone" unicode="p" 
d="M1023 166q-3 15 -26 41t-56 52.5t-67.5 50t-65 39t-44.5 15.5q-5 0 -11 -2t-10.5 -4t-11 -7t-10 -8t-10.5 -10.5t-10.5 -11.5t-11.5 -13t-11 -12q-2 -3 -5 -6.5t-6 -6.5t-6 -7t-5.5 -7t-5.5 -6l-5.5 -5.5t-5.5 -4.5t-5 -3l-314 320q4 11 46 44q20 16 33 27.5t23 27.5
t10 31q0 18 -23 59.5t-54 84t-65 77t-54 38.5h-12q-30 0 -75.5 -28.5t-85.5 -75t-49 -91.5q-5 -9 -8 -20.5t-5 -40t2.5 -59.5t21.5 -78.5t46 -98t81 -117.5t122 -136q276 -277 488 -277q30 0 70 10q31 7 62 27t55 44t42 52q41 61 32 96zM957 94q-27 -39 -63.5 -70t-73.5 -36
l-4 -2q-20 -8 -54 -8q-33 0 -72 9.5t-96.5 35t-133 82.5t-156.5 139q-70 69 -121.5 134t-78.5 113.5t-42.5 92t-18.5 72t-1.5 51t5 31.5t5.5 10l4 6q11 56 74 110t98 54q23 -5 92.5 -98.5t71.5 -119.5q0 -3 -3 -7.5t-10.5 -11.5t-12 -11t-15 -13.5t-11.5 -10.5l-18 -15
t-16 -14.5t-14 -16t-8.5 -14.5t-4 -16t4.5 -16l334 -334l6 -2q2 -2 4 -2.5l4 -1t3.5 -0.5h4.5q12 0 26 10t22.5 19t27.5 33q42 52 54 52q16 0 68.5 -34t99.5 -74t51 -54q-13 -45 -32 -72z" />
    <glyph glyph-name="location-arrow" unicode="q" 
d="M696 -63q-13 0 -20 14l-180 482l-482 178q-14 10 -14 22q0 14 14 18l984 308q14 3 20 -6q6 -2 6 -18l-310 -984q-4 -14 -18 -14zM84 629l436 -162q10 -4 10 -10l162 -436l280 888z" />
    <glyph glyph-name="calendar" unicode="r" 
d="M783 856v84q0 8 -5.5 14t-13.5 6q-22 0 -22 -20v-84h-466v84q0 5 -2.5 9.5t-7.5 7.5t-11 3t-9.5 -1.5t-5.5 -4.5t-2.5 -6.5t-0.5 -7.5v-84h-182v-756q0 -69 48 -116.5t116 -47.5h586q69 0 116.5 47.5t47.5 116.5v756h-186zM237 816v-78q0 -9 5 -15.5t13 -6.5q5 0 10 2.5
t8 8t3 11.5v78h472v-82q0 -8 5.5 -15t14.5 -7q21 0 21 22v82h144v-211h-834v211h138zM805 -24h-586q-50 0 -86 37t-36 87v465h832v-461q-1 -53 -37 -90.5t-87 -37.5z" />
    <glyph glyph-name="x" unicode="t" 
d="M552 447l465 467q7 7 7 17t-7 17q-4 4 -8.5 6.5t-9.5 2.5t-10 -2.5t-8 -6.5l-465 -467l-473 472q-7 7 -18 7t-18 -7t-7 -18t7 -18l475 -470l-465 -468q-7 -7 -7 -18t7 -18q3 -7 17 -7q4 0 8.5 2t5.5 5l468 468l462 -461q2 -3 6.5 -5t8.5 -2q13 0 17 7q4 5 6 11t0 12
t-6 11z" />
    <glyph glyph-name="arrow-curve-down-left" unicode="u" 
d="M640 -19h-186q95 100 144.5 229t48.5 259t-53 258t-150 227q-7 6 -16 6t-15 -6t-6 -15.5t6 -15.5q94 -95 143 -217.5t49 -246t-49 -246t-143 -216.5l-2 -2v209q0 8 -6.5 15t-16.5 7t-16 -6t-6 -16v-246q0 -8 6 -15t16 -7h248q9 0 15.5 6t6.5 16.5t-5 16.5t-13 6z" />
    <glyph glyph-name="bell" unicode="v" 
d="M64 228q32 0 49 20q20 24 20 60q0 77 30 148t80.5 122t120 81.5t145.5 30.5t145.5 -30.5t120 -81.5t80.5 -122t30 -148q0 -42 20 -62q8 -8 21 -15t30 -7q9 0 15.5 6t6.5 16q0 20 -22 20q-6 0 -11 2t-10 6q-10 10 -10 34q0 111 -53.5 206.5t-144.5 152.5t-200 62v34
q19 3 31.5 11t12.5 17q0 14 -18 24t-44 10q-27 0 -44.5 -9.5t-17.5 -24.5q0 -9 12.5 -17t31.5 -11v-34q-110 -5 -201 -62t-144 -152.5t-53 -206.5v-8t-2.5 -11t-6.5 -11q-8 -8 -20 -8q-8 0 -14 -6t-6 -16q0 -7 2.5 -11.5t7 -6.5t10.5 -2zM1000 200h-982q-7 0 -12.5 -7
t-5.5 -14v-86q0 -9 6 -15.5t16 -6.5h980q2 0 4 0.5l4 1t3.5 2t3 2.5t3 3t2.5 4t1.5 4.5t0.5 4.5v86q-13 21 -24 21zM978 111h-938v46h940v-46h-2z" />
    <glyph glyph-name="arrow-curve-up-right" unicode="w" 
d="M637 960h-250q-3 0 -5 -0.5t-4 -1.5t-4 -2.5t-3.5 -3.5t-2.5 -4t-1.5 -5t-0.5 -6q0 -4 2 -7.5t4.5 -6t6.5 -3.5t8 -1h187q-97 -101 -146.5 -230.5t-48.5 -260.5t53.5 -260t151.5 -228q4 -4 14 -4q7 0 15 4q6 6 6 15.5t-6 15.5q-96 95 -145.5 218.5t-49.5 248t49.5 247.5
t145.5 217l2 2v-209q0 -6 2.5 -11t8 -8.5t11.5 -3.5q10 0 15.5 6t5.5 17v246q-2 8 -7.5 13.5t-13.5 5.5z" />
    <glyph glyph-name="bell-service" unicode="y" 
d="M1005 941q-22 19 -54 19q-58 0 -105 -44q-24 -25 -60 -67.5t-57 -69l-63 -79.5q-67 -83 -80 -96q-125 -72 -129 -75l-3 -7q-20 -18 -29.5 -35.5t-9.5 -33.5q-10 0 -23.5 1t-16.5 1q-29 7 -67 -16l-2 -3q-122 -94 -151 -94h-10q-22 1 -42.5 2t-47.5 -8t-49 -29
q-6 -5 -6 -17q1 -30 31.5 -79t71.5 -97q-25 -39 4 -71q16 -14 35 -15.5t36 11.5q121 -103 176 -103q2 0 3.5 0.5t3.5 1t3.5 2t1.5 2.5q22 22 31.5 49t8 47.5t-1.5 41.5v11q0 29 92 151l5 2q22 36 16 67q-4 8 -4 40q11 1 21.5 5t16.5 7t15 10.5t10.5 9l7.5 7.5l2 3
q20 19 78 129q55 48 96 80q13 11 42.5 34.5t48 39t43.5 36t44.5 38t35.5 32.5q20 19 32.5 42.5t16 45t-1 40.5t-16.5 31zM469 267l-4 -4q-101 -136 -101 -176v-13q4 -17 1 -46.5t-19 -49.5q-20 6 -52.5 26t-67 47t-58.5 53q-39 37 -77.5 92t-48.5 86q20 16 49.5 19t46.5 -1
h13q40 0 176 101l4 4q21 11 33 11q7 -1 19 -1.5t20 -1t20 -0.5q8 -16 23 -31q11 -10 27 -19v-7.5v-7.5t0.5 -8.5t0.5 -8t0.5 -8.5t0.5 -7.5t1 -7t1 -6.5q3 -13 -8 -35zM949 811q-18 -17 -46.5 -42t-51 -43.5t-60.5 -49t-54 -43.5q-93 -72 -102 -83q-3 -5 -3 -7
q-4 -8 -12.5 -23t-14 -23.5t-12.5 -21t-11.5 -20l-9 -15t-7 -12t-4.5 -6.5l-4 -6q0 -1 -3 -3.5t-4 -3.5l-3.5 -3.5t-4.5 -4t-5 -3.5t-5.5 -3t-5.5 -2.5t-6.5 -2t-6.5 -0.5h-8h-2q-9 3 -26 15q-8 10 -12.5 18.5t-5.5 16t0 13.5t5.5 12t8.5 11t11 11q1 1 1.5 2t2.5 4
q12 12 121 69q3 0 5 3q1 1 2 1q7 8 18 21t31.5 38.5t33.5 41.5q4 4 11 13q118 149 167 198q8 8 16 13.5t16 9.5t16 6.5t15.5 3.5t14.5 1q9 0 15 -1.5l10 -2.5q3 -7 3.5 -21t-9 -36.5t-25.5 -39.5z" />
    <glyph glyph-name="download" unicode="z" 
d="M499 120q4 0 4 -2l2 -2q1 -1 1 -2q1 0 4 -1t4 -1q6 0 8 2q2 0 2 4q5 0 5 2l349 302q13 13 2 31q-11 12 -31 2l-312 -270v754q0 5 -2.5 10t-8 8t-12.5 3t-12.5 -2.5t-8 -7.5t-2.5 -11v-756l-312 272q-7 6 -16 5.5t-16 -7.5q-3 -3 -4 -7t-0.5 -8.5t2 -8.5t5.5 -7zM857 -18
h-697q-8 0 -14.5 -6t-6.5 -17q0 -23 21 -23h702q8 0 14.5 6.5t6.5 16.5q0 11 -7 17t-19 6z" />
  </font>
</defs>
</svg>
