<?xml version="1.0" standalone="no"?>
<!DOCTYPE svg PUBLIC "-//W3C//DTD SVG 1.1//EN" "http://www.w3.org/Graphics/SVG/1.1/DTD/svg11.dtd" >
<svg xmlns="http://www.w3.org/2000/svg" xmlns:xlink="http://www.w3.org/1999/xlink" version="1.1">
<metadata>
Created by FontForge 20170731 at Wed Aug 27 01:01:41 2014
 By Aleksey,,,
(c) Copyright 2010, Carter &#38; Cone Type, Inc. and The Font Bureau, Inc.
</metadata>
<defs>
<font id="LincolnMillerB-Semibold" horiz-adv-x="1081" >
  <font-face 
    font-family="LincolnMillerB Semibold"
    font-weight="600"
    font-stretch="normal"
    units-per-em="2048"
    panose-1="2 0 5 3 8 0 0 2 0 3"
    ascent="1565"
    descent="-483"
    x-height="936"
    cap-height="1399"
    bbox="-201 -481 2132 1925"
    underline-thickness="40"
    underline-position="-351"
    unicode-range="U+0020-FB04"
  />
<missing-glyph horiz-adv-x="748" 
d="M68 0v1365h544v-1365h-544zM136 68h408v1229h-408v-1229z" />
    <glyph glyph-name="uniFB01" unicode="fi" horiz-adv-x="1191" 
d="M-10 903v33h203v51q0 251 147 404q58 61 147 100t201 39q172 0 252 -60.5t80 -158.5q0 -47 -35.5 -90t-95.5 -43q-57 0 -93 31t-36 87q0 20 5 42t9 33t14.5 36t12.5 29q0 26 -34.5 48.5t-98.5 22.5q-102 0 -169.5 -116t-70.5 -332v-123h307l279 16l8 -8v-817
q0 -71 53 -94q39 -16 90 -19v-14h-503v14q50 3 81 19q43 19 43 88v680q-6 68 -38 102h-320v-776q0 -58 37 -82q34 -25 100 -31v-14h-516v14q44 2 90 15q54 20 54 92v782h-203z" />
    <glyph glyph-name="uniFB02" unicode="fl" horiz-adv-x="1191" 
d="M-10 903v33h203v51q0 250 147 406q57 61 139 99t180 38q117 0 201 -43l156 41l8 -8v-1391q0 -69 53 -92q46 -21 90 -23v-14h-503v14q48 3 84 17q40 19 40 90v1069q-27 10 -48 38.5t-21 67.5q0 29 11 52.5t28 43.5t20 25q-26 90 -131 90q-94 0 -155 -103t-64 -317v-151
h236v-33h-236v-776q0 -66 45 -88q37 -19 94 -25v-14h-518v14q44 2 90 15q54 20 54 92v782h-203z" />
    <glyph glyph-name="uniFB03" unicode="ffi" horiz-adv-x="1789" 
d="M-10 903v33h203v39q0 248 143 403q58 61 142 99.5t181 38.5q109 0 176.5 -40.5t94.5 -99.5q56 67 152 110.5t208 43.5q171 0 250.5 -61t79.5 -158q0 -47 -35.5 -90t-95.5 -43q-57 0 -93 31t-36 87q0 20 5 41.5t10 34.5t15 35t13 29q-2 26 -36.5 48.5t-98.5 22.5
q-102 0 -169 -115.5t-71 -332.5v-123h307l279 16l8 -8v-817q0 -71 53 -94q42 -16 92 -19v-14h-505v14q49 3 81 19q43 19 43 88v680q-3 66 -36 102h-320v-778q0 -61 37 -82q27 -21 104 -29v-14h-497v14q42 2 78 21q43 19 43 86v782h-367v-776q0 -67 45 -90q37 -18 88 -23v-14
h-512v14q44 2 90 15q54 20 54 92v782h-203zM428 936h367v49q0 90 24 195q-50 0 -85.5 28.5t-35.5 75.5q0 26 8.5 53t21 53t15.5 37q-4 25 -31 45.5t-75 20.5q-90 0 -148 -110.5t-61 -323.5v-123z" />
    <glyph glyph-name="uniFB04" unicode="ffl" horiz-adv-x="1794" 
d="M-10 903v33h203v39q0 248 143 403q58 61 142 99.5t181 38.5q213 0 269 -140q61 71 149.5 112.5t184.5 41.5q116 0 200 -43l154 41l8 -8v-1391q0 -68 55 -92q43 -21 88 -23v-14h-501v14q49 3 82 17q43 19 43 90v1069q-27 10 -48.5 38.5t-21.5 67.5q0 29 11 52.5t28 43.5
t20 25q-9 26 -20 43t-39.5 32t-71.5 15q-95 0 -156 -102.5t-65 -317.5v-151h238v-33h-236v-778q0 -61 37 -82q28 -22 98 -29v-14h-491v14q42 2 78 21q43 19 43 86v782h-367v-776q0 -67 45 -90q37 -18 88 -23v-14h-512v14q44 2 90 15q54 20 54 92v782h-203zM428 936h367v49
q0 113 24 193q-49 0 -85 29t-36 77q0 26 8.5 53t21 53t15.5 37q-4 25 -31 45.5t-75 20.5q-90 0 -148 -110.5t-61 -323.5v-123z" />
    <glyph glyph-name=".notdef" horiz-adv-x="748" 
d="M68 0v1365h544v-1365h-544zM136 68h408v1229h-408v-1229z" />
    <glyph glyph-name="glyph1" horiz-adv-x="0" 
 />
    <glyph glyph-name="glyph2" horiz-adv-x="682" 
 />
    <glyph glyph-name="glyph3" horiz-adv-x="0" 
 />
    <glyph glyph-name="glyph3" horiz-adv-x="0" 
 />
    <glyph glyph-name="space" unicode=" " horiz-adv-x="446" 
 />
    <glyph glyph-name="exclam" unicode="!" horiz-adv-x="663" 
d="M178 131q0 64 44.5 109t107.5 45q64 0 108.5 -44.5t44.5 -109.5q0 -64 -44 -106.5t-109 -42.5q-64 0 -108 42.5t-44 106.5zM186 1282q0 64 40.5 110t105.5 46t105 -46t40 -110q0 -52 -24 -180.5t-60 -318t-55 -339.5h-16q-21 188 -78.5 484t-57.5 354z" />
    <glyph glyph-name="quotedbl" unicode="&#x22;" horiz-adv-x="813" 
d="M80 1386q0 50 34 86.5t91 36.5t92 -36.5t35 -86.5q0 -24 -20.5 -87t-51 -158.5t-47.5 -173.5h-20q-19 99 -66 244.5t-47 174.5zM481 1386q0 50 34 86.5t91 36.5t92 -36.5t35 -86.5q0 -24 -20.5 -87t-51 -158.5t-47.5 -173.5h-20q-19 99 -66 244.5t-47 174.5z" />
    <glyph glyph-name="numbersign" unicode="#" horiz-adv-x="1060" 
d="M145 250v190l230 56v239l-230 -57v186l230 58v362h26v-354l258 65v289h27v-280l229 57v-189l-229 -57v-240l229 58v-187l-229 -57v-403h-27v395l-258 -66v-329h-26v321zM401 502l258 67v240l-258 -68v-239z" />
    <glyph glyph-name="dollar" unicode="$" horiz-adv-x="1232" 
d="M127 281q0 90 38 140t105 50q55 0 84 -33.5t29 -91.5q0 -34 -15 -57.5t-33.5 -33.5t-40 -24.5t-30.5 -31.5q0 -69 74.5 -120t183.5 -65v525q-368 45 -368 348q0 141 95 243t273 130v200h31v-196q48 6 86 6q59 0 82 -4v194h33v-196q155 -19 238 -89.5t83 -162.5
q0 -74 -33 -122t-90 -48q-47 0 -79.5 28t-32.5 80q0 40 22 69t48.5 55t33.5 52q-10 34 -62.5 68t-127.5 45v-485q66 -12 114.5 -26t98 -41.5t81 -65.5t51 -98t19.5 -138q0 -58 -19.5 -115.5t-60.5 -112.5t-114 -97.5t-170 -61.5v-289h-33v285q-70 -8 -115 -8q-41 0 -53 2
v-279h-31v281q-179 19 -287 97t-108 194zM346 1001q0 -186 176 -217v447q-80 -21 -128 -87.5t-48 -142.5zM553 10h53q57 0 115 8v496q-77 14 -168 21v-525zM553 778l168 -20v485q-18 2 -68 2q-42 0 -100 -8v-459zM754 29q90 27 133 97.5t43 158.5q0 96 -45.5 152.5
t-130.5 70.5v-479z" />
    <glyph glyph-name="percent" unicode="%" horiz-adv-x="1755" 
d="M111 928q0 147 103.5 244.5t236.5 97.5q150 0 251 -85.5t101 -254.5q0 -136 -106 -233t-246 -97q-145 0 -242.5 86.5t-97.5 241.5zM289 936q0 -90 15.5 -158t54.5 -112.5t98 -44.5q73 0 118.5 85.5t45.5 219.5q0 149 -42 237t-126 88q-56 0 -94 -45t-54 -113.5
t-16 -156.5zM416 -176l876 1585l43 -20l-880 -1586zM952 299q0 144 104.5 243t235.5 99q70 0 132 -20t112.5 -59.5t79.5 -106.5t29 -154q0 -137 -106 -233.5t-247 -96.5q-145 0 -242.5 86.5t-97.5 241.5zM1130 307q0 -90 16 -158.5t55 -113.5t99 -45q69 0 115.5 88t46.5 219
q0 95 -17 166.5t-55 115.5t-94 44q-57 0 -95.5 -46t-54.5 -115t-16 -155z" />
    <glyph glyph-name="ampersand" unicode="&#x26;" horiz-adv-x="1531" 
d="M92 305q0 73 22 132t72 110.5t111.5 93t157.5 94.5q-164 242 -164 377q0 139 108 227t275 88q126 0 192 -76t66 -192q0 -90 -64 -174.5t-182 -155.5q123 -183 346 -464q65 89 114.5 213.5t49.5 191.5q0 34 -48.5 57.5t-154.5 42.5v13h576v-13q-189 -19 -258 -96
q-23 -25 -111 -188t-151 -242q147 -178 200 -227q23 -21 39 -31q106 -63 234 -72v-14h-498q-14 15 -67 80.5t-68 85.5q-195 -199 -387 -199q-81 0 -153 20t-130.5 60t-92.5 106.5t-34 151.5zM350 391q0 -139 67.5 -229t180.5 -90q79 0 153.5 29.5t120.5 82.5
q-329 425 -401 529q-121 -101 -121 -322zM526 1184q0 -128 148 -334q164 103 164 313q0 106 -40.5 174t-119.5 68q-76 0 -114 -61t-38 -160z" />
    <glyph glyph-name="quotesingle" unicode="'" horiz-adv-x="411" 
d="M80 1386q0 50 34 86.5t91 36.5t92 -36.5t35 -86.5q0 -24 -20.5 -87t-51 -158.5t-47.5 -173.5h-20q-19 99 -66 244.5t-47 174.5z" />
    <glyph glyph-name="parenleft" unicode="(" horiz-adv-x="677" 
d="M86 606q0 544 498 926l53 -31q-477 -366 -477 -891q-3 -554 483 -903l-57 -35q-108 78 -194.5 170t-157.5 207t-109.5 257.5t-38.5 299.5z" />
    <glyph glyph-name="parenright" unicode=")" horiz-adv-x="677" 
d="M35 -293q483 347 483 903q-3 526 -479 891l55 31q498 -385 498 -926q0 -157 -39 -299.5t-110 -257.5t-157.5 -206.5t-193.5 -170.5z" />
    <glyph glyph-name="asterisk" unicode="*" horiz-adv-x="786" 
d="M117.5 1235q-9.5 23 7.5 51q19 25 44.5 25.5t43.5 -19.5q15 -12 75.5 -72t98.5 -85q-4 44 -26.5 131.5t-22.5 107.5q0 58 59 58q31 0 45.5 -15.5t14.5 -40.5q0 -21 -24.5 -109.5t-29.5 -131.5q38 27 98 86.5t77 72.5q23 19 45.5 16t35.5 -28q34 -56 -28 -82
q-23 -13 -101.5 -36.5t-121.5 -41.5q42 -17 116.5 -39t102.5 -34q31 -12 40.5 -37t-8.5 -51q-17 -26 -42 -27t-42 16q-15 12 -74.5 72.5t-97.5 87.5q5 -39 29.5 -129.5t24.5 -110.5q0 -24 -16 -40.5t-44 -16.5q-59 0 -59 57q0 22 23 110t26 130q-36 -25 -96.5 -85t-73.5 -71
q-23 -19 -47 -17t-39 26q-16 32 -6 53t39 33q23 9 97.5 31t121.5 42q-46 20 -122.5 43.5t-102.5 34.5q-31 12 -40.5 35z" />
    <glyph glyph-name="plus" unicode="+" horiz-adv-x="1150" 
d="M82 489v84h450v453h86v-453h451v-84h-451v-450h-86v450h-450z" />
    <glyph glyph-name="comma" unicode="," horiz-adv-x="530" 
d="M96 152q0 54 39 96.5t103 42.5q98 0 146 -66.5t48 -179.5q0 -64 -28 -127.5t-74 -114.5t-99.5 -91t-109.5 -66l-10 20q95 52 154.5 140.5t68.5 195.5h-70q-90 0 -129 43.5t-39 106.5z" />
    <glyph glyph-name="hyphen" unicode="-" horiz-adv-x="770" 
d="M61 432v174h648v-174h-648z" />
    <glyph glyph-name="period" unicode="." horiz-adv-x="530" 
d="M109 133q0 66 46 112t111 46t111.5 -46t46.5 -112q0 -65 -46.5 -110.5t-111.5 -45.5t-111 45t-46 111z" />
    <glyph glyph-name="slash" unicode="/" horiz-adv-x="827" 
d="M63 -410l639 1950l62 -18l-641 -1948z" />
    <glyph glyph-name="zero" unicode="0" horiz-adv-x="1267" 
d="M84 592q0 153 46.5 282.5t125 215t180 133t211.5 47.5q103 0 190.5 -32.5t151.5 -89.5t109 -135t67.5 -170.5t22.5 -193.5q0 -153 -46 -282.5t-124 -215.5t-179.5 -134t-213.5 -48q-127 0 -231.5 50.5t-171 136.5t-102.5 198t-36 238zM360 618q0 -628 271 -628
q88 0 152 81.5t96 223.5t32 328q0 131 -13.5 238t-43 198t-84.5 141.5t-131 50.5q-87 0 -151 -81.5t-96 -223.5t-32 -328z" />
    <glyph glyph-name="one" unicode="1" horiz-adv-x="876" 
d="M88 1104v16q161 21 270 49q156 37 246 93h19q-19 -109 -19 -324v-799q0 -72 60 -98q21 -9 71 -17t84 -10v-14h-692v14q96 5 160 25q31 9 49 33t18 57v991l-137 -8z" />
    <glyph glyph-name="two" unicode="2" horiz-adv-x="1159" 
d="M90 0v84q315 236 492 408q129 126 182 243.5t53 261.5q0 119 -52.5 185.5t-152.5 66.5q-74 0 -135 -39.5t-97.5 -100.5t-56.5 -129.5t-20 -131.5q0 -75 29.5 -118.5t91.5 -43.5q37 0 68.5 11t57.5 32t40 36.5t33 39.5l12 -10q-51 -87 -129 -142t-178 -55q-98 0 -161 59
t-63 162q0 77 41.5 157t112 145.5t176 107t223.5 41.5q181 0 294.5 -86.5t113.5 -237.5q0 -82 -30.5 -156t-84.5 -138.5t-144.5 -131.5t-192.5 -127.5t-246 -134.5l-72 -57h586q38 0 71 17.5t59 49.5t43 61t36 68l18 -6l-123 -391h-895z" />
    <glyph glyph-name="three" unicode="3" horiz-adv-x="1148" 
d="M39 227q0 90 53.5 142.5t130.5 52.5q58 0 90.5 -32t32.5 -81q0 -36 -21 -64t-45.5 -43.5t-45.5 -37.5t-21 -47q0 -60 58.5 -106t168.5 -46q139 0 245 129.5t106 315.5q0 239 -150 239q-35 0 -78 -22.5t-71 -45.5t-68 -61l-31 39q165 112 206 144q123 98 157 201
q16 50 16 108q0 108 -43.5 171.5t-134.5 63.5q-102 0 -178 -83.5t-76 -194.5q0 -64 27 -101t79 -37q66 0 136 70l10 -10q-37 -52 -111 -103t-127 -51q-99 0 -154 50.5t-55 130.5q0 93 69.5 174.5t188.5 129.5t256 48q95 0 169.5 -24.5t118.5 -64.5t66.5 -86.5t22.5 -95.5
q0 -110 -100 -192t-307 -113l-33 -28q60 10 106 10q48 0 95 -7.5t96 -28t85.5 -51t59.5 -80.5t23 -114q0 -138 -84 -241.5t-221 -155t-305 -51.5q-109 0 -200 29.5t-151.5 94.5t-60.5 156z" />
    <glyph glyph-name="four" unicode="4" horiz-adv-x="1189" 
d="M37 424v27l688 837h98v-813h86q90 0 125 41q19 22 31 62t14 77h17v-424h-17q-2 41 -13 85t-30 67q-30 41 -121 41h-92v-287q0 -33 15.5 -59.5t42.5 -38.5q44 -20 137 -25v-14h-645v14q104 6 143 19q28 9 45 35.5t17 60.5v295h-541zM100 475h478v576z" />
    <glyph glyph-name="five" unicode="5" 
d="M51 223q0 77 45.5 114.5t100.5 37.5q53 0 85.5 -32t32.5 -79q0 -45 -27.5 -97.5t-31.5 -76.5q7 -41 57 -71.5t131 -30.5q66 0 119 40.5t85 107.5t48.5 147.5t16.5 167.5q0 146 -61.5 225.5t-172.5 79.5q-83 0 -170 -53t-127 -136l-26 6l155 691h23q24 -28 120 -54
t208 -26q236 0 354 92l10 -10q-40 -71 -99.5 -125.5t-119.5 -85.5t-128.5 -51t-121.5 -26.5t-104 -6.5q-138 0 -174 6l-78 -330q29 26 43.5 38t49.5 35.5t66 34.5t80 21t103 10q91 0 169.5 -24t139.5 -70t96 -121t35 -170q0 -131 -73.5 -230t-194.5 -149.5t-269 -50.5
q-173 0 -284 68.5t-111 183.5z" />
    <glyph glyph-name="six" unicode="6" horiz-adv-x="1169" 
d="M98 565q0 176 58.5 338t154.5 277.5t224 184.5t264 69q79 0 139.5 -22.5t92.5 -58t47.5 -72t15.5 -71.5q0 -58 -35 -92.5t-88 -34.5q-20 0 -36.5 3.5t-29 12t-22.5 16t-18 24.5t-13 26.5t-11 33t-8.5 34.5t-8 39t-7.5 39q-12 52 -33 72t-65 20q-84 0 -159.5 -95.5
t-127 -254.5t-74.5 -353l11 -4q119 183 331 183q151 0 262 -120.5t111 -312.5q0 -64 -15 -127t-52 -127.5t-93 -113t-146 -79t-202 -30.5q-96 0 -181 40t-148.5 114.5t-100.5 188.5t-37 253zM352 403q0 -187 58.5 -300t160.5 -113q50 0 89 21.5t63.5 60.5t41 83t24.5 99
t11 98.5t3 91.5q0 113 -21 195t-71 132t-125 50q-100 0 -167 -109t-67 -309z" />
    <glyph glyph-name="seven" unicode="7" horiz-adv-x="1017" 
d="M61 776l129 557h15l24 -114h826v-21q-113 -156 -179 -273t-137 -290q-62 -152 -99 -311.5t-48 -364.5q-13 -205 -154 -205q-127 0 -127 156q0 82 66 237t168 324q98 161 171 272.5t181 260.5h-592q-80 0 -131.5 -61t-91.5 -173z" />
    <glyph glyph-name="eight" unicode="8" horiz-adv-x="1148" 
d="M96 276q0 57 25.5 107.5t70 88.5t92.5 65.5t103 48.5q-133 62 -190.5 136t-57.5 187q0 102 64.5 189t168 135.5t218.5 48.5q184 0 296.5 -80t112.5 -211q0 -80 -68 -151.5t-181 -120.5q72 -31 121.5 -59.5t95 -69t68 -93t22.5 -118.5q0 -122 -73 -217.5t-191 -145
t-256 -49.5q-192 0 -316.5 87.5t-124.5 221.5zM279 279q0 -119 73.5 -203t214.5 -84q130 0 211.5 80t81.5 192q0 85 -63 142.5t-185 99.5l-198 69q-62 -46 -98.5 -122t-36.5 -174zM328 1022q0 -139 194 -219q93 -43 201 -72q115 70 115 262q0 111 -66.5 189t-189.5 78
q-125 0 -189.5 -72t-64.5 -166z" />
    <glyph glyph-name="nine" unicode="9" horiz-adv-x="1169" 
d="M45 6q0 62 35.5 96.5t99.5 34.5q28 0 48.5 -10.5t33 -25.5t22 -40t14 -45t10.5 -51.5t11 -48.5q17 -53 43 -75.5t68 -22.5q78 0 145 61.5t113.5 165t77.5 229t45 263.5l-10 2q-128 -177 -330 -177q-155 0 -265 117t-110 314q0 67 17 132.5t56 128t95 110.5t140 77t186 29
q95 0 178.5 -35t152 -105t108.5 -189.5t40 -274.5q0 -176 -52.5 -335.5t-145 -279.5t-227.5 -191t-292 -71q-146 0 -226.5 65t-80.5 152zM367 817q0 -185 54 -288t165 -103q97 0 165 99t68 300q0 190 -65.5 307t-165.5 117q-221 0 -221 -432z" />
    <glyph glyph-name="colon" unicode=":" horiz-adv-x="589" 
d="M141 131q0 64 45.5 109t108.5 45q62 0 106.5 -45t44.5 -109t-44.5 -106.5t-106.5 -42.5q-64 0 -109 42.5t-45 106.5zM141 786q0 64 45.5 109t108.5 45q62 0 106.5 -45t44.5 -109q0 -63 -44.5 -107t-106.5 -44q-63 0 -108.5 44t-45.5 107z" />
    <glyph glyph-name="semicolon" unicode=";" horiz-adv-x="589" 
d="M133 147q0 51 39 93.5t100 42.5q94 0 141.5 -63t47.5 -171q0 -71 -30.5 -138.5t-79 -119t-99.5 -89.5t-102 -62l-7 16q94 53 152 144.5t65 203.5h-67q-85 0 -122.5 41t-37.5 102zM141 786q0 64 45.5 109t108.5 45q62 0 106.5 -45t44.5 -109q0 -63 -44.5 -107t-106.5 -44
q-63 0 -108.5 44t-45.5 107z" />
    <glyph glyph-name="less" unicode="&#x3c;" horiz-adv-x="1150" 
d="M115 500v65l905 432v-88l-797 -377l797 -376v-88z" />
    <glyph glyph-name="equal" unicode="=" horiz-adv-x="1150" 
d="M123 317v84h905v-84h-905zM123 664v84h905v-84h-905z" />
    <glyph glyph-name="greater" unicode="&#x3e;" horiz-adv-x="1150" 
d="M131 68v88l795 376l-795 377v88l905 -432v-65z" />
    <glyph glyph-name="question" unicode="?" horiz-adv-x="1007" 
d="M90 1196q0 93 109 164.5t272 71.5q207 0 325.5 -111t118.5 -295q0 -187 -134.5 -309t-360.5 -137l-12 -185h-23l-2 381q150 18 226.5 89.5t76.5 219.5q0 159 -58 241.5t-165 82.5q-45 0 -89 -16.5t-63 -40.5q3 -8 16.5 -39.5t21 -60t7.5 -62.5q0 -61 -41 -98t-94 -37
q-65 0 -98 39t-33 102zM250 129q0 65 46 110.5t110 45.5t109.5 -45.5t45.5 -110.5q0 -64 -45 -109t-110 -45t-110.5 45t-45.5 109z" />
    <glyph glyph-name="at" unicode="@" horiz-adv-x="2068" 
d="M186 367q0 203 82 385.5t218 311t318 204t378 75.5q201 0 353.5 -84.5t234 -233.5t81.5 -341q0 -164 -66 -306.5t-176.5 -226t-236.5 -83.5q-90 0 -148 44.5t-59 127.5l-6 2q-44 -74 -106.5 -122t-128.5 -48q-37 0 -73 14t-69.5 43t-54 85t-20.5 130q0 58 20.5 128
t61 140.5t94 128.5t127.5 94.5t153 36.5q57 0 99 -34t51 -93h6l43 115h156l-193 -551q-25 -69 -25 -116q0 -46 22 -74.5t67 -28.5q73 0 147.5 44t135.5 121t99.5 193t38.5 248q0 265 -175 431.5t-451 166.5q-113 0 -225.5 -39t-213 -117.5t-178 -186.5t-123 -256.5
t-45.5 -317.5q0 -181 54.5 -326t149 -237.5t219 -141.5t268.5 -49q294 0 517 157.5t328 463.5l19 -6q-49 -166 -142.5 -297t-214 -213.5t-260.5 -125t-290 -42.5q-135 0 -261 33.5t-235 101.5t-190.5 163t-128 226t-46.5 283zM862 279q0 -166 92 -166q65 0 117.5 51.5
t102.5 140.5l131 393q-13 80 -49 114t-93 34q-77 0 -148.5 -98.5t-111.5 -229t-41 -239.5z" />
    <glyph glyph-name="A" unicode="A" horiz-adv-x="1415" 
d="M-49 0v14q78 4 121 31q64 40 116 162q291 693 498 1214h72q86 -216 283 -715t223 -563q14 -36 31 -60t51 -42q45 -23 118 -27v-14h-696v14q210 12 217 70q3 26 -8 49l-141 375h-486q-80 -202 -106 -285q-29 -101 -29 -125q0 -71 238 -83q7 -1 10 -1v-14h-512zM362 541
h459l-225 577z" />
    <glyph glyph-name="B" unicode="B" horiz-adv-x="1396" 
d="M70 0v14q106 6 153 23q64 24 64 100v1116q0 79 -64 105q-52 20 -149 26v15h714q71 0 134.5 -9t122.5 -31t101 -55t67.5 -84t25.5 -116q0 -78 -29 -138t-83.5 -99.5t-120 -64t-150.5 -40.5v-19q61 -3 122.5 -16.5t122.5 -43t107.5 -70.5t75.5 -102.5t29 -135.5
q0 -79 -29 -143t-79 -106.5t-119 -71.5t-146 -41.5t-164 -12.5h-706zM559 131q9 -57 48 -82.5t124 -25.5q58 0 106 22t79.5 59t53 86.5t31 102t9.5 108.5q0 141 -85 234.5t-235 93.5q-50 0 -131 -6v-592zM559 754h86q152 0 225.5 89.5t73.5 229.5q0 137 -75 219t-181 82
q-92 0 -129 -2v-618z" />
    <glyph glyph-name="C" unicode="C" horiz-adv-x="1357" 
d="M72 682q0 213 93.5 384t259.5 267.5t372 96.5q115 0 215 -31t164 -76l67 96h21l8 -514h-21q-71 227 -193.5 361.5t-285.5 134.5q-189 0 -291 -183t-102 -509q0 -305 116 -484.5t332 -179.5q312 0 473 328l27 -13q-28 -64 -63.5 -119t-86.5 -106t-111 -87t-138.5 -57.5
t-167.5 -21.5q-148 0 -275 50t-218 141t-143 225.5t-52 296.5z" />
    <glyph glyph-name="D" unicode="D" horiz-adv-x="1597" 
d="M76 0v14q101 4 147 21q64 21 64 96v1124q0 81 -64 105q-51 20 -143 24v15h678q65 0 133 -9.5t145 -33t146 -59.5t133 -93t110.5 -128t74.5 -170.5t28 -215.5q0 -139 -45 -254.5t-122 -195t-180.5 -134.5t-219 -80.5t-238.5 -25.5h-647zM559 170q5 -73 52 -109t145 -36
q118 0 207.5 48t144.5 137t82 209.5t27 272.5q0 305 -137 494.5t-365 189.5q-74 0 -156 -4v-1202z" />
    <glyph glyph-name="E" unicode="E" horiz-adv-x="1374" 
d="M70 0v14q98 4 153 23q64 21 64 96v1122q0 80 -64 103q-57 22 -153 26v15h1157v-340h-21q-14 49 -55 117t-97.5 126t-101.5 64q-82 10 -192 10h-201v-639h172q53 0 91.5 11.5t53 22.5t31.5 30q26 24 52.5 93t33.5 114h21v-576h-21q-4 45 -34 119t-52 98q-26 30 -63.5 47
t-112.5 17h-172v-508q0 -42 3 -69t13.5 -48.5t25 -32.5t43 -18.5t61.5 -9.5t86 -2q93 0 134.5 1t99.5 12t81 34q48 49 114 160t97 178h18l-26 -410h-1239z" />
    <glyph glyph-name="F" unicode="F" horiz-adv-x="1269" 
d="M63 0v14q121 7 160 21q64 24 64 100v1120q0 78 -64 103q-49 20 -160 26v15h1178v-350h-18q-26 81 -106 190t-146 125q-56 12 -193 12h-219v-645h172q117 0 182 60q26 26 53 92t35 118h21v-581h-21q-9 53 -35 125t-53 100q-62 62 -182 62h-172v-570q0 -73 64 -100
q43 -17 151 -23v-14h-711z" />
    <glyph glyph-name="G" unicode="G" horiz-adv-x="1540" 
d="M72 674q0 215 98 388t271.5 270.5t389.5 97.5q115 0 224 -32.5t174 -76.5l69 98h21l8 -504h-20q-33 102 -81 188t-110.5 153.5t-143.5 106t-171 38.5q-206 0 -313 -187.5t-107 -515.5q0 -207 46.5 -363.5t139.5 -245.5t221 -89q132 0 210 60.5t100 158.5v240
q0 90 -68 116q-58 22 -176 29v17h694v-17l-40.5 -4.5t-53.5 -8t-39 -11.5q-61 -25 -61 -105v-506l-17 -6l-123 129q-255 -123 -491 -123q-126 0 -241.5 45.5t-207.5 131t-147 222.5t-55 306z" />
    <glyph glyph-name="H" unicode="H" horiz-adv-x="1748" 
d="M80 0v14q98 4 143 21q64 21 64 96v1124q0 79 -64 103q-66 23 -143 26v15h688v-15q-84 -5 -145 -22q-64 -20 -64 -100v-519h633v512q0 78 -64 103q-52 21 -145 26v15h686v-15q-76 -4 -141 -22q-64 -18 -64 -100v-1123q0 -78 64 -102q18 -7 62.5 -14t78.5 -9v-14h-686v14
q103 6 145 21q64 21 64 96v580h-633v-572q0 -77 64 -102q46 -18 145 -23v-14h-688z" />
    <glyph glyph-name="I" unicode="I" horiz-adv-x="851" 
d="M80 0v14q103 5 147 21q64 21 64 96v1124q0 79 -64 103q-65 22 -147 26v15h694v-15q-86 -5 -147 -22q-64 -20 -64 -100v-1123q0 -77 64 -102q46 -18 147 -23v-14h-694z" />
    <glyph glyph-name="J" unicode="J" horiz-adv-x="1060" 
d="M2 186q0 74 45.5 120t120.5 46q71 0 112.5 -43t41.5 -114q0 -60 -36.5 -106.5t-97.5 -70.5v-10q14 -7 42.5 -12.5t45.5 -5.5q65 0 111.5 19t74.5 50.5t43.5 83.5t21 108t5.5 134v868q0 73 -63 103q-51 23 -162 28v15h711v-15q-99 -5 -150 -22q-63 -20 -63 -100v-861
q0 -81 -35 -159t-95.5 -139.5t-152 -99.5t-196.5 -38q-165 0 -244.5 63.5t-79.5 157.5z" />
    <glyph glyph-name="K" unicode="K" horiz-adv-x="1558" 
d="M80 0v14q101 5 143 21q35 13 49.5 35.5t14.5 58.5v1126q0 77 -64 103q-53 21 -143 26v15h686v-15q-82 -5 -143 -22q-64 -20 -64 -100v-549h27q214 179 382.5 357.5t168.5 242.5q0 13 -9 23.5t-27.5 17.5t-35 12t-43.5 9t-39.5 5.5t-36.5 3.5v15h553v-15q-55 -4 -96 -11
t-98 -32t-99 -67q-38 -38 -110.5 -112.5t-106.5 -108.5t-91 -88t-114 -105q53 -59 103.5 -120t114 -142.5t94 -121t113 -149.5l100.5 -134q85 -113 164 -150q57 -25 135 -29v-14h-756v14q38 3 62.5 6.5t51 12t39.5 25.5t13 42q0 47 -136.5 229t-289.5 357h-33v-545
q0 -74 62 -102q18 -7 63.5 -15t75.5 -10v-14h-680z" />
    <glyph glyph-name="L" unicode="L" horiz-adv-x="1300" 
d="M72 0v14q111 6 151 23q64 24 64 100v1118q0 74 -64 103q-47 20 -151 26v15h698v-15q-117 -6 -147 -16q-64 -20 -64 -102v-1059q0 -43 3 -70.5t14 -49t25.5 -33t43 -18.5t61 -9t85.5 -2q114 0 182.5 9t99.5 40q44 46 114 161.5t99 182.5h17l-27 -418h-1204z" />
    <glyph glyph-name="M" unicode="M" horiz-adv-x="1945" 
d="M27 0v14q4 0 36 2.5t54 5.5t51.5 11t46.5 20q35 26 50.5 90t15.5 181v839q0 124 -62 174q-53 42 -182 47v15h498l448 -1008l342 834q38 90 45 174h498v-15q-91 -5 -150 -24q-63 -20 -63 -100v-1117q0 -69 63 -100q16 -8 68 -17.5t84 -11.5v-14h-721v14q134 8 170 25
q65 35 65 104v1141l-516 -1261h-37q-56 176 -104 284l-414 946v-927q0 -115 16.5 -178t51.5 -93q38 -32 207 -41v-14h-561z" />
    <glyph glyph-name="N" unicode="N" horiz-adv-x="1564" 
d="M10 1382v17h467l807 -1020v665q0 237 -70 295q-47 38 -200 45v15h557v-15q-3 0 -22.5 -2t-32.5 -3.5t-34.5 -5.5t-37.5 -8t-33.5 -11t-28.5 -15q-65 -46 -65 -292v-1057h-62l-942 1196v-840q0 -124 16.5 -190t51.5 -93q25 -20 91.5 -33.5t109.5 -15.5v-14h-555v14
q151 17 188 45q66 52 66 281v809q0 47 -19 94t-51 76q-51 45 -201 63z" />
    <glyph glyph-name="O" unicode="O" horiz-adv-x="1593" 
d="M72 684q0 343 215 549q208 199 510 199q306 0 514 -199q99 -94 154 -229t55 -295q0 -350 -222 -553q-198 -189 -510 -189q-143 0 -271 49.5t-228 143.5q-217 204 -217 524zM383 694q0 -150 24.5 -274.5t73 -221.5t129.5 -151.5t187 -54.5t186 53.5t129 150.5t73.5 224.5
t24.5 281.5q0 92 -9.5 176t-29 164.5t-52.5 145.5t-77.5 115t-107 77t-137.5 27q-197 0 -305.5 -188.5t-108.5 -524.5z" />
    <glyph glyph-name="P" unicode="P" horiz-adv-x="1300" 
d="M68 1384v15h710q221 0 348 -88t127 -252q0 -105 -47.5 -189t-128 -135.5t-180 -78.5t-209.5 -27h-129v-490q0 -78 64 -102q18 -7 67 -14t88 -9v-14h-706v14q104 6 151 23q64 24 64 100v1118q0 80 -64 103q-58 21 -155 26zM559 657h72q75 0 133 24t92 60.5t55.5 85.5
t29 93t7.5 90q0 56 -8 106t-28.5 98t-51.5 82t-81 55t-113 21h-107v-715z" />
    <glyph glyph-name="Q" unicode="Q" horiz-adv-x="1593" 
d="M72 684q0 334 207 541q204 207 518 207q306 0 518 -203q97 -92 151 -227t54 -293q0 -293 -177 -488q-80 -89 -188 -149q34 -135 115.5 -196.5t179.5 -61.5q86 0 151.5 49t92.5 119l16 -9q-17 -47 -51 -98.5t-84.5 -101.5t-123 -82.5t-151.5 -32.5q-145 0 -246.5 79.5
t-133.5 248.5q-73 -17 -132 -17q-142 0 -270 48t-227 141q-219 206 -219 526zM383 694q0 -318 98 -487q48 121 131 181.5t174 60.5q110 0 199.5 -76t128.5 -209q96 170 96 538q0 112 -13 212t-44 191.5t-77.5 157.5t-118 105t-160.5 39q-196 0 -305 -190t-109 -523zM494 182
q118 -186 303 -186q39 0 116 14q-24 193 -69 278t-133 85q-57 0 -119 -46t-98 -145z" />
    <glyph glyph-name="R" unicode="R" horiz-adv-x="1523" 
d="M72 0v14q104 6 151 23q64 24 64 100v1118q0 80 -64 103q-55 21 -151 26v15h731q99 0 184 -19t152 -56t105 -99.5t38 -143.5q0 -80 -35 -144.5t-95 -106.5t-125.5 -68.5t-141.5 -42.5v-17q72 -7 133 -26.5t116 -67.5t74 -119q17 -61 37 -163t31 -144q24 -94 98 -94
q51 0 87 51t36 142v43h27v-45q0 -302 -281 -302q-130 0 -198 80t-91 262q-8 67 -17 113t-29 98.5t-47.5 84.5t-74 53.5t-108.5 21.5h-119v-553q0 -76 64 -100q17 -7 65.5 -14t79.5 -9v-14h-696zM559 719h84q70 0 128.5 18t105.5 55t73.5 100.5t26.5 149.5q0 162 -78.5 246
t-210.5 84h-129v-653z" />
    <glyph glyph-name="S" unicode="S" horiz-adv-x="1163" 
d="M82 477h18q183 -479 486 -479q137 0 206.5 82t69.5 203q0 91 -57.5 159t-161.5 107q-41 16 -134 50t-144 56q-246 107 -246 379q0 167 125 281.5t321 114.5q113 0 210.5 -30t156.5 -73l63 92h21l8 -475h-18q-25 77 -52.5 140.5t-67 124.5t-84 102t-104.5 66.5t-129 25.5
q-99 0 -168 -68.5t-69 -175.5q0 -91 51 -154.5t158 -111.5q50 -23 144 -56.5t128 -48.5q68 -31 115 -62.5t85.5 -76.5t57.5 -106t19 -140q0 -188 -140 -310t-356 -122q-244 0 -412 111l-67 -100h-21z" />
    <glyph glyph-name="T" unicode="T" horiz-adv-x="1312" 
d="M16 1032v367h1280v-367h-18q-23 84 -101 205t-137 129q-63 8 -157 8h-90v-1231q0 -75 63 -102q18 -7 76.5 -16t89.5 -11v-14h-731v14q122 7 166 23q63 23 63 102v1235h-88q-98 0 -158 -8q-41 -6 -94.5 -71.5t-92 -139.5t-52.5 -123h-19z" />
    <glyph glyph-name="U" unicode="U" horiz-adv-x="1605" 
d="M55 1384v15h688v-15q-84 -5 -145 -22q-63 -20 -63 -100v-844q0 -82 16.5 -146t55 -117t109 -81.5t169.5 -28.5q200 0 313 112.5t113 284.5v617q0 225 -70 276q-61 42 -199 49v15h555v-15q-46 -2 -103 -13.5t-85 -31.5q-37 -25 -51.5 -91t-14.5 -181v-633
q0 -97 -31 -176.5t-82.5 -132.5t-120 -89.5t-141 -52.5t-147.5 -16q-135 0 -242.5 34.5t-176.5 95t-105.5 141.5t-36.5 176v843q0 69 -63 103q-35 17 -142 24z" />
    <glyph glyph-name="V" unicode="V" horiz-adv-x="1398" 
d="M-47 1384v15h678v-15q-104 -8 -154.5 -22.5t-50.5 -42.5q-3 -18 10 -51q24 -72 168.5 -443.5t206.5 -539.5q212 513 330 815q51 125 51 192q0 44 -62 63.5t-178 28.5v15h498v-15q-54 -3 -113 -28q-27 -14 -50 -42.5t-35 -53.5t-31 -68q-49 -113 -228.5 -549t-269.5 -659
h-70q-71 192 -174.5 458t-198 504.5t-116.5 296.5q-18 47 -37.5 73t-52.5 42q-54 20 -121 26z" />
    <glyph glyph-name="W" unicode="W" horiz-adv-x="2052" 
d="M-33 1384v15h662v-15q-72 -4 -134.5 -21t-62.5 -48q0 -25 10 -60q11 -38 299 -931l269 731q-14 50 -23 78.5t-28 81t-40.5 87t-44.5 48.5q-45 29 -133 34v15h668v-15q-76 -4 -140.5 -20.5t-64.5 -48.5q0 -33 10 -60q25 -82 312 -931q201 548 264 761q45 145 45 199
q0 25 -23.5 44.5t-62.5 30.5t-76 16.5t-78 8.5v15h506v-15q-66 -3 -121 -34q-60 -35 -116 -181q-74 -198 -426 -1185h-86q-164 530 -328 1015l-373 -1015h-84q-69 224 -228 715.5t-175 543.5q-21 74 -76 109q-45 28 -121 32z" />
    <glyph glyph-name="X" unicode="X" horiz-adv-x="1564" 
d="M-8 0v14q73 3 131 27q90 38 186 152q299 360 365 442q-45 63 -196.5 286t-198.5 287q-80 116 -154 150q-43 19 -129 26v15h803v-15q-110 -5 -171 -20.5t-61 -52.5q0 -55 138 -262q12 -17 71.5 -105.5t81.5 -118.5q157 192 215 273q125 168 125 211q0 20 -17.5 34
t-54.5 22t-67.5 11.5t-83.5 7.5v15h549v-15q-81 -3 -131 -26q-94 -42 -185 -152q-80 -93 -329 -407q66 -92 225.5 -326.5t195.5 -282.5q26 -37 42.5 -58t47 -49.5t62.5 -43.5q40 -18 127 -25v-14h-803v14q230 11 230 82q0 44 -117 221q-77 116 -195 287q-174 -213 -239 -297
q-138 -181 -138 -215q0 -38 58.5 -54t163.5 -24v-14h-547z" />
    <glyph glyph-name="Y" unicode="Y" horiz-adv-x="1366" 
d="M-59 1384v15h723v-15q-213 -12 -213 -63q0 -28 94 -203l105 -192q104 -192 157 -283q135 229 256 449q94 174 94 206q0 71 -227 86v15h479v-15q-60 -7 -98 -28q-39 -22 -66 -51t-57 -76q-114 -178 -307 -527q-43 -80 -54.5 -129.5t-11.5 -136.5v-295q0 -74 62 -102
q17 -7 75 -15t90 -10v-14h-731v14q128 7 166 21q64 24 64 102v357q0 45 -12.5 83.5t-45.5 100.5q-151 292 -293 532q-65 107 -127 144q-49 26 -122 30z" />
    <glyph glyph-name="Z" unicode="Z" horiz-adv-x="1302" 
d="M10 0v23l936 1351h-354q-131 0 -184 -18q-61 -16 -149.5 -125.5t-147.5 -224.5h-21l43 393h1127v-23l-936 -1351h391q257 0 311 57q60 62 131 169t107 185h20l-47 -436h-1227z" />
    <glyph glyph-name="bracketleft" unicode="[" horiz-adv-x="1140" 
d="M154 -326v1815l47 -16q161 -36 241 -52.5t184.5 -29.5t200.5 -13q64 0 104.5 8t57.5 23.5t22 29.5t5 36q0 43 -33 90l10 6q19 -13 37.5 -52t18.5 -79q0 -112 -68 -178t-203 -66q-60 0 -115 12.5t-113.5 40.5t-100 52.5t-116 71.5t-118.5 73v-1729q44 26 118.5 73
t116 71.5t100 52.5t113.5 40.5t115 12.5q135 0 203 -65.5t68 -177.5q0 -40 -20.5 -77.5t-39.5 -54.5l-10 5q37 42 37 92q0 19 -5 32.5t-22 29.5t-58 25t-104 9q-138 0 -267 -21t-359 -73z" />
    <glyph glyph-name="backslash" unicode="\" horiz-adv-x="827" 
d="M63 1522l60 18l641 -1950l-59 -16z" />
    <glyph glyph-name="bracketright" unicode="]" horiz-adv-x="1140" 
d="M104 -276q0 112 67 177.5t200 65.5q60 0 115.5 -12t114.5 -41t100.5 -53t116 -71t118.5 -73v1729q-44 -26 -118.5 -73t-116 -71t-100.5 -53t-114.5 -41t-115.5 -12q-133 0 -200 66t-67 178q0 40 17.5 79t36.5 52l10 -6q-33 -47 -33 -90q0 -22 5 -36t22 -29.5t57.5 -23.5
t104.5 -8q97 0 201.5 13t183.5 29t241 53l47 16v-1815l-47 17q-162 36 -241.5 52t-183.5 29t-201 13q-63 0 -104 -9t-58 -25t-22 -29.5t-5 -32.5q0 -48 39 -92l-10 -5q-20 16 -40 53.5t-20 78.5z" />
    <glyph glyph-name="asciicircum" unicode="^" horiz-adv-x="892" 
d="M92 813q77 122 139.5 224t100.5 161q30 47 49.5 59.5t64.5 12.5t65 -13t50 -59q38 -59 100.5 -161t139.5 -224l-13 -6l-339 278l-345 -278z" />
    <glyph glyph-name="underscore" unicode="_" horiz-adv-x="1224" 
d="M-14 -221h1249v-84h-1249v84z" />
    <glyph glyph-name="grave" unicode="`" horiz-adv-x="1024" 
d="M281 1430q0 36 28 63t72 27q43 0 74.5 -24.5t64.5 -80.5q26 -42 85.5 -150t96.5 -173l-10 -11q-69 50 -128.5 91t-113 76t-69.5 46q-55 37 -77.5 65t-22.5 71z" />
    <glyph glyph-name="a" unicode="a" horiz-adv-x="1015" 
d="M59 197q0 62 16 107t47.5 74.5t61.5 46t76 34.5q37 14 169.5 54.5t172.5 64.5v141q0 223 -147 223q-82 0 -121 -49q1 -20 17 -81t16 -89q0 -37 -40 -69.5t-102 -32.5q-58 0 -87 36t-29 86q0 60 55.5 111.5t137.5 80.5t165 28q50 0 88 -2.5t78.5 -10.5t70 -21.5t57 -37
t44.5 -55t27 -77t10 -102.5q0 -107 -6.5 -285t-6.5 -198q0 -30 23.5 -65t62.5 -35q47 0 75.5 52.5t31.5 129.5h22q-12 -279 -231 -279q-81 0 -129.5 34t-77.5 102h-6q-122 -140 -297 -140q-106 0 -175 62.5t-69 161.5zM309 240q0 -88 33 -133.5t90 -45.5q104 0 164 84l8 402
q-83 -29 -123 -49q-86 -42 -129 -102t-43 -156z" />
    <glyph glyph-name="b" unicode="b" horiz-adv-x="1128" 
d="M-43 1491v14l418 23l8 -8v-684l6 -2q119 129 268 129q182 0 299 -133.5t117 -366.5q0 -139 -63.5 -252.5t-170 -176.5t-231.5 -63q-182 0 -336 111l-120 -119l-17 4q10 137 10 375v1012q-3 80 -55 112q-32 21 -133 25zM383 164q9 -28 22.5 -54t36.5 -54.5t58 -46
t78 -17.5q108 0 170.5 128.5t62.5 336.5q0 88 -13 162.5t-40.5 135.5t-76 95.5t-114.5 34.5q-110 0 -184 -90v-631z" />
    <glyph glyph-name="c" unicode="c" horiz-adv-x="901" 
d="M53 471q0 97 32.5 185t91.5 156.5t149.5 109.5t199.5 41q159 0 244.5 -68t85.5 -172q0 -57 -36.5 -93t-98.5 -36q-54 0 -91.5 31.5t-37.5 89.5q0 38 25 94.5t26 67.5q-6 29 -38.5 46t-78.5 17q-96 0 -155.5 -115t-59.5 -336q0 -200 72.5 -315t194.5 -115q205 0 301 193
l22 -14q-55 -115 -159 -190t-228 -75q-225 0 -343 137.5t-118 360.5z" />
    <glyph glyph-name="d" unicode="d" horiz-adv-x="1157" 
d="M53 479q0 104 38 195.5t101 154t146 98.5t172 36q25 0 49.5 -2t46.5 -6.5t39.5 -8.5t36.5 -10.5t29 -10t25 -9.5t16 -7v441q-5 76 -54 110q-39 22 -178 33v12l455 23l10 -10v-1358q6 -68 53 -101q37 -23 121 -28v-13l-395 -24l-10 12v90l-9 2q-120 -125 -268 -125
q-182 0 -303 139.5t-121 366.5zM315 459q0 -84 13 -154.5t41 -130.5t78.5 -94.5t119.5 -34.5q60 0 102.5 23t82.5 69v635q-19 64 -68 114t-131 50q-111 0 -174.5 -132.5t-63.5 -344.5z" />
    <glyph glyph-name="e" unicode="e" horiz-adv-x="946" 
d="M53 473q0 77 19 148.5t57 133.5t91 108.5t126.5 73t157.5 26.5q107 0 186.5 -32t125 -88.5t67.5 -125t22 -148.5v-16h-598v-45q0 -79 9.5 -145t31 -124.5t54.5 -99t83.5 -63.5t114.5 -23q105 0 177 46.5t130 148.5l19 -12q-58 -118 -164 -190.5t-240 -72.5
q-117 0 -208.5 39t-147.5 108.5t-84.5 158.5t-28.5 194zM307 575l346 5q0 56 -3 100.5t-12.5 95.5t-26 85t-46 56.5t-69.5 22.5q-83 0 -133.5 -101.5t-55.5 -263.5z" />
    <glyph glyph-name="f" unicode="f" horiz-adv-x="659" 
d="M-10 903v33h203v51q0 263 139 410q127 133 321 133q66 0 115.5 -17t77 -46t40.5 -62t13 -70q0 -44 -36 -83.5t-93 -39.5q-50 0 -90.5 30.5t-40.5 84.5q0 31 13.5 75t15.5 66q-3 18 -19.5 27.5t-36.5 9.5q-89 0 -131.5 -99.5t-50.5 -320.5q-2 -35 -2 -149h254v-33h-254
v-774q0 -71 55 -92q47 -18 133 -23v-14h-567v14q44 2 90 15q54 20 54 92v782h-203z" />
    <glyph glyph-name="g" unicode="g" horiz-adv-x="1034" 
d="M20 -213q0 87 88.5 143t247.5 60v12q-229 58 -229 193q0 31 14 57.5t32 43t49.5 32t51 22.5t52.5 17v10q-119 41 -183.5 113t-64.5 165q0 73 33.5 133t89.5 97.5t126 57.5t146 20q47 0 95 -8t77.5 -17t60 -19.5t35.5 -11.5q50 67 97.5 98t111.5 31q40 0 71.5 -29.5
t31.5 -72.5q0 -47 -26 -77t-69 -30q-48 0 -73 30t-33 93q-65 -5 -102 -59v-10q110 -90 110 -236q0 -87 -54.5 -155t-139 -103t-179.5 -35h-147q-59 -34 -59 -78q0 -20 6.5 -35t22.5 -24.5t28.5 -15t40.5 -8.5t42 -4t48 -2q19 -1 29 -1l245 -12q47 -2 94.5 -22t88 -55
t65.5 -90t25 -120q0 -157 -135 -257.5t-398 -100.5q-463 0 -463 260zM217 -221q0 -41 16.5 -80t51 -73.5t96.5 -55.5t143 -21q143 0 226.5 76t83.5 195q0 44 -24.5 84.5t-82.5 60.5q-82 12 -346 12q-80 -22 -122 -68t-42 -130zM319 659q0 -132 38 -210t112 -78
q79 0 117.5 77t38.5 205q0 56 -8.5 105t-26 91t-49 66.5t-74.5 24.5q-148 0 -148 -281z" />
    <glyph glyph-name="h" unicode="h" horiz-adv-x="1183" 
d="M-16 1493v12l419 23l9 -8v-725h4l28 28l31 31t30 27t36.5 27.5t38 20.5t47 19t51 10t61.5 5q142 0 211.5 -86t69.5 -238v-516q0 -72 47 -92q33 -14 92 -17v-14h-510v14q48 3 86 15q45 15 45 92v536q0 100 -43 152.5t-108 52.5q-83 0 -139 -35.5t-78 -78.5v-623
q0 -73 43 -92q32 -15 90 -19v-14h-510v14q46 3 88 15q53 16 53 86v1239q-3 75 -51 110q-17 11 -62 19t-79 10z" />
    <glyph glyph-name="i" unicode="i" horiz-adv-x="595" 
d="M18 913v13l402 22l8 -8v-817q0 -67 51 -92q28 -13 99 -17v-14h-529v14q55 3 90 15q54 18 54 90v661q-3 72 -54 107q-33 21 -121 26zM141 1339q0 63 44 106.5t106 43.5q64 0 107.5 -42t43.5 -104q0 -63 -43.5 -107t-107.5 -44q-62 0 -106 43t-44 104z" />
    <glyph glyph-name="j" unicode="j" horiz-adv-x="600" 
d="M-201 -303q0 43 35.5 83t89.5 40q49 0 88 -28t39 -83q0 -25 -13.5 -85t-14.5 -70q20 -5 40 -5q87 0 120.5 102t33.5 335v786q-3 74 -53 109q-32 20 -170 30v15l452 22l9 -8v-860q0 -137 -29 -239.5t-100 -176.5q-128 -137 -293 -137q-122 0 -178 48t-56 122zM166 1339
q0 63 43.5 106.5t105.5 43.5q64 0 107 -42t43 -104q0 -63 -43.5 -107t-106.5 -44q-62 0 -105.5 43t-43.5 104z" />
    <glyph glyph-name="k" unicode="k" horiz-adv-x="1105" 
d="M-16 1493v12l419 23l9 -8v-1057q12 11 76 73.5t102.5 100t90.5 91t83 89.5q24 27 24 51q0 36 -151 54v14h416v-12q-82 -17 -137.5 -44.5t-120.5 -82.5q-75 -65 -170 -164q38 -18 73 -45t61.5 -52t55.5 -67t46 -68.5t43 -78.5t36.5 -74.5t35.5 -80.5t32 -73q21 -47 67 -63
q52 -19 76 -19v-12h-377q-16 63 -47.5 140t-71.5 152t-88.5 125t-91.5 50q-32 0 -63 -31v-311q0 -73 43 -92q32 -15 90 -19v-14h-510v14q46 3 88 15q53 16 53 86v1239q-3 75 -51 110q-17 11 -62 19t-79 10z" />
    <glyph glyph-name="l" unicode="l" horiz-adv-x="579" 
d="M-23 1493v12l424 23l9 -8v-1393q0 -73 53 -96q36 -14 90 -17v-14h-522v14q55 3 88 13q55 20 55 92v1233q-3 76 -55 112q-17 11 -62 19t-80 10z" />
    <glyph glyph-name="m" unicode="m" horiz-adv-x="1783" 
d="M37 913v13l381 22l8 -8v-145h6q2 2 28 28.5t31.5 31.5t30.5 26.5t36.5 27.5t37 20.5t46.5 19t50 9.5t60 5q93 0 160 -46.5t102 -130.5h6q47 54 86 88t104.5 61.5t141.5 27.5q134 0 201 -89t67 -237v-514q0 -71 49 -92q33 -14 90 -17v-14h-504v14q45 3 84 15q43 18 43 92
v532q0 100 -40.5 155.5t-106.5 55.5q-80 0 -134.5 -34.5t-76.5 -75.5v-627q0 -72 45 -94q33 -16 82 -19v-14h-487v14q40 3 79 15q43 18 43 92v536q0 100 -40 152.5t-105 52.5q-81 0 -137 -36t-78 -78v-623q0 -73 45 -92q32 -16 88 -19v-14h-510v14q46 3 88 15q53 16 53 86
v661q-3 78 -51 109q-38 24 -102 28z" />
    <glyph glyph-name="n" unicode="n" horiz-adv-x="1198" 
d="M37 913v13l381 22l8 -8v-145h6q1 1 27.5 28t31.5 31t30 26.5t37 28t38.5 20.5t47.5 19.5t50.5 9.5t61.5 5q141 0 209.5 -86t68.5 -238v-516q0 -71 49 -92q34 -14 91 -17v-14h-510v14q51 3 88 15q45 15 45 92v536q0 100 -43.5 152.5t-108.5 52.5q-83 0 -140 -36t-79 -78
v-623q0 -73 45 -92q32 -15 90 -19v-14h-512v14q46 3 88 15q53 16 53 86v661q-3 78 -51 109q-38 24 -102 28z" />
    <glyph glyph-name="o" unicode="o" 
d="M51 465q0 221 135.5 359.5t358.5 138.5q222 0 353.5 -136.5t131.5 -351.5q0 -104 -33 -195t-94 -160t-157 -109t-214 -40q-131 0 -239.5 58.5t-175 172.5t-66.5 263zM315 479q0 -487 228 -487q62 0 107 38.5t70 107.5t36.5 152t11.5 185q0 95 -10.5 173.5t-34.5 146.5
t-69.5 106.5t-108.5 38.5q-230 0 -230 -461z" />
    <glyph glyph-name="p" unicode="p" horiz-adv-x="1159" 
d="M6 -449q67 3 113 17q53 16 53 94v1116q-3 74 -51 107q-37 24 -109 28v13l385 22l9 -10v-107l8 -2q123 134 272 134q177 0 294.5 -137t117.5 -357q0 -214 -133.5 -354t-321.5 -140q-141 0 -227 64h-8v-365q0 -74 57 -96q65 -23 143 -27v-14h-602v14zM408 156
q19 -62 66.5 -109t129.5 -47q115 0 174.5 124t59.5 335q0 117 -22.5 207.5t-79.5 151.5t-144 61q-62 0 -104.5 -22.5t-79.5 -65.5v-635z" />
    <glyph glyph-name="q" unicode="q" horiz-adv-x="1128" 
d="M53 479q0 209 142.5 346.5t341.5 137.5q56 0 107 -8.5t96 -27t66 -29t58 -30.5l125 117l12 -2q-1 -21 -5.5 -97t-7.5 -139.5t-3 -105.5v-973q0 -72 55 -96q24 -10 123 -21v-14h-583v14q69 4 116 17q56 19 56 96v430l-9 2q-116 -121 -266 -121q-185 0 -304.5 138
t-119.5 366zM315 461q0 -83 12.5 -153t40 -130.5t77.5 -95.5t118 -35q110 0 189 92v637q-8 29 -22.5 54.5t-37 51.5t-58 41t-79.5 15q-76 0 -131 -63t-82 -169.5t-27 -244.5z" />
    <glyph glyph-name="r" unicode="r" horiz-adv-x="847" 
d="M35 913v13l383 22l8 -8v-145h4q126 163 272 163q66 0 109 -43.5t43 -109.5q0 -64 -36 -107t-95 -43t-94 31t-35 88q0 17 4.5 34.5t13.5 42.5t11 30q-61 -1 -117 -44t-80 -83v-629q0 -70 55 -92q33 -13 135 -19v-14h-567v14q53 3 88 15q53 16 53 90v659q-4 72 -53 109
q-35 22 -102 26z" />
    <glyph glyph-name="s" unicode="s" horiz-adv-x="831" 
d="M49 324h17q17 -46 49 -99.5t76.5 -107.5t103 -89.5t117.5 -35.5q91 0 139.5 51t48.5 129q0 79 -53 122.5t-197 88.5q-274 84 -274 301q0 119 91 199t243 80q75 0 143.5 -16t110.5 -40l38 58h19l12 -301h-16q-45 113 -124 195.5t-171 82.5q-79 0 -120.5 -50t-41.5 -114
q0 -34 9.5 -59t24.5 -42.5t48.5 -35t66 -29.5t93.5 -32q134 -43 206 -115t72 -191q0 -141 -103.5 -222t-262.5 -81q-90 0 -175.5 28.5t-119.5 59.5l-41 -69h-19z" />
    <glyph glyph-name="t" unicode="t" horiz-adv-x="704" 
d="M-14 903v33h190v303h230v-303h270v-33h-270v-629q0 -188 141 -188q63 0 100.5 55.5t44.5 126.5h23q-10 -126 -81.5 -208.5t-199.5 -82.5q-130 0 -196 74t-66 213v639h-186z" />
    <glyph glyph-name="u" unicode="u" horiz-adv-x="1165" 
d="M8 911v13l383 24l10 -12v-674q0 -100 39.5 -152.5t102.5 -52.5q45 0 83.5 13t63.5 34t40 39t26 37v604q-4 75 -49 103q-30 18 -127 22v15l401 24l10 -12v-780q3 -73 49 -101q31 -20 105 -24v-13l-373 -24l-14 14v127h-6q-31 -32 -46.5 -47.5t-48.5 -41.5t-62 -38.5
t-73 -22.5t-94 -10q-135 0 -199.5 90.5t-64.5 243.5v471q-4 77 -53 105q-40 23 -103 26z" />
    <glyph glyph-name="v" unicode="v" horiz-adv-x="946" 
d="M-41 922v14h506v-18q-127 -5 -127 -44q0 -8 12 -43q7 -16 58.5 -141t101 -241.5t84.5 -190.5q84 199 211 522q14 33 14 62v10q-4 49 -164 72v12h342v-12q-50 -9 -82.5 -32t-58.5 -81q-86 -190 -248 -590q-49 -125 -82 -235h-67l-365 835q-20 46 -50.5 70.5t-84.5 30.5z
" />
    <glyph glyph-name="w" unicode="w" horiz-adv-x="1458" 
d="M-35 922v14h484v-18q-111 -5 -111 -44q0 -8 12 -43q9 -23 52 -138.5t90.5 -238.5t78.5 -194q17 42 76 192.5t84 209.5q-50 131 -65 163q-18 48 -45.5 69.5t-73.5 27.5v14h473v-16q-121 -5 -121 -46q0 -15 12 -43q6 -15 50 -139t89 -246t74 -190q140 360 197 522
q14 40 14 72q0 49 -157 74v12h344v-12q-48 -7 -90 -37t-64 -86q-30 -74 -128.5 -325t-100.5 -257q-49 -124 -82 -233h-74q-202 558 -235 641q-39 -87 -160 -408q-43 -114 -80 -233h-76q-315 791 -332 833q-19 49 -50 73t-85 30z" />
    <glyph glyph-name="x" unicode="x" horiz-adv-x="983" 
d="M-12 0v12q61 14 99.5 42.5t78.5 80.5q214 258 237 287q-28 41 -136.5 208.5t-129.5 198.5q-36 53 -66 72t-67 21v14h479v-14q-39 0 -75 -8.5t-37 -20.5q-2 -16 16 -45q16 -27 80.5 -129.5t95.5 -147.5q11 14 54.5 71.5t76.5 102.5t54 76q19 28 16 45q-1 10 -10 17.5
t-26.5 14t-38 11.5t-50.5 12q-9 2 -14 3v12h348v-12q-73 -16 -111 -41t-80 -74q-38 -42 -204 -258q35 -50 150.5 -229.5t131.5 -202.5q36 -54 63 -76.5t76 -26.5v-16h-497v16q46 4 85.5 14.5t39.5 26.5q0 13 -27 56q-26 53 -182 286q-167 -203 -213 -270q-25 -37 -25 -53
q0 -25 44 -40.5t100 -21.5v-14h-336z" />
    <glyph glyph-name="y" unicode="y" horiz-adv-x="940" 
d="M-45 922v14h500v-18q-123 -5 -123 -44q0 -8 14 -43q36 -93 258 -567q83 202 201 516q16 50 16 72q0 29 -43 44.5t-116 27.5v12h333v-12q-53 -9 -86 -34t-55 -79q-11 -26 -338 -848q-69 -171 -131 -267t-120.5 -132.5t-133.5 -36.5q-58 0 -112 39.5t-54 116.5q0 51 37 92
t94 41q49 0 88 -29.5t39 -89.5q0 -17 -9 -71.5t-9 -57.5q36 6 74.5 41t68.5 80t60 103.5t46.5 98t30.5 76.5q-59 141 -220 487t-171 367q-20 44 -51.5 68t-87.5 33z" />
    <glyph glyph-name="z" unicode="z" horiz-adv-x="886" 
d="M31 0v20l551 891h-140q-151 0 -202 -22q-55 -22 -156 -240h-16v287h776v-21l-551 -892q88 -3 162 -3q46 0 174 9q59 5 110 96q45 80 99 205h16v-330h-823z" />
    <glyph glyph-name="braceleft" unicode="{" horiz-adv-x="858" 
d="M63 535v108q66 5 108.5 13t85.5 25.5t66.5 45t38.5 73t15 109.5q0 43 -16.5 133t-16.5 132q0 87 20.5 149.5t56.5 101t95.5 61t125 30.5t157.5 8v-15q-42 -2 -70.5 -7t-61 -21.5t-52.5 -43.5t-33 -75t-13 -115q0 -41 9.5 -123t9.5 -123q0 -60 -11 -108.5t-28 -82.5
t-47.5 -61t-58 -43t-72.5 -30t-78.5 -21t-87.5 -16v-100q41 -7 67.5 -12.5t63 -14.5t60.5 -19t53 -25.5t47.5 -33.5t37.5 -44t29.5 -56.5t17.5 -70.5t7 -87q0 -41 -9.5 -123t-9.5 -123q0 -68 13 -116t32.5 -75t52.5 -43t61.5 -21t70.5 -7v-14q-92 0 -157.5 8t-125 30.5
t-95.5 61t-56.5 101t-20.5 149.5q0 42 16.5 131.5t16.5 132.5q0 79 -20.5 130.5t-65.5 79.5t-96 39.5t-132 17.5z" />
    <glyph glyph-name="bar" unicode="|" horiz-adv-x="567" 
d="M250 -424v1952h69v-1952h-69z" />
    <glyph glyph-name="braceright" unicode="}" horiz-adv-x="858" 
d="M57 -332q42 2 70.5 7t61.5 21t52.5 43t32.5 75t13 116q0 41 -9.5 123t-9.5 123q0 47 7 87t17.5 70.5t29.5 56.5t37.5 44t47.5 33.5t53 25.5t60.5 19t63 14.5t67.5 12.5v100q-54 9 -87.5 16t-78.5 21t-72.5 30t-58 43t-47.5 61t-28 82.5t-11 108.5q0 41 9.5 123t9.5 123
q0 67 -13 115t-33 75t-52.5 43.5t-61 21.5t-70.5 7v15q116 0 193.5 -13.5t140.5 -50.5t93 -107.5t30 -178.5q0 -42 -16.5 -132t-16.5 -133q0 -53 9 -93.5t29 -68.5t44.5 -46.5t62.5 -30t75.5 -17.5t91.5 -10v-108q-64 -5 -107.5 -12.5t-85 -25t-66 -45.5t-39 -74t-14.5 -110
q0 -43 16.5 -132.5t16.5 -131.5q0 -108 -30 -178.5t-93 -107.5t-140.5 -50.5t-193.5 -13.5v14z" />
    <glyph glyph-name="asciitilde" unicode="~" horiz-adv-x="1083" 
d="M109 397q30 113 106.5 196t175.5 83q66 0 134.5 -23.5t127.5 -47t101 -23.5q77 0 124 30t83 97l12 -4q-33 -118 -102.5 -200.5t-165.5 -82.5q-70 0 -138.5 23t-125.5 46t-99 23q-80 0 -132 -28t-87 -93z" />
    <glyph glyph-name="uni007F" horiz-adv-x="0" 
 />
    <glyph glyph-name="uni00A0" unicode="&#xa0;" horiz-adv-x="225" 
 />
    <glyph glyph-name="exclamdown" unicode="&#xa1;" horiz-adv-x="663" 
d="M178 1280q0 64 44.5 107t109.5 43q63 0 107 -43t44 -107t-44 -109t-107 -45q-64 0 -109 45t-45 109zM184 129q0 52 24 180.5t60.5 318t55.5 339.5h16q21 -187 78 -483t57 -355q0 -64 -40 -110t-105 -46t-105.5 46t-40.5 110z" />
    <glyph glyph-name="cent" unicode="&#xa2;" horiz-adv-x="972" 
d="M90 621q0 95 33 182.5t92 155.5t148.5 108.5t195.5 40.5q23 0 51 -4l64 268l33 -6l-62 -264q111 -20 176.5 -83.5t65.5 -144.5q0 -57 -29.5 -90.5t-83.5 -33.5q-44 0 -78 27t-34 81q0 50 17 97.5t17 60.5q-7 35 -57 61l-190 -801q57 -63 157 -63q103 0 172 39t125 135
l17 -10q-54 -119 -152 -185.5t-223 -66.5q-62 0 -127 14l-88 -370l-31 6l88 372q-141 46 -219 169.5t-78 304.5zM326 637q0 -102 25.5 -189t72.5 -141l184 778q-17 5 -43 5q-101 0 -170 -118t-69 -335z" />
    <glyph glyph-name="sterling" unicode="&#xa3;" horiz-adv-x="1511" 
d="M-115 -20q0 97 109 164t258 67q120 0 287 -47q10 62 2 215h-351v29h349q-11 168 -11 186h-325v31h325q5 361 168.5 583t425.5 222q102 0 183 -31t129.5 -82t74 -110.5t25.5 -121.5q0 -148 -95 -239.5t-251 -91.5q-113 0 -175.5 67.5t-62.5 177.5q0 78 37 170l17 -4
q-35 -81 -35 -147q0 -99 57.5 -157t147.5 -58q98 0 149 70.5t51 201.5q0 94 -25 168t-81.5 122t-139.5 48q-164 0 -248.5 -146t-91.5 -462q0 -102 -10 -180h330v-31h-334q-19 -113 -53 -186h371v-29h-381q-59 -157 -119 -234q49 -17 155.5 -62t183.5 -68t150 -23
q64 0 113.5 19t79.5 46.5t51.5 71t31 79.5t17.5 85l19 -4q-60 -459 -478 -459q-63 0 -137.5 21.5t-131 47t-134.5 64.5q-15 8 -23 12q-63 -75 -163 -125.5t-201 -50.5q-121 0 -180.5 49.5t-59.5 131.5zM-78 -43q0 -56 52.5 -94.5t148.5 -38.5q94 0 185 44.5t157 119.5
q-205 94 -369 94q-79 0 -126.5 -34t-47.5 -91z" />
    <glyph glyph-name="currency" unicode="&#xa4;" horiz-adv-x="1198" 
d="M55 492v30h150q-4 60 0 168h-150v31h156q15 114 61 213.5t118.5 174.5t175 118t222.5 43q162 0 261.5 -73.5t99.5 -182.5q0 -77 -33 -116.5t-78 -39.5q-52 0 -82 31.5t-30 77.5q0 36 32.5 87.5t32.5 80.5q-8 48 -66.5 82t-140.5 34q-138 0 -217.5 -139.5t-97.5 -390.5
h449v-31h-451q0 -123 2 -168h383v-30h-381q8 -127 46 -225t111.5 -159t174.5 -61q218 0 342 254l20 -12q-32 -72 -69 -125.5t-89 -99t-123 -69.5t-159 -24q-216 0 -354 135.5t-164 385.5h-152z" />
    <glyph glyph-name="yen" unicode="&#xa5;" horiz-adv-x="1175" 
d="M-35 1229v14h606v-14q-168 -11 -168 -55q0 -22 88 -195t207 -389q26 45 84 143.5t88 150t67.5 118t54 102t16.5 47.5q0 64 -191 78v14h408v-14q-48 -6 -92.5 -35t-73.5 -70q-144 -212 -352 -581h327v-31h-329v-164h329v-31h-329v-176q0 -33 16 -59.5t43 -38.5
q22 -10 69 -18.5t78 -10.5v-14h-667v14q112 6 155 21q28 9 46 36t18 60v186h-316v31h316v164h-316v31h312q-36 76 -135.5 268t-137.5 258q-50 94 -114 131q-44 25 -107 29z" />
    <glyph glyph-name="brokenbar" unicode="&#xa6;" horiz-adv-x="567" 
d="M250 379h69v-803h-69v803zM250 743v785h69v-785h-69z" />
    <glyph glyph-name="section" unicode="&#xa7;" horiz-adv-x="1089" 
d="M117 674q0 111 79.5 183t188.5 93q-84 122 -84 258q0 123 95 213t239 90q64 0 115 -24t80 -60.5t44 -73t15 -67.5q0 -73 -35.5 -117.5t-101.5 -44.5q-48 0 -79.5 33t-31.5 84q0 28 15.5 52.5t33.5 37.5t33.5 30t15.5 32q0 43 -33 72.5t-92 29.5q-72 0 -122 -61.5
t-50 -157.5q0 -68 30.5 -122.5t105.5 -147.5q36 -46 74 -90.5t91.5 -105t96.5 -110.5q82 -97 116.5 -166.5t34.5 -152.5q0 -58 -23.5 -106t-64 -79.5t-87 -52t-101.5 -32.5q94 -124 94 -271q0 -124 -93 -214.5t-235 -90.5q-64 0 -117.5 24.5t-84.5 61t-47.5 73.5t-16.5 68
q0 72 35.5 116t99.5 44q47 0 80 -34t33 -83q0 -28 -12.5 -51.5t-27.5 -37t-27.5 -30.5t-12.5 -34q0 -42 31 -71.5t78 -29.5q76 0 123 64.5t47 165.5q0 67 -31 125t-101 143q-43 55 -128.5 148.5t-137.5 156.5q-80 97 -113.5 166t-33.5 154zM258 748q0 -43 31 -104.5
t73 -111.5q47 -57 171 -199.5t169 -203.5q140 41 140 180q0 95 -97 211q-46 55 -124.5 146t-133 156t-90.5 112q-139 -41 -139 -186z" />
    <glyph glyph-name="dieresis" unicode="&#xa8;" horiz-adv-x="1024" 
d="M154 1317q0 57 39.5 98t93.5 41q56 0 95.5 -40t39.5 -95q0 -57 -39 -98t-96 -41q-54 0 -93.5 40t-39.5 95zM602 1317q0 57 39 98t94 41q56 0 95.5 -40t39.5 -95q0 -57 -40 -98t-95 -41t-94 39.5t-39 95.5z" />
    <glyph glyph-name="copyright" unicode="&#xa9;" horiz-adv-x="1945" 
d="M80 514q0 178 70.5 341t190 281.5t285.5 188.5t349 70q182 0 347 -70t284 -188.5t189.5 -281.5t70.5 -341q0 -180 -70.5 -343.5t-189.5 -282t-284 -189t-347 -70.5q-183 0 -348.5 70.5t-285.5 189t-190.5 282t-70.5 343.5zM154 514q0 -169 64.5 -322.5t174 -264.5
t262 -176.5t320.5 -65.5t319.5 65.5t260.5 176.5t173 264.5t64 322.5q0 167 -64 319t-173 262.5t-261 176t-319 65.5q-168 0 -320.5 -65.5t-262 -176t-174 -262.5t-64.5 -319zM498 506q0 140 67.5 254t187.5 179t267 65q71 0 146 -21.5t106 -44.5l51 78h16l9 -369h-19
q-18 52 -35 93.5t-45.5 88.5t-60 78t-77 51.5t-97.5 20.5q-120 0 -199.5 -123.5t-79.5 -339.5q0 -195 78 -308.5t229 -113.5q107 0 185.5 63t126.5 167l24 -11q-130 -286 -391 -286q-219 0 -354 130t-135 349z" />
    <glyph glyph-name="ordfeminine" unicode="&#xaa;" horiz-adv-x="735" 
d="M94 813q0 66 31 100.5t86 57.5q32 13 113 34t104 33v82q0 20 -3 39t-11.5 42t-28 36.5t-47.5 13.5q-42 0 -68 -26q0 -8 8.5 -45.5t8.5 -55.5q0 -24 -21.5 -44.5t-60.5 -20.5q-37 0 -56.5 23t-19.5 57q0 54 70.5 92.5t146.5 38.5q51 0 87 -6t72.5 -23t55.5 -55t19 -96
q0 -63 -4.5 -165.5t-4.5 -113.5q0 -21 12.5 -41t39.5 -20q49 0 53 102h18q-9 -170 -139 -170q-52 0 -80.5 21t-42.5 63q-75 -86 -180 -86q-76 0 -117 36t-41 97zM104 487v52h547v-52h-547zM254 840q0 -49 21 -76t55 -27q59 0 92 45l6 236q-85 -30 -129.5 -69.5t-44.5 -108.5
z" />
    <glyph glyph-name="guillemotleft" unicode="&#xab;" horiz-adv-x="1142" 
d="M88 459q0 32 8.5 47.5t36.5 36.5q20 15 198 146.5t255 189.5l8 -9l-291 -415l291 -410l-8 -8q-42 31 -218.5 163t-230.5 171q-30 24 -39.5 39.5t-9.5 48.5zM526 459q0 32 8.5 47t34.5 37q377 276 453 336l10 -9l-291 -415l291 -410l-10 -8q-374 281 -447 334
q-31 23 -40 38.5t-9 49.5z" />
    <glyph glyph-name="logicalnot" unicode="&#xac;" horiz-adv-x="1150" 
d="M86 516v84h938v-520h-90v436h-848z" />
    <glyph glyph-name="uni00AD" unicode="&#xad;" horiz-adv-x="770" 
d="M61 432v174h648v-174h-648z" />
    <glyph glyph-name="registered" unicode="&#xae;" horiz-adv-x="970" 
d="M113 1067q0 158 107 265.5t265 107.5t265.5 -107.5t107.5 -265.5t-107.5 -265.5t-265.5 -107.5t-265 107.5t-107 265.5zM156 1067q0 -143 93.5 -240.5t235.5 -97.5t236 97.5t94 240.5t-94 240.5t-236 97.5t-235.5 -97.5t-93.5 -240.5zM291 872v15q29 0 41 6q18 9 18 31
v315q0 26 -18 31q-24 8 -41 8v14h219q56 0 97.5 -22t41.5 -72q0 -80 -127 -106v-7q91 -13 103 -65q3 -14 9.5 -44t10.5 -46q9 -29 31 -29q33 0 33 51h12q0 -45 -18.5 -65.5t-61.5 -20.5q-38 0 -62 27t-30 78q-2 19 -4 29.5t-8 27t-14.5 25t-23.5 15.5t-36 7h-31v-151
q0 -23 19 -31q12 -6 41 -6v-15h-201zM432 1092h33q44 0 70 23.5t26 70.5q0 49 -21 69.5t-59 20.5h-49v-184z" />
    <glyph glyph-name="macron" unicode="&#xaf;" horiz-adv-x="1024" 
d="M174 1210v154h676v-154h-676z" />
    <glyph glyph-name="degree" unicode="&#xb0;" horiz-adv-x="786" 
d="M80 1145q0 131 93.5 220t215.5 89q137 0 227.5 -78.5t90.5 -228.5q0 -125 -94.5 -212t-223.5 -87q-134 0 -221.5 78t-87.5 219zM229 1153q0 -121 41.5 -205t124.5 -84q70 0 115 81.5t45 197.5q0 82 -16.5 146.5t-54.5 105.5t-93 41q-80 0 -121 -83.5t-41 -199.5z" />
    <glyph glyph-name="plusminus" unicode="&#xb1;" horiz-adv-x="1153" 
d="M82 582v84h450v442h86v-442h451v-84h-451v-441h-86v441h-450zM111 0v84h933v-84h-933z" />
    <glyph glyph-name="uni00B2" unicode="&#xb2;" horiz-adv-x="940" 
d="M133 1235q0 48 29.5 99.5t80 94.5t126 71t159.5 28q149 0 238.5 -64.5t89.5 -165.5q0 -66 -26 -119t-85.5 -101.5t-137 -90t-199.5 -94.5q-11 -6 -51 -32.5t-54 -37.5h434q32 0 62.5 23t44.5 43t47 72q5 8 8 12l12 -6l-125 -277h-647v53q150 94 234 153t151 122
q83 81 115.5 153t32.5 164q0 76 -44 125t-118 49q-70 0 -128 -39t-88 -93t-30 -107q0 -44 24 -74.5t79 -30.5q52 0 96.5 36t71.5 79l12 -8q-100 -176 -262 -176q-74 0 -113 36.5t-39 102.5z" />
    <glyph glyph-name="uni00B3" unicode="&#xb3;" horiz-adv-x="937" 
d="M92 870q0 55 38 92t87 37q39 0 62.5 -21.5t23.5 -59.5q0 -25 -14.5 -43t-32.5 -25.5t-32.5 -19.5t-14.5 -27q0 -42 47.5 -73.5t128.5 -31.5q108 0 190 86.5t82 194.5q0 71 -27.5 116.5t-88.5 45.5q-56 0 -162 -97l-25 35q46 23 69 35t60.5 33t56.5 35.5t43.5 36.5
t36.5 42.5t20.5 46.5t8.5 54q0 65 -36.5 106t-100.5 41q-65 0 -134 -53.5t-69 -126.5q0 -38 19.5 -61t60.5 -23q16 0 30.5 3.5t28.5 11.5t21 12.5t20.5 15.5t14.5 12l8 -8q-32 -41 -86.5 -73.5t-110.5 -32.5q-72 0 -108.5 30t-36.5 82q0 87 116.5 158.5t266.5 71.5
q140 0 206 -51t66 -123q0 -62 -70 -115t-208 -78q130 5 212.5 -39t82.5 -143q0 -131 -131.5 -215t-323.5 -84q-73 0 -138 19.5t-111 64t-46 106.5z" />
    <glyph glyph-name="acute" unicode="&#xb4;" horiz-adv-x="1024" 
d="M322 1094q35 61 74 131.5t63 113.5t45 76q32 55 64 80t75 25q44 0 72 -27t28 -63q0 -43 -23 -71t-79 -65q-12 -9 -115 -77.5t-194 -135.5z" />
    <glyph glyph-name="uni00B5" unicode="&#xb5;" horiz-adv-x="1200" 
d="M106 -358q0 56 23 157t25 117q10 82 10 213v811h235v-664q0 -98 44.5 -153t113.5 -55q134 0 199 110v762h235v-750q0 -45 23.5 -75.5t64.5 -30.5q51 0 79.5 47t33.5 113h18q-9 -140 -65 -201t-160 -61q-173 0 -225 157h-6q-64 -80 -134.5 -119.5t-160.5 -39.5
q-174 0 -258 147h-4v-123q0 -69 46 -187.5t46 -168.5q0 -53 -27 -82t-65 -29q-37 0 -64 29.5t-27 75.5z" />
    <glyph glyph-name="paragraph" unicode="&#xb6;" horiz-adv-x="1263" 
d="M121 1022q0 49 11.5 98t41 100t74 90t116.5 64t162 25h695v-33h-291v-1622h-41v1622h-205v-1622h-41v915h-61q-105 0 -187.5 22.5t-133 58.5t-83 85t-45 97t-12.5 100z" />
    <glyph glyph-name="periodcentered" unicode="&#xb7;" horiz-adv-x="530" 
d="M106 559q0 66 46.5 112t111.5 46t111.5 -46t46.5 -112q0 -65 -46.5 -110.5t-111.5 -45.5t-111.5 45.5t-46.5 110.5z" />
    <glyph glyph-name="cedilla" unicode="&#xb8;" horiz-adv-x="1024" 
d="M287 -449q58 0 99 4t85.5 16.5t68 40.5t23.5 71q0 47 -39 64t-108 17v236h26v-104q285 4 285 -168q0 -43 -15.5 -76.5t-46 -55.5t-68 -37t-90.5 -22.5t-104 -10.5t-116 -3v28z" />
    <glyph glyph-name="uni00B9" unicode="&#xb9;" horiz-adv-x="706" 
d="M37 1499l4 8q94 -32 164 -32q72 0 144 18.5t116 40.5h12q-18 -76 -18 -209v-532q0 -45 47 -64q39 -13 139 -20v-15h-555v15q116 7 143 14q22 6 36 23.5t14 41.5v650q-24 -6 -64 -6q-95 0 -182 67z" />
    <glyph glyph-name="ordmasculine" unicode="&#xba;" horiz-adv-x="751" 
d="M76 973q0 133 86.5 215t214.5 82q131 0 215 -80.5t84 -212.5q0 -133 -84.5 -218t-220.5 -85q-56 0 -108.5 19.5t-94 56t-67 94.5t-25.5 129zM102 487v52h547v-52h-547zM244 979q0 -56 6 -103.5t20.5 -90.5t41.5 -68t65 -25q37 0 64 24.5t41 67t20 90t6 103.5q0 53 -6 98
t-20 86.5t-41 65.5t-64 24q-39 0 -66.5 -25t-41 -68t-19.5 -86.5t-6 -92.5z" />
    <glyph glyph-name="guillemotright" unicode="&#xbb;" horiz-adv-x="1142" 
d="M111 45l290 410l-290 415l10 9q73 -57 248.5 -186.5t201.5 -149.5q28 -21 36.5 -36.5t8.5 -47.5q0 -34 -9 -49.5t-40 -38.5q-47 -34 -446 -334zM551 45l289 410l-289 415l6 9q77 -59 260 -193.5t193 -142.5q28 -21 36.5 -36.5t8.5 -47.5q0 -33 -9.5 -48.5t-39.5 -39.5
q-54 -39 -230.5 -171t-218.5 -163z" />
    <glyph glyph-name="onequarter" unicode="&#xbc;" horiz-adv-x="1159" 
d="M84 500v59h989v-59h-989zM170 -143l524 520h76v-506h21q46 0 68 0.5t47 4.5t38 13q18 13 29.5 43.5t11.5 57.5h12v-309h-12q-4 79 -43 110q-5 4 -12 6.5t-18 4t-20 2.5t-25.5 1h-28h-33h-35.5v-176q0 -49 41 -63q36 -14 102 -19v-12h-454v12q78 6 102 13q43 13 43 61v184
h-434v52zM219 -129h385v383zM260 1499l4 8q94 -32 164 -32q72 0 144 18.5t116 40.5h12q-18 -76 -18 -209v-532q0 -45 47 -64q39 -13 139 -20v-15h-555v15q117 8 144 14q49 14 49 65v650q-24 -6 -64 -6q-95 0 -182 67z" />
    <glyph glyph-name="onehalf" unicode="&#xbd;" horiz-adv-x="1159" 
d="M84 500v59h989v-59h-989zM231 80q0 48 30 99.5t81 94.5t127 71t160 28q147 0 236 -64.5t89 -165.5q0 -127 -101.5 -214t-344.5 -191q-13 -7 -54.5 -33.5t-52.5 -36.5h437q24 0 45.5 10.5t39.5 30.5t33.5 42t33.5 52l9 15l11 -6l-125 -277h-647v53q155 97 237.5 155
t147.5 120q83 80 115 152t32 165q0 77 -43 125.5t-117 48.5q-70 0 -128.5 -39t-89 -93.5t-30.5 -106.5q0 -44 24 -74.5t79 -30.5q54 0 97 35.5t71 79.5l12 -8q-101 -178 -262 -178q-73 0 -112.5 38t-39.5 103zM260 1499l4 8q94 -32 164 -32q72 0 144 18.5t116 40.5h12
q-18 -76 -18 -209v-532q0 -45 47 -64q39 -13 139 -20v-15h-555v15q117 8 144 14q49 14 49 65v650q-24 -6 -64 -6q-95 0 -182 67z" />
    <glyph glyph-name="threequarters" unicode="&#xbe;" horiz-adv-x="1159" 
d="M84 500v59h989v-59h-989zM170 -143l524 520h76v-506h21q46 0 68 0.5t47 4.5t38 13q18 13 29.5 43.5t11.5 57.5h12v-309h-12q-4 79 -43 110q-5 4 -12 6.5t-18 4t-20 2.5t-25.5 1h-28h-33h-35.5v-176q0 -49 41 -63q36 -14 102 -19v-12h-454v12q78 6 102 13q43 13 43 61v184
h-434v52zM188 870q0 55 38 92t87 37q40 0 63 -21.5t23 -59.5q0 -25 -14.5 -43t-32.5 -25.5t-32.5 -19.5t-14.5 -27q0 -42 48 -74.5t128 -32.5q108 0 190.5 87.5t82.5 195.5q0 70 -29 117t-90 47q-24 0 -56 -18.5t-52 -35t-52 -45.5l-22 35q62 31 95 48.5t77 47t66 54
t38 59.5t16 74q0 65 -36.5 106t-100.5 41q-65 0 -132.5 -53.5t-67.5 -126.5q0 -38 19 -61t58 -23q16 0 30.5 3.5t28.5 11.5t21 12.5t20.5 15.5t14.5 12l6 -8q-33 -42 -85.5 -74t-108.5 -32q-73 0 -109.5 29.5t-36.5 82.5q0 57 53 110t142.5 86.5t189.5 33.5q139 0 206 -51
t67 -123q0 -61 -71.5 -114.5t-211.5 -78.5q131 5 215 -39t84 -143q0 -131 -132 -215t-323 -84q-74 0 -139 19.5t-111.5 64t-46.5 106.5zM219 -129h385v383z" />
    <glyph glyph-name="questiondown" unicode="&#xbf;" horiz-adv-x="1007" 
d="M123 381q0 187 134.5 309t360.5 137l13 185h22l2 -381q-150 -18 -226.5 -89.5t-76.5 -219.5q0 -159 58 -241.5t165 -82.5q45 0 89 16.5t63 40.5q-3 8 -16.5 39.5t-21 60t-7.5 62.5q0 61 41 98t94 37q65 0 98 -39t33 -102q0 -93 -109 -164.5t-272 -71.5q-207 0 -325.5 111
t-118.5 295zM477 1278q0 64 45.5 109t110.5 45t110 -45t45 -109q0 -65 -45.5 -110.5t-109.5 -45.5q-65 0 -110.5 46t-45.5 110z" />
    <glyph glyph-name="Agrave" unicode="&#xc0;" horiz-adv-x="1415" 
d="M-49 0v14q78 4 121 31q64 40 116 162q291 693 498 1214h72q86 -216 283 -715t223 -563q14 -36 31 -60t51 -42q45 -23 118 -27v-14h-696v14q210 12 217 70q3 26 -8 49l-141 375h-486q-80 -202 -106 -285q-29 -101 -29 -125q0 -71 238 -83q7 -1 10 -1v-14h-512zM362 541
h459l-225 577zM451 1833q0 36 28 63t72 27q43 0 74.5 -24t64.5 -80q25 -41 84 -148.5t98 -175.5l-10 -10q-69 50 -128.5 91t-113 76t-69.5 46q-55 38 -77.5 65t-22.5 70z" />
    <glyph glyph-name="Aacute" unicode="&#xc1;" horiz-adv-x="1415" 
d="M-49 0v14q78 4 121 31q64 40 116 162q291 693 498 1214h72q86 -216 283 -715t223 -563q14 -36 31 -60t51 -42q45 -23 118 -27v-14h-696v14q210 12 217 70q3 26 -8 49l-141 375h-486q-80 -202 -106 -285q-29 -101 -29 -125q0 -71 238 -83q7 -1 10 -1v-14h-512zM362 541
h459l-225 577zM510 1499q35 62 73.5 131.5t63 113.5t45.5 77q32 54 64 79t75 25q44 0 72.5 -27.5t28.5 -62.5q0 -43 -23 -70t-80 -65q-12 -9 -115 -77.5t-194 -135.5z" />
    <glyph glyph-name="Acircumflex" unicode="&#xc2;" horiz-adv-x="1415" 
d="M-49 0v14q78 4 121 31q64 40 116 162q291 693 498 1214h72q86 -216 283 -715t223 -563q14 -36 31 -60t51 -42q45 -23 118 -27v-14h-696v14q210 12 217 70q3 26 -8 49l-141 375h-486q-80 -202 -106 -285q-29 -101 -29 -125q0 -71 238 -83q7 -1 10 -1v-14h-512zM362 541
h459l-225 577zM369 1518q49 75 126 197t103 161q18 27 36 35t66 8q45 0 63 -8t34 -31q47 -69 231 -362l-18 -15l-314 250l-311 -250z" />
    <glyph glyph-name="Atilde" unicode="&#xc3;" horiz-adv-x="1415" 
d="M-49 0v14q78 4 121 31q64 40 116 162q291 693 498 1214h72q86 -216 283 -715t223 -563q14 -36 31 -60t51 -42q45 -23 118 -27v-14h-696v14q210 12 217 70q3 26 -8 49l-141 375h-486q-80 -202 -106 -285q-29 -101 -29 -125q0 -71 238 -83q7 -1 10 -1v-14h-512zM303 1546
q12 33 27.5 66t40.5 71.5t53.5 67t66.5 47.5t78 19q65 0 127.5 -28.5t116 -56.5t96.5 -28q118 0 176 133l23 -6q-12 -42 -35 -86.5t-57 -87.5t-81.5 -70.5t-98.5 -27.5q-52 0 -102 17t-82 38t-72.5 38t-77.5 17q-56 0 -97.5 -31t-78.5 -100zM362 541h459l-225 577z" />
    <glyph glyph-name="Adieresis" unicode="&#xc4;" horiz-adv-x="1415" 
d="M-49 0v14q78 4 121 31q64 40 116 162q291 693 498 1214h72q86 -216 283 -715t223 -563q14 -36 31 -60t51 -42q45 -23 118 -27v-14h-696v14q210 12 217 70q3 26 -8 49l-141 375h-486q-80 -202 -106 -285q-29 -101 -29 -125q0 -71 238 -83q7 -1 10 -1v-14h-512zM348 1698
q0 57 39.5 98t93.5 41q56 0 95.5 -40t39.5 -95q0 -57 -39 -98t-96 -41q-54 0 -93.5 40t-39.5 95zM362 541h459l-225 577zM797 1698q0 57 39 98t94 41q56 0 95.5 -40t39.5 -95q0 -57 -40 -98t-95 -41t-94 39.5t-39 95.5z" />
    <glyph glyph-name="Aring" unicode="&#xc5;" horiz-adv-x="1415" 
d="M-49 0v14q78 4 121 31q64 40 116 162q291 693 498 1214h72q86 -216 283 -715t223 -563q14 -36 31 -60t51 -42q45 -23 118 -27v-14h-696v14q210 12 217 70q3 26 -8 49l-141 375h-486q-80 -202 -106 -285q-29 -101 -29 -125q0 -71 238 -83q7 -1 10 -1v-14h-512zM362 541
h459l-225 577zM461 1694q0 92 71.5 150.5t174.5 58.5q107 0 176 -57.5t69 -151.5q0 -92 -67 -150.5t-178 -58.5q-112 0 -179 57.5t-67 151.5zM586 1694q0 -76 29.5 -130.5t91.5 -54.5t91 54t29 131q0 76 -29 131t-91 55q-42 0 -70 -27.5t-39.5 -68t-11.5 -90.5z" />
    <glyph glyph-name="AE" unicode="&#xc6;" horiz-adv-x="2045" 
d="M-51 0v14q82 4 141 39q70 36 174 213l633 1096q-29 10 -205 20v17h1209v-340h-21q-14 49 -55 117t-97.5 126t-101.5 64q-82 10 -194 10h-199v-639h172q52 0 90.5 12t52.5 22.5t33 29.5q25 25 52 94t34 113h19v-576h-19q-4 45 -34 119t-52 98q-18 19 -34.5 31t-53.5 22.5
t-88 10.5h-172v-508q0 -63 7 -96t34.5 -53.5t68.5 -25.5t121 -5q93 0 134.5 1t100 12t81.5 34q49 50 115.5 162.5t93.5 175.5h18l-27 -410h-1237v14q89 4 152 21q35 13 49 36t14 62v449h-471l-192 -342q-39 -72 -39 -127q0 -25 23 -44t60.5 -29.5t76 -16t78.5 -7.5v-16h-545
zM506 614h452v746h-28z" />
    <glyph glyph-name="Ccedilla" unicode="&#xc7;" horiz-adv-x="1357" 
d="M72 682q0 213 93.5 384t259.5 267.5t372 96.5q115 0 215 -31t164 -76l67 96h21l8 -514h-21q-71 227 -193.5 361.5t-285.5 134.5q-189 0 -291 -183t-102 -509q0 -305 116 -484.5t332 -179.5q312 0 473 328l27 -13q-28 -64 -63.5 -119t-86.5 -106t-111 -87t-138.5 -57.5
t-167.5 -21.5q-9 0 -27 1t-26 1v-82q284 4 284 -165q0 -43 -15.5 -76.5t-46 -55.5t-68 -37t-90.5 -22.5t-104 -10.5t-116 -3v26q37 0 65 1.5t62.5 5.5t58.5 13t46 23t33 36.5t11 51.5q0 48 -39 65t-110 17v215q-270 25 -438 216t-168 493z" />
    <glyph glyph-name="Egrave" unicode="&#xc8;" horiz-adv-x="1374" 
d="M70 0v14q98 4 153 23q64 21 64 96v1122q0 80 -64 103q-57 22 -153 26v15h1157v-340h-21q-14 49 -55 117t-97.5 126t-101.5 64q-82 10 -192 10h-201v-639h172q53 0 91.5 11.5t53 22.5t31.5 30q26 24 52.5 93t33.5 114h21v-576h-21q-4 45 -34 119t-52 98q-26 30 -63.5 47
t-112.5 17h-172v-508q0 -42 3 -69t13.5 -48.5t25 -32.5t43 -18.5t61.5 -9.5t86 -2q93 0 134.5 1t99.5 12t81 34q48 49 114 160t97 178h18l-26 -410h-1239zM461 1833q0 36 28 63t72 27q43 0 74.5 -24t64.5 -80q26 -42 86.5 -151.5t96.5 -172.5l-11 -10q-69 50 -128.5 91
t-113 76t-69.5 46q-55 38 -77.5 65t-22.5 70z" />
    <glyph glyph-name="Eacute" unicode="&#xc9;" horiz-adv-x="1374" 
d="M70 0v14q98 4 153 23q64 21 64 96v1122q0 80 -64 103q-57 22 -153 26v15h1157v-340h-21q-14 49 -55 117t-97.5 126t-101.5 64q-82 10 -192 10h-201v-639h172q53 0 91.5 11.5t53 22.5t31.5 30q26 24 52.5 93t33.5 114h21v-576h-21q-4 45 -34 119t-52 98q-26 30 -63.5 47
t-112.5 17h-172v-508q0 -42 3 -69t13.5 -48.5t25 -32.5t43 -18.5t61.5 -9.5t86 -2q93 0 134.5 1t99.5 12t81 34q48 49 114 160t97 178h18l-26 -410h-1239zM602 1497q35 62 73.5 131.5t63 113.5t45.5 77q32 54 64.5 79t75.5 25q44 0 72 -27t28 -63q0 -43 -22.5 -70.5
t-79.5 -64.5q-13 -9 -116 -78t-194 -135z" />
    <glyph glyph-name="Ecircumflex" unicode="&#xca;" horiz-adv-x="1374" 
d="M70 0v14q98 4 153 23q64 21 64 96v1122q0 80 -64 103q-57 22 -153 26v15h1157v-340h-21q-14 49 -55 117t-97.5 126t-101.5 64q-82 10 -192 10h-201v-639h172q53 0 91.5 11.5t53 22.5t31.5 30q26 24 52.5 93t33.5 114h21v-576h-21q-4 45 -34 119t-52 98q-26 30 -63.5 47
t-112.5 17h-172v-508q0 -42 3 -69t13.5 -48.5t25 -32.5t43 -18.5t61.5 -9.5t86 -2q93 0 134.5 1t99.5 12t81 34q48 49 114 160t97 178h18l-26 -410h-1239zM381 1518q49 75 126 197t103 161q18 27 36.5 35t66.5 8q45 0 62.5 -8t33.5 -31q47 -69 231 -362l-18 -15l-313 250
l-312 -250z" />
    <glyph glyph-name="Edieresis" unicode="&#xcb;" horiz-adv-x="1374" 
d="M70 0v14q98 4 153 23q64 21 64 96v1122q0 80 -64 103q-57 22 -153 26v15h1157v-340h-21q-14 49 -55 117t-97.5 126t-101.5 64q-82 10 -192 10h-201v-639h172q53 0 91.5 11.5t53 22.5t31.5 30q26 24 52.5 93t33.5 114h21v-576h-21q-4 45 -34 119t-52 98q-26 30 -63.5 47
t-112.5 17h-172v-508q0 -42 3 -69t13.5 -48.5t25 -32.5t43 -18.5t61.5 -9.5t86 -2q93 0 134.5 1t99.5 12t81 34q48 49 114 160t97 178h18l-26 -410h-1239zM356 1700q0 57 39.5 98t93.5 41q56 0 96 -40t40 -95q0 -57 -39.5 -98t-96.5 -41q-54 0 -93.5 40t-39.5 95zM805 1700
q0 57 39 98t94 41q56 0 95.5 -40t39.5 -95q0 -57 -40 -98t-95 -41t-94 39.5t-39 95.5z" />
    <glyph glyph-name="Igrave" unicode="&#xcc;" horiz-adv-x="851" 
d="M80 0v14q103 5 147 21q64 21 64 96v1124q0 79 -64 103q-65 22 -147 26v15h694v-15q-86 -5 -147 -22q-64 -20 -64 -100v-1123q0 -77 64 -102q46 -18 147 -23v-14h-694zM164 1833q0 36 28 63t72 27q43 0 74.5 -24t64.5 -80q26 -42 86.5 -151.5t96.5 -172.5l-11 -10
q-69 50 -128.5 91t-113 76t-69.5 46q-55 38 -77.5 65t-22.5 70z" />
    <glyph glyph-name="Iacute" unicode="&#xcd;" horiz-adv-x="851" 
d="M80 0v14q103 5 147 21q64 21 64 96v1124q0 79 -64 103q-65 22 -147 26v15h694v-15q-86 -5 -147 -22q-64 -20 -64 -100v-1123q0 -77 64 -102q46 -18 147 -23v-14h-694zM256 1497q35 62 73.5 131.5t63 113.5t45.5 77q32 54 64.5 79t75.5 25q44 0 72 -27t28 -63
q0 -43 -23 -70t-80 -65q-12 -9 -115 -77.5t-194 -135.5z" />
    <glyph glyph-name="Icircumflex" unicode="&#xce;" horiz-adv-x="851" 
d="M80 0v14q103 5 147 21q64 21 64 96v1124q0 79 -64 103q-65 22 -147 26v15h694v-15q-86 -5 -147 -22q-64 -20 -64 -100v-1123q0 -77 64 -102q46 -18 147 -23v-14h-694zM86 1518q49 75 126 197t103 161q18 27 36.5 35t66.5 8q45 0 62.5 -8t33.5 -31q47 -69 231 -362
l-18 -15l-313 250l-312 -250z" />
    <glyph glyph-name="Idieresis" unicode="&#xcf;" horiz-adv-x="851" 
d="M57 1700q0 57 39.5 98t93.5 41q56 0 96 -40t40 -95q0 -57 -39.5 -98t-96.5 -41q-54 0 -93.5 40t-39.5 95zM80 0v14q103 5 147 21q64 21 64 96v1124q0 79 -64 103q-65 22 -147 26v15h694v-15q-86 -5 -147 -22q-64 -20 -64 -100v-1123q0 -77 64 -102q46 -18 147 -23v-14
h-694zM506 1700q0 57 39 98t94 41q56 0 95.5 -40t39.5 -95q0 -57 -40 -98t-95 -41t-94 39.5t-39 95.5z" />
    <glyph glyph-name="Eth" unicode="&#xd0;" horiz-adv-x="1597" 
d="M76 0v14q101 4 147 21q64 21 64 96v582h-189v49h189v493q0 81 -64 105q-51 20 -143 24v15h678q65 0 133 -9.5t145 -33t146 -59.5t133 -93t110.5 -128t74.5 -170.5t28 -215.5q0 -139 -45 -254.5t-122 -195t-180.5 -134.5t-219 -80.5t-238.5 -25.5h-647zM559 170
q5 -73 52 -109t145 -36q118 0 207.5 48t144.5 137t82 209.5t27 272.5q0 305 -137 494.5t-365 189.5q-74 0 -156 -4v-610h281v-49h-281v-543z" />
    <glyph glyph-name="Ntilde" unicode="&#xd1;" horiz-adv-x="1564" 
d="M10 1382v17h467l807 -1020v665q0 237 -70 295q-47 38 -200 45v15h557v-15q-3 0 -22.5 -2t-32.5 -3.5t-34.5 -5.5t-37.5 -8t-33.5 -11t-28.5 -15q-65 -46 -65 -292v-1057h-62l-942 1196v-840q0 -124 16.5 -190t51.5 -93q25 -20 91.5 -33.5t109.5 -15.5v-14h-555v14
q151 17 188 45q66 52 66 281v809q0 47 -19 94t-51 76q-51 45 -201 63zM418 1546q12 33 27.5 66t40.5 71.5t53.5 67t66.5 47.5t78 19q65 0 127.5 -28.5t116 -56.5t96.5 -28q118 0 176 133l23 -6q-9 -33 -25.5 -68t-42 -72t-55 -66t-69 -47.5t-81.5 -18.5q-52 0 -102 17
t-82 38t-72.5 38t-77.5 17q-56 0 -97.5 -31t-78.5 -100z" />
    <glyph glyph-name="Ograve" unicode="&#xd2;" horiz-adv-x="1593" 
d="M72 684q0 343 215 549q208 199 510 199q306 0 514 -199q99 -94 154 -229t55 -295q0 -350 -222 -553q-198 -189 -510 -189q-143 0 -271 49.5t-228 143.5q-217 204 -217 524zM383 694q0 -150 24.5 -274.5t73 -221.5t129.5 -151.5t187 -54.5t186 53.5t129 150.5t73.5 224.5
t24.5 281.5q0 92 -9.5 176t-29 164.5t-52.5 145.5t-77.5 115t-107 77t-137.5 27q-197 0 -305.5 -188.5t-108.5 -524.5zM553 1833q0 36 28 63t72 27q43 0 75 -24.5t65 -79.5q25 -41 84 -148.5t98 -175.5l-10 -10q-68 50 -128.5 91.5t-113.5 75.5t-70 46q-55 38 -77.5 65
t-22.5 70z" />
    <glyph glyph-name="Oacute" unicode="&#xd3;" horiz-adv-x="1593" 
d="M72 684q0 343 215 549q208 199 510 199q306 0 514 -199q99 -94 154 -229t55 -295q0 -350 -222 -553q-198 -189 -510 -189q-143 0 -271 49.5t-228 143.5q-217 204 -217 524zM383 694q0 -150 24.5 -274.5t73 -221.5t129.5 -151.5t187 -54.5t186 53.5t129 150.5t73.5 224.5
t24.5 281.5q0 92 -9.5 176t-29 164.5t-52.5 145.5t-77.5 115t-107 77t-137.5 27q-197 0 -305.5 -188.5t-108.5 -524.5zM588 1495q35 62 73.5 131.5t63 113.5t45.5 77q32 54 64 79t75 25q44 0 72.5 -27.5t28.5 -62.5q0 -43 -23 -70t-80 -65q-12 -9 -115 -77.5t-194 -135.5z
" />
    <glyph glyph-name="Ocircumflex" unicode="&#xd4;" horiz-adv-x="1593" 
d="M72 684q0 343 215 549q208 199 510 199q306 0 514 -199q99 -94 154 -229t55 -295q0 -350 -222 -553q-198 -189 -510 -189q-143 0 -271 49.5t-228 143.5q-217 204 -217 524zM383 694q0 -150 24.5 -274.5t73 -221.5t129.5 -151.5t187 -54.5t186 53.5t129 150.5t73.5 224.5
t24.5 281.5q0 92 -9.5 176t-29 164.5t-52.5 145.5t-77.5 115t-107 77t-137.5 27q-197 0 -305.5 -188.5t-108.5 -524.5zM457 1518q49 75 126 197t103 161q18 27 36 35t66 8q45 0 63 -8t34 -31q47 -69 231 -362l-18 -15l-314 250l-311 -250z" />
    <glyph glyph-name="Otilde" unicode="&#xd5;" horiz-adv-x="1593" 
d="M72 684q0 343 215 549q208 199 510 199q306 0 514 -199q99 -94 154 -229t55 -295q0 -350 -222 -553q-198 -189 -510 -189q-143 0 -271 49.5t-228 143.5q-217 204 -217 524zM383 694q0 -150 24.5 -274.5t73 -221.5t129.5 -151.5t187 -54.5t186 53.5t129 150.5t73.5 224.5
t24.5 281.5q0 92 -9.5 176t-29 164.5t-52.5 145.5t-77.5 115t-107 77t-137.5 27q-197 0 -305.5 -188.5t-108.5 -524.5zM383 1546q12 33 27.5 66t40.5 71.5t53.5 67t66.5 47.5t78 19q65 0 127.5 -28.5t116 -56.5t96.5 -28q118 0 176 133l23 -6q-9 -33 -25.5 -68t-42 -72
t-55 -66t-69 -47.5t-81.5 -18.5q-52 0 -102 17t-81.5 38t-72 38t-77.5 17q-56 0 -97.5 -31t-78.5 -100z" />
    <glyph glyph-name="Odieresis" unicode="&#xd6;" horiz-adv-x="1593" 
d="M72 684q0 343 215 549q208 199 510 199q306 0 514 -199q99 -94 154 -229t55 -295q0 -350 -222 -553q-198 -189 -510 -189q-143 0 -271 49.5t-228 143.5q-217 204 -217 524zM383 694q0 -150 24.5 -274.5t73 -221.5t129.5 -151.5t187 -54.5t186 53.5t129 150.5t73.5 224.5
t24.5 281.5q0 92 -9.5 176t-29 164.5t-52.5 145.5t-77.5 115t-107 77t-137.5 27q-197 0 -305.5 -188.5t-108.5 -524.5zM428 1700q0 57 39.5 98t93.5 41q56 0 95.5 -40t39.5 -95q0 -57 -39 -98t-96 -41q-54 0 -93.5 40t-39.5 95zM877 1700q0 57 39 98t94 41q56 0 95.5 -40
t39.5 -95q0 -57 -40 -98t-95 -41t-94 39.5t-39 95.5z" />
    <glyph glyph-name="multiply" unicode="&#xd7;" horiz-adv-x="1150" 
d="M125 135l397 393l-391 392l59 59l390 -389l389 389l53 -55l-389 -389l393 -392l-57 -61l-396 393l-393 -395z" />
    <glyph glyph-name="Oslash" unicode="&#xd8;" horiz-adv-x="1593" 
d="M72 684q0 343 215 549q208 199 510 199q286 0 489 -177l184 199l25 -18l-186 -201q101 -98 156 -233t55 -293q0 -350 -222 -553q-198 -189 -510 -189q-284 0 -483 178l-196 -213l-25 21l197 213q-209 203 -209 518zM383 694q0 -218 49 -364l717 778q-47 140 -134 219.5
t-218 79.5q-197 0 -305.5 -188.5t-108.5 -524.5zM442 295q49 -143 138 -223t217 -80q106 0 186 53.5t129 150.5t73.5 224.5t24.5 281.5q0 218 -51 371z" />
    <glyph glyph-name="Ugrave" unicode="&#xd9;" horiz-adv-x="1605" 
d="M55 1384v15h688v-15q-84 -5 -145 -22q-63 -20 -63 -100v-844q0 -82 16.5 -146t55 -117t109 -81.5t169.5 -28.5q200 0 313 112.5t113 284.5v617q0 225 -70 276q-61 42 -199 49v15h555v-15q-46 -2 -103 -13.5t-85 -31.5q-37 -25 -51.5 -91t-14.5 -181v-633
q0 -97 -31 -176.5t-82.5 -132.5t-120 -89.5t-141 -52.5t-147.5 -16q-135 0 -242.5 34.5t-176.5 95t-105.5 141.5t-36.5 176v843q0 69 -63 103q-35 17 -142 24zM612 1833q0 35 28.5 62.5t72.5 27.5q43 0 74.5 -24t64.5 -80q25 -41 84 -148.5t98 -175.5l-10 -10
q-69 50 -128.5 91t-113 76t-69.5 46q-56 38 -78.5 65.5t-22.5 69.5z" />
    <glyph glyph-name="Uacute" unicode="&#xda;" horiz-adv-x="1605" 
d="M55 1384v15h688v-15q-84 -5 -145 -22q-63 -20 -63 -100v-844q0 -82 16.5 -146t55 -117t109 -81.5t169.5 -28.5q200 0 313 112.5t113 284.5v617q0 225 -70 276q-61 42 -199 49v15h555v-15q-46 -2 -103 -13.5t-85 -31.5q-37 -25 -51.5 -91t-14.5 -181v-633
q0 -97 -31 -176.5t-82.5 -132.5t-120 -89.5t-141 -52.5t-147.5 -16q-135 0 -242.5 34.5t-176.5 95t-105.5 141.5t-36.5 176v843q0 69 -63 103q-35 17 -142 24zM700 1497q34 60 74 131.5t64 114t45 76.5q32 54 64 79t75 25q44 0 72 -27t28 -63q0 -43 -22.5 -70.5t-79.5 -64.5
q-12 -9 -115 -77.5t-194 -135.5z" />
    <glyph glyph-name="Ucircumflex" unicode="&#xdb;" horiz-adv-x="1605" 
d="M55 1384v15h688v-15q-84 -5 -145 -22q-63 -20 -63 -100v-844q0 -82 16.5 -146t55 -117t109 -81.5t169.5 -28.5q200 0 313 112.5t113 284.5v617q0 225 -70 276q-61 42 -199 49v15h555v-15q-46 -2 -103 -13.5t-85 -31.5q-37 -25 -51.5 -91t-14.5 -181v-633
q0 -97 -31 -176.5t-82.5 -132.5t-120 -89.5t-141 -52.5t-147.5 -16q-135 0 -242.5 34.5t-176.5 95t-105.5 141.5t-36.5 176v843q0 69 -63 103q-35 17 -142 24zM537 1518q49 75 126 197t103 161q18 27 36 35t66 8q45 0 63 -8t34 -31q47 -69 231 -362l-18 -15l-314 250
l-311 -250z" />
    <glyph glyph-name="Udieresis" unicode="&#xdc;" horiz-adv-x="1605" 
d="M55 1384v15h688v-15q-84 -5 -145 -22q-63 -20 -63 -100v-844q0 -82 16.5 -146t55 -117t109 -81.5t169.5 -28.5q200 0 313 112.5t113 284.5v617q0 225 -70 276q-61 42 -199 49v15h555v-15q-46 -2 -103 -13.5t-85 -31.5q-37 -25 -51.5 -91t-14.5 -181v-633
q0 -97 -31 -176.5t-82.5 -132.5t-120 -89.5t-141 -52.5t-147.5 -16q-135 0 -242.5 34.5t-176.5 95t-105.5 141.5t-36.5 176v843q0 69 -63 103q-35 17 -142 24zM516 1700q0 57 39.5 98t93.5 41q56 0 95.5 -40t39.5 -95q0 -57 -39 -98t-96 -41q-54 0 -93.5 40t-39.5 95z
M965 1700q0 57 39 98t94 41q56 0 95.5 -40t39.5 -95q0 -57 -40 -98t-95 -41t-94 39.5t-39 95.5z" />
    <glyph glyph-name="Yacute" unicode="&#xdd;" horiz-adv-x="1366" 
d="M-59 1384v15h723v-15q-213 -12 -213 -63q0 -28 94 -203l105 -192q104 -192 157 -283q135 229 256 449q94 174 94 206q0 71 -227 86v15h479v-15q-60 -7 -98 -28q-39 -22 -66 -51t-57 -76q-114 -178 -307 -527q-43 -80 -54.5 -129.5t-11.5 -136.5v-295q0 -74 62 -102
q17 -7 75 -15t90 -10v-14h-731v14q128 7 166 21q64 24 64 102v357q0 45 -12.5 83.5t-45.5 100.5q-151 292 -293 532q-65 107 -127 144q-49 26 -122 30zM618 1497q34 60 74 131.5t64 114t45 76.5q32 54 64 79t75 25q44 0 72 -27t28 -63q0 -43 -22.5 -70.5t-79.5 -64.5
q-12 -9 -115 -77.5t-194 -135.5z" />
    <glyph glyph-name="Thorn" unicode="&#xde;" horiz-adv-x="1300" 
d="M68 1384v15h702v-15q-102 -6 -147 -20q-64 -21 -64 -96v-172h225q217 0 343 -88t126 -252q0 -105 -47.5 -189t-128 -135.5t-179.5 -78.5t-208 -27h-131v-187q0 -78 64 -102q18 -7 68.5 -14t92.5 -9v-14h-712v14q104 6 151 23q64 24 64 100v1118q0 80 -64 103
q-65 21 -155 26zM559 354h72q75 0 133 24t92 61t55.5 86t29 93t7.5 89q0 56 -8 106t-28.5 98t-51.5 82t-81 55t-113 21h-107v-715z" />
    <glyph glyph-name="germandbls" unicode="&#xdf;" horiz-adv-x="1241" 
d="M-6 899v33h199v53q0 263 137 412q124 133 340 133q143 0 243.5 -72.5t100.5 -193.5q0 -161 -140 -248q-21 -14 -56.5 -34.5t-52.5 -31.5t-31.5 -29t-14.5 -38q0 -41 53.5 -92.5t196.5 -151.5q128 -86 175.5 -157.5t47.5 -184.5q0 -140 -98 -233t-246 -93
q-144 0 -217.5 60t-73.5 151q0 60 29 100t84 40q51 0 76.5 -30.5t25.5 -78.5q0 -29 -21.5 -69t-21.5 -58q0 -35 34.5 -64.5t92.5 -29.5q76 0 123 56t47 132q0 71 -41 129.5t-164 139.5q-110 67 -166.5 131.5t-56.5 146.5q0 41 16.5 78t36 60t57 62t58.5 66q61 77 61 217
q0 142 -50 220.5t-138 78.5q-109 0 -157.5 -101.5t-53.5 -336.5v-1071h-379v14q53 3 88 15q56 17 56 92v778h-199z" />
    <glyph glyph-name="agrave" unicode="&#xe0;" horiz-adv-x="1015" 
d="M59 197q0 62 16 107t47.5 74.5t61.5 46t76 34.5q37 14 169.5 54.5t172.5 64.5v141q0 223 -147 223q-82 0 -121 -49q1 -20 17 -81t16 -89q0 -37 -40 -69.5t-102 -32.5q-58 0 -87 36t-29 86q0 60 55.5 111.5t137.5 80t165 28.5q50 0 88 -2.5t78.5 -10.5t70 -21.5t57 -37
t44.5 -55t27 -77t10 -102.5q0 -107 -6.5 -285t-6.5 -198q0 -30 23.5 -65t62.5 -35q47 0 75.5 52.5t31.5 129.5h22q-12 -279 -231 -279q-81 0 -129.5 34t-77.5 102h-6q-122 -140 -297 -140q-106 0 -175 62.5t-69 161.5zM258 1430q0 36 28 63t72 27q43 0 75 -24.5t65 -80.5
q26 -42 85.5 -150t96.5 -173l-10 -11q-68 50 -128.5 91.5t-113.5 75.5t-70 46q-55 37 -77.5 65t-22.5 71zM309 240q0 -88 33 -133.5t90 -45.5q104 0 164 84l8 402q-83 -29 -123 -49q-86 -42 -129 -102t-43 -156z" />
    <glyph glyph-name="aacute" unicode="&#xe1;" horiz-adv-x="1015" 
d="M59 197q0 62 16 107t47.5 74.5t61.5 46t76 34.5q37 14 169.5 54.5t172.5 64.5v141q0 223 -147 223q-82 0 -121 -49q1 -20 17 -81t16 -89q0 -37 -40 -69.5t-102 -32.5q-58 0 -87 36t-29 86q0 60 55.5 111.5t137.5 80t165 28.5q50 0 88 -2.5t78.5 -10.5t70 -21.5t57 -37
t44.5 -55t27 -77t10 -102.5q0 -107 -6.5 -285t-6.5 -198q0 -30 23.5 -65t62.5 -35q47 0 75.5 52.5t31.5 129.5h22q-12 -279 -231 -279q-81 0 -129.5 34t-77.5 102h-6q-122 -140 -297 -140q-106 0 -175 62.5t-69 161.5zM309 240q0 -88 33 -133.5t90 -45.5q104 0 164 84l8 402
q-83 -29 -123 -49q-86 -42 -129 -102t-43 -156zM328 1094q35 61 74 131.5t63 113.5t45 76q32 55 64 80t75 25q44 0 72.5 -27.5t28.5 -62.5q0 -43 -23 -71t-80 -65q-12 -9 -115 -77.5t-194 -135.5z" />
    <glyph glyph-name="acircumflex" unicode="&#xe2;" horiz-adv-x="1015" 
d="M59 197q0 62 16 107t47.5 74.5t61.5 46t76 34.5q37 14 169.5 54.5t172.5 64.5v141q0 223 -147 223q-82 0 -121 -49q1 -20 17 -81t16 -89q0 -37 -40 -69.5t-102 -32.5q-58 0 -87 36t-29 86q0 60 55.5 111.5t137.5 80t165 28.5q50 0 88 -2.5t78.5 -10.5t70 -21.5t57 -37
t44.5 -55t27 -77t10 -102.5q0 -107 -6.5 -285t-6.5 -198q0 -30 23.5 -65t62.5 -35q47 0 75.5 52.5t31.5 129.5h22q-12 -279 -231 -279q-81 0 -129.5 34t-77.5 102h-6q-122 -140 -297 -140q-106 0 -175 62.5t-69 161.5zM162 1114q50 78 127 199.5t102 159.5q18 27 36.5 35
t66.5 8q45 0 62.5 -8t33.5 -31q38 -57 231 -363l-18 -14l-314 250l-311 -250zM309 240q0 -88 33 -133.5t90 -45.5q104 0 164 84l8 402q-83 -29 -123 -49q-86 -42 -129 -102t-43 -156z" />
    <glyph glyph-name="atilde" unicode="&#xe3;" horiz-adv-x="1015" 
d="M59 197q0 62 16 107t47.5 74.5t61.5 46t76 34.5q37 14 169.5 54.5t172.5 64.5v141q0 223 -147 223q-82 0 -121 -49q1 -20 17 -81t16 -89q0 -37 -40 -69.5t-102 -32.5q-58 0 -87 36t-29 86q0 60 55.5 111.5t137.5 80t165 28.5q50 0 88 -2.5t78.5 -10.5t70 -21.5t57 -37
t44.5 -55t27 -77t10 -102.5q0 -107 -6.5 -285t-6.5 -198q0 -30 23.5 -65t62.5 -35q47 0 75.5 52.5t31.5 129.5h22q-12 -279 -231 -279q-81 0 -129.5 34t-77.5 102h-6q-122 -140 -297 -140q-106 0 -175 62.5t-69 161.5zM102 1143q15 43 37.5 84.5t55.5 86t78.5 72t95.5 27.5
q65 0 127.5 -28.5t116 -56.5t96.5 -28q118 0 176 134l22 -7q-12 -42 -35 -86.5t-57 -87.5t-81.5 -70.5t-98.5 -27.5q-52 0 -102 17.5t-82 38t-72.5 38t-77.5 17.5q-56 0 -97.5 -31t-78.5 -100zM309 240q0 -88 33 -133.5t90 -45.5q104 0 164 84l8 402q-83 -29 -123 -49
q-86 -42 -129 -102t-43 -156z" />
    <glyph glyph-name="adieresis" unicode="&#xe4;" horiz-adv-x="1015" 
d="M59 197q0 62 16 107t47.5 74.5t61.5 46t76 34.5q37 14 169.5 54.5t172.5 64.5v141q0 223 -147 223q-82 0 -121 -49q1 -20 17 -81t16 -89q0 -37 -40 -69.5t-102 -32.5q-58 0 -87 36t-29 86q0 60 55.5 111.5t137.5 80t165 28.5q50 0 88 -2.5t78.5 -10.5t70 -21.5t57 -37
t44.5 -55t27 -77t10 -102.5q0 -107 -6.5 -285t-6.5 -198q0 -30 23.5 -65t62.5 -35q47 0 75.5 52.5t31.5 129.5h22q-12 -279 -231 -279q-81 0 -129.5 34t-77.5 102h-6q-122 -140 -297 -140q-106 0 -175 62.5t-69 161.5zM131 1270q0 57 39.5 98t93.5 41q56 0 95.5 -40
t39.5 -95q0 -57 -39 -98t-96 -41q-54 0 -93.5 40t-39.5 95zM309 240q0 -88 33 -133.5t90 -45.5q104 0 164 84l8 402q-83 -29 -123 -49q-86 -42 -129 -102t-43 -156zM580 1270q0 57 39 98t94 41q56 0 95.5 -40t39.5 -95q0 -57 -40 -98t-95 -41t-94 39.5t-39 95.5z" />
    <glyph glyph-name="aring" unicode="&#xe5;" horiz-adv-x="1015" 
d="M59 197q0 62 16 107t47.5 74.5t61.5 46t76 34.5q37 14 169.5 54.5t172.5 64.5v141q0 223 -147 223q-82 0 -121 -49q1 -20 17 -81t16 -89q0 -37 -40 -69.5t-102 -32.5q-58 0 -87 36t-29 86q0 60 55.5 111.5t137.5 80t165 28.5q50 0 88 -2.5t78.5 -10.5t70 -21.5t57 -37
t44.5 -55t27 -77t10 -102.5q0 -107 -6.5 -285t-6.5 -198q0 -30 23.5 -65t62.5 -35q47 0 75.5 52.5t31.5 129.5h22q-12 -279 -231 -279q-81 0 -129.5 34t-77.5 102h-6q-122 -140 -297 -140q-106 0 -175 62.5t-69 161.5zM262 1290q0 92 71.5 150.5t174.5 58.5
q107 0 176.5 -57.5t69.5 -151.5q0 -92 -67.5 -150.5t-178.5 -58.5q-112 0 -179 57.5t-67 151.5zM309 240q0 -88 33 -133.5t90 -45.5q104 0 164 84l8 402q-83 -29 -123 -49q-86 -42 -129 -102t-43 -156zM387 1290q0 -76 29.5 -130t91.5 -54t91.5 53.5t29.5 130.5
q0 76 -29.5 131.5t-91.5 55.5q-61 0 -91 -54t-30 -133z" />
    <glyph glyph-name="ae" unicode="&#xe6;" horiz-adv-x="1476" 
d="M59 197q0 62 16 107t47.5 74.5t61.5 46t76 34.5q37 14 169.5 54.5t172.5 64.5v141q0 223 -147 223q-82 0 -121 -49q1 -20 17 -81t16 -89q0 -37 -40 -69.5t-102 -32.5q-58 0 -87 36t-29 86q0 60 55.5 111.5t137.5 80t165 28.5q102 0 174.5 -22.5t120.5 -80.5
q120 103 272 103q86 0 154.5 -21.5t114 -58t75.5 -87.5t43 -107t13 -120v-16h-596v-45q0 -99 15 -179t48 -143.5t90.5 -98t136.5 -34.5q107 0 178.5 46.5t129.5 148.5l20 -12q-58 -118 -163.5 -190.5t-239.5 -72.5q-268 0 -398 205q-134 -205 -352 -205q-106 0 -175 62.5
t-69 161.5zM309 240q0 -88 33 -133.5t90 -45.5q107 0 164 80l8 406q-61 -22 -92 -35q-102 -44 -152.5 -106.5t-50.5 -165.5zM838 575l344 5q0 56 -2.5 100.5t-12.5 95.5t-26 85t-45.5 56.5t-69.5 22.5q-83 0 -133 -101.5t-55 -263.5z" />
    <glyph glyph-name="ccedilla" unicode="&#xe7;" horiz-adv-x="901" 
d="M53 471q0 97 32.5 185t91.5 156.5t149.5 109.5t199.5 41q159 0 244.5 -68t85.5 -172q0 -57 -36.5 -93t-98.5 -36q-54 0 -91.5 31.5t-37.5 89.5q0 38 25 94.5t26 67.5q-6 29 -38.5 46t-78.5 17q-96 0 -155.5 -115t-59.5 -336q0 -200 72.5 -315t194.5 -115q208 0 303 191
l20 -12q-55 -115 -159 -190t-228 -75q-43 0 -94 7v-84q285 4 285 -168q0 -52 -23.5 -89.5t-61.5 -59.5t-98 -35t-120 -17t-140 -4v28q58 0 99.5 4t86.5 16.5t69 40.5t24 71q0 47 -39.5 64t-110.5 17v222q-165 36 -251.5 166t-86.5 319z" />
    <glyph glyph-name="egrave" unicode="&#xe8;" horiz-adv-x="946" 
d="M53 473q0 77 19 148.5t57 133.5t91 108.5t126.5 73t157.5 26.5q107 0 186.5 -32t125 -88.5t67.5 -125t22 -148.5v-16h-598v-45q0 -79 9.5 -145t31 -124.5t54.5 -99t83.5 -63.5t114.5 -23q105 0 177 46.5t130 148.5l19 -12q-58 -118 -164 -190.5t-240 -72.5
q-117 0 -208.5 39t-147.5 108.5t-84.5 158.5t-28.5 194zM250 1430q0 36 28 63t72 27q43 0 74.5 -24.5t64.5 -80.5q26 -43 87.5 -153.5t95.5 -169.5l-10 -11q-68 50 -128.5 91.5t-113.5 75.5t-70 46q-55 37 -77.5 65t-22.5 71zM307 575l346 5q0 56 -3 100.5t-12.5 95.5
t-26 85t-46 56.5t-69.5 22.5q-83 0 -133.5 -101.5t-55.5 -263.5z" />
    <glyph glyph-name="eacute" unicode="&#xe9;" horiz-adv-x="946" 
d="M53 473q0 77 19 148.5t57 133.5t91 108.5t126.5 73t157.5 26.5q107 0 186.5 -32t125 -88.5t67.5 -125t22 -148.5v-16h-598v-45q0 -79 9.5 -145t31 -124.5t54.5 -99t83.5 -63.5t114.5 -23q105 0 177 46.5t130 148.5l19 -12q-58 -118 -164 -190.5t-240 -72.5
q-117 0 -208.5 39t-147.5 108.5t-84.5 158.5t-28.5 194zM307 575l346 5q0 56 -3 100.5t-12.5 95.5t-26 85t-46 56.5t-69.5 22.5q-83 0 -133.5 -101.5t-55.5 -263.5zM342 1094q35 61 74 131.5t63 113.5t45 76q32 54 64.5 79.5t75.5 25.5q44 0 72 -27t28 -63q0 -43 -23 -71
t-79 -65q-13 -9 -116 -78t-194 -135z" />
    <glyph glyph-name="ecircumflex" unicode="&#xea;" horiz-adv-x="946" 
d="M53 473q0 77 19 148.5t57 133.5t91 108.5t126.5 73t157.5 26.5q107 0 186.5 -32t125 -88.5t67.5 -125t22 -148.5v-16h-598v-45q0 -79 9.5 -145t31 -124.5t54.5 -99t83.5 -63.5t114.5 -23q105 0 177 46.5t130 148.5l19 -12q-58 -118 -164 -190.5t-240 -72.5
q-117 0 -208.5 39t-147.5 108.5t-84.5 158.5t-28.5 194zM168 1114q50 78 127 199.5t102 159.5q18 27 36.5 35t66.5 8q45 0 62.5 -8t33.5 -31q38 -57 231 -363l-18 -14l-313 250l-312 -250zM307 575l346 5q0 56 -3 100.5t-12.5 95.5t-26 85t-46 56.5t-69.5 22.5
q-83 0 -133.5 -101.5t-55.5 -263.5z" />
    <glyph glyph-name="edieresis" unicode="&#xeb;" horiz-adv-x="946" 
d="M53 473q0 77 19 148.5t57 133.5t91 108.5t126.5 73t157.5 26.5q107 0 186.5 -32t125 -88.5t67.5 -125t22 -148.5v-16h-598v-45q0 -79 9.5 -145t31 -124.5t54.5 -99t83.5 -63.5t114.5 -23q105 0 177 46.5t130 148.5l19 -12q-58 -118 -164 -190.5t-240 -72.5
q-117 0 -208.5 39t-147.5 108.5t-84.5 158.5t-28.5 194zM141 1270q0 57 39.5 98t93.5 41q56 0 96 -40t40 -95q0 -57 -39.5 -98t-96.5 -41q-54 0 -93.5 40t-39.5 95zM307 575l346 5q0 56 -3 100.5t-12.5 95.5t-26 85t-46 56.5t-69.5 22.5q-83 0 -133.5 -101.5t-55.5 -263.5z
M590 1270q0 57 39 98t94 41q56 0 95.5 -40t39.5 -95q0 -57 -40 -98t-95 -41t-94 39.5t-39 95.5z" />
    <glyph glyph-name="igrave" unicode="&#xec;" horiz-adv-x="595" 
d="M16 1430q0 35 28.5 62.5t72.5 27.5q43 0 74.5 -24.5t64.5 -80.5q26 -42 85.5 -150t96.5 -173l-10 -11q-69 50 -128.5 91t-113 76t-69.5 46q-55 38 -78 65.5t-23 70.5zM18 913v13l402 22l8 -8v-817q0 -67 51 -92q28 -13 99 -17v-14h-529v14q55 3 90 15q54 18 54 90v661
q-3 72 -54 107q-33 21 -121 26z" />
    <glyph glyph-name="iacute" unicode="&#xed;" horiz-adv-x="595" 
d="M18 913v13l402 22l8 -8v-817q0 -67 51 -92q28 -13 99 -17v-14h-529v14q55 3 90 15q54 18 54 90v661q-3 72 -54 107q-33 21 -121 26zM133 1094q35 61 74 131.5t63 113.5t45 76q32 54 64.5 79.5t75.5 25.5q44 0 72 -27t28 -63q0 -43 -23 -71t-79 -65q-13 -9 -116 -78
t-194 -135z" />
    <glyph glyph-name="icircumflex" unicode="&#xee;" horiz-adv-x="595" 
d="M-10 1098q45 81 107 209.5t81 162.5q22 43 101 43q78 0 96 -38q19 -34 81 -163t107 -214l-14 -11l-273 252l-272 -252zM18 913v13l402 22l8 -8v-817q0 -67 51 -92q28 -13 99 -17v-14h-529v14q55 3 90 15q54 18 54 90v661q-3 72 -54 107q-33 21 -121 26z" />
    <glyph glyph-name="idieresis" unicode="&#xef;" horiz-adv-x="595" 
d="M-57 1266q0 56 37.5 95.5t91.5 39.5q55 0 93 -39t38 -92q0 -56 -38 -95.5t-93 -39.5q-54 0 -91.5 38.5t-37.5 92.5zM18 913v13l402 22l8 -8v-817q0 -67 51 -92q28 -13 99 -17v-14h-529v14q55 3 90 15q54 18 54 90v661q-3 72 -54 107q-33 21 -121 26zM346 1266
q0 56 38.5 95.5t92.5 39.5t92.5 -39t38.5 -92q0 -56 -38.5 -95.5t-92.5 -39.5t-92.5 38.5t-38.5 92.5z" />
    <glyph glyph-name="eth" unicode="&#xf0;" 
d="M51 469q0 220 141 357t357 137q70 0 124 -23.5t85 -62.5l8 4q-31 231 -168 419l-236 -149l-22 37l229 147q-96 118 -178 178l10 17q155 -81 242 -150l186 121l25 -37l-174 -112q348 -293 348 -756q0 -130 -30.5 -242t-89.5 -198.5t-153 -135.5t-214 -49
q-99 0 -186.5 32.5t-155.5 93.5t-108 157t-40 215zM315 479q0 -487 228 -487q62 0 107 38.5t70 107.5t36.5 152t11.5 185q0 95 -10.5 173.5t-34.5 146.5t-69.5 106.5t-108.5 38.5q-230 0 -230 -461z" />
    <glyph glyph-name="ntilde" unicode="&#xf1;" horiz-adv-x="1198" 
d="M37 913v13l381 22l8 -8v-145h6q1 1 27.5 28t31.5 31t30 26.5t37 28t38.5 20.5t47.5 19.5t50.5 9.5t61.5 5q141 0 209.5 -86t68.5 -238v-516q0 -71 49 -92q34 -14 91 -17v-14h-510v14q51 3 88 15q45 15 45 92v536q0 100 -43.5 152.5t-108.5 52.5q-83 0 -140 -36t-79 -78
v-623q0 -73 45 -92q32 -15 90 -19v-14h-512v14q46 3 88 15q53 16 53 86v661q-3 78 -51 109q-38 24 -102 28zM201 1143q15 43 37 84.5t55 86t78.5 72t95.5 27.5q65 0 127.5 -28.5t116 -56.5t96.5 -28q118 0 176 134l23 -7q-9 -33 -25.5 -68t-42 -72t-55 -66t-69 -47.5
t-81.5 -18.5q-52 0 -102 17.5t-82 38t-72.5 38t-77.5 17.5q-56 0 -97.5 -31t-78.5 -100z" />
    <glyph glyph-name="ograve" unicode="&#xf2;" 
d="M51 465q0 221 135.5 359.5t358.5 138.5q222 0 353.5 -136.5t131.5 -351.5q0 -104 -33 -195t-94 -160t-157 -109t-214 -40q-131 0 -239.5 58.5t-175 172.5t-66.5 263zM287 1430q0 36 28 63t72 27q43 0 74.5 -24.5t64.5 -80.5q26 -43 87.5 -153.5t95.5 -169.5l-11 -11
q-69 50 -128.5 91t-113 76t-69.5 46q-55 37 -77.5 65t-22.5 71zM315 479q0 -487 228 -487q62 0 107 38.5t70 107.5t36.5 152t11.5 185q0 95 -10.5 173.5t-34.5 146.5t-69.5 106.5t-108.5 38.5q-230 0 -230 -461z" />
    <glyph glyph-name="oacute" unicode="&#xf3;" 
d="M51 465q0 221 135.5 359.5t358.5 138.5q222 0 353.5 -136.5t131.5 -351.5q0 -104 -33 -195t-94 -160t-157 -109t-214 -40q-131 0 -239.5 58.5t-175 172.5t-66.5 263zM315 479q0 -487 228 -487q62 0 107 38.5t70 107.5t36.5 152t11.5 185q0 95 -10.5 173.5t-34.5 146.5
t-69.5 106.5t-108.5 38.5q-230 0 -230 -461zM371 1094q35 61 74 131.5t63 113.5t45 76q32 55 64 80t75 25q44 0 72.5 -27.5t28.5 -62.5q0 -43 -23 -71t-80 -65q-12 -9 -115 -77.5t-194 -135.5z" />
    <glyph glyph-name="ocircumflex" unicode="&#xf4;" 
d="M51 465q0 221 135.5 359.5t358.5 138.5q222 0 353.5 -136.5t131.5 -351.5q0 -104 -33 -195t-94 -160t-157 -109t-214 -40q-131 0 -239.5 58.5t-175 172.5t-66.5 263zM209 1114q50 78 127 199.5t102 159.5q18 27 36.5 35t66.5 8q45 0 62.5 -8t33.5 -31q39 -57 231 -363
l-18 -14l-313 250l-312 -250zM315 479q0 -487 228 -487q62 0 107 38.5t70 107.5t36.5 152t11.5 185q0 95 -10.5 173.5t-34.5 146.5t-69.5 106.5t-108.5 38.5q-230 0 -230 -461z" />
    <glyph glyph-name="otilde" unicode="&#xf5;" 
d="M51 465q0 221 135.5 359.5t358.5 138.5q222 0 353.5 -136.5t131.5 -351.5q0 -104 -33 -195t-94 -160t-157 -109t-214 -40q-131 0 -239.5 58.5t-175 172.5t-66.5 263zM137 1143q15 43 37 84.5t55 86t78.5 72t95.5 27.5q65 0 127.5 -28.5t116 -56.5t96.5 -28q119 0 177 134
l22 -7q-12 -42 -35 -86.5t-57 -87.5t-81.5 -70.5t-98.5 -27.5q-52 0 -102 17.5t-82 38t-72.5 38t-77.5 17.5q-56 0 -97.5 -31t-78.5 -100zM315 479q0 -487 228 -487q62 0 107 38.5t70 107.5t36.5 152t11.5 185q0 95 -10.5 173.5t-34.5 146.5t-69.5 106.5t-108.5 38.5
q-230 0 -230 -461z" />
    <glyph glyph-name="odieresis" unicode="&#xf6;" 
d="M51 465q0 221 135.5 359.5t358.5 138.5q222 0 353.5 -136.5t131.5 -351.5q0 -104 -33 -195t-94 -160t-157 -109t-214 -40q-131 0 -239.5 58.5t-175 172.5t-66.5 263zM180 1270q0 57 39.5 98t93.5 41q56 0 96 -40t40 -95q0 -57 -39.5 -98t-96.5 -41q-54 0 -93.5 40
t-39.5 95zM315 479q0 -487 228 -487q62 0 107 38.5t70 107.5t36.5 152t11.5 185q0 95 -10.5 173.5t-34.5 146.5t-69.5 106.5t-108.5 38.5q-230 0 -230 -461zM629 1270q0 57 39 98t94 41q56 0 95.5 -40t39.5 -95q0 -57 -40 -98t-95 -41t-94 39.5t-39 95.5z" />
    <glyph glyph-name="divide" unicode="&#xf7;" horiz-adv-x="1150" 
d="M88 489v84h975v-84h-975zM463 233q0 47 32.5 80t79.5 33t81 -33t34 -80t-34 -80.5t-81 -33.5t-79.5 33.5t-32.5 80.5zM463 827q0 49 32.5 82t79.5 33q48 0 81.5 -33t33.5 -82q0 -46 -34 -78t-81 -32t-79.5 32t-32.5 78z" />
    <glyph glyph-name="oslash" unicode="&#xf8;" 
d="M51 465q0 221 135.5 359.5t358.5 138.5q193 0 323 -111l140 158l20 -21l-139 -155q68 -65 104.5 -158t36.5 -201q0 -104 -33 -195t-94 -160t-157 -109t-214 -40q-179 0 -313 109l-117 -131l-22 18l117 133q-146 139 -146 365zM315 479q0 -142 19 -237l409 481
q-22 98 -71 157.5t-127 59.5q-230 0 -230 -461zM340 207q24 -96 74 -155.5t129 -59.5q62 0 107 38.5t70 107.5t36.5 152t11.5 185q0 119 -18 213z" />
    <glyph glyph-name="ugrave" unicode="&#xf9;" horiz-adv-x="1165" 
d="M8 911v13l383 24l10 -12v-674q0 -100 39.5 -152.5t102.5 -52.5q45 0 83.5 13t63.5 34t40 39t26 37v604q-4 75 -49 103q-30 18 -127 22v15l401 24l10 -12v-780q3 -73 49 -101q31 -20 105 -24v-13l-373 -24l-14 14v127h-6q-31 -32 -46.5 -47.5t-48.5 -41.5t-62 -38.5
t-73 -22.5t-94 -10q-135 0 -199.5 90.5t-64.5 243.5v471q-4 77 -53 105q-40 23 -103 26zM311 1430q0 35 28.5 62.5t72.5 27.5q43 0 74.5 -24.5t64.5 -80.5q26 -42 85.5 -150t96.5 -173l-10 -11q-69 50 -128.5 91t-113 76t-69.5 46q-55 38 -78 65.5t-23 70.5z" />
    <glyph glyph-name="uacute" unicode="&#xfa;" horiz-adv-x="1165" 
d="M8 911v13l383 24l10 -12v-674q0 -100 39.5 -152.5t102.5 -52.5q45 0 83.5 13t63.5 34t40 39t26 37v604q-4 75 -49 103q-30 18 -127 22v15l401 24l10 -12v-780q3 -73 49 -101q31 -20 105 -24v-13l-373 -24l-14 14v127h-6q-31 -32 -46.5 -47.5t-48.5 -41.5t-62 -38.5
t-73 -22.5t-94 -10q-135 0 -199.5 90.5t-64.5 243.5v471q-4 77 -53 105q-40 23 -103 26zM416 1094q35 61 74 131.5t63 113.5t45 76q32 55 64 80t75 25q44 0 72.5 -27.5t28.5 -62.5q0 -43 -23 -71t-80 -65q-12 -9 -115 -77.5t-194 -135.5z" />
    <glyph glyph-name="ucircumflex" unicode="&#xfb;" horiz-adv-x="1165" 
d="M8 911v13l383 24l10 -12v-674q0 -100 39.5 -152.5t102.5 -52.5q45 0 83.5 13t63.5 34t40 39t26 37v604q-4 75 -49 103q-30 18 -127 22v15l401 24l10 -12v-780q3 -73 49 -101q31 -20 105 -24v-13l-373 -24l-14 14v127h-6q-31 -32 -46.5 -47.5t-48.5 -41.5t-62 -38.5
t-73 -22.5t-94 -10q-135 0 -199.5 90.5t-64.5 243.5v471q-4 77 -53 105q-40 23 -103 26zM238 1114q50 78 127 199.5t102 159.5q18 27 36 35t66 8q45 0 63 -8t34 -31q38 -57 231 -363l-18 -14l-314 250l-311 -250z" />
    <glyph glyph-name="udieresis" unicode="&#xfc;" horiz-adv-x="1165" 
d="M8 911v13l383 24l10 -12v-674q0 -100 39.5 -152.5t102.5 -52.5q45 0 83.5 13t63.5 34t40 39t26 37v604q-4 75 -49 103q-30 18 -127 22v15l401 24l10 -12v-780q3 -73 49 -101q31 -20 105 -24v-13l-373 -24l-14 14v127h-6q-31 -32 -46.5 -47.5t-48.5 -41.5t-62 -38.5
t-73 -22.5t-94 -10q-135 0 -199.5 90.5t-64.5 243.5v471q-4 77 -53 105q-40 23 -103 26zM203 1270q0 57 39.5 98t93.5 41q56 0 95.5 -40t39.5 -95q0 -57 -39 -98t-96 -41q-54 0 -93.5 40t-39.5 95zM651 1270q0 57 39 98t94 41q56 0 96 -40t40 -95q0 -57 -40 -98t-96 -41
q-55 0 -94 39.5t-39 95.5z" />
    <glyph glyph-name="yacute" unicode="&#xfd;" horiz-adv-x="940" 
d="M-45 922v14h500v-18q-123 -5 -123 -44q0 -8 14 -43q36 -93 258 -567q83 202 201 516q16 50 16 72q0 29 -43 44.5t-116 27.5v12h333v-12q-53 -9 -86 -34t-55 -79q-11 -26 -338 -848q-69 -171 -131 -267t-120.5 -132.5t-133.5 -36.5q-58 0 -112 39.5t-54 116.5q0 51 37 92
t94 41q49 0 88 -29.5t39 -89.5q0 -17 -9 -71.5t-9 -57.5q36 6 74.5 41t68.5 80t60 103.5t46.5 98t30.5 76.5q-59 141 -220 487t-171 367q-20 44 -51.5 68t-87.5 33zM430 1094q35 61 74 131.5t63 113.5t45 76q32 54 64.5 79.5t75.5 25.5q44 0 72 -27t28 -63q0 -43 -23 -71
t-79 -65q-13 -9 -116 -78t-194 -135z" />
    <glyph glyph-name="thorn" unicode="&#xfe;" horiz-adv-x="1159" 
d="M-8 1493v12l405 23l9 -10v-689l8 -2q47 53 116 94.5t156 41.5q177 0 294.5 -137t117.5 -357q0 -214 -133.5 -354t-321.5 -140q-143 0 -229 64h-8v-365q0 -74 57 -96q68 -23 145 -27v-14h-602v14q67 3 113 17q53 16 53 94v1692q-6 76 -55 110q-38 24 -125 29zM406 156
q10 -28 24.5 -52.5t37.5 -49.5t58 -39.5t78 -14.5q115 0 174.5 124t59.5 335q0 117 -22.5 207.5t-79.5 151.5t-144 61q-62 0 -104.5 -22t-81.5 -66v-635z" />
    <glyph glyph-name="ydieresis" unicode="&#xff;" horiz-adv-x="940" 
d="M-45 922v14h500v-18q-123 -5 -123 -44q0 -8 14 -43q36 -93 258 -567q83 202 201 516q16 50 16 72q0 29 -43 44.5t-116 27.5v12h333v-12q-53 -9 -86 -34t-55 -79q-11 -26 -338 -848q-69 -171 -131 -267t-120.5 -132.5t-133.5 -36.5q-58 0 -112 39.5t-54 116.5q0 51 37 92
t94 41q49 0 88 -29.5t39 -89.5q0 -17 -9 -71.5t-9 -57.5q36 6 74.5 41t68.5 80t60 103.5t46.5 98t30.5 76.5q-59 141 -220 487t-171 367q-20 44 -51.5 68t-87.5 33zM156 1270q0 57 39.5 98t93.5 41q56 0 95.5 -40t39.5 -95q0 -57 -39 -98t-96 -41q-54 0 -93.5 40t-39.5 95z
M604 1270q0 57 39 98t94 41q56 0 95.5 -40t39.5 -95q0 -57 -40 -98t-95 -41t-94 39.5t-39 95.5z" />
    <glyph glyph-name="OE" unicode="&#x152;" horiz-adv-x="2170" 
d="M72 698q0 137 41.5 252t114 197t171 139.5t213.5 85t240 27.5h1171v-340h-20q-14 49 -54.5 117t-97 126t-102.5 64q-82 10 -193 10h-200v-639h172q53 0 91.5 11.5t53 22.5t31.5 30q26 25 53.5 94.5t32.5 112.5h20v-576h-20q-4 45 -34 119t-52 98q-26 30 -63.5 47
t-112.5 17h-172v-508q0 -42 3 -69t13.5 -48.5t25 -32.5t42.5 -18.5t61 -9.5t86 -2q94 0 135.5 1t99.5 12t81 34q48 49 114 160t97 178h18l-27 -410h-1282q-74 0 -147.5 11t-148.5 36.5t-141 63t-124 94.5t-100 127t-66 164t-24 202zM379 702q0 -196 56 -349t168 -243
t265 -90q107 0 161 44t54 145v965q0 62 -17 103t-51.5 62t-74.5 29t-98 8q-231 0 -347 -178.5t-116 -495.5z" />
    <glyph glyph-name="oe" unicode="&#x153;" horiz-adv-x="1656" 
d="M51 465q0 221 135.5 359.5t358.5 138.5q215 0 350 -138q128 138 319 138q86 0 155.5 -21.5t115 -58t75.5 -87.5t43 -107t13 -120v-16h-596v-45q0 -99 15.5 -179t48.5 -143.5t90.5 -98t136.5 -34.5q105 0 177 46.5t130 148.5l18 -12q-58 -118 -162.5 -190.5t-238.5 -72.5
q-220 0 -346 136q-128 -138 -357 -138q-131 0 -239.5 58.5t-175 172.5t-66.5 263zM315 479q0 -487 228 -487q62 0 107 38.5t70 107.5t36.5 152t11.5 185q0 95 -10.5 173.5t-34.5 146.5t-69.5 106.5t-108.5 38.5q-230 0 -230 -461zM1020 575l344 5q0 71 -5.5 126.5
t-20.5 112.5t-48 89t-82 32q-84 0 -133.5 -101t-54.5 -264z" />
    <glyph glyph-name="Ydieresis" unicode="&#x178;" horiz-adv-x="1044" 
d="M-59 1384v15h723v-15q-213 -12 -213 -63q0 -28 94 -203l105 -192q104 -192 157 -283q135 229 256 449q94 174 94 206q0 71 -227 86v15h479v-15q-60 -7 -98 -28q-39 -22 -66 -51t-57 -76q-114 -178 -307 -527q-43 -80 -54.5 -129.5t-11.5 -136.5v-295q0 -74 62 -102
q17 -7 75 -15t90 -10v-14h-731v14q128 7 166 21q64 24 64 102v357q0 45 -12.5 83.5t-45.5 100.5q-151 292 -293 532q-65 107 -127 144q-49 26 -122 30zM373 1700q0 57 39.5 98t93.5 41q56 0 95.5 -40t39.5 -95q0 -57 -39 -98t-96 -41q-54 0 -93.5 40t-39.5 95zM821 1700
q0 57 39 98t94 41q56 0 96 -40t40 -95q0 -57 -40 -98t-96 -41q-55 0 -94 39.5t-39 95.5z" />
    <glyph glyph-name="circumflex" unicode="&#x2c6;" horiz-adv-x="1024" 
d="M182 1114q47 73 125.5 196t104.5 163q18 27 36 35t66 8q45 0 62.5 -8t33.5 -31q52 -76 232 -363l-19 -14l-313 250l-311 -250z" />
    <glyph glyph-name="tilde" unicode="&#x2dc;" horiz-adv-x="1024" 
d="M109 1143q15 43 37 84.5t55 86t78.5 72t95.5 27.5q65 0 127.5 -28.5t116 -56.5t96.5 -28q118 0 176 134l22 -7q-12 -42 -35 -86.5t-57 -87.5t-81.5 -70.5t-98.5 -27.5q-52 0 -102 17.5t-82 38t-72.5 38t-77.5 17.5q-56 0 -97.5 -31t-78.5 -100z" />
    <glyph glyph-name="uni2000" unicode="&#x2000;" horiz-adv-x="962" 
 />
    <glyph glyph-name="uni2001" unicode="&#x2001;" horiz-adv-x="1925" 
 />
    <glyph glyph-name="uni2002" unicode="&#x2002;" horiz-adv-x="962" 
 />
    <glyph glyph-name="uni2003" unicode="&#x2003;" horiz-adv-x="1925" 
 />
    <glyph glyph-name="uni2004" unicode="&#x2004;" horiz-adv-x="641" 
 />
    <glyph glyph-name="uni2005" unicode="&#x2005;" horiz-adv-x="481" 
 />
    <glyph glyph-name="uni2006" unicode="&#x2006;" horiz-adv-x="320" 
 />
    <glyph glyph-name="uni2007" unicode="&#x2007;" horiz-adv-x="320" 
 />
    <glyph glyph-name="uni2008" unicode="&#x2008;" horiz-adv-x="240" 
 />
    <glyph glyph-name="uni2009" unicode="&#x2009;" horiz-adv-x="385" 
 />
    <glyph glyph-name="uni200A" unicode="&#x200a;" horiz-adv-x="106" 
 />
    <glyph glyph-name="uni2010" unicode="&#x2010;" horiz-adv-x="770" 
d="M61 432v174h648v-174h-648z" />
    <glyph glyph-name="uni2011" unicode="&#x2011;" horiz-adv-x="770" 
d="M61 432v174h648v-174h-648z" />
    <glyph glyph-name="figuredash" unicode="&#x2012;" horiz-adv-x="770" 
d="M61 432v174h648v-174h-648z" />
    <glyph glyph-name="endash" unicode="&#x2013;" horiz-adv-x="1114" 
d="M102 442v154h910v-154h-910z" />
    <glyph glyph-name="emdash" unicode="&#x2014;" horiz-adv-x="1810" 
d="M102 442v154h1606v-154h-1606z" />
    <glyph glyph-name="quoteleft" unicode="&#x2018;" horiz-adv-x="407" 
d="M45 1200q0 53 20.5 101.5t51 84.5t74 68.5t80 53t77.5 38.5l12 -20q-88 -43 -153.5 -119t-69.5 -158h72q79 0 115 -42.5t36 -96.5q0 -48 -37 -90.5t-100 -42.5q-94 0 -136 61t-42 162z" />
    <glyph glyph-name="quoteright" unicode="&#x2019;" horiz-adv-x="407" 
d="M70 997q88 43 153.5 119t69.5 158h-72q-79 0 -115 42.5t-36 96.5q0 48 37 90.5t100 42.5q94 0 136 -61t42 -162q0 -53 -20.5 -102t-51.5 -85t-73.5 -68.5t-80 -53t-77.5 -37.5z" />
    <glyph glyph-name="quotesinglbase" unicode="&#x201a;" horiz-adv-x="407" 
d="M47 131q0 48 37 90.5t100 42.5q94 0 136 -61t42 -162q0 -53 -20.5 -102t-51.5 -85t-73.5 -68.5t-80 -53t-77.5 -37.5l-12 20q88 43 153.5 119t69.5 158h-71q-79 0 -115.5 42.5t-36.5 96.5z" />
    <glyph glyph-name="quotedblleft" unicode="&#x201c;" horiz-adv-x="782" 
d="M45 1200q0 53 20.5 101.5t51 84.5t74 68.5t80 53t77.5 38.5l12 -20q-88 -43 -153.5 -119t-69.5 -158h72q79 0 115 -42.5t36 -96.5q0 -48 -37 -90.5t-100 -42.5q-94 0 -136 61t-42 162zM422 1200q0 53 20.5 101.5t51 84.5t74 68.5t80 53t77.5 38.5l10 -20
q-87 -42 -152 -118.5t-71 -158.5h74q78 0 114.5 -42.5t36.5 -96.5q0 -47 -37.5 -90t-99.5 -43q-94 0 -136 61t-42 162z" />
    <glyph glyph-name="quotedblright" unicode="&#x201d;" horiz-adv-x="782" 
d="M70 997q88 43 153.5 119t69.5 158h-72q-79 0 -115 42.5t-36 96.5q0 48 37 90.5t100 42.5q94 0 136 -61t42 -162q0 -53 -20.5 -102t-51.5 -85t-73.5 -68.5t-80 -53t-77.5 -37.5zM444 997q88 43 154 119t70 158h-72q-79 0 -115.5 42.5t-36.5 96.5q0 47 38 90t100 43
q94 0 136 -61t42 -162q0 -53 -20.5 -102t-51.5 -85t-73.5 -68.5t-80 -53t-77.5 -37.5z" />
    <glyph glyph-name="quotedblbase" unicode="&#x201e;" horiz-adv-x="782" 
d="M47 131q0 48 37 90.5t100 42.5q94 0 136 -61t42 -162q0 -53 -20.5 -102t-51.5 -85t-73.5 -68.5t-80 -53t-77.5 -37.5l-12 20q88 43 153.5 119t69.5 158h-71q-79 0 -115.5 42.5t-36.5 96.5zM422 131q0 47 37.5 90t99.5 43q94 0 136 -61t42 -162q0 -53 -20.5 -102
t-51.5 -85t-73.5 -68.5t-80 -53t-77.5 -37.5l-12 20q88 43 153.5 119t69.5 158h-72q-79 0 -115 42.5t-36 96.5z" />
    <glyph glyph-name="bullet" unicode="&#x2022;" horiz-adv-x="829" 
d="M166 666q0 104 72 176.5t176 72.5t177 -72.5t73 -176.5t-73 -176t-177 -72t-176 72t-72 176z" />
    <glyph glyph-name="ellipsis" unicode="&#x2026;" horiz-adv-x="1669" 
d="M123 131q0 64 46 109t110 45q63 0 109 -45t46 -109t-45.5 -107.5t-109.5 -43.5t-110 43.5t-46 107.5zM680 131q0 64 46 109t110 45q63 0 109 -45t46 -109t-45.5 -107.5t-109.5 -43.5t-110 43.5t-46 107.5zM1237 131q0 64 45.5 109t110.5 45q63 0 108 -45t45 -109
t-44.5 -107.5t-108.5 -43.5q-65 0 -110.5 43.5t-45.5 107.5z" />
    <glyph glyph-name="uni202F" unicode="&#x202f;" horiz-adv-x="385" 
 />
    <glyph glyph-name="guilsinglleft" unicode="&#x2039;" horiz-adv-x="704" 
d="M88 459q0 32 8.5 47.5t36.5 36.5q20 15 198 146.5t255 189.5l8 -9l-291 -415l291 -410l-8 -8q-42 31 -218.5 163t-230.5 171q-30 24 -39.5 39.5t-9.5 48.5z" />
    <glyph glyph-name="guilsinglright" unicode="&#x203a;" horiz-adv-x="704" 
d="M111 45l290 410l-290 415l10 9q73 -57 248.5 -186.5t201.5 -149.5q28 -21 36.5 -36.5t8.5 -47.5q0 -34 -9 -49.5t-40 -38.5q-47 -34 -446 -334z" />
    <glyph glyph-name="uni205F" unicode="&#x205f;" horiz-adv-x="481" 
 />
    <glyph glyph-name="Euro" unicode="&#x20ac;" horiz-adv-x="1198" 
d="M55 492v30h150q-4 60 0 168h-150v31h156q15 114 61 213.5t118.5 174.5t175 118t222.5 43q162 0 261.5 -73.5t99.5 -182.5q0 -77 -33 -116.5t-78 -39.5q-52 0 -82 31.5t-30 77.5q0 36 32.5 87.5t32.5 80.5q-8 48 -66.5 82t-140.5 34q-138 0 -217.5 -139.5t-97.5 -390.5
h449v-31h-451q0 -123 2 -168h383v-30h-381q8 -127 46 -225t111.5 -159t174.5 -61q218 0 342 254l20 -12q-32 -72 -69 -125.5t-89 -99t-123 -69.5t-159 -24q-216 0 -354 135.5t-164 385.5h-152z" />
    <glyph glyph-name="trademark" unicode="&#x2122;" horiz-adv-x="1345" 
d="M66 1247v152h487v-152h-10q-11 36 -36.5 81t-47.5 48q-18 2 -60 2h-34v-434q0 -26 22 -35l66 -12v-10h-287v10q66 9 67 10q25 9 25 33v438h-39q-41 0 -59 -2q-22 -3 -49 -50t-35 -79h-10zM600 887v10q65 11 76 18q24 18 24 101v289q0 45 -22 61q-29 20 -72 20v13h209
l141 -352l115 284q12 36 16 68h213v-13q-21 0 -63 -12q-20 -9 -20 -35v-393q0 -26 20 -35q10 -6 66 -14v-10h-287v10q3 0 21.5 2t34.5 4.5t20 5.5q20 11 20 37v395h-12l-180 -448h-13l-170 438h-12v-311q0 -79 25 -100q14 -12 79 -23v-10h-229z" />
    <glyph glyph-name="uni25FC" unicode="&#x25fc;" horiz-adv-x="931" 
d="M0 0v932h932v-932h-932z" />
    </font>
</defs>
</svg>
