<?xml version="1.0" standalone="no"?>
<!DOCTYPE svg PUBLIC "-//W3C//DTD SVG 1.1//EN" "http://www.w3.org/Graphics/SVG/1.1/DTD/svg11.dtd" >
<svg xmlns="http://www.w3.org/2000/svg" xmlns:xlink="http://www.w3.org/1999/xlink" version="1.1">
<metadata>
Created by FontForge 20170731 at Thu May 24 23:21:45 2018
 By Aleksey,,,
</metadata>
<defs>
<font id="LincolnMillerBannerBeta-LightItalic" horiz-adv-x="617" >
  <font-face 
    font-family="LincolnMillerBannerBeta"
    font-weight="300"
    font-style="italic"
    font-stretch="normal"
    units-per-em="1000"
    panose-1="2 0 5 3 8 0 0 2 0 3"
    ascent="764"
    descent="-236"
    x-height="459"
    cap-height="683"
    bbox="-235 -240 1142 928"
    underline-thickness="20"
    underline-position="-153"
    slope="-12"
    unicode-range="U+0020-FB05"
  />
<missing-glyph horiz-adv-x="228" 
 />
    <glyph glyph-name="f_f" unicode="ff" horiz-adv-x="605" 
d="M175 -236q-47 0 -68 21.5t-21 51.5q0 16 12 30.5t32 14.5q17 0 31.5 -10.5t14.5 -30.5q0 -13 -23 -51q1 -8 8.5 -13.5t13.5 -5.5q55 0 92 50t73 168q28 92 118 442h-234q-85 -328 -110 -407q-41 -130 -109 -200q-60 -60 -128 -60q-47 0 -68 21.5t-21 51.5q0 16 12 30.5
t32 14.5q17 0 31.5 -10.5t14.5 -30.5q0 -13 -23 -51q1 -8 8.5 -13.5t13.5 -5.5q55 0 92 50t73 168q28 92 118 442h-106l4 14h106l11 40q31 117 110 185q74 64 166 64q50 0 78.5 -21.5t30.5 -55.5q79 86 172 86q44 0 66.5 -21.5t22.5 -49.5q0 -20 -12 -34t-32 -14
q-16 0 -32 9.5t-16 27.5q0 11 7 31.5t8 27.5q0 15 -22 15q-114 0 -177 -220l-20 -70h126l-5 -14h-124q-85 -328 -110 -407q-41 -130 -109 -200q-60 -60 -128 -60zM227 445h235l11 40q20 75 58 132q-19 -7 -41 3t-22 32q0 11 7 31.5t8 27.5q-3 15 -42 15q-61 0 -111.5 -50
t-82.5 -161z" />
    <glyph glyph-name="f_f_i" unicode="ffi" horiz-adv-x="853" 
d="M732 743q51 0 82.5 -20.5t31.5 -55.5q0 -18 -11.5 -30.5t-32.5 -12.5q-16 0 -32 9.5t-16 27.5q0 11 8 31.5t9 28.5q-3 15 -39 15q-124 0 -187 -221l-20 -70h191q28 7 40 7q19 0 27 -10t4 -36q-8 -48 -41 -131l-57 -147q-23 -60 -23 -90q0 -32 36 -32q70 0 123 136l6 -2
q-30 -75 -61.5 -113t-80.5 -38q-80 0 -80 78q0 29 20 83q9 22 32.5 81t34.5 89q22 59 27 100q0 11 -8 11h-193q-85 -328 -110 -407q-41 -130 -109 -200q-60 -60 -128 -60q-47 0 -68 21.5t-21 51.5q0 16 12 30.5t32 14.5q17 0 31.5 -10.5t14.5 -30.5q0 -13 -23 -51
q1 -8 8.5 -13.5t13.5 -5.5q55 0 92 50t73 168q38 125 120 442h-236q-85 -328 -110 -407q-41 -130 -109 -200q-60 -60 -128 -60q-47 0 -68 21.5t-21 51.5q0 16 12 30.5t32 14.5q17 0 31.5 -10.5t14.5 -30.5q0 -13 -23 -51q1 -8 8.5 -13.5t13.5 -5.5q55 0 92 50t73 168
q28 92 118 442h-106l4 14h106l11 40q31 120 116 190q72 59 160 59q49 0 78 -21.5t31 -55.5q78 86 172 86zM227 445h236l10 40q20 76 58 132q-19 -7 -41 3.5t-22 31.5q0 11 7 31.5t8 27.5q-3 15 -42 15q-61 0 -112 -50.5t-82 -160.5z" />
    <glyph glyph-name="f_f_l" unicode="ffl" horiz-adv-x="872" 
d="M732 743q57 0 80 -39l95 38l-197 -616q-19 -58 -19 -87q0 -33 34 -33q72 0 125 137l6 -3q-30 -75 -62 -113t-81 -38q-78 0 -78 77q0 26 18 84q4 14 11.5 37.5t28 87t38 119.5t36 114t29.5 92l11 35q-11 -8 -25 -8q-15 0 -28 9t-13 26q0 9 7.5 27t8.5 24q-6 22 -35 22
q-55 0 -100.5 -55.5t-76.5 -164.5l-20 -70h126l-5 -14h-124q-85 -328 -110 -407q-41 -130 -109 -200q-60 -60 -128 -60q-47 0 -68 21.5t-21 51.5q0 16 12 30.5t32 14.5q17 0 31.5 -10.5t14.5 -30.5q0 -13 -23 -51q1 -8 8.5 -13.5t13.5 -5.5q55 0 92 50t73 168
q38 125 120 442h-236q-85 -328 -110 -407q-41 -130 -109 -200q-60 -60 -128 -60q-47 0 -68 21.5t-21 51.5q0 16 12 30.5t32 14.5q17 0 31.5 -10.5t14.5 -30.5q0 -13 -23 -51q1 -8 8.5 -13.5t13.5 -5.5q55 0 92 50t73 168q28 92 118 442h-106l4 14h106l11 40q31 118 113 188
q74 61 163 61q49 0 78 -21.5t31 -55.5q76 86 172 86zM227 445h236l10 40q20 75 58 132q-19 -7 -41 3.5t-22 31.5q0 11 7 31.5t8 27.5q-3 15 -42 15q-61 0 -112 -50.5t-82 -160.5z" />
    <glyph glyph-name="f_t" unicode="ft" horiz-adv-x="606" 
d="M444 431h-220q-85 -328 -110 -407q-41 -130 -109 -200q-60 -60 -128 -60q-47 0 -68 21.5t-21 51.5q0 16 12 30.5t32 14.5q17 0 31.5 -10.5t14.5 -30.5q0 -12 -24 -52q1 -8 8.5 -13t13.5 -5q55 0 91.5 47.5t73.5 167.5q29 97 119 445h-106l4 14h106l11 40q33 121 103 189
q66 64 151 64q49 0 83 -32t34 -69q0 -17 -9 -29h21l-48 -163h128l-5 -14h-127q-87 -293 -90 -305q-19 -71 -19 -81q0 -41 37 -41q36 0 70 37.5t59 102.5l7 -2q-30 -74 -65 -113.5t-84 -39.5q-80 0 -80 77q0 21 10 58q3 12 93 307zM227 445h222l41 148q-31 5 -31 38
q0 11 12 39t13 36q-6 25 -55 25q-62 0 -106 -51.5t-76 -164.5z" />
    <glyph glyph-name="f_j" unicode="fj" horiz-adv-x="542" 
d="M403 22q-24 -78 -59 -134q-79 -124 -179 -124q-39 0 -60.5 20.5t-21.5 47.5q0 19 11.5 32.5t30.5 13.5t31 -11t12 -28q0 -21 -22 -49q2 -19 21 -19q54 0 90 49t72 167q71 236 102 372q9 39 9 61q0 11 -10 11h-206q-85 -328 -110 -407q-41 -130 -109 -200
q-60 -60 -128 -60q-47 0 -68 21.5t-21 51.5q0 16 12 30.5t32 14.5q17 0 31.5 -10.5t14.5 -30.5q0 -12 -24 -52q1 -8 8.5 -13t13.5 -5q55 0 91.5 47.5t73.5 167.5q29 97 119 445h-106l4 14h106l11 40q33 121 103 189q71 69 156 69q51 0 82.5 -20.5t31.5 -55.5
q0 -18 -11.5 -30.5t-32.5 -12.5q-16 0 -32 9.5t-16 27.5q0 11 8.5 31t9.5 28q-1 6 -15.5 10.5t-24.5 4.5q-125 0 -187 -220l-20 -70h204q28 7 40 7q18 0 26 -9.5t5 -36.5q-4 -38 -22 -103q-48 -186 -77 -281z" />
    <glyph glyph-name="f_i" unicode="fi" horiz-adv-x="555" 
d="M-123 -236q-47 0 -68 21.5t-21 51.5q0 16 12 30.5t32 14.5q17 0 31.5 -10.5t14.5 -30.5q0 -12 -24 -52q1 -8 8.5 -13t13.5 -5q55 0 92 48t73 167q45 148 119 445h-106l4 14h106l11 40q33 121 103 189q71 69 156 69q51 0 82.5 -20.5t31.5 -55.5q0 -18 -11.5 -30.5
t-32.5 -12.5q-16 0 -32 9.5t-16 27.5q0 11 8 31.5t9 28.5q-3 15 -39 15q-124 0 -187 -221l-20 -70h191q28 7 40 7q19 0 27 -10t4 -36q-8 -48 -41 -131l-57 -147q-23 -60 -23 -90q0 -32 36 -32q70 0 123 136l6 -2q-30 -75 -61.5 -113t-80.5 -38q-80 0 -80 78q0 29 20 83
q9 22 32.5 81t34.5 89q22 59 27 100q0 11 -8 11h-193q-85 -328 -110 -407q-41 -130 -109 -200q-60 -60 -128 -60z" />
    <glyph glyph-name="f_l" unicode="fl" horiz-adv-x="574" 
d="M-123 -236q-47 0 -68 21.5t-21 51.5q0 16 12 30.5t32 14.5q17 0 31.5 -10.5t14.5 -30.5q0 -12 -24 -52q1 -8 8.5 -13t13.5 -5q56 0 91.5 46.5t73.5 168.5q22 72 43 148.5t48 184.5l28 112h-106l4 14h106l11 40q33 117 99 185q71 73 160 73q57 0 80 -39l95 38l-197 -616
q-19 -58 -19 -87q0 -35 36 -35q67 0 122 138l7 -2q-31 -76 -62.5 -113.5t-80.5 -37.5q-78 0 -78 77q0 26 18 84l154 485q-16 -14 -41 -5.5t-25 32.5q0 9 6 28t7 24q-6 22 -32 22q-55 0 -100.5 -56t-76.5 -165l-20 -70h126l-5 -14h-124q-85 -328 -110 -407
q-41 -130 -109 -200q-60 -60 -128 -60z" />
    <glyph glyph-name=".notdef" horiz-adv-x="228" 
 />
    <glyph glyph-name=".notdef" horiz-adv-x="228" 
 />
    <glyph glyph-name=".null" horiz-adv-x="0" 
 />
    <glyph glyph-name="nonmarkingreturn" horiz-adv-x="333" 
 />
    <glyph glyph-name="space" unicode=" " horiz-adv-x="228" 
 />
    <glyph glyph-name="exclam" unicode="!" horiz-adv-x="310" 
d="M150 214q13 69 28.5 171t26 175t14.5 86q14 51 55 51q39 0 39 -42q0 -14 -20.5 -73t-65.5 -179.5t-70 -190.5zM114 -8q-23 0 -38 15t-15 37t15.5 37.5t37.5 15.5t37.5 -15.5t15.5 -37.5t-15 -37t-38 -15z" />
    <glyph glyph-name="quotedbl" unicode="&#x22;" horiz-adv-x="376" 
d="M130 472q3 42 3 82.5t-1 75t-1 37.5q0 70 48 70q44 0 44 -52q0 -12 -9.5 -34.5t-34.5 -76t-46 -102.5h-3zM326 472q3 42 3 83t-1.5 74t-1.5 38q0 70 48 70q44 0 44 -52q0 -12 -9.5 -34.5t-34.5 -76t-46 -102.5h-2z" />
    <glyph glyph-name="numbersign" unicode="#" horiz-adv-x="489" 
d="M84 -7l48 182l-121 -28l17 64l121 28l35 128l-121 -28l16 63l122 28l53 197h13l-52 -192l125 29l44 163h14l-43 -158l122 28l-17 -64l-122 -28l-35 -128l122 28l-17 -63l-121 -28l-59 -221h-14l58 216l-125 -29l-50 -187h-13zM163 243l125 30l35 128l-125 -30z" />
    <glyph glyph-name="dollar" unicode="$" horiz-adv-x="515" 
d="M114 -142l37 149q-64 14 -95 49t-31 72q0 33 19.5 58.5t48.5 25.5q19 0 30 -10.5t11 -28.5q0 -17 -8 -28t-22 -21t-20 -17q-7 -27 7.5 -54t61.5 -38q2 8 5.5 21t12 49t16.5 68t16 64.5t13 52.5l5 19q-117 36 -117 128q0 73 52 129.5t146 65.5l25 101h9l-25 -100
q45 3 90 -5l26 105h9l-27 -107q55 -13 83 -42.5t28 -60.5q0 -30 -16 -53.5t-39 -23.5q-18 0 -29.5 9t-11.5 24q0 23 24 45t27 28q-1 17 -16 36.5t-52 29.5l-65 -262q132 -34 132 -128q0 -87 -56.5 -143.5t-158.5 -64.5l-36 -142h-9l36 141q-39 -1 -91 6l-36 -147h-9zM161 13
q52 -8 91 -4l64 259q-18 5 -49.5 11t-37.5 7zM261 10q68 9 109.5 52.5t43.5 95.5q2 45 -18 69t-72 38zM334 338l65 262q-44 9 -90 4l-62 -246q16 -5 45 -10.5t42 -9.5zM239 361l15 61q16 61 31 121l15 60q-60 -9 -97 -50t-37 -90q0 -43 17 -65.5t56 -36.5z" />
    <glyph glyph-name="percent" unicode="%" horiz-adv-x="810" 
d="M202 300q-53 0 -88 34t-35 89q0 76 58 136t130 60q56 0 95.5 -34.5t39.5 -90.5q0 -80 -64.5 -137t-135.5 -57zM202 309q55 0 94.5 63.5t39.5 143.5q0 40 -17.5 67.5t-48.5 27.5q-38 0 -67.5 -35t-43.5 -82t-14 -92q0 -93 57 -93zM92 -97l-11 9l651 774l12 -9zM560 -13
q-53 0 -88 34t-35 89q0 76 58 136t130 60q56 0 95.5 -34.5t39.5 -90.5q0 -80 -64.5 -137t-135.5 -57zM560 -4q56 0 95 63.5t39 143.5q0 40 -17.5 67.5t-48.5 27.5q-56 0 -90.5 -67.5t-34.5 -141.5q0 -93 57 -93z" />
    <glyph glyph-name="ampersand" unicode="&#x26;" horiz-adv-x="828" 
d="M379 -17q-125 0 -212.5 65.5t-87.5 161.5q0 40 17 70t36.5 44.5t52.5 32.5q-67 47 -67 120q0 56 45.5 98t119.5 42q114 0 150 -124l-4 -2q-42 83 -135 83q-60 0 -95.5 -34.5t-35.5 -91.5q0 -52 30 -87q59 22 97 22q26 0 41 -10.5t15 -27.5q0 -14 -11 -24t-28 -10
q-67 0 -114 40q-64 -29 -69 -93q-7 -85 77.5 -151t250.5 -66q75 0 134 23t93 61t51.5 82t17.5 90q0 81 -42 123.5t-105 42.5q-52 0 -86.5 -30t-34.5 -75q0 -46 27 -68t67 -22q34 0 46 15q-17 7 -27.5 12.5t-20.5 17.5t-10 26q0 22 13 32t29 10q57 0 57 -53q0 -28 -21 -50
t-59 -22q-47 0 -86 33.5t-39 88.5q0 49 29 79.5t63.5 39.5t74.5 9q13 0 54 -2.5t52 -2.5q42 0 69 21.5t27 57.5q0 42 -23.5 65t-54.5 23q-19 0 -28.5 -9.5t-9.5 -18.5q2 -2 12 -7t17 -12.5t7 -19.5q0 -38 -38 -38q-20 0 -35 13t-15 39q0 24 22.5 43t61.5 19q43 0 68.5 -27
t25.5 -75q0 -61 -39.5 -93.5t-122.5 -27.5q93 -53 93 -167q0 -40 -10.5 -79.5t-38 -81t-70 -72.5t-111.5 -51t-157 -20z" />
    <glyph glyph-name="quotesingle" unicode="'" horiz-adv-x="181" 
d="M130 472q3 42 3 82.5t-1 75t-1 37.5q0 70 48 70q44 0 44 -52q0 -12 -9 -34t-34 -77t-45 -102h-5z" />
    <glyph glyph-name="parenleft" unicode="(" horiz-adv-x="341" 
d="M217 -144q-93 75 -137.5 149t-44.5 180q0 166 87.5 294t277.5 249l4 -6q-166 -110 -249.5 -244.5t-83.5 -284.5q0 -104 38 -182.5t113 -149.5z" />
    <glyph glyph-name="parenright" unicode=")" horiz-adv-x="341" 
d="M-47 -140l-4 6q166 110 249.5 244.5t83.5 284.5q0 104 -38 182.5t-113 149.5l5 5q93 -75 137.5 -149t44.5 -180q0 -166 -87.5 -294t-277.5 -249z" />
    <glyph glyph-name="asterisk" unicode="*" horiz-adv-x="365" 
d="M219 403q-20 6 -15 26q2 6 11 25t21 45.5t20 44.5q-25 -8 -67.5 -26.5t-46.5 -20.5q-21 -8 -28 9q-4 9 0.5 17t14.5 11q12 4 55.5 7t71.5 7q-18 14 -43 31.5t-40 29t-22 20.5q-11 15 1 27q16 16 30 -2q7 -8 32.5 -45.5t43.5 -56.5q2 17 4.5 47.5t4.5 52t4 28.5
q5 20 26 15q23 -6 16 -26q-2 -5 -11 -25t-21 -47.5t-19 -45.5q25 9 64 28t50 23q20 7 26 -13q4 -20 -19 -26q-12 -3 -53 -7t-68 -9q17 -14 41 -30.5t39 -28t22 -19.5q12 -14 -2 -28q-14 -12 -29 3q-5 6 -30.5 42.5t-42.5 56.5q-3 -19 -6 -48.5t-5 -51t-3 -26.5
q-6 -20 -27 -14z" />
    <glyph glyph-name="plus" unicode="+" horiz-adv-x="556" 
d="M270 19v226h-227v29h227v227h28v-227h227v-29h-227v-226h-28z" />
    <glyph glyph-name="comma" unicode="," horiz-adv-x="206" 
d="M1 -138l-2 5q39 21 70.5 60t35.5 75h-23q-55 0 -55 44q0 22 15.5 39t40.5 17q28 0 43 -17.5t15 -46.5q0 -57 -41.5 -102t-98.5 -74z" />
    <glyph glyph-name="hyphen" unicode="-" horiz-adv-x="396" 
d="M26 227l15 54h337l-15 -54h-337z" />
    <glyph glyph-name="period" unicode="." horiz-adv-x="206" 
d="M84 -8q-23 0 -39 16t-16 39t16.5 39t38.5 16q23 0 39 -16t16 -39t-16 -39t-39 -16z" />
    <glyph glyph-name="slash" unicode="/" horiz-adv-x="402" 
d="M-70 -211l-20 11l568 952l20 -11z" />
    <glyph glyph-name="zero" unicode="0" horiz-adv-x="590" 
d="M259 -14q-97 0 -152.5 64t-55.5 164q0 159 100 282.5t223 123.5q90 0 142.5 -59.5t52.5 -172.5q0 -159 -93.5 -280.5t-216.5 -121.5zM248 -6q69 0 127.5 72.5t88.5 174t30 199.5q0 73 -27 122.5t-85 49.5q-67 0 -127.5 -69t-94.5 -173t-34 -208q0 -72 31 -120t91 -48z
" />
    <glyph glyph-name="one" unicode="1" horiz-adv-x="403" 
d="M9 0l2 4q59 4 73 8q33 10 43 47l135 486q-15 -4 -33 -4q-57 0 -104 55l2 2q46 -23 100 -23q62 0 134 44h6q-27 -54 -52 -146l-113 -409q-10 -35 16 -48q17 -9 70 -12l-1 -4h-278z" />
    <glyph glyph-name="two" unicode="2" horiz-adv-x="545" 
d="M7 0l3 15q29 19 54.5 37t50 36.5t40.5 30.5t40 32.5t33.5 28.5t36 31t33.5 29q145 126 145 257q0 52 -25 83.5t-74 31.5q-71 0 -133 -64t-62 -125q0 -76 66 -76q41 0 94 48l4 -3q-37 -41 -68 -57t-69 -16q-39 0 -64 24.5t-25 62.5q0 74 85.5 144t186.5 70q80 0 120.5 -36
t40.5 -101q0 -106 -84.5 -190t-283.5 -187l-52 -38h242q43 0 65.5 18.5t59.5 73.5q6 9 9 14l5 -3l-92 -171h-382z" />
    <glyph glyph-name="three" unicode="3" horiz-adv-x="537" 
d="M189 -26q-77 0 -132.5 33.5t-55.5 92.5q0 35 23 63.5t58 28.5q20 0 31.5 -9.5t11.5 -25.5q0 -21 -10 -32.5t-21.5 -14t-21.5 -11.5t-10 -27q0 -41 29.5 -65.5t77.5 -24.5q89 0 162.5 79.5t73.5 172.5q0 37 -18.5 60t-53.5 23q-6 0 -12 -1t-13 -3.5t-12.5 -4t-13.5 -6
t-12.5 -7t-13.5 -8.5l-12 -8l-13.5 -9t-12.5 -9l-8 14q141 71 198.5 121.5t57.5 117.5q0 98 -100 98q-55 0 -111.5 -46t-56.5 -104q0 -27 17 -39.5t39 -12.5q43 0 77 29l4 -4q-67 -59 -127 -59q-28 0 -50 19.5t-22 52.5q0 63 78.5 117.5t173.5 54.5q74 0 110 -35.5t36 -89.5
q0 -58 -50.5 -102t-143.5 -56l-23 -13h44q56 0 86 -28t30 -82q0 -106 -83 -173t-205 -67z" />
    <glyph glyph-name="four" unicode="4" horiz-adv-x="502" 
d="M205 -177l65 184q-6 1 -69.5 23t-113.5 22q-8 0 -30 -2q-54 -46 -77 -46q-35 0 -35 24q0 18 43 25q27 4 67 4q65 58 123.5 200t122.5 363h87q-142 -439 -324 -563q33 4 73 4q29 0 56 -3.5t53 -9t36 -6.5l89 253h66l-93 -260q46 3 75.5 21.5t58.5 53.5l4 -4
q-40 -55 -61 -72q-38 -29 -90 -34l-63 -177h-63z" />
    <glyph glyph-name="five" unicode="5" horiz-adv-x="499" 
d="M172 -14q-72 0 -118 34.5t-46 80.5q0 32 20.5 49.5t43.5 17.5q39 0 39 -37q0 -16 -14 -32.5t-16 -28.5q-5 -34 19 -56t68 -22q91 0 148 76t57 176q0 58 -30.5 89t-84.5 31q-42 0 -82.5 -22t-61.5 -62l-9 3l149 334h4q10 -15 49.5 -27t94.5 -12q83 0 146 50l4 -3
q-49 -67 -112.5 -92t-142.5 -25q-49 0 -77 8l-83 -181q58 38 137 38t126.5 -41.5t47.5 -114.5q0 -96 -76.5 -163.5t-199.5 -67.5z" />
    <glyph glyph-name="six" unicode="6" horiz-adv-x="531" 
d="M225 -14q-85 0 -130 54t-45 157q0 117 61 234.5t158.5 193t197.5 75.5q61 0 87 -25.5t26 -61.5q0 -27 -12.5 -44t-35.5 -17q-41 0 -43 61q-1 38 -11.5 56.5t-46.5 18.5q-71 0 -157 -110t-136 -264l2 -2q45 54 88 83t102 29q72 0 110 -45.5t38 -123.5q0 -98 -72.5 -183.5
t-180.5 -85.5zM213 -7q54 0 100 47t69.5 112t23.5 126q0 55 -29.5 88.5t-81.5 33.5q-74 0 -131.5 -75t-57.5 -180q0 -67 28.5 -109.5t78.5 -42.5z" />
    <glyph glyph-name="seven" unicode="7" horiz-adv-x="491" 
d="M140 -119q-43 0 -43 43q0 74 179 316q53 71 234 288h-268q-57 0 -95 -33.5t-80 -102.5l-5 2l128 257h4l-7 -56h390l-1 -6q-87 -94 -159 -193q-91 -126 -143.5 -228.5t-82.5 -209.5q-2 -6 -4.5 -16.5t-4 -15.5t-4 -13t-4.5 -11.5t-5.5 -8.5t-7.5 -7t-9.5 -3.5t-11.5 -1.5z
" />
    <glyph glyph-name="eight" unicode="8" horiz-adv-x="532" 
d="M231 -16q-89 0 -141.5 41.5t-52.5 108.5q0 61 52.5 112t126.5 71q-87 49 -87 126q0 73 64.5 128.5t155.5 55.5q73 0 119 -37t48 -96q1 -59 -40 -103.5t-108 -64.5q104 -45 104 -132q0 -93 -72.5 -151.5t-168.5 -58.5zM233 -8q69 0 119.5 48.5t50.5 110.5q0 45 -16.5 71.5
t-74.5 54.5q-39 19 -88 35q-63 -24 -100 -76.5t-37 -112.5q0 -53 38.5 -92t107.5 -39zM357 330q56 17 88.5 69t30.5 103q-2 49 -38 83t-91 34q-68 0 -109 -45.5t-41 -96.5q0 -37 13 -59t54 -45q35 -20 93 -43z" />
    <glyph glyph-name="nine" unicode="9" horiz-adv-x="531" 
d="M90 -102q-61 0 -92 26.5t-31 60.5q0 27 12.5 44t35.5 17q43 0 43 -61q0 -40 12 -58t46 -18q48 0 94.5 32t85.5 88.5t71 122t59 142.5l-2 2q-82 -114 -192 -114q-72 0 -110 45.5t-38 123.5q0 98 72.5 183.5t180.5 85.5q85 0 130 -54t45 -157q0 -118 -57.5 -236.5
t-157 -196.5t-207.5 -78zM267 205q74 0 131.5 75.5t57.5 180.5q0 66 -28.5 108t-78.5 42q-56 0 -102 -47t-68.5 -111t-22.5 -125q0 -56 29.5 -89.5t81.5 -33.5z" />
    <glyph glyph-name="colon" unicode=":" horiz-adv-x="272" 
d="M100 -8q-23 0 -39 16t-16 39t16.5 39t38.5 16q23 0 39.5 -16t16.5 -39t-16.5 -39t-39.5 -16zM188 344q-23 0 -39 16t-16 39t16.5 39t38.5 16q23 0 39 -16t16 -39t-16 -39t-39 -16z" />
    <glyph glyph-name="semicolon" unicode=";" horiz-adv-x="272" 
d="M189 344q-23 0 -39 16t-16 39t16 39t39 16t39 -16t16 -39t-16 -39t-39 -16zM19 -138l-2 5q39 21 70.5 60t35.5 75h-23q-55 0 -55 44q0 22 15.5 39t40.5 17q28 0 43 -17.5t15 -46.5q0 -57 -41.5 -102t-98.5 -74z" />
    <glyph glyph-name="less" unicode="&#x3c;" horiz-adv-x="556" 
d="M507 35l-442 215v20l442 215v-29l-405 -196l405 -196v-29z" />
    <glyph glyph-name="equal" unicode="=" horiz-adv-x="556" 
d="M76 159v27h442v-27h-442zM76 334v27h442v-27h-442z" />
    <glyph glyph-name="greater" unicode="&#x3e;" horiz-adv-x="556" 
d="M517 250l-442 -215v29l405 196l-405 196v29l442 -215v-20z" />
    <glyph glyph-name="question" unicode="?" horiz-adv-x="404" 
d="M203 160q-37 0 -59 25t-22 69q0 55 37 92.5t114 74.5q72 34 97 66.5t25 82.5q0 48 -30 81t-88 33q-51 0 -84.5 -29.5t-33.5 -71.5q0 -36 23 -60.5t56 -24.5q15 0 23 4v3q-11 -1 -23.5 8t-12.5 24q0 17 11 28t27 11q44 0 44 -39q0 -20 -18.5 -35t-48.5 -15q-37 0 -63 27
t-26 68q0 49 40 83t102 34q74 0 114.5 -44.5t40.5 -107.5q0 -57 -33.5 -96t-102.5 -69q-77 -34 -120.5 -69t-43.5 -82q0 -27 18 -42.5t45 -15.5q26 0 46 23.5t26 58.5l5 -2q-8 -44 -30 -68.5t-55 -24.5zM146 -9q-23 0 -38 15t-15 37q0 23 15.5 38t37.5 15t37.5 -15t15.5 -38
q0 -22 -15 -37t-38 -15z" />
    <glyph glyph-name="at" unicode="@" horiz-adv-x="982" 
d="M494 -215q-77 0 -150 25t-134 72t-98.5 124t-37.5 173q0 121 60.5 230t172.5 178t248 69q79 0 142.5 -27t102.5 -73t60 -103t21 -119q0 -121 -77.5 -211t-173.5 -90q-37 0 -61.5 23.5t-23.5 66.5l-3 1q-20 -36 -54 -62.5t-67 -26.5q-38 0 -70.5 30t-32.5 103q0 29 15 71
t41 85t70 72.5t94 29.5q29 0 51.5 -17.5t26.5 -48.5h3l23 60h48l-92 -263q-11 -29 -11 -55q0 -62 49 -62q84 0 158 85t74 215q0 128 -85.5 214t-229.5 86q-73 0 -145 -31.5t-130.5 -88t-94.5 -144.5t-36 -192q0 -174 101 -275t244 -101q159 0 273.5 81.5t164.5 229.5l5 -2
q-44 -151 -167.5 -241.5t-273.5 -90.5zM427 53q41 0 69.5 25.5t54.5 74.5l63 189q-11 73 -82 73q-41 0 -79.5 -46.5t-60 -108.5t-21.5 -114q0 -93 56 -93z" />
    <glyph glyph-name="A" unicode="A" horiz-adv-x="630" 
d="M-115 0l1 4q27 2 67 20q35 17 91 88q20 26 196.5 247.5t264.5 334.5h7v-622q0 -25 3 -36.5t17 -18.5q21 -11 59 -13l-1 -4h-267l1 4q54 3 81 13q35 13 35 52v213h-247q-82 -106 -119 -160q-38 -55 -38 -71q0 -20 35 -32.5t67 -14.5l-1 -4h-252zM200 292h240l6 309
q-140 -174 -246 -309z" />
    <glyph glyph-name="B" unicode="B" horiz-adv-x="612" 
d="M-28 0l1 4q53 3 74 10q32 11 43 49l153 549q9 37 -16 50q-34 15 -68 17l2 4h278q82 0 127.5 -33.5t45.5 -93.5q0 -76 -57 -124.5t-160 -64.5v-4q174 -12 174 -142q0 -97 -85 -159t-228 -62h-284zM257 7q105 0 168 65t63 147q0 69 -40.5 104t-113.5 35q-50 0 -88 -2
l-80 -288q-4 -33 18.5 -47t72.5 -14zM249 365h59q109 0 166 51.5t57 130.5q0 57 -30 93t-83 36q-36 0 -84 -2z" />
    <glyph glyph-name="C" unicode="C" horiz-adv-x="616" 
d="M295 -15q-106 0 -175.5 72t-69.5 189q0 186 117 318t269 132q95 0 162 -60l51 57h5l-48 -247h-6q-16 241 -183 241q-111 0 -197.5 -127t-86.5 -296q0 -112 51.5 -184.5t147.5 -72.5q129 0 235 170l7 -4q-25 -41 -47 -69.5t-55.5 -58.5t-78 -45t-98.5 -15z" />
    <glyph glyph-name="D" unicode="D" horiz-adv-x="725" 
d="M-28 0l1 4q53 3 74 10q32 11 43 49l153 549q9 37 -16 50q-34 15 -68 17l2 4h283q115 0 192.5 -64t77.5 -201q0 -190 -134 -306q-131 -112 -325 -112h-283zM261 7q85 0 158 36t125 101q89 112 89 265q0 267 -219 267q-35 0 -79 -2l-165 -590q-12 -43 8.5 -60t82.5 -17z
" />
    <glyph glyph-name="E" unicode="E" horiz-adv-x="622" 
d="M-37 0l2 4q50 0 84 12q33 12 43 50l151 545q6 15 3 29.5t-19 21.5q-34 15 -75 17l2 4h500l-43 -156h-5q0 54 -16.5 97.5t-47.5 47.5q-28 4 -88 4h-118l-88 -314h98q58 0 95 32q26 20 56 96h6l-78 -278h-5q17 77 0 111q-17 31 -76 31h-98l-72 -256q-18 -58 0 -74.5
t91 -16.5q155 0 184 23q30 24 68 77t55 85h5l-65 -192h-549z" />
    <glyph glyph-name="F" unicode="F" horiz-adv-x="597" 
d="M-37 0l2 4q50 0 84 12q33 12 43 50l151 545q6 15 3 29.5t-19 21.5q-34 15 -75 17l2 4h525l-43 -162h-5q0 59 -16 102.5t-52 48.5q-31 4 -82 4h-145l-88 -316h112q57 0 98 31q28 20 57 97h5l-79 -281h-5q4 23 4.5 62t-3.5 52q-4 11 -26 21t-54 10h-111l-79 -280
q-13 -38 16 -51q34 -15 74 -17l-1 -4h-293z" />
    <glyph glyph-name="G" unicode="G" horiz-adv-x="690" 
d="M521 -20l-21 67q-62 -32 -108 -47t-97 -15q-105 0 -175 68.5t-70 198.5q0 114 52 216t146.5 165t207.5 63q57 0 95.5 -16t76.5 -51l52 64h4l-55 -240h-5q-3 51 -12 89t-27.5 73.5t-53.5 54.5t-85 19q-116 0 -213.5 -125t-97.5 -302q0 -125 45.5 -196.5t133.5 -71.5
q140 0 185 163l17 65q11 47 -18 59q-30 12 -94 16l1 5h301l-1 -5q-58 -9 -70 -14q-35 -14 -44 -52l-67 -250z" />
    <glyph glyph-name="H" unicode="H" horiz-adv-x="794" 
d="M-28 0l1 4q53 3 74 10q32 11 43 49l153 549q9 37 -16 50q-35 15 -67 17l1 4h281l-1 -4q-41 -2 -78 -12q-33 -10 -44 -50l-69 -249h353l69 244q5 14 2.5 28.5t-18.5 21.5q-32 15 -70 17l1 4h280l-1 -4q-40 -2 -75 -12q-32 -9 -43 -50l-155 -550q-5 -16 -2 -28t19 -20
q23 -12 68 -15l-1 -4h-281l1 4q59 3 78 10q33 11 43 49l83 295h-354l-82 -291q-9 -36 18 -48q8 -4 32 -9t38 -6l-1 -4h-280z" />
    <glyph glyph-name="I" unicode="I" horiz-adv-x="373" 
d="M-20 0l1 4q53 3 74 10q32 11 43 49l153 549q9 37 -16 50q-35 15 -67 17l1 4h281l-1 -4q-41 -2 -78 -12q-33 -10 -44 -50l-154 -550q-6 -17 -2 -29t20 -19q8 -4 32 -9t38 -6l-1 -4h-280z" />
    <glyph glyph-name="J" unicode="J" horiz-adv-x="532" 
d="M81 -173q-55 0 -78.5 22t-23.5 54q0 18 13.5 30.5t31.5 12.5q46 0 46 -41q0 -14 -24 -45q0 -12 10 -19t24 -7q64 0 104 45.5t74 167.5q17 60 67 290l-131 -1l3 9l132 4q41 123 121 202q-25 -3 -87 -3q-32 0 -58.5 19.5t-42 43t-40.5 43.5t-56 22q-31 0 -58 -28t-27 -56
q0 -12 6 -21q19 -1 37 -13t18 -29q0 -13 -11 -24t-26 -11q-23 0 -35.5 19t-12.5 47q0 46 46.5 94t105.5 48q34 0 59 -14t40.5 -34t30.5 -40.5t40 -37t59 -19.5h22q11 13 35.5 47.5t40 49t30.5 14.5q24 0 24 -27q0 -21 -36.5 -49t-93.5 -40q-24 -57 -57 -200l131 4l-8 -17
l-126 -1q-27 -129 -68 -268q-37 -123 -103 -183t-148 -60z" />
    <glyph glyph-name="K" unicode="K" horiz-adv-x="703" 
d="M-28 0l1 4q53 3 74 10q32 11 43 49l153 549q9 37 -16 50q-31 13 -87 17l1 4h301l-1 -4q-41 -2 -78 -12q-33 -10 -44 -50l-74 -266h18q128 85 233 171.5t114 120.5q8 31 -80 36l1 4h248l-1 -4q-82 -4 -139 -52q-205 -170 -317 -246q27 -34 64 -89t85 -130.5t48 -76.5
q29 -44 73 -66q25 -12 60 -14l-1 -5h-316l1 5q60 5 85 13t25 28q0 24 -60.5 126.5t-116.5 171.5h-25l-79 -277q-9 -36 18 -48q8 -4 32 -9t38 -6l-1 -4h-280z" />
    <glyph glyph-name="L" unicode="L" horiz-adv-x="614" 
d="M-37 0l2 4q50 0 84 12q33 12 43 50l151 545q6 15 3 29.5t-19 21.5q-34 15 -75 17l2 4h288l-1 -4q-41 -2 -78 -12q-33 -10 -44 -50l-144 -519q-17 -58 -1 -74.5t96 -16.5q142 0 166 18q25 20 70.5 76.5t65.5 92.5h5l-67 -194h-547z" />
    <glyph glyph-name="M" unicode="M" horiz-adv-x="916" 
d="M-50 0l1 4q18 1 52 9.5t48 17.5q38 24 72 147l106 390q15 57 -10 82q-27 27 -82 29l2 4h168l129 -575l319 489q35 54 46 86h185l-1 -4q-41 -2 -78 -12q-33 -10 -44 -50l-142 -550q-12 -34 18 -48q25 -12 73 -15l-1 -4h-279l1 4q51 3 71 10q34 12 43 49l145 572l-408 -624
h-5q-1 19 -5.5 41.5t-12 53t-10.5 44.5l-101 461l-114 -428q-34 -119 -6 -147q11 -11 51 -21t59 -11l-1 -4h-289z" />
    <glyph glyph-name="N" unicode="N" horiz-adv-x="732" 
d="M-50 0l1 4q18 1 52.5 10t47.5 17q40 25 70 137l104 387q18 64 -11 93q-28 28 -105 31l2 4h181l255 -574l107 405q30 114 2 135q-12 9 -44 19t-50 11l1 4h273l-1 -4q-16 -1 -50.5 -9t-48.5 -16q-38 -21 -69 -134l-141 -527h-5l-273 612l-113 -432q-30 -110 -3 -137
q10 -11 44 -21t51 -11l-1 -4h-276z" />
    <glyph glyph-name="O" unicode="O" horiz-adv-x="701" 
d="M305 -16q-102 0 -176.5 75t-74.5 198q0 90 33 173q44 110 140 189t211 79q99 0 174 -75.5t75 -192.5q0 -93 -35 -180q-47 -116 -137 -191t-210 -75zM306 -8q54 0 100.5 24t80 65.5t56.5 88t38 99.5q25 87 25 182q0 102 -40.5 170.5t-129.5 68.5q-71 0 -130.5 -43.5
t-93.5 -104.5t-53 -135q-24 -87 -24 -177q0 -103 41 -170.5t130 -67.5z" />
    <glyph glyph-name="P" unicode="P" horiz-adv-x="588" 
d="M-28 0l1 4q53 3 74 10q32 11 43 49l153 549q5 13 2.5 28t-18.5 22q-37 15 -67 17l1 4h260q94 0 141.5 -39.5t47.5 -107.5q0 -99 -85 -156t-228 -57h-60l-72 -257q-10 -34 18 -47q8 -4 32 -9t38 -6l-1 -4h-280zM240 331h61q108 0 168 52t60 144q0 68 -34 108t-102 40h-58z
" />
    <glyph glyph-name="Q" unicode="Q" horiz-adv-x="651" 
d="M606 -239q-129 0 -209 84q-27 29 -66 90.5t-62 82.5q-82 -33 -159 -33q-50 0 -85.5 16.5t-35.5 47.5q0 27 36 46.5t82 19.5q96 0 191 -75q113 60 186 182.5t73 274.5q0 37 -7 69t-23.5 61t-47.5 46t-74 17q-78 0 -145 -50.5t-103 -123.5t-36 -145q0 -63 34.5 -101
t88.5 -38q39 0 72 13t57.5 49.5t24.5 92.5q0 42 -19 72.5t-40 34.5q10 -27 1 -47.5t-32 -20.5q-39 0 -39 37q0 19 18.5 34.5t45.5 15.5q39 0 64 -31.5t25 -76.5q0 -81 -55.5 -133.5t-123.5 -52.5q-74 0 -119.5 52t-45.5 136q0 114 98 202.5t224 88.5q121 0 177.5 -65.5
t56.5 -169.5q0 -135 -97 -250t-233 -179q23 -17 45.5 -40.5t50 -56t40.5 -47.5q46 -50 93 -77.5t112 -27.5q50 0 74 11v3q-15 5 -25 18.5t-10 29.5q0 17 14.5 29t32.5 12q17 0 26.5 -11t9.5 -25q0 -36 -46.5 -63.5t-114.5 -27.5zM122 -3q81 0 143 27q-82 84 -154 84
q-25 0 -47.5 -17.5t-25.5 -38.5q6 -23 31.5 -39t52.5 -16z" />
    <glyph glyph-name="R" unicode="R" horiz-adv-x="696" 
d="M-28 0l1 4q53 3 74 10q32 11 43 49l153 549q11 37 -16 50q-29 14 -67 17l1 4h265q99 0 149 -35t50 -99q0 -157 -232 -196v-3q67 -10 94.5 -43.5t27.5 -96.5v-115q0 -75 42 -75q27 0 52 29t42 77q6 18 9 28l7 -2q-3 -10 -9 -28q-22 -65 -51 -100t-76 -35q-51 0 -72 25
t-21 79v106q0 95 -27.5 122.5t-119.5 27.5h-47l-80 -282q-10 -35 18 -48q8 -4 32.5 -9t38.5 -6l-1 -4h-280zM245 357h74q101 0 162.5 46t61.5 135q0 66 -33 101.5t-97 35.5h-78z" />
    <glyph glyph-name="S" unicode="S" horiz-adv-x="522" 
d="M214 -13q-52 0 -105 17.5t-77 37.5l-50 -52h-6l56 234h5q28 -227 195 -227q84 0 133.5 50t49.5 114q0 42 -15 67.5t-51 49.5q-20 13 -68 40.5t-73 44.5q-81 57 -81 135q0 81 65.5 139.5t164.5 58.5q42 0 87 -16.5t66 -37.5l47 51h7l-57 -227h-5q-13 221 -157 221
q-64 0 -111.5 -42t-47.5 -106q0 -39 14.5 -64.5t51.5 -51.5q22 -16 69.5 -43t71.5 -43q82 -55 82 -132q0 -96 -74.5 -157t-186.5 -61z" />
    <glyph glyph-name="T" unicode="T" 
d="M86 0l1 4q66 4 89 12q34 12 44 50l169 610h-52q-58 0 -90 -4q-30 -4 -80.5 -62.5t-72.5 -100.5h-6l49 174h582l-49 -174h-6q0 62 -15 110.5t-46 52.5q-32 4 -88 4h-52l-166 -605q-13 -36 17 -50q8 -4 41.5 -10t47.5 -7l-1 -4h-316z" />
    <glyph glyph-name="U" unicode="U" horiz-adv-x="786" 
d="M326 -16q-210 0 -210 158q0 46 14 95l104 375q9 37 -16 50q-35 15 -67 17l1 4h281l-1 -4q-40 -2 -78 -12q-33 -10 -44 -50l-100 -360q-19 -68 -19 -117q0 -54 44.5 -90.5t120.5 -36.5q191 0 254 222l77 270q34 122 5 144q-12 9 -44 19t-50 11l1 4h272l-1 -4
q-16 -1 -50.5 -9t-48.5 -16q-36 -20 -72 -143l-80 -280q-36 -126 -103.5 -186.5t-189.5 -60.5z" />
    <glyph glyph-name="V" unicode="V" horiz-adv-x="630" 
d="M178 -11h-5l-8 622q0 25 -3 36.5t-17 18.5q-21 11 -59 13l1 4h264l-1 -4q-54 -3 -81 -13q-35 -13 -35 -52l7 -527l361 474q39 51 39 71t-35 32.5t-67 14.5l1 4h248l-1 -4q-31 -2 -67 -20q-40 -19 -93 -88z" />
    <glyph glyph-name="W" unicode="W" horiz-adv-x="947" 
d="M183 -8l-18 619v6q-1 35 -13 45q-3 2 -7 4q-21 11 -59 13l1 4h265l-1 -4q-54 -3 -81 -13q-35 -13 -35 -52l12 -515l301 452q0 30 -2 68t-20 47q-21 11 -59 13l1 4h264l-1 -4q-54 -3 -81 -13q-37 -14 -35 -52l15 -515l276 418q52 80 52 113q0 21 -30.5 33.5t-69.5 15.5
l1 4h244l-1 -4q-29 -2 -68 -20q-14 -7 -29 -23t-22.5 -26.5t-23.5 -34.5l-389 -583h-5l-17 540l-360 -540h-5z" />
    <glyph glyph-name="X" unicode="X" horiz-adv-x="713" 
d="M-65 0l2 5q28 1 61 14q47 18 100 67q34 31 252 249q-71 172 -110 263q-13 31 -23 44t-31 23q-25 12 -67 14l1 4h328l-2 -4q-132 -7 -132 -50q0 -21 22 -81q20 -56 68 -170q134 139 174 184q58 67 58 80q0 32 -100 37l1 4h261l-1 -4q-30 -2 -62 -14q-43 -16 -100 -67
q-30 -27 -74.5 -72.5t-94.5 -98t-58 -60.5q34 -82 117 -281q15 -36 31 -52q15 -17 32 -21.5t55 -7.5l-2 -5h-328l2 5q68 3 102 13.5t34 37.5q0 18 -19 71q-25 71 -77 198q-134 -131 -195 -198q-62 -68 -62 -83q0 -20 24.5 -28t75.5 -11l-2 -5h-261z" />
    <glyph glyph-name="Y" unicode="Y" horiz-adv-x="613" 
d="M117 0l1 4q50 3 71 10q32 11 41 49l65 262q15 60 15 136q0 77 -31.5 130.5t-97.5 53.5q-36 0 -69 -28t-49 -78l-6 2q52 154 174 154q71 0 105 -59t34 -146q0 -55 -11 -128h9q53 157 132.5 245.5t155.5 88.5q26 0 42.5 -13t16.5 -34q0 -23 -14 -35.5t-33 -12.5
q-21 0 -30.5 10.5t-9.5 22.5q0 21 13 38l-4 4q-28 -3 -63.5 -26t-73.5 -63t-72.5 -105.5t-54.5 -144.5l-68 -270q-9 -36 20 -49q8 -4 37.5 -9t43.5 -5l-1 -4h-288z" />
    <glyph glyph-name="Z" unicode="Z" horiz-adv-x="581" 
d="M-62 0l2 8l635 668h-198q-61 0 -87 -5q-38 -7 -87 -62t-85 -110h-4l68 184h485l-2 -6l-637 -670h213q125 0 160 26q35 27 76.5 79t67.5 93h4l-73 -205h-538z" />
    <glyph glyph-name="bracketleft" unicode="[" horiz-adv-x="552" 
d="M361 -198l-4 3q33 29 33 57q0 34 -80 34q-46 0 -98.5 -6.5t-91.5 -14.5t-125 -26l-25 -8l236 886l21 -8q74 -18 110.5 -26t85.5 -14.5t95 -6.5q22 0 35.5 1t33 6t29.5 18.5t10 34.5q0 14 -8 30l4 2q13 -13 13 -40q0 -56 -46 -88t-112 -32q-40 0 -75 10t-54.5 21
t-59.5 36.5t-61 38.5l-228 -852q27 12 81 38t79 37t66 21t81 10q103 0 105 -71q0 -56 -50 -91z" />
    <glyph glyph-name="backslash" unicode="\" horiz-adv-x="402" 
d="M250 -206l-22 -2l-58 952l22 2z" />
    <glyph glyph-name="bracketright" unicode="]" horiz-adv-x="552" 
d="M207 764l4 -3q-33 -29 -33 -57q0 -34 80 -34q46 0 98.5 6.5t91.5 14.5t125 26l25 8l-236 -886l-21 8q-74 18 -110.5 26t-85.5 14.5t-95 6.5q-22 0 -35.5 -1t-33 -6t-29.5 -18.5t-10 -34.5q0 -14 8 -30l-4 -2q-13 13 -13 40q0 56 46 88t112 32q40 0 75 -10t54.5 -21
t59.5 -36.5t61 -38.5l228 852q-27 -12 -81 -38t-79 -37t-66 -21t-81 -10q-103 0 -105 71q0 56 50 91z" />
    <glyph glyph-name="asciicircum" unicode="^" horiz-adv-x="426" 
d="M97 422l-5 4q108 145 133 176q15 19 50 19q34 0 44 -20l86 -176l-7 -3l-131 131z" />
    <glyph glyph-name="underscore" unicode="_" horiz-adv-x="596" 
d="M-106 -140v30h610v-30h-610z" />
    <glyph glyph-name="grave" unicode="`" horiz-adv-x="500" 
d="M411 531q-52 53 -121 119q-25 24 -25 49q0 14 9 23t22 9q16 0 25.5 -10t20.5 -33q6 -14 32.5 -69.5t40.5 -85.5z" />
    <glyph glyph-name="a" unicode="a" horiz-adv-x="528" 
d="M151 -13q-56 0 -92 36.5t-36 120.5q0 45 20 105t56 109q76 103 187 103q44 0 71 -24.5t33 -54.5h2l26 73h63l-115 -327q-16 -46 -18 -79q-1 -45 32 -45q35 0 69 37t59 101l7 -2q-30 -74 -65 -112.5t-86 -38.5q-40 0 -56.5 28t-0.5 87l-2 1q-62 -118 -154 -118zM164 9
q79 -4 137 103l85 255q-6 36 -32 58t-70 22q-82 0 -138 -111q-53 -104 -53 -216q0 -108 71 -111z" />
    <glyph glyph-name="b" unicode="b" horiz-adv-x="488" 
d="M202 -13q-74 0 -113.5 39.5t-39.5 97.5q0 33 14 75l136 425q15 45 15 67q0 27 -40 32q-16 2 -65 4v5l194 10l-128 -390l2 -1q25 41 65.5 75.5t87.5 34.5q57 0 96 -37t39 -120q0 -42 -16 -94t-45.5 -103t-83 -85.5t-118.5 -34.5zM204 -6q83 0 140 119q51 107 51 215
q0 109 -78 109q-43 0 -83 -33.5t-68 -81.5l-66 -209q0 -55 29 -87t75 -32z" />
    <glyph glyph-name="c" unicode="c" horiz-adv-x="389" 
d="M161 -14q-53 0 -95.5 36.5t-42.5 121.5q0 63 33 135.5t94.5 127t129.5 54.5q48 0 76.5 -26t28.5 -69q0 -25 -11.5 -37.5t-28.5 -12.5q-18 0 -32 11.5t-14 28.5q0 15 13 29.5t34 22.5q-2 18 -20.5 32.5t-42.5 14.5q-48 0 -92.5 -54t-70.5 -131t-26 -147q0 -56 24 -85
t64 -29q52 0 98 38.5t79 99.5l6 -3q-86 -158 -204 -158z" />
    <glyph glyph-name="d" unicode="d" horiz-adv-x="538" 
d="M151 -13q-56 0 -92 36.5t-36 120.5q0 52 22.5 117.5t65.5 115.5q72 84 175 84q82 0 106 -87h2l76 250q15 46 15 67q0 27 -41 32q-13 2 -75 4v5l203 10l-193 -614q-16 -49 -16 -78q0 -44 33 -44q69 0 122 136l7 -2q-31 -77 -62 -114t-81 -37q-88 0 -59 125l-2 1
q-34 -56 -79.5 -92t-90.5 -36zM164 11q45 0 85 31.5t69 83.5l71 234q-6 36 -34 61t-71 25q-73 0 -129 -94q-29 -50 -45.5 -113.5t-16.5 -118.5q0 -109 71 -109z" />
    <glyph glyph-name="e" unicode="e" horiz-adv-x="390" 
d="M164 -14q-25 0 -48 7.5t-45 24.5t-35 50t-13 78q0 41 19 93t52 102.5t87 85t116 34.5q37 0 63 -17.5t26 -49.5q0 -55 -44.5 -95t-105.5 -58.5t-131 -22.5q-12 -51 -12 -98q0 -51 22.5 -79.5t63.5 -28.5q52 0 98.5 39t79.5 100l6 -3q-85 -162 -199 -162zM106 223
q58 6 103 25.5t69 45t35.5 49.5t11.5 45q0 28 -13 47t-38 19q-49 0 -97 -69.5t-71 -161.5z" />
    <glyph glyph-name="f" unicode="f" horiz-adv-x="307" 
d="M-123 -236q-47 0 -68 21.5t-21 51.5q0 16 12 30.5t32 14.5q17 0 31.5 -10.5t14.5 -30.5q0 -12 -24 -52q1 -8 8.5 -13t13.5 -5q55 0 91.5 47.5t73.5 167.5q29 97 119 445h-106l4 14h106l11 40q33 117 99 185q71 73 160 73q44 0 66.5 -21.5t22.5 -49.5q0 -20 -12 -34
t-32 -14q-16 0 -32 9.5t-16 27.5q0 11 8.5 31.5t9.5 28.5q0 6 -8 10.5t-17 4.5q-114 0 -177 -221l-20 -70h126l-5 -14h-124q-85 -328 -110 -407q-41 -130 -109 -200q-60 -60 -128 -60z" />
    <glyph glyph-name="g" unicode="g" horiz-adv-x="458" 
d="M132 -234q-82 0 -129.5 30.5t-47.5 79.5q0 51 46 87t128 47v3q-93 17 -93 69q0 37 32.5 61.5t68.5 35.5v2q-36 16 -56 44.5t-20 61.5q0 73 54.5 123.5t134.5 50.5q63 0 102 -39q2 1 21 11.5t26.5 14.5t22.5 8.5t27 4.5q16 0 28.5 -12t12.5 -30q0 -19 -11.5 -31t-29.5 -12
q-36 0 -36 62q-28 0 -61 -22v-5q23 -35 23 -73q0 -74 -48.5 -121t-120.5 -47h-74q-22 -6 -36.5 -21t-15.5 -33q-1 -27 26 -38.5t102 -16.5q44 -3 98 -11q49 -8 71 -32t22 -71q0 -72 -75 -126.5t-192 -54.5zM157 -226q89 0 138.5 44t49.5 109q0 51 -39 60q-52 12 -177 18
q-48 -12 -80 -45.5t-32 -79.5t35 -76t105 -30zM204 176q50 0 80.5 65t30.5 123q0 91 -71 91q-52 0 -85.5 -62.5t-33.5 -113.5q0 -103 79 -103z" />
    <glyph glyph-name="h" unicode="h" horiz-adv-x="529" 
d="M10 0l197 624q14 42 14 67q0 27 -39 32q-18 2 -65 4v5l194 10l-131 -397l2 -1q77 117 159 117q52 0 78 -30.5t26 -75.5q0 -29 -19 -80l-56 -147q-24 -65 -24 -89q0 -34 39 -34q67 0 122 137l7 -2q-31 -76 -62.5 -113.5t-80.5 -37.5q-85 0 -85 78q0 25 22 83l59 156
q22 60 22 83q0 48 -60 48q-50 0 -91.5 -38.5t-65.5 -87.5l-98 -311h-64z" />
    <glyph glyph-name="i" unicode="i" horiz-adv-x="315" 
d="M151 -11q-80 0 -80 78q0 29 20 83l67 170q23 59 23 89q0 36 -32 36q-68 0 -122 -138l-6 2q32 77 62.5 114.5t79.5 37.5q34 0 55 -21.5t21 -63.5q0 -26 -31 -101l-57 -147q-23 -60 -23 -90q0 -32 36 -32q70 0 123 136l6 -2q-31 -76 -62 -113.5t-80 -37.5zM264 591
q-20 0 -31 13.5t-11 34.5q0 26 15.5 43t42.5 17q17 0 27.5 -14.5t10.5 -32.5q0 -26 -14.5 -43.5t-39.5 -17.5z" />
    <glyph glyph-name="j" unicode="j" horiz-adv-x="272" 
d="M-90 -236q-39 0 -60.5 20.5t-21.5 47.5q0 19 11.5 32.5t30.5 13.5t31 -11t12 -28q0 -21 -22 -49q2 -19 21 -19q54 0 90 49t72 167q34 113 99 361q8 32 8 57q0 40 -30 40q-68 0 -122 -138l-6 2q30 76 61 114t81 38q74 0 74 -84q0 -24 -14 -74q-48 -186 -77 -281
q-24 -78 -59 -134q-79 -124 -179 -124zM256 591q-20 0 -31 13.5t-11 34.5q0 26 15.5 43t42.5 17q17 0 27.5 -14.5t10.5 -32.5q0 -26 -14.5 -43.5t-39.5 -17.5z" />
    <glyph glyph-name="k" unicode="k" horiz-adv-x="523" 
d="M8 0l198 624q14 43 14 67q0 27 -39 32q-18 2 -65 4v5l194 10l-152 -472q15 -1 58 -1q35 0 60 20t39 48l28 56t38 48t59 20q76 0 76 -62q0 -22 -14.5 -39.5t-36.5 -17.5q-14 0 -26 9t-12 21q0 24 16.5 38.5t18.5 23.5q-8 21 -30 21t-40 -26t-30.5 -58.5t-42.5 -64
t-73 -40.5q49 -11 71 -30.5t22 -62.5q0 -30 -8.5 -69.5t-8.5 -53.5q0 -45 36 -45q70 0 122 137l7 -2q-30 -75 -62.5 -113t-81.5 -38q-42 0 -62.5 17.5t-20.5 60.5q0 24 10 70t10 59q0 35 -18.5 51.5t-60.5 16.5q-20 0 -44 -2l-85 -262h-64z" />
    <glyph glyph-name="l" unicode="l" horiz-adv-x="274" 
d="M115 -11q-78 0 -78 77q0 24 18 84l150 474q14 43 14 67q0 27 -40 32q-16 2 -65 4v5l195 10l-197 -616q-19 -58 -19 -87q0 -35 36 -35q67 0 122 138l7 -2q-31 -76 -62.5 -113.5t-80.5 -37.5z" />
    <glyph glyph-name="m" unicode="m" horiz-adv-x="839" 
d="M54 0l108 320q22 63 22 95q0 31 -30 31q-68 0 -122 -139l-7 2q32 77 62.5 114.5t79.5 37.5q41 0 59 -32t2 -93l2 -1q31 54 76.5 90t87.5 36q51 0 77 -32.5t16 -91.5l2 -1q29 52 75 88.5t88 36.5q50 0 77 -29.5t27 -76.5q0 -29 -19 -80l-56 -147q-24 -63 -24 -89
q0 -34 39 -34q67 0 122 137l7 -2q-31 -76 -62.5 -113.5t-80.5 -37.5q-85 0 -85 78q0 25 22 83l59 156q22 60 22 83q0 48 -60 48q-80 0 -144 -103l-109 -334h-67l106 320q16 45 16 69q0 48 -60 48q-50 0 -91 -38t-66 -88l-104 -311h-67z" />
    <glyph glyph-name="n" unicode="n" horiz-adv-x="581" 
d="M424 -11q-85 0 -85 78q0 25 22 83l59 156q22 60 22 83q0 48 -60 48q-50 0 -91.5 -38.5t-65.5 -87.5l-102 -311h-69l108 320q22 63 22 95q0 31 -30 31q-68 0 -122 -139l-7 2q32 77 62.5 114.5t79.5 37.5q41 0 59 -32t2 -93l2 -1q31 54 76.5 90t87.5 36q52 0 78 -30t26 -72
q0 -33 -19 -84l-56 -147q-24 -65 -24 -89q0 -34 39 -34q67 0 122 137l7 -2q-31 -76 -62.5 -113.5t-80.5 -37.5z" />
    <glyph glyph-name="o" unicode="o" horiz-adv-x="457" 
d="M169 -14q-60 0 -101 45t-41 130q0 89 63 181q81 119 195 119q62 0 104 -45.5t42 -130.5q0 -41 -18 -93t-51 -97q-79 -109 -193 -109zM178 -7q86 0 141 123q42 95 42 191q0 76 -22.5 111.5t-58.5 35.5q-44 0 -81 -36t-63 -94q-39 -89 -39 -182q0 -75 22 -112t59 -37z" />
    <glyph glyph-name="p" unicode="p" horiz-adv-x="542" 
d="M-86 -234l1 4q54 2 71 22q16 17 38 84l139 444q21 66 20 95q-1 31 -28 31q-69 0 -123 -139l-7 2q31 77 62 114.5t80 37.5q41 0 57 -33t0 -94l2 -1q34 57 78 92.5t89 35.5q56 0 92 -36.5t36 -120.5q0 -47 -19.5 -107.5t-56.5 -109.5q-75 -100 -187 -100q-44 0 -70.5 26.5
t-35.5 62.5h-2l-61 -202q-14 -48 -14 -67q0 -27 41 -32q20 -2 59 -4l-1 -5h-260zM260 2q82 0 138 111q53 104 53 215q0 109 -71 109q-43 0 -83 -33.5t-68 -81.5l-73 -234q6 -36 33.5 -61t70.5 -25z" />
    <glyph glyph-name="q" unicode="q" horiz-adv-x="494" 
d="M119 -234l1 4q67 3 83 22q19 22 38 84q47 144 71 225l-2 1q-69 -115 -159 -115q-128 0 -128 157q0 54 25 123t72 119q70 75 166 75q44 0 75 -28.5t37 -58.5h2l47 81h42l-185 -581q-14 -45 -14 -67q0 -27 40 -32q23 -3 52 -4l-1 -5h-262zM164 11q88 0 151 115l79 234
q-6 35 -36 60.5t-74 25.5q-67 0 -120 -80q-33 -50 -52 -119t-19 -127q0 -109 71 -109z" />
    <glyph glyph-name="r" unicode="r" horiz-adv-x="397" 
d="M62 0l100 320q19 60 19 90q0 36 -28 36q-67 0 -122 -140l-6 3q31 77 62 114.5t80 37.5q41 0 59 -33t2 -94l2 -1q20 44 55.5 86t73.5 42q25 0 40 -15t15 -37q0 -21 -12 -38.5t-34 -17.5t-33 11.5t-9 27.5q1 12 11.5 23t10.5 13q2 11 -11 11q-23 0 -57 -42.5t-57 -90.5
l-95 -306h-66z" />
    <glyph glyph-name="s" unicode="s" horiz-adv-x="362" 
d="M148 -14q-77 0 -110 35t-33 77q0 26 16 44t39 18t32.5 -12.5t9.5 -27.5t-9.5 -27t-29.5 -12h-3h-9.5t-6 -1.5t-4.5 -4t-1 -7.5q0 -26 29 -51t79 -25q45 0 76 27t31 67q0 21 -6 37.5t-22.5 32.5t-24.5 22.5t-33 24.5t-40 31.5t-28 37.5t-13 53q0 53 42 94.5t102 41.5
q36 0 60 -11.5t34 -30t13.5 -32.5t3.5 -27q0 -26 -12 -41.5t-35 -15.5q-15 0 -27 9.5t-12 27.5q0 22 25 39t25 18q-1 7 -3.5 14.5t-9.5 18.5t-23.5 18t-39.5 7q-36 0 -64.5 -26.5t-28.5 -70.5q0 -22 13 -43t25.5 -32t39.5 -31q29 -21 43.5 -34t29 -38t14.5 -53
q0 -57 -42.5 -99t-111.5 -42z" />
    <glyph glyph-name="t" unicode="t" horiz-adv-x="309" 
d="M124 -11q-80 0 -80 77q0 21 10 58q3 12 93 307h-97l5 14h97l44 155h63l-46 -155h128l-5 -14h-127q-87 -293 -90 -305q-19 -71 -19 -81q0 -41 37 -41q36 0 70 37.5t59 102.5l7 -2q-30 -74 -65 -113.5t-84 -39.5z" />
    <glyph glyph-name="u" unicode="u" horiz-adv-x="573" 
d="M185 -13q-50 0 -77 30t-27 82q0 27 19 74l57 147q22 57 22 86q0 39 -30 39q-66 0 -120 -138l-7 2q30 76 60.5 113t79.5 37q35 0 55.5 -19t20.5 -59q0 -26 -21 -83l-61 -156q-18 -45 -18 -81q0 -53 59 -53q46 0 85.5 31.5t65.5 78.5l103 328h68l-105 -318q-16 -48 -16 -82
q0 -17 9.5 -28.5t23.5 -11.5q69 0 122 137l7 -3q-31 -76 -62.5 -113.5t-80.5 -37.5q-89 0 -68 113l-2 1q-28 -51 -73.5 -83.5t-88.5 -32.5z" />
    <glyph glyph-name="v" unicode="v" horiz-adv-x="494" 
d="M217 -14q-52 0 -92 35.5t-40 97.5q0 72 47 142.5t142 151.5l-3 3q-82 -50 -138 -50q-47 0 -70 15l-36 -102l-6 2l61 178h3q13 -25 42.5 -39.5t59.5 -14.5q73 0 136 56l4 -4q-67 -65 -120.5 -152.5t-53.5 -171.5q0 -116 105 -116q92 0 147 100q40 72 40 174q0 31 -27.5 63
t-27.5 63q0 17 14 29.5t33 12.5q40 0 40 -72q0 -161 -66 -275q-73 -126 -194 -126z" />
    <glyph glyph-name="w" unicode="w" horiz-adv-x="677" 
d="M415 -14q-73 0 -106 72q-62 -71 -122 -71q-43 0 -74 36.5t-31 98.5q0 126 182 290l-3 4q-72 -48 -129 -48q-44 0 -70 15l-35 -99l-6 2l59 173h3q12 -25 45 -39.5t58 -14.5q66 0 128 55l3 -3q-62 -62 -115 -159t-53 -181q0 -49 20 -75t46 -26q45 0 91 49q-18 45 -18 99
q0 49 27 119.5t68 124t76 53.5q24 0 24 -60q0 -51 -37 -134t-93 -161q16 -44 44.5 -66t52.5 -22q43 0 81 29.5t64 80.5q19 37 26.5 70t7.5 88q0 25 -9.5 43.5t-21 27.5t-21 25t-9.5 37q0 16 12.5 29t31.5 13q29 0 38 -20t9 -57q0 -148 -57 -260q-71 -138 -187 -138zM350 115
q48 69 81.5 141.5t33.5 116.5t-30 44q-27 0 -51 -31q-43 -57 -43 -196q0 -45 9 -75z" />
    <glyph glyph-name="x" unicode="x" horiz-adv-x="508" 
d="M62 -12q-40 0 -60 19t-20 49q0 69 85 141l4 -4q-34 -78 -34 -146q0 -51 36 -51q39 0 73.5 45t48.5 82t34 102l3 9q29 93 29 145q0 66 -50 66q-38 0 -74.5 -37t-61.5 -101l-7 2q62 152 154 152q40 0 65.5 -24.5t26.5 -97.5h3q18 47 55.5 84.5t81.5 37.5q73 0 73 -73
q0 -58 -72 -123l-3 3q12 22 22.5 63t10.5 73q0 50 -35 50q-94 0 -158 -242q-23 -89 -23 -125q0 -80 61 -80q81 0 135 136l7 -2q-60 -153 -156 -153q-108 0 -103 133h-4q-58 -133 -147 -133z" />
    <glyph glyph-name="y" unicode="y" horiz-adv-x="518" 
d="M90 -239q-41 0 -68 9.5t-38 24.5t-14.5 26.5t-3.5 23.5q0 27 17.5 43t39.5 16q18 0 28.5 -10.5t10.5 -25.5q0 -29 -28 -38q-3 -1 -8 -2t-7.5 -2t-5.5 -2.5t-4 -4.5t-1 -8q0 -22 22 -33t54 -11q99 0 161.5 88.5t110.5 258.5l-2 1q-29 -54 -75.5 -91t-93.5 -37
q-48 0 -76 32.5t-28 79.5q0 27 19 74l57 147q22 55 22 86q0 39 -30 39q-66 0 -120 -138l-7 2q30 76 60.5 113t79.5 37q35 0 55.5 -19t20.5 -59q0 -26 -21 -83l-61 -156q-18 -45 -18 -81q0 -53 59 -53q87 0 159 124l97 314h65l-105 -340q-107 -345 -323 -345z" />
    <glyph glyph-name="z" unicode="z" horiz-adv-x="407" 
d="M3 -13q-11 0 -19.5 8.5t-8.5 25.5q0 27 56 73q221 182 326 256l-1 3q-31 -2 -97.5 17t-90.5 19q-67 0 -67 -48q0 -23 18.5 -40.5t42.5 -25.5l-3 -6q-99 33 -99 95q0 37 27.5 66t65.5 29q35 0 70 -25t68 -50t60 -25q11 0 18.5 2.5t10 10t3 12t0 16.5t-0.5 15q0 21 9.5 33
t22.5 12q22 0 22 -30q0 -19 -11.5 -36t-46.5 -45l-317 -251l1 -3q26 -1 81 -20t94 -20q41 -1 64.5 13t26.5 38q3 25 -11.5 41.5t-36.5 20.5l2 5q80 -17 80 -93q0 -38 -28 -65t-62 -27q-47 0 -120.5 51t-104.5 51q-9 -2 -13.5 -10t-4.5 -14.5t1 -20.5t1 -19q0 -39 -28 -39z
" />
    <glyph glyph-name="braceleft" unicode="{" horiz-adv-x="406" 
d="M260 -169q-97 0 -130.5 24t-33.5 83q0 47 31.5 123.5t31.5 110.5q0 48 -30.5 71t-100.5 28l8 33q109 12 152 51.5t51 149.5q9 135 59 187t190 52l-1 -4q-86 -6 -125.5 -51t-48.5 -145q-6 -63 -24.5 -107.5t-50.5 -70.5t-67.5 -40t-86.5 -23l-8 -31q71 -12 103.5 -37.5
t32.5 -80.5q0 -44 -26.5 -118.5t-26.5 -103.5q0 -46 22.5 -69.5t79.5 -27.5z" />
    <glyph glyph-name="bar" unicode="|" horiz-adv-x="270" 
d="M143 -207v953h26v-953h-26z" />
    <glyph glyph-name="braceright" unicode="}" horiz-adv-x="406" 
d="M-55 -169l1 4q86 6 125.5 51t48.5 145q6 63 24.5 107.5t50.5 70.5t67.5 40t86.5 23l8 31q-71 12 -103.5 37.5t-32.5 80.5q0 44 26.5 118.5t26.5 103.5q0 46 -22.5 69.5t-79.5 27.5l1 4q97 0 130.5 -24t33.5 -83q0 -47 -31.5 -123.5t-31.5 -110.5q0 -48 30.5 -71
t100.5 -28l-8 -33q-109 -12 -152 -51.5t-51 -149.5q-9 -135 -59 -187t-190 -52z" />
    <glyph glyph-name="asciitilde" unicode="~" horiz-adv-x="520" 
d="M46 191l-4 3q25 46 73.5 80.5t95.5 34.5q40 0 89.5 -22t71.5 -22q68 0 121 67l3 -3q-26 -48 -69 -83.5t-89 -35.5q-44 0 -92 22t-70 22q-80 0 -130 -63z" />
    <glyph glyph-name="nbspace" unicode="&#xa0;" horiz-adv-x="114" 
 />
    <glyph glyph-name="exclamdown" unicode="&#xa1;" horiz-adv-x="310" 
d="M232 475q-13 -69 -28.5 -171t-26 -175t-14.5 -86q-14 -51 -55 -51q-39 0 -39 42q0 14 20.5 73t65.5 179.5t70 190.5zM268 697q23 0 38 -15t15 -37q0 -23 -15.5 -38t-37.5 -15t-37.5 15t-15.5 38q0 22 15 37t38 15z" />
    <glyph glyph-name="cent" unicode="&#xa2;" horiz-adv-x="439" 
d="M102 -112l-8 3l66 178q-98 29 -98 153q0 63 33.5 135.5t95.5 127t131 54.5h9l49 131l8 -3l-48 -130q39 -5 61.5 -30t22.5 -63q0 -26 -12.5 -38.5t-30.5 -11.5q-17 1 -30 12t-13 28q0 15 13 29.5t34 22.5q-2 16 -15 29.5t-32 15.5l-159 -433q18 -8 37 -8q53 0 101.5 37.5
t80.5 97.5l6 -3q-86 -158 -204 -158q-16 0 -32 3zM172 103l157 430q-70 1 -133 -112t-63 -220q0 -67 39 -98z" />
    <glyph glyph-name="sterling" unicode="&#xa3;" horiz-adv-x="722" 
d="M54 -92q-46 0 -69 19t-23 49q0 45 55 72.5t134 27.5q52 0 97 -10q3 8 5.5 17t3.5 22.5t1 22t0.5 28t0.5 27.5h-148v10h148q2 57 8 92h-138v11h139q8 60 32.5 124.5t64 123t99.5 96t128 37.5q81 0 119.5 -43.5t38.5 -101.5q0 -77 -44 -126t-117 -49q-43 0 -72 28t-29 71
q0 54 29 98l4 -2q-23 -39 -23 -86q0 -40 26.5 -65t64.5 -25q51 0 82 46t31 110q0 53 -27.5 95.5t-81.5 42.5q-178 0 -225 -295q-7 -50 -13 -79h191v-11h-193q-9 -55 -21 -92h195v-10h-198q-25 -72 -68 -120q43 -11 126 -51t135 -40q31 0 54 10.5t39.5 35t26 46.5t22.5 61
l5 -2q-10 -41 -25 -73.5t-40.5 -65t-66.5 -50.5t-95 -18q-25 0 -57 10t-49 17.5t-63 31t-53 27.5q-74 -94 -166 -94zM54 -85q43 0 85.5 25t72.5 67q-74 36 -140 36q-44 0 -72.5 -19t-28.5 -50q0 -25 23 -42t60 -17z" />
    <glyph glyph-name="currency" unicode="&#xa4;" horiz-adv-x="547" 
d="M291 -14q-102 0 -151.5 73t-40.5 183h-64v11h65q5 48 17 90h-54v11h58q39 115 127.5 190.5t191.5 75.5q76 0 115.5 -32.5t39.5 -76.5q0 -37 -17 -56t-45 -19q-17 0 -27.5 10t-10.5 26q0 21 21 40.5t24 36.5q4 23 -25.5 43t-78.5 20q-72 0 -136 -74.5t-99 -183.5h254v-11
h-257q-13 -45 -19 -90h208v-11h-210q-25 -230 130 -230q113 0 216 135l5 -4q-45 -69 -106 -113t-131 -44z" />
    <glyph glyph-name="yen" unicode="&#xa5;" horiz-adv-x="555" 
d="M69 0l1 4q55 3 75 10q32 11 43 49l26 94h-155v11h158l23 86h-155v11h157q-25 115 -68 259q-13 46 -40 64q-18 13 -43 14l1 5h257l-1 -5q-99 -8 -99 -29q0 -7 7.5 -44t24 -105.5t36.5 -138.5q81 94 150.5 183t69.5 100q0 26 -101 34l1 5h225l-1 -5q-27 -3 -52 -16
q-36 -19 -129.5 -124.5t-161.5 -196.5h158v-11h-162l-26 -86h162v-11h-166l-25 -92q-9 -36 18 -48q21 -10 70 -13l-1 -4h-277z" />
    <glyph glyph-name="brokenbar" unicode="&#xa6;" horiz-adv-x="270" 
d="M143 -207v392h26v-392h-26zM143 363v383h26v-383h-26z" />
    <glyph glyph-name="section" unicode="&#xa7;" horiz-adv-x="484" 
d="M123 -226q-44 0 -65 20t-21 54q0 28 17.5 45t40.5 17q16 0 27.5 -9t11.5 -24q0 -22 -25 -36.5t-27 -26.5q-2 -13 10.5 -22.5t31.5 -9.5q58 0 94 38.5t36 94.5q0 36 -16.5 74t-67.5 123q-49 82 -68 128t-19 92q0 56 39.5 91t110.5 41q-20 51 -20 95q0 75 50 127t127 52
q44 0 65 -20t21 -54q0 -28 -17.5 -45t-40.5 -17q-16 0 -27.5 9t-11.5 24q0 22 23.5 36t25.5 26q2 14 -9 23.5t-30 9.5q-58 0 -94 -38.5t-36 -94.5q0 -36 16.5 -74t67.5 -123q49 -82 68 -128t19 -92q0 -56 -39.5 -91t-110.5 -41q20 -51 20 -95q0 -75 -50 -127t-127 -52z
M278 53q104 15 104 102q0 32 -18 69.5t-78 139.5q-34 56 -51 95q-104 -15 -104 -102q0 -32 18 -69.5t78 -139.5q34 -56 51 -95z" />
    <glyph glyph-name="dieresis" unicode="&#xa8;" horiz-adv-x="500" 
d="M240 587q-20 0 -31 13t-11 31q0 23 16 39.5t42 16.5q16 0 27.5 -13.5t11.5 -29.5q0 -23 -15 -40t-40 -17zM433 587q-20 0 -31 13t-11 31q0 23 16 39.5t42 16.5q16 0 27.5 -13.5t11.5 -29.5q0 -23 -15 -40t-40 -17z" />
    <glyph glyph-name="copyright" unicode="&#xa9;" horiz-adv-x="939" 
d="M483 13q-104 0 -168 63.5t-64 170.5q0 104 70 173.5t176 69.5q28 0 68.5 -9.5t57.5 -21.5l22 38h4l4 -181h-4q-56 166 -171 166q-56 0 -99 -61.5t-43 -168.5q0 -91 48.5 -149t118.5 -58q104 0 162 117l5 -4q-65 -145 -187 -145zM477 -181q-174 0 -302 127.5t-128 304.5
q0 176 128 303t302 127q84 0 163 -34.5t137.5 -92t93.5 -137t35 -166.5q0 -177 -128 -304.5t-301 -127.5zM477 -157q163 0 283 120t120 288q0 166 -120 286t-283 120q-164 0 -284 -119.5t-120 -286.5q0 -110 55.5 -204.5t148.5 -149t200 -54.5z" />
    <glyph glyph-name="ordfeminine" unicode="&#xaa;" horiz-adv-x="360" 
d="M169 362q-32 0 -54 20t-22 67q0 53 43 112t110 59q38 0 47 -44h2l12 41h42l-60 -175q-11 -29 -11 -46q0 -19 15 -19q43 0 69 73l5 -2q-16 -41 -33.5 -62.5t-45.5 -21.5q-44 0 -42 57h-2q-33 -59 -75 -59zM179 378q33 0 62 49l46 145q-7 38 -40 38q-39 0 -73 -61t-34 -113
q0 -58 39 -58zM72 275l4 17h215l-4 -17h-215z" />
    <glyph glyph-name="guillemotleft" unicode="&#xab;" horiz-adv-x="541" 
d="M205 18q-129 148 -148 169q-17 19 -12 37q5 19 30 35q189 126 248 170l4 -4l-208 -203l90 -202zM414 18q-129 148 -148 169q-17 19 -12 37q5 19 30 35q189 126 248 170l4 -4l-208 -203l90 -202z" />
    <glyph glyph-name="logicalnot" unicode="&#xac;" horiz-adv-x="556" 
d="M459 39v218h-417v28h449v-246h-32z" />
    <glyph glyph-name="registered" unicode="&#xae;" horiz-adv-x="468" 
d="M389 423q-34 0 -40 51q-7 55 -47 55h-20v-82q0 -11 9 -15q6 -3 20 -3v-3h-88v3q14 0 20 3q9 4 9 15v162q0 12 -9 15q-12 4 -20 4v3h102q25 0 44 -11.5t19 -34.5q0 -34 -58 -50v-3q14 -2 28 -10.5t18 -23.5q2 -7 6 -24t6 -25q4 -13 15 -13q16 0 16 29h4q0 -23 -7 -32.5
t-27 -9.5zM313 339q-74 0 -126.5 52.5t-52.5 129.5t52.5 129.5t126.5 52.5t126.5 -52.5t52.5 -129.5t-52.5 -129.5t-126.5 -52.5zM313 350q69 0 117.5 49.5t48.5 121.5t-48.5 121.5t-117.5 49.5t-117.5 -49.5t-48.5 -121.5t48.5 -121.5t117.5 -49.5zM282 533h19q52 0 52 46
q0 24 -12.5 36t-31.5 12h-27v-94z" />
    <glyph glyph-name="macron" unicode="&#xaf;" horiz-adv-x="500" 
d="M182 602l13 49h330l-13 -49h-330z" />
    <glyph glyph-name="degree" unicode="&#xb0;" horiz-adv-x="406" 
d="M263 414q-61 0 -102 38.5t-41 106.5q0 64 44 107.5t99 43.5q62 0 104.5 -38.5t42.5 -111.5q0 -60 -44.5 -103t-102.5 -43zM266 421q37 0 63.5 41t26.5 96q0 61 -24 103t-68 42q-43 0 -67 -42t-24 -98q0 -58 24.5 -100t68.5 -42z" />
    <glyph glyph-name="plusminus" unicode="&#xb1;" 
d="M387 -2q-31 0 -53 21.5t-22 53.5q0 14 9 43t9 51v11l-7 5q-7 -1 -20 -1q-30 0 -56 18l-13 -1q-15 -22 -21 -61q-14 -83 -78 -83q-31 0 -54 22.5t-23 54.5t24 53.5t59 21.5q49 0 74 13l3 14q-10 22 -10 43q0 13 3 25l-5 13q-9 3 -27 3q-15 0 -35 -3.5t-29 -3.5
q-33 0 -55 22.5t-22 53.5t22 54t54 23q45 0 67 -42q4 -7 9 -24t11.5 -31.5t17.5 -25.5l15 1q28 30 69 30l11 7q0 28 -17 61.5t-17 52.5q0 32 22 52.5t54 20.5t53 -22.5t21 -53.5q0 -22 -10 -37.5t-22.5 -23t-29 -22.5t-26.5 -33l4 -12q38 -20 48 -58l12 -6q23 8 54.5 39
t63.5 31q30 0 51.5 -22.5t21.5 -54.5q0 -31 -21.5 -52.5t-53.5 -21.5q-24 0 -56.5 23t-59.5 27l-9 -8q-6 -35 -39 -60l-1 -10q15 -20 53 -39q55 -26 55 -76q0 -30 -23 -53t-55 -23zM303 208q29 0 48 20t19 50q0 29 -19 48.5t-48 19.5q-28 0 -47.5 -19.5t-19.5 -48.5
t19.5 -49.5t47.5 -20.5z" />
    <glyph glyph-name="twosuperior" unicode="&#xb2;" horiz-adv-x="414" 
d="M58 337l7 28q11 6 40.5 22t38.5 21t30.5 17t31 18t25.5 16t28 19t25 19q65 50 88.5 89.5t23.5 82.5q0 30 -18 49.5t-51 19.5q-51 0 -101.5 -40t-50.5 -82q0 -43 47 -43q44 0 91 55l4 -4q-65 -81 -131 -81q-27 0 -44 16t-17 41q0 52 68.5 99t140.5 47q60 0 94.5 -31.5
t34.5 -73.5q0 -58 -58.5 -107t-197.5 -100l-74 -42h201q16 0 37 14t32 25.5t37 39.5l4 -3l-98 -131h-288z" />
    <glyph glyph-name="threesuperior" unicode="&#xb3;" horiz-adv-x="401" 
d="M178 332q-54 0 -90.5 22t-36.5 58q0 30 20 48.5t40 18.5q37 0 37 -28q0 -22 -11 -30.5t-23.5 -12.5t-15.5 -14q-5 -19 15 -36.5t59 -17.5q64 0 115 48t51 113q0 55 -41 55q-7 0 -17.5 -5t-18 -10l-24 -16t-23.5 -16l-9 16q18 9 47 22.5t41.5 19.5t31.5 16.5t26.5 18.5
t16.5 20t12 25.5t3 31.5q0 29 -16.5 44.5t-44.5 15.5q-45 0 -83.5 -28.5t-38.5 -66.5q0 -32 41 -32q23 0 53 25l3 -4q-46 -44 -86 -44q-61 0 -61 44q0 48 59 80.5t124 32.5q61 0 88 -25.5t27 -58.5q0 -79 -129 -90l-26 -12q13 3 27 3q37 -1 62.5 -23.5t25.5 -56.5
q0 -67 -73.5 -109t-156.5 -42z" />
    <glyph glyph-name="acute" unicode="&#xb4;" horiz-adv-x="500" 
d="M431 647q-8 -5 -76.5 -47.5t-109.5 -69.5l-3 3q89 94 142 159q32 38 63 38q13 0 21 -8t8 -19q0 -25 -45 -56z" />
    <glyph glyph-name="mu" unicode="&#xb5;" horiz-adv-x="552" 
d="M396 -11q-89 0 -68 113l-2 1q-28 -51 -73.5 -83.5t-88.5 -32.5q-85 0 -102 85h-2l-15 -55q-12 -42 -15 -105t-4 -72q-9 -66 -45 -66q-11 0 -20 8.5t-9 25.5t5.5 33.5t20 46t22.5 48.5q27 67 45 127l115 383h68l-94 -304q-17 -53 -17 -81q0 -53 59 -53q46 0 85.5 31.5
t65.5 78.5l103 328h68l-105 -318q-16 -48 -16 -82q0 -17 9.5 -28.5t23.5 -11.5q69 0 122 137l7 -3q-31 -76 -62.5 -113.5t-80.5 -37.5z" />
    <glyph glyph-name="paragraph" unicode="&#xb6;" horiz-adv-x="585" 
d="M188 -125l120 484h-11q-91 0 -143 39t-52 104q0 71 59.5 126t163.5 55h344l-3 -12h-141l-199 -796h-14l198 796h-110l-198 -796h-14z" />
    <glyph glyph-name="periodcentered" unicode="&#xb7;" horiz-adv-x="282" 
d="M151 208q-27 0 -46 18.5t-19 45.5t19 46t46 19t46 -19t19 -46t-19 -45.5t-46 -18.5z" />
    <glyph glyph-name="cedilla" unicode="&#xb8;" horiz-adv-x="500" 
d="M58 -227l2 6q60 1 108 22t48 53q0 20 -17.5 27t-58.5 7l39 120h8l-20 -63q43 0 75.5 -15.5t32.5 -49.5q0 -53 -65 -80t-152 -27z" />
    <glyph glyph-name="onesuperior" unicode="&#xb9;" horiz-adv-x="329" 
d="M53 339l1 5q60 4 67 6q26 7 33 32l86 323q-13 -3 -35 -3q-44 0 -76 30l2 4q29 -16 73 -16q60 0 118 29h6q-15 -26 -35 -102l-70 -262q-7 -24 14 -32q12 -5 65 -9l-2 -5h-247z" />
    <glyph glyph-name="ordmasculine" unicode="&#xba;" horiz-adv-x="317" 
d="M169 362q-30 0 -53 24t-23 72q0 52 41.5 107t106.5 55q29 0 52.5 -24.5t23.5 -71.5q0 -52 -41 -107t-107 -55zM175 368q44 0 70.5 56.5t26.5 112.5q0 78 -36 78q-40 0 -69 -57.5t-29 -110.5q0 -79 37 -79zM65 275l4 17h215l-4 -17h-215z" />
    <glyph glyph-name="guillemotright" unicode="&#xbb;" horiz-adv-x="541" 
d="M328 428l4 2q129 -148 148 -169q17 -19 12 -37q-5 -19 -30 -35q-189 -126 -248 -170l-4 4l208 203zM119 428l4 2q129 -148 148 -169q17 -19 12 -37q-5 -19 -30 -35q-189 -126 -248 -170l-4 4l208 203z" />
    <glyph glyph-name="onequarter" unicode="&#xbc;" horiz-adv-x="528" 
d="M185 339l1 5q60 4 67 6q26 7 33 32l86 323q-14 -3 -35 -3q-44 0 -76 30l2 4q29 -16 73 -16q60 0 118 29h6q-15 -26 -35 -102l-70 -262q-7 -24 14 -32q12 -5 65 -9l-2 -5h-247zM52 248l6 21h455l-6 -21h-455zM217 -240l32 95q-11 2 -56 17t-72 15q-11 0 -29 -3
q-28 -30 -61 -30q-25 0 -25 19q0 12 12 18.5t28 6.5q25 0 46 -4q40 32 68.5 102.5t60.5 189.5h78q-29 -94 -80.5 -172t-117.5 -122q1 0 18.5 2.5t24.5 2.5q24 0 114 -10l50 137h57l-50 -137q53 6 83 39l4 -3q-44 -57 -96 -66l-34 -97h-55z" />
    <glyph glyph-name="onehalf" unicode="&#xbd;" horiz-adv-x="528" 
d="M185 339l1 5q60 4 67 6q26 7 33 32l86 323q-14 -3 -35 -3q-44 0 -76 30l2 4q29 -16 73 -16q60 0 118 29h6q-15 -26 -35 -102l-70 -262q-7 -24 14 -32q12 -5 65 -9l-2 -5h-247zM48 248l6 21h455l-6 -21h-455zM-4 -227l7 28q11 6 40.5 22t38.5 21t30.5 17t31 18t25.5 16
t28 19t25 19q65 50 88.5 89.5t23.5 82.5q0 30 -18 49.5t-51 19.5q-51 0 -101.5 -40t-50.5 -82q0 -43 47 -43q44 0 91 55l4 -4q-65 -81 -131 -81q-27 0 -44 16t-17 41q0 52 68.5 99t140.5 47q60 0 94.5 -31.5t34.5 -73.5q0 -58 -58.5 -107t-197.5 -100l-74 -42h201
q16 0 37 14t32 25.5t37 39.5l4 -3l-98 -131h-288z" />
    <glyph glyph-name="threequarters" unicode="&#xbe;" horiz-adv-x="528" 
d="M40 248l5 21h455l-5 -21h-455zM199 -240l32 95q-11 2 -56 17t-72 15q-11 0 -29 -3q-28 -30 -61 -30q-25 0 -25 19q0 12 12 18.5t28 6.5q25 0 46 -4q40 32 68.5 102.5t60.5 189.5h78q-29 -94 -80.5 -172t-117.5 -122q1 0 18.5 2.5t24.5 2.5q24 0 114 -10l50 137h57
l-50 -137q53 6 83 39l4 -3q-44 -57 -96 -66l-34 -97h-55zM261 332q-54 0 -90.5 22t-36.5 58q0 30 20 48.5t40 18.5q38 0 38 -30q0 -14 -7 -22.5t-16 -11t-17.5 -8t-10.5 -13.5q-5 -19 15 -36.5t59 -17.5q64 0 115 48t51 113q0 55 -41 55q-7 0 -17.5 -5t-18 -10l-24 -16
t-23.5 -16l-9 16q18 9 47 22.5t41.5 19.5t31.5 16.5t26.5 18.5t16.5 20t12 25.5t3 31.5q0 29 -16.5 44.5t-44.5 15.5q-45 0 -83.5 -28.5t-38.5 -66.5q0 -32 41 -32q23 0 53 25l3 -4q-46 -44 -86 -44q-61 0 -61 44q0 48 59 80.5t124 32.5q61 0 88 -25.5t27 -58.5
q0 -79 -129 -90l-25 -12q12 3 24 3q38 0 64 -23t26 -57q0 -67 -73.5 -109t-156.5 -42z" />
    <glyph glyph-name="questiondown" unicode="&#xbf;" horiz-adv-x="404" 
d="M267 530q37 0 59 -25t22 -69q0 -55 -37 -92.5t-114 -74.5q-72 -34 -97 -66.5t-25 -82.5q0 -48 30 -81t88 -33q51 0 84.5 29.5t33.5 71.5q0 36 -23 60.5t-56 24.5q-15 0 -23 -4v-3q11 1 23.5 -8t12.5 -24q0 -17 -11 -28t-27 -11q-44 0 -44 39q0 20 18.5 35t48.5 15
q37 0 63 -27t26 -68q0 -49 -40 -83t-102 -34q-74 0 -114.5 44.5t-40.5 107.5q0 57 33.5 96t102.5 69q77 34 120.5 69t43.5 82q0 27 -18 42.5t-45 15.5q-26 0 -46 -23.5t-26 -58.5l-5 2q8 44 30 68.5t55 24.5zM324 699q23 0 38 -15t15 -37q0 -23 -15.5 -38t-37.5 -15
t-37.5 15t-15.5 38q0 22 15 37t38 15z" />
    <glyph glyph-name="Agrave" unicode="&#xc0;" horiz-adv-x="630" 
d="M-115 0l1 4q27 2 67 20q35 17 91 88q20 26 196.5 247.5t264.5 334.5h7v-622q0 -25 3 -36.5t17 -18.5q21 -11 59 -13l-1 -4h-267l1 4q54 3 81 13q35 13 35 52v213h-247q-82 -106 -119 -160q-38 -55 -38 -71q0 -20 35 -32.5t67 -14.5l-1 -4h-252zM200 292h240l6 309
q-140 -174 -246 -309zM538 722q-52 53 -121 119q-25 24 -25 49q0 14 9 23t22 9q16 0 25.5 -10t20.5 -33q6 -14 32.5 -69.5t40.5 -85.5z" />
    <glyph glyph-name="Aacute" unicode="&#xc1;" horiz-adv-x="630" 
d="M-115 0l1 4q27 2 67 20q35 17 91 88q20 26 196.5 247.5t264.5 334.5h7v-622q0 -25 3 -36.5t17 -18.5q21 -11 59 -13l-1 -4h-267l1 4q54 3 81 13q35 13 35 52v213h-247q-82 -106 -119 -160q-38 -55 -38 -71q0 -20 35 -32.5t67 -14.5l-1 -4h-252zM200 292h240l6 309
q-140 -174 -246 -309zM632 838q-8 -5 -76.5 -47.5t-109.5 -69.5l-3 3q89 94 142 159q32 38 63 38q13 0 21 -8t8 -19q0 -25 -45 -56z" />
    <glyph glyph-name="Acircumflex" unicode="&#xc2;" horiz-adv-x="630" 
d="M-115 0l1 4q27 2 67 20q35 17 91 88q20 26 196.5 247.5t264.5 334.5h7v-622q0 -25 3 -36.5t17 -18.5q21 -11 59 -13l-1 -4h-267l1 4q54 3 81 13q35 13 35 52v213h-247q-82 -106 -119 -160q-38 -55 -38 -71q0 -20 35 -32.5t67 -14.5l-1 -4h-252zM200 292h240l6 309
q-140 -174 -246 -309zM648 701l-113 140l-186 -140l-4 3q17 19 79.5 88.5t78.5 87.5q11 12 18 15.5t25 3.5q15 0 20 -3t10 -14l76 -179z" />
    <glyph glyph-name="Atilde" unicode="&#xc3;" horiz-adv-x="630" 
d="M-115 0l1 4q27 2 67 20q35 17 91 88q20 26 196.5 247.5t264.5 334.5h7v-622q0 -25 3 -36.5t17 -18.5q21 -11 59 -13l-1 -4h-267l1 4q54 3 81 13q35 13 35 52v213h-247q-82 -106 -119 -160q-38 -55 -38 -71q0 -20 35 -32.5t67 -14.5l-1 -4h-252zM200 292h240l6 309
q-140 -174 -246 -309zM346 747l-5 2q13 22 29 45t47.5 49.5t58.5 26.5q33 0 70.5 -28.5t59.5 -28.5q30 0 61 26t47 50l5 -2q-72 -126 -137 -126q-30 0 -69 28.5t-61 28.5q-30 0 -60.5 -24t-45.5 -47z" />
    <glyph glyph-name="Adieresis" unicode="&#xc4;" horiz-adv-x="630" 
d="M-115 0l1 4q27 2 67 20q35 17 91 88q20 26 196.5 247.5t264.5 334.5h7v-622q0 -25 3 -36.5t17 -18.5q21 -11 59 -13l-1 -4h-267l1 4q54 3 81 13q35 13 35 52v213h-247q-82 -106 -119 -160q-38 -55 -38 -71q0 -20 35 -32.5t67 -14.5l-1 -4h-252zM200 292h240l6 309
q-140 -174 -246 -309zM427 768q-20 0 -31 13t-11 31q0 23 16 39.5t42 16.5q16 0 27.5 -13.5t11.5 -29.5q0 -23 -15 -40t-40 -17zM620 768q-20 0 -31 13t-11 31q0 23 16 39.5t42 16.5q16 0 27.5 -13.5t11.5 -29.5q0 -23 -15 -40t-40 -17z" />
    <glyph glyph-name="Aring" unicode="&#xc5;" horiz-adv-x="630" 
d="M-115 0l1 4q27 2 67 20q35 17 91 88q20 26 196.5 247.5t264.5 334.5h7v-622q0 -25 3 -36.5t17 -18.5q21 -11 59 -13l-1 -4h-267l1 4q54 3 81 13q35 13 35 52v213h-247q-82 -106 -119 -160q-38 -55 -38 -71q0 -20 35 -32.5t67 -14.5l-1 -4h-252zM200 292h240l6 309
q-140 -174 -246 -309zM524 721q-42 0 -71 23t-29 58q0 48 39 79.5t88 31.5q42 0 70 -23t28 -60q0 -45 -37.5 -77t-87.5 -32zM522 729q36 0 59.5 36.5t23.5 76.5q0 28 -13.5 45.5t-39.5 17.5q-36 0 -59.5 -37t-23.5 -78q0 -27 13.5 -44t39.5 -17z" />
    <glyph glyph-name="AE" unicode="&#xc6;" horiz-adv-x="950" 
d="M256 294h228l101 370h-16zM73 101l484 564q-26 9 -91 14l1 4h515l-43 -156h-5q0 54 -16.5 97.5t-47.5 47.5q-28 4 -88 4h-118l-88 -314h98q58 0 95 32q26 20 56 96h6l-78 -278h-5q17 77 0 111q-17 31 -76 31h-98l-72 -256q-18 -59 -0.5 -75t91.5 -16q155 0 184 23
q30 24 68 77t55 85h5l-65 -192h-549l2 4q50 0 84 12q33 12 43 50l61 218h-233l-142 -170q-32 -42 -36 -59q-6 -20 28.5 -34.5t74.5 -16.5l-1 -4h-263l1 4q37 2 73 19q31 15 90 78z" />
    <glyph glyph-name="Ccedilla" unicode="&#xc7;" horiz-adv-x="616" 
d="M154 -229l2 6q60 1 108 22t48 53q0 20 -17.5 27t-58.5 7l32 100q-96 9 -157 80t-61 180q0 186 117 318t269 132q95 0 162 -60l51 57h5l-48 -247h-6q-16 241 -183 241q-56 0 -108 -35.5t-93 -97.5q-83 -128 -83 -290q0 -112 51.5 -184.5t147.5 -72.5q129 0 235 170l7 -4
q-25 -41 -47 -69.5t-55.5 -58.5t-78 -45t-98.5 -15q-13 0 -19 1l-13 -43q43 0 75.5 -15.5t32.5 -49.5q0 -53 -65 -80t-152 -27z" />
    <glyph glyph-name="Egrave" unicode="&#xc8;" horiz-adv-x="622" 
d="M-37 0l2 4q50 0 84 12q33 12 43 50l151 545q6 15 3 29.5t-19 21.5q-34 15 -75 17l2 4h500l-43 -156h-5q0 54 -16.5 97.5t-47.5 47.5q-28 4 -88 4h-118l-88 -314h98q58 0 95 32q26 20 56 96h6l-78 -278h-5q17 77 0 111q-17 31 -76 31h-98l-72 -256q-18 -58 0 -74.5
t91 -16.5q155 0 184 23q30 24 68 77t55 85h5l-65 -192h-549zM534 722q-52 53 -121 119q-25 24 -25 49q0 14 9 23t22 9q16 0 25.5 -10t20.5 -33q6 -14 32.5 -69.5t40.5 -85.5z" />
    <glyph glyph-name="Eacute" unicode="&#xc9;" horiz-adv-x="622" 
d="M-37 0l2 4q50 0 84 12q33 12 43 50l151 545q6 15 3 29.5t-19 21.5q-34 15 -75 17l2 4h500l-43 -156h-5q0 54 -16.5 97.5t-47.5 47.5q-28 4 -88 4h-118l-88 -314h98q58 0 95 32q26 20 56 96h6l-78 -278h-5q17 77 0 111q-17 31 -76 31h-98l-72 -256q-18 -58 0 -74.5
t91 -16.5q155 0 184 23q30 24 68 77t55 85h5l-65 -192h-549zM554 838q-8 -5 -76.5 -47.5t-109.5 -69.5l-3 3q89 94 142 159q32 38 63 38q13 0 21 -8t8 -19q0 -25 -45 -56z" />
    <glyph glyph-name="Ecircumflex" unicode="&#xca;" horiz-adv-x="622" 
d="M-37 0l2 4q50 0 84 12q33 12 43 50l151 545q6 15 3 29.5t-19 21.5q-34 15 -75 17l2 4h500l-43 -156h-5q0 54 -16.5 97.5t-47.5 47.5q-28 4 -88 4h-118l-88 -314h98q58 0 95 32q26 20 56 96h6l-78 -278h-5q17 77 0 111q-17 31 -76 31h-98l-72 -256q-18 -58 0 -74.5
t91 -16.5q155 0 184 23q30 24 68 77t55 85h5l-65 -192h-549zM604 721l-113 140l-186 -140l-4 3q17 19 79.5 88.5t78.5 87.5q11 12 18 15.5t25 3.5q15 0 20 -3t10 -14l76 -179z" />
    <glyph glyph-name="Edieresis" unicode="&#xcb;" horiz-adv-x="622" 
d="M-37 0l2 4q50 0 84 12q33 12 43 50l151 545q6 15 3 29.5t-19 21.5q-34 15 -75 17l2 4h500l-43 -156h-5q0 54 -16.5 97.5t-47.5 47.5q-28 4 -88 4h-118l-88 -314h98q58 0 95 32q26 20 56 96h6l-78 -278h-5q17 77 0 111q-17 31 -76 31h-98l-72 -256q-18 -58 0 -74.5
t91 -16.5q155 0 184 23q30 24 68 77t55 85h5l-65 -192h-549zM363 778q-20 0 -31 13t-11 31q0 23 16 39.5t42 16.5q16 0 27.5 -13.5t11.5 -29.5q0 -23 -15 -40t-40 -17zM556 778q-20 0 -31 13t-11 31q0 23 16 39.5t42 16.5q16 0 27.5 -13.5t11.5 -29.5q0 -23 -15 -40t-40 -17
z" />
    <glyph glyph-name="Igrave" unicode="&#xcc;" horiz-adv-x="373" 
d="M-20 0l1 4q53 3 74 10q32 11 43 49l153 549q9 37 -16 50q-35 15 -67 17l1 4h281l-1 -4q-41 -2 -78 -12q-33 -10 -44 -50l-154 -550q-6 -17 -2 -29t20 -19q8 -4 32 -9t38 -6l-1 -4h-280zM369 722q-52 53 -121 119q-25 24 -25 49q0 14 9 23t22 9q16 0 25.5 -10t20.5 -33
q6 -14 32.5 -69.5t40.5 -85.5z" />
    <glyph glyph-name="Iacute" unicode="&#xcd;" horiz-adv-x="373" 
d="M-20 0l1 4q53 3 74 10q32 11 43 49l153 549q9 37 -16 50q-35 15 -67 17l1 4h281l-1 -4q-41 -2 -78 -12q-33 -10 -44 -50l-154 -550q-6 -17 -2 -29t20 -19q8 -4 32 -9t38 -6l-1 -4h-280zM447 838q-8 -5 -76.5 -47.5t-109.5 -69.5l-3 3q89 94 142 159q32 38 63 38
q13 0 21 -8t8 -19q0 -25 -45 -56z" />
    <glyph glyph-name="Icircumflex" unicode="&#xce;" horiz-adv-x="373" 
d="M-20 0l1 4q53 3 74 10q32 11 43 49l153 549q9 37 -16 50q-35 15 -67 17l1 4h281l-1 -4q-41 -2 -78 -12q-33 -10 -44 -50l-154 -550q-6 -17 -2 -29t20 -19q8 -4 32 -9t38 -6l-1 -4h-280zM467 721l-113 140l-186 -140l-4 3q17 19 79.5 88.5t78.5 87.5q11 12 18 15.5t25 3.5
q15 0 20 -3t10 -14l76 -179z" />
    <glyph glyph-name="Idieresis" unicode="&#xcf;" horiz-adv-x="373" 
d="M-20 0l1 4q53 3 74 10q32 11 43 49l153 549q9 37 -16 50q-35 15 -67 17l1 4h281l-1 -4q-41 -2 -78 -12q-33 -10 -44 -50l-154 -550q-6 -17 -2 -29t20 -19q8 -4 32 -9t38 -6l-1 -4h-280zM238 778q-20 0 -31 13t-11 31q0 23 16 39.5t42 16.5q16 0 27.5 -13.5t11.5 -29.5
q0 -23 -15 -40t-40 -17zM431 778q-20 0 -31 13t-11 31q0 23 16 39.5t42 16.5q16 0 27.5 -13.5t11.5 -29.5q0 -23 -15 -40t-40 -17z" />
    <glyph glyph-name="Eth" unicode="&#xd0;" horiz-adv-x="725" 
d="M-28 0l1 4q53 3 74 10q32 11 43 49l80 288h-105l5 17h105l68 244q5 13 2.5 28t-18.5 22q-35 15 -67 17l1 4h283q115 0 192.5 -64t77.5 -201q0 -209 -161 -327q-125 -91 -298 -91h-283zM415 368l-5 -17h-166l-74 -267q-12 -43 8.5 -60t82.5 -17q151 0 258 109
q114 116 114 293q0 267 -219 267q-35 0 -79 -2l-86 -306h166z" />
    <glyph glyph-name="Ntilde" unicode="&#xd1;" horiz-adv-x="732" 
d="M-50 0l1 4q18 1 52.5 10t47.5 17q40 25 70 137l104 387q18 64 -11 93q-28 28 -105 31l2 4h181l255 -574l107 405q30 114 2 135q-12 9 -44 19t-50 11l1 4h273l-1 -4q-16 -1 -50.5 -9t-48.5 -16q-38 -21 -69 -134l-141 -527h-5l-273 612l-113 -432q-30 -110 -3 -137
q10 -11 44 -21t51 -11l-1 -4h-276zM327 747l-5 2q13 22 29 45t47.5 49.5t58.5 26.5q33 0 70.5 -28.5t59.5 -28.5q30 0 61 26t47 50l5 -2q-72 -126 -137 -126q-30 0 -69 28.5t-61 28.5q-30 0 -60.5 -24t-45.5 -47z" />
    <glyph glyph-name="Ograve" unicode="&#xd2;" horiz-adv-x="701" 
d="M305 -16q-102 0 -176.5 75t-74.5 198q0 90 33 173q44 110 140 189t211 79q99 0 174 -75.5t75 -192.5q0 -93 -35 -180q-47 -116 -137 -191t-210 -75zM306 -8q54 0 100.5 24t80 65.5t56.5 88t38 99.5q25 87 25 182q0 102 -40.5 170.5t-129.5 68.5q-71 0 -130.5 -43.5
t-93.5 -104.5t-53 -135q-24 -87 -24 -177q0 -103 41 -170.5t130 -67.5zM505 722q-52 53 -121 119q-25 24 -25 49q0 14 9 23t22 9q16 0 25.5 -10t20.5 -33q6 -14 32.5 -69.5t40.5 -85.5z" />
    <glyph glyph-name="Oacute" unicode="&#xd3;" horiz-adv-x="701" 
d="M305 -16q-102 0 -176.5 75t-74.5 198q0 90 33 173q44 110 140 189t211 79q99 0 174 -75.5t75 -192.5q0 -93 -35 -180q-47 -116 -137 -191t-210 -75zM306 -8q54 0 100.5 24t80 65.5t56.5 88t38 99.5q25 87 25 182q0 102 -40.5 170.5t-129.5 68.5q-71 0 -130.5 -43.5
t-93.5 -104.5t-53 -135q-24 -87 -24 -177q0 -103 41 -170.5t130 -67.5zM593 838q-8 -5 -76.5 -47.5t-109.5 -69.5l-3 3q89 94 142 159q32 38 63 38q13 0 21 -8t8 -19q0 -25 -45 -56z" />
    <glyph glyph-name="Ocircumflex" unicode="&#xd4;" horiz-adv-x="701" 
d="M305 -16q-102 0 -176.5 75t-74.5 198q0 90 33 173q44 110 140 189t211 79q99 0 174 -75.5t75 -192.5q0 -93 -35 -180q-47 -116 -137 -191t-210 -75zM306 -8q54 0 100.5 24t80 65.5t56.5 88t38 99.5q25 87 25 182q0 102 -40.5 170.5t-129.5 68.5q-71 0 -130.5 -43.5
t-93.5 -104.5t-53 -135q-24 -87 -24 -177q0 -103 41 -170.5t130 -67.5zM598 721l-113 140l-186 -140l-4 3q17 19 79.5 88.5t78.5 87.5q11 12 18 15.5t25 3.5q15 0 20 -3t10 -14l76 -179z" />
    <glyph glyph-name="Otilde" unicode="&#xd5;" horiz-adv-x="701" 
d="M305 -16q-102 0 -176.5 75t-74.5 198q0 90 33 173q44 110 140 189t211 79q99 0 174 -75.5t75 -192.5q0 -93 -35 -180q-47 -116 -137 -191t-210 -75zM306 -8q54 0 100.5 24t80 65.5t56.5 88t38 99.5q25 87 25 182q0 102 -40.5 170.5t-129.5 68.5q-71 0 -130.5 -43.5
t-93.5 -104.5t-53 -135q-24 -87 -24 -177q0 -103 41 -170.5t130 -67.5zM296 747l-5 2q13 22 29 45t47.5 49.5t58.5 26.5q33 0 70.5 -28.5t59.5 -28.5q30 0 61 26t47 50l5 -2q-72 -126 -137 -126q-30 0 -69 28.5t-61 28.5q-30 0 -60.5 -24t-45.5 -47z" />
    <glyph glyph-name="Odieresis" unicode="&#xd6;" horiz-adv-x="701" 
d="M305 -16q-102 0 -176.5 75t-74.5 198q0 90 33 173q44 110 140 189t211 79q99 0 174 -75.5t75 -192.5q0 -93 -35 -180q-47 -116 -137 -191t-210 -75zM306 -8q54 0 100.5 24t80 65.5t56.5 88t38 99.5q25 87 25 182q0 102 -40.5 170.5t-129.5 68.5q-71 0 -130.5 -43.5
t-93.5 -104.5t-53 -135q-24 -87 -24 -177q0 -103 41 -170.5t130 -67.5zM367 768q-20 0 -31 13t-11 31q0 23 16 39.5t42 16.5q16 0 27.5 -13.5t11.5 -29.5q0 -23 -15 -40t-40 -17zM560 768q-20 0 -31 13t-11 31q0 23 16 39.5t42 16.5q16 0 27.5 -13.5t11.5 -29.5
q0 -23 -15 -40t-40 -17z" />
    <glyph glyph-name="multiply" unicode="&#xd7;" horiz-adv-x="556" 
d="M90 36l-19 19l204 203l-204 204l21 20l203 -203l203 203l19 -19l-203 -203l203 -203l-20 -21l-204 204z" />
    <glyph glyph-name="Oslash" unicode="&#xd8;" horiz-adv-x="701" 
d="M732 703l-101 -102q56 -74 56 -171q0 -111 -49 -213t-139.5 -167.5t-198.5 -65.5q-51 0 -100.5 24.5t-85.5 69.5l-108 -110l-7 7l109 110q-54 74 -54 172q0 119 56.5 222t144.5 161t183 58q111 0 187 -90l100 102zM306 -8q93 0 163.5 71.5t103.5 174t33 213.5
q0 62 -14 110l-441 -446q38 -123 155 -123zM135 230q0 -62 12 -105l442 447q-40 118 -153 118q-72 0 -131 -42t-95 -110t-55.5 -148t-19.5 -160z" />
    <glyph glyph-name="Ugrave" unicode="&#xd9;" horiz-adv-x="786" 
d="M326 -16q-210 0 -210 158q0 46 14 95l104 375q9 37 -16 50q-35 15 -67 17l1 4h281l-1 -4q-40 -2 -78 -12q-33 -10 -44 -50l-100 -360q-19 -68 -19 -117q0 -54 44.5 -90.5t120.5 -36.5q191 0 254 222l77 270q34 122 5 144q-12 9 -44 19t-50 11l1 4h272l-1 -4
q-16 -1 -50.5 -9t-48.5 -16q-36 -20 -72 -143l-80 -280q-36 -126 -103.5 -186.5t-189.5 -60.5zM586 722q-52 53 -121 119q-25 24 -25 49q0 14 9 23t22 9q16 0 25.5 -10t20.5 -33q6 -14 32.5 -69.5t40.5 -85.5z" />
    <glyph glyph-name="Uacute" unicode="&#xda;" horiz-adv-x="786" 
d="M326 -16q-210 0 -210 158q0 46 14 95l104 375q9 37 -16 50q-35 15 -67 17l1 4h281l-1 -4q-40 -2 -78 -12q-33 -10 -44 -50l-100 -360q-19 -68 -19 -117q0 -54 44.5 -90.5t120.5 -36.5q191 0 254 222l77 270q34 122 5 144q-12 9 -44 19t-50 11l1 4h272l-1 -4
q-16 -1 -50.5 -9t-48.5 -16q-36 -20 -72 -143l-80 -280q-36 -126 -103.5 -186.5t-189.5 -60.5zM636 838q-8 -5 -76.5 -47.5t-109.5 -69.5l-3 3q89 94 142 159q32 38 63 38q13 0 21 -8t8 -19q0 -25 -45 -56z" />
    <glyph glyph-name="Ucircumflex" unicode="&#xdb;" horiz-adv-x="786" 
d="M326 -16q-210 0 -210 158q0 46 14 95l104 375q9 37 -16 50q-35 15 -67 17l1 4h281l-1 -4q-40 -2 -78 -12q-33 -10 -44 -50l-100 -360q-19 -68 -19 -117q0 -54 44.5 -90.5t120.5 -36.5q191 0 254 222l77 270q34 122 5 144q-12 9 -44 19t-50 11l1 4h272l-1 -4
q-16 -1 -50.5 -9t-48.5 -16q-36 -20 -72 -143l-80 -280q-36 -126 -103.5 -186.5t-189.5 -60.5zM668 721l-113 140l-186 -140l-4 3q17 19 79.5 88.5t78.5 87.5q11 12 18 15.5t25 3.5q15 0 20 -3t10 -14l76 -179z" />
    <glyph glyph-name="Udieresis" unicode="&#xdc;" horiz-adv-x="786" 
d="M326 -16q-210 0 -210 158q0 46 14 95l104 375q9 37 -16 50q-35 15 -67 17l1 4h281l-1 -4q-40 -2 -78 -12q-33 -10 -44 -50l-100 -360q-19 -68 -19 -117q0 -54 44.5 -90.5t120.5 -36.5q191 0 254 222l77 270q34 122 5 144q-12 9 -44 19t-50 11l1 4h272l-1 -4
q-16 -1 -50.5 -9t-48.5 -16q-36 -20 -72 -143l-80 -280q-36 -126 -103.5 -186.5t-189.5 -60.5zM435 778q-20 0 -31 13t-11 31q0 23 16 39.5t42 16.5q16 0 27.5 -13.5t11.5 -29.5q0 -23 -15 -40t-40 -17zM628 778q-20 0 -31 13t-11 31q0 23 16 39.5t42 16.5q16 0 27.5 -13.5
t11.5 -29.5q0 -23 -15 -40t-40 -17z" />
    <glyph glyph-name="Yacute" unicode="&#xdd;" horiz-adv-x="613" 
d="M117 0l1 4q50 3 71 10q32 11 41 49l65 262q15 60 15 136q0 77 -31.5 130.5t-97.5 53.5q-36 0 -69 -28t-49 -78l-6 2q52 154 174 154q71 0 105 -59t34 -146q0 -55 -11 -128h9q53 157 132.5 245.5t155.5 88.5q26 0 42.5 -13t16.5 -34q0 -23 -14 -35.5t-33 -12.5
q-21 0 -30.5 10.5t-9.5 22.5q0 21 13 38l-4 4q-28 -3 -63.5 -26t-73.5 -63t-72.5 -105.5t-54.5 -144.5l-68 -270q-9 -36 20 -49q8 -4 37.5 -9t43.5 -5l-1 -4h-288zM549 838q-8 -5 -76.5 -47.5t-109.5 -69.5l-3 3q89 94 142 159q32 38 63 38q13 0 21 -8t8 -19q0 -25 -45 -56z
" />
    <glyph glyph-name="Thorn" unicode="&#xde;" horiz-adv-x="588" 
d="M161 683h274l-1 -5q-42 -4 -71 -12q-33 -10 -44 -50l-21 -72h84q94 0 141.5 -39.5t47.5 -107.5q0 -99 -85 -156t-228 -57h-60l-33 -118q-10 -34 18 -47q8 -4 32 -9t38 -6l-1 -4h-280l1 4q53 3 74 10q32 11 43 49l153 549q9 37 -16 50q-35 15 -67 17zM201 192h61
q108 0 168 52t60 144q0 68 -34 108t-102 40h-58z" />
    <glyph glyph-name="germandbls" unicode="&#xdf;" horiz-adv-x="542" 
d="M342 -14q-53 0 -80 26.5t-27 57.5q0 22 15 39.5t37 17.5q17 0 29 -9t12 -27q0 -23 -20 -30l-9 -3t-9 -3.5t-5.5 -4t-2.5 -6.5q0 -23 19 -37.5t48 -14.5q37 0 59.5 30.5t22.5 79.5q0 59 -45 127q-17 26 -24 37.5t-15.5 34.5t-8.5 44q0 76 103 133q26 20 43 58t17 80
q0 51 -23 85.5t-65 34.5q-54 0 -99 -55.5t-77 -165.5q-15 -51 -60.5 -226.5t-72.5 -264.5q-41 -130 -109 -200q-60 -60 -128 -60q-47 0 -68 21.5t-21 51.5q0 16 12 30.5t32 14.5q17 0 31.5 -10.5t14.5 -30.5q0 -12 -24 -52q1 -8 8.5 -13t13.5 -5q55 0 91.5 47.5t73.5 167.5
q31 102 132 493q34 132 119 209q61 55 148 55q60 0 89 -32t29 -83q0 -66 -29 -118q-125 -49 -125 -114q0 -49 44 -118q17 -27 24.5 -40t16.5 -36.5t10 -43.5q3 -83 -43.5 -127.5t-103.5 -44.5z" />
    <glyph glyph-name="agrave" unicode="&#xe0;" horiz-adv-x="528" 
d="M151 -13q-56 0 -92 36.5t-36 120.5q0 45 20 105t56 109q76 103 187 103q44 0 71 -24.5t33 -54.5h2l26 73h63l-115 -327q-16 -46 -18 -79q-1 -45 32 -45q35 0 69 37t59 101l7 -2q-30 -74 -65 -112.5t-86 -38.5q-40 0 -56.5 28t-0.5 87l-2 1q-62 -118 -154 -118zM164 9
q79 -4 137 103l85 255q-6 36 -32 58t-70 22q-82 0 -138 -111q-53 -104 -53 -216q0 -108 71 -111zM385 531q-52 53 -121 119q-25 24 -25 49q0 14 9 23t22 9q16 0 25.5 -10t20.5 -33q6 -14 32.5 -69.5t40.5 -85.5z" />
    <glyph glyph-name="aacute" unicode="&#xe1;" horiz-adv-x="528" 
d="M151 -13q-56 0 -92 36.5t-36 120.5q0 45 20 105t56 109q76 103 187 103q44 0 71 -24.5t33 -54.5h2l26 73h63l-115 -327q-16 -46 -18 -79q-1 -45 32 -45q35 0 69 37t59 101l7 -2q-30 -74 -65 -112.5t-86 -38.5q-40 0 -56.5 28t-0.5 87l-2 1q-62 -118 -154 -118zM164 9
q79 -4 137 103l85 255q-6 36 -32 58t-70 22q-82 0 -138 -111q-53 -104 -53 -216q0 -108 71 -111zM445 647q-8 -5 -76.5 -47.5t-109.5 -69.5l-3 3q89 94 142 159q32 38 63 38q13 0 21 -8t8 -19q0 -25 -45 -56z" />
    <glyph glyph-name="acircumflex" unicode="&#xe2;" horiz-adv-x="528" 
d="M151 -13q-56 0 -92 36.5t-36 120.5q0 45 20 105t56 109q76 103 187 103q44 0 71 -24.5t33 -54.5h2l26 73h63l-115 -327q-16 -46 -18 -79q-1 -45 32 -45q35 0 69 37t59 101l7 -2q-30 -74 -65 -112.5t-86 -38.5q-40 0 -56.5 28t-0.5 87l-2 1q-62 -118 -154 -118zM164 9
q79 -4 137 103l85 255q-6 36 -32 58t-70 22q-82 0 -138 -111q-53 -104 -53 -216q0 -108 71 -111zM475 530l-113 140l-186 -140l-4 3q17 19 79.5 88.5t78.5 87.5q11 12 18 15.5t25 3.5q15 0 20 -3t10 -14l76 -179z" />
    <glyph glyph-name="atilde" unicode="&#xe3;" horiz-adv-x="528" 
d="M151 -13q-56 0 -92 36.5t-36 120.5q0 45 20 105t56 109q76 103 187 103q44 0 71 -24.5t33 -54.5h2l26 73h63l-115 -327q-16 -46 -18 -79q-1 -45 32 -45q35 0 69 37t59 101l7 -2q-30 -74 -65 -112.5t-86 -38.5q-40 0 -56.5 28t-0.5 87l-2 1q-62 -118 -154 -118zM164 9
q79 -4 137 103l85 255q-6 36 -32 58t-70 22q-82 0 -138 -111q-53 -104 -53 -216q0 -108 71 -111zM142 548l-5 2q13 22 29 45t47.5 49.5t58.5 26.5q33 0 70.5 -28.5t59.5 -28.5q30 0 61 26t47 50l5 -2q-72 -126 -137 -126q-30 0 -69 28.5t-61 28.5q-30 0 -60.5 -24t-45.5 -47
z" />
    <glyph glyph-name="adieresis" unicode="&#xe4;" horiz-adv-x="528" 
d="M151 -13q-56 0 -92 36.5t-36 120.5q0 45 20 105t56 109q76 103 187 103q44 0 71 -24.5t33 -54.5h2l26 73h63l-115 -327q-16 -46 -18 -79q-1 -45 32 -45q35 0 69 37t59 101l7 -2q-30 -74 -65 -112.5t-86 -38.5q-40 0 -56.5 28t-0.5 87l-2 1q-62 -118 -154 -118zM164 9
q79 -4 137 103l85 255q-6 36 -32 58t-70 22q-82 0 -138 -111q-53 -104 -53 -216q0 -108 71 -111zM232 562q-20 0 -31 13t-11 31q0 23 16 39.5t42 16.5q16 0 27.5 -13.5t11.5 -29.5q0 -23 -15 -40t-40 -17zM425 562q-20 0 -31 13t-11 31q0 23 16 39.5t42 16.5
q16 0 27.5 -13.5t11.5 -29.5q0 -23 -15 -40t-40 -17z" />
    <glyph glyph-name="aring" unicode="&#xe5;" horiz-adv-x="528" 
d="M151 -13q-56 0 -92 36.5t-36 120.5q0 45 20 105t56 109q76 103 187 103q44 0 71 -24.5t33 -54.5h2l26 73h63l-115 -327q-16 -46 -18 -79q-1 -45 32 -45q35 0 69 37t59 101l7 -2q-30 -74 -65 -112.5t-86 -38.5q-40 0 -56.5 28t-0.5 87l-2 1q-62 -118 -154 -118zM164 9
q79 -4 137 103l85 255q-6 36 -32 58t-70 22q-82 0 -138 -111q-53 -104 -53 -216q0 -108 71 -111zM336 530q-42 0 -71 23t-29 58q0 48 39 79.5t88 31.5q42 0 70 -23t28 -60q0 -45 -37.5 -77t-87.5 -32zM334 538q36 0 59.5 36.5t23.5 76.5q0 28 -13.5 45.5t-39.5 17.5
q-36 0 -59.5 -37t-23.5 -78q0 -27 13.5 -44t39.5 -17z" />
    <glyph glyph-name="ae" unicode="&#xe6;" horiz-adv-x="683" 
d="M457 -14q-51 0 -92 31.5t-48 103.5l-2 1q-65 -135 -164 -135q-56 0 -92 36.5t-36 120.5q0 47 21 109t59 111q76 97 183 97q44 0 71 -24.5t33 -54.5h2l26 73h53l-19 -55q63 61 138 61q37 0 63 -17.5t26 -49.5q0 -55 -44.5 -95t-105.5 -58.5t-131 -22.5q-12 -51 -12 -98
q0 -51 22.5 -79.5t63.5 -28.5q52 0 98.5 39t79.5 100l6 -3q-85 -162 -199 -162zM164 9q79 -4 137 103l85 255q-6 36 -32 58t-70 22q-80 0 -136 -108q-55 -104 -55 -219q0 -108 71 -111zM399 223q58 6 103 25.5t69 45t35.5 49.5t11.5 45q0 28 -13 47t-38 19q-49 0 -97 -69.5
t-71 -161.5z" />
    <glyph glyph-name="ccedilla" unicode="&#xe7;" horiz-adv-x="389" 
d="M21 -227l2 6q60 1 108 22t48 53q0 20 -17.5 27t-58.5 7l32 100q-47 8 -79.5 45t-32.5 111q0 63 33 135.5t94.5 127t129.5 54.5q48 0 76.5 -26t28.5 -69q0 -25 -11.5 -37.5t-28.5 -12.5q-18 0 -32 11.5t-14 28.5q0 15 13 29.5t34 22.5q-2 18 -20.5 32.5t-42.5 14.5
q-48 0 -92.5 -54t-70.5 -131t-26 -147q0 -56 24 -85t64 -29q52 0 98 38.5t79 99.5l6 -3q-87 -158 -202 -158q-13 0 -20 1l-13 -42q43 0 75.5 -15.5t32.5 -49.5q0 -53 -65 -80t-152 -27z" />
    <glyph glyph-name="egrave" unicode="&#xe8;" horiz-adv-x="390" 
d="M164 -14q-25 0 -48 7.5t-45 24.5t-35 50t-13 78q0 41 19 93t52 102.5t87 85t116 34.5q37 0 63 -17.5t26 -49.5q0 -55 -44.5 -95t-105.5 -58.5t-131 -22.5q-12 -51 -12 -98q0 -51 22.5 -79.5t63.5 -28.5q52 0 98.5 39t79.5 100l6 -3q-85 -162 -199 -162zM106 223
q58 6 103 25.5t69 45t35.5 49.5t11.5 45q0 28 -13 47t-38 19q-49 0 -97 -69.5t-71 -161.5zM336 531q-52 53 -121 119q-25 24 -25 49q0 14 9 23t22 9q16 0 25.5 -10t20.5 -33q6 -14 32.5 -69.5t40.5 -85.5z" />
    <glyph glyph-name="eacute" unicode="&#xe9;" horiz-adv-x="390" 
d="M164 -14q-25 0 -48 7.5t-45 24.5t-35 50t-13 78q0 41 19 93t52 102.5t87 85t116 34.5q37 0 63 -17.5t26 -49.5q0 -55 -44.5 -95t-105.5 -58.5t-131 -22.5q-12 -51 -12 -98q0 -51 22.5 -79.5t63.5 -28.5q52 0 98.5 39t79.5 100l6 -3q-85 -162 -199 -162zM106 223
q58 6 103 25.5t69 45t35.5 49.5t11.5 45q0 28 -13 47t-38 19q-49 0 -97 -69.5t-71 -161.5zM406 647q-8 -5 -76.5 -47.5t-109.5 -69.5l-3 3q89 94 142 159q32 38 63 38q13 0 21 -8t8 -19q0 -25 -45 -56z" />
    <glyph glyph-name="ecircumflex" unicode="&#xea;" horiz-adv-x="390" 
d="M164 -14q-25 0 -48 7.5t-45 24.5t-35 50t-13 78q0 41 19 93t52 102.5t87 85t116 34.5q37 0 63 -17.5t26 -49.5q0 -55 -44.5 -95t-105.5 -58.5t-131 -22.5q-12 -51 -12 -98q0 -51 22.5 -79.5t63.5 -28.5q52 0 98.5 39t79.5 100l6 -3q-85 -162 -199 -162zM106 223
q58 6 103 25.5t69 45t35.5 49.5t11.5 45q0 28 -13 47t-38 19q-49 0 -97 -69.5t-71 -161.5zM426 510l-113 140l-186 -140l-4 3q17 19 79.5 88.5t78.5 87.5q11 12 18 15.5t25 3.5q15 0 20 -3t10 -14l76 -179z" />
    <glyph glyph-name="edieresis" unicode="&#xeb;" horiz-adv-x="390" 
d="M164 -14q-25 0 -48 7.5t-45 24.5t-35 50t-13 78q0 41 19 93t52 102.5t87 85t116 34.5q37 0 63 -17.5t26 -49.5q0 -55 -44.5 -95t-105.5 -58.5t-131 -22.5q-12 -51 -12 -98q0 -51 22.5 -79.5t63.5 -28.5q52 0 98.5 39t79.5 100l6 -3q-85 -162 -199 -162zM106 223
q58 6 103 25.5t69 45t35.5 49.5t11.5 45q0 28 -13 47t-38 19q-49 0 -97 -69.5t-71 -161.5zM185 562q-20 0 -31 13t-11 31q0 23 16 39.5t42 16.5q16 0 27.5 -13.5t11.5 -29.5q0 -23 -15 -40t-40 -17zM378 562q-20 0 -31 13t-11 31q0 23 16 39.5t42 16.5q16 0 27.5 -13.5
t11.5 -29.5q0 -23 -15 -40t-40 -17z" />
    <glyph glyph-name="igrave" unicode="&#xec;" horiz-adv-x="315" 
d="M151 -11q-80 0 -80 78q0 29 20 83l67 170q23 59 23 89q0 36 -32 36q-68 0 -122 -138l-6 2q32 77 62.5 114.5t79.5 37.5q34 0 55 -21.5t21 -63.5q0 -26 -31 -101l-57 -147q-23 -60 -23 -90q0 -32 36 -32q70 0 123 136l6 -2q-31 -76 -62 -113.5t-80 -37.5zM267 531
q-52 53 -121 119q-25 24 -25 49q0 14 9 23t22 9q16 0 25.5 -10t20.5 -33q6 -14 32.5 -69.5t40.5 -85.5z" />
    <glyph glyph-name="iacute" unicode="&#xed;" horiz-adv-x="315" 
d="M151 -11q-80 0 -80 78q0 29 20 83l67 170q23 59 23 89q0 36 -32 36q-68 0 -122 -138l-6 2q32 77 62.5 114.5t79.5 37.5q34 0 55 -21.5t21 -63.5q0 -26 -31 -101l-57 -147q-23 -60 -23 -90q0 -32 36 -32q70 0 123 136l6 -2q-31 -76 -62 -113.5t-80 -37.5zM294 647
q-8 -5 -76.5 -47.5t-109.5 -69.5l-3 3q89 94 142 159q32 38 63 38q13 0 21 -8t8 -19q0 -25 -45 -56z" />
    <glyph glyph-name="icircumflex" unicode="&#xee;" horiz-adv-x="315" 
d="M151 -11q-80 0 -80 78q0 29 20 83l67 170q23 59 23 89q0 36 -32 36q-68 0 -122 -138l-6 2q32 77 62.5 114.5t79.5 37.5q34 0 55 -21.5t21 -63.5q0 -26 -31 -101l-57 -147q-23 -60 -23 -90q0 -32 36 -32q70 0 123 136l6 -2q-31 -76 -62 -113.5t-80 -37.5zM343 530
l-113 140l-186 -140l-4 3q17 19 79.5 88.5t78.5 87.5q11 12 18 15.5t25 3.5q15 0 20 -3t10 -14l76 -179z" />
    <glyph glyph-name="idieresis" unicode="&#xef;" horiz-adv-x="315" 
d="M151 -11q-80 0 -80 78q0 29 20 83l67 170q23 59 23 89q0 36 -32 36q-68 0 -122 -138l-6 2q32 77 62.5 114.5t79.5 37.5q34 0 55 -21.5t21 -63.5q0 -26 -31 -101l-57 -147q-23 -60 -23 -90q0 -32 36 -32q70 0 123 136l6 -2q-31 -76 -62 -113.5t-80 -37.5zM103 562
q-20 0 -31 13t-11 31q0 23 16 39.5t42 16.5q16 0 27.5 -13.5t11.5 -29.5q0 -23 -15 -40t-40 -17zM296 562q-20 0 -31 13t-11 31q0 23 16 39.5t42 16.5q16 0 27.5 -13.5t11.5 -29.5q0 -23 -15 -40t-40 -17z" />
    <glyph glyph-name="eth" unicode="&#xf0;" horiz-adv-x="457" 
d="M164 -14q-54 0 -95.5 44t-41.5 131q0 90 65 184q80 116 194 116q30 0 59 -15.5t42 -42.5h2q13 131 -41 240l-109 -86l-9 14l110 87q-34 53 -67 81l5 5q49 -30 85 -68l94 74l10 -14l-93 -73q85 -97 85 -240q0 -211 -104 -339q-80 -98 -191 -98zM179 -7q75 0 129 101
q54 102 54 213q0 70 -22.5 108.5t-58.5 38.5q-83 0 -140 -121q-44 -96 -44 -191q0 -75 22.5 -112t59.5 -37z" />
    <glyph glyph-name="ntilde" unicode="&#xf1;" horiz-adv-x="581" 
d="M424 -11q-85 0 -85 78q0 25 22 83l59 156q22 60 22 83q0 48 -60 48q-50 0 -91.5 -38.5t-65.5 -87.5l-102 -311h-69l108 320q22 63 22 95q0 31 -30 31q-68 0 -122 -139l-7 2q32 77 62.5 114.5t79.5 37.5q41 0 59 -32t2 -93l2 -1q31 54 76.5 90t87.5 36q52 0 78 -30t26 -72
q0 -33 -19 -84l-56 -147q-24 -65 -24 -89q0 -34 39 -34q67 0 122 137l7 -2q-31 -76 -62.5 -113.5t-80.5 -37.5zM197 548l-5 2q13 22 29 45t47.5 49.5t58.5 26.5q33 0 70.5 -28.5t59.5 -28.5q30 0 61 26t47 50l5 -2q-72 -126 -137 -126q-30 0 -69 28.5t-61 28.5
q-30 0 -60.5 -24t-45.5 -47z" />
    <glyph glyph-name="ograve" unicode="&#xf2;" horiz-adv-x="457" 
d="M169 -14q-60 0 -101 45t-41 130q0 89 63 181q81 119 195 119q62 0 104 -45.5t42 -130.5q0 -41 -18 -93t-51 -97q-79 -109 -193 -109zM178 -7q86 0 141 123q42 95 42 191q0 76 -22.5 111.5t-58.5 35.5q-44 0 -81 -36t-63 -94q-39 -89 -39 -182q0 -75 22 -112t59 -37z
M359 531q-52 53 -121 119q-25 24 -25 49q0 14 9 23t22 9q16 0 25.5 -10t20.5 -33q6 -14 32.5 -69.5t40.5 -85.5z" />
    <glyph glyph-name="oacute" unicode="&#xf3;" horiz-adv-x="457" 
d="M169 -14q-60 0 -101 45t-41 130q0 89 63 181q81 119 195 119q62 0 104 -45.5t42 -130.5q0 -41 -18 -93t-51 -97q-79 -109 -193 -109zM178 -7q86 0 141 123q42 95 42 191q0 76 -22.5 111.5t-58.5 35.5q-44 0 -81 -36t-63 -94q-39 -89 -39 -182q0 -75 22 -112t59 -37z
M409 647q-8 -5 -76.5 -47.5t-109.5 -69.5l-3 3q89 94 142 159q32 38 63 38q13 0 21 -8t8 -19q0 -25 -45 -56z" />
    <glyph glyph-name="ocircumflex" unicode="&#xf4;" horiz-adv-x="457" 
d="M169 -14q-60 0 -101 45t-41 130q0 89 63 181q81 119 195 119q62 0 104 -45.5t42 -130.5q0 -41 -18 -93t-51 -97q-79 -109 -193 -109zM178 -7q86 0 141 123q42 95 42 191q0 76 -22.5 111.5t-58.5 35.5q-44 0 -81 -36t-63 -94q-39 -89 -39 -182q0 -75 22 -112t59 -37z
M439 510l-113 140l-186 -140l-4 3q17 19 79.5 88.5t78.5 87.5q11 12 18 15.5t25 3.5q15 0 20 -3t10 -14l76 -179z" />
    <glyph glyph-name="otilde" unicode="&#xf5;" horiz-adv-x="457" 
d="M169 -14q-60 0 -101 45t-41 130q0 89 63 181q81 119 195 119q62 0 104 -45.5t42 -130.5q0 -41 -18 -93t-51 -97q-79 -109 -193 -109zM178 -7q86 0 141 123q42 95 42 191q0 76 -22.5 111.5t-58.5 35.5q-44 0 -81 -36t-63 -94q-39 -89 -39 -182q0 -75 22 -112t59 -37z
M127 536l-5 2q13 22 29 45t47.5 49.5t58.5 26.5q33 0 70.5 -28.5t59.5 -28.5q30 0 61 26t47 50l5 -2q-72 -126 -137 -126q-30 0 -69 28.5t-61 28.5q-30 0 -60.5 -24t-45.5 -47z" />
    <glyph glyph-name="odieresis" unicode="&#xf6;" horiz-adv-x="457" 
d="M169 -14q-60 0 -101 45t-41 130q0 89 63 181q81 119 195 119q62 0 104 -45.5t42 -130.5q0 -41 -18 -93t-51 -97q-79 -109 -193 -109zM178 -7q86 0 141 123q42 95 42 191q0 76 -22.5 111.5t-58.5 35.5q-44 0 -81 -36t-63 -94q-39 -89 -39 -182q0 -75 22 -112t59 -37z
M205 562q-20 0 -31 13t-11 31q0 23 16 39.5t42 16.5q16 0 27.5 -13.5t11.5 -29.5q0 -23 -15 -40t-40 -17zM398 562q-20 0 -31 13t-11 31q0 23 16 39.5t42 16.5q16 0 27.5 -13.5t11.5 -29.5q0 -23 -15 -40t-40 -17z" />
    <glyph glyph-name="divide" unicode="&#xf7;" horiz-adv-x="556" 
d="M284 64q-20 0 -33 13t-13 33t13.5 33.5t32.5 13.5q20 0 33.5 -13.5t13.5 -33.5q0 -19 -13.5 -32.5t-33.5 -13.5zM284 362q-20 0 -33 13t-13 33t13.5 33.5t32.5 13.5q20 0 33.5 -13.5t13.5 -33.5q0 -19 -13.5 -32.5t-33.5 -13.5zM43 245h482v29h-482v-29z" />
    <glyph glyph-name="oslash" unicode="&#xf8;" horiz-adv-x="457" 
d="M-11 -31l68 76q-30 44 -30 116q0 47 23 105t62 105q76 90 173 90q64 0 104 -46l64 71l6 -7l-64 -72q36 -47 36 -122q0 -43 -20 -98.5t-56 -101.5q-78 -99 -186 -99q-67 0 -107 52l-67 -75zM178 -7q55 0 98.5 53.5t64 124t20.5 136.5q0 30 -5 57l-254 -283q15 -85 76 -88z
M100 92l254 284q-20 78 -74 78q-52 0 -95 -51t-65.5 -122t-22.5 -139q0 -28 3 -50z" />
    <glyph glyph-name="ugrave" unicode="&#xf9;" horiz-adv-x="573" 
d="M185 -13q-50 0 -77 30t-27 82q0 27 19 74l57 147q22 57 22 86q0 39 -30 39q-66 0 -120 -138l-7 2q30 76 60.5 113t79.5 37q35 0 55.5 -19t20.5 -59q0 -26 -21 -83l-61 -156q-18 -45 -18 -81q0 -53 59 -53q46 0 85.5 31.5t65.5 78.5l103 328h68l-105 -318q-16 -48 -16 -82
q0 -17 9.5 -28.5t23.5 -11.5q69 0 122 137l7 -3q-31 -76 -62.5 -113.5t-80.5 -37.5q-89 0 -68 113l-2 1q-28 -51 -73.5 -83.5t-88.5 -32.5zM415 531q-52 53 -121 119q-25 24 -25 49q0 14 9 23t22 9q16 0 25.5 -10t20.5 -33q6 -14 32.5 -69.5t40.5 -85.5z" />
    <glyph glyph-name="uacute" unicode="&#xfa;" horiz-adv-x="573" 
d="M185 -13q-50 0 -77 30t-27 82q0 27 19 74l57 147q22 57 22 86q0 39 -30 39q-66 0 -120 -138l-7 2q30 76 60.5 113t79.5 37q35 0 55.5 -19t20.5 -59q0 -26 -21 -83l-61 -156q-18 -45 -18 -81q0 -53 59 -53q46 0 85.5 31.5t65.5 78.5l103 328h68l-105 -318q-16 -48 -16 -82
q0 -17 9.5 -28.5t23.5 -11.5q69 0 122 137l7 -3q-31 -76 -62.5 -113.5t-80.5 -37.5q-89 0 -68 113l-2 1q-28 -51 -73.5 -83.5t-88.5 -32.5zM465 647q-8 -5 -76.5 -47.5t-109.5 -69.5l-3 3q89 94 142 159q32 38 63 38q13 0 21 -8t8 -19q0 -25 -45 -56z" />
    <glyph glyph-name="ucircumflex" unicode="&#xfb;" horiz-adv-x="573" 
d="M185 -13q-50 0 -77 30t-27 82q0 27 19 74l57 147q22 57 22 86q0 39 -30 39q-66 0 -120 -138l-7 2q30 76 60.5 113t79.5 37q35 0 55.5 -19t20.5 -59q0 -26 -21 -83l-61 -156q-18 -45 -18 -81q0 -53 59 -53q46 0 85.5 31.5t65.5 78.5l103 328h68l-105 -318q-16 -48 -16 -82
q0 -17 9.5 -28.5t23.5 -11.5q69 0 122 137l7 -3q-31 -76 -62.5 -113.5t-80.5 -37.5q-89 0 -68 113l-2 1q-28 -51 -73.5 -83.5t-88.5 -32.5zM505 530l-113 140l-186 -140l-4 3q17 19 79.5 88.5t78.5 87.5q11 12 18 15.5t25 3.5q15 0 20 -3t10 -14l76 -179z" />
    <glyph glyph-name="udieresis" unicode="&#xfc;" horiz-adv-x="573" 
d="M185 -13q-50 0 -77 30t-27 82q0 27 19 74l57 147q22 57 22 86q0 39 -30 39q-66 0 -120 -138l-7 2q30 76 60.5 113t79.5 37q35 0 55.5 -19t20.5 -59q0 -26 -21 -83l-61 -156q-18 -45 -18 -81q0 -53 59 -53q46 0 85.5 31.5t65.5 78.5l103 328h68l-105 -318q-16 -48 -16 -82
q0 -17 9.5 -28.5t23.5 -11.5q69 0 122 137l7 -3q-31 -76 -62.5 -113.5t-80.5 -37.5q-89 0 -68 113l-2 1q-28 -51 -73.5 -83.5t-88.5 -32.5zM261 562q-20 0 -31 13t-11 31q0 23 16 39.5t42 16.5q16 0 27.5 -13.5t11.5 -29.5q0 -23 -15 -40t-40 -17zM454 562q-20 0 -31 13
t-11 31q0 23 16 39.5t42 16.5q16 0 27.5 -13.5t11.5 -29.5q0 -23 -15 -40t-40 -17z" />
    <glyph glyph-name="yacute" unicode="&#xfd;" horiz-adv-x="518" 
d="M90 -239q-41 0 -68 9.5t-38 24.5t-14.5 26.5t-3.5 23.5q0 27 17.5 43t39.5 16q18 0 28.5 -10.5t10.5 -25.5q0 -29 -28 -38q-3 -1 -8 -2t-7.5 -2t-5.5 -2.5t-4 -4.5t-1 -8q0 -22 22 -33t54 -11q99 0 161.5 88.5t110.5 258.5l-2 1q-29 -54 -75.5 -91t-93.5 -37
q-48 0 -76 32.5t-28 79.5q0 27 19 74l57 147q22 55 22 86q0 39 -30 39q-66 0 -120 -138l-7 2q30 76 60.5 113t79.5 37q35 0 55.5 -19t20.5 -59q0 -26 -21 -83l-61 -156q-18 -45 -18 -81q0 -53 59 -53q87 0 159 124l97 314h65l-105 -340q-107 -345 -323 -345zM457 647
q-8 -5 -76.5 -47.5t-109.5 -69.5l-3 3q89 94 142 159q32 38 63 38q13 0 21 -8t8 -19q0 -25 -45 -56z" />
    <glyph glyph-name="thorn" unicode="&#xfe;" horiz-adv-x="479" 
d="M-149 -234l1 4q54 2 71 22q16 17 38 84l238 747q15 45 15 67q0 27 -40 32q-29 4 -65 5v5l194 10l-106 -318q-12 -38 -27 -75l2 -1q77 113 158 113q56 0 92 -36.5t36 -120.5q0 -48 -20.5 -110t-58.5 -111q-73 -96 -184 -96q-44 0 -70.5 26.5t-35.5 62.5h-2l-61 -202
q-14 -48 -14 -67q0 -27 41 -32q20 -2 59 -4l-1 -5h-260zM93 88q6 -36 33.5 -61t70.5 -25q79 0 135 105q56 106 56 221q0 109 -71 109q-43 0 -83 -33.5t-68 -81.5z" />
    <glyph glyph-name="ydieresis" unicode="&#xff;" horiz-adv-x="518" 
d="M90 -239q-41 0 -68 9.5t-38 24.5t-14.5 26.5t-3.5 23.5q0 27 17.5 43t39.5 16q18 0 28.5 -10.5t10.5 -25.5q0 -29 -28 -38q-3 -1 -8 -2t-7.5 -2t-5.5 -2.5t-4 -4.5t-1 -8q0 -22 22 -33t54 -11q99 0 161.5 88.5t110.5 258.5l-2 1q-29 -54 -75.5 -91t-93.5 -37
q-48 0 -76 32.5t-28 79.5q0 27 19 74l57 147q22 55 22 86q0 39 -30 39q-66 0 -120 -138l-7 2q30 76 60.5 113t79.5 37q35 0 55.5 -19t20.5 -59q0 -26 -21 -83l-61 -156q-18 -45 -18 -81q0 -53 59 -53q87 0 159 124l97 314h65l-105 -340q-107 -345 -323 -345zM268 562
q-20 0 -31 13t-11 31q0 23 16 39.5t42 16.5q16 0 27.5 -13.5t11.5 -29.5q0 -23 -15 -40t-40 -17zM461 562q-20 0 -31 13t-11 31q0 23 16 39.5t42 16.5q16 0 27.5 -13.5t11.5 -29.5q0 -23 -15 -40t-40 -17z" />
    <glyph glyph-name="dotlessi" unicode="&#x131;" horiz-adv-x="315" 
d="M151 -11q-80 0 -80 78q0 29 20 83l67 170q23 59 23 89q0 36 -32 36q-68 0 -122 -138l-6 2q32 77 62.5 114.5t79.5 37.5q34 0 55 -21.5t21 -63.5q0 -26 -31 -101l-57 -147q-23 -60 -23 -90q0 -32 36 -32q70 0 123 136l6 -2q-31 -76 -62 -113.5t-80 -37.5z" />
    <glyph glyph-name="Lslash" unicode="&#x141;" horiz-adv-x="614" 
d="M-37 0l2 4q50 0 84 12q33 12 43 50l69 248l-110 -35l-5 15q82 27 120 39l77 278q6 15 3 29.5t-19 21.5q-34 15 -75 17l2 4h288l-2 -4q-39 -2 -77 -12q-33 -10 -44 -50l-72 -259l197 65l4 -16q-150 -50 -206 -69l-67 -240q-17 -58 -1 -74.5t96 -16.5q142 0 166 18
q25 20 70.5 76.5t65.5 92.5h5l-67 -194h-547z" />
    <glyph glyph-name="lslash" unicode="&#x142;" horiz-adv-x="274" 
d="M285 376l4 -14l-114 -39l-63 -197q-19 -58 -19 -87q0 -35 36 -35q67 0 122 138l7 -2q-31 -76 -62.5 -113.5t-80.5 -37.5q-78 0 -78 77q0 24 18 84l48 152l-83 -27l-4 13l92 31l97 305q14 43 14 67q0 27 -40 32q-16 2 -65 4v5l195 10l-129 -402z" />
    <glyph glyph-name="OE" unicode="&#x152;" horiz-adv-x="978" 
d="M310 8q28 0 48 3t41.5 12.5t36.5 30t24 52.5l128 459q18 64 -14.5 86.5t-116.5 22.5q-62 0 -117.5 -25.5t-93.5 -70.5q-54 -63 -82.5 -155.5t-28.5 -192.5q0 -94 49.5 -158t125.5 -64zM868 0h-557q-107 0 -182 68t-75 189q0 192 130 317q53 51 127.5 80t151.5 29h547
l-43 -156h-5q0 54 -16.5 97.5t-47.5 47.5q-28 4 -88 4h-118l-88 -314h98q58 0 95 32q26 20 56 96h6l-78 -278h-5q17 77 0 111q-17 31 -76 31h-98l-72 -256q-18 -59 -0.5 -75t91.5 -16q155 0 184 23q30 24 68 77t55 85h5z" />
    <glyph glyph-name="oe" unicode="&#x153;" horiz-adv-x="705" 
d="M479 -14q-42 0 -78.5 21t-52.5 70q-77 -91 -179 -91q-60 0 -101 45t-41 130q0 45 21 100.5t58 102.5q76 97 179 97q46 0 82.5 -27t52.5 -78q84 105 192 105q37 0 63 -17.5t26 -49.5q0 -55 -44.5 -95t-105.5 -58.5t-131 -22.5q-12 -51 -12 -98q0 -51 22.5 -79.5
t63.5 -28.5q52 0 98.5 39t79.5 100l6 -3q-85 -162 -199 -162zM178 -7q79 0 134 108q49 98 49 206q0 76 -22.5 111.5t-58.5 35.5q-82 0 -138 -117q-45 -93 -45 -195q0 -75 22 -112t59 -37zM421 223q58 6 103 25.5t69 45t35.5 49.5t11.5 45q0 28 -13 47t-38 19
q-49 0 -97 -69.5t-71 -161.5z" />
    <glyph glyph-name="Scaron" unicode="&#x160;" horiz-adv-x="522" 
d="M214 -13q-52 0 -105 17.5t-77 37.5l-50 -52h-6l56 234h5q28 -227 195 -227q84 0 133.5 50t49.5 114q0 42 -15 67.5t-51 49.5q-20 13 -68 40.5t-73 44.5q-81 57 -81 135q0 81 65.5 139.5t164.5 58.5q42 0 87 -16.5t66 -37.5l47 51h7l-57 -227h-5q-13 221 -157 221
q-64 0 -111.5 -42t-47.5 -106q0 -39 14.5 -64.5t51.5 -51.5q22 -16 69.5 -43t71.5 -43q82 -55 82 -132q0 -96 -74.5 -157t-186.5 -61zM283 928l113 -140l186 140l4 -3q-17 -19 -79.5 -88.5t-78.5 -87.5q-11 -12 -18 -15.5t-25 -3.5q-15 0 -20 3t-10 14l-76 179z" />
    <glyph glyph-name="scaron" unicode="&#x161;" horiz-adv-x="362" 
d="M148 -14q-77 0 -110 35t-33 77q0 26 16 44t39 18t32.5 -12.5t9.5 -27.5t-9.5 -27t-29.5 -12h-3h-9.5t-6 -1.5t-4.5 -4t-1 -7.5q0 -26 29 -51t79 -25q45 0 76 27t31 67q0 21 -6 37.5t-22.5 32.5t-24.5 22.5t-33 24.5t-40 31.5t-28 37.5t-13 53q0 53 42 94.5t102 41.5
q36 0 60 -11.5t34 -30t13.5 -32.5t3.5 -27q0 -26 -12 -41.5t-35 -15.5q-15 0 -27 9.5t-12 27.5q0 22 25 39t25 18q-1 7 -3.5 14.5t-9.5 18.5t-23.5 18t-39.5 7q-36 0 -64.5 -26.5t-28.5 -70.5q0 -22 13 -43t25.5 -32t39.5 -31q29 -21 43.5 -34t29 -38t14.5 -53
q0 -57 -42.5 -99t-111.5 -42zM158 737l113 -140l186 140l4 -3q-17 -19 -79.5 -88.5t-78.5 -87.5q-11 -12 -18 -15.5t-25 -3.5q-15 0 -20 3t-10 14l-76 179z" />
    <glyph glyph-name="Ydieresis" unicode="&#x178;" horiz-adv-x="613" 
d="M117 0l1 4q50 3 71 10q32 11 41 49l65 262q15 60 15 136q0 77 -31.5 130.5t-97.5 53.5q-36 0 -69 -28t-49 -78l-6 2q52 154 174 154q71 0 105 -59t34 -146q0 -55 -11 -128h9q53 157 132.5 245.5t155.5 88.5q26 0 42.5 -13t16.5 -34q0 -23 -14 -35.5t-33 -12.5
q-21 0 -30.5 10.5t-9.5 22.5q0 21 13 38l-4 4q-28 -3 -63.5 -26t-73.5 -63t-72.5 -105.5t-54.5 -144.5l-68 -270q-9 -36 20 -49q8 -4 37.5 -9t43.5 -5l-1 -4h-288zM358 778q-20 0 -31 13t-11 31q0 23 16 39.5t42 16.5q16 0 27.5 -13.5t11.5 -29.5q0 -23 -15 -40t-40 -17z
M551 778q-20 0 -31 13t-11 31q0 23 16 39.5t42 16.5q16 0 27.5 -13.5t11.5 -29.5q0 -23 -15 -40t-40 -17z" />
    <glyph glyph-name="Zcaron" unicode="&#x17d;" horiz-adv-x="581" 
d="M-62 0l2 8l635 668h-198q-61 0 -87 -5q-38 -7 -87 -62t-85 -110h-4l68 184h485l-2 -6l-637 -670h213q125 0 160 26q35 27 76.5 79t67.5 93h4l-73 -205h-538zM329 928l113 -140l186 140l4 -3q-17 -19 -79.5 -88.5t-78.5 -87.5q-11 -12 -18 -15.5t-25 -3.5q-15 0 -20 3
t-10 14l-76 179z" />
    <glyph glyph-name="zcaron" unicode="&#x17e;" horiz-adv-x="407" 
d="M3 -13q-11 0 -19.5 8.5t-8.5 25.5q0 27 56 73q221 182 326 256l-1 3q-31 -2 -97.5 17t-90.5 19q-67 0 -67 -48q0 -23 18.5 -40.5t42.5 -25.5l-3 -6q-99 33 -99 95q0 37 27.5 66t65.5 29q35 0 70 -25t68 -50t60 -25q11 0 18.5 2.5t10 10t3 12t0 16.5t-0.5 15q0 21 9.5 33
t22.5 12q22 0 22 -30q0 -19 -11.5 -36t-46.5 -45l-317 -251l1 -3q26 -1 81 -20t94 -20q41 -1 64.5 13t26.5 38q3 25 -11.5 41.5t-36.5 20.5l2 5q80 -17 80 -93q0 -38 -28 -65t-62 -27q-47 0 -120.5 51t-104.5 51q-9 -2 -13.5 -10t-4.5 -14.5t1 -20.5t1 -19q0 -39 -28 -39z
M180 737l113 -140l186 140l4 -3q-17 -19 -79.5 -88.5t-78.5 -87.5q-11 -12 -18 -15.5t-25 -3.5q-15 0 -20 3t-10 14l-76 179z" />
    <glyph glyph-name="florin" unicode="&#x192;" horiz-adv-x="450" 
d="M-98 -194q-35 0 -58.5 16t-23.5 41q0 21 11.5 35.5t32.5 14.5q43 0 43 -43q0 -24 -23 -47q5 -10 22 -10q54 0 92 52t79 173q21 61 86 282h-106l4 14h105q25 83 54 137.5t76 94.5q67 58 135 58q44 0 70 -17t26 -41q0 -21 -9.5 -36t-29.5 -15q-43 0 -43 39q0 25 16 51
q-6 12 -35 12q-109 0 -173 -221l-17 -62h126l-5 -14h-124q-52 -175 -79 -254q-41 -118 -111 -188q-70 -72 -141 -72z" />
    <glyph glyph-name="circumflex" unicode="&#x2c6;" horiz-adv-x="500" 
d="M481 530l-113 140l-186 -140l-4 3q17 19 79.5 88.5t78.5 87.5q11 12 18 15.5t25 3.5q15 0 20 -3t10 -14l76 -179z" />
    <glyph glyph-name="caron" unicode="&#x2c7;" horiz-adv-x="500" 
d="M227 737l113 -140l186 140l4 -3q-17 -19 -79.5 -88.5t-78.5 -87.5q-11 -12 -18 -15.5t-25 -3.5q-15 0 -20 3t-10 14l-76 179z" />
    <glyph glyph-name="breve" unicode="&#x2d8;" horiz-adv-x="500" 
d="M336 539q-45 0 -74.5 55.5t-31.5 126.5l5 2q9 -44 38 -83.5t77 -39.5q45 0 94 38t82 85l4 -2q-38 -72 -93 -127t-101 -55z" />
    <glyph glyph-name="dotaccent" unicode="&#x2d9;" horiz-adv-x="500" 
d="M359 598q-23 0 -40 17t-17 40q0 24 17 41.5t40 17.5q26 0 43 -16.5t17 -38.5q0 -25 -17.5 -43t-42.5 -18z" />
    <glyph glyph-name="ring" unicode="&#x2da;" horiz-adv-x="500" 
d="M342 530q-42 0 -71 23t-29 58q0 48 39 79.5t88 31.5q42 0 70 -23t28 -60q0 -45 -37.5 -77t-87.5 -32zM340 538q36 0 59.5 36.5t23.5 76.5q0 28 -13.5 45.5t-39.5 17.5q-36 0 -59.5 -37t-23.5 -78q0 -27 13.5 -44t39.5 -17z" />
    <glyph glyph-name="ogonek" unicode="&#x2db;" horiz-adv-x="500" 
d="M194 -226q-68 0 -110 18t-42 53q0 39 41 74.5t139 80.5h5q-121 -89 -125 -145q-2 -28 20.5 -50t73.5 -26z" />
    <glyph glyph-name="tilde" unicode="&#x2dc;" horiz-adv-x="500" 
d="M149 556l-5 2q13 22 29 45t47.5 49.5t58.5 26.5q33 0 70.5 -28.5t59.5 -28.5q30 0 61 26t47 50l5 -2q-72 -126 -137 -126q-30 0 -69 28.5t-61 28.5q-30 0 -60.5 -24t-45.5 -47z" />
    <glyph glyph-name="hungarumlaut" unicode="&#x2dd;" horiz-adv-x="500" 
d="M322 661q-17 -11 -182 -120l-3 3q140 157 141 158q33 40 61 40q11 0 18 -7.5t7 -17.5q0 -29 -42 -56zM505 661q-69 -44 -184 -120l-3 3q18 20 72.5 79.5t70.5 78.5q33 40 61 40q11 0 18 -7.5t7 -17.5q0 -29 -42 -56z" />
    <glyph glyph-name="pi" unicode="&#x3c0;" 
d="M387 -2q-31 0 -53 21.5t-22 53.5q0 14 9 43t9 51v11l-7 5q-7 -1 -20 -1q-30 0 -56 18l-13 -1q-15 -22 -21 -61q-14 -83 -78 -83q-31 0 -54 22.5t-23 54.5t24 53.5t59 21.5q49 0 74 13l3 14q-10 22 -10 43q0 13 3 25l-5 13q-9 3 -27 3q-15 0 -35 -3.5t-29 -3.5
q-33 0 -55 22.5t-22 53.5t22 54t54 23q45 0 67 -42q4 -7 9 -24t11.5 -31.5t17.5 -25.5l15 1q28 30 69 30l11 7q0 28 -17 61.5t-17 52.5q0 32 22 52.5t54 20.5t53 -22.5t21 -53.5q0 -22 -10 -37.5t-22.5 -23t-29 -22.5t-26.5 -33l4 -12q38 -20 48 -58l12 -6q23 8 54.5 39
t63.5 31q30 0 51.5 -22.5t21.5 -54.5q0 -31 -21.5 -52.5t-53.5 -21.5q-24 0 -56.5 23t-59.5 27l-9 -8q-6 -35 -39 -60l-1 -10q15 -20 53 -39q55 -26 55 -76q0 -30 -23 -53t-55 -23zM303 208q29 0 48 20t19 50q0 29 -19 48.5t-48 19.5q-28 0 -47.5 -19.5t-19.5 -48.5
t19.5 -49.5t47.5 -20.5z" />
    <glyph glyph-name="endash" unicode="&#x2013;" horiz-adv-x="544" 
d="M55 232l13 44h444l-13 -44h-444z" />
    <glyph glyph-name="emdash" unicode="&#x2014;" horiz-adv-x="884" 
d="M55 232l12 44h785l-12 -44h-785z" />
    <glyph glyph-name="quoteleft" unicode="&#x2018;" horiz-adv-x="166" 
d="M246 713l2 -5q-91 -47 -118 -128h33q27 0 39.5 -12.5t12.5 -30.5q0 -24 -18 -42.5t-46 -18.5q-25 0 -39.5 17t-14.5 46q0 108 149 174z" />
    <glyph glyph-name="quoteright" unicode="&#x2019;" horiz-adv-x="166" 
d="M115 480l-2 5q91 47 118 128h-33q-27 0 -39.5 12.5t-12.5 30.5q0 24 18 42.5t46 18.5q25 0 39.5 -17t14.5 -46q0 -108 -149 -174z" />
    <glyph glyph-name="quotesinglbase" unicode="&#x201a;" horiz-adv-x="166" 
d="M-60 -131l-2 5q91 47 118 128h-33q-27 0 -39.5 12.5t-12.5 30.5q0 24 18 42.5t46 18.5q25 0 39.5 -17t14.5 -46q0 -108 -149 -174z" />
    <glyph glyph-name="quotedblleft" unicode="&#x201c;" horiz-adv-x="336" 
d="M416 713l2 -5q-91 -47 -118 -128h33q27 0 39.5 -12.5t12.5 -30.5q0 -24 -18 -42.5t-46 -18.5q-25 0 -39.5 17t-14.5 46q0 108 149 174zM246 713l2 -5q-91 -47 -118 -128h33q27 0 39.5 -12.5t12.5 -30.5q0 -24 -18 -42.5t-46 -18.5q-25 0 -39.5 17t-14.5 46q0 108 149 174
z" />
    <glyph glyph-name="quotedblright" unicode="&#x201d;" horiz-adv-x="336" 
d="M115 480l-2 5q91 47 118 128h-33q-27 0 -39.5 12.5t-12.5 30.5q0 24 18 42.5t46 18.5q25 0 39.5 -17t14.5 -46q0 -108 -149 -174zM285 480l-2 5q91 47 118 128h-33q-27 0 -39.5 12.5t-12.5 30.5q0 24 18 42.5t46 18.5q25 0 39.5 -17t14.5 -46q0 -108 -149 -174z" />
    <glyph glyph-name="quotedblbase" unicode="&#x201e;" horiz-adv-x="336" 
d="M-60 -131l-2 5q91 47 118 128h-33q-27 0 -39.5 12.5t-12.5 30.5q0 24 18 42.5t46 18.5q25 0 39.5 -17t14.5 -46q0 -108 -149 -174zM110 -131l-2 5q91 47 118 128h-33q-27 0 -39.5 12.5t-12.5 30.5q0 24 18 42.5t46 18.5q25 0 39.5 -17t14.5 -46q0 -108 -149 -174z" />
    <glyph glyph-name="dagger" unicode="&#x2020;" horiz-adv-x="408" 
d="M179 113l-5 1q12 48 25.5 116t29.5 149t23 115q7 32 -10 36q-12 3 -37 -13q-33 -21 -52 -16q-38 11 -28 50q7 26 32 20q22 -6 19 -42q7 -1 32 5t35 4q24 -5 35 -26q5 25 6 80t5 68q10 39 41 31q32 -8 21 -48q-4 -14 -31 -61.5t-35 -70.5q22 10 45 4q10 -3 28.5 -20.5
t24.5 -20.5q16 33 42 25q21 -6 14 -32q-10 -39 -50 -28q-19 5 -37 39q-15 27 -25 30q-10 2 -16 -4t-11 -23q-99 -291 -121 -368z" />
    <glyph glyph-name="daggerdbl" unicode="&#x2021;" horiz-adv-x="408" 
d="M143 13q-31 9 -17 50q5 16 27 49.5t24 37.5q-21 -11 -44 -4q-13 4 -27.5 14t-17.5 11q-18 -32 -44 -26q-24 8 -16 39q10 30 44 22q19 -5 36 -27.5t28 -26.5q9 -3 17.5 7t16.5 29q41 87 63 151l5 -2q-3 -13 -24 -161q-6 -45 10 -49q15 -4 40 6.5t41 5.5q17 -4 24 -16
t2 -26q-3 -11 -14 -19t-24 -4q-22 8 -20 43q-4 1 -22.5 0t-27.5 3q-25 7 -38 28q-1 -8 2 -48t-1 -51q-12 -45 -43 -36zM246 365l-5 2q3 13 24 161q6 45 -10 49q-15 4 -40 -6.5t-41 -5.5q-17 4 -24 16t-2 26q3 11 14 19t24 4q22 -8 20 -43q4 -1 22.5 0t27.5 -3q25 -7 38 -28
q1 8 -2 48t1 51q12 45 43 36t17 -50q-5 -16 -27 -49.5t-24 -37.5q21 11 44 4q13 -4 27.5 -14t17.5 -11q18 32 44 26q24 -8 16 -39q-10 -30 -44 -22q-19 5 -36 27.5t-28 26.5q-9 3 -17.5 -7t-16.5 -29q-41 -87 -63 -151z" />
    <glyph glyph-name="bullet" unicode="&#x2022;" horiz-adv-x="400" 
d="M231 191q-49 0 -89 40t-40 94t40.5 95t88.5 41t88.5 -41t40.5 -95t-40 -94t-89 -40z" />
    <glyph glyph-name="ellipsis" unicode="&#x2026;" horiz-adv-x="618" 
d="M84 -8q-23 0 -39 16t-16 39t16.5 39t38.5 16q23 0 39 -16t16 -39t-16 -39t-39 -16zM290 -8q-23 0 -39 16t-16 39t16.5 39t38.5 16q23 0 39 -16t16 -39t-16 -39t-39 -16zM496 -8q-23 0 -39 16t-16 39t16.5 39t38.5 16q23 0 39 -16t16 -39t-16 -39t-39 -16z" />
    <glyph glyph-name="perthousand" unicode="&#x2030;" horiz-adv-x="1192" 
d="M202 300q-53 0 -88 34t-35 89q0 76 58 136t130 60q56 0 95.5 -34.5t39.5 -90.5q0 -80 -64.5 -137t-135.5 -57zM202 309q55 0 94.5 63.5t39.5 143.5q0 40 -17.5 67.5t-48.5 27.5q-38 0 -67.5 -35t-43.5 -82t-14 -92q0 -93 57 -93zM92 -97l-11 9l651 774l12 -9zM560 -13
q-53 0 -88 34t-35 89q0 76 58 136t130 60q56 0 95.5 -34.5t39.5 -90.5q0 -80 -64.5 -137t-135.5 -57zM560 -4q56 0 95 63.5t39 143.5q0 40 -17.5 67.5t-48.5 27.5q-56 0 -90.5 -67.5t-34.5 -141.5q0 -93 57 -93zM942 -16q-53 0 -88 34t-35 89q0 76 58 136t130 60
q56 0 95.5 -34.5t39.5 -90.5q0 -80 -64.5 -137t-135.5 -57zM942 -7q56 0 95 63.5t39 143.5q0 40 -17.5 67.5t-48.5 27.5q-56 0 -90.5 -67.5t-34.5 -141.5q0 -93 57 -93z" />
    <glyph glyph-name="guilsinglleft" unicode="&#x2039;" horiz-adv-x="332" 
d="M205 18q-129 148 -148 169q-17 19 -12 37q5 19 30 35q189 126 248 170l4 -4l-208 -203l90 -202z" />
    <glyph glyph-name="guilsinglright" unicode="&#x203a;" horiz-adv-x="332" 
d="M119 428l4 2q129 -148 148 -169q17 -19 12 -37q-5 -19 -30 -35q-189 -126 -248 -170l-4 4l208 203z" />
    <glyph glyph-name="fraction" unicode="&#x2044;" horiz-adv-x="322" 
d="M-217 -204l-18 13l773 943l19 -13z" />
    <glyph glyph-name="Euro" unicode="&#x20ac;" horiz-adv-x="547" 
d="M291 -14q-102 0 -151.5 73t-40.5 183h-64v11h65q5 48 17 90h-54v11h58q39 115 127.5 190.5t191.5 75.5q76 0 115.5 -32.5t39.5 -76.5q0 -37 -17 -56t-45 -19q-17 0 -27.5 10t-10.5 26q0 21 21 40.5t24 36.5q4 23 -25.5 43t-78.5 20q-72 0 -136 -74.5t-99 -183.5h254v-11
h-257q-13 -45 -19 -90h208v-11h-210q-25 -230 130 -230q113 0 216 135l5 -4q-45 -69 -106 -113t-131 -44z" />
    <glyph glyph-name="copyrightsound" unicode="&#x2117;" horiz-adv-x="939" 
d="M290 25v4q37 2 60 10t23 30v362q0 25 -23 31q-40 11 -63 12v4h251q64 0 104.5 -29.5t40.5 -78.5q0 -64 -51.5 -102.5t-123.5 -38.5h-60v-160q0 -23 21 -30q20 -7 73 -10v-4h-252zM448 236h37q32 0 55.5 14t34.5 34.5t16 38t5 30.5q0 43 -24.5 80.5t-73.5 37.5h-50v-235z
M477 -181q-174 0 -302 127.5t-128 304.5q0 176 128 303t302 127q84 0 163 -34.5t137.5 -92t93.5 -137t35 -166.5q0 -177 -128 -304.5t-301 -127.5zM477 -157q163 0 283 120t120 288q0 166 -120 286t-283 120q-164 0 -284 -119.5t-120 -286.5q0 -110 55.5 -204.5t148.5 -149
t200 -54.5z" />
    <glyph glyph-name="trademark" unicode="&#x2122;" horiz-adv-x="629" 
d="M396 433v2q31 5 37 9q12 8 12 49v147q0 23 -11 30q-18 11 -35 11v2h85l76 -193l56 160q6 17 8 33h87v-2q-10 0 -31 -6q-10 -4 -10 -17v-199q0 -13 10 -17q5 -3 32 -7v-2h-127v2q1 0 10.5 1t17 2.5t9.5 2.5q10 6 10 18v200h-6l-78 -223h-4l-88 223h-5v-163q0 -39 12 -49
q8 -7 39 -12v-2h-106zM184 433v2q32 5 33 5q12 4 12 16v222h-15q-28 0 -37 -1q-10 -1 -22.5 -26t-17.5 -42h-2v74h225v-74h-2q-22 66 -39 68q-9 1 -29 1h-22v-220q0 -12 11 -17l32 -6v-2h-127z" />
    <glyph glyph-name="Omega" unicode="&#x2126;" 
d="M387 -2q-31 0 -53 21.5t-22 53.5q0 14 9 43t9 51v11l-7 5q-7 -1 -20 -1q-30 0 -56 18l-13 -1q-15 -22 -21 -61q-14 -83 -78 -83q-31 0 -54 22.5t-23 54.5t24 53.5t59 21.5q49 0 74 13l3 14q-10 22 -10 43q0 13 3 25l-5 13q-9 3 -27 3q-15 0 -35 -3.5t-29 -3.5
q-33 0 -55 22.5t-22 53.5t22 54t54 23q45 0 67 -42q4 -7 9 -24t11.5 -31.5t17.5 -25.5l15 1q28 30 69 30l11 7q0 28 -17 61.5t-17 52.5q0 32 22 52.5t54 20.5t53 -22.5t21 -53.5q0 -22 -10 -37.5t-22.5 -23t-29 -22.5t-26.5 -33l4 -12q38 -20 48 -58l12 -6q23 8 54.5 39
t63.5 31q30 0 51.5 -22.5t21.5 -54.5q0 -31 -21.5 -52.5t-53.5 -21.5q-24 0 -56.5 23t-59.5 27l-9 -8q-6 -35 -39 -60l-1 -10q15 -20 53 -39q55 -26 55 -76q0 -30 -23 -53t-55 -23zM303 208q29 0 48 20t19 50q0 29 -19 48.5t-48 19.5q-28 0 -47.5 -19.5t-19.5 -48.5
t19.5 -49.5t47.5 -20.5z" />
    <glyph glyph-name="partialdiff" unicode="&#x2202;" 
d="M387 -2q-31 0 -53 21.5t-22 53.5q0 14 9 43t9 51v11l-7 5q-7 -1 -20 -1q-30 0 -56 18l-13 -1q-15 -22 -21 -61q-14 -83 -78 -83q-31 0 -54 22.5t-23 54.5t24 53.5t59 21.5q49 0 74 13l3 14q-10 22 -10 43q0 13 3 25l-5 13q-9 3 -27 3q-15 0 -35 -3.5t-29 -3.5
q-33 0 -55 22.5t-22 53.5t22 54t54 23q45 0 67 -42q4 -7 9 -24t11.5 -31.5t17.5 -25.5l15 1q28 30 69 30l11 7q0 28 -17 61.5t-17 52.5q0 32 22 52.5t54 20.5t53 -22.5t21 -53.5q0 -22 -10 -37.5t-22.5 -23t-29 -22.5t-26.5 -33l4 -12q38 -20 48 -58l12 -6q23 8 54.5 39
t63.5 31q30 0 51.5 -22.5t21.5 -54.5q0 -31 -21.5 -52.5t-53.5 -21.5q-24 0 -56.5 23t-59.5 27l-9 -8q-6 -35 -39 -60l-1 -10q15 -20 53 -39q55 -26 55 -76q0 -30 -23 -53t-55 -23zM303 208q29 0 48 20t19 50q0 29 -19 48.5t-48 19.5q-28 0 -47.5 -19.5t-19.5 -48.5
t19.5 -49.5t47.5 -20.5z" />
    <glyph glyph-name="Delta" unicode="&#x2206;" 
d="M387 -2q-31 0 -53 21.5t-22 53.5q0 14 9 43t9 51v11l-7 5q-7 -1 -20 -1q-30 0 -56 18l-13 -1q-15 -22 -21 -61q-14 -83 -78 -83q-31 0 -54 22.5t-23 54.5t24 53.5t59 21.5q49 0 74 13l3 14q-10 22 -10 43q0 13 3 25l-5 13q-9 3 -27 3q-15 0 -35 -3.5t-29 -3.5
q-33 0 -55 22.5t-22 53.5t22 54t54 23q45 0 67 -42q4 -7 9 -24t11.5 -31.5t17.5 -25.5l15 1q28 30 69 30l11 7q0 28 -17 61.5t-17 52.5q0 32 22 52.5t54 20.5t53 -22.5t21 -53.5q0 -22 -10 -37.5t-22.5 -23t-29 -22.5t-26.5 -33l4 -12q38 -20 48 -58l12 -6q23 8 54.5 39
t63.5 31q30 0 51.5 -22.5t21.5 -54.5q0 -31 -21.5 -52.5t-53.5 -21.5q-24 0 -56.5 23t-59.5 27l-9 -8q-6 -35 -39 -60l-1 -10q15 -20 53 -39q55 -26 55 -76q0 -30 -23 -53t-55 -23zM303 208q29 0 48 20t19 50q0 29 -19 48.5t-48 19.5q-28 0 -47.5 -19.5t-19.5 -48.5
t19.5 -49.5t47.5 -20.5z" />
    <glyph glyph-name="product" unicode="&#x220f;" 
d="M387 -2q-31 0 -53 21.5t-22 53.5q0 14 9 43t9 51v11l-7 5q-7 -1 -20 -1q-30 0 -56 18l-13 -1q-15 -22 -21 -61q-14 -83 -78 -83q-31 0 -54 22.5t-23 54.5t24 53.5t59 21.5q49 0 74 13l3 14q-10 22 -10 43q0 13 3 25l-5 13q-9 3 -27 3q-15 0 -35 -3.5t-29 -3.5
q-33 0 -55 22.5t-22 53.5t22 54t54 23q45 0 67 -42q4 -7 9 -24t11.5 -31.5t17.5 -25.5l15 1q28 30 69 30l11 7q0 28 -17 61.5t-17 52.5q0 32 22 52.5t54 20.5t53 -22.5t21 -53.5q0 -22 -10 -37.5t-22.5 -23t-29 -22.5t-26.5 -33l4 -12q38 -20 48 -58l12 -6q23 8 54.5 39
t63.5 31q30 0 51.5 -22.5t21.5 -54.5q0 -31 -21.5 -52.5t-53.5 -21.5q-24 0 -56.5 23t-59.5 27l-9 -8q-6 -35 -39 -60l-1 -10q15 -20 53 -39q55 -26 55 -76q0 -30 -23 -53t-55 -23zM303 208q29 0 48 20t19 50q0 29 -19 48.5t-48 19.5q-28 0 -47.5 -19.5t-19.5 -48.5
t19.5 -49.5t47.5 -20.5z" />
    <glyph glyph-name="summation" unicode="&#x2211;" 
d="M387 -2q-31 0 -53 21.5t-22 53.5q0 14 9 43t9 51v11l-7 5q-7 -1 -20 -1q-30 0 -56 18l-13 -1q-15 -22 -21 -61q-14 -83 -78 -83q-31 0 -54 22.5t-23 54.5t24 53.5t59 21.5q49 0 74 13l3 14q-10 22 -10 43q0 13 3 25l-5 13q-9 3 -27 3q-15 0 -35 -3.5t-29 -3.5
q-33 0 -55 22.5t-22 53.5t22 54t54 23q45 0 67 -42q4 -7 9 -24t11.5 -31.5t17.5 -25.5l15 1q28 30 69 30l11 7q0 28 -17 61.5t-17 52.5q0 32 22 52.5t54 20.5t53 -22.5t21 -53.5q0 -22 -10 -37.5t-22.5 -23t-29 -22.5t-26.5 -33l4 -12q38 -20 48 -58l12 -6q23 8 54.5 39
t63.5 31q30 0 51.5 -22.5t21.5 -54.5q0 -31 -21.5 -52.5t-53.5 -21.5q-24 0 -56.5 23t-59.5 27l-9 -8q-6 -35 -39 -60l-1 -10q15 -20 53 -39q55 -26 55 -76q0 -30 -23 -53t-55 -23zM303 208q29 0 48 20t19 50q0 29 -19 48.5t-48 19.5q-28 0 -47.5 -19.5t-19.5 -48.5
t19.5 -49.5t47.5 -20.5z" />
    <glyph glyph-name="minus" unicode="&#x2212;" horiz-adv-x="556" 
d="M43 246v27h482v-27h-482z" />
    <glyph glyph-name="radical" unicode="&#x221a;" 
d="M387 -2q-31 0 -53 21.5t-22 53.5q0 14 9 43t9 51v11l-7 5q-7 -1 -20 -1q-30 0 -56 18l-13 -1q-15 -22 -21 -61q-14 -83 -78 -83q-31 0 -54 22.5t-23 54.5t24 53.5t59 21.5q49 0 74 13l3 14q-10 22 -10 43q0 13 3 25l-5 13q-9 3 -27 3q-15 0 -35 -3.5t-29 -3.5
q-33 0 -55 22.5t-22 53.5t22 54t54 23q45 0 67 -42q4 -7 9 -24t11.5 -31.5t17.5 -25.5l15 1q28 30 69 30l11 7q0 28 -17 61.5t-17 52.5q0 32 22 52.5t54 20.5t53 -22.5t21 -53.5q0 -22 -10 -37.5t-22.5 -23t-29 -22.5t-26.5 -33l4 -12q38 -20 48 -58l12 -6q23 8 54.5 39
t63.5 31q30 0 51.5 -22.5t21.5 -54.5q0 -31 -21.5 -52.5t-53.5 -21.5q-24 0 -56.5 23t-59.5 27l-9 -8q-6 -35 -39 -60l-1 -10q15 -20 53 -39q55 -26 55 -76q0 -30 -23 -53t-55 -23zM303 208q29 0 48 20t19 50q0 29 -19 48.5t-48 19.5q-28 0 -47.5 -19.5t-19.5 -48.5
t19.5 -49.5t47.5 -20.5z" />
    <glyph glyph-name="infinity" unicode="&#x221e;" 
d="M387 -2q-31 0 -53 21.5t-22 53.5q0 14 9 43t9 51v11l-7 5q-7 -1 -20 -1q-30 0 -56 18l-13 -1q-15 -22 -21 -61q-14 -83 -78 -83q-31 0 -54 22.5t-23 54.5t24 53.5t59 21.5q49 0 74 13l3 14q-10 22 -10 43q0 13 3 25l-5 13q-9 3 -27 3q-15 0 -35 -3.5t-29 -3.5
q-33 0 -55 22.5t-22 53.5t22 54t54 23q45 0 67 -42q4 -7 9 -24t11.5 -31.5t17.5 -25.5l15 1q28 30 69 30l11 7q0 28 -17 61.5t-17 52.5q0 32 22 52.5t54 20.5t53 -22.5t21 -53.5q0 -22 -10 -37.5t-22.5 -23t-29 -22.5t-26.5 -33l4 -12q38 -20 48 -58l12 -6q23 8 54.5 39
t63.5 31q30 0 51.5 -22.5t21.5 -54.5q0 -31 -21.5 -52.5t-53.5 -21.5q-24 0 -56.5 23t-59.5 27l-9 -8q-6 -35 -39 -60l-1 -10q15 -20 53 -39q55 -26 55 -76q0 -30 -23 -53t-55 -23zM303 208q29 0 48 20t19 50q0 29 -19 48.5t-48 19.5q-28 0 -47.5 -19.5t-19.5 -48.5
t19.5 -49.5t47.5 -20.5z" />
    <glyph glyph-name="integral" unicode="&#x222b;" 
d="M387 -2q-31 0 -53 21.5t-22 53.5q0 14 9 43t9 51v11l-7 5q-7 -1 -20 -1q-30 0 -56 18l-13 -1q-15 -22 -21 -61q-14 -83 -78 -83q-31 0 -54 22.5t-23 54.5t24 53.5t59 21.5q49 0 74 13l3 14q-10 22 -10 43q0 13 3 25l-5 13q-9 3 -27 3q-15 0 -35 -3.5t-29 -3.5
q-33 0 -55 22.5t-22 53.5t22 54t54 23q45 0 67 -42q4 -7 9 -24t11.5 -31.5t17.5 -25.5l15 1q28 30 69 30l11 7q0 28 -17 61.5t-17 52.5q0 32 22 52.5t54 20.5t53 -22.5t21 -53.5q0 -22 -10 -37.5t-22.5 -23t-29 -22.5t-26.5 -33l4 -12q38 -20 48 -58l12 -6q23 8 54.5 39
t63.5 31q30 0 51.5 -22.5t21.5 -54.5q0 -31 -21.5 -52.5t-53.5 -21.5q-24 0 -56.5 23t-59.5 27l-9 -8q-6 -35 -39 -60l-1 -10q15 -20 53 -39q55 -26 55 -76q0 -30 -23 -53t-55 -23zM303 208q29 0 48 20t19 50q0 29 -19 48.5t-48 19.5q-28 0 -47.5 -19.5t-19.5 -48.5
t19.5 -49.5t47.5 -20.5z" />
    <glyph glyph-name="approxequal" unicode="&#x2248;" 
d="M387 -2q-31 0 -53 21.5t-22 53.5q0 14 9 43t9 51v11l-7 5q-7 -1 -20 -1q-30 0 -56 18l-13 -1q-15 -22 -21 -61q-14 -83 -78 -83q-31 0 -54 22.5t-23 54.5t24 53.5t59 21.5q49 0 74 13l3 14q-10 22 -10 43q0 13 3 25l-5 13q-9 3 -27 3q-15 0 -35 -3.5t-29 -3.5
q-33 0 -55 22.5t-22 53.5t22 54t54 23q45 0 67 -42q4 -7 9 -24t11.5 -31.5t17.5 -25.5l15 1q28 30 69 30l11 7q0 28 -17 61.5t-17 52.5q0 32 22 52.5t54 20.5t53 -22.5t21 -53.5q0 -22 -10 -37.5t-22.5 -23t-29 -22.5t-26.5 -33l4 -12q38 -20 48 -58l12 -6q23 8 54.5 39
t63.5 31q30 0 51.5 -22.5t21.5 -54.5q0 -31 -21.5 -52.5t-53.5 -21.5q-24 0 -56.5 23t-59.5 27l-9 -8q-6 -35 -39 -60l-1 -10q15 -20 53 -39q55 -26 55 -76q0 -30 -23 -53t-55 -23zM303 208q29 0 48 20t19 50q0 29 -19 48.5t-48 19.5q-28 0 -47.5 -19.5t-19.5 -48.5
t19.5 -49.5t47.5 -20.5z" />
    <glyph glyph-name="notequal" unicode="&#x2260;" 
d="M387 -2q-31 0 -53 21.5t-22 53.5q0 14 9 43t9 51v11l-7 5q-7 -1 -20 -1q-30 0 -56 18l-13 -1q-15 -22 -21 -61q-14 -83 -78 -83q-31 0 -54 22.5t-23 54.5t24 53.5t59 21.5q49 0 74 13l3 14q-10 22 -10 43q0 13 3 25l-5 13q-9 3 -27 3q-15 0 -35 -3.5t-29 -3.5
q-33 0 -55 22.5t-22 53.5t22 54t54 23q45 0 67 -42q4 -7 9 -24t11.5 -31.5t17.5 -25.5l15 1q28 30 69 30l11 7q0 28 -17 61.5t-17 52.5q0 32 22 52.5t54 20.5t53 -22.5t21 -53.5q0 -22 -10 -37.5t-22.5 -23t-29 -22.5t-26.5 -33l4 -12q38 -20 48 -58l12 -6q23 8 54.5 39
t63.5 31q30 0 51.5 -22.5t21.5 -54.5q0 -31 -21.5 -52.5t-53.5 -21.5q-24 0 -56.5 23t-59.5 27l-9 -8q-6 -35 -39 -60l-1 -10q15 -20 53 -39q55 -26 55 -76q0 -30 -23 -53t-55 -23zM303 208q29 0 48 20t19 50q0 29 -19 48.5t-48 19.5q-28 0 -47.5 -19.5t-19.5 -48.5
t19.5 -49.5t47.5 -20.5z" />
    <glyph glyph-name="lessequal" unicode="&#x2264;" horiz-adv-x="556" 
d="M57 0v26h442v-26h-442zM495 65l-442 215v20l442 215v-29l-405 -196l405 -196v-29z" />
    <glyph glyph-name="greaterequal" unicode="&#x2265;" horiz-adv-x="556" 
d="M499 26v-26h-442v26h442zM503 280l-442 -215v29l405 196l-405 196v29l442 -215v-20z" />
    <glyph glyph-name="lozenge" unicode="&#x25ca;" 
d="M387 -2q-31 0 -53 21.5t-22 53.5q0 14 9 43t9 51v11l-7 5q-7 -1 -20 -1q-30 0 -56 18l-13 -1q-15 -22 -21 -61q-14 -83 -78 -83q-31 0 -54 22.5t-23 54.5t24 53.5t59 21.5q49 0 74 13l3 14q-10 22 -10 43q0 13 3 25l-5 13q-9 3 -27 3q-15 0 -35 -3.5t-29 -3.5
q-33 0 -55 22.5t-22 53.5t22 54t54 23q45 0 67 -42q4 -7 9 -24t11.5 -31.5t17.5 -25.5l15 1q28 30 69 30l11 7q0 28 -17 61.5t-17 52.5q0 32 22 52.5t54 20.5t53 -22.5t21 -53.5q0 -22 -10 -37.5t-22.5 -23t-29 -22.5t-26.5 -33l4 -12q38 -20 48 -58l12 -6q23 8 54.5 39
t63.5 31q30 0 51.5 -22.5t21.5 -54.5q0 -31 -21.5 -52.5t-53.5 -21.5q-24 0 -56.5 23t-59.5 27l-9 -8q-6 -35 -39 -60l-1 -10q15 -20 53 -39q55 -26 55 -76q0 -30 -23 -53t-55 -23zM303 208q29 0 48 20t19 50q0 29 -19 48.5t-48 19.5q-28 0 -47.5 -19.5t-19.5 -48.5
t19.5 -49.5t47.5 -20.5z" />
    <glyph glyph-name="apple" unicode="&#xf8ff;" 
d="M387 -2q-31 0 -53 21.5t-22 53.5q0 14 9 43t9 51v11l-7 5q-7 -1 -20 -1q-30 0 -56 18l-13 -1q-15 -22 -21 -61q-14 -83 -78 -83q-31 0 -54 22.5t-23 54.5t24 53.5t59 21.5q49 0 74 13l3 14q-10 22 -10 43q0 13 3 25l-5 13q-9 3 -27 3q-15 0 -35 -3.5t-29 -3.5
q-33 0 -55 22.5t-22 53.5t22 54t54 23q45 0 67 -42q4 -7 9 -24t11.5 -31.5t17.5 -25.5l15 1q28 30 69 30l11 7q0 28 -17 61.5t-17 52.5q0 32 22 52.5t54 20.5t53 -22.5t21 -53.5q0 -22 -10 -37.5t-22.5 -23t-29 -22.5t-26.5 -33l4 -12q38 -20 48 -58l12 -6q23 8 54.5 39
t63.5 31q30 0 51.5 -22.5t21.5 -54.5q0 -31 -21.5 -52.5t-53.5 -21.5q-24 0 -56.5 23t-59.5 27l-9 -8q-6 -35 -39 -60l-1 -10q15 -20 53 -39q55 -26 55 -76q0 -30 -23 -53t-55 -23zM303 208q29 0 48 20t19 50q0 29 -19 48.5t-48 19.5q-28 0 -47.5 -19.5t-19.5 -48.5
t19.5 -49.5t47.5 -20.5z" />
    <glyph glyph-name="fi" unicode="&#xfb01;" horiz-adv-x="555" 
d="M-123 -236q-47 0 -68 21.5t-21 51.5q0 16 12 30.5t32 14.5q17 0 31.5 -10.5t14.5 -30.5q0 -12 -24 -52q1 -8 8.5 -13t13.5 -5q55 0 92 48t73 167q45 148 119 445h-106l4 14h106l11 40q33 121 103 189q71 69 156 69q51 0 82.5 -20.5t31.5 -55.5q0 -18 -11.5 -30.5
t-32.5 -12.5q-16 0 -32 9.5t-16 27.5q0 11 8 31.5t9 28.5q-3 15 -39 15q-124 0 -187 -221l-20 -70h191q28 7 40 7q19 0 27 -10t4 -36q-8 -48 -41 -131l-57 -147q-23 -60 -23 -90q0 -32 36 -32q70 0 123 136l6 -2q-30 -75 -61.5 -113t-80.5 -38q-80 0 -80 78q0 29 20 83
q9 22 32.5 81t34.5 89q22 59 27 100q0 11 -8 11h-193q-85 -328 -110 -407q-41 -130 -109 -200q-60 -60 -128 -60z" />
    <glyph glyph-name="fl" unicode="&#xfb02;" horiz-adv-x="574" 
d="M-123 -236q-47 0 -68 21.5t-21 51.5q0 16 12 30.5t32 14.5q17 0 31.5 -10.5t14.5 -30.5q0 -12 -24 -52q1 -8 8.5 -13t13.5 -5q56 0 91.5 46.5t73.5 168.5q22 72 43 148.5t48 184.5l28 112h-106l4 14h106l11 40q33 117 99 185q71 73 160 73q57 0 80 -39l95 38l-197 -616
q-19 -58 -19 -87q0 -35 36 -35q67 0 122 138l7 -2q-31 -76 -62.5 -113.5t-80.5 -37.5q-78 0 -78 77q0 26 18 84l154 485q-16 -14 -41 -5.5t-25 32.5q0 9 6 28t7 24q-6 22 -32 22q-55 0 -100.5 -56t-76.5 -165l-20 -70h126l-5 -14h-124q-85 -328 -110 -407
q-41 -130 -109 -200q-60 -60 -128 -60z" />
    <glyph glyph-name="glyph10" horiz-adv-x="228" 
 />
    <glyph glyph-name="e.ordn" horiz-adv-x="378" 
d="M208 278q-46 0 -81.5 27t-35.5 89q0 70 62 148t148 78q70 0 70 -51q0 -56 -61.5 -90.5t-145.5 -44.5q-6 -27 -6 -58q0 -79 61 -79q36 0 71.5 28.5t58.5 71.5l6 -4q-58 -115 -147 -115zM166 442q81 13 119 53.5t38 73.5q0 43 -36 43q-32 0 -68.5 -51t-52.5 -119z" />
    <glyph glyph-name="R.salt" horiz-adv-x="684" 
d="M393 353v-3q62 -9 94 -41.5t40 -93.5q7 -56 12 -131q4 -63 45 -72q31 -6 58 -8l-2 -4h-178q0 91 -1.5 138t-11 96.5t-28.5 72.5q-36 42 -106 42h-71q-20 -72 -80 -282q-9 -36 18 -48q8 -4 32.5 -9t38.5 -6l-1 -4h-280l1 4q53 3 74 10q32 11 43 49l153 549q9 37 -16 50
q-35 15 -67 17l1 4h265q99 0 149 -35t50 -99q0 -158 -232 -196zM246 357h73q101 0 162.5 46t61.5 135q0 66 -33 101.5t-97 35.5h-78z" />
    <glyph glyph-name="J.salt" horiz-adv-x="527" 
d="M290 200l115 412q9 37 -16 50q-35 15 -67 17l1 4h281l-1 -4q-40 -2 -78 -12q-33 -10 -44 -50l-119 -425q-13 -44 -27.5 -76.5t-39.5 -65t-64.5 -49.5t-91.5 -17q-66 0 -98 27.5t-32 62.5q0 25 14 41t38 16q21 0 33.5 -12.5t12.5 -33.5q0 -36 -38 -64q21 -29 70 -29
q34 0 56.5 10t40.5 44.5t25 55t25 85.5q3 8 4 13z" />
    <glyph glyph-name="Q.salt" horiz-adv-x="701" 
d="M300 -16q-94 0 -170 76t-76 197q0 164 103 292q56 70 130 109.5t151 39.5q99 0 174 -75.5t75 -192.5q0 -142 -79 -264q-63 -98 -156 -145q28 -57 55 -83.5t63 -26.5q38 0 61 19.5t49 64.5l8 -4q-27 -55 -60 -86t-89 -31q-82 0 -142 125q-47 -15 -97 -15zM194 36
q56 89 127 89q77 0 122 -85q70 54 113 156q50 118 50 255q0 102 -40.5 170.5t-129.5 68.5q-151 0 -238 -176q-63 -128 -63 -284q0 -132 59 -194zM306 -8q44 0 86 17q-20 40 -39.5 58t-49.5 18q-64 0 -103 -54q42 -39 106 -39z" />
    <glyph glyph-name="Y.salt" horiz-adv-x="543" 
d="M55 0l2 4q53 4 70 9q35 10 46 51l49 180q10 38 7 51q-49 225 -53 239q-17 67 -27 92t-32 39q-16 11 -46 14l2 4h263l-2 -4q-100 -6 -106 -28q-1 -5 18 -100q27 -132 58 -251q15 17 59 69t82.5 97t54.5 65q76 93 81 110q9 30 -105 38l1 4h224l-2 -4q-29 -3 -51 -14
q-9 -5 -20.5 -14.5t-19 -17.5t-21.5 -23.5t-20 -22.5q-40 -45 -131.5 -153t-104.5 -122l-6.5 -6.5t-5 -6t-3.5 -5t-4 -6.5t-3 -7.5t-4 -11t-4.5 -15t-5.5 -20.5l-48 -171q-9 -35 23 -46q29 -10 66 -13l-1 -4h-280z" />
    <glyph glyph-name="ampersand.salt" horiz-adv-x="635" 
d="M251 -235l-3 24q91 -5 136.5 30.5t45.5 130.5q0 61 -49 162q-79 -126 -197 -126q-69 0 -116.5 41.5t-47.5 111.5q0 76 55.5 138.5t156.5 105.5q-32 72 -32 120q0 82 50 138t127 56q48 0 80 -29.5t32 -77.5q0 -70 -51 -114.5t-139 -74.5q18 -39 63.5 -117t54.5 -94
q19 41 32.5 67.5t36 63.5t46 56t47.5 19q33 0 50 -17.5t17 -40.5q0 -17 -9 -30t-26 -13q-25 0 -38.5 21.5t-30.5 21.5q-24 0 -51 -38.5t-69 -118.5q54 -101 54 -160q0 -112 -59.5 -181.5t-165.5 -74.5zM212 28q101 0 165 91q-16 31 -68.5 122t-73.5 135q-66 -35 -104.5 -89
t-38.5 -115t32.5 -102.5t87.5 -41.5zM296 408q159 66 159 177q0 41 -21 73t-60 32q-49 0 -80.5 -48t-31.5 -107q0 -52 34 -127z" />
    <glyph glyph-name="NUL" horiz-adv-x="0" 
 />
    <glyph glyph-name="NUL" horiz-adv-x="0" 
 />
    <glyph glyph-name="DEL" horiz-adv-x="0" 
 />
    </font>
</defs>
</svg>
