<svg version="1" xmlns="http://www.w3.org/2000/svg" width="1365.333" height="1365.333" viewBox="0 0 1024.000000 1024.000000"><path d="M205.5.7c-18.5 1.6-44.9 7.7-60.8 13.9C114.2 26.7 88.7 43.3 66 66 32.4 99.6 12.4 138.1 2.8 188L.6 199.5l-.3 257-.2 257 3.4-8.5c19.7-48 50.6-86.8 94.9-119.5 37-27.2 88.8-46.8 119.3-45 21.8 1.2 36.3 14.9 36.3 34.2 0 11.8-4 16.5-23 26.8-53.1 28.8-93.1 69.2-108.9 110-16.3 42.1-12.2 82.2 12.2 118.5 16.4 24.4 43.7 41.8 76.2 48.5 21.9 4.5 34 5 58 2.4 50-5.3 102.8-28.4 153.8-67.2 54.4-41.3 134.2-125.5 203.1-214.2 14.7-18.9 64.8-86.6 70-94.8 4.1-6.2-.6-6.7-28.4-3.1-37.4 4.9-75.1 20-106 42.4-9.9 7.3-14.9 9.2-23.5 9.2-15 0-23.5-8.7-23.1-23.7.4-16.3 10.7-26.2 46.1-44.6 39.6-20.5 78.4-31.9 150.2-43.9 16.4-2.7 32.5-5.2 35.8-5.6 10.4-1.1 12.5-2.5 22.8-15.8 5.2-6.7 19.3-25.4 31.3-41.6 61.9-83.2 89.2-112 171.4-181 10.4-8.7 40.1-30.2 43.2-31.2 3.5-1.2-17.6-50.8-22.4-52.7-4.1-1.8-78.7-14.2-110.9-18.5-44-6-80.7-8.9-129.4-10.5-83.2-2.6-169.5 13.8-233 44.3-61.9 29.8-103.7 74.5-117.2 125.5-3.5 13.1-3.7 35.3-.4 47.6 6.7 25.2 22.6 40.8 48.6 47.6 10.6 2.8 30.9 3 44.5.6 40.2-7.4 91.5-38.9 127.4-78.3 8.8-9.7 22.1-26.8 29.8-38.3 8.6-12.7 25.2-13.5 32.8-1.4 6.2 9.7 6.1 22.5-.2 38.6-5 12.8-20.8 43.9-29.5 57.9-54.8 89.5-130.3 144.1-213.2 154.4-13.6 1.7-23.5 1.8-39.1.4-40.2-3.6-71.4-17.4-97-42.9-23.1-23-37.5-52.8-43.1-88.6-1.6-9.9-1.5-40.1 0-51.5 4.9-36.2 17.7-70.7 36.7-99.3 19-28.4 48.4-58.8 78.4-80.9C424.5 85.6 478.6 59.9 541.5 42c49.1-13.9 96.1-21.3 153.5-24 12.9-.7 24.3-1.6 25.2-2.1 2.4-1.2 73.1-1.1 99.3.1 24.1 1.2 64.1 3.8 70 4.5l4 .6-2.8-1.6c-8.9-5.1-33.5-12.6-54.7-16.7L824.5.6 517 .5C347.9.4 207.7.5 205.5.7zM1013 257.1c-14.3 12.5-59.5 58-70.6 70.9-20.5 24-37.2 46.2-51.4 68.5-14.6 23.1-15.5 25.2-9.7 24.2 1.7-.4 25.5-1.7 52.7-3.1 62.3-3.2 87.6-4.8 89-5.6.7-.4.9-26.3.8-82.4l-.3-81.7-10.5 9.2zM1019 459.8c-35.3 2.1-170.4 16.6-179 19.2-1.9.6-4.3 1.6-5.2 2.3-.9.8-13.5 20.4-27.9 43.8C726.4 655.6 683.5 720.5 636.2 783c-38.2 50.4-67.8 84.7-103.3 119.5-60.6 59.4-114.1 95.1-174.9 116.6l-13.5 4.8 240-.2 240-.3 11.5-2.2c49.9-9.6 88.4-29.6 122-63.2 33.6-33.6 53.6-72.2 63.2-122l2.2-11.5.3-164.5c.2-90.5.2-172.6.1-182.5l-.3-18-4.5.3z"/></svg>